<svg xmlns="http://www.w3.org/2000/svg" width="207" height="154.24" viewBox="0 0 207 154.24">
  <g id="Completed-rafiki" transform="translate(0 -55)">
    <g id="freepik--background-complete--inject-81" transform="translate(0 55)">
      <rect id="Rectangle_1855" data-name="Rectangle 1855" width="207" height="0.104" transform="translate(0 135.544)" fill="#ebebeb"/>
      <rect id="Rectangle_1856" data-name="Rectangle 1856" width="13.712" height="0.104" transform="translate(21.718 139.485)" fill="#ebebeb"/>
      <rect id="Rectangle_1857" data-name="Rectangle 1857" width="22.298" height="0.104" transform="translate(70.852 139.539)" fill="#ebebeb"/>
      <rect id="Rectangle_1858" data-name="Rectangle 1858" width="7.945" height="0.104" transform="translate(43.789 141.621)" fill="#ebebeb"/>
      <rect id="Rectangle_1859" data-name="Rectangle 1859" width="7.961" height="0.104" transform="translate(176.683 141.571)" fill="#ebebeb"/>
      <rect id="Rectangle_1860" data-name="Rectangle 1860" width="12.54" height="0.104" transform="translate(160.454 141.571)" fill="#ebebeb"/>
      <rect id="Rectangle_1861" data-name="Rectangle 1861" width="17.62" height="0.104" transform="translate(135.929 140.888)" fill="#ebebeb"/>
      <path id="Path_11279" data-name="Path 11279" d="M120.509,172.079H40.57a2.364,2.364,0,0,1-2.36-2.364V57.343A2.364,2.364,0,0,1,40.57,55h79.939a2.364,2.364,0,0,1,2.364,2.364V169.715A2.364,2.364,0,0,1,120.509,172.079Zm-79.939-117a2.26,2.26,0,0,0-2.256,2.26V169.715a2.26,2.26,0,0,0,2.256,2.26h79.939a2.265,2.265,0,0,0,2.26-2.26V57.343a2.265,2.265,0,0,0-2.26-2.26Z" transform="translate(-22.391 -55)" fill="#ebebeb"/>
      <path id="Path_11280" data-name="Path 11280" d="M336.807,172.079H256.864a2.368,2.368,0,0,1-2.364-2.364V57.343A2.368,2.368,0,0,1,256.864,55h79.943a2.364,2.364,0,0,1,2.356,2.343V169.715A2.364,2.364,0,0,1,336.807,172.079Zm-79.943-117a2.265,2.265,0,0,0-2.26,2.26V169.715a2.265,2.265,0,0,0,2.26,2.26h79.943a2.265,2.265,0,0,0,2.26-2.26V57.343a2.265,2.265,0,0,0-2.26-2.26Z" transform="translate(-149.137 -55)" fill="#ebebeb"/>
      <rect id="Rectangle_1862" data-name="Rectangle 1862" width="48.065" height="57.389" transform="translate(125.765 14.912)" fill="#e6e6e6"/>
      <rect id="Rectangle_1863" data-name="Rectangle 1863" width="48.065" height="57.389" transform="translate(126.966 14.912)" fill="#f5f5f5"/>
      <rect id="Rectangle_1864" data-name="Rectangle 1864" width="52.549" height="43.756" transform="translate(172.878 17.33) rotate(90)" fill="#fff"/>
      <rect id="Rectangle_1865" data-name="Rectangle 1865" width="52.549" height="0.907" transform="translate(172.874 17.33) rotate(90)" fill="#e6e6e6"/>
      <rect id="Rectangle_1866" data-name="Rectangle 1866" width="46.281" height="3.25" transform="translate(127.856 57.43)" fill="#f5f5f5"/>
      <path id="Path_11281" data-name="Path 11281" d="M351.6,81.35H297.641a.331.331,0,0,0-.331.331h0a.331.331,0,0,0,.331.331H351.6a.331.331,0,0,0,.331-.331h0A.331.331,0,0,0,351.6,81.35Z" transform="translate(-174.224 -70.441)" fill="#e6e6e6"/>
      <circle id="Ellipse_549" data-name="Ellipse 549" cx="1.656" cy="1.656" r="1.656" transform="translate(176.053 9.584)" fill="#e6e6e6"/>
      <path id="Path_11282" data-name="Path 11282" d="M304.227,84h0a.447.447,0,0,1-.447-.447V82.6a.451.451,0,0,1,.447-.447h0a.447.447,0,0,1,.447.447v.96A.447.447,0,0,1,304.227,84Z" transform="translate(-178.015 -70.91)" fill="#e6e6e6"/>
      <path id="Path_11283" data-name="Path 11283" d="M415.737,84h0a.447.447,0,0,1-.447-.447V82.6a.451.451,0,0,1,.447-.447h0a.447.447,0,0,1,.447.447v.96A.447.447,0,0,1,415.737,84Z" transform="translate(-243.36 -70.91)" fill="#e6e6e6"/>
      <rect id="Rectangle_1867" data-name="Rectangle 1867" width="49.415" height="24.103" transform="translate(127.856 11.24)" fill="#e0e0e0" opacity="0.5"/>
      <circle id="Ellipse_550" data-name="Ellipse 550" cx="1.656" cy="1.656" r="1.656" transform="translate(129.888 9.584)" fill="#e6e6e6"/>
      <path id="Path_11284" data-name="Path 11284" d="M64.893,215.482H47.36l1.553-20.522H63.34Z" transform="translate(-27.753 -137.017)" fill="#ebebeb"/>
      <path id="Path_11285" data-name="Path 11285" d="M75.246,215.482H72.232L71.59,194.96h2.782Z" transform="translate(-41.952 -137.017)" fill="#f5f5f5"/>
      <rect id="Rectangle_1868" data-name="Rectangle 1868" width="1.755" height="57.078" transform="translate(27.498 78.465)" fill="#f0f0f0"/>
      <rect id="Rectangle_1869" data-name="Rectangle 1869" width="3.66" height="6.645" rx="1.83" transform="translate(26.546 86.874)" fill="#f0f0f0"/>
      <rect id="Rectangle_1870" data-name="Rectangle 1870" width="3.66" height="6.645" rx="1.83" transform="translate(26.546 97.522)" fill="#f0f0f0"/>
      <path id="Path_11286" data-name="Path 11286" d="M67.382,380.724H61.83a1.184,1.184,0,0,1,1.184-1.184H66.2A1.184,1.184,0,0,1,67.382,380.724Z" transform="translate(-36.232 -245.18)" fill="#f0f0f0"/>
      <rect id="Rectangle_1871" data-name="Rectangle 1871" width="1.755" height="1.072" transform="translate(27.498 78.465)" fill="#e0e0e0"/>
      <rect id="Rectangle_1872" data-name="Rectangle 1872" width="48.455" height="48.587" transform="translate(88.327 61.438) rotate(180)" fill="#f0f0f0"/>
      <rect id="Rectangle_1873" data-name="Rectangle 1873" width="0.836" height="48.587" transform="translate(39.036 12.851)" fill="#e0e0e0"/>
      <rect id="Rectangle_1874" data-name="Rectangle 1874" width="39.897" height="42.447" transform="translate(84.05 58.366) rotate(180)" fill="#fafafa"/>
      <rect id="Rectangle_1875" data-name="Rectangle 1875" width="22.215" height="23.635" rx="11.108" transform="translate(75.211 48.96) rotate(180)" fill="#f5f5f5"/>
      <rect id="Rectangle_1876" data-name="Rectangle 1876" width="18.444" height="55.869" transform="translate(150.27 79.67)" fill="#e6e6e6"/>
      <path id="Path_11287" data-name="Path 11287" d="M372.409,371.483h9V363.77H362.97Z" transform="translate(-212.7 -235.939)" fill="#fafafa"/>
      <rect id="Rectangle_1877" data-name="Rectangle 1877" width="18.444" height="55.869" transform="translate(76.714 79.67)" fill="#e6e6e6"/>
      <rect id="Rectangle_1878" data-name="Rectangle 1878" width="81.409" height="53.216" transform="translate(87.3 79.67)" fill="#fafafa"/>
      <path id="Path_11288" data-name="Path 11288" d="M219.88,371.483h-9V363.77h18.444Z" transform="translate(-123.576 -235.939)" fill="#fafafa"/>
      <rect id="Rectangle_1879" data-name="Rectangle 1879" width="67.441" height="13.318" transform="translate(94.288 99.501)" fill="#f0f0f0"/>
      <rect id="Rectangle_1880" data-name="Rectangle 1880" width="67.441" height="13.318" transform="translate(94.288 115.667)" fill="#f0f0f0"/>
      <path id="Path_11289" data-name="Path 11289" d="M298.213,295.135H262.9a2.575,2.575,0,0,1-2.575-2.575h40.468a2.571,2.571,0,0,1-2.575,2.575Z" transform="translate(-152.548 -194.21)" fill="#fafafa"/>
      <rect id="Rectangle_1881" data-name="Rectangle 1881" width="67.441" height="13.318" transform="translate(94.288 83.338)" fill="#f0f0f0"/>
      <path id="Path_11290" data-name="Path 11290" d="M298.213,256.089H262.9a2.579,2.579,0,0,1-2.575-2.579h40.468a2.575,2.575,0,0,1-2.575,2.579Z" transform="translate(-152.548 -171.327)" fill="#fafafa"/>
      <path id="Path_11291" data-name="Path 11291" d="M298.213,334.179H262.9a2.579,2.579,0,0,1-2.575-2.579h40.468a2.575,2.575,0,0,1-2.575,2.579Z" transform="translate(-152.548 -217.088)" fill="#fafafa"/>
    </g>
    <g id="freepik--Shadow--inject-81" transform="translate(23.23 199.867)">
      <ellipse id="freepik--path--inject-81" cx="80.27" cy="4.686" rx="80.27" ry="4.686" fill="#f5f5f5"/>
    </g>
    <g id="freepik--complete-list--inject-81" transform="translate(22.994 84.807)">
      <path id="Path_11292" data-name="Path 11292" d="M63.824,181.8h61.785a7.3,7.3,0,0,1-7.2-6.8l-1.093-18.415H55.54L56.629,175A7.3,7.3,0,0,0,63.824,181.8Z" transform="translate(-55.54 -144.339)" fill="#dfbd8d"/>
      <path id="Path_11293" data-name="Path 11293" d="M63.824,181.8h61.785a7.3,7.3,0,0,1-7.2-6.8l-1.093-18.415H55.54L56.629,175A7.3,7.3,0,0,0,63.824,181.8Z" transform="translate(-55.54 -144.339)" fill="#fff" opacity="0.6"/>
      <path id="Path_11294" data-name="Path 11294" d="M141.92,127h-55a6.334,6.334,0,0,0-6.392,6.794l1.424,23.875a6.326,6.326,0,0,1-6.392,6.794h61.781a6.326,6.326,0,0,0,6.392-6.794l.153,2.583-1.565-26.442a6.326,6.326,0,0,1,6.392-6.81Z" transform="translate(-67.272 -126.999)" fill="#dfbd8d"/>
      <path id="Path_11295" data-name="Path 11295" d="M164.794,127H103a7.3,7.3,0,0,1,7.2,6.794l5.32,89.71H177.3l-5.307-89.693A7.3,7.3,0,0,0,164.794,127Z" transform="translate(-83.352 -126.999)" fill="#dfbd8d"/>
      <path id="Path_11296" data-name="Path 11296" d="M164.794,127H103a7.3,7.3,0,0,1,7.2,6.794l5.32,89.71H177.3l-5.307-89.693A7.3,7.3,0,0,0,164.794,127Z" transform="translate(-83.352 -126.999)" fill="gray" opacity="0.8"/>
      <path id="Path_11297" data-name="Path 11297" d="M153.473,172.46H142.021L141.33,161h11.455Zm-10.209-1.35h8.764l-.484-8.764h-8.781Z" transform="translate(-105.813 -146.923)" fill="#fff"/>
      <path id="Path_11298" data-name="Path 11298" d="M157.333,237.564H145.869L145.19,226.1h11.464Zm-10.2-1.35H155.9l-.518-8.764h-8.764Z" transform="translate(-108.075 -185.072)" fill="#fff"/>
      <path id="Path_11299" data-name="Path 11299" d="M161.159,302.674H149.7L149,291.21h11.464Zm-10.193-1.35h8.764l-.522-8.764h-8.764Z" transform="translate(-110.308 -223.226)" fill="#fff"/>
      <rect id="Rectangle_1882" data-name="Rectangle 1882" width="26.355" height="1.35" transform="translate(53.257 14.072)" fill="#fff"/>
      <rect id="Rectangle_1883" data-name="Rectangle 1883" width="23.259" height="1.35" transform="translate(53.555 19.132)" fill="#fff"/>
      <rect id="Rectangle_1884" data-name="Rectangle 1884" width="26.355" height="1.35" transform="translate(53.853 24.186)" fill="#fff"/>
      <rect id="Rectangle_1885" data-name="Rectangle 1885" width="26.355" height="1.35" transform="translate(54.851 41.028)" fill="#fff"/>
      <rect id="Rectangle_1886" data-name="Rectangle 1886" width="15.471" height="1.35" transform="translate(55.149 46.087)" fill="#fff"/>
      <rect id="Rectangle_1887" data-name="Rectangle 1887" width="7.986" height="1.35" transform="translate(55.451 51.142)" fill="#fff"/>
      <rect id="Rectangle_1888" data-name="Rectangle 1888" width="13.178" height="1.35" transform="translate(68.629 51.142)" fill="#fff"/>
      <rect id="Rectangle_1889" data-name="Rectangle 1889" width="26.355" height="1.35" transform="translate(56.445 67.984)" fill="#fff"/>
      <rect id="Rectangle_1890" data-name="Rectangle 1890" width="26.355" height="1.35" transform="translate(56.747 73.043)" fill="#fff"/>
      <rect id="Rectangle_1891" data-name="Rectangle 1891" width="14.577" height="1.35" transform="translate(57.045 78.098)" fill="#fff"/>
      <path id="Path_11300" data-name="Path 11300" d="M153.076,171.065a1.118,1.118,0,0,1-.77-.306l-2.8-2.658a1.123,1.123,0,0,1,1.544-1.631l2,1.884,4.492-4.773a1.123,1.123,0,1,1,1.635,1.54l-5.262,5.593a1.105,1.105,0,0,1-.787.352Z" transform="translate(-110.397 -148.228)" fill="#dfbd8d"/>
      <path id="Path_11301" data-name="Path 11301" d="M156.892,236.175a1.109,1.109,0,0,1-.77-.306l-2.815-2.658a1.122,1.122,0,1,1,1.54-1.631l2,1.884,4.488-4.773a1.123,1.123,0,1,1,1.635,1.54l-5.262,5.593a1.1,1.1,0,0,1-.782.352Z" transform="translate(-112.614 -186.383)" fill="#dfbd8d"/>
      <path id="Path_11302" data-name="Path 11302" d="M160.742,301.406a1.114,1.114,0,0,1-.77-.31l-2.815-2.658a1.122,1.122,0,1,1,1.54-1.631l2,1.884,4.492-4.773a1.122,1.122,0,0,1,1.623,1.532l-5.262,5.593a1.118,1.118,0,0,1-.787.352Z" transform="translate(-114.87 -224.654)" fill="#dfbd8d"/>
    </g>
    <g id="freepik--Character--inject-81" transform="translate(120.198 77.316)">
      <rect id="Rectangle_1892" data-name="Rectangle 1892" width="8.28" height="100.523" transform="matrix(0.971, -0.239, 0.239, 0.971, 0, 22.768)" fill="#dfbd8d"/>
      <rect id="Rectangle_1893" data-name="Rectangle 1893" width="2.521" height="100.523" transform="matrix(0.971, -0.239, 0.239, 0.971, 5.588, 21.393)" opacity="0.2"/>
      <rect id="Rectangle_1894" data-name="Rectangle 1894" width="8.28" height="6.235" rx="2.25" transform="matrix(0.971, -0.239, 0.239, 0.971, 24.292, 121.615)" fill="#dfbd8d"/>
      <rect id="Rectangle_1895" data-name="Rectangle 1895" width="8.28" height="6.235" rx="2.25" transform="matrix(0.971, -0.239, 0.239, 0.971, 24.292, 121.615)" fill="#fff" opacity="0.7"/>
      <rect id="Rectangle_1896" data-name="Rectangle 1896" width="9.592" height="4.587" rx="2.08" transform="matrix(0.971, -0.239, 0.239, 0.971, 22.997, 119.089)" fill="#e0e0e0"/>
      <path id="Path_11303" data-name="Path 11303" d="M298.38,146.272l-8.04,1.979.944-6.727.6-4.314,2.538,3.54Z" transform="translate(-290.338 -125.491)" fill="#e0e0e0"/>
      <path id="Path_11304" data-name="Path 11304" d="M295.762,140.75l-3.142.774.6-4.314Z" transform="translate(-291.674 -125.491)" fill="#dfbd8d"/>
      <path id="Path_11305" data-name="Path 11305" d="M349.007,143.68c-.041,2.484-.522,7.166.787,8.694a18.146,18.146,0,0,0-7.82,5.1c-1.793-2.931.547-4.508.547-4.508,2.579-.828,2.422-2.77,1.88-4.554Z" transform="translate(-320.198 -129.282)" fill="#ffb573"/>
      <path id="Path_11306" data-name="Path 11306" d="M341.09,163.824c.683-2.538-1.242-2.9,1.966-4.14,2.509-.994,7.249-1.134,8.363-.335.617.447-.232,2.012-.232,2.012Z" transform="translate(-320.077 -138.162)" fill="#263238"/>
      <path id="Path_11307" data-name="Path 11307" d="M368.309,168.011c.186.3.319.526.468.787s.273.5.414.753c.265.505.513,1.01.754,1.524.48,1.023.9,2.07,1.283,3.13a33.954,33.954,0,0,1,1.656,6.624l.108.853c.021.12.037.335.05.522s0,.356,0,.522a15.459,15.459,0,0,1-.137,1.826c-.145,1.143-.364,2.223-.6,3.312a53.58,53.58,0,0,1-1.851,6.264,1.213,1.213,0,0,1-2.352-.509h0c.166-2.1.36-4.223.513-6.293.074-1.035.132-2.07.149-3.047a12.888,12.888,0,0,0-.046-1.366l-.037-.277-.054-.269-.153-.72a37.664,37.664,0,0,0-1.78-5.688c-.373-.927-.774-1.846-1.2-2.753q-.315-.683-.658-1.341l-.348-.654-.327-.6-.058-.108a2.43,2.43,0,0,1,4.2-2.438Z" transform="translate(-333.39 -142.894)" fill="#ffb573"/>
      <path id="Path_11308" data-name="Path 11308" d="M371.689,231.552l.344-.571L373,229.35l1.776,1.006a4.193,4.193,0,0,1-.758,3.122l-.5.414a.89.89,0,0,1-1.217-.046l-.385-.356A1.627,1.627,0,0,1,371.689,231.552Z" transform="translate(-337.879 -179.485)" fill="#ffb573"/>
      <path id="Path_11309" data-name="Path 11309" d="M308.073,230.162l-.286-1.035a.965.965,0,0,0-1.168-.679l-1.242.319-.766.19a1.917,1.917,0,0,0-1.432,1.809v.617a1.06,1.06,0,0,0,.981,1.064l.766.074a5.158,5.158,0,0,0,2.989-1.606A.828.828,0,0,0,308.073,230.162Z" transform="translate(-297.862 -178.938)" fill="#ffb573"/>
      <path id="Path_11310" data-name="Path 11310" d="M365.341,164.868c2.173.965,4.165,3.262,5.8,7.514-.522,1.751-5.908,4.62-5.908,4.62S358.51,162.756,365.341,164.868Z" transform="translate(-332.492 -141.573)" fill="#dfbd8d"/>
      <path id="Path_11311" data-name="Path 11311" d="M324.788,169.679c.021,1.577-2.592,5.233.414,7.353.261,3.192.613,6.334,1.3,11.571h16.076c-1.528-5.8-.207-9.688,2.244-19.872a3.921,3.921,0,0,0-3.411-4.873c-.642-.062-1.321-.116-2.012-.153a51.1,51.1,0,0,0-7.3,0c-.791.07-1.606.17-2.389.277A5.742,5.742,0,0,0,324.788,169.679Z" transform="translate(-309.919 -140.94)" fill="#dfbd8d"/>
      <path id="Path_11312" data-name="Path 11312" d="M321.393,171.272c.037,1.184,0,2.318,0,3.478s-.075,2.306-.149,3.465a55.89,55.89,0,0,1-.828,7c-.05.294-.128.6-.2.9s-.132.6-.228.911l-.133.46-.07.232a2.562,2.562,0,0,1-.1.306,4.938,4.938,0,0,1-.7,1.242,13.661,13.661,0,0,1-1.321,1.478c-.435.435-.878.828-1.325,1.242a46.914,46.914,0,0,1-5.6,4.14,1.217,1.217,0,0,1-1.569-1.826h0c1.478-1.685,3-3.358,4.422-5.014.348-.414.687-.828,1.01-1.242a10.083,10.083,0,0,0,.828-1.163c.1-.153.161-.339.108-.236s0-.054,0-.1l.037-.182.079-.36c.058-.232.091-.493.132-.745s.091-.505.116-.77c.282-2.091.414-4.293.493-6.5s.128-4.446.141-6.624h0a2.43,2.43,0,0,1,4.86-.054Z" transform="translate(-301.2 -144.07)" fill="#ffb573"/>
      <path id="Path_11313" data-name="Path 11313" d="M328.085,165.039c-1.983.985-3.95,2.9-4.765,7.278.517,1.735,7.605,5.076,7.605,5.076S334.871,162.505,328.085,165.039Z" transform="translate(-309.664 -141.628)" fill="#dfbd8d"/>
      <path id="Path_11314" data-name="Path 11314" d="M334.808,139.157c.054.31-.07.6-.277.638s-.414-.178-.468-.493.075-.6.277-.638S334.758,138.842,334.808,139.157Z" transform="translate(-315.952 -126.34)" fill="#263238"/>
      <path id="Path_11315" data-name="Path 11315" d="M333.881,138.566l-.791-.066S333.566,139.009,333.881,138.566Z" transform="translate(-315.389 -126.247)" fill="#263238"/>
      <path id="Path_11316" data-name="Path 11316" d="M334.581,140.7a8.77,8.77,0,0,1-.791,2.219,1.37,1.37,0,0,0,1.159,0Z" transform="translate(-315.799 -127.536)" fill="#ed893e"/>
      <path id="Path_11317" data-name="Path 11317" d="M333.64,133.371a.194.194,0,0,1-.128-.05.186.186,0,0,1,0-.265,1.9,1.9,0,0,1,1.619-.613.182.182,0,0,1,.145.215.2.2,0,0,1-.224.153,1.528,1.528,0,0,0-1.275.5A.2.2,0,0,1,333.64,133.371Z" transform="translate(-315.604 -122.691)" fill="#263238"/>
      <path id="Path_11318" data-name="Path 11318" d="M345.5,125.7c.414,3.892.662,5.531-.923,7.866-2.389,3.54-7.191,3.312-8.735-.344-1.391-3.312-1.826-9.108,1.635-11.368A5.142,5.142,0,0,1,345.5,125.7Z" transform="translate(-316.397 -115.969)" fill="#ffb573"/>
      <path id="Path_11319" data-name="Path 11319" d="M333.683,121.479a3.085,3.085,0,0,1-2.165-4.533c-4.186.186-7-4.5-2.484-7.166s8.512,1.466,8.189,3.026c5.568-.505,8.831,4.078,5.8,7.485,4,.65,10,5.163,5.6,9.9,5.949.874,6.6,19.5-9.6,16.192-17.073-3.494-2.24-18.353-2.24-18.353S332.449,126.815,333.683,121.479Z" transform="translate(-311.66 -108.902)" fill="#263238"/>
      <path id="Path_11320" data-name="Path 11320" d="M372.587,147.2l-.352-.215c1.5-2.443,1.751-4.666.737-6.624-1.3-2.484-4.467-3.95-6.922-4.09l.025-.414c2.567.145,5.891,1.656,7.266,4.31C374.409,142.24,374.148,144.666,372.587,147.2Z" transform="translate(-334.704 -124.7)" fill="#263238"/>
      <path id="Path_11321" data-name="Path 11321" d="M362.153,132.653c1.428-.236.754-2.567-.3-3.184s-6.09.385-5.535,1.991S360.236,132.972,362.153,132.653Z" transform="translate(-328.977 -120.847)" fill="#fff"/>
      <path id="Path_11322" data-name="Path 11322" d="M363.815,131.746c1.424-.273.853-2.161-.215-2.753s-5.469-.153-4.869,1.432S361.91,132.123,363.815,131.746Z" transform="translate(-330.382 -120.528)" fill="#dfbd8d"/>
      <path id="Path_11323" data-name="Path 11323" d="M328.952,119.6a4.285,4.285,0,0,1-2.621-.94,3.935,3.935,0,0,1-1.656-3.523,3.221,3.221,0,0,1,2.285-2.513l.153.385a2.9,2.9,0,0,0-2.029,2.186,3.569,3.569,0,0,0,1.515,3.138,3.643,3.643,0,0,0,3.635.6l.157.385A3.726,3.726,0,0,1,328.952,119.6Z" transform="translate(-310.44 -111.081)" fill="#263238"/>
      <path id="Path_11324" data-name="Path 11324" d="M342.015,138.078c-.186,1.018-.244,1.453-.774,1.929a1.122,1.122,0,0,1-1.958-.733c-.083-.936.236-2.443,1.184-2.757A1.251,1.251,0,0,1,342.015,138.078Z" transform="translate(-319.01 -125.046)" fill="#ffb573"/>
      <path id="Path_11325" data-name="Path 11325" d="M339.875,146.167l-.335-.6a.161.161,0,0,1,0-.161l.335-.6a.166.166,0,0,1,.29,0l.335.6a.161.161,0,0,1,0,.161l-.335.6a.166.166,0,0,1-.29,0Z" transform="translate(-319.156 -129.894)" fill="#fff"/>
      <path id="Path_11326" data-name="Path 11326" d="M325.929,224s-.567,20.758-1.325,34.412c-.8,12.532-1.834,41.839-1.834,41.839l3.167.166s7-24.662,6.711-39.562c8.222-20.841,5.266-36.229,5.266-36.229Z" transform="translate(-309.341 -176.35)" fill="#ffb573"/>
      <path id="Path_11327" data-name="Path 11327" d="M313.414,404.889a.414.414,0,0,0-.484,0,8.868,8.868,0,0,1-5.254,1.747c-2.1.091-1.586,1.242,1.424,1.627a20.353,20.353,0,0,1,5.44,1.453c1.143.286,2.049-.584,2.029-2.985a.414.414,0,0,0-.265-.377A13.8,13.8,0,0,1,313.414,404.889Z" transform="translate(-299.75 -282.305)" fill="#263238"/>
      <path id="Path_11328" data-name="Path 11328" d="M340.55,224s5.8,24.567,9.154,36.018c3.531,12.006,6.33,39.4,6.309,40.311h2.741s3.54-22.207-.828-40.324c-.414-29.394-5.481-35.985-5.481-35.985Z" transform="translate(-319.761 -176.35)" fill="#ffb573"/>
      <path id="Path_11329" data-name="Path 11329" d="M371.224,405.962a.356.356,0,0,0-.414.108A6.863,6.863,0,0,1,367.5,408.9c-1.731.737-.774,1.747,1.933,1.379,3.184-.439,3.229.079,4.3.079s1.577-1.068.795-3.391a.439.439,0,0,0-.348-.3,12.583,12.583,0,0,1-2.956-.708Z" transform="translate(-335.042 -282.964)" fill="#263238"/>
      <path id="Path_11330" data-name="Path 11330" d="M327.025,223.179a290.679,290.679,0,0,0-2.347,43.056,87.8,87.8,0,0,0,25.49-3.933s.124-32.217-7.067-39.111C338.948,222.074,327.12,222.815,327.025,223.179Z" transform="translate(-310.437 -175.529)" fill="#263238"/>
      <path id="Path_11331" data-name="Path 11331" d="M330.759,264.7a.1.1,0,0,1-.1-.1c-.774-15.877,1.105-38.291,1.122-38.5a.1.1,0,0,1,.112-.1.1.1,0,0,1,.1.112c-.021.228-1.9,22.625-1.122,38.5a.1.1,0,0,1-.1.108Z" transform="translate(-313.853 -177.52)" fill="#fff" opacity="0.2"/>
      <path id="Path_11332" data-name="Path 11332" d="M357.3,263.458l2.356-12.478.948,2.985Z" transform="translate(-329.576 -192.16)" opacity="0.2"/>
    </g>
  </g>
</svg>
