<svg xmlns="http://www.w3.org/2000/svg" xmlns:xlink="http://www.w3.org/1999/xlink" width="245" height="245" viewBox="0 0 245 245">
  <defs>
    <linearGradient id="linear-gradient" y1="0.5" x2="1" y2="0.5" gradientUnits="objectBoundingBox">
      <stop offset="0" stop-color="#f87b58"/>
      <stop offset="0.5" stop-color="#fabfa7"/>
      <stop offset="1" stop-color="#f89c51"/>
    </linearGradient>
    <clipPath id="clip-path">
      <rect id="Rectangle_225" data-name="Rectangle 225" width="14.515" height="136.012" opacity="0.07"/>
    </clipPath>
  </defs>
  <g id="Group_8980" data-name="Group 8980" transform="translate(-85 -167)">
    <circle id="Ellipse_467" data-name="Ellipse 467" cx="122.5" cy="122.5" r="122.5" transform="translate(85 167)" fill="#262a34"/>
    <path id="Path_245" data-name="Path 245" d="M1381.24,699.223s-5.014,5.914-.906,6.077,12.535,4.929,14.147.658,4.833-6.406,2.866-6.9-3.76-2.465-7.88-2.135A27.027,27.027,0,0,0,1381.24,699.223Z" transform="translate(-1097.06 -355.799)" fill="gray" opacity="0.2"/>
    <g id="Group_2654" data-name="Group 2654" transform="translate(206.832 189.959)">
      <path id="Path_799" data-name="Path 799" d="M44.532,480.2l-4.165.816s-1.01,2.829-1.483,4.352c-.032.082-.126.354-.189.517a3.369,3.369,0,0,0-.095.789,3.421,3.421,0,0,0,2.083,3.128c1.546.68,2.745,1.306,4.386,0s1.925-2.122,1.231-4.38-1.767-5.2-1.767-5.223" transform="translate(-26.367 -349.71)"/>
      <path id="Path_800" data-name="Path 800" d="M112.355,486.8a6.784,6.784,0,0,1-4.007-3.754L102.7,482.8s-.126,3.047-.284,4.706c-.189,2.2.284,3.183,1.988,3.047,2.272-.163,11.549.544,13-.245,1.956-1.007-2.4-2.8-5.049-3.509" transform="translate(-70.019 -351.603)"/>
      <g id="Group_2653" data-name="Group 2653" transform="translate(0 0)">
        <g id="Group_2652" data-name="Group 2652">
          <g id="Group_2651" data-name="Group 2651">
            <path id="Path_801" data-name="Path 801" d="M23.416,227.727s-2.114,2.5-2.777,9.249.82,19.559,1.515,22.034,3.471,25.625,4.165,27.311,1.641,10.908,1.641,10.908l4.481.109s1.325-12.023,1.325-15.206,1.862-33.3,1.735-35.5.473-1.5.473-1.5,3.913,10.772,5.08,12.567,3.25,5.3,3.25,5.3.473,11.289,1.041,17.817,1.167,16.811,1.167,16.811l6.027-.109s1.388-17.192,1.388-20.81,1.262-12.3,1.262-13.3-3.913-18.579-3.913-18.579L48.533,227.7Z" transform="translate(-13.959 -165.896)" fill="gray"/>
            <path id="Path_802" data-name="Path 802" d="M39.637,11.411c-2.051.653-4.67,9.439-4.67,9.439l-.032-.027L33.8,21.8l.473,1.85,1.988,28.971,10.287-1.9L55.541,42.5l5.617,2.285s.442,10.527.5,11.1,1.01,16.485,1.01,17.518c.032,1.115,5.522,6.121,6.437,5.577,2.714-1.632-1.8-4.652-2.871-5.386-.631-.435-1.988-15.233-2.083-16.974s3.124-6.175-2.461-12.023c-4.07-4.271-6.279-15.233-9.687-27.692-1.8-6.474-2.871-8.406-4.638-8.406-1.609,0-3.818,1.659-7.731,2.911" transform="translate(-23.081 -6.324)" fill="url(#linear-gradient)"/>
            <path id="Path_803" data-name="Path 803" d="M14.651,99.324c-.032.082-3.913,1.659-5.585,3.428a23.171,23.171,0,0,0-3.029,4.325s-2.461,5.005-4.165,8.7C.957,117.768-2.041,125.9,1.556,126.2c3.408.272,10.949-6.637,12.117-7.943l1.294-2.5c.095-.326-2.019-3.7-1.956-4,.063-.49,4.986-2.965,5.743-1.5.252.49.915,1.9,1.1,2.339.473,1.061-6.689,3.128-6.689,4.08A26.206,26.206,0,0,1,11.59,124.3c-.978,2.122-2.461,7.154-2.461,7.154l25.18.054s-.852-9.657-.5-12.867c0,0,1.073-10.527,1.7-11.561s1.7,13,1.546,15.886c-.126,2.013,1.988,14.091,2.587,14.526.978.653,3.282-.653,3.282-.653s-.095-13.248-.189-15.451.063-20.021-3.313-23.231-4.291-3.128-7.1-2.285-4.2,1.659-8.015,2.2a13.989,13.989,0,0,1-6.942-.735c.6-1.877-.663,1.306-.5.435" transform="translate(0.17 -69.565)" fill="#f7b74e"/>
            <path id="Path_804" data-name="Path 804" d="M31.838.609S26.821.772,25.4,4.988A45.058,45.058,0,0,0,23.728,16.06c-.063.979.536,7.617-.095,9.466-.568,1.632-2.177,4.652-3.155,6.746a12.339,12.339,0,0,0-.852,2.557l-.126.707a1.677,1.677,0,0,0,2.051.925c.063-.027.126-.027.158-.054a13.51,13.51,0,0,0,1.451-.653c1.515-.789,3.439-2.883,4.954-3.536,1.609-.68,3.439-3.836,3.692-4.08s.158-1.034.189-1.8a19.448,19.448,0,0,0-1.767-9.466c-1.073-1.9-3.534-5.631-1.83-7.78s5.27-3.863,5.427-4.38.252,2.067,2.146,2.992,4.544,3.4,4.544,3.944a7.344,7.344,0,0,1-1.167,5.386c-1.8,3.074-3.219,6.991-.726,9.929s8.772,7.018,9.214,7.943,0,5.032-.158,7.345,5.08-3.944,4.891-6.964.442-4.325-3.124-8.922-5.9-12.54-6-14.472-1.168-7.263-3.313-8.814C38.306,1.779,37.9.5,34.078.5c-.757,0-1.515.054-2.24.109" transform="translate(-13.294 -0.5)"/>
          </g>
          <g id="Group_2639" data-name="Group 2639" transform="translate(6.396 4.407)">
            <g id="Group_2637" data-name="Group 2637" opacity="0.07">
              <g id="Group_2636" data-name="Group 2636" clip-path="url(#clip-path)">
                <path id="Path_805" data-name="Path 805" d="M29.478,134.88a18.7,18.7,0,0,0-2.177.925l-.757.326s-8.015,7.209-7.668,6.828c1.546-1.659,6.342-10.473,7.952-12.513,1.7-2.122,2.651-1.279,4.512,4.352" transform="translate(-19.255 -98.728)"/>
              </g>
            </g>
            <g id="Group_2638" data-name="Group 2638" transform="translate(0.105 41.971)" opacity="0.07">
              <path id="Path_806" data-name="Path 806" d="M30.174,255.892a.655.655,0,0,1,.032.245,4.882,4.882,0,0,1-.757,3.047c-.947,1.251,1.294,4,1.294,4.679s-1.041,1.306-1.767,1.115-3.755-1.659-2.556-4.815c.473-1.279.757-2.394,1.041-3.1.158-.353.284-.707.41-1.061a2.555,2.555,0,0,0,.032-.49c-.032-.218-.032-.463-.063-.707-.158-1.224-6.153-39.389-6.374-40.858a124.271,124.271,0,0,1-.978-14.118,5.105,5.105,0,0,1-.032-1.2,5.519,5.519,0,0,0,.032-.762c.032-.435.063-.871.126-1.306-.095-.354-.032-.354,0-.925a12.118,12.118,0,0,1,.063-1.251,29.988,29.988,0,0,1,2.619-7.889l.189-.571s1.515-4.842,2.019-5.74c.442-.816,1.7-5.087,1.578-5.984-.063-.49,1.956-2.394,1.956-2.394l.41-.3a1.5,1.5,0,0,1,.6.054c.442.163,2.146-1.115,2.43-.3,2.019,5.577,2.84,7.943-.726,11.262s-.284,6.284-.221,8.623c.158,5.767-3.092,5.141-3.282,8.732s.726,6.175.789,8.052c.158,6.175.063,7.4-.316,9.82s-2.3,7.018-.158,16.049,1.83,9.847,1.609,14.961a54.528,54.528,0,0,0,0,7.127" transform="translate(-20.434 -170.99)"/>
            </g>
            <path id="Path_807" data-name="Path 807" d="M38.606,136.953l.063-.027c.252-.109,1.735-.762,2.777-1.115,1.168-.408,2.587,3.019,2.935,3.7.032.054.032.054-.221.082a19.4,19.4,0,0,0-2.524.408,10.445,10.445,0,0,0-2.619,1.088,9.711,9.711,0,0,1-1.1-2.149c-.158-.354-.5-1.279-.189-1.5Z" transform="translate(-32.074 -103.385)" fill="#efefef"/>
          </g>
        </g>
        <path id="Path_809" data-name="Path 809" d="M47.8,162.476s4.765-2.693,4.828-2.584c.126.245.536,1.224.536,1.224s.379.626.252.816-4.638,1.85-4.638,1.85a.508.508,0,0,1-.41-.245A5.95,5.95,0,0,1,47.8,162.476Z" transform="translate(-32.663 -116.531)" fill="#efefef"/>
      </g>
    </g>
    <path id="Path_221" data-name="Path 221" d="M804.267,317.021,789.4,327.028c-.195.117-.539-2-.748-1.906l-10.124,3.889-.117,72.676,63.282-.778-.482-98.5-19.245.177Z" transform="translate(-660.944 -55.177)" fill="gray"/>
    <path id="Path_222" data-name="Path 222" d="M812.087,336.758l-15.488,7.59-.039,2.028,51.615-.3-.206-18.578-22.258-.3-4.99,3.817c-.873.661-1.942,1.364-3.291,2.262C815.192,334.76,813.84,335.75,812.087,336.758Z" transform="translate(-673.664 -72.551)" fill="#e8e6f1" opacity="0.22"/>
    <path id="Path_223" data-name="Path 223" d="M155.09,192.49v18.348l51.663-.1,0-18.243Z" transform="translate(-32.167 84.378)" fill="#e8e6f1" opacity="0.22"/>
    <path id="Path_224" data-name="Path 224" d="M155.57,264.75V283.1l51.66-.1,0-18.246Z" transform="translate(-32.503 33.736)" fill="#e8e6f1" opacity="0.22"/>
    <path id="Path_225" data-name="Path 225" d="M156.52,338.07v18.351l51.66-.1,0-18.246Z" transform="translate(-33.169 -17.65)" fill="#e8e6f1" opacity="0.22"/>
    <path id="Path_232" data-name="Path 232" d="M283.846,271.2h2.83l.072,16.469-2.908-.075Z" transform="translate(-122.399 29.215)" fill="#fff"/>
    <path id="Path_233" data-name="Path 233" d="M270.095,288l4.128.072-.069,11.335-4.135-.066Z" transform="translate(-112.714 17.441)" fill="#f5f5fc"/>
    <path id="Path_237" data-name="Path 237" d="M265.45,174.12v2.109l16.529.117V174.12Z" transform="translate(-109.511 97.252)" fill="#f5f5fc"/>
    <path id="Path_238" data-name="Path 238" d="M265.37,168.348l.078,1.687,10.752.078-.072-1.843Z" transform="translate(-109.455 101.352)" fill="#fff"/>
    <path id="Path_240" data-name="Path 240" d="M286.395,209.111l-2.456-1.361-6.289,12.161,2.453,1.6Z" transform="translate(-118.061 73.683)" fill="#f5f5fc"/>
    <path id="Path_241" data-name="Path 241" d="M318.516,198.49h2.83l.072,16.466-2.908-.072Z" transform="translate(-146.697 80.173)" fill="#fff"/>
    <path id="Path_242" data-name="Path 242" d="M305.362,215.6l4.129.072-.069,11.335-4.132-.066Z" transform="translate(-137.432 68.182)" fill="#f5f5fc"/>
    <path id="Path_246" data-name="Path 246" d="M1377.3,606.79s-2.35.254-2.35,3.162,1.51,28.129,7.249,28.625a62.085,62.085,0,0,0,9.629.115c.843-.081,1.67-2.628,1.812-3.649.758-5.011,1.734-17.217,1.948-24.327a6.535,6.535,0,0,0-1.462-3.83C1391.276,604.283,1377.3,606.79,1377.3,606.79Z" transform="translate(-1094.431 -292.156)" fill="#f7b74e"/>
    <path id="Path_247" data-name="Path 247" d="M1436.257,447.22c-.906-.843-2.169.3-1.688,1.492a4.881,4.881,0,0,1-1.054,5.237c-2.836,3.289-13.066,14.4-12.964,21.551s-2.114,9.14,0,11.861,10.635,2.613,12.864-3.171,7.884-8.122,7.775-16.4-1.1-11.913-2.114-14.746C1438.447,451.249,1437.444,448.331,1436.257,447.22Z" transform="translate(-1125.618 -181.339)" fill="#01ce23" opacity="0.19"/>
    <path id="Path_248" data-name="Path 248" d="M1423.36,519.866s.906-12.955,11.031-18.594c6.343-3.534,6.772-15.8,5.256-18.573" transform="translate(-1128.219 -206.305)" fill="none" stroke="#fff" stroke-linecap="round" stroke-linejoin="round" stroke-width="3"/>
    <path id="Path_249" data-name="Path 249" d="M1427.046,623.76s3.189,12.752-.266,22.849" transform="translate(-1130.606 -304.759)" fill="#017dce" opacity="0.59"/>
    <path id="Path_250" data-name="Path 250" d="M1412.894,437.906a1.183,1.183,0,0,0-1.812,1.426,4.291,4.291,0,0,1-1.13,5.008c-3.039,3.147-14,13.779-13.894,20.614s0,10.85,2.277,13.453,7.551.514,9.928-5.02,10.022-7.89,9.913-15.812-1.178-11.393-2.262-14.105C1415.241,441.76,1414.163,438.969,1412.894,437.906Z" transform="translate(-1109.163 -174.846)" fill="#01ce23" opacity="0.18"/>
    <path id="Path_251" data-name="Path 251" d="M1407.685,502.6s-3.564-17.624,5.114-28.2c3.471-4.229,8.617-12.722,8.572-16.818" transform="translate(-1116.773 -188.773)" fill="none" stroke="#fff" stroke-linecap="round" stroke-linejoin="round" stroke-width="3"/>
    <path id="Path_252" data-name="Path 252" d="M1350.909,447.22c.891-.843,2.151.3,1.677,1.492a4.911,4.911,0,0,0,1.045,5.237c2.812,3.289,12.958,14.4,12.858,21.551s0,11.342-2.114,14.066-6.98.538-9.191-5.247-9.272-8.252-9.185-16.528,1.09-11.913,2.1-14.746C1348.741,451.249,1349.734,448.331,1350.909,447.22Z" transform="translate(-1074.223 -181.339)" fill="#01ce23" opacity="0.2"/>
    <path id="Path_253" data-name="Path 253" d="M1371.649,512.545s4.084-16.008-3.951-26.58c-3.214-4.229-8.361-10.5-8.318-14.595" transform="translate(-1083.563 -198.397)" fill="none" stroke="#fff" stroke-linecap="round" stroke-linejoin="round" stroke-width="3"/>
    <path id="Path_256" data-name="Path 256" d="M1382.73,606.9s10.291-1.655,14.311-.788-7.092,1.891-7.092,1.891S1384.654,608.236,1382.73,606.9Z" transform="translate(-1099.861 -292.264)" fill="#017dce" opacity="0.73"/>
    <ellipse id="Ellipse_454" data-name="Ellipse 454" cx="30.173" cy="2.231" rx="30.173" ry="2.231" transform="translate(207.509 329.405)" fill="#0c0b0b" opacity="0.21"/>
  </g>
</svg>
