<svg xmlns="http://www.w3.org/2000/svg" width="245" height="245" viewBox="0 0 245 245">
  <g id="Group_8981" data-name="Group 8981" transform="translate(-85 -167)">
    <circle id="Ellipse_467" data-name="Ellipse 467" cx="122.5" cy="122.5" r="122.5" transform="translate(85 167)" fill="#262a34"/>
    <g id="Hotel_Booking-pana" data-name="Hotel Booking-pana" transform="translate(97.332 166.349)">
      <g id="freepik--background-complete--inject-139" transform="translate(24.42 41.714)">
        <rect id="Rectangle_452" data-name="Rectangle 452" width="39.942" height="126.584" transform="translate(21.254 31.671)" fill="#f5f5f5"/>
        <rect id="Rectangle_453" data-name="Rectangle 453" width="19.969" height="126.237" transform="translate(41.224 31.671)" fill="#ebebeb"/>
        <rect id="Rectangle_454" data-name="Rectangle 454" width="14.104" height="12.427" transform="translate(25.815 19.244)" fill="#f5f5f5"/>
        <rect id="Rectangle_455" data-name="Rectangle 455" width="3.362" height="12.427" transform="translate(36.557 19.244)" fill="#ebebeb"/>
        <path id="Path_3951" data-name="Path 3951" d="M71.98,127.544v-.724h44.439v.724" transform="translate(-54.054 -95.873)" fill="#e0e0e0"/>
        <rect id="Rectangle_456" data-name="Rectangle 456" width="3.381" height="7.128" transform="translate(29.14 37.091)" fill="#fafafa"/>
        <path id="Path_3952" data-name="Path 3952" d="M100.779,169.236c0,.075-4.47.136-9.985.136s-9.985-.06-9.985-.136,4.47-.136,9.985-.136S100.779,169.16,100.779,169.236Z" transform="translate(-59.556 -122.216)" fill="#e0e0e0"/>
        <rect id="Rectangle_457" data-name="Rectangle 457" width="3.381" height="7.128" transform="translate(49.282 37.091)" fill="#e0e0e0"/>
        <path id="Path_3953" data-name="Path 3953" d="M154.229,169.236c0,.075-4.47.136-9.985.136s-9.985-.06-9.985-.136,4.466-.136,9.985-.136S154.229,169.16,154.229,169.236Z" transform="translate(-92.859 -122.216)" fill="#e0e0e0"/>
        <rect id="Rectangle_458" data-name="Rectangle 458" width="3.381" height="7.128" transform="translate(49.282 51.244)" fill="#e0e0e0"/>
        <path id="Path_3954" data-name="Path 3954" d="M154.229,206.776c0,.075-4.47.136-9.985.136s-9.985-.06-9.985-.136,4.466-.136,9.985-.136S154.229,206.7,154.229,206.776Z" transform="translate(-92.859 -145.607)" fill="#e0e0e0"/>
        <rect id="Rectangle_459" data-name="Rectangle 459" width="3.381" height="7.128" transform="translate(49.282 65.827)" fill="#e0e0e0"/>
        <path id="Path_3955" data-name="Path 3955" d="M154.229,245.469c0,.072-4.47.136-9.985.136s-9.985-.064-9.985-.136,4.466-.139,9.985-.139S154.229,245.394,154.229,245.469Z" transform="translate(-92.859 -169.714)" fill="#e0e0e0"/>
        <rect id="Rectangle_460" data-name="Rectangle 460" width="3.381" height="7.128" transform="translate(49.282 80.407)" fill="#e0e0e0"/>
        <path id="Path_3956" data-name="Path 3956" d="M154.229,284.156c0,.075-4.47.136-9.985.136s-9.985-.06-9.985-.136,4.466-.136,9.985-.136S154.229,284.08,154.229,284.156Z" transform="translate(-92.859 -193.821)" fill="#e0e0e0"/>
        <rect id="Rectangle_461" data-name="Rectangle 461" width="3.381" height="7.128" transform="translate(49.282 94.571)" fill="#e0e0e0"/>
        <path id="Path_3957" data-name="Path 3957" d="M154.229,321.776c0,.075-4.47.136-9.985.136s-9.985-.06-9.985-.136,4.466-.136,9.985-.136S154.229,321.685,154.229,321.776Z" transform="translate(-92.859 -217.261)" fill="#e0e0e0"/>
        <rect id="Rectangle_462" data-name="Rectangle 462" width="3.381" height="7.128" transform="translate(49.282 108.792)" fill="#e0e0e0"/>
        <rect id="Rectangle_463" data-name="Rectangle 463" width="3.381" height="7.128" transform="translate(49.282 123.198)" fill="#e0e0e0"/>
        <path id="Path_3958" data-name="Path 3958" d="M154.229,359.466c0,.075-4.47.136-9.985.136s-9.985-.06-9.985-.136,4.466-.136,9.985-.136S154.229,359.39,154.229,359.466Z" transform="translate(-92.859 -240.745)" fill="#e0e0e0"/>
        <rect id="Rectangle_464" data-name="Rectangle 464" width="3.381" height="7.128" transform="translate(29.14 51.463)" fill="#fafafa"/>
        <path id="Path_3959" data-name="Path 3959" d="M100.779,207.356c0,.075-4.47.139-9.985.139s-9.985-.064-9.985-.139,4.47-.136,9.985-.136S100.779,207.28,100.779,207.356Z" transform="translate(-59.556 -145.968)" fill="#e0e0e0"/>
        <rect id="Rectangle_465" data-name="Rectangle 465" width="3.381" height="7.128" transform="translate(29.14 65.831)" fill="#fafafa"/>
        <path id="Path_3960" data-name="Path 3960" d="M100.779,245.486c0,.075-4.47.136-9.985.136s-9.985-.06-9.985-.136,4.47-.136,9.985-.136S100.779,245.41,100.779,245.486Z" transform="translate(-59.556 -169.726)" fill="#e0e0e0"/>
        <rect id="Rectangle_466" data-name="Rectangle 466" width="3.381" height="7.128" transform="translate(29.14 80.203)" fill="#fafafa"/>
        <path id="Path_3961" data-name="Path 3961" d="M100.779,283.606c0,.075-4.47.136-9.985.136s-9.985-.06-9.985-.136,4.47-.136,9.985-.136S100.779,283.53,100.779,283.606Z" transform="translate(-59.556 -193.478)" fill="#e0e0e0"/>
        <rect id="Rectangle_467" data-name="Rectangle 467" width="3.381" height="7.128" transform="translate(29.14 94.571)" fill="#fafafa"/>
        <path id="Path_3962" data-name="Path 3962" d="M100.779,321.776c0,.075-4.47.136-9.985.136s-9.985-.06-9.985-.136,4.47-.136,9.985-.136S100.779,321.685,100.779,321.776Z" transform="translate(-59.556 -217.261)" fill="#e0e0e0"/>
        <rect id="Rectangle_468" data-name="Rectangle 468" width="3.381" height="7.128" transform="translate(29.14 108.939)" fill="#fafafa"/>
        <path id="Path_3963" data-name="Path 3963" d="M100.779,359.856c0,.075-4.47.136-9.985.136s-9.985-.06-9.985-.136,4.47-.136,9.985-.136S100.779,359.78,100.779,359.856Z" transform="translate(-59.556 -240.988)" fill="#e0e0e0"/>
        <rect id="Rectangle_469" data-name="Rectangle 469" width="3.381" height="7.128" transform="translate(29.14 123.311)" fill="#fafafa"/>
        <path id="Path_3964" data-name="Path 3964" d="M80.981,343.153H34.824l-.2-72.953H80.781Z" transform="translate(-30.775 -185.21)" fill="#ebebeb"/>
        <rect id="Rectangle_470" data-name="Rectangle 470" width="23.079" height="72.953" transform="translate(26.927 84.99)" fill="#e0e0e0"/>
        <rect id="Rectangle_471" data-name="Rectangle 471" width="16.302" height="14.361" transform="translate(9.118 70.629)" fill="#ebebeb"/>
        <rect id="Rectangle_472" data-name="Rectangle 472" width="3.886" height="14.361" transform="translate(21.533 70.629)" fill="#e0e0e0"/>
        <rect id="Rectangle_473" data-name="Rectangle 473" width="51.355" height="0.837" transform="translate(0 84.153)" fill="#e0e0e0"/>
        <rect id="Rectangle_474" data-name="Rectangle 474" width="3.909" height="8.239" transform="translate(12.958 91.254)" fill="#fff"/>
        <path id="Path_3965" data-name="Path 3965" d="M57.7,317c0,.087-5.168.158-11.541.158S34.62,317.085,34.62,317s5.168-.158,11.541-.158S57.7,316.9,57.7,317Z" transform="translate(-30.775 -214.271)" fill="#e0e0e0"/>
        <rect id="Rectangle_475" data-name="Rectangle 475" width="3.909" height="8.239" transform="translate(36.237 91.254)" fill="#f5f5f5"/>
        <path id="Path_3966" data-name="Path 3966" d="M119.469,317c0,.087-5.168.158-11.537.158S96.39,317.085,96.39,317s5.168-.158,11.541-.158S119.469,316.9,119.469,317Z" transform="translate(-69.263 -214.271)" fill="#ebebeb"/>
        <rect id="Rectangle_476" data-name="Rectangle 476" width="3.909" height="8.239" transform="translate(36.237 107.613)" fill="#f5f5f5"/>
        <path id="Path_3967" data-name="Path 3967" d="M119.469,360.395c0,.09-5.168.158-11.537.158s-11.541-.068-11.541-.158,5.168-.155,11.541-.155S119.469,360.308,119.469,360.395Z" transform="translate(-69.263 -241.312)" fill="#ebebeb"/>
        <rect id="Rectangle_477" data-name="Rectangle 477" width="3.909" height="8.239" transform="translate(36.237 124.461)" fill="#f5f5f5"/>
        <path id="Path_3968" data-name="Path 3968" d="M119.469,405.1c0,.087-5.168.158-11.537.158s-11.541-.072-11.541-.158,5.168-.158,11.541-.158S119.469,405.012,119.469,405.1Z" transform="translate(-69.263 -269.164)" fill="#ebebeb"/>
        <rect id="Rectangle_478" data-name="Rectangle 478" width="3.909" height="8.239" transform="translate(36.237 141.313)" fill="#f5f5f5"/>
        <path id="Path_3969" data-name="Path 3969" d="M119.469,449.808c0,.087-5.168.155-11.537.155s-11.541-.068-11.541-.155,5.168-.158,11.541-.158S119.469,449.722,119.469,449.808Z" transform="translate(-69.263 -297.022)" fill="#ebebeb"/>
        <rect id="Rectangle_479" data-name="Rectangle 479" width="3.909" height="8.239" transform="translate(12.958 107.861)" fill="#fff"/>
        <path id="Path_3970" data-name="Path 3970" d="M57.7,361.058c0,.087-5.168.155-11.541.155s-11.541-.068-11.541-.155,5.168-.158,11.541-.158S57.7,360.972,57.7,361.058Z" transform="translate(-30.775 -241.724)" fill="#e0e0e0"/>
        <rect id="Rectangle_480" data-name="Rectangle 480" width="3.909" height="8.239" transform="translate(12.958 124.468)" fill="#fff"/>
        <path id="Path_3971" data-name="Path 3971" d="M57.7,405.143c0,.087-5.168.155-11.541.155s-11.541-.068-11.541-.155S39.788,405,46.161,405,57.7,405.057,57.7,405.143Z" transform="translate(-30.775 -269.201)" fill="#e0e0e0"/>
        <rect id="Rectangle_481" data-name="Rectangle 481" width="3.909" height="8.239" transform="translate(12.958 141.075)" fill="#fff"/>
        <path id="Path_3972" data-name="Path 3972" d="M57.7,449.162c0,.09-5.168.158-11.541.158s-11.541-.068-11.541-.158S39.788,449,46.161,449,57.7,449.075,57.7,449.162Z" transform="translate(-30.775 -296.617)" fill="#e0e0e0"/>
        <rect id="Rectangle_482" data-name="Rectangle 482" width="45.796" height="60.401" transform="translate(92.677 97.602)" fill="#ebebeb"/>
        <rect id="Rectangle_483" data-name="Rectangle 483" width="21.473" height="60.401" transform="translate(116.995 97.602)" fill="#e0e0e0"/>
        <rect id="Rectangle_484" data-name="Rectangle 484" width="4.116" height="10.003" transform="translate(102.277 105.777)" fill="#f5f5f5"/>
        <rect id="Rectangle_485" data-name="Rectangle 485" width="4.116" height="10.003" transform="translate(102.277 144.931)" fill="#f5f5f5"/>
        <path id="Path_3973" data-name="Path 3973" d="M294.619,361.974c0,.113-5.443.2-12.159.2s-12.159-.09-12.159-.2,5.443-.2,12.159-.2S294.619,361.857,294.619,361.974Z" transform="translate(-177.623 -242.266)" fill="#f5f5f5"/>
        <rect id="Rectangle_486" data-name="Rectangle 486" width="4.116" height="10.003" transform="translate(102.277 125.505)" fill="#f5f5f5"/>
        <path id="Path_3974" data-name="Path 3974" d="M294.619,414.3c0,.113-5.443.2-12.159.2s-12.159-.09-12.159-.2,5.443-.2,12.159-.2S294.619,414.194,294.619,414.3Z" transform="translate(-177.623 -274.872)" fill="#f5f5f5"/>
        <rect id="Rectangle_487" data-name="Rectangle 487" width="4.116" height="10.003" transform="translate(121.556 105.777)" fill="#f5f5f5"/>
        <rect id="Rectangle_488" data-name="Rectangle 488" width="4.116" height="10.003" transform="translate(130.489 105.777)" fill="#f5f5f5"/>
        <rect id="Rectangle_489" data-name="Rectangle 489" width="4.116" height="10.003" transform="translate(121.556 124.762)" fill="#f5f5f5"/>
        <rect id="Rectangle_490" data-name="Rectangle 490" width="4.116" height="10.003" transform="translate(130.489 124.762)" fill="#f5f5f5"/>
        <rect id="Rectangle_491" data-name="Rectangle 491" width="4.116" height="10.003" transform="translate(121.556 143.744)" fill="#f5f5f5"/>
        <rect id="Rectangle_492" data-name="Rectangle 492" width="4.116" height="10.003" transform="translate(130.489 143.744)" fill="#f5f5f5"/>
        <rect id="Rectangle_493" data-name="Rectangle 493" width="52.678" height="2.179" transform="translate(89.232 95.498)" fill="#e0e0e0"/>
        <path id="Path_3975" data-name="Path 3975" d="M317.06,304.064c0,.113-10.237.2-22.86.2s-22.86-.09-22.86-.2,10.233-.2,22.86-.2S317.06,303.95,317.06,304.064Z" transform="translate(-178.271 -206.183)" fill="#ebebeb"/>
        <path id="Path_3976" data-name="Path 3976" d="M342.772,59.03c.222-1.613-2.054-2.94-3.769-3.076a9.865,9.865,0,0,1-2.435-.211c-1.674-.584-2.341-2.748-3.973-3.434a4.663,4.663,0,0,0-3.811.539,9.832,9.832,0,0,1-3.675,1.429c-1.15.075-2.4-.351-3.392.211-.754.418-1.131,1.282-1.832,1.79a4.382,4.382,0,0,1-2.4.652,6.825,6.825,0,0,0-2.473.4,1.951,1.951,0,0,0-1.236,1.983Z" transform="translate(-204.699 -49.307)" fill="#ebebeb"/>
        <path id="Path_3977" data-name="Path 3977" d="M404.574,102.836c.335-2.424-3.087-4.417-5.654-4.625a14.76,14.76,0,0,1-3.66-.317c-2.514-.878-3.52-4.146-5.974-5.164-1.836-.754-3.95-.083-5.729.81s-3.536,2.024-5.522,2.148c-1.73.113-3.607-.528-5.122.317-1.131.629-1.715,1.926-2.755,2.695a6.468,6.468,0,0,1-3.6.976,10.193,10.193,0,0,0-3.716.607,2.934,2.934,0,0,0-1.858,2.981Z" transform="translate(-234.101 -74.429)" fill="#f5f5f5"/>
        <path id="Path_3978" data-name="Path 3978" d="M59.418,50.034c.17-1.233-1.568-2.243-2.876-2.348a7.42,7.42,0,0,1-1.858-.162c-1.278-.445-1.79-2.1-3.038-2.638a3.553,3.553,0,0,0-2.91.411A7.717,7.717,0,0,1,45.925,46.4c-.878.057-1.832-.271-2.6.158-.573.32-.874.98-1.4,1.372a3.37,3.37,0,0,1-1.832.5,5.213,5.213,0,0,0-1.885.305,1.491,1.491,0,0,0-.946,1.508Z" transform="translate(-32.408 -44.714)" fill="#f5f5f5"/>
      </g>
      <g id="freepik--Floor--inject-139" transform="translate(28.717 199.834)">
        <path id="Path_3979" data-name="Path 3979" d="M199.538,464.318c0,.057-36.652.1-81.855.1s-81.863-.041-81.863-.1,36.644-.1,81.863-.1S199.538,464.265,199.538,464.318Z" transform="translate(-35.82 -464.22)" fill="#263238"/>
      </g>
      <g id="freepik--Device--inject-139" transform="translate(63.009 39.9)">
        <path id="Path_3980" data-name="Path 3980" d="M193.017,199.932l-54.378-.03A11.847,11.847,0,0,1,126.8,188.067l.026-136.324A11.843,11.843,0,0,1,138.68,39.9l54.378.03A11.843,11.843,0,0,1,204.9,51.762l-.026,136.328a11.843,11.843,0,0,1-11.854,11.843Z" transform="translate(-126.8 -39.9)" fill="#e8e6f1"/>
        <path id="Path_3981" data-name="Path 3981" d="M200.167,52.653H189.614a2.616,2.616,0,0,0-2.559,2.672V57.24a2.616,2.616,0,0,1-2.563,2.672h-20.55a2.638,2.638,0,0,1-2.559-2.676v-1.93a2.638,2.638,0,0,0-2.559-2.676H145.9a8.292,8.292,0,0,0-8.292,8.292l-.026,133.052a8.292,8.292,0,0,0,8.292,8.292l54.276.03A8.292,8.292,0,0,0,208.441,194l.026-133.052a8.292,8.292,0,0,0-8.3-8.3Z" transform="translate(-133.517 -47.832)" fill="#fff"/>
        <path id="Path_3982" data-name="Path 3982" d="M199.953,52.488h.286a5.446,5.446,0,0,1,.841.064,7.776,7.776,0,0,1,3.11,1.074,8,8,0,0,1,1.885,1.534,8.341,8.341,0,0,1,1.579,2.476,8.59,8.59,0,0,1,.622,3.37v3.909c0,11.055,0,27.048.026,46.806s0,43.293,0,69.421V193.58a8.868,8.868,0,0,1-.317,2.529,8.381,8.381,0,0,1-1.059,2.337,8.91,8.91,0,0,1-1.73,1.918,8.367,8.367,0,0,1-4.764,1.877c-1.738.049-3.464,0-5.213.023H146.28a8.748,8.748,0,0,1-5.405-1.508,8.469,8.469,0,0,1-3.287-4.546,9.077,9.077,0,0,1-.347-2.8v-76.6c0-13.068,0-25.48.019-37.1V60.9c0-.335.03-.671.049-1.006a4.835,4.835,0,0,1,.17-.988,8.418,8.418,0,0,1,8.507-6.532H158.4a2.638,2.638,0,0,1,1.632.456,2.752,2.752,0,0,1,1.018,1.331,4.437,4.437,0,0,1,.166,1.64V56.6a6.058,6.058,0,0,0,.026.792,2.638,2.638,0,0,0,.618,1.391,2.439,2.439,0,0,0,1.293.8,2.729,2.729,0,0,0,.754.075h3.769l10.931.019h5.955a2.4,2.4,0,0,0,1.014-.377,2.638,2.638,0,0,0,1.165-1.67,4.741,4.741,0,0,0,.064-1.006v-.98a5.487,5.487,0,0,1,.045-.965,2.778,2.778,0,0,1,.313-.89,2.608,2.608,0,0,1,1.323-1.172,4.09,4.09,0,0,1,1.647-.173h0a4.025,4.025,0,0,0-1.617.177,2.522,2.522,0,0,0-1.282,1.131,2.733,2.733,0,0,0-.3.863,5.677,5.677,0,0,0-.041.954v1a4.523,4.523,0,0,1-.064,1.025,2.725,2.725,0,0,1-1.2,1.734,2.6,2.6,0,0,1-1.055.377c-.377.034-.754,0-1.131,0H163.909a2.887,2.887,0,0,1-.78-.075,2.593,2.593,0,0,1-1.342-.829,2.778,2.778,0,0,1-.656-1.462,6.492,6.492,0,0,1-.026-.81v-.712a4.293,4.293,0,0,0-.162-1.587,2.616,2.616,0,0,0-.957-1.248,2.506,2.506,0,0,0-1.549-.426H146.02a8.239,8.239,0,0,0-6.611,2.929,8.334,8.334,0,0,0-1.707,3.441c-.083.317-.106.645-.162.969a6.15,6.15,0,0,0-.045.988V193.391a8.835,8.835,0,0,0,.339,2.74,8.228,8.228,0,0,0,3.2,4.414A8.5,8.5,0,0,0,146.307,202h48.928c1.741,0,3.486.026,5.2-.023a8.16,8.16,0,0,0,4.662-1.809,8.692,8.692,0,0,0,1.681-1.866,8.116,8.116,0,0,0,1.033-2.262,8.669,8.669,0,0,0,.313-2.469V181.134c0-26.128.026-49.659.038-69.421s.038-35.751.049-46.806V61a8.526,8.526,0,0,0-.6-3.343,8.366,8.366,0,0,0-6.524-5.1,7.033,7.033,0,0,0-.837-.075Z" transform="translate(-133.303 -47.667)" fill="#263238"/>
        <path id="Path_3983" data-name="Path 3983" d="M297.765,88.272c0,.038-1.372.075-3.064.09s-3.061,0-3.061-.041,1.368-.075,3.061-.087S297.765,88.238,297.765,88.272Z" transform="translate(-229.509 -70.014)" fill="#263238"/>
        <path id="Path_3984" data-name="Path 3984" d="M297.795,92.423c0,.034-1.368.075-3.061.09s-3.064,0-3.064-.041,1.372-.075,3.064-.09S297.795,92.385,297.795,92.423Z" transform="translate(-229.527 -72.597)" fill="#263238"/>
        <path id="Path_3985" data-name="Path 3985" d="M297.875,96.583c0,.034-1.372.075-3.064.087s-3.061,0-3.061-.038,1.368-.075,3.061-.09S297.875,96.545,297.875,96.583Z" transform="translate(-229.577 -75.189)" fill="#263238"/>
        <path id="Path_3986" data-name="Path 3986" d="M160.09,93.007h.482l1.3-.03-.034.034V91.518a.505.505,0,0,1,.441-.4h.626a.509.509,0,0,1,.426.505c0,.441,0,.9,0,1.383l-.06-.06h1.651l-.064.064V90.425a.535.535,0,0,0-.23-.377l-.72-.712-.7-.686-.339-.332a.754.754,0,0,0-.339-.256.441.441,0,0,0-.377.072c-.1.087-.207.207-.309.305l-.592.6c-.377.377-.754.754-1.04,1.074a1.131,1.131,0,0,0-.083.614v2.333a1.2,1.2,0,0,1,0-.2c0-.162,0-.354-.019-.592s0-.584,0-.942v-.92a.663.663,0,0,1,.094-.343c.305-.377.667-.7,1.044-1.1l.588-.6c.106-.1.192-.207.317-.313a.554.554,0,0,1,.479-.094.859.859,0,0,1,.4.283l.339.332.7.682.724.712a1.376,1.376,0,0,1,.185.2.539.539,0,0,1,.087.275c0,.177,0,.351,0,.528v2.118h-1.772V91.635a.4.4,0,0,0-.335-.4h-.6a.4.4,0,0,0-.354.32v1.511h-1.711a.547.547,0,0,1-.2-.06Z" transform="translate(-147.542 -69.827)" fill="#263238"/>
        <path id="Path_3987" data-name="Path 3987" d="M218.868,108.606c0,.437-.347.69-1.01.69H216.55V106.77h1.233c.633,0,.957.264.957.656a.607.607,0,0,1-.335.558A.622.622,0,0,1,218.868,108.606Zm-1.738-1.395v.6h.58c.286,0,.441-.1.441-.3s-.155-.294-.441-.294Zm1.131,1.334c0-.211-.162-.313-.467-.313h-.682v.626h.682c.324,0,.486-.094.486-.313Z" transform="translate(-182.722 -81.565)" fill="#263238"/>
        <path id="Path_3988" data-name="Path 3988" d="M223.386,109.012a1.07,1.07,0,1,1,1.07,1,1,1,0,0,1-1.07-1Zm1.564,0a.494.494,0,1,0-.129.376.5.5,0,0,0,.129-.376Z" transform="translate(-186.979 -82.251)" fill="#263238"/>
        <path id="Path_3989" data-name="Path 3989" d="M229.666,109.012a1.07,1.07,0,1,1,1.067,1,1,1,0,0,1-1.067-1Zm1.564,0a.494.494,0,1,0-.13.378A.5.5,0,0,0,231.23,109.012Z" transform="translate(-190.892 -82.251)" fill="#263238"/>
        <path id="Path_3990" data-name="Path 3990" d="M237.163,108.279l-.271.268v.494h-.562v-2.68h.562v1.508l.825-.78h.671l-.81.822.882,1.131h-.682Z" transform="translate(-195.046 -81.31)" fill="#263238"/>
        <path id="Path_3991" data-name="Path 3991" d="M242.43,106.244a.324.324,0,0,1,.351-.317.317.317,0,0,1,.351.305.351.351,0,1,1-.7,0Zm.068.584h.565v1.941H242.5Z" transform="translate(-198.847 -81.039)" fill="#263238"/>
        <path id="Path_3992" data-name="Path 3992" d="M247.486,109.1v1.131h-.565V109.2c0-.313-.143-.456-.377-.456a.467.467,0,0,0-.479.505v.957H245.5v-1.941h.539v.226a.844.844,0,0,1,.641-.256.754.754,0,0,1,.807.859Z" transform="translate(-200.76 -82.477)" fill="#263238"/>
        <path id="Path_3993" data-name="Path 3993" d="M253.992,108.255v1.617c0,.724-.377,1.055-1.093,1.055a1.609,1.609,0,0,1-.954-.268l.226-.4a1.172,1.172,0,0,0,.686.219c.377,0,.569-.181.569-.531v-.083a.8.8,0,0,1-.614.241.942.942,0,0,1,0-1.885.78.78,0,0,1,.645.279v-.249Zm-.565.908a.513.513,0,1,0-.509.479.471.471,0,0,0,.509-.479Z" transform="translate(-204.729 -82.467)" fill="#263238"/>
        <path id="Path_3999" data-name="Path 3999" d="M257.754,205.83l.173.347.381.057-.275.271.064.381-.343-.181-.343.181.068-.381-.279-.271.384-.057Z" transform="translate(-208.05 -143.288)" fill="#ffc100"/>
        <path id="Path_4000" data-name="Path 4000" d="M261.714,205.83l.17.347.384.057-.275.271.064.381-.343-.181-.343.181.068-.381-.279-.271.384-.057Z" transform="translate(-210.517 -143.288)" fill="#ffc100"/>
        <path id="Path_4001" data-name="Path 4001" d="M265.674,205.83l.173.347.381.057-.275.271.064.381-.343-.181-.343.181.068-.381-.279-.271.384-.057Z" transform="translate(-212.985 -143.288)" fill="#ffc100"/>
        <path id="Path_4002" data-name="Path 4002" d="M269.634,205.83l.173.347.381.057-.275.271.064.381-.343-.181-.343.181.068-.381-.279-.271.384-.057Z" transform="translate(-215.452 -143.288)" fill="#ffc100"/>
        <path id="Path_4003" data-name="Path 4003" d="M273.594,205.83l.173.347.381.057-.275.271.064.381-.343-.181-.343.181.068-.381-.279-.271.384-.057Z" transform="translate(-217.919 -143.288)" fill="#ffc100"/>
        <path id="Path_4004" data-name="Path 4004" d="M248.587,215.728c0,.057-3.615.1-8.074.1s-8.074-.041-8.074-.1,3.615-.1,8.074-.1S248.587,215.675,248.587,215.728Z" transform="translate(-192.622 -149.394)" fill="#e0e0e0"/>
        <path id="Path_4005" data-name="Path 4005" d="M260.73,223c0,.053-6.54.1-14.6.1s-14.6-.045-14.6-.1,6.536-.1,14.6-.1S260.73,222.938,260.73,223Z" transform="translate(-192.055 -153.924)" fill="#263238"/>
        <path id="Path_4006" data-name="Path 4006" d="M246.673,230.438c0,.053-3.211.1-7.161.1s-7.161-.045-7.161-.1,3.208-.1,7.161-.1S246.673,230.381,246.673,230.438Z" transform="translate(-192.566 -158.56)" fill="#263238"/>
        <rect id="Rectangle_495" data-name="Rectangle 495" width="17.037" height="5.42" rx="2.71" transform="translate(39.211 74.875)" fill="#ffc100"/>
        <path id="Path_4007" data-name="Path 4007" d="M247.679,244.493c0,.26-.2.411-.588.411h-.731V243.37h.69c.351,0,.55.151.55.4a.392.392,0,0,0,.079.724Zm-1.1-.942v.49h.452c.222,0,.351-.083.351-.245s-.128-.245-.351-.245Zm.878.923c0-.177-.128-.256-.377-.256h-.505v.52h.505C247.329,244.738,247.457,244.652,247.457,244.474Z" transform="translate(-201.296 -166.678)" fill="#fff"/>
        <path id="Path_4008" data-name="Path 4008" d="M250.389,244.878a.607.607,0,1,1,.607.6.577.577,0,0,1-.607-.6Zm1,0a.39.39,0,1,0-.39.39A.39.39,0,0,0,251.385,244.878Z" transform="translate(-203.806 -167.233)" fill="#fff"/>
        <path id="Path_4009" data-name="Path 4009" d="M254.089,244.891a.6.6,0,1,1,.6.6.577.577,0,0,1-.6-.6Zm.991,0a.39.39,0,1,0-.39.39A.39.39,0,0,0,255.081,244.891Z" transform="translate(-206.112 -167.245)" fill="#fff"/>
        <path id="Path_4010" data-name="Path 4010" d="M258.512,244.206l-.241.222v.317h-.211V243.12h.211v1.044l.633-.58h.264l-.486.482.535.678h-.26Z" transform="translate(-208.586 -166.523)" fill="#fff"/>
        <path id="Path_4011" data-name="Path 4011" d="M181.709,225.411a2.034,2.034,0,0,1,0-.237v-.663c0-.592,0-1.428-.023-2.48,0-2.126-.026-5.115-.045-8.631l.09.087h-8.1c-.023,0,.185-.185.1-.1h0V225.4l-.079-.079,5.88.041H181.6a.756.756,0,0,1,.155,0,.894.894,0,0,1-.139,0h-2.035l-5.929.041h-.075v-12h0c-.087.087.121-.121.1-.1h8.19v.09c-.019,3.539-.034,6.551-.045,8.692,0,1.04-.019,1.885-.026,2.458v.648A1.477,1.477,0,0,1,181.709,225.411Z" transform="translate(-155.931 -147.939)" fill="#fff"/>
        <path id="Path_4012" data-name="Path 4012" d="M189.068,209.173a10.8,10.8,0,0,1,.09,1.6v.087H188l-.1-.1h0v-1.677h.079a5.839,5.839,0,0,1,1.07.079,8.005,8.005,0,0,1-1.07.079l.079-.079v1.606h0c.087.09-.121-.117-.1-.094h1.07l-.09.09a13.548,13.548,0,0,1,.128-1.587Z" transform="translate(-164.87 -145.311)" fill="#fff"/>
        <path id="Path_4013" data-name="Path 4013" d="M198.036,225.5a1.024,1.024,0,0,1-.192,0h-2.906v-.057c-.023-2.7-.038-7.079-.038-12.012v-.1h3.223v.1c0,3.445-.03,6.472-.041,8.669,0,1.059-.023,1.915-.03,2.525v.671a1.571,1.571,0,0,1,0,.226,2.309,2.309,0,0,1,0-.249v-.694c0-.614,0-1.478-.026-2.548,0-2.167-.026-5.168-.045-8.586l.1.094h-3.015l.1-.1c0,4.934,0,9.31-.041,12.012l-.057-.06,2.213.079.6.026A1.587,1.587,0,0,1,198.036,225.5Z" transform="translate(-169.232 -147.961)" fill="#fff"/>
        <rect id="Rectangle_496" data-name="Rectangle 496" width="1.255" height="1.255" transform="translate(18.967 66.963)" fill="#fff"/>
        <rect id="Rectangle_497" data-name="Rectangle 497" width="1.255" height="1.255" transform="translate(21.1 66.963)" fill="#fff"/>
        <rect id="Rectangle_498" data-name="Rectangle 498" width="1.255" height="1.255" transform="translate(23.229 66.963)" fill="#fff"/>
        <rect id="Rectangle_499" data-name="Rectangle 499" width="1.255" height="1.255" transform="translate(18.967 69.123)" fill="#fff"/>
        <rect id="Rectangle_500" data-name="Rectangle 500" width="1.255" height="1.255" transform="translate(21.1 69.123)" fill="#fff"/>
        <rect id="Rectangle_501" data-name="Rectangle 501" width="1.255" height="1.255" transform="translate(23.229 69.123)" fill="#fff"/>
        <rect id="Rectangle_502" data-name="Rectangle 502" width="1.255" height="1.255" transform="translate(18.967 71.283)" fill="#fff"/>
        <rect id="Rectangle_503" data-name="Rectangle 503" width="1.255" height="1.255" transform="translate(21.1 71.283)" fill="#fff"/>
        <rect id="Rectangle_504" data-name="Rectangle 504" width="1.255" height="1.255" transform="translate(23.229 71.283)" fill="#fff"/>
        <rect id="Rectangle_505" data-name="Rectangle 505" width="1.255" height="1.255" transform="translate(18.967 73.443)" fill="#fff"/>
        <rect id="Rectangle_506" data-name="Rectangle 506" width="1.255" height="1.255" transform="translate(21.1 73.443)" fill="#fff"/>
        <rect id="Rectangle_507" data-name="Rectangle 507" width="1.255" height="1.255" transform="translate(23.229 73.443)" fill="#fff"/>
        <rect id="Rectangle_508" data-name="Rectangle 508" width="1.255" height="1.255" transform="translate(26.558 66.963)" fill="#fff"/>
        <rect id="Rectangle_509" data-name="Rectangle 509" width="1.255" height="1.255" transform="translate(26.558 69.123)" fill="#fff"/>
        <rect id="Rectangle_510" data-name="Rectangle 510" width="1.255" height="1.255" transform="translate(26.558 71.283)" fill="#fff"/>
        <rect id="Rectangle_511" data-name="Rectangle 511" width="1.255" height="1.255" transform="translate(26.558 73.443)" fill="#fff"/>
        <rect id="Rectangle_512" data-name="Rectangle 512" width="1.229" height="1.945" transform="translate(21.243 75.527)" fill="#fff"/>
        <path id="Path_4014" data-name="Path 4014" d="M181.57,245.278c0,.053-3.9.1-8.707.1s-8.7-.045-8.7-.1,3.9-.1,8.7-.1S181.57,245.225,181.57,245.278Z" transform="translate(-150.078 -167.806)" fill="#fff"/>
        <path id="Path_4015" data-name="Path 4015" d="M209.375,217.4a2.321,2.321,0,0,0,.46-.068,1.885,1.885,0,0,0,1.086-.754,1.828,1.828,0,0,0,.317-.931V211.4c0-4.572,0-11.183-.034-19.351a2.428,2.428,0,0,0-.068-.754,1.858,1.858,0,0,0-.343-.663,1.813,1.813,0,0,0-1.323-.663h-60.7a1.8,1.8,0,0,0-1.692,1.195,3.015,3.015,0,0,0-.106,1.131v23.354a1.813,1.813,0,0,0,1.131,1.534,1.885,1.885,0,0,0,.482.117h5.654l28.7.023,19.336.038,5.277.019h0l-5.277.019-19.351.03-28.7.019h-5.661a2.176,2.176,0,0,1-.535-.128,1.994,1.994,0,0,1-1.244-1.692V191.672a1.885,1.885,0,0,1,.117-.6,2,2,0,0,1,1.885-1.327h60.71a1.971,1.971,0,0,1,1.425.72,1.937,1.937,0,0,1,.377.716,2.638,2.638,0,0,1,.072.78c0,8.168-.023,14.779-.03,19.351v4.255a1.885,1.885,0,0,1-1.447,1.711,1.463,1.463,0,0,1-.343.049Z" transform="translate(-139.249 -133.269)" fill="#ffc100"/>
        <path id="Path_4021" data-name="Path 4021" d="M255.924,288.37l.17.347.384.057-.279.271.068.381-.343-.181-.343.181.064-.381-.275-.271.381-.057Z" transform="translate(-196.91 -194.717)" fill="#ffc100"/>
        <path id="Path_4022" data-name="Path 4022" d="M259.884,288.37l.17.347.384.057-.279.271.068.381-.343-.181-.343.181.064-.381-.275-.271.381-.057Z" transform="translate(-199.377 -194.717)" fill="#ffc100"/>
        <path id="Path_4023" data-name="Path 4023" d="M263.844,288.37l.17.347.384.057-.279.271.068.381-.343-.181-.343.181.064-.381-.275-.271.381-.057Z" transform="translate(-201.844 -194.717)" fill="#ffc100"/>
        <path id="Path_4024" data-name="Path 4024" d="M267.8,288.37l.17.347.384.057-.279.271.068.381-.343-.181-.343.181.064-.381-.275-.271.381-.057Z" transform="translate(-204.312 -194.717)" fill="#e0e0e0"/>
        <path id="Path_4025" data-name="Path 4025" d="M271.764,288.37l.17.347.384.057-.279.271.068.381-.343-.181-.343.181.064-.381-.275-.271.381-.057Z" transform="translate(-206.779 -194.717)" fill="#e0e0e0"/>
        <path id="Path_4026" data-name="Path 4026" d="M246.753,298.268c0,.057-3.615.1-8.07.1s-8.074-.041-8.074-.1,3.615-.1,8.074-.1S246.753,298.215,246.753,298.268Z" transform="translate(-191.482 -200.823)" fill="#e0e0e0"/>
        <path id="Path_4027" data-name="Path 4027" d="M258.916,305.538c0,.053-6.536.1-14.6.1s-14.6-.045-14.6-.1,6.536-.1,14.6-.1S258.916,305.481,258.916,305.538Z" transform="translate(-190.928 -205.353)" fill="#263238"/>
        <path id="Path_4028" data-name="Path 4028" d="M244.833,312.978c0,.053-3.208.1-7.161.1s-7.161-.045-7.161-.1,3.208-.1,7.161-.1S244.833,312.925,244.833,312.978Z" transform="translate(-191.42 -209.989)" fill="#263238"/>
        <path id="Path_4029" data-name="Path 4029" d="M243.622,326.216a2.19,2.19,0,0,0,.411-.057,2.281,2.281,0,0,0,1.044-.52,2.216,2.216,0,0,0,.754-1.632v-1.172a2.261,2.261,0,0,0-.5-1.168,2.216,2.216,0,0,0-1.176-.727,2.743,2.743,0,0,0-.754-.06H231.134a2.179,2.179,0,0,0-2.13,1.753,6.078,6.078,0,0,0-.041.988,2.933,2.933,0,0,0,.1.954,2.179,2.179,0,0,0,2.054,1.534l6.517.023,4.395.03,1.195.019h.415a.375.375,0,0,1-.106,0h-1.5l-4.395.034-6.521.019a2.363,2.363,0,0,1-2.231-1.658,3.072,3.072,0,0,1-.109-1.01,5.933,5.933,0,0,1,.045-1.025,2.37,2.37,0,0,1,2.318-1.911H243.4a3.07,3.07,0,0,1,.788.072,2.352,2.352,0,0,1,1.251.788,2.382,2.382,0,0,1,.513,1.24c.023.433,0,.814,0,1.187a2.3,2.3,0,0,1-.818,1.689,2.22,2.22,0,0,1-1.086.5,1.863,1.863,0,0,1-.309.026A.355.355,0,0,1,243.622,326.216Z" transform="translate(-190.333 -214.814)" fill="#ffc100"/>
        <path id="Path_4030" data-name="Path 4030" d="M245.819,327.029c0,.264-.2.415-.588.415H244.5V325.91h.686c.354,0,.55.151.55.377a.408.408,0,0,0,.083.743Zm-1.1-.942v.494h.449c.222,0,.351-.087.351-.249s-.128-.245-.351-.245Zm.878.927c0-.177-.132-.256-.377-.256h-.505v.509h.505c.256,0,.388-.075.388-.253Z" transform="translate(-200.137 -218.108)" fill="#ffc100"/>
        <path id="Path_4031" data-name="Path 4031" d="M248.559,327.431a.6.6,0,1,1,.607.6.577.577,0,0,1-.607-.6Zm1,0a.392.392,0,1,0-.392.392A.392.392,0,0,0,249.555,327.431Z" transform="translate(-202.666 -218.675)" fill="#ffc100"/>
        <path id="Path_4032" data-name="Path 4032" d="M252.249,327.431a.6.6,0,1,1,.607.6.577.577,0,0,1-.607-.6Zm1,0a.39.39,0,1,0-.39.39A.39.39,0,0,0,253.245,327.431Z" transform="translate(-204.965 -218.675)" fill="#ffc100"/>
        <path id="Path_4033" data-name="Path 4033" d="M256.679,326.768l-.241.222v.324h-.207V325.69h.207v1.04l.633-.577h.256l-.49.479.539.682h-.26Z" transform="translate(-207.445 -217.971)" fill="#ffc100"/>
        <path id="Path_4034" data-name="Path 4034" d="M179.856,307.978v-.9c0-.592,0-1.428-.026-2.48,0-2.126-.026-5.115-.041-8.635l.087.09h-8.1l.1-.094h0v12.009l-.079-.079,5.876.041,1.64.019h.433a.677.677,0,0,1,.151,0,.8.8,0,0,1-.136,0h-.418l-1.621.023-5.925.041h-.079V295.97h0c-.087.087.121-.121.1-.1H180v.087c-.019,3.543-.034,6.555-.045,8.692,0,1.044,0,1.885-.023,2.461v.648a1.474,1.474,0,0,1-.079.222Z" transform="translate(-154.772 -199.388)" fill="#fff"/>
        <path id="Path_4035" data-name="Path 4035" d="M187.2,291.7a11.405,11.405,0,0,1,.09,1.594v.09h-1.165l-.1-.1h0V291.6h.075a5.974,5.974,0,0,1,1.074.079,8.184,8.184,0,0,1-1.074.079l.079-.079v1.606h0l-.1-.1h1.074l-.09.087A13.514,13.514,0,0,1,187.2,291.7Z" transform="translate(-163.705 -196.728)" fill="#fff"/>
        <path id="Path_4036" data-name="Path 4036" d="M196.2,308.031a1.683,1.683,0,0,1-.192,0h-2.9v-.057c-.023-2.7-.041-7.082-.041-12.016v-.1h3.223v.094c0,3.449-.034,6.472-.045,8.669,0,1.059-.019,1.915-.026,2.525v.671a.909.909,0,0,1,0,.226,2.3,2.3,0,0,1,0-.249c0-.177,0-.407,0-.694,0-.618,0-1.478-.026-2.548,0-2.167-.026-5.168-.045-8.59l.094.1h-3.015l.1-.1c0,4.934,0,9.314-.038,12.016l-.057-.06,2.213.079.6.026a1.465,1.465,0,0,1,.162,0Z" transform="translate(-168.085 -199.384)" fill="#fff"/>
        <rect id="Rectangle_514" data-name="Rectangle 514" width="1.255" height="1.255" transform="translate(18.277 98.074)" fill="#fff"/>
        <rect id="Rectangle_515" data-name="Rectangle 515" width="1.255" height="1.255" transform="translate(20.406 98.074)" fill="#fff"/>
        <rect id="Rectangle_516" data-name="Rectangle 516" width="1.255" height="1.255" transform="translate(22.54 98.074)" fill="#fff"/>
        <rect id="Rectangle_517" data-name="Rectangle 517" width="1.255" height="1.255" transform="translate(18.277 100.234)" fill="#fff"/>
        <rect id="Rectangle_518" data-name="Rectangle 518" width="1.255" height="1.255" transform="translate(20.406 100.234)" fill="#fff"/>
        <rect id="Rectangle_519" data-name="Rectangle 519" width="1.255" height="1.255" transform="translate(22.54 100.234)" fill="#fff"/>
        <rect id="Rectangle_520" data-name="Rectangle 520" width="1.255" height="1.255" transform="translate(18.277 102.394)" fill="#fff"/>
        <rect id="Rectangle_521" data-name="Rectangle 521" width="1.255" height="1.255" transform="translate(20.406 102.394)" fill="#fff"/>
        <rect id="Rectangle_522" data-name="Rectangle 522" width="1.255" height="1.255" transform="translate(22.54 102.394)" fill="#fff"/>
        <rect id="Rectangle_523" data-name="Rectangle 523" width="1.255" height="1.255" transform="translate(18.277 104.553)" fill="#fff"/>
        <rect id="Rectangle_524" data-name="Rectangle 524" width="1.255" height="1.255" transform="translate(20.406 104.553)" fill="#fff"/>
        <rect id="Rectangle_525" data-name="Rectangle 525" width="1.255" height="1.255" transform="translate(22.54 104.553)" fill="#fff"/>
        <rect id="Rectangle_526" data-name="Rectangle 526" width="1.255" height="1.255" transform="translate(25.864 98.074)" fill="#fff"/>
        <rect id="Rectangle_527" data-name="Rectangle 527" width="1.255" height="1.255" transform="translate(25.864 100.234)" fill="#fff"/>
        <rect id="Rectangle_528" data-name="Rectangle 528" width="1.255" height="1.255" transform="translate(25.864 102.394)" fill="#fff"/>
        <rect id="Rectangle_529" data-name="Rectangle 529" width="1.255" height="1.255" transform="translate(25.864 104.553)" fill="#fff"/>
        <rect id="Rectangle_530" data-name="Rectangle 530" width="1.229" height="1.945" transform="translate(20.553 106.638)" fill="#fff"/>
        <path id="Path_4037" data-name="Path 4037" d="M179.734,327.838c0,.053-3.9.1-8.707.1s-8.707-.045-8.707-.1,3.9-.1,8.707-.1S179.734,327.774,179.734,327.838Z" transform="translate(-148.932 -219.248)" fill="#fff"/>
        <path id="Path_4043" data-name="Path 4043" d="M256.684,370.37l.17.347.384.053-.279.271.068.381-.343-.181-.343.181.068-.381-.279-.271.381-.053Z" transform="translate(-197.67 -245.81)" fill="#ffc100"/>
        <path id="Path_4044" data-name="Path 4044" d="M260.644,370.37l.17.347.384.053-.279.271.068.381-.343-.181-.343.181.064-.381-.275-.271.384-.053Z" transform="translate(-200.137 -245.81)" fill="#ffc100"/>
        <path id="Path_4045" data-name="Path 4045" d="M264.6,370.37l.17.347.384.053-.279.271.068.381-.343-.181-.343.181.068-.381-.279-.271.384-.053Z" transform="translate(-202.604 -245.81)" fill="#e0e0e0"/>
        <path id="Path_4046" data-name="Path 4046" d="M268.564,370.37l.17.347.384.053-.279.271.068.381-.343-.181-.343.181.068-.381-.279-.271.384-.053Z" transform="translate(-205.072 -245.81)" fill="#e0e0e0"/>
        <path id="Path_4047" data-name="Path 4047" d="M272.524,370.37l.17.347.384.053-.275.271.064.381-.343-.181-.343.181.068-.381-.279-.271.384-.053Z" transform="translate(-207.539 -245.81)" fill="#e0e0e0"/>
        <path id="Path_4048" data-name="Path 4048" d="M247.517,380.262c0,.053-3.615.1-8.074.1s-8.074-.045-8.074-.1,3.615-.1,8.074-.1S247.517,380.205,247.517,380.262Z" transform="translate(-191.956 -251.91)" fill="#e0e0e0"/>
        <path id="Path_4049" data-name="Path 4049" d="M259.73,387.528c0,.053-6.54.1-14.6.1s-14.6-.045-14.6-.1,6.536-.1,14.6-.1S259.73,387.475,259.73,387.528Z" transform="translate(-191.432 -256.44)" fill="#263238"/>
        <path id="Path_4050" data-name="Path 4050" d="M245.593,394.968c0,.053-3.208.1-7.161.1s-7.161-.045-7.161-.1,3.208-.1,7.161-.1S245.593,394.919,245.593,394.968Z" transform="translate(-191.893 -261.075)" fill="#263238"/>
        <path id="Path_4051" data-name="Path 4051" d="M244.4,408.228a2.1,2.1,0,0,0,.411-.06,2.261,2.261,0,0,0,1.04-.52,2.224,2.224,0,0,0,.754-1.632c0-.377,0-.754-.019-1.172a2.19,2.19,0,0,0-1.674-1.885,3.041,3.041,0,0,0-.754-.06H231.891a2.179,2.179,0,0,0-1.734.867,2.092,2.092,0,0,0-.4.886,5.385,5.385,0,0,0-.041.991,2.853,2.853,0,0,0,.094.954,2.235,2.235,0,0,0,.456.8,2.16,2.16,0,0,0,1.6.727l6.517.023,4.395.034h1.613a.592.592,0,0,1-.106,0h-.313l-1.195.019-4.395.03-6.521.019a2.352,2.352,0,0,1-1.734-.784,2.386,2.386,0,0,1-.5-.871,2.989,2.989,0,0,1-.106-1.01,5.614,5.614,0,0,1,.041-1.029,2.371,2.371,0,0,1,2.322-1.911H244.16a3.087,3.087,0,0,1,.788.072,2.326,2.326,0,0,1,1.76,2.032c.023.43,0,.814,0,1.187a2.3,2.3,0,0,1-.818,1.685,2.22,2.22,0,0,1-1.086.5,1.508,1.508,0,0,1-.309.026.438.438,0,0,1-.094.079Z" transform="translate(-190.803 -265.919)" fill="#ffc100"/>
        <path id="Path_4052" data-name="Path 4052" d="M246.609,409.023c0,.26-.2.411-.588.411h-.731V407.9h.69c.351,0,.547.151.547.4a.354.354,0,0,1-.2.339A.377.377,0,0,1,246.609,409.023Zm-1.1-.942v.49h.449c.226,0,.351-.083.351-.245s-.124-.245-.351-.245Zm.878.923c0-.177-.132-.256-.377-.256H245.5v.509h.505c.245,0,.377-.075.377-.253Z" transform="translate(-200.629 -269.194)" fill="#ffc100"/>
        <path id="Path_4053" data-name="Path 4053" d="M249.319,409.408a.607.607,0,1,1,.607.6.577.577,0,0,1-.607-.6Zm1,0a.163.163,0,1,0,.015,0Z" transform="translate(-203.139 -269.749)" fill="#ffc100"/>
        <path id="Path_4054" data-name="Path 4054" d="M253,409.408a.607.607,0,1,1,.607.6.577.577,0,0,1-.607-.6Zm1,0a.39.39,0,1,0-.39.39A.39.39,0,0,0,253.995,409.408Z" transform="translate(-205.432 -269.749)" fill="#ffc100"/>
        <path id="Path_4055" data-name="Path 4055" d="M257.449,408.764l-.241.222v.328H257V407.69h.211v1.044l.633-.58h.253l-.49.482.524.678h-.26Z" transform="translate(-207.925 -269.063)" fill="#ffc100"/>
        <path id="Path_4056" data-name="Path 4056" d="M180.632,389.984a2.034,2.034,0,0,1,0-.237v-.663c0-.592,0-1.429-.023-2.48,0-2.126-.026-5.115-.045-8.631l.09.09h-8.1c-.026.019.185-.185.094-.1h0v12.009l-.079-.079,5.88.041,1.636.019h.588a.55.55,0,0,1-.139,0h-.418l-1.617.019-5.929.041h-.075V377.975h0c-.087.087.121-.121.1-.1h8.19v.09c0,3.543-.03,6.551-.041,8.692,0,1.04-.019,1.885-.026,2.457v.648A1.278,1.278,0,0,1,180.632,389.984Z" transform="translate(-155.258 -250.486)" fill="#fff"/>
        <path id="Path_4057" data-name="Path 4057" d="M187.968,373.7a10.8,10.8,0,0,1,.09,1.6v.087H186.9l-.1-.1h0V373.6h.079a5.951,5.951,0,0,1,1.07.079,8.153,8.153,0,0,1-1.07.079l.075-.079v1.606h0l-.1-.1h1.07l-.09.09A13.615,13.615,0,0,1,187.968,373.7Z" transform="translate(-164.185 -247.821)" fill="#fff"/>
        <path id="Path_4058" data-name="Path 4058" d="M197.01,390.033a1.019,1.019,0,0,1-.192,0h-2.88v-.053c-.023-2.7-.038-7.078-.038-12.012v-.1h3.219v.1c0,3.445-.03,6.472-.041,8.669,0,1.063-.023,1.915-.03,2.525v.675a1.532,1.532,0,0,1,0,.222v-.942c0-.614,0-1.478-.026-2.548,0-2.167-.026-5.168-.045-8.586l.1.094h-3.015l.1-.1c0,4.934,0,9.31-.041,12.012l-.057-.057,2.141.045.6.026Z" transform="translate(-168.609 -250.483)" fill="#fff"/>
        <rect id="Rectangle_532" data-name="Rectangle 532" width="1.255" height="1.255" transform="translate(18.563 128.978)" fill="#fff"/>
        <rect id="Rectangle_533" data-name="Rectangle 533" width="1.255" height="1.255" transform="translate(20.693 128.978)" fill="#fff"/>
        <rect id="Rectangle_534" data-name="Rectangle 534" width="1.255" height="1.255" transform="translate(22.826 128.978)" fill="#fff"/>
        <rect id="Rectangle_535" data-name="Rectangle 535" width="1.255" height="1.255" transform="translate(18.563 131.137)" fill="#fff"/>
        <rect id="Rectangle_536" data-name="Rectangle 536" width="1.255" height="1.255" transform="translate(20.693 131.137)" fill="#fff"/>
        <rect id="Rectangle_537" data-name="Rectangle 537" width="1.255" height="1.255" transform="translate(22.826 131.137)" fill="#fff"/>
        <rect id="Rectangle_538" data-name="Rectangle 538" width="1.255" height="1.255" transform="translate(18.563 133.297)" fill="#fff"/>
        <rect id="Rectangle_539" data-name="Rectangle 539" width="1.255" height="1.255" transform="translate(20.693 133.297)" fill="#fff"/>
        <rect id="Rectangle_540" data-name="Rectangle 540" width="1.255" height="1.255" transform="translate(22.826 133.297)" fill="#fff"/>
        <rect id="Rectangle_541" data-name="Rectangle 541" width="1.255" height="1.255" transform="translate(18.563 135.457)" fill="#fff"/>
        <rect id="Rectangle_542" data-name="Rectangle 542" width="1.255" height="1.255" transform="translate(20.693 135.457)" fill="#fff"/>
        <rect id="Rectangle_543" data-name="Rectangle 543" width="1.255" height="1.255" transform="translate(22.826 135.457)" fill="#fff"/>
        <rect id="Rectangle_544" data-name="Rectangle 544" width="1.255" height="1.255" transform="translate(26.154 128.978)" fill="#fff"/>
        <rect id="Rectangle_545" data-name="Rectangle 545" width="1.255" height="1.255" transform="translate(26.154 131.137)" fill="#fff"/>
        <rect id="Rectangle_546" data-name="Rectangle 546" width="1.255" height="1.255" transform="translate(26.154 133.297)" fill="#fff"/>
        <rect id="Rectangle_547" data-name="Rectangle 547" width="1.255" height="1.255" transform="translate(26.154 135.457)" fill="#fff"/>
        <rect id="Rectangle_548" data-name="Rectangle 548" width="1.229" height="1.945" transform="translate(20.84 137.541)" fill="#fff"/>
        <path id="Path_4059" data-name="Path 4059" d="M180.494,409.838c0,.053-3.9.1-8.707.1s-8.707-.045-8.707-.1,3.9-.1,8.707-.1S180.494,409.774,180.494,409.838Z" transform="translate(-149.405 -270.341)" fill="#fff"/>
        <path id="Path_4060" data-name="Path 4060" d="M163.262,125.58H211.2a2.672,2.672,0,0,1,2.672,2.672v2.684a2.676,2.676,0,0,1-2.676,2.676H163.262a2.672,2.672,0,0,1-2.672-2.672v-2.684a2.672,2.672,0,0,1,2.672-2.676Z" transform="translate(-147.854 -93.286)" fill="#ebebeb"/>
        <path id="Path_4061" data-name="Path 4061" d="M287.218,132.921a.862.862,0,0,0-.06-.264,1.085,1.085,0,0,0-1.41-.727,1.059,1.059,0,1,0,1,1.839,1.078,1.078,0,0,0,.407-.584c.049-.166.049-.264.06-.264s0,.023,0,.072a.732.732,0,0,1-.019.2,1.1,1.1,0,0,1-.4.645,1.161,1.161,0,1,1,0-1.839,1.1,1.1,0,0,1,.4.641.753.753,0,0,1,.019.207C287.241,132.894,287.237,132.921,287.218,132.921Z" transform="translate(-225.328 -97.136)" fill="#263238"/>
        <path id="Path_4062" data-name="Path 4062" d="M291.015,138.138a2.149,2.149,0,0,1-.543-.494,2.122,2.122,0,0,1-.452-.584,2.209,2.209,0,0,1,.547.5,2.236,2.236,0,0,1,.449.58Z" transform="translate(-228.499 -100.439)" fill="#263238"/>
        <path id="Path_4063" data-name="Path 4063" d="M173.29,134.867h-.49v-.177h1.184v.177h-.49v1.255h-.2Z" transform="translate(-155.462 -98.962)" fill="#263238"/>
        <path id="Path_4064" data-name="Path 4064" d="M175.889,136.1a.565.565,0,1,1,.565.558.539.539,0,0,1-.565-.558Zm.931,0a.377.377,0,1,0-.377.377.358.358,0,0,0,.377-.377Z" transform="translate(-157.387 -99.485)" fill="#263238"/>
        <path id="Path_4065" data-name="Path 4065" d="M179.358,135.769a.136.136,0,0,1,.139-.139.132.132,0,0,1,.136.139.136.136,0,0,1-.136.139.139.139,0,0,1-.139-.139Zm0,.825a.136.136,0,0,1,.139-.139.132.132,0,0,1,.136.139.136.136,0,0,1-.136.143.139.139,0,0,1-.139-.158Z" transform="translate(-159.547 -99.548)" fill="#263238"/>
        <path id="Path_4066" data-name="Path 4066" d="M218.139,137.008c0,.053-6.11.1-13.644.1s-13.644-.045-13.644-.1,6.11-.1,13.644-.1S218.139,136.944,218.139,137.008Z" transform="translate(-166.708 -100.345)" fill="#263238"/>
        <rect id="Rectangle_549" data-name="Rectangle 549" width="53.289" height="8.032" rx="4.016" transform="translate(12.732 43.089)" fill="#ebebeb"/>
        <path id="Path_4067" data-name="Path 4067" d="M287.209,162.522a.861.861,0,0,0-.06-.264,1.1,1.1,0,0,0-.407-.584,1.059,1.059,0,1,0,0,1.7,1.086,1.086,0,0,0,.407-.58c.049-.166.049-.268.06-.268s0,.026,0,.072a.754.754,0,0,1-.019.207,1.1,1.1,0,0,1-.4.641,1.15,1.15,0,0,1-1.1.181,1.165,1.165,0,0,1,0-2.2,1.15,1.15,0,0,1,1.138.166,1.093,1.093,0,0,1,.4.641.732.732,0,0,1,.019.2C287.231,162.5,287.227,162.522,287.209,162.522Z" transform="translate(-225.319 -115.569)" fill="#263238"/>
        <path id="Path_4068" data-name="Path 4068" d="M291.015,167.778a2.312,2.312,0,0,1-.543-.5,2.2,2.2,0,0,1-.452-.58,2.209,2.209,0,0,1,.547.5A2.236,2.236,0,0,1,291.015,167.778Z" transform="translate(-228.499 -118.907)" fill="#263238"/>
        <path id="Path_4069" data-name="Path 4069" d="M173.34,162.254h.626a.72.72,0,1,1,0,1.432h-.607Zm.592,1.255a.539.539,0,0,0,0-1.078h-.377v1.078Z" transform="translate(-155.798 -116.134)" fill="#263238"/>
        <path id="Path_4070" data-name="Path 4070" d="M178.436,163.591v.656h-.188V164.1a.4.4,0,0,1-.354.155c-.245,0-.4-.132-.4-.32s.113-.317.437-.317h.313v-.038c0-.166-.1-.264-.294-.264a.547.547,0,0,0-.343.117l-.083-.147a.724.724,0,0,1,.449-.139C178.282,163.15,178.436,163.293,178.436,163.591Zm-.2.324v-.151h-.305c-.192,0-.249.075-.249.166s.09.177.241.177a.317.317,0,0,0,.328-.192Z" transform="translate(-158.384 -116.694)" fill="#263238"/>
        <path id="Path_4071" data-name="Path 4071" d="M181.355,163.809a.35.35,0,0,1-.237.075.309.309,0,0,1-.343-.339v-.6h-.185v-.162h.185v-.237h.2v.237h.313v.162h-.313v.588a.158.158,0,0,0,.17.181.26.26,0,0,0,.155-.049Z" transform="translate(-160.316 -116.321)" fill="#263238"/>
        <path id="Path_4072" data-name="Path 4072" d="M183.942,163.768h-.882a.377.377,0,0,0,.377.32.422.422,0,0,0,.317-.132l.106.124a.531.531,0,0,1-.426.177.543.543,0,0,1-.584-.554.531.531,0,0,1,.547-.554.524.524,0,0,1,.535.562A.284.284,0,0,1,183.942,163.768Zm-.882-.139h.7a.339.339,0,0,0-.347-.313.343.343,0,0,0-.351.313Z" transform="translate(-161.723 -116.694)" fill="#263238"/>
        <path id="Path_4073" data-name="Path 4073" d="M186.24,163.289a.139.139,0,0,1,.139-.139.143.143,0,0,1,0,.283.139.139,0,0,1-.139-.143Zm0,.829a.136.136,0,0,1,.139-.139.132.132,0,0,1,.132.139.136.136,0,0,1-.132.139A.139.139,0,0,1,186.24,164.119Z" transform="translate(-163.836 -116.695)" fill="#263238"/>
        <path id="Path_4074" data-name="Path 4074" d="M198.8,164.619a16.577,16.577,0,0,1-3.6,0,16.578,16.578,0,0,1,3.6,0Z" transform="translate(-169.419 -117.542)" fill="#263238"/>
        <path id="Path_4075" data-name="Path 4075" d="M222.118,164.708c0,.057-2.589.1-5.786.1s-5.782-.041-5.782-.1,2.589-.1,5.782-.1S222.118,164.655,222.118,164.708Z" transform="translate(-178.983 -117.605)" fill="#263238"/>
        <text id="Parlor" transform="translate(42.659 63.751)" font-size="4" font-family="Roboto-Regular, Roboto"><tspan x="-5.318" y="0">Parlor</tspan></text>
        <text id="Hairdresser" transform="translate(47.659 95.751)" font-size="4" font-family="Roboto-Regular, Roboto"><tspan x="-10.339" y="0">Hairdresser</tspan></text>
        <text id="Hairdresser-2" data-name="Hairdresser" transform="translate(47.659 125.751)" font-size="4" font-family="Roboto-Regular, Roboto"><tspan x="-10.339" y="0">Hairdresser</tspan></text>
      </g>
      <g id="freepik--Character--inject-139" transform="translate(124.901 68.905)">
        <path id="Path_4076" data-name="Path 4076" d="M430.61,203.508h-4.029l-6.121,17.568,9.34,13.833c2.895.607,6.276,1.1,8.488-.863,1.82-1.613,2.133-4.308,2.228-6.743a96.854,96.854,0,0,0-.253-11.741c-.241-2.932-.656-5.959-2.22-8.454s-4.564-4.3-7.433-3.6" transform="translate(-371.666 -170.751)" fill="#455a64"/>
        <path id="Path_4077" data-name="Path 4077" d="M453.966,235.344a3.278,3.278,0,0,0,.335-.068,1.885,1.885,0,0,0,.818-.5,2.763,2.763,0,0,0,.7-1.342,13.032,13.032,0,0,0,.237-2.039,116.072,116.072,0,0,0,.241-11.941,60.048,60.048,0,0,0-.494-6.551,20.314,20.314,0,0,0-1.406-5.152,14.107,14.107,0,0,0-1.82-3.106c-.268-.335-.486-.584-.637-.754l-.17-.192a.43.43,0,0,1-.057-.068s.026,0,.072.057l.185.177c.162.158.377.4.663.727a13.548,13.548,0,0,1,1.885,3.1,20.127,20.127,0,0,1,1.447,5.186,56.794,56.794,0,0,1,.513,6.57,103.761,103.761,0,0,1-.3,11.96,12.148,12.148,0,0,1-.268,2.058,2.823,2.823,0,0,1-.754,1.368,1.885,1.885,0,0,1-.859.482,1.052,1.052,0,0,1-.335.03Z" transform="translate(-391.143 -170.922)" fill="#263238"/>
        <path id="Path_4078" data-name="Path 4078" d="M468.056,258.71a3.106,3.106,0,0,1-1.753.629,3.139,3.139,0,0,1-1.843-.29,9.674,9.674,0,0,0,1.824.094,10.3,10.3,0,0,0,1.772-.433Z" transform="translate(-399.082 -205.241)" fill="#263238"/>
        <path id="Path_4079" data-name="Path 4079" d="M467.263,235.63a3.912,3.912,0,0,1-1.775.694,3.833,3.833,0,0,1-1.907-.045c0-.06.856.038,1.885-.147S467.236,235.574,467.263,235.63Z" transform="translate(-398.533 -190.857)" fill="#263238"/>
        <path id="Path_4080" data-name="Path 4080" d="M448.156,200.089s-.5-1.975.426-2.092,3.615,1.067,3.2,2.122a8.384,8.384,0,0,1-.92,1.741l-.377-.513s.641-.792.565-1.334-1.858-1.474-2.13-.931a2.563,2.563,0,0,0-.271,1.037Z" transform="translate(-388.839 -167.407)" fill="#263238"/>
        <path id="Path_4081" data-name="Path 4081" d="M317.052,209.851l-16.106.313-2.6-.226s-5.891-.166-6.457-.253c-.652-.1-.859.188-.878.43-.034.377.377.716.942.822.192.034,3.253.482,3.253.482a7.48,7.48,0,0,0-.916.464,3.415,3.415,0,0,0-1.266,2.469c-.136,1.093-.075,1.413.347,1.485a.55.55,0,0,0,.445-.151,1.538,1.538,0,0,0,.415-.807c.358-2.084,1.187-1.949,1.187-1.949h.377s-.942.98-.754,1.885a.973.973,0,0,0,.158.377,1.38,1.38,0,0,0,1.851,1.508c.219-.083.437-.264.426-.5a.674.674,0,0,0-.139-.335,1.507,1.507,0,0,1-.09-.173l.965-.053s2.164-.23,3.117-.222l15.133.5c2.152.226,4.485-.23,4.674-2.386h0C321.319,211.152,319.408,209.723,317.052,209.851Z" transform="translate(-291.005 -174.682)" fill="#ffbe9d"/>
        <path id="Path_4082" data-name="Path 4082" d="M309.274,211.517a.8.8,0,0,1-.558.754c-.309.132-.656.151-.972.256-.954.317-1.545,1.353-2.514,1.625-.132.038-.313.041-.377-.083s.023-.249.1-.351l2.039-2.638" transform="translate(-299.62 -175.564)" fill="#ffbe9d"/>
        <path id="Path_4083" data-name="Path 4083" d="M306.85,211.1a1.323,1.323,0,0,0-.253.26c-.151.177-.377.437-.622.754l-.908,1.131-.26.332a.641.641,0,0,0-.207.452.279.279,0,0,0,.215.23.611.611,0,0,0,.275,0,2.376,2.376,0,0,0,.452-.185,12.263,12.263,0,0,0,1.421-1.1,2.465,2.465,0,0,1,.656-.377c.219-.079.445-.113.648-.17a1.183,1.183,0,0,0,.822-.554.437.437,0,0,0,.042-.377.981.981,0,0,1-.109.328,1.131,1.131,0,0,1-.788.464,6.638,6.638,0,0,0-.667.147,2.548,2.548,0,0,0-.7.377,15.62,15.62,0,0,1-1.406,1.07,2.232,2.232,0,0,1-.411.166c-.136.034-.26,0-.26-.064a.774.774,0,0,1,.166-.317l.256-.332.874-1.165c.245-.332.445-.6.577-.8A1.564,1.564,0,0,0,306.85,211.1Z" transform="translate(-299.476 -175.576)" fill="#eb996e"/>
        <path id="Path_4084" data-name="Path 4084" d="M299.367,218.227a1.3,1.3,0,0,0-.618.109,1.063,1.063,0,0,0-.467.471,2.741,2.741,0,0,0-.245.807,4.4,4.4,0,0,1-.211.852,1.364,1.364,0,0,1-.418.592.554.554,0,0,1-.479.1c-.113-.034-.162-.079-.158-.083a.444.444,0,0,1,.17.038.528.528,0,0,0,.415-.124,1.376,1.376,0,0,0,.377-.565,4.752,4.752,0,0,0,.2-.833,2.679,2.679,0,0,1,.268-.841,1.108,1.108,0,0,1,.531-.494.972.972,0,0,1,.482-.075C299.31,218.193,299.37,218.22,299.367,218.227Z" transform="translate(-294.597 -179.986)" fill="#eb996e"/>
        <path id="Path_4085" data-name="Path 4085" d="M293,212.92a3.31,3.31,0,0,1,.607.087l1.459.241,1.462.219a4.2,4.2,0,0,1,.607.106,2.416,2.416,0,0,1-.614-.019c-.377-.034-.9-.094-1.474-.185s-1.086-.192-1.455-.279A2.837,2.837,0,0,1,293,212.92Z" transform="translate(-292.248 -176.71)" fill="#eb996e"/>
        <path id="Path_4086" data-name="Path 4086" d="M303.465,220.42a.821.821,0,0,1-.1.166.573.573,0,0,0-.094.467.309.309,0,0,0,.23.2,1.612,1.612,0,0,0,.4.034.69.69,0,0,1,.467.147.6.6,0,0,1,.17.5.671.671,0,0,1-.283.445.81.81,0,0,1-.46.162,2.657,2.657,0,0,1-.78-.136,1.572,1.572,0,0,1-.479-.23.437.437,0,0,1-.128-.147s.053.041.155.106a1.884,1.884,0,0,0,.479.188,2.9,2.9,0,0,0,.754.106.656.656,0,0,0,.622-.509.467.467,0,0,0-.128-.4.584.584,0,0,0-.377-.121,1.779,1.779,0,0,1-.426-.049.4.4,0,0,1-.283-.268.6.6,0,0,1,.139-.52C303.409,220.461,303.458,220.416,303.465,220.42Z" transform="translate(-298.111 -181.383)" fill="#eb996e"/>
        <path id="Path_4087" data-name="Path 4087" d="M303.938,224.829a.256.256,0,0,1,.17.045.528.528,0,0,1,.256.4.712.712,0,0,1-.309.637,1.187,1.187,0,0,1-.852.173,1.413,1.413,0,0,1-.773-.377,1.357,1.357,0,0,1-.354-.611,1.3,1.3,0,0,1-.038-.475c0-.109.038-.17.045-.166a2.085,2.085,0,0,0,.075.614,1.339,1.339,0,0,0,.351.558,1.353,1.353,0,0,0,.712.347,1.089,1.089,0,0,0,.754-.147.633.633,0,0,0,.286-.535.516.516,0,0,0-.2-.377C303.994,224.852,303.934,224.84,303.938,224.829Z" transform="translate(-297.875 -183.9)" fill="#eb996e"/>
        <path id="Path_4088" data-name="Path 4088" d="M311.644,217.859a.609.609,0,0,1,.049-.29,1.131,1.131,0,0,1,.482-.577v.106a3.054,3.054,0,0,1-.4-.128,2.639,2.639,0,0,1-1.176-.829,6.406,6.406,0,0,0,1.221.712,3.9,3.9,0,0,0,.377.132l.132.041-.121.068a1.21,1.21,0,0,0-.475.505A1.589,1.589,0,0,1,311.644,217.859Z" transform="translate(-303.214 -178.717)" fill="#eb996e"/>
        <path id="Path_4089" data-name="Path 4089" d="M299.544,218.715c.019-.026.219.124.294.411s-.026.516-.057.5,0-.222-.064-.471S299.518,218.738,299.544,218.715Z" transform="translate(-296.324 -180.319)" fill="#eb996e"/>
        <path id="Path_4090" data-name="Path 4090" d="M347.246,183.17c-.249.351-11.255,9.065-12.619,9.423s-13.946.55-13.946.55-.984,7.738-.66,8.266c1.195,1.93,15.567,7.037,22.423.121l4.8-17.542" transform="translate(-309.044 -158.174)" fill="#ffc100"/>
        <path id="Path_4091" data-name="Path 4091" d="M355.452,213.266a1.929,1.929,0,0,1-.136-.678,6.189,6.189,0,0,1,.626-3.257,1.956,1.956,0,0,1,.377-.58,14.085,14.085,0,0,0-.72,2.2,14.279,14.279,0,0,0-.147,2.314Z" transform="translate(-331.063 -174.112)" fill="#263238"/>
        <path id="Path_4092" data-name="Path 4092" d="M358.388,213.05a2.555,2.555,0,0,1-.155-.754,16.171,16.171,0,0,1-.075-3.622,2.461,2.461,0,0,1,.128-.754c.057,0-.026,1.131,0,2.552S358.433,213.042,358.388,213.05Z" transform="translate(-332.805 -173.595)" fill="#263238"/>
        <g id="Group_2667" data-name="Group 2667" transform="translate(23.09 34.548)" opacity="0.3">
          <path id="Path_4093" data-name="Path 4093" d="M354.371,208.616a6.17,6.17,0,0,0-1.794,6.573c.121.354.328.754.694.81a.814.814,0,0,0,.818-.471,2.378,2.378,0,0,0,.188-.988l.283-6.031" transform="translate(-352.266 -208.51)"/>
        </g>
        <path id="Path_4094" data-name="Path 4094" d="M387.265,183.794l.29-1.854L385.215,184l-1.165,4.041Z" transform="translate(-348.98 -157.407)" fill="#263238"/>
        <path id="Path_4095" data-name="Path 4095" d="M374.625,175.7l-1.643.923L367.7,185.5l.023,4.647a21.751,21.751,0,0,0-1.319,5.861c-.075,2.608,0,12.159,0,12.159l-6.7,44.28,5.71,1.843,11.308-51.559V175Z" transform="translate(-333.814 -153.083)" fill="#ffc100"/>
        <g id="Group_2668" data-name="Group 2668" transform="translate(27.084 33.978)" opacity="0.3">
          <path id="Path_4096" data-name="Path 4096" d="M367.383,274.231l-4.523-1.459,6.46-48.034s-1.082-7.041,0-10.124S372.064,207,372.064,207l-1.885,8.6a195.136,195.136,0,0,1-.848,22.415h1.726Z" transform="translate(-362.86 -207)"/>
        </g>
        <path id="Path_4097" data-name="Path 4097" d="M381.614,189.14a1.3,1.3,0,0,1-.136.234c-.087.155-.237.377-.407.66a20.251,20.251,0,0,0-1.266,2.544,26.712,26.712,0,0,0-1.278,4.018,43.439,43.439,0,0,0-.848,5.1c-.207,1.828-.332,3.573-.377,5.164s-.049,3.015-.038,4.229,0,2.16,0,2.857v.776a1.821,1.821,0,0,1,0,.268,1.182,1.182,0,0,1-.023-.268c0-.2,0-.456-.026-.776-.019-.7-.045-1.666-.075-2.853s-.049-2.638,0-4.24.17-3.347.377-5.175a42.214,42.214,0,0,1,.867-5.122,25.366,25.366,0,0,1,1.327-4.029,17.8,17.8,0,0,1,1.331-2.533c.177-.283.339-.494.441-.641a1.326,1.326,0,0,1,.132-.211Z" transform="translate(-344.655 -161.893)" fill="#263238"/>
        <g id="Group_2669" data-name="Group 2669" transform="translate(29.865 38.125)" opacity="0.3">
          <path id="Path_4098" data-name="Path 4098" d="M370.357,225.538A27.084,27.084,0,0,1,373.225,218a39.406,39.406,0,0,1-.313,5.077,1.948,1.948,0,0,1-.332,1.021,2.013,2.013,0,0,1-.611.452l-1.73.961" transform="translate(-370.24 -218)"/>
        </g>
        <path id="Path_4099" data-name="Path 4099" d="M430.408,137.743a4.84,4.84,0,0,1,2.107-2.337,3.321,3.321,0,0,1,3.079-.034,2.54,2.54,0,0,1,1.274,2.7,3.483,3.483,0,1,1-3.094,6.242,2.419,2.419,0,0,1-1.248,3.524,3.2,3.2,0,0,1-3.664-1.625,4.806,4.806,0,0,1,.045-4.206" transform="translate(-376.612 -128.166)" fill="#263238"/>
        <path id="Path_4100" data-name="Path 4100" d="M429.97,142.657a1.553,1.553,0,0,1,1.195-.939,1.248,1.248,0,0,1,1.282.754,1.052,1.052,0,0,1-.554,1.319,1.459,1.459,0,0,1-.569,2.789,1.349,1.349,0,0,1-2,1.734,1.813,1.813,0,0,1-.622-1.236,5.427,5.427,0,0,1,.09-1.417c.109-.709.215-1.421.324-2.13a2.3,2.3,0,0,1,.268-.9.792.792,0,0,1,.792-.4" transform="translate(-376.792 -132.341)" fill="#ffc100"/>
        <path id="Path_4101" data-name="Path 4101" d="M381.932,121.34a2.456,2.456,0,0,1,.565-2.861,4.029,4.029,0,0,1,2.9-.965,11.771,11.771,0,0,1,3.064.637,3.339,3.339,0,0,1,5.857,1.131,2.118,2.118,0,0,1,2.846,2.442l-4.429,2.228-3.924,9.54a4.09,4.09,0,0,1-6.649-4.617,3.415,3.415,0,0,1-.825-.788,3.573,3.573,0,0,1-1.922-1.986,3.769,3.769,0,0,1,2.518-4.76Z" transform="translate(-345.98 -116.852)" fill="#263238"/>
        <path id="Path_4102" data-name="Path 4102" d="M395.854,145.318c.1-1.489.173-2.51.173-2.5s-2.872-.712-3.177-4.561a41.112,41.112,0,0,1,.55-7.538c.324-2.262,2.054-4.945,4.308-4.523l6.95,2.352c.682.128.878.731.81,1.421l.03.332-1.191,10.87-.471,4.843a4.01,4.01,0,0,1-4.048,3.588h0a4.014,4.014,0,0,1-3.935-4.286Z" transform="translate(-354.44 -122.647)" fill="#ffbe9d"/>
        <path id="Path_4103" data-name="Path 4103" d="M396.288,145.62a.5.5,0,0,0,.433.531.467.467,0,0,0,.535-.4.49.49,0,0,0-.43-.531.471.471,0,0,0-.539.4Z" transform="translate(-356.604 -134.525)" fill="#263238"/>
        <path id="Path_4104" data-name="Path 4104" d="M396.052,143.061c.053.068.445-.177.969-.132s.89.335.95.275-.023-.147-.181-.283a1.338,1.338,0,0,0-.754-.3,1.3,1.3,0,0,0-.776.185C396.086,142.917,396.03,143.03,396.052,143.061Z" transform="translate(-356.455 -132.907)" fill="#263238"/>
        <path id="Path_4105" data-name="Path 4105" d="M408.917,146.639a.49.49,0,0,0,.433.528.467.467,0,0,0,.535-.4.486.486,0,0,0-.43-.528.467.467,0,0,0-.539.4Z" transform="translate(-364.473 -135.159)" fill="#263238"/>
        <path id="Path_4106" data-name="Path 4106" d="M409.351,143.844c.057.068.449-.177.972-.136s.886.335.95.275-.023-.143-.181-.279a1.353,1.353,0,0,0-.754-.3,1.285,1.285,0,0,0-.78.188C409.388,143.7,409.324,143.81,409.351,143.844Z" transform="translate(-364.74 -133.393)" fill="#263238"/>
        <path id="Path_4107" data-name="Path 4107" d="M401.451,146.828a3.355,3.355,0,0,0-.837-.222c-.136-.026-.26-.06-.275-.155a.709.709,0,0,1,.121-.377l.479-.991a17.761,17.761,0,0,0,1.1-2.593,17.429,17.429,0,0,0-1.308,2.5l-.46,1a.777.777,0,0,0-.113.52.335.335,0,0,0,.207.215.8.8,0,0,0,.222.049A3.652,3.652,0,0,0,401.451,146.828Z" transform="translate(-359.012 -132.826)" fill="#263238"/>
        <path id="Path_4108" data-name="Path 4108" d="M401.2,168.834a9.709,9.709,0,0,0,5.194-.954,4.949,4.949,0,0,1-5.277,1.922Z" transform="translate(-359.616 -148.647)" fill="#eb996e"/>
        <path id="Path_4109" data-name="Path 4109" d="M409.645,140.137c.053.143.577.072,1.195.143s1.131.234,1.2.106c.038-.06-.053-.2-.253-.332a1.956,1.956,0,0,0-.89-.305,2.039,2.039,0,0,0-.935.113C409.736,139.956,409.623,140.069,409.645,140.137Z" transform="translate(-364.926 -131.11)" fill="#263238"/>
        <path id="Path_4110" data-name="Path 4110" d="M396.3,140.292c.1.128.535.038,1.052.075s.942.155,1.052.038c.049-.057,0-.181-.192-.309a1.636,1.636,0,0,0-.837-.264,1.6,1.6,0,0,0-.856.173C396.325,140.115,396.253,140.232,396.3,140.292Z" transform="translate(-356.603 -131.168)" fill="#263238"/>
        <path id="Path_4111" data-name="Path 4111" d="M399.073,124.491a2.608,2.608,0,0,1-3.264,2.333c-.573-.151-1.187-.494-1.711-.222s-.637,1.078-1.131,1.451c-.716.528-1.738-.1-2.608.087a3.623,3.623,0,0,0-1.606,1.236,1.839,1.839,0,0,1-1.813.7,7.982,7.982,0,0,1,.4-1.734,2.6,2.6,0,0,1,1.1-1.349c.286-.158.611-.241.878-.426.58-.4.754-1.153,1.131-1.741a2.861,2.861,0,0,1,2.28-1.274,16.264,16.264,0,0,0,2.262.139c.547-.094,1.044-.411,1.6-.471a3.45,3.45,0,0,1,2.721,1.538" transform="translate(-350.78 -120.813)" fill="#263238"/>
        <path id="Path_4112" data-name="Path 4112" d="M409.772,126.632a3.543,3.543,0,0,0,1.772-.727,2.929,2.929,0,0,1,2.638-1.259,2.412,2.412,0,0,1,2.017,2.066,3.468,3.468,0,0,1,2.823,2.141,4.018,4.018,0,0,1-.377,3.716,7.069,7.069,0,0,0-.467.874,5.88,5.88,0,0,1,.731.848c1.006,1.636-1.037,2.574-1.037,2.574.143,1.168-.935,1.3-1.625,1.387s-.837,1.975-1.383,1.971l-.185-5.756a.754.754,0,0,1-.249.079c-1.3.188-1.274-2.318-.935-3.015a7.4,7.4,0,0,1-1.176-1.447,5.349,5.349,0,0,1-.377-2.638A5.624,5.624,0,0,1,409.772,126.632Z" transform="translate(-364.996 -121.703)" fill="#263238"/>
        <path id="Path_4113" data-name="Path 4113" d="M421.939,150.011a1.131,1.131,0,0,1,1.7-.822,1.517,1.517,0,0,1,.528,1.579,1.73,1.73,0,0,1-2.5,1.474C421.664,152.179,421.822,150.954,421.939,150.011Z" transform="translate(-372.414 -136.903)" fill="#ffbe9d"/>
        <path id="Path_4114" data-name="Path 4114" d="M423.776,152.573a1.134,1.134,0,0,0,.1.068.407.407,0,0,0,.3.041.984.984,0,0,0,.562-.825,1.357,1.357,0,0,0-.045-.584.456.456,0,0,0-.264-.339.2.2,0,0,0-.245.079c-.041.06-.03.109-.041.109s-.045-.041,0-.136a.238.238,0,0,1,.106-.132.305.305,0,0,1,.226-.03.562.562,0,0,1,.377.4,1.372,1.372,0,0,1,.064.652,1.048,1.048,0,0,1-.7.916.43.43,0,0,1-.358-.106C423.772,152.626,423.768,152.573,423.776,152.573Z" transform="translate(-373.73 -138.014)" fill="#eb996e"/>
        <path id="Path_4115" data-name="Path 4115" d="M387.112,134.495a3.347,3.347,0,0,1-.543-.437,3.305,3.305,0,0,1-.923-1.628,3.189,3.189,0,0,1-.041-1.289,2.774,2.774,0,0,1,.629-1.323,3.241,3.241,0,0,1,3.076-1.018,2.72,2.72,0,0,1,.313.087c.1.034.2.079.29.117l.147.06-.019-.151a1.131,1.131,0,0,1,.185-.754,1.775,1.775,0,0,1,.577-.535,2.348,2.348,0,0,1,1.462-.3c.972.094,1.832.422,2.6.411a2.427,2.427,0,0,0,1.666-.562,1.368,1.368,0,0,0,.294-.377.752.752,0,0,0,.057-.158,1.922,1.922,0,0,1-.377.494,2.427,2.427,0,0,1-1.625.494,6.079,6.079,0,0,1-1.195-.185,10.128,10.128,0,0,0-1.4-.268,3.057,3.057,0,0,0-.784.023,2.389,2.389,0,0,0-.776.286,1.934,1.934,0,0,0-.637.588,1.293,1.293,0,0,0-.215.878l.128-.094-.309-.128a3.314,3.314,0,0,0-.332-.09,3.411,3.411,0,0,0-3.245,1.086,2.917,2.917,0,0,0-.648,1.406,3.306,3.306,0,0,0,.064,1.346,3.234,3.234,0,0,0,.988,1.647,2.341,2.341,0,0,0,.43.309,1.026,1.026,0,0,0,.158.064Z" transform="translate(-349.84 -122.951)" fill="#455a64"/>
        <path id="Path_4116" data-name="Path 4116" d="M388.44,123.537a2.42,2.42,0,0,1,.678-.335,1.926,1.926,0,0,1,.856-.034,1.674,1.674,0,0,1,.954.524l.1.109.034-.143a2.6,2.6,0,0,1,1.885-1.824,3.392,3.392,0,0,1,2.088.32,8.862,8.862,0,0,0,1.7.622,2.518,2.518,0,0,0,1.229,0,1.527,1.527,0,0,0,.309-.128c.064-.038.1-.06.094-.068a3.613,3.613,0,0,1-.422.128,2.608,2.608,0,0,1-1.18-.041,9.823,9.823,0,0,1-1.666-.648,5.42,5.42,0,0,0-1.021-.347,2.639,2.639,0,0,0-1.172,0,2.725,2.725,0,0,0-1.99,1.968l.132-.034a1.775,1.775,0,0,0-1.044-.543,1.885,1.885,0,0,0-.9.072,1.546,1.546,0,0,0-.509.275A.61.61,0,0,0,388.44,123.537Z" transform="translate(-351.715 -119.814)" fill="#455a64"/>
        <path id="Path_4117" data-name="Path 4117" d="M404.27,156.576a.754.754,0,0,1,.584-.256.893.893,0,0,1,.629.351h0l.023.026h0a.437.437,0,0,1,.1.249.63.63,0,0,1-.3.513.8.8,0,0,1-.916,0,.652.652,0,0,1-.117-.882Z" transform="translate(-361.503 -141.443)" fill="#ffc100"/>
        <path id="Path_4118" data-name="Path 4118" d="M405.064,155.83c-.03,0-.075.113-.188.271a1.233,1.233,0,0,1-1.308.505c-.188-.041-.305-.1-.32-.072s.075.124.279.211a1.161,1.161,0,0,0,1.474-.573C405.094,155.973,405.09,155.834,405.064,155.83Z" transform="translate(-360.94 -141.139)" fill="#263238"/>
        <path id="Path_4119" data-name="Path 4119" d="M423.445,127.877a.65.65,0,0,0,.1-.075,2.563,2.563,0,0,0,.256-.253,2.638,2.638,0,0,0,.618-1.172,2.076,2.076,0,0,0,0-.927,1.918,1.918,0,0,0-.509-.931,1.508,1.508,0,0,0-1.086-.441,1.417,1.417,0,0,0-1.131.535l.106.057v-.026a3.143,3.143,0,0,0-.064-2.39,2.073,2.073,0,0,0-1.538-1.18,1.711,1.711,0,0,0-1.27.377,1.421,1.421,0,0,0-.245.268.377.377,0,0,0-.06.113,1.99,1.99,0,0,1,.335-.343,1.666,1.666,0,0,1,1.229-.309,1.983,1.983,0,0,1,1.451,1.131,3.064,3.064,0,0,1,.045,2.3v.026l-.117.351.222-.3a1.293,1.293,0,0,1,1.036-.486,1.41,1.41,0,0,1,1.006.4,1.786,1.786,0,0,1,.49.878,1.944,1.944,0,0,1,0,.882,2.7,2.7,0,0,1-.569,1.157C423.569,127.756,423.433,127.869,423.445,127.877Z" transform="translate(-370.52 -119.476)" fill="#263238"/>
        <path id="Path_4120" data-name="Path 4120" d="M437.764,142.158l.064.026.185.068c.162.057.4.139.72.237a10.261,10.261,0,0,0,1.168.294,5.427,5.427,0,0,0,1.594.072,3.679,3.679,0,0,0,1.8-.682,2.846,2.846,0,0,0,1.078-1.9,4.4,4.4,0,0,0-.377-2.416,3.016,3.016,0,0,0-.754-1.055,1.922,1.922,0,0,0-1.259-.475,1.508,1.508,0,0,0-.923.3l.083.09a2.669,2.669,0,0,0,.6-1.131,3.045,3.045,0,0,0,.049-1.221,2.733,2.733,0,0,0-1.229-1.885,3.2,3.2,0,0,0-2-.5,3.083,3.083,0,0,0-1.662.637,3.581,3.581,0,0,0-.942,1.131,3.8,3.8,0,0,0-.377,1.044,3.3,3.3,0,0,0-.06.694v.241a4.449,4.449,0,0,1,.087-.927,3.769,3.769,0,0,1,.377-1.021,3.445,3.445,0,0,1,.931-1.093,3.049,3.049,0,0,1,1.621-.611,3.151,3.151,0,0,1,1.926.479,2.638,2.638,0,0,1,1.172,1.821,2.959,2.959,0,0,1-.053,1.176,2.51,2.51,0,0,1-.573,1.059l.079.087a1.368,1.368,0,0,1,.848-.271,1.809,1.809,0,0,1,1.18.445,2.883,2.883,0,0,1,.754,1.014,4.349,4.349,0,0,1,.377,2.352,2.748,2.748,0,0,1-1.04,1.839,3.656,3.656,0,0,1-1.753.678,5.465,5.465,0,0,1-1.572-.057,10.881,10.881,0,0,1-1.165-.271l-.727-.215-.188-.057A.314.314,0,0,1,437.764,142.158Z" transform="translate(-381.055 -126.272)" fill="#263238"/>
        <path id="Path_4121" data-name="Path 4121" d="M432.23,162.741a2.054,2.054,0,0,0,.271.17,5.4,5.4,0,0,0,.8.377,3.369,3.369,0,0,0,1.278.226,2.337,2.337,0,0,0,1.478-.577,1.8,1.8,0,0,0,.464-.7,2.4,2.4,0,0,0,.132-.754,3.336,3.336,0,0,0-.268-1.27,6.364,6.364,0,0,0-.377-.784,1.459,1.459,0,0,0-.17-.271,1.971,1.971,0,0,0,.128.29c.087.188.219.452.347.8a3.351,3.351,0,0,1,.234,1.24,1.885,1.885,0,0,1-.562,1.376,2.262,2.262,0,0,1-1.4.55,3.46,3.46,0,0,1-1.248-.192C432.633,162.956,432.241,162.714,432.23,162.741Z" transform="translate(-379 -143.213)" fill="#263238"/>
        <path id="Path_4122" data-name="Path 4122" d="M426.763,165.375a.754.754,0,0,1-.29-.117.822.822,0,0,1-.317-.754.682.682,0,0,1,.264-.486.475.475,0,0,1,.584,0,.43.43,0,0,1,.136.294.324.324,0,0,1-.162.279.543.543,0,0,1-.358.053.923.923,0,0,1-.377-.139,1.662,1.662,0,0,1-.7-1.319,3.1,3.1,0,0,1,.241-1.263,2.638,2.638,0,0,1,.377-.776.354.354,0,0,1,.275-.124.162.162,0,0,0-.083,0,.377.377,0,0,0-.226.106,1.017,1.017,0,0,0-.222.317c-.068.132-.143.286-.215.46a3.132,3.132,0,0,0-.275,1.3,1.975,1.975,0,0,0,.192.754,1.549,1.549,0,0,0,.562.648.848.848,0,0,0,.852.087.43.43,0,0,0,.215-.377.539.539,0,0,0-.173-.377.52.52,0,0,0-.377-.124.69.69,0,0,0-.347.124.754.754,0,0,0-.286.562.871.871,0,0,0,.377.8.584.584,0,0,0,.234.083C426.733,165.386,426.763,165.378,426.763,165.375Z" transform="translate(-374.75 -144.37)" fill="#263238"/>
        <path id="Path_4123" data-name="Path 4123" d="M442.694,150.81a.31.31,0,0,0,.106,0,.848.848,0,0,0,.294-.038,1.206,1.206,0,0,0,.754-.754,1.572,1.572,0,0,0-.422-1.527,2.318,2.318,0,0,0-1.821-.716,2.574,2.574,0,0,0-.467.075l.072.079a1.843,1.843,0,0,0-.347-1.753,1.655,1.655,0,0,0-.645-.467,1.794,1.794,0,0,0-.678-.121,1.722,1.722,0,0,0-.939.275,1.182,1.182,0,0,0-.211.162c-.041.045-.064.068-.06.072a3.424,3.424,0,0,1,.294-.2,1.783,1.783,0,0,1,1.557-.1,1.508,1.508,0,0,1,.6.449,1.738,1.738,0,0,1,.317,1.64l-.038.109.109-.03a2.383,2.383,0,0,1,.445-.072,2.239,2.239,0,0,1,1.734.671,1.508,1.508,0,0,1,.422,1.425,1.184,1.184,0,0,1-.69.754,1.356,1.356,0,0,1-.384.064Z" transform="translate(-382.8 -134.758)" fill="#455a64"/>
        <path id="Path_4124" data-name="Path 4124" d="M442.833,140.6a.456.456,0,0,0-.155-.06,1.278,1.278,0,0,0-.46-.026,1.508,1.508,0,0,0-.663.234,1.444,1.444,0,0,0-.573.682l.1-.019a1.2,1.2,0,0,0-.724-.377,1.7,1.7,0,0,0-1.131.264,2.571,2.571,0,0,0-.682.671,4.249,4.249,0,0,0-.335.543.722.722,0,0,0-.1.215c.019,0,.177-.286.5-.709a2.8,2.8,0,0,1,.675-.626,1.6,1.6,0,0,1,1.063-.237,1.093,1.093,0,0,1,.652.328l.064.072.034-.087a1.372,1.372,0,0,1,.52-.641,1.553,1.553,0,0,1,.618-.245A2.216,2.216,0,0,1,442.833,140.6Z" transform="translate(-382.663 -131.589)" fill="#455a64"/>
        <path id="Path_4125" data-name="Path 4125" d="M396.268,171.2l-8.53,1.21-.377,2.695s-4.24,7.414-4.617,9.589-2.262,7.538-1.885,11.6S380,215.7,380,215.7h2.167l8.405-20.455Z" transform="translate(-346.456 -150.715)" fill="#263238"/>
        <path id="Path_4126" data-name="Path 4126" d="M430.7,430.084l2.141,7.746s-7.278,4.206-7.022,5.676l15.292-3.042-2.842-12.2Z" transform="translate(-375.001 -310.885)" fill="#ffc100"/>
        <g id="Group_2670" data-name="Group 2670" transform="translate(61.749 125.17)" opacity="0.6">
          <path id="Path_4127" data-name="Path 4127" d="M455.456,448.94a.641.641,0,0,1,.6.607.611.611,0,0,1-.6.6.671.671,0,0,1-.626-.645.633.633,0,0,1,.686-.55" transform="translate(-454.83 -448.94)" fill="#fff"/>
        </g>
        <g id="Group_2671" data-name="Group 2671" transform="translate(50.76 128.351)" opacity="0.6">
          <path id="Path_4128" data-name="Path 4128" d="M441.025,458.609l-.286-1.229-14.662,3.449a1.071,1.071,0,0,0-.4.946Z" transform="translate(-425.675 -457.38)" fill="#fff"/>
        </g>
        <path id="Path_4129" data-name="Path 4129" d="M443.758,453.361c.023.072.4,0,.822.17s.69.418.754.377-.151-.445-.663-.618S443.727,453.3,443.758,453.361Z" transform="translate(-386.181 -326.434)" fill="#263238"/>
        <path id="Path_4130" data-name="Path 4130" d="M440,456.252c0,.075.351.124.675.377s.479.569.554.547,0-.449-.377-.754S439.968,456.18,440,456.252Z" transform="translate(-383.839 -328.289)" fill="#263238"/>
        <path id="Path_4131" data-name="Path 4131" d="M437.3,460.1c.068,0,.083-.4-.2-.754s-.671-.441-.686-.377.249.234.479.531S437.223,460.1,437.3,460.1Z" transform="translate(-381.603 -330.005)" fill="#263238"/>
        <path id="Path_4132" data-name="Path 4132" d="M442.989,447.98c.045.06.377-.121.788-.192s.784-.019.807-.09-.354-.264-.856-.17S442.932,447.931,442.989,447.98Z" transform="translate(-385.699 -322.874)" fill="#263238"/>
        <g id="Group_2672" data-name="Group 2672" transform="translate(56.125 119.015)" opacity="0.3">
          <path id="Path_4133" data-name="Path 4133" d="M439.91,434.329l.381,1.379,7.437-1.843-.29-1.255Z" transform="translate(-439.91 -432.61)"/>
        </g>
        <path id="Path_4134" data-name="Path 4134" d="M441.92,441.81a1.458,1.458,0,0,0,.754-.185,3.607,3.607,0,0,0,.735-.433,3.507,3.507,0,0,0,.377-.335,1.13,1.13,0,0,0,.185-.234.332.332,0,0,0-.06-.4.418.418,0,0,0-.377-.09,1.166,1.166,0,0,0-.275.106,3.268,3.268,0,0,0-.433.275,2.72,2.72,0,0,0-.588.626c-.275.411-.332.716-.3.724s.155-.256.449-.611a3.083,3.083,0,0,1,.588-.543,2.775,2.775,0,0,1,.4-.237c.151-.079.286-.113.347-.053s.026.034,0,.09a.841.841,0,0,1-.139.17,3.929,3.929,0,0,1-.347.324,4.222,4.222,0,0,1-.667.456A5.314,5.314,0,0,0,441.92,441.81Z" transform="translate(-385.037 -318.272)" fill="#263238"/>
        <path id="Path_4135" data-name="Path 4135" d="M439.873,441.07a1.236,1.236,0,0,0,.026-.78,2.66,2.66,0,0,0-.3-.81,2.715,2.715,0,0,0-.305-.415.645.645,0,0,0-.573-.268.377.377,0,0,0-.268.286,1.018,1.018,0,0,0,0,.3,1.823,1.823,0,0,0,.121.513,1.771,1.771,0,0,0,.513.709,1,1,0,0,0,.72.309,3.187,3.187,0,0,1-.6-.449,1.775,1.775,0,0,1-.407-.656,1.53,1.53,0,0,1-.09-.441c0-.17,0-.313.079-.309a.537.537,0,0,1,.324.185,2.838,2.838,0,0,1,.286.377,2.929,2.929,0,0,1,.328.724C439.843,440.757,439.831,441.066,439.873,441.07Z" transform="translate(-382.87 -317.449)" fill="#263238"/>
        <path id="Path_4136" data-name="Path 4136" d="M363.653,431.86l-.946,7.968s-8.33,1.131-8.646,2.593l15.3,2.974,1.986-12.352Z" transform="translate(-330.293 -313.128)" fill="#ffc100"/>
        <g id="Group_2673" data-name="Group 2673" transform="translate(36.446 126.741)" opacity="0.6">
          <path id="Path_4137" data-name="Path 4137" d="M388.529,453.15a.637.637,0,0,1,.324.788.611.611,0,0,1-.776.324.667.667,0,0,1-.335-.833.633.633,0,0,1,.844-.249" transform="translate(-387.699 -453.108)" fill="#fff"/>
        </g>
        <g id="Group_2674" data-name="Group 2674" transform="translate(23.661 128.675)" opacity="0.6">
          <path id="Path_4138" data-name="Path 4138" d="M369.185,461.843l.2-1.248-14.877-2.356a1.082,1.082,0,0,0-.727.727Z" transform="translate(-353.78 -458.24)" fill="#fff"/>
        </g>
        <path id="Path_4139" data-name="Path 4139" d="M376.36,452.652c0,.075.377.166.694.467s.482.645.554.626.03-.471-.377-.825S376.356,452.58,376.36,452.652Z" transform="translate(-344.188 -326.057)" fill="#263238"/>
        <path id="Path_4140" data-name="Path 4140" d="M371.8,453.785c-.03.072.279.249.482.607s.23.7.305.716.189-.411-.075-.852S371.808,453.714,371.8,453.785Z" transform="translate(-341.343 -326.776)" fill="#263238"/>
        <path id="Path_4141" data-name="Path 4141" d="M367.9,456.28c.064.026.23-.332.1-.773s-.456-.663-.5-.6.143.309.245.675S367.824,456.261,367.9,456.28Z" transform="translate(-338.664 -327.48)" fill="#263238"/>
        <path id="Path_4142" data-name="Path 4142" d="M377.468,447.707c.023.072.377.023.8.117s.731.279.78.222-.226-.377-.724-.482S377.442,447.624,377.468,447.707Z" transform="translate(-344.878 -322.891)" fill="#263238"/>
        <g id="Group_2675" data-name="Group 2675" transform="translate(33.001 120.312)" opacity="0.3">
          <path id="Path_4143" data-name="Path 4143" d="M378.733,436.05l-.173,1.421,7.584,1.112.207-1.274Z" transform="translate(-378.56 -436.05)"/>
        </g>
        <path id="Path_4144" data-name="Path 4144" d="M378.06,442.129a1.414,1.414,0,0,0,.773.117,3.546,3.546,0,0,0,.844-.121,3.808,3.808,0,0,0,.479-.166.943.943,0,0,0,.264-.147.332.332,0,0,0,.094-.4.422.422,0,0,0-.3-.222,1.133,1.133,0,0,0-.3,0,2.667,2.667,0,0,0-.505.09,2.755,2.755,0,0,0-.784.354c-.407.275-.573.539-.55.558s.241-.181.648-.4a3.06,3.06,0,0,1,.754-.279,2.637,2.637,0,0,1,.467-.068c.17-.019.309,0,.339.079s0,.041-.03.087a1.1,1.1,0,0,1-.192.106c-.151.068-.3.121-.445.17a4.71,4.71,0,0,1-.792.17,6,6,0,0,0-.765.064Z" transform="translate(-345.247 -318.937)" fill="#263238"/>
        <path id="Path_4145" data-name="Path 4145" d="M376.968,439.792a1.289,1.289,0,0,0,.32-.712,2.475,2.475,0,0,0,.026-.863,2.526,2.526,0,0,0-.124-.5.641.641,0,0,0-.43-.467.377.377,0,0,0-.377.166,1.132,1.132,0,0,0-.121.271,1.684,1.684,0,0,0-.083.52,1.817,1.817,0,0,0,.207.848c.237.445.539.584.547.558a3.159,3.159,0,0,1-.377-.637,1.76,1.76,0,0,1-.132-.754,1.681,1.681,0,0,1,.083-.441c.049-.162.132-.283.192-.256a.571.571,0,0,1,.23.294,2.58,2.58,0,0,1,.124.449,2.876,2.876,0,0,1,.03.792C377.054,439.513,376.93,439.792,376.968,439.792Z" transform="translate(-344.076 -316.484)" fill="#263238"/>
        <path id="Path_4146" data-name="Path 4146" d="M387.558,365.015c0,.283-3.5,27.647-3.5,27.647l-10.177-1.93,4.09-28.242Z" transform="translate(-342.643 -269.905)" fill="#263238"/>
        <path id="Path_4147" data-name="Path 4147" d="M425.192,361.43c.094.268,7.161,27.892,7.161,27.892l-9.672,2.228-8.292-29.72Z" transform="translate(-367.884 -269.244)" fill="#263238"/>
        <path id="Path_4148" data-name="Path 4148" d="M390.289,172.4l1.99-.678,3.475,4.749.935,15.258-2.4,7.859s6.785,14.956,6.879,18.669,3.151,38.276,3.151,38.276L373,259.082l5.786-56.538s.754-13.863,1.64-15.936S390.289,172.4,390.289,172.4Z" transform="translate(-342.095 -151.039)" fill="#ffc100"/>
        <path id="Path_4149" data-name="Path 4149" d="M416.971,286.606a.378.378,0,0,1-.121.06,1.945,1.945,0,0,1-.377.1,2.669,2.669,0,0,1-1.432-.207,3.822,3.822,0,0,1-1.617-1.406,10.339,10.339,0,0,1-1.108-2.378,15.212,15.212,0,0,1-.807-4.67,13.634,13.634,0,0,1,.064-1.436,2.3,2.3,0,0,1,.083-.52,3.275,3.275,0,0,1,0,.524c0,.339-.023.829,0,1.428a16.467,16.467,0,0,0,.852,4.613,10.707,10.707,0,0,0,1.074,2.337,3.769,3.769,0,0,0,1.508,1.38,2.778,2.778,0,0,0,1.364.26C416.79,286.647,416.971,286.587,416.971,286.606Z" transform="translate(-366.089 -216.108)" fill="#263238"/>
        <path id="Path_4150" data-name="Path 4150" d="M404.131,324.1h-.155l-.46.045-1.768.162-6.577.565-22.359,1.873H372.7v-.117c.249-2.457.509-5,.776-7.61,1.108-10.731,2.115-20.444,2.842-27.481.377-3.509.671-6.355.882-8.326.109-.976.192-1.738.249-2.262.03-.253.053-.449.072-.588a1.884,1.884,0,0,1,.03-.2v.2c0,.132-.026.339-.049.592-.049.524-.121,1.289-.215,2.262-.192,1.975-.475,4.821-.822,8.334-.712,7.041-1.7,16.754-2.782,27.485-.268,2.608-.528,5.152-.78,7.61l-.106-.105,22.359-1.787,6.581-.509,1.771-.128.456-.026a1.246,1.246,0,0,1,.166.011Z" transform="translate(-341.908 -218.606)" fill="#263238"/>
        <path id="Path_4151" data-name="Path 4151" d="M402.879,178.18a.954.954,0,0,1-.083.06l-.249.155-.965.588c-.418.253-.931.565-1.508.942-.294.192-.607.4-.912.633a.933.933,0,0,0-.185.181,2.387,2.387,0,0,1-.038.3c-.023.207-.049.422-.083.637a25.707,25.707,0,0,1-.577,2.819,13.851,13.851,0,0,1-1.172,3.094,10.518,10.518,0,0,1-2.525,2.638,6.407,6.407,0,0,0-1.266,1.4,2.751,2.751,0,0,0-.415,1.832,10.109,10.109,0,0,0,.547,1.885,6.724,6.724,0,0,1,.377,1.907,9.08,9.08,0,0,1-.641,3.6,17.058,17.058,0,0,1-1.478,2.959c-.539.882-1.07,1.685-1.553,2.416-.969,1.462-1.741,2.638-2.243,3.5-.249.422-.437.754-.562.976l-.143.256a.5.5,0,0,1-.057.087.2.2,0,0,1,.038-.094l.124-.268c.117-.23.294-.569.535-1,.479-.859,1.236-2.062,2.19-3.536.475-.754,1-1.542,1.53-2.424a17.033,17.033,0,0,0,1.447-2.936,9,9,0,0,0,.618-3.524,6.541,6.541,0,0,0-.377-1.858,10,10,0,0,1-.554-1.919,2.906,2.906,0,0,1,.441-1.956,6.491,6.491,0,0,1,1.308-1.444,10.39,10.39,0,0,0,2.491-2.582,13.968,13.968,0,0,0,1.172-3.046,25.741,25.741,0,0,0,.6-2.8q.053-.32.09-.633a1.55,1.55,0,0,1,.041-.313.754.754,0,0,1,.23-.249c.32-.241.637-.441.931-.626.592-.377,1.112-.675,1.538-.92l.984-.554.26-.139a.657.657,0,0,1,.091-.049Z" transform="translate(-350.911 -155.064)" fill="#263238"/>
        <path id="Path_4152" data-name="Path 4152" d="M418.69,239.194a3.117,3.117,0,0,1-.957-.106,7.23,7.23,0,0,1-2.163-.874,7.331,7.331,0,0,1-1.768-1.508,2.9,2.9,0,0,1-.531-.807,10.591,10.591,0,0,0,2.4,2.16,10.829,10.829,0,0,0,3.019,1.135Z" transform="translate(-367.186 -191.029)" fill="#263238"/>
        <path id="Path_4153" data-name="Path 4153" d="M420.837,246.306a2.567,2.567,0,0,1-.735.185,10.674,10.674,0,0,1-3.641-.026,2.382,2.382,0,0,1-.731-.2c0-.057,1.131.166,2.552.173S420.826,246.246,420.837,246.306Z" transform="translate(-368.719 -197.481)" fill="#263238"/>
        <path id="Path_4154" data-name="Path 4154" d="M422.844,181.21s-2.589.038-3.487,1.568-2.7,12.634,2.695,22.238c.249.441.482.467.482.467l.792-2.593S421.86,192.178,421.642,191s-.573-8.1.46-8.236a6.833,6.833,0,0,1,.773-.049,5.3,5.3,0,0,1,3.415,1.21l.754.6A5.827,5.827,0,0,0,422.844,181.21Z" transform="translate(-370.341 -156.952)" fill="#263238"/>
        <g id="Group_2676" data-name="Group 2676" transform="translate(48.178 29.026)" opacity="0.3">
          <path id="Path_4155" data-name="Path 4155" d="M421.383,193.86c-2.793,5.16-3.015,11.372-2.009,17.154a4.169,4.169,0,0,0,.7,1.967,1.556,1.556,0,0,0,1.885.516c.471-.264.863-.143,1.04-.652.569-1.6,1.063-3.671,1.632-5.277C423.573,202.959,422.428,198.481,421.383,193.86Z" transform="translate(-418.827 -193.86)"/>
        </g>
        <g id="Group_2677" data-name="Group 2677" transform="translate(45.244 61.561)" opacity="0.3">
          <path id="Path_4156" data-name="Path 4156" d="M411.353,280.18a18.533,18.533,0,0,0,1.41,11.191,6.616,6.616,0,0,0,1.432,2.137,2.959,2.959,0,0,0,2.359.844,3.069,3.069,0,0,0,2.284-2.092,2.2,2.2,0,0,0-.241-2.224c-.648-.7-1.76-.584-2.7-.754a5.389,5.389,0,0,1-3.743-3.392,15.953,15.953,0,0,1-.912-5.152" transform="translate(-411.041 -280.18)"/>
        </g>
        <path id="Path_4157" data-name="Path 4157" d="M437.817,203.649c-.09-2.337-4.546-11.575-4.546-11.575s-2.062-4.591-2.548-5.518a4.211,4.211,0,0,0-5.081-1.617l.825,11.4,2.446,8.292-4.764,8.99,5.933,5.842C437.994,218.484,437.9,205.986,437.817,203.649Z" transform="translate(-373.965 -159.086)" fill="#ffc100"/>
        <path id="Path_4158" data-name="Path 4158" d="M443.955,236.375a2.9,2.9,0,0,1-1.082-.155c-.66-.166-1.508-.55-2.5-.78a4.146,4.146,0,0,0-1.4-.106,2.812,2.812,0,0,0-1.082.351,2.973,2.973,0,0,0-.78.716.7.7,0,0,1,.124-.268,1.972,1.972,0,0,1,.58-.565,2.819,2.819,0,0,1,1.131-.415,4.089,4.089,0,0,1,1.466.094c1.018.241,1.858.645,2.5.837S443.959,236.345,443.955,236.375Z" transform="translate(-382.04 -190.547)" fill="#263238"/>
        <path id="Path_4159" data-name="Path 4159" d="M440.833,229.024a4.5,4.5,0,0,1-.871.155,5.752,5.752,0,0,0-1.99.614,2.672,2.672,0,0,0-1.251,1.572,3.053,3.053,0,0,0-.049.859.808.808,0,0,1-.087-.23,1.671,1.671,0,0,1,0-.66,2.639,2.639,0,0,1,1.285-1.715,5.08,5.08,0,0,1,2.069-.577,3.27,3.27,0,0,1,.893-.019Z" transform="translate(-381.693 -186.73)" fill="#263238"/>
        <path id="Path_4160" data-name="Path 4160" d="M429,263.363a2.2,2.2,0,0,1-.433-.17,10.809,10.809,0,0,1-1.131-.584,13.577,13.577,0,0,1-1.553-1.063,15.571,15.571,0,0,1-1.692-1.564,16.076,16.076,0,0,1-1.421-1.813,14.4,14.4,0,0,1-.931-1.636,10.965,10.965,0,0,1-.49-1.168,2.165,2.165,0,0,1-.132-.445c.034,0,.256.607.754,1.549a15.744,15.744,0,0,0,.957,1.6,18.005,18.005,0,0,0,1.413,1.783,16.928,16.928,0,0,0,1.662,1.557,15.531,15.531,0,0,0,1.508,1.082C428.415,263.054,429.018,263.329,429,263.363Z" transform="translate(-372.14 -202.88)" fill="#263238"/>
        <path id="Path_4161" data-name="Path 4161" d="M432.746,223.7a8.151,8.151,0,0,1-.467-1.21c-.264-.754-.607-1.805-.946-2.978s-.614-2.243-.792-3.015a7.865,7.865,0,0,1-.241-1.274,8.946,8.946,0,0,1,.377,1.24c.211.754.509,1.832.848,3.015s.644,2.171.89,2.989a9.078,9.078,0,0,1,.332,1.233Z" transform="translate(-377.797 -178.143)" fill="#263238"/>
        <path id="Path_4162" data-name="Path 4162" d="M424.147,246.693c-.049-.026.98-2.058,2.3-4.542s2.42-4.474,2.469-4.451-.98,2.062-2.3,4.542S424.2,246.719,424.147,246.693Z" transform="translate(-373.962 -192.15)" fill="#263238"/>
        <path id="Path_4163" data-name="Path 4163" d="M415.73,358.207c-.053,0,.234-3.637.645-8.111s.784-8.1.837-8.1-.234,3.637-.641,8.111S415.786,358.207,415.73,358.207Z" transform="translate(-368.715 -257.138)" fill="#263238"/>
        <path id="Path_4164" data-name="Path 4164" d="M422.69,377.216a67.477,67.477,0,0,1-1.44-7.056,64.994,64.994,0,0,1,1.44,7.056Z" transform="translate(-372.158 -274.684)" fill="#263238"/>
        <path id="Path_4165" data-name="Path 4165" d="M392.8,363.041c0,.057-3.309-.03-7.388-.188s-7.384-.328-7.38-.377,3.309.03,7.388.185S392.8,362.97,392.8,363.041Z" transform="translate(-345.229 -269.887)" fill="#fafafa"/>
        <path id="Path_4166" data-name="Path 4166" d="M431.059,367.549c0,.057-3.046.023-6.785-.072s-6.785-.215-6.785-.271,3.046-.019,6.8.075S431.063,367.489,431.059,367.549Z" transform="translate(-369.815 -272.827)" fill="#fafafa"/>
        <path id="Path_4167" data-name="Path 4167" d="M393.463,352.279c0,.053-3.328-.057-7.425-.245s-7.422-.377-7.418-.445,3.324.057,7.425.249S393.482,352.226,393.463,352.279Z" transform="translate(-345.596 -263.101)" fill="#fafafa"/>
        <path id="Path_4168" data-name="Path 4168" d="M431.1,357.361c0,.057-2.925,0-6.524-.109s-6.524-.253-6.521-.305,2.921,0,6.524.109S431.1,357.308,431.1,357.361Z" transform="translate(-370.164 -266.437)" fill="#fafafa"/>
      </g>
      <g id="freepik--Plant--inject-139" transform="translate(32.764 149.527)">
        <path id="Path_4169" data-name="Path 4169" d="M57.753,409.416a3.253,3.253,0,0,0-1.214-2.925,8.126,8.126,0,0,1-2.137-2.5c-.663-1.666.23-3.818-.9-5.209-.663-.814-1.858-1.089-2.45-1.96a4.482,4.482,0,0,1-.531-1.56,15.853,15.853,0,0,0-3.939-7.373,13.72,13.72,0,0,0,1.545,7.1,9.061,9.061,0,0,1,1.172,2.7c.249,1.583-.637,3.211-.249,4.764.445,1.775,2.442,2.966,2.537,4.794.079,1.545-1.266,2.9-1.168,4.448a4.214,4.214,0,0,0,.69,1.836,6.136,6.136,0,0,0,5.612,3.309l3.26.117Z" transform="translate(-46.557 -366.353)" fill="#ffc100"/>
        <g id="Group_2678" data-name="Group 2678" transform="translate(0 21.537)" opacity="0.3">
          <path id="Path_4170" data-name="Path 4170" d="M57.753,409.416a3.253,3.253,0,0,0-1.214-2.925,8.126,8.126,0,0,1-2.137-2.5c-.663-1.666.23-3.818-.9-5.209-.663-.814-1.858-1.089-2.45-1.96a4.482,4.482,0,0,1-.531-1.56,15.853,15.853,0,0,0-3.939-7.373,13.72,13.72,0,0,0,1.545,7.1,9.061,9.061,0,0,1,1.172,2.7c.249,1.583-.637,3.211-.249,4.764.445,1.775,2.442,2.966,2.537,4.794.079,1.545-1.266,2.9-1.168,4.448a4.214,4.214,0,0,0,.69,1.836,6.136,6.136,0,0,0,5.612,3.309l3.26.117Z" transform="translate(-46.557 -387.89)"/>
        </g>
        <path id="Path_4171" data-name="Path 4171" d="M81.184,398.5a2.637,2.637,0,0,0,.9,0,5.3,5.3,0,0,0,1.059-.268,4.4,4.4,0,0,0,1.308-.716,1.794,1.794,0,0,0,.539-.716,3.415,3.415,0,0,0,.155-.976,10.221,10.221,0,0,1,.075-1.052,2.883,2.883,0,0,1,.4-1.048,8.257,8.257,0,0,0,1.229-2.231,7.655,7.655,0,0,0-.09-2.861,5.991,5.991,0,0,1,.079-3.061c.377-1.018,1.063-1.941,1.421-3.091a15.479,15.479,0,0,0,.264-3.641,4.813,4.813,0,0,1,.426-1.809c.264-.577.629-1.131.916-1.73a12.712,12.712,0,0,0,.837-3.984c.079-.686.158-1.383.234-2.084a10.279,10.279,0,0,1,.377-2.084,18.331,18.331,0,0,1,.776-2.017,6.731,6.731,0,0,0,.377-1.055,10.394,10.394,0,0,0,.106-1.131,13.712,13.712,0,0,0-.087-2.262c-.09-.754-.226-1.508-.305-2.262v-.128l-.019-.151-.132.068a5.065,5.065,0,0,0-1.756,1.481,7.946,7.946,0,0,0-1.078,1.986,23.4,23.4,0,0,0-1.014,4.27,11.651,11.651,0,0,1-1.338,3.943c-.358.58-.792,1.108-1.168,1.677a4.64,4.64,0,0,0-.81,1.858c-.192,1.38.565,2.589.407,3.811a4.207,4.207,0,0,1-.592,1.692c-.3.52-.645,1-.976,1.489a9.75,9.75,0,0,0-.874,1.508,4.757,4.757,0,0,0-.4,1.636c-.079,1.1.075,2.141,0,3.125a7.222,7.222,0,0,1-.829,2.687c-.377.8-.833,1.53-1.2,2.231a11.26,11.26,0,0,0-.494,1.04,4.9,4.9,0,0,0-.286,1.029,6.468,6.468,0,0,0-.026,1.862,4.689,4.689,0,0,0,.935,2.375,2.182,2.182,0,0,0,.264.283,1.253,1.253,0,0,0,.215.185l.185.128a4.079,4.079,0,0,1-.629-.622,4.712,4.712,0,0,1-.886-2.36,6.3,6.3,0,0,1,.041-1.832A5.119,5.119,0,0,1,80,392.685c.139-.339.313-.678.5-1.025.377-.7.814-1.421,1.217-2.228a7.3,7.3,0,0,0,.833-2.725c.087-1.006-.068-2.054,0-3.128A4.617,4.617,0,0,1,82.925,382a9.629,9.629,0,0,1,.863-1.474c.332-.482.682-.969.988-1.508a4.353,4.353,0,0,0,.622-1.76c.158-1.3-.6-2.522-.4-3.8a4.395,4.395,0,0,1,.78-1.775c.377-.558.807-1.086,1.176-1.681a11.847,11.847,0,0,0,1.4-4,24.51,24.51,0,0,1,1.01-4.233,7.84,7.84,0,0,1,1.048-1.937,4.847,4.847,0,0,1,1.681-1.417l-.147-.083v.132c.079.754.215,1.508.305,2.262a13.353,13.353,0,0,1,.087,2.224,10.6,10.6,0,0,1-.1,1.089,6.541,6.541,0,0,1-.377,1.014,18.885,18.885,0,0,0-.788,2.043,10.351,10.351,0,0,0-.377,2.118q-.117,1.052-.23,2.084a12.564,12.564,0,0,1-.818,3.924c-.275.592-.641,1.131-.912,1.734a5.073,5.073,0,0,0-.437,1.885,15.545,15.545,0,0,1-.245,3.6c-.339,1.116-1.052,2.035-1.41,3.087a6.467,6.467,0,0,0-.068,3.136,7.324,7.324,0,0,1,.106,2.8,8.682,8.682,0,0,1-1.2,2.2,2.989,2.989,0,0,0-.4,1.089A9.8,9.8,0,0,0,85,395.832a3.306,3.306,0,0,1-.136.95,1.828,1.828,0,0,1-.509.686,4.59,4.59,0,0,1-1.274.72,5.654,5.654,0,0,1-1.048.283,4.046,4.046,0,0,1-.66.064Z" transform="translate(-67.105 -347.816)" fill="#263238"/>
        <path id="Path_4172" data-name="Path 4172" d="M94.26,363.31a.343.343,0,0,0-.03.1,1.809,1.809,0,0,1-.072.294c-.064.256-.143.645-.264,1.131s-.426,1.029-.678,1.7q-.434,1.138-.754,2.314c-.249.871-.471,1.836-.7,2.868a12.061,12.061,0,0,1-1.044,3.185c-.268.531-.569,1.067-.807,1.651a7.8,7.8,0,0,0-.471,1.885,37.421,37.421,0,0,1-.7,3.943c-.652,2.672-1.278,5.217-1.843,7.538L85.35,396.06c-.43,1.738-.776,3.151-1.025,4.146-.113.479-.2.856-.268,1.131-.026.121-.045.215-.064.294a.3.3,0,0,0,0,.1.411.411,0,0,0,0-.094l.083-.286.305-1.131c.264-.991.633-2.4,1.089-4.127s1-3.841,1.594-6.14,1.2-4.862,1.858-7.538a36.792,36.792,0,0,0,.7-3.961,7.606,7.606,0,0,1,.452-1.824c.23-.569.528-1.1.8-1.64a12.216,12.216,0,0,0,1.04-3.234c.222-1.037.433-2,.671-2.865a22.568,22.568,0,0,1,.754-2.311,14.866,14.866,0,0,0,.648-1.726c.121-.5.173-.878.226-1.131a1.683,1.683,0,0,1,.049-.3A.377.377,0,0,0,94.26,363.31Z" transform="translate(-69.88 -351.038)" fill="#263238"/>
        <path id="Path_4173" data-name="Path 4173" d="M65.963,381.442c2.13-1.266,2.74-5.107,1.851-7.422s-2.442-4.425-2.684-6.89c-.185-1.885.437-3.841,0-5.7-.6-2.5-3.038-4.436-3.015-7,0-1.444.837-2.8.754-4.24-.079-1.768-1.436-3.17-2.262-4.727-1.285-2.382-1.368-5.2-1.809-7.87s-1.455-5.533-3.826-6.845c-.347,2.262-.946,3.822-.754,6.894.068,1.1,1.349,3.215,1.508,5.635.106,1.444.177,2.891.264,4.338a13.575,13.575,0,0,0,.682,4.146c.377,1.01,1.01,1.926,1.3,2.966.539,1.96-.17,4.086.268,6.072.377,1.681,1.534,3.128,1.772,4.836.332,2.4-1.217,4.9-.426,7.161.377,1.131,1.331,2.047,1.594,3.219.2.908,0,1.885.166,2.782.3,1.474,3.106,2.616,4.606,2.525" transform="translate(-51.308 -330.75)" fill="#ffc100"/>
        <path id="Path_4174" data-name="Path 4174" d="M57.844,336.72a.546.546,0,0,0,0,.128l.045.377c.049.328.106.81.215,1.432s.441,1.327.7,2.179.539,1.82.78,2.914.445,2.3.66,3.6a15.039,15.039,0,0,0,1.089,4.074c.3.682.637,1.364.886,2.088a9.2,9.2,0,0,1,.449,2.3,47.078,47.078,0,0,0,.626,4.96l1.839,9.472c.6,2.9,1.131,5.518,1.587,7.719s.825,3.958,1.086,5.2c.128.6.234,1.074.305,1.413.034.151.064.271.083.377a.711.711,0,0,0,.038.124.755.755,0,0,0,0-.128,3.137,3.137,0,0,0-.064-.377c-.064-.339-.155-.814-.268-1.421-.245-1.244-.592-3.015-1.021-5.213s-.961-4.821-1.542-7.727-1.176-6.11-1.821-9.472a46.615,46.615,0,0,1-.626-4.941,9.506,9.506,0,0,0-.467-2.356c-.256-.754-.6-1.425-.9-2.1a15.152,15.152,0,0,1-1.1-4.025c-.219-1.3-.433-2.514-.686-3.607s-.531-2.077-.814-2.921-.6-1.549-.731-2.16-.188-1.1-.253-1.421c-.026-.151-.049-.275-.068-.377a.49.49,0,0,0-.034-.117Z" transform="translate(-53.587 -334.47)" fill="#263238"/>
      </g>
    </g>
    <g id="woman-hair-beauty-salon-svgrepo-com" transform="translate(164.884 267.75)">
      <g id="Group_2679" data-name="Group 2679" transform="translate(9.112 0)">
        <path id="Path_4175" data-name="Path 4175" d="M23.2,8.248s-.081-2.3-.081-2.3C22.667-.149,16.175,0,16.124,0S9.565-.149,9.113,5.96c0,.19-.087,4.682,2.405,6.929a2.989,2.989,0,0,0,2.011.816v.561a13.7,13.7,0,0,0,.34,2.547,14.206,14.206,0,0,0,.179-2.547v-.524c.083,0,.165.006.252.006h.908a1.719,1.719,0,0,0,1.816,0h.908c.093,0,.179,0,.266-.006v.525a13.7,13.7,0,0,0,.34,2.547,14.206,14.206,0,0,0,.179-2.547V13.7a2.982,2.982,0,0,0,2-.815C23.205,10.641,23.2,8.438,23.2,8.248ZM18.991,11.69a8.8,8.8,0,0,1-1.176.885l-.252.169c-.1.07-.2.145-.305.219-.073.054-.143.106-.213.155l-.008.006c-.069.049-.138.094-.208.137a1.231,1.231,0,0,1-1.424,0c-.07-.042-.139-.088-.208-.137l-.008-.006c-.07-.05-.141-.1-.213-.155-.1-.074-.2-.149-.305-.219l-.252-.169a8.817,8.817,0,0,1-1.176-.885c-1.117-1.061-1.262-2.684-1.274-4.166a6.872,6.872,0,0,0,5.316-3.8,11.717,11.717,0,0,1,1.8,1.127,3.118,3.118,0,0,1,1.18,2.44C20.265,8.835,20.167,10.574,18.991,11.69Z" transform="translate(-9.112 0)"/>
      </g>
    </g>
    <path id="Icon_awesome-user" data-name="Icon awesome-user" d="M7,8A4,4,0,1,0,3,4,4,4,0,0,0,7,8Zm2.8,1H9.283a5.443,5.443,0,0,1-4.559,0H4.2a4.2,4.2,0,0,0-4.2,4.2v1.3a1.5,1.5,0,0,0,1.5,1.5H12.507a1.5,1.5,0,0,0,1.5-1.5v-1.3A4.2,4.2,0,0,0,9.805,9.005Z" transform="translate(173.996 294.12)"/>
    <path id="Icon_awesome-user-circle" data-name="Icon awesome-user-circle" d="M7,.562a7,7,0,1,0,7,7A7,7,0,0,0,7,.562ZM7,3.274A2.485,2.485,0,1,1,4.519,5.759,2.485,2.485,0,0,1,7,3.274Zm0,9.715a5.412,5.412,0,0,1-4.137-1.926A3.149,3.149,0,0,1,5.648,9.374a.691.691,0,0,1,.2.031A3.739,3.739,0,0,0,7,9.6,3.725,3.725,0,0,0,8.159,9.4a.691.691,0,0,1,.2-.031,3.149,3.149,0,0,1,2.782,1.689A5.412,5.412,0,0,1,7,12.989Z" transform="translate(173.996 330)"/>
  </g>
</svg>
