<svg xmlns="http://www.w3.org/2000/svg" xmlns:xlink="http://www.w3.org/1999/xlink" width="214.623" height="217.696" viewBox="0 0 214.623 217.696">
  <defs>
    <clipPath id="clip-path">
      <rect width="214.623" height="217.696" fill="none"/>
    </clipPath>
  </defs>
  <g id="Sent_Message-pana" data-name="Sent Message-pana" clip-path="url(#clip-path)">
    <g id="Sent_Message-pana-2" data-name="Sent Message-pana" transform="translate(-37 -33.379)">
      <g id="freepik--background-complete--inject-4" transform="translate(41.191 46.704)">
        <rect id="Rectangle_1569" data-name="Rectangle 1569" width="40.717" height="42.444" transform="translate(55.662 51.565) rotate(180)" fill="#e0e0e0"/>
        <rect id="Rectangle_1570" data-name="Rectangle 1570" width="40.717" height="42.444" transform="translate(58.422 51.565) rotate(180)" fill="#fafafa"/>
        <path id="Path_4658" data-name="Path 4658" d="M82.74,65.74h40.745v42.468H82.74Zm40.721.024H82.769v42.42h40.693Z" transform="translate(-65.049 -56.633)" fill="#e0e0e0"/>
        <rect id="Rectangle_1571" data-name="Rectangle 1571" width="29.771" height="31.034" transform="translate(52.949 45.858) rotate(180)" fill="#fff"/>
        <path id="Path_4659" data-name="Path 4659" d="M156.44,143a4.707,4.707,0,0,0,.737.856c.478.5,1.143,1.177,1.914,1.914s1.435,1.392,1.947,1.861a4.861,4.861,0,0,0,.861.718,4.87,4.87,0,0,0-.732-.852c-.478-.5-1.148-1.182-1.914-1.914s-1.435-1.4-1.947-1.866A4.7,4.7,0,0,0,156.44,143Z" transform="translate(-103.491 -96.932)" fill="#e0e0e0"/>
        <path id="Path_4660" data-name="Path 4660" d="M88.384,142.83a4.6,4.6,0,0,0-.852.737c-.5.478-1.182,1.143-1.914,1.89s-1.4,1.435-1.866,1.947a4.44,4.44,0,0,0-.713.861,4.967,4.967,0,0,0,.847-.732c.478-.478,1.186-1.143,1.914-1.914s1.4-1.435,1.866-1.947A4.454,4.454,0,0,0,88.384,142.83Z" transform="translate(-65.205 -96.843)" fill="#e0e0e0"/>
        <path id="Path_4661" data-name="Path 4661" d="M88.439,72.034a5.085,5.085,0,0,0-.732-.852c-.478-.478-1.143-1.182-1.914-1.914s-1.435-1.4-1.942-1.861a5,5,0,0,0-.861-.718,4.631,4.631,0,0,0,.727.852c.478.5,1.148,1.182,1.914,1.914s1.435,1.4,1.947,1.861A4.454,4.454,0,0,0,88.439,72.034Z" transform="translate(-65.179 -57.129)" fill="#e0e0e0"/>
        <path id="Path_4662" data-name="Path 4662" d="M156.61,72.059a4.786,4.786,0,0,0,.856-.732c.478-.478,1.177-1.143,1.914-1.914s1.392-1.435,1.861-1.942a5.071,5.071,0,0,0,.718-.861,4.386,4.386,0,0,0-.856.761c-.5.478-1.182,1.143-1.914,1.914s-1.4,1.435-1.866,1.947A4.7,4.7,0,0,0,156.61,72.059Z" transform="translate(-103.579 -57.087)" fill="#e0e0e0"/>
        <path id="Path_4663" data-name="Path 4663" d="M94.192,108.51a.957.957,0,0,0,0-.153v-2.1c0-1.473,0-3.612.029-6.324,0-5.435.033-13.18.057-22.451l-.115.115h29.685l-.129-.134v31.034l.115-.115-21.495.057-6.042.033h-.033l6.014.033,21.566.057h.115V77.28H94.02v.115c0,9.3.043,17.069.057,22.523,0,2.7,0,4.837.033,6.3v2.071A.487.487,0,0,0,94.192,108.51Z" transform="translate(-70.932 -62.652)" fill="#e0e0e0"/>
        <rect id="Rectangle_1572" data-name="Rectangle 1572" width="9.932" height="9.932" transform="translate(43.032 35.309) rotate(180)" fill="#ebebeb"/>
        <rect id="Rectangle_1573" data-name="Rectangle 1573" width="49.007" height="92.642" transform="translate(52.524 199.429) rotate(180)" fill="#e0e0e0"/>
        <rect id="Rectangle_1574" data-name="Rectangle 1574" width="49.007" height="92.642" transform="translate(67.062 199.429) rotate(180)" fill="#f5f5f5"/>
        <path id="Path_4664" data-name="Path 4664" d="M91.05,279.08h42.075v14.687H91.05Zm41.549.517H91.567V293.25H132.6Z" transform="translate(-69.383 -167.911)" fill="#e0e0e0"/>
        <path id="Path_4665" data-name="Path 4665" d="M2.368,0H13.6a2.368,2.368,0,0,1,2.368,2.368v.56H0v-.56A2.368,2.368,0,0,1,2.368,0Z" transform="translate(50.395 114.355) rotate(180)" fill="#ebebeb"/>
        <path id="Path_4666" data-name="Path 4666" d="M91.05,318.07h42.075v14.687H91.05Zm41.549.521H91.567V332.24H132.6Z" transform="translate(-69.383 -188.248)" fill="#e0e0e0"/>
        <path id="Path_4667" data-name="Path 4667" d="M2.368,0H13.6a2.368,2.368,0,0,1,2.368,2.368v.56H0v-.56A2.368,2.368,0,0,1,2.368,0Z" transform="translate(50.395 133.008) rotate(180)" fill="#ebebeb"/>
        <path id="Path_4668" data-name="Path 4668" d="M91.05,357.07h42.075v14.682H91.05Zm41.549.517H91.567v13.649H132.6Z" transform="translate(-69.383 -208.591)" fill="#e0e0e0"/>
        <path id="Path_4669" data-name="Path 4669" d="M2.368,0H13.6a2.368,2.368,0,0,1,2.368,2.368v.56H0v-.56A2.368,2.368,0,0,1,2.368,0Z" transform="translate(50.395 151.661) rotate(180)" fill="#ebebeb"/>
        <path id="Path_4670" data-name="Path 4670" d="M91.05,396.06h42.075v14.687H91.05Zm41.549.517H91.567V410.23H132.6Z" transform="translate(-69.383 -228.928)" fill="#e0e0e0"/>
        <path id="Path_4671" data-name="Path 4671" d="M2.368,0H13.6a2.368,2.368,0,0,1,2.368,2.368v.56H0v-.56A2.368,2.368,0,0,1,2.368,0Z" transform="translate(50.395 170.318) rotate(180)" fill="#ebebeb"/>
        <rect id="Rectangle_1575" data-name="Rectangle 1575" width="53.232" height="4.617" transform="translate(69.239 107.935) rotate(180)" fill="#ebebeb"/>
        <rect id="Rectangle_1576" data-name="Rectangle 1576" width="16.007" height="4.617" transform="translate(16.007 107.935) rotate(180)" fill="#e0e0e0"/>
        <rect id="Rectangle_1577" data-name="Rectangle 1577" width="2.574" height="4.731" transform="translate(67.067 204.161) rotate(180)" fill="#e0e0e0"/>
        <rect id="Rectangle_1578" data-name="Rectangle 1578" width="2.574" height="4.731" transform="translate(51.155 204.161) rotate(180)" fill="#e0e0e0"/>
        <rect id="Rectangle_1579" data-name="Rectangle 1579" width="2.574" height="4.731" transform="translate(22.088 204.161) rotate(180)" fill="#e0e0e0"/>
        <rect id="Rectangle_1580" data-name="Rectangle 1580" width="2.574" height="4.731" transform="translate(7.554 204.161) rotate(180)" fill="#e0e0e0"/>
        <rect id="Rectangle_1581" data-name="Rectangle 1581" width="15.538" height="23.049" transform="matrix(0.191, -0.982, 0.982, 0.191, 119.989, 15.253)" fill="#f5f5f5"/>
        <path id="Path_4672" data-name="Path 4672" d="M325.478,51.5a1.573,1.573,0,0,1-.249.163l-.737.431-2.736,1.545-9.09,5.052-.072.043-.057-.067L312.4,58.5l-6.8-8.037L303.577,48q-.344-.416-.545-.675a1.586,1.586,0,0,1-.182-.244,1.87,1.87,0,0,1,.211.22l.579.646,2.091,2.392c1.765,2.062,4.181,4.88,6.846,8a1.947,1.947,0,0,1,.134.158l-.129-.024,9.09-5,2.78-1.454.756-.4A2.039,2.039,0,0,1,325.478,51.5Z" transform="translate(-179.858 -46.9)" fill="#e0e0e0"/>
        <path id="Path_4673" data-name="Path 4673" d="M296.659,70.6c-.038-.048,2.071-1.808,4.707-3.932s4.784-3.827,4.837-3.77-2.071,1.8-4.707,3.932S296.693,70.649,296.659,70.6Z" transform="translate(-176.629 -55.15)" fill="#e0e0e0"/>
        <path id="Path_4674" data-name="Path 4674" d="M332.408,65.57c.053-.029,1.33,2.392,2.87,5.363s2.722,5.435,2.669,5.459-1.33-2.392-2.87-5.363S332.356,65.594,332.408,65.57Z" transform="translate(-195.275 -56.544)" fill="#e0e0e0"/>
        <rect id="Rectangle_1582" data-name="Rectangle 1582" width="18.084" height="12.19" transform="matrix(0.894, -0.449, 0.449, 0.894, 178.064, 28.39)" fill="#f5f5f5"/>
        <path id="Path_4675" data-name="Path 4675" d="M434.38,89.31a1.17,1.17,0,0,1-.077.22c-.062.158-.148.364-.254.622l-.957,2.268-3.215,7.487-.029.062h-.067l-.158-.033L421.554,98.2l-2.445-.545-.66-.153a1.356,1.356,0,0,1-.23-.067,1.228,1.228,0,0,1,.234.033l.67.124,2.454.478,8.08,1.684.163.033-.1.048c1.273-2.913,2.421-5.545,3.263-7.463l1-2.258.282-.608A1.325,1.325,0,0,1,434.38,89.31Z" transform="translate(-240.035 -68.927)" fill="#e0e0e0"/>
        <path id="Path_4676" data-name="Path 4676" d="M429.637,118.8c-.043,0,.421-2.115,1.038-4.7s1.158-4.669,1.2-4.66-.421,2.115-1.038,4.7S429.68,118.826,429.637,118.8Z" transform="translate(-245.988 -79.427)" fill="#e0e0e0"/>
        <path id="Path_4677" data-name="Path 4677" d="M445.4,103.558c0-.043,1.966.837,4.344,1.961s4.306,2.071,4.277,2.11-1.966-.837-4.344-1.961S445.381,103.6,445.4,103.558Z" transform="translate(-254.212 -76.358)" fill="#e0e0e0"/>
        <rect id="Rectangle_1583" data-name="Rectangle 1583" width="9.305" height="13.807" transform="translate(115.154 76.211) rotate(-78.44)" fill="#f5f5f5"/>
        <path id="Path_4678" data-name="Path 4678" d="M303.925,189.97l-.148.1-.445.249-1.636.9-5.463,2.971-.048.024-.034-.038-.077-.1c-1.569-1.914-2.99-3.6-4.023-4.856l-1.21-1.478-.325-.407a.685.685,0,0,1-.105-.148.956.956,0,0,1,.124.134l.344.392,1.239,1.435c1.043,1.249,2.473,2.952,4.052,4.832l.081.1h-.081l5.482-2.937,1.665-.875.454-.234A.785.785,0,0,1,303.925,189.97Z" transform="translate(-173.369 -119.981)" fill="#e0e0e0"/>
        <path id="Path_4679" data-name="Path 4679" d="M286.49,201.284c0-.029,1.253-1.067,2.842-2.325s2.9-2.258,2.923-2.229-1.253,1.067-2.842,2.325S286.514,201.312,286.49,201.284Z" transform="translate(-171.325 -124.957)" fill="#e0e0e0"/>
        <path id="Path_4680" data-name="Path 4680" d="M308,198.41c.029,0,.78,1.435,1.674,3.229s1.6,3.272,1.569,3.287-.785-1.435-1.679-3.229S307.96,198.429,308,198.41Z" transform="translate(-182.543 -125.834)" fill="#e0e0e0"/>
        <path id="Path_4681" data-name="Path 4681" d="M357.95,163.643,379.6,161.16l2.191,14.663-22.461,2.205Z" transform="translate(-208.598 -106.404)" fill="#ebebeb"/>
        <path id="Path_4682" data-name="Path 4682" d="M358,155.727l9.367-9.405a1.186,1.186,0,0,1,1.488-.153l10.8,7.071" transform="translate(-208.624 -98.484)" fill="#e0e0e0"/>
        <path id="Path_4683" data-name="Path 4683" d="M360.84,186.379c-.029,0,1.5-2.1,3.421-4.645s3.5-4.588,3.526-4.564-1.5,2.1-3.421,4.645S360.868,186.4,360.84,186.379Z" transform="translate(-210.105 -114.755)" fill="#e0e0e0"/>
        <path id="Path_4684" data-name="Path 4684" d="M398.688,183.568c-.029.024-1.914-1.65-4.219-3.741S390.316,176,390.34,176s1.914,1.65,4.219,3.741S398.712,183.54,398.688,183.568Z" transform="translate(-225.492 -114.145)" fill="#e0e0e0"/>
        <path id="Path_4685" data-name="Path 4685" d="M359.585,157.947l-.765-6.765,18.954-2.263.976,7.1-8.654,8.5Z" transform="translate(-209.052 -100.02)" fill="#fafafa"/>
        <path id="Path_4686" data-name="Path 4686" d="M359.513,157.812l.206.11.569.34,2.138,1.306,7.654,4.731h-.129l8.64-8.52-.034.105c-.187-1.354-.387-2.775-.584-4.22q-.2-1.435-.4-2.87l.139.105-18.959,2.22.072-.091c.22,2.115.4,3.8.521,4.971q.081.852.129,1.335a1.236,1.236,0,0,0,.029.349.389.389,0,0,1,0,.12.65.65,0,0,1,0-.11l-.048-.335q-.062-.478-.172-1.32c-.139-1.177-.344-2.87-.6-4.99v-.077h.077l18.945-2.311h.124v.12q.191,1.435.4,2.87c.2,1.435.4,2.87.584,4.219v.062l-.048.043-8.669,8.492-.057.053-.067-.043-7.654-4.832-2.1-1.344-.545-.354a1.442,1.442,0,0,1-.163-.134Z" transform="translate(-208.984 -99.884)" fill="#e0e0e0"/>
        <path id="Path_4687" data-name="Path 4687" d="M378.81,156.708c0,.067-2.87.45-6.463.856s-6.482.684-6.487.612,2.87-.45,6.463-.856S378.805,156.636,378.81,156.708Z" transform="translate(-212.724 -104.076)" fill="#e0e0e0"/>
        <path id="Path_4688" data-name="Path 4688" d="M379.24,160.7c0,.072-2.87.454-6.463.861s-6.482.679-6.487.612,2.87-.454,6.463-.861S379.236,160.632,379.24,160.7Z" transform="translate(-212.948 -106.158)" fill="#e0e0e0"/>
        <path id="Path_4689" data-name="Path 4689" d="M379.735,165.31c0,.067-2.87.478-6.463.861s-6.482.679-6.492.612,2.87-.478,6.463-.861S379.725,165.243,379.735,165.31Z" transform="translate(-213.204 -108.564)" fill="#e0e0e0"/>
        <path id="Path_4690" data-name="Path 4690" d="M380.851,169.908c0,.072-2.751.44-6.162.828s-6.186.646-6.219.579,2.751-.44,6.167-.828S380.846,169.841,380.851,169.908Z" transform="translate(-214.085 -110.962)" fill="#e0e0e0"/>
        <path id="Path_4691" data-name="Path 4691" d="M381.563,174.493a4.785,4.785,0,0,1-1.081.215c-.675.1-1.607.22-2.636.349s-1.971.225-2.65.282a4.587,4.587,0,0,1-1.105.033,5.075,5.075,0,0,1,1.086-.21c.675-.1,1.607-.225,2.636-.354s1.971-.22,2.646-.277A4.782,4.782,0,0,1,381.563,174.493Z" transform="translate(-217.017 -113.35)" fill="#e0e0e0"/>
        <path id="Path_4692" data-name="Path 4692" d="M381.985,178.931a4.177,4.177,0,0,1-1.368.273,4.038,4.038,0,0,1-1.4,0,3.827,3.827,0,0,1,1.368-.273A3.909,3.909,0,0,1,381.985,178.931Z" transform="translate(-219.692 -115.641)" fill="#e0e0e0"/>
      </g>
      <g id="freepik--Plant--inject-4" transform="translate(161.915 160.222)">
        <path id="Path_4693" data-name="Path 4693" d="M327.9,379.78a15.333,15.333,0,0,0-5.119-14.505s-1.186-.435-1.086.895c.062.794-.7,1.914-1.335,1.435-1.105-.852-.756-2.579-1.229-3.889-.56-1.531-2.191-2.349-3.684-3a37.958,37.958,0,0,0-8.516-2.913,14.386,14.386,0,0,0-8.822.933q.985,1.976,1.961,3.956a1.388,1.388,0,0,0,1.756.88l3.588-.263c.521-.038,1.191,0,1.344.521s-.507.986-1.062,1.182l-3.76,1.349a12.046,12.046,0,0,0,4.975,4.148,36.027,36.027,0,0,0,6.219,2.119,3.66,3.66,0,0,0,2.057.158c1.1-.354,1.851-1.722,2.995-1.555a4.784,4.784,0,0,1-1.765,3.234c4.435,1.741,7.525,3.87,11.482,5.325" transform="translate(-298.11 -322.339)" fill="#3fc435"/>
        <path id="Path_4694" data-name="Path 4694" d="M344.347,404.859a1.179,1.179,0,0,1-.033-.115,1.8,1.8,0,0,0-.077-.34c-.062-.316-.153-.751-.273-1.311-.23-1.153-.56-2.794-.957-4.817q-.3-1.529-.66-3.349c-.115-.6-.239-1.22-.364-1.856l-.191-.957q-.072-.478-.144-1a31.933,31.933,0,0,0-2.215-8.582,21.4,21.4,0,0,0-5.5-6.9,46.21,46.21,0,0,0-5.841-4.306c-1.746-1.119-3.2-1.957-4.2-2.545l-1.153-.679-.3-.182-.1-.067a.231.231,0,0,1,.11.048l.306.163,1.172.641c1.009.569,2.478,1.392,4.239,2.492a45.712,45.712,0,0,1,5.894,4.306,29.714,29.714,0,0,1,3.038,3.067,17.572,17.572,0,0,1,2.516,3.889,31.61,31.61,0,0,1,2.22,8.645l.139,1,.187.957c.12.636.239,1.258.354,1.856q.337,1.794.631,3.349l.9,4.827c.1.56.182,1,.234,1.316l.057.344A.448.448,0,0,1,344.347,404.859Z" transform="translate(-310.754 -327.731)" fill="#263238"/>
        <path id="Path_4695" data-name="Path 4695" d="M361.861,311.426a2.213,2.213,0,0,1-3.827-.957c-.158-1.689,2.354-2.913,3.578-1.7a40.463,40.463,0,0,0-1.512-14.907,7.8,7.8,0,0,1-1.4,2.722,2.659,2.659,0,0,1-2.77.866c-1.3-.478-1.684-2.272-1.143-3.555a7.817,7.817,0,0,1,2.832-2.99,13.974,13.974,0,0,0-8.673-6.913,26.509,26.509,0,0,0-3.555,7.387,8.849,8.849,0,0,0,1.435,7.8,19.962,19.962,0,0,1,2.344,2.593c.588,1.009.545,2.55-.478,3.1-1.215.636-2.588-.565-3.277-1.756s-1.392-2.646-2.751-2.87a26.341,26.341,0,0,0,12.175,24.178l-.139-.129A37.9,37.9,0,0,0,361.861,311.426Zm-6.219-10.487a6.578,6.578,0,0,1,2.526-1.435.957.957,0,0,1,1.081.287,1.4,1.4,0,0,1,.277,1.129,2.713,2.713,0,0,1-.478,1.1,3.616,3.616,0,0,1-1.435,1.282,2.263,2.263,0,0,1-1.914,0,1.33,1.33,0,0,1-.761-1.072,1.794,1.794,0,0,1,.689-1.287Z" transform="translate(-321.312 -283.99)" fill="#3fc435"/>
        <path id="Path_4696" data-name="Path 4696" d="M367.4,382.394a.615.615,0,0,1,0-.148v-.44c0-.4-.038-.957-.062-1.684-.062-1.474-.143-3.583-.249-6.186-.23-5.224-.6-12.438-1.186-20.4s-1.268-15.151-1.837-20.346c-.278-2.6-.531-4.7-.708-6.152-.081-.718-.148-1.277-.191-1.674a2.856,2.856,0,0,0-.048-.435.48.48,0,0,1,0-.148l.029.144c0,.11.038.254.062.435.057.392.134.957.234,1.665.2,1.435.478,3.55.775,6.147.612,5.2,1.325,12.391,1.914,20.351s.928,15.18,1.124,20.409c.1,2.612.148,4.727.177,6.191v2.119A.963.963,0,0,1,367.4,382.394Z" transform="translate(-332.013 -305.266)" fill="#263238"/>
        <path id="Path_4697" data-name="Path 4697" d="M340.05,426.82l3.818,16.194h20.016l4.229-16.194Z" transform="translate(-319.986 -358.49)" fill="#455a64"/>
        <path id="Path_4698" data-name="Path 4698" d="M353.21,453.56c0,.306,1.545,9.592,1.545,9.592h12.175l1.34-9.592Z" transform="translate(-326.85 -372.438)" fill="#455a64"/>
        <path id="Path_4699" data-name="Path 4699" d="M367.439,460.4c0,.057-4.368.105-9.755.105s-9.755-.048-9.755-.105,4.368-.11,9.755-.11S367.439,460.338,367.439,460.4Z" transform="translate(-324.096 -375.948)" fill="#263238"/>
        <path id="Path_4700" data-name="Path 4700" d="M368.023,446.755c0,.057-5.148.105-11.482.105s-11.482-.048-11.482-.105,5.152-.105,11.482-.105S368.023,446.7,368.023,446.755Z" transform="translate(-322.599 -368.833)" fill="#263238"/>
        <path id="Path_4701" data-name="Path 4701" d="M367.567,451.465c0,.062-4.851.11-10.826.11s-10.831-.048-10.831-.11,4.851-.105,10.831-.105S367.567,451.408,367.567,451.465Z" transform="translate(-323.042 -371.29)" fill="#263238"/>
        <path id="Path_4702" data-name="Path 4702" d="M368.237,456.185c0,.057-4.674.105-10.439.105s-10.439-.048-10.439-.105,4.674-.105,10.439-.105S368.237,456.128,368.237,456.185Z" transform="translate(-323.799 -373.752)" fill="#263238"/>
        <path id="Path_4703" data-name="Path 4703" d="M368.07,442.175c0,.057-5.382.105-12.022.105s-12.017-.048-12.017-.105,5.377-.105,12.017-.105S368.07,442.118,368.07,442.175Z" transform="translate(-322.062 -366.444)" fill="#263238"/>
        <path id="Path_4704" data-name="Path 4704" d="M368.379,438.4c0,.057-5.482.105-12.242.105s-12.247-.048-12.247-.105,5.482-.11,12.247-.11S368.379,438.338,368.379,438.4Z" transform="translate(-321.989 -364.473)" fill="#263238"/>
      </g>
      <g id="freepik--Floor--inject-4" transform="translate(37 250.826)">
        <path id="Path_4705" data-name="Path 4705" d="M240.8,473.5c0,.072-45.63.124-101.9.124S37,473.576,37,473.5s45.62-.124,101.9-.124S240.8,473.437,240.8,473.5Z" transform="translate(-37 -473.38)" fill="#263238"/>
      </g>
      <g id="freepik--Character--inject-4" transform="translate(62.834 72.495)">
        <path id="Path_4706" data-name="Path 4706" d="M231.618,429.872l-1.3,17.194-7.477-.153L221.82,429.02Z" transform="translate(-159.236 -271.91)" fill="#ffbe9d"/>
        <path id="Path_4707" data-name="Path 4707" d="M231.067,461.713v.478s8.4,3.468,8.477,5.066l-16.744-.239.311-5.569A9.568,9.568,0,0,0,231.067,461.713Z" transform="translate(-159.747 -288.826)" fill="#f7b74e"/>
        <path id="Path_4708" data-name="Path 4708" d="M245.5,467.225c-.062,0-.158-.349.034-.742s.531-.541.56-.478-.182.268-.335.593S245.575,467.22,245.5,467.225Z" transform="translate(-171.547 -291.195)" fill="#263238"/>
        <path id="Path_4709" data-name="Path 4709" d="M226.4,465.245a.694.694,0,0,0-.478.775.665.665,0,0,0,.765.478.727.727,0,0,0,.507-.823.679.679,0,0,0-.847-.421" transform="translate(-161.369 -290.794)" fill="#fff"/>
        <path id="Path_4710" data-name="Path 4710" d="M238.516,463.068c0,.081-.411.115-.818.373s-.627.593-.7.56.053-.5.55-.8S238.535,463,238.516,463.068Z" transform="translate(-167.143 -289.63)" fill="#263238"/>
        <path id="Path_4711" data-name="Path 4711" d="M242.614,464.686c0,.081-.335.215-.617.555s-.368.708-.45.7-.129-.478.23-.885S242.614,464.609,242.614,464.686Z" transform="translate(-169.495 -290.498)" fill="#263238"/>
        <path id="Path_4712" data-name="Path 4712" d="M222.8,471.778l.072-1.268,16.151.713a1.4,1.4,0,0,1,.512.808Z" transform="translate(-159.747 -293.552)" fill="#263238"/>
        <path id="Path_4713" data-name="Path 4713" d="M324.23,109.3s3.134-3.1,3.966-3.617,1.856-1.694,2.5-1.961a19.056,19.056,0,0,0,2.138-1.292l1.273-1.574s.957-.1.746.957l2.368-.478s.636.55-.373,1.2a2.392,2.392,0,0,1-1.722.478l-1,1.11.172.584,5.741.751a1.072,1.072,0,0,1-1.057.957c-.957,0-4.42-.148-4.42-.148l5.339,2.014s.282.818-1.387.579a38.528,38.528,0,0,1-4.334-1.057l-.478.421,1.459.852,1.363,1.761a1.478,1.478,0,0,1-1.727-.387l-.88-.861h-1.277s-3.473,2.426-4.636,1.861l-.986.99Z" transform="translate(-212.653 -100.74)" fill="#ffbe9d"/>
        <path id="Path_4714" data-name="Path 4714" d="M343.966,109.72a1.3,1.3,0,0,1,.2.6,3.224,3.224,0,0,1-.115,1.526,2.392,2.392,0,0,1-.919,1.229c-.321.23-.555.3-.569.273s.182-.158.478-.411a2.612,2.612,0,0,0,.789-1.167A6.966,6.966,0,0,0,343.966,109.72Z" transform="translate(-222.213 -105.364)" fill="#eb996e"/>
        <path id="Path_4715" data-name="Path 4715" d="M335.28,109.066a3.086,3.086,0,0,0,1.435-.56,3.913,3.913,0,0,0,1.1-1.316,11,11,0,0,0,.785-2.081v-.029l.029-.029a5.932,5.932,0,0,0,1.579-2.167,4.825,4.825,0,0,0,.335-1.32.737.737,0,0,0-.163-.536.684.684,0,0,0-.478-.177l.086-.053a10.8,10.8,0,0,1-2.813,2.923,7.645,7.645,0,0,1-1,.6,1.592,1.592,0,0,1-.392.158c0-.033.521-.277,1.311-.875a11.408,11.408,0,0,0,2.7-2.933l.034-.053h.057a.89.89,0,0,1,.684.244.957.957,0,0,1,.234.713,4.85,4.85,0,0,1-.349,1.407,6.075,6.075,0,0,1-1.665,2.258l.043-.057a10.786,10.786,0,0,1-.837,2.1,3.828,3.828,0,0,1-1.191,1.34,2.488,2.488,0,0,1-1.086.435A1,1,0,0,1,335.28,109.066Z" transform="translate(-218.416 -100.614)" fill="#eb996e"/>
        <path id="Path_4716" data-name="Path 4716" d="M235.54,140.354l22.844-9.678L278.1,116.41l3.99,4.239s-13.816,14.39-17.414,17.328-23.035,15.309-23.035,15.309Z" transform="translate(-166.392 -108.853)" fill="#f7b74e"/>
        <path id="Path_4717" data-name="Path 4717" d="M260.768,172.488a2.947,2.947,0,0,0-1.751.134c-.182.091-.368.292-.268.478.062.11.21.139.335.163,2.268.349,4.306,1.029,6.568,1.383l.383-.163A16.925,16.925,0,0,0,260.768,172.488Z" transform="translate(-178.483 -138.065)" fill="#fafafa"/>
        <path id="Path_4718" data-name="Path 4718" d="M271.346,166.107a18.038,18.038,0,0,0,1.435,3.244l.225-.129a17.5,17.5,0,0,0-.2-3.43,5.453,5.453,0,0,0-1.34-2.961A5.262,5.262,0,0,0,271.346,166.107Z" transform="translate(-184.961 -133.066)" fill="#fafafa"/>
        <path id="Path_4719" data-name="Path 4719" d="M277.8,165.228c-.478,1.335-.933,2.617-1.435,3.952l.957-.981a13.686,13.686,0,0,0,2.1-3.7,1.2,1.2,0,0,0,.081-.478.478.478,0,0,0-.268-.4.574.574,0,0,0-.521.124A3.038,3.038,0,0,0,277.8,165.228Z" transform="translate(-187.684 -133.469)" fill="#fafafa"/>
        <path id="Path_4720" data-name="Path 4720" d="M307.575,132.648a2.593,2.593,0,0,0,1.483-.478c.139-.115.258-.335.134-.478a.387.387,0,0,0-.325-.072c-2.033.182-3.937.029-5.97.211l-.3.22A14.9,14.9,0,0,0,307.575,132.648Z" transform="translate(-201.37 -116.781)" fill="#fafafa"/>
        <path id="Path_4721" data-name="Path 4721" d="M303.881,135.4a15.89,15.89,0,0,0-1.914-2.5l-.167.163a15.63,15.63,0,0,0,.909,2.918,4.818,4.818,0,0,0,1.794,2.272,4.674,4.674,0,0,0-.622-2.851Z" transform="translate(-200.953 -117.455)" fill="#fafafa"/>
        <path id="Path_4722" data-name="Path 4722" d="M298.633,138.062c.129-1.253.249-2.459.378-3.712l-.6,1.043a12.29,12.29,0,0,0-1.024,3.655,1.071,1.071,0,0,0,.033.445.416.416,0,0,0,.321.287.507.507,0,0,0,.421-.22A2.693,2.693,0,0,0,298.633,138.062Z" transform="translate(-198.647 -118.211)" fill="#fafafa"/>
        <path id="Path_4723" data-name="Path 4723" d="M118.164,365.492l-17.3,5.679-2.87-7.358,17.05-8.233Z" transform="translate(-94.646 -233.604)" fill="#ffbe9d"/>
        <path id="Path_4724" data-name="Path 4724" d="M99.52,378.154l-.478.2s0,9.6-1.521,10.319L91,372.232l5.559-1.952A10.128,10.128,0,0,0,99.52,378.154Z" transform="translate(-91 -241.272)" fill="#f7b74e"/>
        <path id="Path_4725" data-name="Path 4725" d="M98.953,374.919a.722.722,0,0,0-.957-.163.7.7,0,0,0-.167.957.765.765,0,0,0,1.009.163.727.727,0,0,0,.067-1" transform="translate(-94.499 -243.547)" fill="#fff"/>
        <path id="Path_4726" data-name="Path 4726" d="M91,373.838l1.34-.478,5.741,15.926s0,.861-.574.981Z" transform="translate(-91 -242.878)" fill="#263238"/>
        <path id="Path_4727" data-name="Path 4727" d="M106.076,386.031c-.081.029-.277-.359-.694-.651s-.832-.368-.832-.455.512-.153,1.009.211S106.157,386.017,106.076,386.031Z" transform="translate(-98.068 -248.876)" fill="#263238"/>
        <path id="Path_4728" data-name="Path 4728" d="M105.869,390.705c-.072.048-.344-.244-.794-.383s-.837-.077-.866-.158.407-.311.957-.129S105.945,390.672,105.869,390.705Z" transform="translate(-97.889 -251.541)" fill="#263238"/>
        <path id="Path_4729" data-name="Path 4729" d="M104.175,394.933c-.048-.067.311-.34.832-.306s.847.335.789.4-.378-.077-.809-.1S104.214,395.01,104.175,394.933Z" transform="translate(-97.87 -253.97)" fill="#263238"/>
        <path id="Path_4730" data-name="Path 4730" d="M170.3,267.31S157.61,293.143,154.2,295.129s-42.626,15.945-42.626,15.945l-3.019-9.319,35.493-18.744s4.636-12.639,6.363-22.241c1.057-5.884,3.483-9.334,6.97-13.917a23.385,23.385,0,0,1,3.794-4.023l15.945,3.019Z" transform="translate(-100.159 -174.794)" fill="#ff8bf0"/>
        <path id="Path_4731" data-name="Path 4731" d="M238.6,247.69l-17.122-2.87L218,264.951l3.478,42.276s-2.392,14.7-1.985,24.365c.368,9.118.722,12.558.722,12.558s7.363.034,9.037.034c.7,0,6.994-45.759,6.994-45.759Z" transform="translate(-157.243 -175.832)" fill="#ff8bf0"/>
        <path id="Path_4732" data-name="Path 4732" d="M230.17,273.9a2.267,2.267,0,0,1-.115.3c-.091.215-.211.478-.364.842l-1.354,3.076c-1.139,2.626-2.693,6.219-4.406,10.18s-3.454,7.506-4.784,10.018c-.665,1.253-1.215,2.263-1.617,2.952l-.478.789a1.56,1.56,0,0,1-.172.268,1.435,1.435,0,0,1,.129-.292c.11-.206.249-.478.421-.813l1.54-2.985c1.282-2.531,2.971-6.071,4.707-10.046s3.306-7.54,4.5-10.142c.593-1.292,1.081-2.335,1.435-3.047l.407-.818A1.312,1.312,0,0,1,230.17,273.9Z" transform="translate(-156.659 -191)" fill="#455a64"/>
        <path id="Path_4733" data-name="Path 4733" d="M111.308,369.978c.029.062-.191.225-.478.368s-.56.211-.593.148.191-.23.478-.373S111.275,369.926,111.308,369.978Z" transform="translate(-101.032 -241.104)" fill="#455a64"/>
        <path id="Path_4734" data-name="Path 4734" d="M119.1,365.69c.033.062-.426.344-1.014.631a2.946,2.946,0,0,1-1.124.407c-.033-.062.426-.344,1.014-.631A2.946,2.946,0,0,1,119.1,365.69Z" transform="translate(-104.539 -238.878)" fill="#455a64"/>
        <path id="Path_4735" data-name="Path 4735" d="M128.047,361.33c.034.062-.426.344-1.014.636a3.008,3.008,0,0,1-1.124.411c-.033-.062.426-.349,1.014-.636A3.01,3.01,0,0,1,128.047,361.33Z" transform="translate(-109.207 -236.603)" fill="#455a64"/>
        <path id="Path_4736" data-name="Path 4736" d="M136.974,357a5.861,5.861,0,0,1-2.134,1.052A5.578,5.578,0,0,1,136.974,357Z" transform="translate(-113.867 -234.345)" fill="#455a64"/>
        <path id="Path_4737" data-name="Path 4737" d="M145.877,352.52c.033.062-.421.349-1.009.646a2.937,2.937,0,0,1-1.119.416c-.033-.062.421-.349,1.009-.641A3,3,0,0,1,145.877,352.52Z" transform="translate(-118.512 -232.008)" fill="#455a64"/>
        <path id="Path_4738" data-name="Path 4738" d="M154.774,348.05c.033.062-.421.349-1,.646a2.933,2.933,0,0,1-1.119.426,3.01,3.01,0,0,1,1-.646A2.961,2.961,0,0,1,154.774,348.05Z" transform="translate(-123.157 -229.677)" fill="#455a64"/>
        <path id="Path_4739" data-name="Path 4739" d="M163.689,343.5a5.741,5.741,0,0,1-2.119,1.1,2.947,2.947,0,0,1,1-.66,3.054,3.054,0,0,1,1.119-.435Z" transform="translate(-127.809 -227.303)" fill="#455a64"/>
        <path id="Path_4740" data-name="Path 4740" d="M172.455,338.85c.033.062-.411.359-.99.67a2.894,2.894,0,0,1-1.105.45,3.023,3.023,0,0,1,.99-.67A2.894,2.894,0,0,1,172.455,338.85Z" transform="translate(-132.394 -224.878)" fill="#455a64"/>
        <path id="Path_4741" data-name="Path 4741" d="M181.172,334c.034.057-.4.373-.957.7a2.87,2.87,0,0,1-1.1.478,3.053,3.053,0,0,1,.957-.7,2.823,2.823,0,0,1,1.1-.478Z" transform="translate(-136.963 -222.348)" fill="#455a64"/>
        <path id="Path_4742" data-name="Path 4742" d="M188.143,326.56a3.347,3.347,0,0,1-.081,1.186,4.316,4.316,0,0,0-.048.445.747.747,0,0,0,0,.1.239.239,0,0,1-.038.148.759.759,0,0,1-.129.158c-.172.153-.3.2-.321.177s.067-.129.187-.3a.511.511,0,0,0,.077-.129.1.1,0,0,0,0-.038.339.339,0,0,1,0-.11,2.694,2.694,0,0,1,0-.478,2.641,2.641,0,0,1,.354-1.158Z" transform="translate(-141.346 -218.467)" fill="#455a64"/>
        <path id="Path_4743" data-name="Path 4743" d="M190.493,316.88a2.977,2.977,0,0,1-.167,1.186,2.933,2.933,0,0,1-.411,1.124,2.99,2.99,0,0,1,.167-1.186A3.023,3.023,0,0,1,190.493,316.88Z" transform="translate(-142.59 -213.418)" fill="#455a64"/>
        <path id="Path_4744" data-name="Path 4744" d="M193,307.27a5.861,5.861,0,0,1-.617,2.3,2.871,2.871,0,0,1,.187-1.182A2.957,2.957,0,0,1,193,307.27Z" transform="translate(-143.88 -208.406)" fill="#455a64"/>
        <path id="Path_4745" data-name="Path 4745" d="M195.644,297.68a5.635,5.635,0,0,1-.646,2.292,2.928,2.928,0,0,1,.2-1.177A2.976,2.976,0,0,1,195.644,297.68Z" transform="translate(-145.244 -203.404)" fill="#455a64"/>
        <path id="Path_4746" data-name="Path 4746" d="M198.385,288.12a2.9,2.9,0,0,1-.215,1.177,2.981,2.981,0,0,1-.45,1.11A5.612,5.612,0,0,1,198.385,288.12Z" transform="translate(-146.665 -198.417)" fill="#455a64"/>
        <path id="Path_4747" data-name="Path 4747" d="M201.238,278.59a5.775,5.775,0,0,1-.7,2.277,2.957,2.957,0,0,1,.23-1.177,2.914,2.914,0,0,1,.469-1.1Z" transform="translate(-148.136 -193.446)" fill="#455a64"/>
        <path id="Path_4748" data-name="Path 4748" d="M204.376,269.22a4.613,4.613,0,0,1-.344,1.143,2.9,2.9,0,0,1-.521,1.072,3.057,3.057,0,0,1,.292-1.167,2.167,2.167,0,0,1,.574-1.048Z" transform="translate(-149.685 -188.559)" fill="#455a64"/>
        <path id="Path_4749" data-name="Path 4749" d="M209.22,260.837a2.923,2.923,0,0,1-.565,1.057c-.368.541-.718.957-.775.914a2.928,2.928,0,0,1,.569-1.057C208.818,261.21,209.167,260.8,209.22,260.837Z" transform="translate(-151.965 -184.185)" fill="#455a64"/>
        <path id="Path_4750" data-name="Path 4750" d="M215,252.8c.057.043-.215.478-.608,1.029s-.751.923-.809.885a2.976,2.976,0,0,1,.608-1.033C214.58,253.151,214.943,252.753,215,252.8Z" transform="translate(-154.938 -179.991)" fill="#455a64"/>
        <path id="Path_4751" data-name="Path 4751" d="M220.255,246.843c.053.043-.067.287-.268.55s-.407.435-.478.4.067-.287.268-.55S220.212,246.8,220.255,246.843Z" transform="translate(-158.02 -176.884)" fill="#455a64"/>
        <path id="Path_4752" data-name="Path 4752" d="M225.128,319.531c-.067,0-.144-.254-.167-.584s0-.6.077-.608.144.258.167.588S225.2,319.526,225.128,319.531Z" transform="translate(-160.869 -214.18)" fill="#455a64"/>
        <path id="Path_4753" data-name="Path 4753" d="M225.813,328.469a3.258,3.258,0,0,1-.215-1.225,3.057,3.057,0,0,1,.034-1.244,3.258,3.258,0,0,1,.215,1.225A3.157,3.157,0,0,1,225.813,328.469Z" transform="translate(-161.181 -218.175)" fill="#455a64"/>
        <path id="Path_4754" data-name="Path 4754" d="M226.523,338.8a3.133,3.133,0,0,1-.206-1.229,3.205,3.205,0,0,1,.048-1.244,3.239,3.239,0,0,1,.2,1.229A3.277,3.277,0,0,1,226.523,338.8Z" transform="translate(-161.561 -223.563)" fill="#455a64"/>
        <path id="Path_4755" data-name="Path 4755" d="M227.06,349.133a3.1,3.1,0,0,1-.177-1.229,3.037,3.037,0,0,1,.072-1.244,6.219,6.219,0,0,1,.105,2.473Z" transform="translate(-161.859 -228.952)" fill="#455a64"/>
        <path id="Path_4756" data-name="Path 4756" d="M227.352,359.478a3.23,3.23,0,0,1-.144-1.239,3.167,3.167,0,0,1,.105-1.239A6.22,6.22,0,0,1,227.352,359.478Z" transform="translate(-162.035 -234.345)" fill="#455a64"/>
        <path id="Path_4757" data-name="Path 4757" d="M227.325,369.828a3.291,3.291,0,0,1-.105-1.244,3.11,3.11,0,0,1,.144-1.234,3.238,3.238,0,0,1,.105,1.239A3.124,3.124,0,0,1,227.325,369.828Z" transform="translate(-162.042 -239.743)" fill="#455a64"/>
        <path id="Path_4758" data-name="Path 4758" d="M226.944,380.178a3.158,3.158,0,0,1-.062-1.244,3.2,3.2,0,0,1,.182-1.234,3.2,3.2,0,0,1,.067,1.244A3.248,3.248,0,0,1,226.944,380.178Z" transform="translate(-161.858 -245.142)" fill="#455a64"/>
        <path id="Path_4759" data-name="Path 4759" d="M226.269,390.513a6.339,6.339,0,0,1,.187-2.473,3.067,3.067,0,0,1,.034,1.244A3.244,3.244,0,0,1,226.269,390.513Z" transform="translate(-161.532 -250.535)" fill="#455a64"/>
        <path id="Path_4760" data-name="Path 4760" d="M225.382,400.834a3.114,3.114,0,0,1,0-1.244,3.166,3.166,0,0,1,.23-1.22,3.225,3.225,0,0,1,0,1.244A3.167,3.167,0,0,1,225.382,400.834Z" transform="translate(-161.061 -255.923)" fill="#455a64"/>
        <path id="Path_4761" data-name="Path 4761" d="M224.548,411.153a3.229,3.229,0,0,1-.029-1.244,3.186,3.186,0,0,1,.215-1.229,3.316,3.316,0,0,1,.034,1.249A3.123,3.123,0,0,1,224.548,411.153Z" transform="translate(-160.619 -261.301)" fill="#455a64"/>
        <path id="Path_4762" data-name="Path 4762" d="M223.964,421.493a3.3,3.3,0,0,1-.067-1.244,3.239,3.239,0,0,1,.182-1.229,3.162,3.162,0,0,1,.067,1.239A3.091,3.091,0,0,1,223.964,421.493Z" transform="translate(-160.303 -266.694)" fill="#455a64"/>
        <path id="Path_4763" data-name="Path 4763" d="M223.841,431.843a3.076,3.076,0,0,1-.129-1.239,3.253,3.253,0,0,1,.115-1.244,3.167,3.167,0,0,1,.134,1.239A3.349,3.349,0,0,1,223.841,431.843Z" transform="translate(-160.214 -272.088)" fill="#455a64"/>
        <path id="Path_4764" data-name="Path 4764" d="M224.262,442.189a3.177,3.177,0,0,1-.215-1.225,3.042,3.042,0,0,1,.034-1.244A6.219,6.219,0,0,1,224.262,442.189Z" transform="translate(-160.372 -277.492)" fill="#455a64"/>
        <path id="Path_4765" data-name="Path 4765" d="M225.268,451.231c-.067,0-.163-.244-.211-.574s-.038-.6.034-.608.163.249.211.574S225.335,451.222,225.268,451.231Z" transform="translate(-160.909 -282.879)" fill="#455a64"/>
        <path id="Path_4766" data-name="Path 4766" d="M223.874,251a1.952,1.952,0,0,1-.258.478,13.46,13.46,0,0,1-.852,1.22,11.166,11.166,0,0,1-3.736,3.177,7.382,7.382,0,0,1-4.837.636,5.26,5.26,0,0,1-1.4-.526,1.756,1.756,0,0,1-.45-.306,8.893,8.893,0,0,0,1.89.66,7.516,7.516,0,0,0,4.688-.689,11.864,11.864,0,0,0,3.708-3.062C223.425,251.641,223.841,251,223.874,251Z" transform="translate(-154.291 -179.055)" fill="#455a64"/>
        <path id="Path_4767" data-name="Path 4767" d="M250.367,251.64a5.84,5.84,0,0,1-.211,1.368,19.883,19.883,0,0,1-1.024,3.191,19.521,19.521,0,0,1-1.555,2.971,5.963,5.963,0,0,1-.828,1.115,10.366,10.366,0,0,1,.675-1.206,25.7,25.7,0,0,0,2.559-6.114,10.922,10.922,0,0,1,.383-1.325Z" transform="translate(-172.239 -179.389)" fill="#455a64"/>
        <path id="Path_4768" data-name="Path 4768" d="M249.247,252.456c0,.038-.23.057-.387.34a.6.6,0,0,0-.048.478.541.541,0,0,0,.957,0,.613.613,0,0,0-.053-.478c-.158-.277-.4-.3-.388-.335s.057-.033.163,0a.665.665,0,0,1,.373.254.77.77,0,0,1,.124.67.733.733,0,1,1-1.277-.67.655.655,0,0,1,.368-.258C249.2,252.422,249.247,252.441,249.247,252.456Z" transform="translate(-173.181 -179.803)" fill="#455a64"/>
        <path id="Path_4769" data-name="Path 4769" d="M173.341,121.462a6.564,6.564,0,0,0-8.774,2.961c-.761,1.536-.957,3.392-2.091,4.664-1.029,1.134-2.6,1.55-4.052,2.043s-2.99,1.249-3.559,2.674c-.478,1.215-.158,2.708-.9,3.784s-2.282,1.282-3.612,1.368a1.435,1.435,0,0,0,1.311,1.091,5.349,5.349,0,0,1-3.215.689,4.864,4.864,0,0,0,3.349,3.349,13.145,13.145,0,0,0,4.913.4c1.871-.115,3.87-.378,5.262-1.627,1.679-1.5,2.21-4.219,4.272-5.138,1.052-.478,2.3-.344,3.349-.832a4.716,4.716,0,0,0,2.311-3.928c.158-1.583-.1-3.181,0-4.784a4.9,4.9,0,0,1,2.115-4.062Z" transform="translate(-120.966 -111.136)" fill="#263238"/>
        <path id="Path_4770" data-name="Path 4770" d="M197.946,120.521c.139-.306-.215-.655-.555-.641a1.359,1.359,0,0,0-.847.512,5.808,5.808,0,0,0-1.583,3.22,4,4,0,0,0,1.124,3.349,1.091,1.091,0,0,0,.718.364.875.875,0,0,0,.7-.44,2.392,2.392,0,0,0,.277-.813,22.3,22.3,0,0,0,.411-5.612Z" transform="translate(-145.207 -110.663)" fill="#82b5ef"/>
        <path id="Path_4771" data-name="Path 4771" d="M198.2,119.322c0-3.421.55-7.052,2.756-9.659a14.176,14.176,0,0,1,8.3-4.306,10.812,10.812,0,0,1,4.7.555c1.957.632,3.11,2.488,4.334,4.143,2.449,3.311,3.253,8.31,2.392,9.922L207.05,131.2c-3-.852-6.344-2.162-7.654-4.985A17.8,17.8,0,0,1,198.2,119.322Z" transform="translate(-146.915 -103.058)" fill="#263238"/>
        <path id="Path_4772" data-name="Path 4772" d="M206.4,115.124l9.042-4.827c3-1.091,6,2.205,6.961,5.262A56.732,56.732,0,0,1,224.88,125.8c.478,5.368-3.349,7-3.349,7h0l1.847,6.066,2.119,6.745-13.725-8.133-6.549-20.117A1.875,1.875,0,0,1,206.4,115.124Z" transform="translate(-150.546 -105.554)" fill="#ffbe9d"/>
        <path id="Path_4773" data-name="Path 4773" d="M239.463,128.345a.679.679,0,0,1-.478.828.646.646,0,0,1-.828-.431.684.684,0,0,1,.478-.828.651.651,0,0,1,.828.431Z" transform="translate(-167.746 -114.837)" fill="#263238"/>
        <path id="Path_4774" data-name="Path 4774" d="M237.4,124.985c-.048.115-.665-.062-1.354.2s-1.067.789-1.172.732,0-.206.134-.45a1.914,1.914,0,0,1,.9-.689,1.789,1.789,0,0,1,1.119-.048C237.3,124.822,237.423,124.937,237.4,124.985Z" transform="translate(-166.022 -113.156)" fill="#263238"/>
        <path id="Path_4775" data-name="Path 4775" d="M225.858,132.316a.684.684,0,0,1-.478.828.655.655,0,0,1-.832-.431.684.684,0,0,1,.478-.828.66.66,0,0,1,.832.431Z" transform="translate(-160.647 -116.909)" fill="#263238"/>
        <path id="Path_4776" data-name="Path 4776" d="M223.039,129.247c-.057.105-.655-.139-1.363.038s-1.148.665-1.249.593,0-.206.187-.426a1.851,1.851,0,0,1,.957-.584,1.78,1.78,0,0,1,1.115.077C222.957,129.061,223.072,129.2,223.039,129.247Z" transform="translate(-158.488 -115.323)" fill="#263238"/>
        <path id="Path_4777" data-name="Path 4777" d="M232.04,133.793a4.923,4.923,0,0,1,1.105-.478c.182-.067.344-.144.344-.277a.928.928,0,0,0-.258-.507c-.277-.4-.574-.818-.88-1.253a23.017,23.017,0,0,1-2.1-3.349,23.2,23.2,0,0,1,2.368,3.153l.861,1.263a1.105,1.105,0,0,1,.273.694.478.478,0,0,1-.234.34,1.284,1.284,0,0,1-.3.12A4.784,4.784,0,0,1,232.04,133.793Z" transform="translate(-163.628 -114.86)" fill="#263238"/>
        <path id="Path_4778" data-name="Path 4778" d="M231.367,157.429A13.549,13.549,0,0,1,224,157.3s2.708,3.153,7.76,1.387Z" transform="translate(-160.373 -130.182)" fill="#eb996e"/>
        <path id="Path_4779" data-name="Path 4779" d="M229.718,143.285a1.177,1.177,0,0,1,.823-.756,1.54,1.54,0,0,1,1.521.34.957.957,0,0,1,.23.651c-.024.129,0,.062-.067.163a2.655,2.655,0,0,1-.9.923,1.148,1.148,0,0,1-1.287-.144A1.167,1.167,0,0,1,229.718,143.285Z" transform="translate(-163.33 -122.439)" fill="#eb996e"/>
        <path id="Path_4780" data-name="Path 4780" d="M229.816,142.309c.115-.038.306.737,1.105,1.124s1.6.1,1.636.2-.148.2-.478.292a2,2,0,0,1-1.354-.124,1.737,1.737,0,0,1-.875-.957C229.725,142.529,229.763,142.318,229.816,142.309Z" transform="translate(-163.38 -122.361)" fill="#263238"/>
        <path id="Path_4781" data-name="Path 4781" d="M222.014,125.7c0,.215-.756.3-1.569.608s-1.435.7-1.584.555c-.072-.072,0-.282.23-.536a2.775,2.775,0,0,1,1.1-.722,2.842,2.842,0,0,1,1.306-.163C221.827,125.5,222.023,125.618,222.014,125.7Z" transform="translate(-157.678 -113.555)" fill="#263238"/>
        <path id="Path_4782" data-name="Path 4782" d="M235.933,121c-.086.191-.617.144-1.21.282s-1.062.378-1.22.239c-.072-.072-.034-.254.148-.478a1.708,1.708,0,0,1,.914-.507,1.689,1.689,0,0,1,1.043.086C235.861,120.76,235.971,120.909,235.933,121Z" transform="translate(-165.312 -110.984)" fill="#263238"/>
        <path id="Path_4783" data-name="Path 4783" d="M208.663,137.775c-.081,0-3.1-.234-2.392,2.65a2.234,2.234,0,0,0,3.449,1.483C209.706,141.827,208.663,137.775,208.663,137.775Z" transform="translate(-151.069 -119.995)" fill="#ffbe9d"/>
        <path id="Path_4784" data-name="Path 4784" d="M209.448,142.256a1.157,1.157,0,0,1-.12.11.512.512,0,0,1-.373.1c-.33-.033-.708-.454-.852-.957a1.708,1.708,0,0,1-.038-.756.593.593,0,0,1,.282-.478.268.268,0,0,1,.33.062c.057.072.053.134.072.134s.048-.062,0-.177a.34.34,0,0,0-.158-.148.373.373,0,0,0-.3,0,.718.718,0,0,0-.411.579,1.765,1.765,0,0,0,0,.847,1.354,1.354,0,0,0,1.043,1.062.569.569,0,0,0,.44-.191C209.458,142.328,209.458,142.261,209.448,142.256Z" transform="translate(-151.94 -121.218)" fill="#eb996e"/>
        <path id="Path_4785" data-name="Path 4785" d="M209.644,146.652a.478.478,0,0,0,0,.407.555.555,0,0,0,.3.359.622.622,0,0,0,.564-.1.593.593,0,0,0,.287-.478.622.622,0,0,0-.187-.426c-.2-.187-.383-.163-.378-.148a.826.826,0,0,1,.3.22.564.564,0,0,1,.124.354.478.478,0,0,1-.234.368.507.507,0,0,1-.431.091.478.478,0,0,1-.249-.268A1.692,1.692,0,0,1,209.644,146.652Z" transform="translate(-152.862 -124.423)" fill="#fafafa"/>
        <path id="Path_4786" data-name="Path 4786" d="M230.629,113.761a4.669,4.669,0,0,0-2.392-1.435c-.909-.263-1.861-.387-2.77-.66a8.908,8.908,0,0,1-5.047-3.923,5.358,5.358,0,0,1,4.64-1.048,7.238,7.238,0,0,1,4.023,2.684,11.366,11.366,0,0,1,2.009,4.468" transform="translate(-158.505 -103.707)" fill="#263238"/>
        <path id="Path_4787" data-name="Path 4787" d="M204.618,114.051c1.646-2.54,5.411-4.631,8.425-4.349.172,2.531-1,5.7-2.172,7.956s-1.363,5.789-5.167,5.521c-.263,0-.478.273-.742.2a.957.957,0,0,1-.478-.454A8.52,8.52,0,0,1,204.618,114.051Z" transform="translate(-149.578 -105.341)" fill="#263238"/>
        <path id="Path_4788" data-name="Path 4788" d="M215.98,110.13a3.029,3.029,0,0,1-.038.665c-.048.426-.115,1.038-.22,1.8a32.536,32.536,0,0,1-1.287,5.851,17.7,17.7,0,0,1-1.335,3.028,4.583,4.583,0,0,1-1.784,2.028,1.914,1.914,0,0,1-1.808,0,1.225,1.225,0,0,1-.378-.33c-.067-.1-.091-.153-.081-.158a1.7,1.7,0,0,0,2.186.344,4.554,4.554,0,0,0,1.665-1.985,18.912,18.912,0,0,0,1.3-3,38.529,38.529,0,0,0,1.349-5.8c.115-.718.215-1.316.3-1.784A3.823,3.823,0,0,1,215.98,110.13Z" transform="translate(-152.573 -105.578)" fill="#263238"/>
        <path id="Path_4789" data-name="Path 4789" d="M157.471,135.8a1.049,1.049,0,0,1-.067-.3,2.717,2.717,0,0,1,.048-.866,3.263,3.263,0,0,1,.579-1.253,3.181,3.181,0,0,1,1.459-1.1,3.9,3.9,0,0,1,2.21,0,3.971,3.971,0,0,0,2.392,0,3.923,3.923,0,0,0,1.914-1.832,8.306,8.306,0,0,0,.847-2.8,22.223,22.223,0,0,1,.574-2.942,6.98,6.98,0,0,1,1.33-2.469,6.9,6.9,0,0,1,7.2-2.234,6.4,6.4,0,0,1,.813.3,1.488,1.488,0,0,1,.268.144c0,.024-.383-.167-1.11-.344a7,7,0,0,0-3.11-.067,6.765,6.765,0,0,0-3.889,2.354,6.841,6.841,0,0,0-1.277,2.392,22.962,22.962,0,0,0-.555,2.913,8.492,8.492,0,0,1-.88,2.87,4.138,4.138,0,0,1-2.033,1.914,3.014,3.014,0,0,1-1.32.187,8.461,8.461,0,0,1-1.215-.206,3.7,3.7,0,0,0-2.11-.038,3.057,3.057,0,0,0-1.406,1.014,3.272,3.272,0,0,0-.593,1.186A3.416,3.416,0,0,0,157.471,135.8Z" transform="translate(-125.628 -110.595)" fill="#263238"/>
        <path id="Path_4790" data-name="Path 4790" d="M199.77,115.752a1.817,1.817,0,0,1,.22-.44,5.142,5.142,0,0,1,.856-1.048,8.061,8.061,0,0,1,3.952-1.99,15.634,15.634,0,0,1,4.435-.167c.564.053,1.019.105,1.335.153a1.713,1.713,0,0,1,.478.1,17.11,17.11,0,0,1-1.832-.072,17.786,17.786,0,0,0-4.373.234,8.382,8.382,0,0,0-3.88,1.875A10.675,10.675,0,0,0,199.77,115.752Z" transform="translate(-147.734 -106.564)" fill="#455a64"/>
        <path id="Path_4791" data-name="Path 4791" d="M208.08,109.588a3.97,3.97,0,0,1,1.129-.411,11.76,11.76,0,0,1,2.87-.378,8.928,8.928,0,0,1,1.6.12,2.033,2.033,0,0,1,1.177.622,1.282,1.282,0,0,1,.34.832c0,.215-.067.325-.077.321a2.754,2.754,0,0,1,0-.316,1.3,1.3,0,0,0-.373-.718,1.914,1.914,0,0,0-1.091-.517,9.347,9.347,0,0,0-1.555-.091,14.514,14.514,0,0,0-2.827.3A11.636,11.636,0,0,1,208.08,109.588Z" transform="translate(-152.069 -104.883)" fill="#455a64"/>
        <path id="Path_4792" data-name="Path 4792" d="M197.035,127.8a.574.574,0,0,1-.081-.2,2.394,2.394,0,0,1-.134-.584,3.919,3.919,0,0,1,.411-2.162,6.349,6.349,0,0,1,2.153-2.449,36.888,36.888,0,0,1,3.468-1.971,14.319,14.319,0,0,0,5.172-4.856,14.163,14.163,0,0,0,1.033-1.914,5.687,5.687,0,0,1,.34-.727.8.8,0,0,1-.053.2c-.043.129-.1.325-.2.565a12.725,12.725,0,0,1-.957,1.976,13.965,13.965,0,0,1-5.205,4.98,38.913,38.913,0,0,0-3.454,1.914,6.334,6.334,0,0,0-2.129,2.339,4.024,4.024,0,0,0-.478,2.076C196.954,127.536,197.064,127.8,197.035,127.8Z" transform="translate(-146.186 -107.043)" fill="#455a64"/>
        <path id="Path_4793" data-name="Path 4793" d="M216.092,177.2c-.038,0-.034-.478-.167-1.263a8.755,8.755,0,0,0-1.024-2.87,4.837,4.837,0,0,0-2.086-2.124,3.009,3.009,0,0,0-1.225-.2.737.737,0,0,1,.34-.091,2.043,2.043,0,0,1,.957.134,4.626,4.626,0,0,1,2.229,2.158,7.875,7.875,0,0,1,.986,2.952A3.66,3.66,0,0,1,216.092,177.2Z" transform="translate(-153.9 -137.144)" fill="#263238"/>
        <path id="Path_4794" data-name="Path 4794" d="M212.585,165.387l11.324,8.659L220.66,164l2.746,1.407s4.9,9.061,6.458,13.62a32.275,32.275,0,0,1,1.349,5.439c.364,3.277-1.464,6.942-1.464,6.942l1.564,11.821c.22,1.273-.608,2.5-1.167,2.5l-17.734-2.392c-2.311-.454-3.258-1.665-3.119-3l.268-2.478L201.984,172.5c-.445,1.5-.909-3.645,2.473-4.884C205.887,167.076,210.408,164.957,212.585,165.387Z" transform="translate(-148.728 -133.676)" fill="#f7b74e"/>
        <path id="Path_4795" data-name="Path 4795" d="M251,177.21a1.439,1.439,0,0,1,.144.182l.368.541c.316.478.765,1.158,1.3,2.024a32.139,32.139,0,0,1,3.444,7.143,15.787,15.787,0,0,1,.531,7.879,10.59,10.59,0,0,1-.742,2.3c-.11.263-.23.45-.3.584a.906.906,0,0,1-.12.191s.12-.292.33-.813a12.144,12.144,0,0,0,.665-2.292,16.309,16.309,0,0,0-.593-7.788,34.967,34.967,0,0,0-3.349-7.128l-1.229-2.062-.335-.564A.958.958,0,0,1,251,177.21Z" transform="translate(-174.456 -140.567)" fill="#263238"/>
        <path id="Path_4796" data-name="Path 4796" d="M254.227,237.649a3.053,3.053,0,0,0-.478,1.713c.024.206.153.478.359.426.129,0,.21-.148.273-.263,1.134-2.038,2.205-3.775,3.349-5.813l-.053-.4A15.974,15.974,0,0,0,254.227,237.649Z" transform="translate(-175.889 -169.828)" fill="#fafafa"/>
        <path id="Path_4797" data-name="Path 4797" d="M250.771,230.448a18.183,18.183,0,0,0,3.636-.153l-.029-.206a18.986,18.986,0,0,0-3.4-1.129,5.52,5.52,0,0,0-3.291.239A5.349,5.349,0,0,0,250.771,230.448Z" transform="translate(-172.729 -167.483)" fill="#fafafa"/>
        <path id="Path_4798" data-name="Path 4798" d="M253.056,221.593l3.411,2.87-.751-1.368a13.97,13.97,0,0,0-2.794-3.306,1.182,1.182,0,0,0-.445-.254.478.478,0,0,0-.478.115.589.589,0,0,0-.062.545A3.091,3.091,0,0,0,253.056,221.593Z" transform="translate(-174.923 -162.632)" fill="#fafafa"/>
        <path id="Path_4799" data-name="Path 4799" d="M231.083,213.665a15.059,15.059,0,0,0,2.942,1.239h.2a16.515,16.515,0,0,0-2.272-2.454,5.526,5.526,0,0,0-3.024-1.33A5.291,5.291,0,0,0,231.083,213.665Z" transform="translate(-162.944 -158.254)" fill="#fafafa"/>
        <path id="Path_4800" data-name="Path 4800" d="M238.3,208.037c.541,1.335,1.067,2.607,1.607,3.947l.043-1.378a14.146,14.146,0,0,0-.923-4.224,1.343,1.343,0,0,0-.273-.431.478.478,0,0,0-.478-.115.574.574,0,0,0-.306.445,3.1,3.1,0,0,0,.33,1.756Z" transform="translate(-167.651 -155.486)" fill="#fafafa"/>
        <path id="Path_4801" data-name="Path 4801" d="M244.652,207.73a1.325,1.325,0,0,1-.1.383,2.687,2.687,0,0,1-.158.426,5.89,5.89,0,0,1-.254.55,8.132,8.132,0,0,1-.875,1.32,8.391,8.391,0,0,1-3.057,2.335,7.916,7.916,0,0,1-1.5.478,5.65,5.65,0,0,1-1.052.144,1.292,1.292,0,0,1-.387,0c0-.048.55-.072,1.4-.3a8.679,8.679,0,0,0,1.435-.531,9.922,9.922,0,0,0,1.612-.957,9.674,9.674,0,0,0,1.368-1.3,8.932,8.932,0,0,0,.895-1.258C244.436,208.242,244.609,207.715,244.652,207.73Z" transform="translate(-167.294 -156.485)" fill="#263238"/>
        <g id="Group_2712" data-name="Group 2712" transform="translate(68.89 52.359)" opacity="0.3">
          <path id="Path_4802" data-name="Path 4802" d="M235,214.758a4.731,4.731,0,0,0,5.344.086,6.328,6.328,0,0,0,2.751-4.784,9.659,9.659,0,0,1-8.095,4.7Z" transform="translate(-235 -210.06)"/>
        </g>
        <g id="Group_2713" data-name="Group 2713" transform="translate(56.241 45.747)" opacity="0.3">
          <path id="Path_4803" data-name="Path 4803" d="M210.713,196.24,208.56,199.3c.45,1.7,1.043,3.3,1.493,4.99A14.467,14.467,0,0,0,210.713,196.24Z" transform="translate(-208.56 -196.24)"/>
        </g>
        <path id="Path_4804" data-name="Path 4804" d="M133.391,267.705l-3.1,4.918-6.855,2.048a1.713,1.713,0,0,1,.392-1.282c.478-.44-1.435.182-1.435.182l-1.435,2.985s-.957-.067-.9-.9a20.5,20.5,0,0,1,1.139-3.468l.512-.086a1.526,1.526,0,0,1,.2-1.378,4.717,4.717,0,0,1,.775-2.306,7.306,7.306,0,0,1,1.406-1.665l5.99-2.469Z" transform="translate(-106.155 -185.982)" fill="#ffbe9d"/>
        <path id="Path_4805" data-name="Path 4805" d="M132.861,279.395a8.949,8.949,0,0,1-2.229,1.1,8.85,8.85,0,0,1-2.392.655c0-.062,1.048-.378,2.32-.861S132.833,279.337,132.861,279.395Z" transform="translate(-110.424 -193.864)" fill="#eb996e"/>
        <path id="Path_4806" data-name="Path 4806" d="M126.093,278.12a8.477,8.477,0,0,1-1.756.78,8.336,8.336,0,0,1-1.827.574,8.213,8.213,0,0,1,1.751-.78A8.41,8.41,0,0,1,126.093,278.12Z" transform="translate(-107.436 -193.201)" fill="#eb996e"/>
        <path id="Path_4807" data-name="Path 4807" d="M126.714,275a12.974,12.974,0,0,1-1.406.651,13.075,13.075,0,0,1-1.387.694A5,5,0,0,1,126.714,275Z" transform="translate(-108.171 -191.574)" fill="#eb996e"/>
        <path id="Path_4808" data-name="Path 4808" d="M127.358,271.86a5.266,5.266,0,0,1-1.115.536,5.561,5.561,0,0,1-1.143.478,2.674,2.674,0,0,1,1.052-.674,2.646,2.646,0,0,1,1.206-.34Z" transform="translate(-108.787 -189.936)" fill="#eb996e"/>
        <path id="Path_4809" data-name="Path 4809" d="M214.827,172.51a3.886,3.886,0,0,1,.842.919,8.493,8.493,0,0,1,1.3,2.722,8.392,8.392,0,0,1,.254,3,3.828,3.828,0,0,1-.263,1.22c-.043,0,.053-.478.086-1.234a9.52,9.52,0,0,0-1.517-5.607C215.11,172.893,214.794,172.539,214.827,172.51Z" transform="translate(-155.587 -138.115)" fill="#263238"/>
        <path id="Path_4810" data-name="Path 4810" d="M173.6,171.2a3.4,3.4,0,0,1,3.167,3.033,15.056,15.056,0,0,1-.742,6.8c-1.545,3.617-17.222,22.212-17.222,22.212l-15.113,15.912-3.894-3.9s8.032-13.127,9.123-14.711c2.268-3.306,7.975-9.128,10.238-12.993a104.573,104.573,0,0,1,8.846-12.5C169.533,173.506,170.815,171.2,173.6,171.2Z" transform="translate(-116.454 -137.432)" fill="#f7b74e"/>
        <path id="Path_4811" data-name="Path 4811" d="M188.842,208.894a3.071,3.071,0,0,0-1.708.636c-.153.144-.282.4-.129.55a.435.435,0,0,0,.378.067c2.368-.306,4.559-.478,6.927-.789l.182-.277A16.365,16.365,0,0,0,188.842,208.894Z" transform="translate(-141.04 -157.009)" fill="#fafafa"/>
        <path id="Path_4812" data-name="Path 4812" d="M197.974,198.8a17.127,17.127,0,0,0,2.225,2.765l.129-.22a16.539,16.539,0,0,0-1-3.277,5.6,5.6,0,0,0-2.2-2.564,5.459,5.459,0,0,0,.847,3.3Z" transform="translate(-146.35 -150.107)" fill="#fafafa"/>
        <path id="Path_4813" data-name="Path 4813" d="M205.623,194.858c-.1,1.469-.177,2.87-.273,4.349l.646-1.244a14.251,14.251,0,0,0,1.029-4.306,1.283,1.283,0,0,0-.057-.521.478.478,0,0,0-.388-.316.593.593,0,0,0-.478.277A3.148,3.148,0,0,0,205.623,194.858Z" transform="translate(-150.645 -148.709)" fill="#fafafa"/>
        <path id="Path_4814" data-name="Path 4814" d="M197.748,195.6a.808.808,0,0,1-.11.206c-.1.148-.21.335-.354.555-.316.478-.789,1.162-1.387,1.99-1.206,1.66-2.928,3.909-4.87,6.358s-3.746,4.631-5.071,6.219c-.66.78-1.206,1.406-1.584,1.837l-.445.478c-.105.11-.163.167-.167.158a.907.907,0,0,1,.129-.191l.411-.517,1.521-1.885,5.014-6.219c1.942-2.445,3.684-4.674,4.923-6.305.593-.8,1.081-1.435,1.435-1.942.153-.21.282-.387.392-.531A.957.957,0,0,1,197.748,195.6Z" transform="translate(-139.383 -150.159)" fill="#263238"/>
        <path id="Path_4815" data-name="Path 4815" d="M161.07,229.06a16.353,16.353,0,0,0,5.612.66,3.057,3.057,0,0,0,1.756-.478c.167-.129.316-.373.177-.536a.44.44,0,0,0-.373-.1c-2.392.1-4.583.1-6.965.2" transform="translate(-127.548 -167.372)" fill="#fafafa"/>
        <path id="Path_4816" data-name="Path 4816" d="M161.954,233.712a17.125,17.125,0,0,0-1.981-2.942l-.153.211a16.878,16.878,0,0,0,.727,3.349,5.607,5.607,0,0,0,1.971,2.746A5.478,5.478,0,0,0,161.954,233.712Z" transform="translate(-126.896 -168.503)" fill="#fafafa"/>
        <path id="Path_4817" data-name="Path 4817" d="M155.2,237.836c.22-1.459.421-2.87.641-4.306l-.751,1.182a14.428,14.428,0,0,0-1.392,4.21,1.277,1.277,0,0,0,0,.521.478.478,0,0,0,.354.349.593.593,0,0,0,.507-.234,3.124,3.124,0,0,0,.641-1.722Z" transform="translate(-123.691 -169.943)" fill="#fafafa"/>
      </g>
      <g id="freepik--paper-plane--inject-4" transform="translate(187.03 33.379)">
        <path id="Path_4818" data-name="Path 4818" d="M398.5,60.9l3.808,4.919,1.316,8.094L406.5,71.89l2.879,4.285L434.9,52.01Z" transform="translate(-370.304 -51.999)" fill="#ff725e"/>
        <path id="Path_4819" data-name="Path 4819" d="M407.7,75.454l-1.3.888-.921-4.532Z" transform="translate(-371.543 -55.513)" opacity="0.3"/>
        <path id="Path_4820" data-name="Path 4820" d="M403.13,65.82l32.589-13.81L405.26,67.835l-.814,6.078Z" transform="translate(-371.125 -51.999)" opacity="0.3"/>
        <path id="Path_4821" data-name="Path 4821" d="M436.07,52a1.943,1.943,0,0,1-.378.247l-1.119.633-4.17,2.254-13.868,7.3-11.1,5.758.074-.239c1.4,2.542,2.665,4.581,3.57,5.988.436.674.781,1.217,1.061,1.645a2.91,2.91,0,0,1,.345.592,3.343,3.343,0,0,1-.436-.535c-.271-.354-.658-.888-1.135-1.579-.962-1.382-2.278-3.4-3.718-5.93l-.091-.156.165-.09,11.063-5.815,13.884-7.181,4.236-2.13,1.16-.568A1.513,1.513,0,0,1,436.07,52Z" transform="translate(-371.477 -51.998)" fill="#263238"/>
        <path id="Path_4822" data-name="Path 4822" d="M435.681,52c.049.107-7.255,3.29-16.311,7.181s-16.45,6.893-16.45,6.786,7.255-3.29,16.311-7.181S435.64,51.9,435.681,52Z" transform="translate(-371.088 -51.997)" fill="#263238"/>
        <path id="Path_4823" data-name="Path 4823" d="M404.715,77.369A10.488,10.488,0,0,1,404.8,74.4a10.608,10.608,0,0,1,.51-2.92,10.44,10.44,0,0,1-.082,2.961A10.278,10.278,0,0,1,404.715,77.369Z" transform="translate(-371.395 -55.455)" fill="#263238"/>
        <path id="Path_4824" data-name="Path 4824" d="M366.26,102.975c0,.115-.42.271-1,.354a1.62,1.62,0,0,1-1.045-.074,1.713,1.713,0,0,1,.987-.354C365.758,102.827,366.235,102.843,366.26,102.975Z" transform="translate(-364.22 -61.023)" fill="#263238"/>
        <path id="Path_4825" data-name="Path 4825" d="M374.857,99c.066.09-.609.724-1.579,1.3a4.047,4.047,0,0,1-1.908.748c-.049-.115.74-.559,1.686-1.119A6.389,6.389,0,0,1,374.857,99Z" transform="translate(-365.488 -60.339)" fill="#263238"/>
        <path id="Path_4826" data-name="Path 4826" d="M381.556,91.659a4.038,4.038,0,0,1-.9,1.834c-.65.929-1.341,1.538-1.431,1.464a6.781,6.781,0,0,1,1.086-1.711C380.939,92.35,381.449,91.6,381.556,91.659Z" transform="translate(-366.882 -59.036)" fill="#263238"/>
        <path id="Path_4827" data-name="Path 4827" d="M384.319,82.24a3.5,3.5,0,0,1,.181,2.04,3.685,3.685,0,0,1-.592,1.966,7.533,7.533,0,0,1,.165-2.007,8.657,8.657,0,0,1,.247-2Z" transform="translate(-367.712 -57.364)" fill="#263238"/>
        <path id="Path_4828" data-name="Path 4828" d="M378.46,75.468a2.772,2.772,0,0,1,2.032.37c1.069.535,1.546,1.415,1.464,1.456s-.7-.6-1.645-1.077S378.443,75.6,378.46,75.468Z" transform="translate(-366.747 -56.153)" fill="#263238"/>
        <path id="Path_4829" data-name="Path 4829" d="M370.66,79.588a2.9,2.9,0,0,1,.823-1.892,2.772,2.772,0,0,1,1.694-1.176c.066.107-.683.609-1.357,1.448S370.775,79.629,370.66,79.588Z" transform="translate(-365.363 -56.349)" fill="#263238"/>
        <path id="Path_4830" data-name="Path 4830" d="M371.905,88.72a3.2,3.2,0,0,1-1.267-1.645,3.159,3.159,0,0,1-.395-2.015,12.206,12.206,0,0,1,.823,1.842C371.477,87.914,372.012,88.63,371.905,88.72Z" transform="translate(-365.284 -57.865)" fill="#263238"/>
        <path id="Path_4831" data-name="Path 4831" d="M379.994,93.6a3.545,3.545,0,0,1-2.04-.156,3.5,3.5,0,0,1-1.834-.921,8.921,8.921,0,0,1,1.949.51,8.265,8.265,0,0,1,1.925.568Z" transform="translate(-366.332 -59.189)" fill="#263238"/>
        <path id="Path_4832" data-name="Path 4832" d="M389.52,91.83a3.965,3.965,0,0,1-1.785.962,3.841,3.841,0,0,1-2.015.362,7.214,7.214,0,0,1,1.867-.765A6.884,6.884,0,0,1,389.52,91.83Z" transform="translate(-368.036 -59.066)" fill="#263238"/>
        <path id="Path_4833" data-name="Path 4833" d="M397.644,86.14c.082.082-.559.732-1.431,1.439a4.937,4.937,0,0,1-1.694,1.119c-.074-.1.568-.749,1.431-1.448A5,5,0,0,1,397.644,86.14Z" transform="translate(-369.596 -58.057)" fill="#263238"/>
        <path id="Path_4834" data-name="Path 4834" d="M402.936,80.579c.107.049,0,.518-.37,1s-.707.765-.823.691.132-.485.452-.938S402.83,80.53,402.936,80.579Z" transform="translate(-370.874 -57.069)" fill="#263238"/>
      </g>
    </g>
  </g>
</svg>
