<svg xmlns="http://www.w3.org/2000/svg" width="255.499" height="251.198" viewBox="0 0 255.499 251.198">
  <g id="Verified-pana" transform="translate(-27.8 -34.07)">
    <g id="freepik--background-complete--inject-2" transform="translate(101.276 57.713)">
      <rect id="Rectangle_1553" data-name="Rectangle 1553" width="5.767" height="28.689" transform="matrix(1, -0.005, 0.005, 1, 149.059, 10.731)" fill="#e0e0e0"/>
      <rect id="Rectangle_1561" data-name="Rectangle 1561" width="5.767" height="39.456" transform="matrix(1, -0.005, 0.005, 1, 154.687, 0.031)" fill="#ebebeb"/>
      <rect id="Rectangle_1562" data-name="Rectangle 1562" width="8.958" height="31.972" transform="matrix(1, -0.005, 0.005, 1, 160.505, 7.397)" fill="#f5f5f5"/>
      <path id="Path_4494" data-name="Path 4494" d="M442.8,98.466a64.57,64.57,0,0,1-8.958,0A64.565,64.565,0,0,1,442.8,98.466Z" transform="translate(-273.405 -84.946)" fill="#e0e0e0"/>
      <path id="Path_4495" data-name="Path 4495" d="M442.8,96.136a64.57,64.57,0,0,1-8.958,0,64.566,64.566,0,0,1,8.958,0Z" transform="translate(-273.405 -83.958)" fill="#e0e0e0"/>
      <path id="Path_4496" data-name="Path 4496" d="M442.8,134.886a64.565,64.565,0,0,1-8.958,0A64.565,64.565,0,0,1,442.8,134.886Z" transform="translate(-273.405 -100.385)" fill="#e0e0e0"/>
      <path id="Path_4497" data-name="Path 4497" d="M442.8,132.6a67.045,67.045,0,0,1-8.958,0A64.57,64.57,0,0,1,442.8,132.6Z" transform="translate(-273.405 -99.414)" fill="#e0e0e0"/>
      <path id="Path_4498" data-name="Path 4498" d="M441.756,117.018c-.086,0-.156-3.226-.156-7.207s.069-7.2.156-7.2.156,3.22.156,7.2S441.83,117.018,441.756,117.018Z" transform="translate(-276.695 -86.768)" fill="#e0e0e0"/>
      <rect id="Rectangle_1563" data-name="Rectangle 1563" width="9.753" height="24.132" transform="translate(169.491 15.208)" fill="#ebebeb"/>
      <path id="Path_4499" data-name="Path 4499" d="M429.148,85.63A1.659,1.659,0,1,1,427.489,84,1.659,1.659,0,0,1,429.148,85.63Z" transform="translate(-270.01 -78.879)" fill="#e0e0e0"/>
      <rect id="Rectangle_1564" data-name="Rectangle 1564" width="1.025" height="23.469" transform="translate(156.967 11.308)" fill="#e0e0e0"/>
      <path id="Path_4500" data-name="Path 4500" d="M172.012,412.38s-5.283,4.033-.225,9.338a.466.466,0,0,0,.334.144l46.15-.271s3.94-4.419.668-9.511Z" transform="translate(-161.386 -217.96)" fill="#ebebeb"/>
      <path id="Path_4501" data-name="Path 4501" d="M217.494,419.822c0,.052-5.761.092-12.829.092s-12.835-.04-12.835-.092,5.761-.092,12.835-.092S217.494,419.77,217.494,419.822Z" transform="translate(-170.812 -221.203)" fill="#e0e0e0"/>
      <path id="Path_4502" data-name="Path 4502" d="M215.043,422.718c0,.052-2.7.092-6.032.092s-6.032-.04-6.032-.092,2.7-.1,6.032-.1S215.043,422.666,215.043,422.718Z" transform="translate(-175.539 -222.428)" fill="#e0e0e0"/>
      <path id="Path_4503" data-name="Path 4503" d="M244.5,421.344s.1-.53.248-1.383a19.634,19.634,0,0,0,.265-3.364,19.37,19.37,0,0,0-.328-3.364c-.161-.853-.3-1.371-.271-1.383a1.822,1.822,0,0,1,.133.357,8.875,8.875,0,0,1,.265,1,16.513,16.513,0,0,1,.392,3.387,16.711,16.711,0,0,1-.328,3.393c-.086.426-.173.772-.242,1A1.132,1.132,0,0,1,244.5,421.344Z" transform="translate(-193.103 -217.862)" fill="#e0e0e0"/>
      <path id="Path_4504" data-name="Path 4504" d="M250.549,412a1.4,1.4,0,0,1,.207.334,4.618,4.618,0,0,1,.207.415,5.67,5.67,0,0,1,.23.576,9.841,9.841,0,0,1,.444,1.527,11.812,11.812,0,0,1,.2,1.941,11.331,11.331,0,0,1-.173,1.947,9.757,9.757,0,0,1-.415,1.538c-.069.219-.156.4-.225.576a3.523,3.523,0,0,1-.2.415,1.57,1.57,0,0,1-.2.34c-.035,0,.225-.513.5-1.365a11,11,0,0,0,.518-3.456,11.459,11.459,0,0,0-.184-1.913,11.339,11.339,0,0,0-.392-1.521C250.808,412.5,250.52,412,250.549,412Z" transform="translate(-195.703 -217.926)" fill="#e0e0e0"/>
      <path id="Path_4505" data-name="Path 4505" d="M185.468,421.788a1.569,1.569,0,0,1-.219-.311,3.463,3.463,0,0,1-.213-.38q-.137-.259-.248-.53a8.113,8.113,0,0,1-.449-1.457,9.4,9.4,0,0,1-.179-1.861,9.217,9.217,0,0,1,.23-1.855,7.894,7.894,0,0,1,.49-1.44,4.953,4.953,0,0,1,.259-.524,2.662,2.662,0,0,1,.225-.38c.132-.2.213-.311.225-.3s-.265.461-.576,1.256a8.793,8.793,0,0,0-.444,1.429,10.313,10.313,0,0,0-.213,1.82,10.535,10.535,0,0,0,.161,1.82,9.872,9.872,0,0,0,.4,1.44C185.22,421.316,185.5,421.771,185.468,421.788Z" transform="translate(-167.56 -218.243)" fill="#e0e0e0"/>
      <path id="Path_4506" data-name="Path 4506" d="M176.659,422.853a1.413,1.413,0,0,1-.236-.346,3.24,3.24,0,0,1-.213-.455,5.808,5.808,0,0,1-.282-.576,9.72,9.72,0,0,1-.524-1.63,10.046,10.046,0,0,1-.092-4.171,9.5,9.5,0,0,1,.455-1.653c.075-.23.173-.426.248-.6a4.45,4.45,0,0,1,.225-.444,2.171,2.171,0,0,1,.219-.363c.035,0-.259.547-.576,1.457a10.908,10.908,0,0,0-.409,1.636,12.155,12.155,0,0,0-.15,2.057,11.066,11.066,0,0,0,.72,3.67C176.371,422.323,176.688,422.835,176.659,422.853Z" transform="translate(-163.735 -218.185)" fill="#e0e0e0"/>
      <path id="Path_4507" data-name="Path 4507" d="M238.576,453v8.825H221.49V453Z" transform="translate(-183.385 -235.307)" fill="#ebebeb"/>
      <path id="Path_4508" data-name="Path 4508" d="M155.348,456.792v.236a5.058,5.058,0,0,0,5.081,4.735h50.891v-.639h-12.1a4.413,4.413,0,0,1-4.413-4.413h0a4.413,4.413,0,0,1,4.413-4.413h12.1v-.939l-50.9.173a5.087,5.087,0,0,0-5.069,5.26Z" transform="translate(-155.345 -234.612)" fill="#e0e0e0"/>
      <path id="Path_4509" data-name="Path 4509" d="M239.6,460.782c0,.052-3.514.1-7.846.1s-7.846-.046-7.846-.1,3.514-.092,7.846-.092S239.6,460.736,239.6,460.782Z" transform="translate(-184.411 -238.567)" fill="#e0e0e0"/>
      <path id="Path_4510" data-name="Path 4510" d="M239.791,464.242c0,.052-3.324.092-7.426.092s-7.426-.04-7.426-.092,3.324-.092,7.426-.092S239.791,464.19,239.791,464.242Z" transform="translate(-184.848 -240.034)" fill="#e0e0e0"/>
      <path id="Path_4511" data-name="Path 4511" d="M241.323,467.4c0,.052-2.99.092-6.677.092s-6.677-.04-6.677-.092,2.99-.092,6.677-.092S241.323,467.35,241.323,467.4Z" transform="translate(-186.132 -241.373)" fill="#e0e0e0"/>
      <path id="Path_4512" data-name="Path 4512" d="M239.84,457.682c0,.052-3.456.092-7.685.092s-7.685-.04-7.685-.092,3.456-.092,7.685-.092S239.84,457.63,239.84,457.682Z" transform="translate(-184.649 -237.253)" fill="#e0e0e0"/>
      <path id="Path_4513" data-name="Path 4513" d="M240.652,454.582c0,.052-3.065.092-6.838.092s-6.844-.04-6.844-.092,3.065-.092,6.844-.092S240.652,454.53,240.652,454.582Z" transform="translate(-185.708 -235.939)" fill="#e0e0e0"/>
      <path id="Path_4514" data-name="Path 4514" d="M164.272,451.91a10.331,10.331,0,0,0-1.083,1.285,6.538,6.538,0,0,0,.086,7.57,11.366,11.366,0,0,0,1.112,1.262,2.01,2.01,0,0,1-.363-.271,5.911,5.911,0,0,1-.853-.91,6.452,6.452,0,0,1-.086-7.731,5.714,5.714,0,0,1,.83-.927A1.728,1.728,0,0,1,164.272,451.91Z" transform="translate(-158.099 -234.845)" fill="#f5f5f5"/>
      <path id="Path_4515" data-name="Path 4515" d="M161.281,451.58a12.225,12.225,0,0,0-1.083,1.29,6.544,6.544,0,0,0,.092,7.564A10.686,10.686,0,0,0,161.4,461.7a1.728,1.728,0,0,1-.369-.271,5.926,5.926,0,0,1-.853-.91,6.441,6.441,0,0,1-.092-7.719,5.8,5.8,0,0,1,.83-.933A1.934,1.934,0,0,1,161.281,451.58Z" transform="translate(-156.83 -234.705)" fill="#f5f5f5"/>
      <path id="Path_4516" data-name="Path 4516" d="M221.3,451.91a11.362,11.362,0,0,0-1.077,1.285,6.538,6.538,0,0,0,.086,7.57,11.366,11.366,0,0,0,1.112,1.262,1.907,1.907,0,0,1-.369-.271,5.928,5.928,0,0,1-.847-.91,6.452,6.452,0,0,1-.109-7.731,5.455,5.455,0,0,1,.83-.927,2.046,2.046,0,0,1,.374-.276Z" transform="translate(-182.271 -234.845)" fill="#f5f5f5"/>
      <path id="Path_4517" data-name="Path 4517" d="M218.321,451.58a10.725,10.725,0,0,0-1.083,1.29,6.527,6.527,0,0,0,.086,7.564,11.372,11.372,0,0,0,1.112,1.262,2.012,2.012,0,0,1-.363-.271,5.651,5.651,0,0,1-.853-.91,6.441,6.441,0,0,1-.092-7.719,5.8,5.8,0,0,1,.83-.933,1.73,1.73,0,0,1,.363-.282Z" transform="translate(-181.011 -234.705)" fill="#f5f5f5"/>
      <path id="Path_4518" data-name="Path 4518" d="M174.136,459.212l-.052-3.595a2.477,2.477,0,0,0-.121-.922.881.881,0,0,0-.686-.576,1.355,1.355,0,0,0-1.463.691,3.347,3.347,0,0,0-.351,1.763,23.287,23.287,0,0,0,.138,2.834,3.249,3.249,0,0,0,.334,1.3,1.083,1.083,0,0,0,2.051-.179A3.5,3.5,0,0,0,174.136,459.212Z" transform="translate(-162.174 -235.758)" fill="#f5f5f5"/>
      <path id="Path_4519" data-name="Path 4519" d="M198.325,461.082c0,.052-3.681.1-8.215.1s-8.221-.046-8.221-.1,3.681-.092,8.221-.092S198.325,461.03,198.325,461.082Z" transform="translate(-166.598 -238.694)" fill="#f5f5f5"/>
      <path id="Path_4520" data-name="Path 4520" d="M170.122,445.14l-.092-8.37h4.557l.156,8.37Z" transform="translate(-161.57 -228.427)" fill="#f5f5f5"/>
      <path id="Path_4521" data-name="Path 4521" d="M174.354,439.274a22.94,22.94,0,0,1-4.234,0,24.346,24.346,0,0,1,4.234,0Z" transform="translate(-161.608 -229.444)" fill="#e0e0e0"/>
      <path id="Path_4522" data-name="Path 4522" d="M174.354,441.524a24.362,24.362,0,0,1-4.234,0,24.362,24.362,0,0,1,4.234,0Z" transform="translate(-161.608 -230.398)" fill="#e0e0e0"/>
      <path id="Path_4523" data-name="Path 4523" d="M174.354,443.764a24.378,24.378,0,0,1-4.234,0,24.362,24.362,0,0,1,4.234,0Z" transform="translate(-161.608 -231.347)" fill="#e0e0e0"/>
      <path id="Path_4524" data-name="Path 4524" d="M174.354,446a24.37,24.37,0,0,1-4.234,0,24.354,24.354,0,0,1,4.234,0Z" transform="translate(-161.608 -232.297)" fill="#e0e0e0"/>
      <path id="Path_4525" data-name="Path 4525" d="M174.354,448.245a22.925,22.925,0,0,1-4.234,0,24.362,24.362,0,0,1,4.234,0Z" transform="translate(-161.608 -233.248)" fill="#e0e0e0"/>
      <path id="Path_4526" data-name="Path 4526" d="M169.61,436.38h50.5a23.763,23.763,0,0,1,0,9.05H169.835V444.8h3.076a1.446,1.446,0,0,0,1.446-1.452v-5.006a1.446,1.446,0,0,0-1.446-1.452h-3.289Z" transform="translate(-161.392 -228.261)" fill="#ebebeb"/>
      <path id="Path_4527" data-name="Path 4527" d="M189.443,442.94h.841a.14.14,0,0,1,.184.156.179.179,0,0,1,0,.058.785.785,0,0,1-.058.213,2.379,2.379,0,0,1-.53.951,1,1,0,0,1-.714.375h-.1a.83.83,0,0,1-.576-.415,1.9,1.9,0,0,1-.248-1.014,2.881,2.881,0,0,1,.1-.726,2.477,2.477,0,0,1,.5-.974,1.008,1.008,0,0,1,.76-.4.748.748,0,0,1,.317.069,1.054,1.054,0,0,1,.5.616.23.23,0,0,1,0,.086.161.161,0,0,1,0,.086.179.179,0,0,1-.156.092.092.092,0,0,1-.058,0,.167.167,0,0,1-.115-.109h0a.836.836,0,0,0-.1-.2.484.484,0,0,0-.4-.236.449.449,0,0,0-.277.1,1.493,1.493,0,0,0-.461.662,2.482,2.482,0,0,0-.2.951,1.728,1.728,0,0,0,.144.749.484.484,0,0,0,.438.328.576.576,0,0,0,.409-.248,2.3,2.3,0,0,0,.432-.778h-.6a.2.2,0,0,1-.2-.2v-.063A.2.2,0,0,1,189.443,442.94Z" transform="translate(-169.289 -230.288)" fill="#fafafa"/>
      <path id="Path_4528" data-name="Path 4528" d="M193.972,441.322v.063q.052.179.576,3.128a.127.127,0,0,1,0,.046.184.184,0,0,1,0,.092.161.161,0,0,1-.15.092h-.029a.173.173,0,0,1-.138-.127l-.2-1.043h-1.037l-.5,1.048a.052.052,0,0,1,0,.035.182.182,0,0,1-.253.058.19.19,0,0,1-.081-.156.086.086,0,0,1,0-.052c.029-.075.081-.184.156-.34.726-1.59,1.152-2.523,1.3-2.811a.2.2,0,0,1,.173-.127A.207.207,0,0,1,193.972,441.322Zm-.225.7-.576,1.181h.795Z" transform="translate(-170.949 -230.317)" fill="#fafafa"/>
      <path id="Path_4529" data-name="Path 4529" d="M198.945,444.745h-1.521a.2.2,0,0,1-.1-.029.271.271,0,0,1-.086-.19h0c0-.058.138-1.1.421-3.111a.283.283,0,0,1,0-.069.167.167,0,0,1,.167-.109.185.185,0,0,1,.081,0,.173.173,0,0,1,.1.161l-.1.853q-.259,2-.277,2.108h1.3a.272.272,0,0,1,.1,0,.179.179,0,0,1,.115.173.185.185,0,0,1-.2.213Z" transform="translate(-173.105 -230.318)" fill="#fafafa"/>
      <path id="Path_4530" data-name="Path 4530" d="M202.507,441.322v.063c.035.121.236,1.152.576,3.128a.137.137,0,0,1,0,.046.19.19,0,0,1-.029.092.161.161,0,0,1-.15.092h-.029a.184.184,0,0,1-.138-.127l-.121-1.043H201.58l-.5,1.049a.08.08,0,0,1,0,.035.219.219,0,0,1-.161.086.213.213,0,0,1-.1-.029.19.19,0,0,1-.081-.156.167.167,0,0,1,0-.052c.029-.075.081-.184.156-.34.726-1.59,1.152-2.523,1.3-2.811a.2.2,0,0,1,.173-.127A.208.208,0,0,1,202.507,441.322Zm-.225.7-.576,1.181h.8Z" transform="translate(-174.587 -230.317)" fill="#fafafa"/>
      <path id="Path_4531" data-name="Path 4531" d="M206.949,443.136l.277.76c.156.438.236.662.236.686a.161.161,0,0,1,0,.092.184.184,0,0,1-.156.086c-.069,0-.115-.04-.15-.121s0-.058-.029-.081c-.081-.19-.219-.576-.409-1.071l-.858,1.152a.207.207,0,0,1-.161.1.241.241,0,0,1-.092,0,.167.167,0,0,1-.086-.156v-.012a.42.42,0,0,1,.092-.15c.288-.374.576-.818.956-1.331-.035-.1-.069-.2-.1-.288-.323-.87-.49-1.319-.49-1.348a.27.27,0,0,1,0-.092.173.173,0,0,1,.15-.092.19.19,0,0,1,.167.1l.513,1.371,1.014-1.383a.19.19,0,0,1,.161-.086.184.184,0,0,1,.081,0,.167.167,0,0,1,.092.161.161.161,0,0,1,0,.086Z" transform="translate(-176.615 -230.334)" fill="#fafafa"/>
      <path id="Path_4532" data-name="Path 4532" d="M212.648,441.227a.19.19,0,0,1,.081,0,.167.167,0,0,1,.1.155c-.248,1.97-.386,3.03-.409,3.191a1.93,1.93,0,0,1-.328.83,1.181,1.181,0,0,1-1.5.369,1.094,1.094,0,0,1-.536-.472.242.242,0,0,1,0-.086.173.173,0,0,1,0-.092.167.167,0,0,1,.156-.092.19.19,0,0,1,.138.075.974.974,0,0,0,.778.444.766.766,0,0,0,.576-.305,1.676,1.676,0,0,0,.334-.956.8.8,0,0,1-.225.236.887.887,0,0,1-.542.179h-.1a.818.818,0,0,1-.576-.415,1.854,1.854,0,0,1-.253-1.014V442.7a13.128,13.128,0,0,1,.207-1.313.092.092,0,0,1,0-.052.167.167,0,0,1,.161-.127.172.172,0,0,1,.086.029.156.156,0,0,1,.092.144,6.42,6.42,0,0,1-.086.691,9.043,9.043,0,0,0-.115,1.066,2.108,2.108,0,0,0,.133.824c.1.248.253.369.449.369h.063a.813.813,0,0,0,.455-.363,2.228,2.228,0,0,0,.374-.841l.23-1.728a.287.287,0,0,1,0-.075.167.167,0,0,1,.259-.092Z" transform="translate(-178.535 -230.302)" fill="#fafafa"/>
      <path id="Path_4533" data-name="Path 4533" d="M253.928,445.461c-.052,0-.1-2.074-.1-4.637s.046-4.643.1-4.643.092,2.08.092,4.643S253.968,445.461,253.928,445.461Z" transform="translate(-197.095 -228.177)" fill="#f5f5f5"/>
      <path id="Path_4534" data-name="Path 4534" d="M182.172,445.461c-.052,0-.092-2.074-.092-4.637s.04-4.643.092-4.643.092,2.08.092,4.643S182.224,445.461,182.172,445.461Z" transform="translate(-166.679 -228.177)" fill="#e0e0e0"/>
      <path id="Path_4535" data-name="Path 4535" d="M255.442,445.461c-.046,0-.092-2.074-.092-4.637s.046-4.643.092-4.643.1,2.08.1,4.643S255.494,445.461,255.442,445.461Z" transform="translate(-197.739 -228.177)" fill="#f5f5f5"/>
      <path id="Path_4536" data-name="Path 4536" d="M180.738,445.461c-.052,0-.1-2.074-.1-4.637s.046-4.643.1-4.643.092,2.08.092,4.643S180.784,445.461,180.738,445.461Z" transform="translate(-166.068 -228.177)" fill="#e0e0e0"/>
      <path id="Path_4537" data-name="Path 4537" d="M228.646,438.83h0l5.334,4.3.046.04h-.058l-.709.19-4.5,1.181h0l-4.084-1.728-1.152-.5-.305-.133-.075-.035h0l.081.035.305.121,1.152.484,4.09,1.728h0l4.5-1.187.714-.19v.052l-5.329-4.315h0" transform="translate(-184.072 -229.3)" fill="#e0e0e0"/>
      <path id="Path_4538" data-name="Path 4538" d="M240.846,445.12l.294.271.392-.081-.173.357.2.346-.4-.046-.265.294-.075-.392-.363-.161.346-.19Z" transform="translate(-191.427 -231.966)" fill="#e0e0e0"/>
      <path id="Path_4539" data-name="Path 4539" d="M232.08,448.06l.2.167.253-.069-.1.242.144.213-.259-.017-.161.2-.063-.248-.242-.092.219-.138Z" transform="translate(-187.777 -233.213)" fill="#e0e0e0"/>
      <path id="Path_4540" data-name="Path 4540" d="M222.43,443.87l.317.017.2-.248.081.305.3.109-.271.167-.012.323-.248-.2-.3.086.115-.3Z" transform="translate(-183.784 -231.339)" fill="#e0e0e0"/>
      <path id="Path_4541" data-name="Path 4541" d="M245.29,438.78l.317.023.2-.253.081.311.294.109-.265.167-.012.317-.248-.2-.305.086.121-.294Z" transform="translate(-193.475 -229.181)" fill="#e0e0e0"/>
      <path id="Path_4542" data-name="Path 4542" d="M232.27,438.484l.2.012.127-.156.052.2.19.069-.173.109-.006.2-.156-.133-.2.058.075-.19Z" transform="translate(-187.955 -229.092)" fill="#e0e0e0"/>
      <path id="Path_4543" data-name="Path 4543" d="M240.388,439.091s-1.728-.04-3.854-.127-3.854-.184-3.854-.207,1.728.04,3.854.133S240.388,439.068,240.388,439.091Z" transform="translate(-188.129 -229.267)" fill="#e0e0e0"/>
      <path id="Path_4544" data-name="Path 4544" d="M211.323,433.113H160.1a4.305,4.305,0,0,1,0-4.263h51.219a4.948,4.948,0,0,1,0,4.263Z" transform="translate(-157.123 -225.069)" fill="#e0e0e0"/>
      <rect id="Rectangle_1565" data-name="Rectangle 1565" width="27.75" height="1.55" transform="translate(13.587 204.996)" fill="#ebebeb"/>
      <path id="Path_4545" data-name="Path 4545" d="M163.279,433.217a1.584,1.584,0,0,1-.4-.518,3.762,3.762,0,0,1-.271-3.082,1.411,1.411,0,0,1,.311-.576,6.12,6.12,0,0,1-.184.622,4.392,4.392,0,0,0-.138,1.515,4.609,4.609,0,0,0,.4,1.469,3.566,3.566,0,0,1,.288.57Z" transform="translate(-158.333 -225.15)" fill="#e0e0e0"/>
      <path id="Path_4546" data-name="Path 4546" d="M165.205,433.217a1.423,1.423,0,0,1-.4-.518,3.7,3.7,0,0,1-.472-1.509,3.819,3.819,0,0,1,.2-1.573,1.59,1.59,0,0,1,.311-.576,4.709,4.709,0,0,1-.184.622,4.4,4.4,0,0,0-.132,1.515,4.321,4.321,0,0,0,.4,1.469A5.375,5.375,0,0,1,165.205,433.217Z" transform="translate(-159.148 -225.15)" fill="#e0e0e0"/>
      <path id="Path_4547" data-name="Path 4547" d="M245.83,433.041a8.733,8.733,0,0,0,.363-2.08,8.935,8.935,0,0,0-.34-2.091,3.739,3.739,0,0,1,.524,2.091A3.67,3.67,0,0,1,245.83,433.041Z" transform="translate(-193.704 -225.078)" fill="#f5f5f5"/>
      <path id="Path_4548" data-name="Path 4548" d="M244.168,433.094c-.058,0,.156-.916.15-2.045s-.213-2.028-.156-2.039a6.256,6.256,0,0,1,0,4.084Z" transform="translate(-192.992 -225.137)" fill="#f5f5f5"/>
    </g>
    <g id="freepik--Device--inject-2" transform="translate(97.119 34.07)">
      <path id="Path_4549" data-name="Path 4549" d="M235.763,245.888l-71.969-.046a15.669,15.669,0,0,1-15.664-15.675l.035-180.422A15.681,15.681,0,0,1,163.851,34.07l71.964.046a15.681,15.681,0,0,1,15.669,15.675l-.04,180.422a15.675,15.675,0,0,1-15.681,15.675Z" transform="translate(-148.13 -34.07)" fill="#e8e6f1"/>
      <path id="Path_4550" data-name="Path 4550" d="M238.97,45.295H225.017a3.456,3.456,0,0,0-3.387,3.543v2.529a3.456,3.456,0,0,1-3.393,3.537h-27.2a3.456,3.456,0,0,1-3.387-3.543V48.826a3.456,3.456,0,0,0-3.37-3.566H167.168a10.98,10.98,0,0,0-11,10.969l-.035,176.107a10.945,10.945,0,0,0,10.945,10.98l71.825.04a10.98,10.98,0,0,0,10.986-10.974l.069-176.107A10.98,10.98,0,0,0,238.97,45.295Z" transform="translate(-151.521 -38.814)" fill="#fff"/>
      <path id="Path_4551" data-name="Path 4551" d="M250.69,93.78c0,.081-21.205.15-47.354.15S156,93.843,156,93.78s21.2-.15,47.365-.15S250.69,93.693,250.69,93.78Z" transform="translate(-151.466 -59.319)" fill="#263238"/>
      <path id="Path_4552" data-name="Path 4552" d="M170.924,78.676a.288.288,0,0,1-.19-.069L168,76.2a.265.265,0,0,1-.1-.219.277.277,0,0,1,.1-.219l2.736-2.3a.288.288,0,0,1,.4.04.282.282,0,0,1-.04.4l-2.471,2.062,2.477,2.178a.282.282,0,0,1,.029.4A.277.277,0,0,1,170.924,78.676Z" transform="translate(-156.511 -50.742)" fill="#263238"/>
      <path id="Path_4553" data-name="Path 4553" d="M247.5,77.51c0,.086-8.912.15-19.909.15s-19.909-.063-19.909-.15,8.912-.15,19.909-.15S247.5,77.429,247.5,77.51Z" transform="translate(-173.375 -52.422)" fill="#263238"/>
      <path id="Path_4554" data-name="Path 4554" d="M295.294,76.827a1.037,1.037,0,1,1-1.037-1.037,1.037,1.037,0,0,1,1.037,1.037Z" transform="translate(-209.637 -51.756)" fill="#263238"/>
      <path id="Path_4555" data-name="Path 4555" d="M300.474,76.827a1.031,1.031,0,1,1-.3-.733A1.037,1.037,0,0,1,300.474,76.827Z" transform="translate(-211.833 -51.756)" fill="#263238"/>
      <path id="Path_4556" data-name="Path 4556" d="M305.664,76.827a1.037,1.037,0,1,1-1.037-1.037,1.037,1.037,0,0,1,1.037,1.037Z" transform="translate(-214.033 -51.756)" fill="#263238"/>
      <path id="Path_4557" data-name="Path 4557" d="M219.868,159.8c0,.668-.277,1.072-.737,1.072a.461.461,0,0,1-.49-.34.789.789,0,0,1-.7.34.985.985,0,0,1,0-1.964.8.8,0,0,1,.645.277v-.253h.426v1.313c0,.2.092.265.2.265.207,0,.323-.248.323-.7a1.36,1.36,0,0,0-1.48-1.377,1.446,1.446,0,1,0,0,2.88,1.676,1.676,0,0,0,.749-.173l.1.311a1.964,1.964,0,0,1-.853.179,1.763,1.763,0,1,1,0-3.52,1.682,1.682,0,0,1,1.809,1.694Zm-1.273.086a.576.576,0,1,0-.156.43A.576.576,0,0,0,218.594,159.887Z" transform="translate(-176.984 -86.65)" fill="#263238"/>
      <path id="Path_4558" data-name="Path 4558" d="M246.663,162.756c0,.081-4.171.15-9.309.15s-9.3-.069-9.3-.15,4.165-.156,9.3-.156S246.663,162.669,246.663,162.756Z" transform="translate(-182.01 -88.557)" fill="#263238"/>
      <path id="Path_4559" data-name="Path 4559" d="M194.571,208.46a5.634,5.634,0,0,1-2.581,0A5.634,5.634,0,0,1,194.571,208.46Z" transform="translate(-166.723 -107.934)" fill="#263238"/>
      <path id="Path_4560" data-name="Path 4560" d="M196.771,219.3c0,.081-3.111.15-6.953.15s-6.947-.069-6.947-.15,3.111-.15,6.947-.15S196.771,219.219,196.771,219.3Z" transform="translate(-162.857 -112.53)" fill="#263238"/>
      <path id="Path_4561" data-name="Path 4561" d="M239.184,208.447a52.209,52.209,0,0,1-7.9,0,52.22,52.22,0,0,1,7.9,0Z" transform="translate(-183.379 -107.921)" fill="#263238"/>
      <path id="Path_4562" data-name="Path 4562" d="M238.585,218.72c0,.081-3.186.15-7.115.15s-7.12-.069-7.12-.15,3.186-.15,7.12-.15S238.585,218.639,238.585,218.72Z" transform="translate(-180.441 -112.284)" fill="#263238"/>
      <path id="Path_4563" data-name="Path 4563" d="M281.957,208.6a94.864,94.864,0,0,1-10.657,0,94.865,94.865,0,0,1,10.657,0Z" transform="translate(-200.345 -107.983)" fill="#263238"/>
      <path id="Path_4564" data-name="Path 4564" d="M283.158,219.15c0,.086-3.07.15-6.861.15s-6.867-.063-6.867-.15,3.07-.15,6.867-.15S283.158,219.069,283.158,219.15Z" transform="translate(-199.552 -112.466)" fill="#263238"/>
      <rect id="Rectangle_1566" data-name="Rectangle 1566" width="41.984" height="12.069" rx="2.55" transform="translate(23.187 112.594)" fill="#f7b74e"/>
      <path id="Path_4565" data-name="Path 4565" d="M229.7,240.24c0,.081-5.4.15-12.069.15s-12.1-.069-12.1-.15,5.4-.15,12.1-.15S229.7,240.153,229.7,240.24Z" transform="translate(-172.463 -121.407)" fill="#fff"/>
      <rect id="Rectangle_1567" data-name="Rectangle 1567" width="11.994" height="12.368" rx="2.37" transform="translate(68.645 112.37)" fill="#ebebeb"/>
      <path id="Path_4566" data-name="Path 4566" d="M275.45,238.77h2.587l-1.181,1.815Z" transform="translate(-202.104 -120.847)" fill="#263238"/>
      <path id="Path_4567" data-name="Path 4567" d="M239.318,265.94c0,.086-6.677.15-14.909.15s-14.909-.063-14.909-.15,6.677-.15,14.909-.15S239.318,265.859,239.318,265.94Z" transform="translate(-174.146 -132.301)" fill="#e0e0e0"/>
      <path id="Path_4568" data-name="Path 4568" d="M244.1,275.69c0,.081-9.793.15-21.891.15s-21.891-.069-21.891-.15,9.793-.15,21.891-.15S244.1,275.609,244.1,275.69Z" transform="translate(-170.255 -136.435)" fill="#e0e0e0"/>
      <path id="Path_4569" data-name="Path 4569" d="M250.968,292.59c0,.086-21,.156-46.9.156s-46.9-.069-46.9-.156,21-.15,46.9-.15S250.968,292.509,250.968,292.59Z" transform="translate(-151.958 -143.599)" fill="#263238"/>
      <path id="Path_4570" data-name="Path 4570" d="M240.077,303.857a94.157,94.157,0,0,1,0-10.617,94.138,94.138,0,0,1,0,10.617Z" transform="translate(-187.037 -143.938)" fill="#263238"/>
      <path id="Path_4571" data-name="Path 4571" d="M225.27,176.52l-2.7,6.187h-1.152l-2.7-6.187h1.244l2.057,4.77,2.08-4.77Z" transform="translate(-178.055 -94.458)" fill="#f7b74e"/>
      <path id="Path_4572" data-name="Path 4572" d="M234.551,181.751h-3.7a1.434,1.434,0,0,0,1.532,1.152,1.682,1.682,0,0,0,1.279-.513l.576.68a2.651,2.651,0,0,1-4.5-1.653,2.339,2.339,0,0,1,2.46-2.42,2.3,2.3,0,0,1,2.385,2.437C234.568,181.509,234.556,181.642,234.551,181.751Zm-3.71-.737h2.673a1.279,1.279,0,0,0-1.331-1.152,1.3,1.3,0,0,0-1.342,1.152Z" transform="translate(-182.721 -95.507)" fill="#f7b74e"/>
      <path id="Path_4573" data-name="Path 4573" d="M242.713,178.995v1.048a1.421,1.421,0,0,0-.253-.029,1.285,1.285,0,0,0-1.371,1.457v2.3H240v-4.718h1.054v.686A1.861,1.861,0,0,1,242.713,178.995Z" transform="translate(-187.076 -95.504)" fill="#f7b74e"/>
      <path id="Path_4574" data-name="Path 4574" d="M246.08,176.081a.668.668,0,0,1,.709-.662.651.651,0,0,1,.7.634.709.709,0,0,1-1.411,0Zm.15,1.44h1.106v4.718H246.23Z" transform="translate(-189.653 -93.99)" fill="#f7b74e"/>
      <path id="Path_4575" data-name="Path 4575" d="M252.16,175.62a1.769,1.769,0,0,1,1,.259l-.311.83a1.083,1.083,0,0,0-.611-.2c-.461,0-.7.253-.7.76v.282h1.3v.881h-1.262v3.8h-1.152v-3.8h-.772v-.881h.772v-.3a1.527,1.527,0,0,1,1.728-1.636Zm1.982.461a.668.668,0,0,1,.709-.662.651.651,0,0,1,.7.634.709.709,0,0,1-1.411,0Zm.15,1.44H255.4v4.718h-1.106Z" transform="translate(-191.171 -93.99)" fill="#f7b74e"/>
      <path id="Path_4576" data-name="Path 4576" d="M266.215,181.761h-3.7a1.429,1.429,0,0,0,1.527,1.152,1.728,1.728,0,0,0,1.285-.513l.576.68a2.651,2.651,0,0,1-4.5-1.653,2.345,2.345,0,0,1,2.437-2.408,2.3,2.3,0,0,1,2.385,2.437A1.391,1.391,0,0,1,266.215,181.761Zm-3.71-.737h2.7a1.285,1.285,0,0,0-1.337-1.152,1.308,1.308,0,0,0-1.36,1.152Z" transform="translate(-196.147 -95.516)" fill="#f7b74e"/>
      <path id="Path_4577" data-name="Path 4577" d="M275.955,175.88v6.556h-1.06v-.611a1.953,1.953,0,0,1-1.561.668,2.414,2.414,0,0,1,0-4.828,1.924,1.924,0,0,1,1.515.634v-2.42Zm-1.089,4.194a1.406,1.406,0,1,0-1.406,1.475,1.383,1.383,0,0,0,1.406-1.475Z" transform="translate(-200.184 -94.187)" fill="#f7b74e"/>
      <circle id="Ellipse_471" data-name="Ellipse 471" cx="4.845" cy="4.845" r="4.845" transform="translate(27.116 80.109)" fill="#f7b74e"/>
      <path id="Path_4578" data-name="Path 4578" d="M199.81,180.356l.622-.622,1.2,1.066,2.356-2.27.576.622L201.544,182Z" transform="translate(-170.038 -95.31)" fill="#fff"/>
      <path id="Path_4579" data-name="Path 4579" d="M204.252,356.27H166.231A10.266,10.266,0,0,1,156,345.987V311.67h48.281Z" transform="translate(-151.466 -151.751)" fill="#ebebeb"/>
      <path id="Path_4580" data-name="Path 4580" d="M274.5,356.362,239,356.27v-44.6h46.19V345.7A10.894,10.894,0,0,1,274.5,356.362Z" transform="translate(-186.652 -151.751)" fill="#455a64"/>
      <path id="Path_4581" data-name="Path 4581" d="M250.973,311.56c0,.081-21,.15-46.9.15s-46.9-.069-46.9-.15,20.992-.15,46.9-.15S250.973,311.479,250.973,311.56Z" transform="translate(-151.962 -151.641)" fill="#263238"/>
      <path id="Path_4582" data-name="Path 4582" d="M204.156,350.846s-.052,0-.133-.081l-.363-.265-1.371-1.025-5.012-3.825c-1.054-.8-2.218-1.728-3.456-2.633a2.034,2.034,0,0,0-2.16.075,8.863,8.863,0,0,0-.9.858l-.916.927-8.065,8.146-.5.5-.092.092-.1-.075-4.655-3.457-2.212-1.653a2.091,2.091,0,0,0-2.3-.386,4.084,4.084,0,0,0-.956.766l-.91.847-1.728,1.613-3.111,2.88-4.511,4.159-1.239,1.118-.323.288q-.109.1-.121.086a.575.575,0,0,1,.1-.109l.305-.305,1.2-1.152,4.447-4.228,3.088-2.915,1.728-1.619.9-.853.461-.432a2.388,2.388,0,0,1,.576-.386,2.264,2.264,0,0,1,1.354-.2,2.166,2.166,0,0,1,.668.219,3.457,3.457,0,0,1,.576.386l2.218,1.642,4.66,3.457h-.2l.5-.507,8.065-8.128.922-.922a8.635,8.635,0,0,1,.939-.887,2.3,2.3,0,0,1,2.437-.069c1.279.951,2.4,1.861,3.456,2.679l4.954,3.9,1.342,1.072.34.288A.577.577,0,0,1,204.156,350.846Z" transform="translate(-152.747 -164.813)" fill="#263238"/>
      <path id="Path_4583" data-name="Path 4583" d="M198.378,327.827a7.861,7.861,0,0,0-.19-1.008,4.177,4.177,0,0,0-1.532-2.235,4.033,4.033,0,0,0-1.728-.743,4.114,4.114,0,0,0-2.126.184,4.054,4.054,0,0,0-1.878,6.193,4.09,4.09,0,0,0,4,1.6,3.993,3.993,0,0,0,1.728-.749,4.177,4.177,0,0,0,1.532-2.235c.173-.634.156-1.008.19-1.008a1.393,1.393,0,0,1,0,.271,3.37,3.37,0,0,1-.086.766,4.165,4.165,0,0,1-1.515,2.373,4.234,4.234,0,0,1-1.8.824,4.313,4.313,0,0,1-2.27-8.3,4.355,4.355,0,0,1,2.27-.173,4.3,4.3,0,0,1,1.8.824,4.182,4.182,0,0,1,1.515,2.373,3.41,3.41,0,0,1,.086.772A1.354,1.354,0,0,1,198.378,327.827Z" transform="translate(-165.812 -156.773)" fill="#263238"/>
      <path id="Path_4584" data-name="Path 4584" d="M284.753,348.367s-.046,0-.127-.081l-.346-.259L282.956,347l-4.833-3.831c-1.014-.8-2.132-1.728-3.324-2.633a1.866,1.866,0,0,0-2.085.109,10.059,10.059,0,0,0-.858.858l-.876.927-7.714,8.117-.484.5-.092.1-.109-.081-4.488-3.456-2.132-1.653a1.924,1.924,0,0,0-2.235-.357,4.562,4.562,0,0,0-.916.772l-.87.847-1.665,1.607-2.99,2.88-4.326,4.148-1.187,1.118-.317.282c-.069.063-.109.1-.115.092a.575.575,0,0,1,.1-.109c.075-.086.173-.184.288-.305l1.152-1.152,4.263-4.217,2.961-2.909c.536-.518,1.083-1.06,1.653-1.619l.864-.847.444-.432a2.383,2.383,0,0,1,.53-.392,2.142,2.142,0,0,1,1.325-.225,2.046,2.046,0,0,1,.657.213,3.744,3.744,0,0,1,.576.386l2.131,1.648,4.493,3.456h-.2l.484-.507,7.731-8.1.881-.922a10.072,10.072,0,0,1,.9-.887,2.137,2.137,0,0,1,2.373-.109c1.239.951,2.3,1.861,3.33,2.679l4.77,3.906,1.285,1.077.328.282Z" transform="translate(-187.644 -163.763)" fill="#263238"/>
      <path id="Path_4585" data-name="Path 4585" d="M276.452,325.6a6.959,6.959,0,0,0-.184-1,4.136,4.136,0,0,0-1.532-2.235,4.057,4.057,0,0,0-5.72,5.628,4.056,4.056,0,0,0,5.72.835,4.153,4.153,0,0,0,1.532-2.235,9.788,9.788,0,0,0,.184-1.008.822.822,0,0,1,0,.271,3.37,3.37,0,0,1-.086.766,4.177,4.177,0,0,1-1.469,2.4,4.3,4.3,0,0,1-1.8.818,4.24,4.24,0,0,1-2.27-.173,4.309,4.309,0,1,1,4.073-7.472,4.177,4.177,0,0,1,1.515,2.379,3.368,3.368,0,0,1,.086.766A.765.765,0,0,1,276.452,325.6Z" transform="translate(-198.929 -155.831)" fill="#263238"/>
      <circle id="Ellipse_472" data-name="Ellipse 472" cx="13.342" cy="13.342" r="13.342" transform="translate(39.715 42.687)" fill="#f5f5f5"/>
      <path id="Path_4586" data-name="Path 4586" d="M242.482,143.324a8.486,8.486,0,0,0-8.641-7.575,8.8,8.8,0,0,0-8.641,7.6,11.883,11.883,0,0,0,8.641,3.191A12.281,12.281,0,0,0,242.482,143.324Z" transform="translate(-180.802 -77.173)" fill="#e0e0e0"/>
      <circle id="Ellipse_473" data-name="Ellipse 473" cx="5.246" cy="5.246" r="5.246" transform="matrix(0.16, -0.987, 0.987, 0.16, 47.291, 58.23)" fill="#e0e0e0"/>
      <path id="Path_4587" data-name="Path 4587" d="M242.528,135.761a10.074,10.074,0,0,0-.812-2.466,8.272,8.272,0,0,0-1.89-2.3,10.37,10.37,0,0,0-3.4-1.913l-.277-.086.253-.133a5.185,5.185,0,0,0,2.08-2.08,5.087,5.087,0,1,0-8.964,0,5.231,5.231,0,0,0,.91,1.221,6.612,6.612,0,0,0,1.152.887l.23.144-.265.075a7.962,7.962,0,0,0-3.41,1.884,8.641,8.641,0,0,0-1.786,2.408,10.269,10.269,0,0,0-.7,1.8c-.063.213-.1.38-.133.49a.628.628,0,0,1-.046.167.489.489,0,0,1,0-.173,2.648,2.648,0,0,1,.1-.5,9.217,9.217,0,0,1,.651-1.843,8.567,8.567,0,0,1,1.774-2.494,8.117,8.117,0,0,1,3.456-1.976l-.035.219a6.957,6.957,0,0,1-1.21-.9,5.5,5.5,0,0,1-.968-1.279,5.381,5.381,0,1,1,7.236,2.178v-.225a10.312,10.312,0,0,1,3.456,2,8.146,8.146,0,0,1,1.884,2.4,6.912,6.912,0,0,1,.409,1.048,4.912,4.912,0,0,1,.2.8c.029.2.052.369.069.507A.4.4,0,0,0,242.528,135.761Z" transform="translate(-180.911 -70.065)" fill="#263238"/>
      <path id="Path_4588" data-name="Path 4588" d="M243.648,121.4a.951.951,0,0,1-.029-.219,3.427,3.427,0,0,0-.046-.628l-.029-.467a4.211,4.211,0,0,0-.092-.576,9.453,9.453,0,0,0-.282-1.377,12.705,12.705,0,0,0-1.481-3.526,13.25,13.25,0,0,0-15.9-5.64,13.753,13.753,0,0,0-1.728.76,13.549,13.549,0,0,0-1.619,1.043,14.842,14.842,0,0,0-1.5,1.273,15.17,15.17,0,0,0-1.3,1.532,12.817,12.817,0,0,0-1.884,3.635,13.117,13.117,0,0,0,0,8.336,12.85,12.85,0,0,0,1.884,3.641,15.83,15.83,0,0,0,1.3,1.532,14.834,14.834,0,0,0,1.5,1.273,14.3,14.3,0,0,0,1.619,1.043,13.3,13.3,0,0,0,17.634-4.862,12.674,12.674,0,0,0,1.48-3.531,9.388,9.388,0,0,0,.282-1.371c.035-.2.069-.386.092-.576l.029-.467c0-.265.035-.472.046-.634a.927.927,0,0,1,.029-.213,1.054,1.054,0,0,1,0,.219v1.1c0,.167-.052.363-.075.576a9.4,9.4,0,0,1-.259,1.388,12.794,12.794,0,0,1-1.452,3.589,13.389,13.389,0,0,1-16.136,5.8,14.354,14.354,0,0,1-1.763-.772,14.145,14.145,0,0,1-1.659-1.06,14.775,14.775,0,0,1-1.532-1.3,15.035,15.035,0,0,1-1.325-1.561,13.071,13.071,0,0,1-1.936-3.721,14.611,14.611,0,0,1-.7-4.257,14.4,14.4,0,0,1,.7-4.263,12.951,12.951,0,0,1,1.93-3.716,15.1,15.1,0,0,1,1.325-1.567,16.128,16.128,0,0,1,1.532-1.3,14.145,14.145,0,0,1,1.659-1.06,14.355,14.355,0,0,1,1.763-.772,13.392,13.392,0,0,1,16.136,5.8,12.767,12.767,0,0,1,1.452,3.583,9.471,9.471,0,0,1,.259,1.394,5.8,5.8,0,0,0,.075.576,4.292,4.292,0,0,1,0,.472v.634A1.054,1.054,0,0,1,243.648,121.4Z" transform="translate(-177.249 -65.368)" fill="#263238"/>
    </g>
    <g id="freepik--Plant--inject-2" transform="translate(27.8 147.517)">
      <path id="Path_4589" data-name="Path 4589" d="M124.41,236.53c-7.005,3.629-12.38,9.88-16.24,16.758s-6.337,14.431-8.82,21.925l-2.16,38.655c8.151-13.866,14.7-30.169,16.464-46.161l-5.427-.484c3.641-.576,6.694-3.191,8.641-6.337s2.944-6.734,3.917-10.277l-6.619.979A24.512,24.512,0,0,0,124.41,236.53Z" transform="translate(-57.216 -233.344)" fill="#455a64"/>
      <path id="Path_4590" data-name="Path 4590" d="M124.41,236.53c-7.005,3.629-12.38,9.88-16.24,16.758s-6.337,14.431-8.82,21.925l-2.16,38.655c8.151-13.866,14.7-30.169,16.464-46.161l-5.427-.484c3.641-.576,6.694-3.191,8.641-6.337s2.944-6.734,3.917-10.277l-6.619.979A24.512,24.512,0,0,0,124.41,236.53Z" transform="translate(-57.216 -233.344)" fill="#455a64"/>
      <path id="Path_4591" data-name="Path 4591" d="M82.194,320.586S64.5,299.4,64.7,279.183h7.149s-7.766-5.1-7.149-7.961.818-13.688.818-13.688l6.538,1.636s-4.9-2.448-5.519-6.337S67.971,231,67.971,231s7.967,8.37,10.421,16.948,8.883,18.584,6.994,44.727S82.194,320.586,82.194,320.586Z" transform="translate(-43.43 -231)" fill="#455a64"/>
      <path id="Path_4592" data-name="Path 4592" d="M110.664,339.553s19.172-12.772,23.429-29.075l-5.761-1.561s7.362-2.408,7.489-4.839,2.3-11.182,2.3-11.182l-5.611-.115s4.476-.9,5.818-3.883,3.681-17.9,3.681-17.9-8.238,4.995-12.1,11.354-11.21,13-15.41,34.426S110.664,339.553,110.664,339.553Z" transform="translate(-62.925 -247.957)" fill="#455a64"/>
      <path id="Path_4593" data-name="Path 4593" d="M78.8,263a.669.669,0,0,0,.058.219,6.143,6.143,0,0,1,.156.651c.132.576.317,1.44.576,2.517s.53,2.431.835,3.986.68,3.33,1.037,5.294c.76,3.929,1.555,8.641,2.379,13.826s1.6,10.986,2.3,17.046,1.233,11.856,1.648,17.127.686,10.03.841,14.022c.1,2,.15,3.808.2,5.4s.081,2.955.092,4.073,0,1.97.029,2.575v.9a.921.921,0,0,1,0-.23v-.668c0-.6-.052-1.469-.086-2.575s-.075-2.483-.144-4.067-.133-3.393-.242-5.392c-.19-3.992-.507-8.739-.91-14.01s-.979-11.055-1.671-17.115-1.5-11.815-2.3-17.04-1.584-9.92-2.3-13.826c-.346-1.97-.7-3.739-.991-5.3s-.576-2.88-.789-4-.386-1.93-.5-2.523c-.052-.282-.1-.5-.127-.663A1.277,1.277,0,0,1,78.8,263Z" transform="translate(-49.42 -244.566)" fill="#263238"/>
      <path id="Path_4594" data-name="Path 4594" d="M64.11,372.627s-16.194-18.36-21.217-29.466l3.8-1.642A9.837,9.837,0,0,1,38.982,339a29.139,29.139,0,0,1-5.237-6.487l5-.847A18.579,18.579,0,0,1,27.8,323.2c5.9.974,11.239,4.211,15.635,8.267a77.344,77.344,0,0,1,9.476,10.98,37.019,37.019,0,0,1,3.681,6.049C59.334,354.135,64.122,365.893,64.11,372.627Z" transform="translate(-27.8 -270.086)" fill="#455a64"/>
      <path id="Path_4595" data-name="Path 4595" d="M131.186,289.57a.744.744,0,0,1-.075.184l-.248.536c-.236.484-.576,1.152-.991,2.034s-.962,1.964-1.561,3.226-1.3,2.69-2.028,4.286c-1.5,3.186-3.215,7-5.064,11.262s-3.779,9-5.72,14-3.664,9.793-5.185,14.2-2.8,8.382-3.837,11.74c-.53,1.676-.974,3.2-1.383,4.539s-.743,2.489-1.014,3.456-.484,1.659-.639,2.172l-.173.576a.968.968,0,0,1-.069.19,1.2,1.2,0,0,1,.04-.2c.035-.144.086-.328.144-.576L103.96,359c.253-.945.576-2.108.962-3.456s.824-2.88,1.342-4.551c1.008-3.37,2.3-7.356,3.773-11.763s3.238-9.217,5.185-14.223,3.9-9.73,5.761-14,3.606-8.065,5.121-11.239c.749-1.6,1.457-3.019,2.074-4.274s1.152-2.3,1.607-3.2l1.037-2.01.277-.518a1.059,1.059,0,0,1,.086-.2Z" transform="translate(-59.764 -255.829)" fill="#263238"/>
      <path id="Path_4596" data-name="Path 4596" d="M84.491,399.578a1.531,1.531,0,0,1-.075-.34l-.156-.974c-.063-.426-.138-.945-.253-1.544s-.207-1.285-.374-2.034c-.288-1.5-.7-3.278-1.233-5.237s-1.216-4.067-2.039-6.256-1.728-4.223-2.6-6.049-1.728-3.422-2.535-4.741c-.374-.674-.749-1.256-1.066-1.774s-.576-.968-.83-1.325l-.53-.835a1.907,1.907,0,0,1-.167-.3,1.266,1.266,0,0,1,.219.265l.576.806c.248.346.547.783.876,1.3s.714,1.089,1.1,1.757c.807,1.308,1.688,2.915,2.6,4.73a65.154,65.154,0,0,1,2.638,6.06,65.626,65.626,0,0,1,2.022,6.3,50.822,50.822,0,0,1,1.152,5.265c.15.755.236,1.446.328,2.051s.161,1.123.2,1.55.075.726.1.985A1.308,1.308,0,0,1,84.491,399.578Z" transform="translate(-46.804 -289.15)" fill="#263238"/>
      <rect id="Rectangle_1568" data-name="Rectangle 1568" width="35.44" height="7.23" transform="translate(23.613 106.108)" fill="#edd185"/>
      <path id="Path_4597" data-name="Path 4597" d="M74.65,427.74l3.837,24.316H99.9l3.572-24.316Z" transform="translate(-47.661 -314.403)" fill="#edd185"/>
      <path id="Path_4598" data-name="Path 4598" d="M104.5,427.626c0,.081-6.706.15-14.978.15s-14.978-.069-14.978-.15,6.706-.156,14.978-.156S104.5,427.539,104.5,427.626Z" transform="translate(-47.614 -314.288)" fill="#263238"/>
      <g id="Group_2708" data-name="Group 2708" transform="translate(39.974 3.186)" opacity="0.3">
        <path id="Path_4599" data-name="Path 4599" d="M124.41,236.53c-7.005,3.629-12.38,9.88-16.24,16.758s-6.337,14.431-8.82,21.925l-2.16,38.655c8.151-13.866,14.7-30.169,16.464-46.161l-5.427-.484c3.641-.576,6.694-3.191,8.641-6.337s2.944-6.734,3.917-10.277l-6.619.979A24.512,24.512,0,0,0,124.41,236.53Z" transform="translate(-97.19 -236.53)"/>
      </g>
    </g>
    <g id="freepik--Character--inject-2" transform="translate(182.794 77.25)">
      <path id="Path_4600" data-name="Path 4600" d="M378.121,289.656s5.876,9.753,6.752,19.039-5.329,84.326-5.329,84.326h-73.1s19.587-92.662,25.993-98.607l.438-6.164Z" transform="translate(-300.916 -185.002)" fill="#263238"/>
      <path id="Path_4601" data-name="Path 4601" d="M381.795,303.6a11.17,11.17,0,0,1-.029,1.308,15.657,15.657,0,0,1-.7,3.681,16.838,16.838,0,0,1-2.731,5.26,15.855,15.855,0,0,1-2.592,2.667,26.5,26.5,0,0,1-3.456,2.3c-1.262.737-2.61,1.452-3.958,2.3a17.244,17.244,0,0,0-3.819,3.065,13.936,13.936,0,0,0-2.6,4.522,28.543,28.543,0,0,0-1.192,5.461c-.259,1.9-.426,3.866-.686,5.87a27.528,27.528,0,0,1-1.383,6.026,13.642,13.642,0,0,1-3.543,5.317,21.137,21.137,0,0,1-5.565,3.531c-4.033,1.849-8.272,3.03-11.85,5.185a15.749,15.749,0,0,0-4.522,4.033,18.561,18.561,0,0,0-2.564,5.248c-1.152,3.652-1.671,7.3-2.627,10.6-.127.409-.253.818-.374,1.221s-.282.789-.421,1.181a23.778,23.778,0,0,1-1,2.229c-.34.72-.772,1.377-1.152,2.034-.213.317-.432.628-.645.933l-.317.455-.346.432a24.678,24.678,0,0,1-5.761,5.329,24.407,24.407,0,0,1-5.3,2.673,24.1,24.1,0,0,1-3.624.962l-.962.144-.334.04.328-.069.956-.173a25.274,25.274,0,0,0,3.595-1.014,24.847,24.847,0,0,0,10.945-8.025l.34-.426.317-.455.634-.927c.38-.651.806-1.3,1.152-2.022a22.627,22.627,0,0,0,.985-2.206c.138-.386.271-.778.409-1.152s.248-.807.369-1.216c.945-3.278,1.429-6.913,2.6-10.617a18.873,18.873,0,0,1,2.6-5.329,15.941,15.941,0,0,1,4.609-4.13c3.624-2.195,7.852-3.376,11.873-5.219a20.7,20.7,0,0,0,5.49-3.456,13.359,13.359,0,0,0,3.456-5.185,27.331,27.331,0,0,0,1.337-6.008c.259-1.993.432-3.958.7-5.864a29.28,29.28,0,0,1,1.21-5.513A14.361,14.361,0,0,1,364.311,324a17.6,17.6,0,0,1,3.889-3.094c1.36-.829,2.713-1.544,3.969-2.264a27.142,27.142,0,0,0,3.456-2.3,15.948,15.948,0,0,0,2.575-2.615,16.994,16.994,0,0,0,2.748-5.185,16.038,16.038,0,0,0,.755-3.652c.046-.426.046-.749.063-.974S381.795,303.6,381.795,303.6Z" transform="translate(-301.467 -191.51)" fill="#455a64"/>
      <path id="Path_4602" data-name="Path 4602" d="M390.09,315.44a2.752,2.752,0,0,1,.109.294,6.154,6.154,0,0,1,.248.876,8.44,8.44,0,0,1-.063,3.5,12.447,12.447,0,0,1-2.391,4.983,32.163,32.163,0,0,1-5.306,5.075,31.881,31.881,0,0,0-6.3,6.193,12.1,12.1,0,0,0-1.947,4.47,35.709,35.709,0,0,0-.576,5.185,27.207,27.207,0,0,1-.766,5.484,24.228,24.228,0,0,1-2.1,5.386,24.639,24.639,0,0,1-8.111,8.923c-3.52,2.3-7.489,3.41-10.974,5.144a18.35,18.35,0,0,0-4.712,3.191,14.9,14.9,0,0,0-3.088,4.476c-1.48,3.261-2.091,6.654-2.915,9.741a39.805,39.805,0,0,1-1.406,4.424,19.294,19.294,0,0,1-2.011,3.779,16.127,16.127,0,0,1-2.6,2.88c-.449.421-.939.766-1.394,1.123a9.22,9.22,0,0,1-1.423.9,17.508,17.508,0,0,1-5.185,2.016,17.279,17.279,0,0,1-3.485.363l-.91-.046h.91a18.473,18.473,0,0,0,3.456-.421,17.663,17.663,0,0,0,5.1-2.045,15.431,15.431,0,0,0,1.394-.9,11.3,11.3,0,0,0,1.377-1.123,16.16,16.16,0,0,0,2.558-2.88,19.339,19.339,0,0,0,1.97-3.745,40.222,40.222,0,0,0,1.377-4.4c.818-3.076,1.411-6.487,2.88-9.793a15.178,15.178,0,0,1,3.134-4.568,18.552,18.552,0,0,1,4.787-3.243c3.514-1.757,7.489-2.88,10.946-5.133a24.368,24.368,0,0,0,10.1-14.131,27.368,27.368,0,0,0,.766-5.432,34.351,34.351,0,0,1,.576-5.237,12.328,12.328,0,0,1,1.993-4.557,31.925,31.925,0,0,1,6.371-6.21,32.258,32.258,0,0,0,5.386-5,12.461,12.461,0,0,0,2.414-4.9,8.785,8.785,0,0,0,.115-3.456C390.234,315.837,390.067,315.446,390.09,315.44Z" transform="translate(-307.711 -196.529)" fill="#455a64"/>
      <path id="Path_4603" data-name="Path 4603" d="M311.05,222.5s4.741,32.7,12.034,35.872c3.675,1.607,6.631.225,8.641-3.456s7.143-30.428,7.143-30.428l-14.189-.334-.53,5.317-5.473-10.179Z" transform="translate(-302.87 -155.769)" fill="#936760"/>
      <path id="Path_4604" data-name="Path 4604" d="M337.6,243.831a1.013,1.013,0,0,0-.121-.259l-.386-.714-1.429-2.621c-1.221-2.212-2.88-5.277-4.73-8.67s-3.456-6.452-4.649-8.716l-1.406-2.644-.386-.714c-.092-.161-.144-.248-.156-.242a1.452,1.452,0,0,0,.1.265l.346.737c.305.639.755,1.555,1.325,2.69,1.152,2.258,2.748,5.358,4.609,8.751s3.537,6.446,4.8,8.641c.634,1.095,1.152,1.97,1.527,2.575l.432.691a1.329,1.329,0,0,0,.121.23Z" transform="translate(-308.504 -155.751)" fill="#6f4c47"/>
      <path id="Path_4605" data-name="Path 4605" d="M398.869,217.947l-4.05,18.118,1.918,12.161H352.23l2.909-56.761,11.1-.945,27.11,4.58Z" transform="translate(-320.327 -143.572)" fill="#f7b74e"/>
      <path id="Path_4606" data-name="Path 4606" d="M413.54,197.865s11.591-1.066,17.115,6.821c3.382,4.828,8.123,15.917,8.123,15.917l-15.433,2.667Z" transform="translate(-346.318 -146.665)" fill="#f7b74e"/>
      <g id="Group_2709" data-name="Group 2709" transform="translate(63.393 69.31)" opacity="0.3">
        <path id="Path_4607" data-name="Path 4607" d="M417.751,234.616a9.413,9.413,0,0,0-8.584-5.277,2.362,2.362,0,0,0-2.051.858,2.728,2.728,0,0,0,.115,2.339,4.405,4.405,0,0,0,1.843,2.5,16.663,16.663,0,0,0,2.247.576,7.189,7.189,0,0,1,2.385,1.509,6.637,6.637,0,0,1,1.573,1.665,6.459,6.459,0,0,1,.611,1.728c.755,2.961,1.354,9.073,2.1,12.034l.83-2.552q.035-3.652.063-7.3C418.909,239.928,418.909,237.093,417.751,234.616Z" transform="translate(-406.894 -229.338)"/>
      </g>
      <path id="Path_4608" data-name="Path 4608" d="M401.72,263.7c0-.046.576.058,1.578.133a18.44,18.44,0,0,0,3.8-.092,18.914,18.914,0,0,0,3.7-.881c.922-.323,1.475-.576,1.492-.536a1.519,1.519,0,0,1-.363.225,10.542,10.542,0,0,1-1.06.49,15.553,15.553,0,0,1-7.581.991,10.064,10.064,0,0,1-1.152-.2,1.245,1.245,0,0,1-.409-.127Z" transform="translate(-341.307 -174.011)" fill="#263238"/>
      <path id="Path_4609" data-name="Path 4609" d="M368,266.1c0-.069,6.337,1.728,14.062,4.033s14.016,4.194,13.993,4.269-6.337-1.728-14.068-4.033S368,266.173,368,266.1Z" transform="translate(-327.012 -175.611)" fill="#263238"/>
      <g id="Group_2710" data-name="Group 2710" transform="translate(60.73 88.736)" opacity="0.3">
        <path id="Path_4610" data-name="Path 4610" d="M402.27,264.091a5.577,5.577,0,0,0,5.225,2.425,5.041,5.041,0,0,0,4.234-3.456A18.52,18.52,0,0,1,402.27,264.091Z" transform="translate(-402.27 -263.06)"/>
      </g>
      <g id="Group_2711" data-name="Group 2711" transform="translate(44.795 91.634)" opacity="0.3">
        <path id="Path_4611" data-name="Path 4611" d="M397.169,274.669l-.161.063a22.04,22.04,0,0,1-11.522-1.36,71.232,71.232,0,0,1-10.876-5.283Z" transform="translate(-374.61 -268.09)"/>
      </g>
      <path id="Path_4612" data-name="Path 4612" d="M346.139,192.156s-7.339.9-10.185,7.166A109.657,109.657,0,0,0,331,213.079l14.978,3.37s2.356-12.674,2.535-17.127C348.714,194.431,348.91,192.012,346.139,192.156Z" transform="translate(-311.327 -144.263)" fill="#f7b74e"/>
      <path id="Path_4613" data-name="Path 4613" d="M354.722,231.633a65.123,65.123,0,0,1,.017-8.393,32.342,32.342,0,0,1,.127,4.194A32.932,32.932,0,0,1,354.722,231.633Z" transform="translate(-321.322 -157.443)" fill="#263238"/>
      <path id="Path_4614" data-name="Path 4614" d="M366.081,116.759a20.067,20.067,0,0,1,15.554-7.731c3.526-.058,4.989.674,7.529,1.36a11.147,11.147,0,0,1,6.337,4.2,18.678,18.678,0,0,1,3.658,8.526,52.707,52.707,0,0,1,.455,9.615,17.536,17.536,0,0,1-3,9.027l-8.151,1.417c-4.5.15-9.067.3-13.451-.726s-8.641-3.387-10.992-7.23C360.764,129.876,362.118,121.6,366.081,116.759Z" transform="translate(-324.552 -109.024)" fill="#263238"/>
      <path id="Path_4615" data-name="Path 4615" d="M417.66,168.325a1.678,1.678,0,0,0,.49.426,3.975,3.975,0,0,0,1.676.576,4.232,4.232,0,0,0,2.189-8.082,4.032,4.032,0,0,0-1.728-.357,1.262,1.262,0,0,0-.634.121,6.14,6.14,0,0,1,2.235.518,4.222,4.222,0,0,1,1.728,1.671,4.032,4.032,0,0,1-1.406,5.185,4.176,4.176,0,0,1-2.3.576A6.049,6.049,0,0,1,417.66,168.325Z" transform="translate(-348.064 -131.009)" fill="#e0e0e0"/>
      <path id="Path_4616" data-name="Path 4616" d="M355.19,159.662a6.1,6.1,0,0,1,2.759-4.609,4.378,4.378,0,0,1,5.144.444l1.285,1.527a5.271,5.271,0,0,1,3.024,5.306,5.761,5.761,0,0,1-4,4.718,6.383,6.383,0,0,1-6.072-1.469A7.166,7.166,0,0,1,355.19,159.662Z" transform="translate(-321.564 -128.269)" fill="#263238"/>
      <path id="Path_4617" data-name="Path 4617" d="M357.448,166.68a2.731,2.731,0,0,1-.438-1.625,7.358,7.358,0,0,1,1.861-3.658,11.038,11.038,0,0,1,3.266-2.621c.956-.513,1.613-.7,1.59-.766a4.419,4.419,0,0,0-1.728.513,9.752,9.752,0,0,0-3.456,2.615,9.527,9.527,0,0,0-1.319,2,4.355,4.355,0,0,0-.524,1.907,2.263,2.263,0,0,0,.363,1.29C357.293,166.605,357.448,166.7,357.448,166.68Z" transform="translate(-322.221 -129.791)" fill="#455a64"/>
      <path id="Path_4618" data-name="Path 4618" d="M364.569,169.694a17.934,17.934,0,0,1,.363-5.386,20.563,20.563,0,0,1,2.3-4.868,4.384,4.384,0,0,0-1.077,1.21,11.239,11.239,0,0,0-1.63,3.56,11.384,11.384,0,0,0-.323,3.9,4.5,4.5,0,0,0,.363,1.584Z" transform="translate(-325.384 -130.397)" fill="#455a64"/>
      <path id="Path_4619" data-name="Path 4619" d="M394.319,158.871c-.052-2.88-.121-5.185-.121-5.185s6.648-.732,8.48-9.246c.916-4.234,1.083-11.257,1.037-17-.04-5.185-4.447-12.213-10.83-12.236l-2.84-.334-10.865,4.321a3.024,3.024,0,0,0-2.88,2.915l-.3,36.374,10.5,25.5,7.535-10.214Z" transform="translate(-330.404 -111.503)" fill="#936760"/>
      <path id="Path_4620" data-name="Path 4620" d="M400.133,161.577a1.8,1.8,0,0,1,.622-1.118,1.861,1.861,0,0,1,2.252-.132,2.477,2.477,0,0,1,.939,2.333h0a2.241,2.241,0,0,1-1.613.933,2.654,2.654,0,0,1-.305,0,2.016,2.016,0,0,1-1.365-.542A1.8,1.8,0,0,1,400.133,161.577Z" transform="translate(-340.63 -130.638)" fill="#6f4c47"/>
      <path id="Path_4621" data-name="Path 4621" d="M415.156,146.114a1.1,1.1,0,0,1-1.123,1.054,1.054,1.054,0,0,1-1.083-1.054,1.106,1.106,0,0,1,1.123-1.054,1.054,1.054,0,0,1,1.083,1.054Z" transform="translate(-346.068 -124.3)" fill="#263238"/>
      <path id="Path_4622" data-name="Path 4622" d="M417.223,141.288c-.144.132-.945-.53-2.131-.576s-2.085.484-2.206.334.092-.323.484-.576a3.076,3.076,0,0,1,1.78-.444,2.926,2.926,0,0,1,1.688.651C417.183,140.959,417.292,141.224,417.223,141.288Z" transform="translate(-346.026 -122.165)" fill="#263238"/>
      <path id="Path_4623" data-name="Path 4623" d="M407.5,150.518a7.621,7.621,0,0,1,1.941-.242c.305,0,.576-.058.657-.265a1.5,1.5,0,0,0-.15-.9c-.248-.749-.5-1.538-.772-2.356a39.551,39.551,0,0,1-1.676-6.141,39.211,39.211,0,0,1,2.166,5.991c.254.824.5,1.613.732,2.368a1.728,1.728,0,0,1,.092,1.192.737.737,0,0,1-.524.415,1.878,1.878,0,0,1-.518.046A7.541,7.541,0,0,1,407.5,150.518Z" transform="translate(-343.75 -122.414)" fill="#263238"/>
      <path id="Path_4624" data-name="Path 4624" d="M399.247,179.518a21.891,21.891,0,0,1-11.337-3.7s2.736,6.124,11.383,5.79Z" transform="translate(-335.453 -137.341)" fill="#6f4c47"/>
      <path id="Path_4625" data-name="Path 4625" d="M401.183,158.9c.2,0,.127,1.285,1.152,2.258s2.431.91,2.431,1.089c0,.081-.317.236-.9.219a3.226,3.226,0,0,1-2.034-.835,2.817,2.817,0,0,1-.9-1.89C400.936,159.2,401.1,158.888,401.183,158.9Z" transform="translate(-340.972 -130.168)" fill="#263238"/>
      <path id="Path_4626" data-name="Path 4626" d="M416.772,133.628c-.213.277-1.112.035-2.178.063s-1.959.259-2.178,0c-.1-.133.035-.409.415-.68a3.181,3.181,0,0,1,1.757-.513,3.111,3.111,0,0,1,1.757.472C416.772,133.219,416.882,133.49,416.772,133.628Z" transform="translate(-345.829 -118.975)" fill="#263238"/>
      <path id="Path_4627" data-name="Path 4627" d="M392.829,145.63a1.1,1.1,0,0,0,1.043,1.152,1.06,1.06,0,0,0,1.152-.974,1.1,1.1,0,0,0-1.043-1.152,1.054,1.054,0,0,0-1.152.974Z" transform="translate(-337.537 -124.128)" fill="#263238"/>
      <path id="Path_4628" data-name="Path 4628" d="M392.227,140.67c.133.144.979-.461,2.166-.438s2.045.634,2.178.49-.069-.323-.444-.576a3.036,3.036,0,0,0-1.728-.576,2.881,2.881,0,0,0-1.728.524C392.284,140.347,392.158,140.6,392.227,140.67Z" transform="translate(-337.275 -121.973)" fill="#263238"/>
      <path id="Path_4629" data-name="Path 4629" d="M391.027,136.163c.23.277,1.152,0,2.252,0s2.034.219,2.252-.063c.092-.133-.046-.4-.449-.668a3.456,3.456,0,0,0-1.826-.472,3.37,3.37,0,0,0-1.8.507C391.062,135.754,390.929,136.031,391.027,136.163Z" transform="translate(-336.761 -120.018)" fill="#263238"/>
      <path id="Path_4630" data-name="Path 4630" d="M374.5,150.689c.035-.645-.622-2.189-1.25-2.3-1.671-.351-4.724-.386-4.983,3.9-.363,5.853,5.588,5.006,5.611,4.839S374.386,152.9,374.5,150.689Z" transform="translate(-327.119 -125.649)" fill="#936760"/>
      <path id="Path_4631" data-name="Path 4631" d="M373.6,156.278c-.029,0-.109.063-.288.132a1.031,1.031,0,0,1-.76-.029,2.541,2.541,0,0,1-1.031-2.339,3.4,3.4,0,0,1,.374-1.446,1.152,1.152,0,0,1,.818-.732.513.513,0,0,1,.576.317c.069.167.029.282.058.294s.132-.092.1-.334a.634.634,0,0,0-.207-.38.743.743,0,0,0-.576-.184,1.429,1.429,0,0,0-1.123.841,3.516,3.516,0,0,0-.455,1.607,2.666,2.666,0,0,0,1.337,2.621,1.089,1.089,0,0,0,.939-.1C373.573,156.427,373.614,156.289,373.6,156.278Z" transform="translate(-328.317 -127.061)" fill="#6f4c47"/>
      <path id="Path_4632" data-name="Path 4632" d="M374.224,133.565l1.492,1.544c6.423-6.147,18.982-21.545,18.279-20.629a18.717,18.717,0,0,0-9.177-1c-4.781.812-13.826,3.2-13.7,8.843A29.114,29.114,0,0,0,374.224,133.565Z" transform="translate(-328.334 -110.836)" fill="#263238"/>
      <path id="Path_4633" data-name="Path 4633" d="M371.707,168.325a1.7,1.7,0,0,1-.484.426,3.976,3.976,0,0,1-1.682.576,4.231,4.231,0,0,1-2.183-8.082,4,4,0,0,1,1.728-.357,1.331,1.331,0,0,1,.639.121,6.141,6.141,0,0,0-2.224.542,4.234,4.234,0,0,0-1.728,1.671,4.033,4.033,0,0,0,1.406,5.185,4.205,4.205,0,0,0,2.339.576A5.985,5.985,0,0,0,371.707,168.325Z" transform="translate(-325.679 -131.01)" fill="#e0e0e0"/>
      <path id="Path_4634" data-name="Path 4634" d="M361.74,132.149a1.932,1.932,0,0,1,.092-.34,5.912,5.912,0,0,1,.4-.922,8.532,8.532,0,0,1,2.448-2.754,16.077,16.077,0,0,1,4.925-2.373c1.959-.634,4.171-1.152,6.337-2.062a28.636,28.636,0,0,0,5.761-3.238,30.014,30.014,0,0,0,4.084-3.572,32.459,32.459,0,0,0,2.362-2.8l.576-.812a1.85,1.85,0,0,1,.242-.277,1.226,1.226,0,0,1-.167.305c-.127.2-.3.484-.576.841a25.871,25.871,0,0,1-2.3,2.88,28.589,28.589,0,0,1-4.073,3.647,28.084,28.084,0,0,1-5.836,3.3,62.976,62.976,0,0,1-6.337,2.051,16.327,16.327,0,0,0-4.885,2.275,8.879,8.879,0,0,0-2.471,2.644C361.89,131.694,361.775,132.16,361.74,132.149Z" transform="translate(-324.359 -110.71)" fill="#455a64"/>
      <path id="Path_4635" data-name="Path 4635" d="M364.7,134a3.087,3.087,0,0,1,.23-1.279,5.991,5.991,0,0,1,2.2-2.759,13.29,13.29,0,0,1,4.885-1.913,28.806,28.806,0,0,0,6.072-1.93,25.853,25.853,0,0,0,5.415-3.341,26.624,26.624,0,0,0,3.71-3.647,27.992,27.992,0,0,0,2.068-2.846l.5-.818a1.637,1.637,0,0,1,.19-.277,1.075,1.075,0,0,1-.138.305c-.115.225-.265.507-.449.853a23.743,23.743,0,0,1-2,2.915,25.267,25.267,0,0,1-9.16,7.132,28.123,28.123,0,0,1-6.135,1.936,13.459,13.459,0,0,0-4.827,1.82,6.065,6.065,0,0,0-2.212,2.627A6.828,6.828,0,0,0,364.7,134Z" transform="translate(-325.612 -111.638)" fill="#455a64"/>
      <path id="Path_4636" data-name="Path 4636" d="M307.223,215.436c-.328-.121-.76-4.781-.76-4.781s-4.66-3.727-5.294-5.242-.542-5.127-.542-5.127l7.633-5.185a68.509,68.509,0,0,1,5.692,5.623c.662.887,1.152,3.335,1.5,5.317a20.4,20.4,0,0,1,.19,5.1l-.109,1.313S312.459,217.383,307.223,215.436Z" transform="translate(-298.449 -145.514)" fill="#936760"/>
      <path id="Path_4637" data-name="Path 4637" d="M299.921,199.737a19.789,19.789,0,0,1-1.561-1.55c-.991-1.071-2.091-2.074-1.152-3.209a1.659,1.659,0,0,1,1.192-.657s-.576-1-.075-1.625a1.463,1.463,0,0,1,1.21-.576,2.611,2.611,0,0,1-.058-2.391,2.35,2.35,0,0,1,2.3-.91s-3.094-6.3-3.278-6.625c-.691-1.192-.628-2.494.755-2.638.507-.052.945.346,2.258,2.3s3.514,5.271,3.514,5.271,2.4,2.034,3.606,3.174a36.141,36.141,0,0,1,4.142,4.609,12.316,12.316,0,0,1,.847,5.4l-8.756,3.75S300.485,200.238,299.921,199.737Z" transform="translate(-296.85 -138.923)" fill="#936760"/>
      <path id="Path_4638" data-name="Path 4638" d="M299.631,205.57a8.519,8.519,0,0,1,1.037.72l1.1.818a4.736,4.736,0,0,1,.622.536,1.417,1.417,0,0,1,.415.812.9.9,0,0,1-.323.864,1.152,1.152,0,0,1-.841.19,3.757,3.757,0,0,1-.726-.15c-.225-.063-.426-.127-.616-.19-.369-.121-.668-.23-.87-.317s-.305-.138-.3-.156.467.132,1.21.34a8.532,8.532,0,0,0,1.319.294,1.066,1.066,0,0,0,.7-.161.743.743,0,0,0,.248-.691,1.279,1.279,0,0,0-.363-.7,4.606,4.606,0,0,0-.576-.524l-1.077-.858A7.278,7.278,0,0,1,299.631,205.57Z" transform="translate(-297.817 -149.952)" fill="#6f4c47"/>
      <path id="Path_4639" data-name="Path 4639" d="M312.893,200.172a3.2,3.2,0,0,1-.409-1.44,3.249,3.249,0,0,1,.086-1.492c.063,0,0,.668.109,1.475A11.789,11.789,0,0,1,312.893,200.172Z" transform="translate(-303.457 -146.421)" fill="#6f4c47"/>
      <path id="Path_4640" data-name="Path 4640" d="M313.986,203.034a6.337,6.337,0,0,0-3.554-.478,11.856,11.856,0,0,0-3.456,1.095c-.876.415-1.832,1.025-1.953,1.987a2.094,2.094,0,0,0,1.763,2.074,4.845,4.845,0,0,0,2.88-.576,12.1,12.1,0,0,1,2.765-1.152" transform="translate(-300.31 -148.643)" fill="#936760"/>
      <path id="Path_4641" data-name="Path 4641" d="M312.371,205.98a6.817,6.817,0,0,0-.714.236,19.836,19.836,0,0,0-1.849.87,8.268,8.268,0,0,1-1.319.542,3.848,3.848,0,0,1-1.642.167,2.431,2.431,0,0,1-1.59-.9,1.855,1.855,0,0,1-.4-.9,1.757,1.757,0,0,1,.2-1.008,3.41,3.41,0,0,1,1.48-1.285,15.482,15.482,0,0,1,1.659-.714,9.108,9.108,0,0,1,3-.576,5.963,5.963,0,0,1,2.034.305,4.3,4.3,0,0,1,.524.213.924.924,0,0,1,.167.1,7,7,0,0,0-.714-.236,6.528,6.528,0,0,0-2.011-.236,9.176,9.176,0,0,0-2.938.628,14.625,14.625,0,0,0-1.63.714,3.226,3.226,0,0,0-1.394,1.21,1.446,1.446,0,0,0-.173.881,1.665,1.665,0,0,0,.351.812,2.3,2.3,0,0,0,1.463.841,3.842,3.842,0,0,0,1.573-.144,8.591,8.591,0,0,0,1.308-.513,16.811,16.811,0,0,1,1.884-.818,4.143,4.143,0,0,1,.542-.138A.713.713,0,0,1,312.371,205.98Z" transform="translate(-300.239 -148.611)" fill="#6f4c47"/>
      <path id="Path_4642" data-name="Path 4642" d="M300.19,204.7a51.159,51.159,0,0,1,4.194,3.589,3.031,3.031,0,0,0,1.325.847c.409.086,1.118-.576,1.446-.864l-4.707-4.943" transform="translate(-298.266 -149.003)" fill="#936760"/>
      <path id="Path_4643" data-name="Path 4643" d="M302.448,203.33a2.337,2.337,0,0,1,.392.351l1.014,1.025c.858.876,2.045,2.1,3.376,3.5l.069.075-.081.069a9.2,9.2,0,0,1-.789.634,2.349,2.349,0,0,1-.374.2.715.715,0,0,1-.219.052.577.577,0,0,1-.23,0,2.183,2.183,0,0,1-.72-.369c-.421-.323-.755-.674-1.106-.985-.691-.634-1.313-1.2-1.843-1.665s-.974-.835-1.279-1.089a4.819,4.819,0,0,1-.467-.4,2.881,2.881,0,0,1,.513.346c.323.23.778.576,1.319,1.037s1.187,1.008,1.878,1.642c.351.305.7.662,1.1.962a1.969,1.969,0,0,0,.657.334.841.841,0,0,0,.657-.207,9.137,9.137,0,0,0,.778-.616v.1c-1.331-1.4-2.494-2.644-3.33-3.543l-.974-1.066A4.318,4.318,0,0,1,302.448,203.33Z" transform="translate(-298.266 -149.003)" fill="#6f4c47"/>
      <path id="Path_4644" data-name="Path 4644" d="M301.81,199.039l4.747,5.346a4.477,4.477,0,0,0,1.123,1.014,1.533,1.533,0,0,0,1.452.092,1.567,1.567,0,0,0,.576-1.838,4.9,4.9,0,0,0-1.152-1.728,41.8,41.8,0,0,1-3.9-5.185" transform="translate(-298.953 -146.209)" fill="#936760"/>
      <path id="Path_4645" data-name="Path 4645" d="M304.655,196.71a1.364,1.364,0,0,1,.132.167l.346.5c.305.432.743,1.054,1.308,1.809s1.273,1.625,2.091,2.564a6.492,6.492,0,0,1,1.152,1.6,2.016,2.016,0,0,1,.167,1.06,1.532,1.532,0,0,1-.484,1,1.319,1.319,0,0,1-1.077.294,2.08,2.08,0,0,1-.985-.426,12.089,12.089,0,0,1-1.365-1.423l-2.183-2.494c-.6-.7-1.095-1.273-1.458-1.694l-.392-.484a.906.906,0,0,1-.127-.173,2.107,2.107,0,0,1,.156.144l.421.444,1.5,1.653,2.218,2.466a12.208,12.208,0,0,0,1.348,1.388,1.883,1.883,0,0,0,.893.386,1.152,1.152,0,0,0,.922-.248,1.337,1.337,0,0,0,.415-.876,1.815,1.815,0,0,0-.15-.956,6.41,6.41,0,0,0-1.152-1.555c-.818-.945-1.509-1.838-2.062-2.6s-.979-1.4-1.262-1.849c-.138-.225-.248-.4-.317-.518A.849.849,0,0,1,304.655,196.71Z" transform="translate(-298.94 -146.196)" fill="#6f4c47"/>
      <path id="Path_4646" data-name="Path 4646" d="M316.839,216.961a1.071,1.071,0,0,1-.576.121,3.042,3.042,0,0,1-1.365-.242,3.145,3.145,0,0,1-1.152-.8,1.226,1.226,0,0,1-.305-.49,4.073,4.073,0,0,0,3.376,1.411Z" transform="translate(-303.883 -154.183)" fill="#6f4c47"/>
      <path id="Path_4647" data-name="Path 4647" d="M412.315,190.189l-1.659,20.935a1.365,1.365,0,0,1-1.452,1.256l-11.666-.783a1.36,1.36,0,0,1-1.273-1.486l1.907-20.917a1.365,1.365,0,0,1,1.446-1.244l11.424.743a1.371,1.371,0,0,1,1.273,1.5Z" transform="translate(-338.992 -142.481)" fill="#455a64"/>
      <path id="Path_4648" data-name="Path 4648" d="M441.691,238.1s3.485,23.55,3.347,26.713-3.716,10.185-8.532,10.871-9.355-3.716-9.494-9.494-.853-24.051-.853-24.051l3.595-1.982Z" transform="translate(-351.668 -163.743)" fill="#936760"/>
      <path id="Path_4649" data-name="Path 4649" d="M411.538,204.32s3.606,2.218,4.672,2.8.927,4.879.927,4.879l6.072,14.114-7.316,2.621s-2.61-4.937-3.359-5.559a4.943,4.943,0,0,0-1.728-.876s-.374,1.371-1.5.749a10.871,10.871,0,0,1-2.373-2.126s-1,.628-1.377-.121-1-2.373-1-2.373,2.12-2.748,3-2.748,5.369.248,5.369.248-.248-.374-1.5-.87-8.681-2.69-9.033-2.823c-.524-.2-1.112-1.567.513-1.694s10.767,1.509,10.767,1.509.5-2.362.127-2.88S410.161,206.567,411.538,204.32Z" transform="translate(-341.36 -149.422)" fill="#936760"/>
      <path id="Path_4650" data-name="Path 4650" d="M410.6,231.184a2.431,2.431,0,0,1,.029-1.025,1.861,1.861,0,0,1,.576-1.014,2.131,2.131,0,0,1,1.342-.4,12.4,12.4,0,0,1,2.46.086,3.115,3.115,0,0,1,.991.23c0,.086-1.544-.173-3.456-.046a2.016,2.016,0,0,0-1.2.323,1.728,1.728,0,0,0-.524.87A9.49,9.49,0,0,1,410.6,231.184Z" transform="translate(-345.054 -159.764)" fill="#6f4c47"/>
      <path id="Path_4651" data-name="Path 4651" d="M413.15,233.73a14.483,14.483,0,0,1,1.4.662,12.248,12.248,0,0,1,1.44.576,2.88,2.88,0,0,1-1.55-.334A2.73,2.73,0,0,1,413.15,233.73Z" transform="translate(-346.153 -161.89)" fill="#6f4c47"/>
      <path id="Path_4652" data-name="Path 4652" d="M421.629,217.65a2.362,2.362,0,0,1,1.97,1.907,10.061,10.061,0,0,0-.87-1.072C422.182,217.99,421.6,217.725,421.629,217.65Z" transform="translate(-349.747 -155.073)" fill="#6f4c47"/>
      <path id="Path_4653" data-name="Path 4653" d="M313.419,393c-.081,0,3.065-13.25,7.028-29.541S327.683,334,327.763,334s-3.065,13.25-7.028,29.547S313.5,393.019,313.419,393Z" transform="translate(-303.874 -204.397)" fill="#455a64"/>
    </g>
    <g id="freepik--Table--inject-2" transform="translate(33.054 284.934)">
      <path id="Path_4654" data-name="Path 4654" d="M282.415,469.69c0,.081-54.958.15-122.739.15S36.92,469.77,36.92,469.69s54.952-.15,122.756-.15S282.415,469.6,282.415,469.69Z" transform="translate(-36.92 -469.54)" fill="#263238"/>
    </g>
    <g id="freepik--speech-bubble--inject-2" transform="translate(248.982 45.091)">
      <path id="Path_4655" data-name="Path 4655" d="M412.77,85.492l1.694-6.112a17.1,17.1,0,1,1,4.09,4.545h0Z" transform="translate(-411.817 -53.244)" fill="#fff"/>
      <path id="Path_4656" data-name="Path 4656" d="M412.7,85.449l.386-.115,1.112-.311,4.274-1.2-.04.109h0a.069.069,0,0,1,0-.092.081.081,0,0,1,.086,0,16.908,16.908,0,0,0,7.777,3.307,16.615,16.615,0,0,0,5.461-.069,16.971,16.971,0,0,0,13.722-13.313,17.173,17.173,0,0,0-.253-7.7,16.752,16.752,0,0,0-10.473-11.522,16.943,16.943,0,0,0-20.3,24.731.1.1,0,0,1,0,.058c-.576,1.964-1,3.456-1.3,4.511-.144.513-.259.9-.34,1.152s-.121.409-.121.409.029-.127.092-.386.173-.657.311-1.152c.276-1.054.691-2.592,1.221-4.609v.058a17.052,17.052,0,0,1,.824-19.218,17.225,17.225,0,0,1,23.3-4.033,17.759,17.759,0,0,1,3.122,2.7A18.114,18.114,0,0,1,444,62.147a17.524,17.524,0,0,1,1.728,11.637,17.167,17.167,0,0,1-13.953,13.48,16.706,16.706,0,0,1-5.536.046,17.1,17.1,0,0,1-7.835-3.416l.1-.092h0a.063.063,0,0,1,0,.092h0l-4.349,1.152-1.112.3Z" transform="translate(-411.745 -53.201)" fill="#263238"/>
      <path id="Path_4657" data-name="Path 4657" d="M428.31,79.487l1.993-2,3.848,3.422,7.552-7.27,1.855,2-9.69,9.119Z" transform="translate(-418.767 -61.866)" fill="#f7b74e"/>
    </g>
  </g>
</svg>
