<svg xmlns="http://www.w3.org/2000/svg" width="360.999" height="224.891" viewBox="0 0 360.999 224.891">
  <g id="Group_8987" data-name="Group 8987" transform="translate(-26.501 -606.873)">
    <rect id="Rectangle_1671" data-name="Rectangle 1671" width="360.999" height="224.891" rx="5" transform="translate(26.501 606.873)" fill="#262a34"/>
    <text id="MON" transform="translate(61.999 632.908)" fill="#b5b5b5" font-size="13" font-family="Roboto-Regular, Roboto"><tspan x="-14.777" y="0">MON</tspan></text>
    <text id="_30" data-name="30" transform="translate(61.999 663.781)" fill="#e8e6f1" font-size="13" font-family="Roboto-Regular, Roboto"><tspan x="-7.3" y="0">30</tspan></text>
    <text id="_31" data-name="31" transform="translate(111.999 663.781)" fill="#e8e6f1" font-size="13" font-family="Roboto-Regular, Roboto"><tspan x="-7.3" y="0">31</tspan></text>
    <text id="_1" data-name="1" transform="translate(161.999 663.781)" fill="#e8e6f1" font-size="13" font-family="Roboto-Regular, Roboto"><tspan x="-3.65" y="0">1</tspan></text>
    <text id="_2" data-name="2" transform="translate(211.999 663.781)" fill="#e8e6f1" font-size="13" font-family="Roboto-Regular, Roboto"><tspan x="-3.65" y="0">2</tspan></text>
    <text id="_3" data-name="3" transform="translate(261.999 663.781)" fill="#e8e6f1" font-size="13" font-family="Roboto-Regular, Roboto"><tspan x="-3.65" y="0">3</tspan></text>
    <text id="_4" data-name="4" transform="translate(311.999 663.781)" fill="#e8e6f1" font-size="13" font-family="Roboto-Regular, Roboto"><tspan x="-3.65" y="0">4</tspan></text>
    <text id="_5" data-name="5" transform="translate(361.999 663.781)" fill="#e8e6f1" font-size="13" font-family="Roboto-Regular, Roboto"><tspan x="-3.65" y="0">5</tspan></text>
    <text id="_6" data-name="6" transform="translate(61.999 698.781)" fill="#e8e6f1" font-size="13" font-family="Roboto-Regular, Roboto"><tspan x="-3.65" y="0">6</tspan></text>
    <text id="_13" data-name="13" transform="translate(61.999 733.781)" fill="#dfbd8d" font-size="13" font-family="Roboto-Bold, Roboto" font-weight="700"><tspan x="-7.458" y="0">13</tspan></text>
    <text id="_20" data-name="20" transform="translate(61.999 768.781)" fill="#dfbd8d" font-size="13" font-family="Roboto-Bold, Roboto" font-weight="700"><tspan x="-7.458" y="0">20</tspan></text>
    <text id="_27" data-name="27" transform="translate(61.999 803.781)" fill="#dfbd8d" font-size="13" font-family="Roboto-Bold, Roboto" font-weight="700"><tspan x="-7.458" y="0">27</tspan></text>
    <text id="_21" data-name="21" transform="translate(111.999 768.781)" fill="#dfbd8d" font-size="13" font-family="Roboto-Bold, Roboto" font-weight="700"><tspan x="-7.458" y="0">21</tspan></text>
    <text id="_28" data-name="28" transform="translate(111.999 803.781)" fill="#dfbd8d" font-size="13" font-family="Roboto-Bold, Roboto" font-weight="700"><tspan x="-7.458" y="0">28</tspan></text>
    <text id="_22" data-name="22" transform="translate(161.999 768.781)" fill="#dfbd8d" font-size="13" font-family="Roboto-Bold, Roboto" font-weight="700"><tspan x="-7.458" y="0">22</tspan></text>
    <text id="_29" data-name="29" transform="translate(161.999 803.781)" fill="#dfbd8d" font-size="13" font-family="Roboto-Bold, Roboto" font-weight="700"><tspan x="-7.458" y="0">29</tspan></text>
    <text id="_23" data-name="23" transform="translate(211.999 768.781)" fill="#dfbd8d" font-size="13" font-family="Roboto-Bold, Roboto" font-weight="700"><tspan x="-7.458" y="0">23</tspan></text>
    <text id="_24" data-name="24" transform="translate(261.999 768.781)" fill="#dfbd8d" font-size="13" font-family="Roboto-Bold, Roboto" font-weight="700"><tspan x="-7.458" y="0">24</tspan></text>
    <text id="_25" data-name="25" transform="translate(311.999 768.781)" fill="#dfbd8d" font-size="13" font-family="Roboto-Bold, Roboto" font-weight="700"><tspan x="-7.458" y="0">25</tspan></text>
    <text id="_26" data-name="26" transform="translate(361.999 768.781)" fill="#dfbd8d" font-size="13" font-family="Roboto-Bold, Roboto" font-weight="700"><tspan x="-7.458" y="0">26</tspan></text>
    <text id="_14" data-name="14" transform="translate(111.999 733.781)" fill="#dfbd8d" font-size="13" font-family="Roboto-Bold, Roboto" font-weight="700"><tspan x="-7.458" y="0">14</tspan></text>
    <text id="_15" data-name="15" transform="translate(161.999 733.781)" fill="#dfbd8d" font-size="13" font-family="Roboto-Bold, Roboto" font-weight="700"><tspan x="-7.458" y="0">15</tspan></text>
    <text id="_16" data-name="16" transform="translate(211.999 733.781)" fill="#dfbd8d" font-size="13" font-family="Roboto-Bold, Roboto" font-weight="700"><tspan x="-7.458" y="0">16</tspan></text>
    <text id="_17" data-name="17" transform="translate(261.999 733.781)" fill="#dfbd8d" font-size="13" font-family="Roboto-Bold, Roboto" font-weight="700"><tspan x="-7.458" y="0">17</tspan></text>
    <text id="_18" data-name="18" transform="translate(311.999 733.781)" fill="#dfbd8d" font-size="13" font-family="Roboto-Bold, Roboto" font-weight="700"><tspan x="-7.458" y="0">18</tspan></text>
    <text id="_19" data-name="19" transform="translate(361.999 733.781)" fill="#dfbd8d" font-size="13" font-family="Roboto-Bold, Roboto" font-weight="700"><tspan x="-7.458" y="0">19</tspan></text>
    <text id="TUE" transform="translate(111.999 632.908)" fill="#b5b5b5" font-size="13" font-family="Roboto-Regular, Roboto"><tspan x="-11.788" y="0">TUE</tspan></text>
    <text id="WED" transform="translate(161.999 632.908)" fill="#b5b5b5" font-size="13" font-family="Roboto-Regular, Roboto"><tspan x="-13.724" y="0">WED</tspan></text>
    <text id="THU" transform="translate(211.999 632.908)" fill="#b5b5b5" font-size="13" font-family="Roboto-Regular, Roboto"><tspan x="-12.727" y="0">THU</tspan></text>
    <text id="FRI" transform="translate(261.999 632.908)" fill="#b5b5b5" font-size="13" font-family="Roboto-Regular, Roboto"><tspan x="-9.363" y="0">FRI</tspan></text>
    <text id="SAT" transform="translate(311.999 632.908)" fill="#b5b5b5" font-size="13" font-family="Roboto-Regular, Roboto"><tspan x="-11.565" y="0">SAT</tspan></text>
    <text id="SUN" transform="translate(361.999 632.908)" fill="#b5b5b5" font-size="13" font-family="Roboto-Regular, Roboto"><tspan x="-12.705" y="0">SUN</tspan></text>
    <path id="Rectangle_1897" data-name="Rectangle 1897" d="M13.5,0H274a0,0,0,0,1,0,0V27a0,0,0,0,1,0,0H13.5A13.5,13.5,0,0,1,0,13.5v0A13.5,13.5,0,0,1,13.5,0Z" transform="translate(99.5 681.105)" fill="#dfbd8d" opacity="0.48"/>
    <path id="Rectangle_1900" data-name="Rectangle 1900" d="M0,0H121.5A13.5,13.5,0,0,1,135,13.5v0A13.5,13.5,0,0,1,121.5,27H0a0,0,0,0,1,0,0V0A0,0,0,0,1,0,0Z" transform="translate(46.5 786.105)" fill="#dfbd8d" opacity="0.48"/>
    <rect id="Rectangle_1898" data-name="Rectangle 1898" width="327" height="27" transform="translate(46.5 716.105)" fill="#dfbd8d" opacity="0.48"/>
    <rect id="Rectangle_1899" data-name="Rectangle 1899" width="327" height="27" transform="translate(46.5 751.105)" fill="#dfbd8d" opacity="0.48"/>
    <text id="_7" data-name="7" transform="translate(111.999 698.781)" fill="#dfbd8d" font-size="13" font-family="Roboto-Bold, Roboto" font-weight="700"><tspan x="-3.729" y="0">7</tspan></text>
    <text id="_8" data-name="8" transform="translate(161.999 698.781)" fill="#dfbd8d" font-size="13" font-family="Roboto-Bold, Roboto" font-weight="700"><tspan x="-3.729" y="0">8</tspan></text>
    <text id="_9" data-name="9" transform="translate(211.999 698.781)" fill="#dfbd8d" font-size="13" font-family="Roboto-Bold, Roboto" font-weight="700"><tspan x="-3.729" y="0">9</tspan></text>
    <text id="_10" data-name="10" transform="translate(261.999 698.781)" fill="#dfbd8d" font-size="13" font-family="Roboto-Bold, Roboto" font-weight="700"><tspan x="-7.458" y="0">10</tspan></text>
    <text id="_11" data-name="11" transform="translate(311.999 698.781)" fill="#dfbd8d" font-size="13" font-family="Roboto-Bold, Roboto" font-weight="700"><tspan x="-7.458" y="0">11</tspan></text>
    <text id="_12" data-name="12" transform="translate(361.999 698.781)" fill="#dfbd8d" font-size="13" font-family="Roboto-Bold, Roboto" font-weight="700"><tspan x="-7.458" y="0">12</tspan></text>
  </g>
</svg>
