<svg xmlns="http://www.w3.org/2000/svg" width="24.026" height="26.121" viewBox="0 0 24.026 26.121">
  <g id="approval_approve_reject_rejection_confirm_icon_191175" transform="translate(-2.12 -1.34)">
    <path id="Path_10573" data-name="Path 10573" d="M16.874,9.985a.6.6,0,0,0-.808,0l-.869.869-.839-.869a.6.6,0,0,0-.808,0,.564.564,0,0,0,0,.808l.808.823-.869.869a.564.564,0,0,0,0,.808.579.579,0,0,0,.4.168.6.6,0,0,0,.412-.168l.869-.869.869.869a.579.579,0,0,0,.4.168.61.61,0,0,0,.412-.168.6.6,0,0,0,0-.808L16,11.616l.869-.869a.6.6,0,0,0,0-.762Z" transform="translate(5.878 4.454)" fill="#e8e6f1"/>
    <path id="Path_10574" data-name="Path 10574" d="M11.2,13.5,8.885,16.109l-.808-.625a.57.57,0,0,0-.7.9l1.22.961a.518.518,0,0,0,.351.122.549.549,0,0,0,.427-.183l2.684-3.05a.579.579,0,0,0,0-.808.564.564,0,0,0-.854.076Z" transform="translate(2.643 6.259)" fill="#e8e6f1"/>
    <path id="Path_10575" data-name="Path 10575" d="M5.5,7.068h9.439a.564.564,0,0,0,.564-.579A.549.549,0,0,0,14.942,6H5.5a.564.564,0,0,0-.5.488A.579.579,0,0,0,5.5,7.068Z" transform="translate(1.512 2.446)" fill="#e8e6f1"/>
    <path id="Path_10576" data-name="Path 10576" d="M5.534,9.794H11.1a.579.579,0,0,0,.579-.61A.564.564,0,0,0,11.1,8.65H5.534A.564.564,0,0,0,5,9.184a.579.579,0,0,0,.534.61Z" transform="translate(1.511 3.837)" fill="#e8e6f1"/>
    <path id="Path_10577" data-name="Path 10577" d="M26.137,16.33a5.017,5.017,0,0,0-1.327-3.705A5.078,5.078,0,0,0,22.279,11.1V7a2.943,2.943,0,0,0-2.943-2.943H14.563V3.49a2.15,2.15,0,1,0-4.3,0v.564h-5.2A2.943,2.943,0,0,0,2.12,7V24.518a2.958,2.958,0,0,0,2.943,2.943H19.336a2.958,2.958,0,0,0,2.943-2.943V21.057a5.047,5.047,0,0,0,3.858-4.727ZM11.407,3.49a1.006,1.006,0,0,1,2.013,0V4.07H11.407ZM5.063,26.363a1.8,1.8,0,0,1-1.8-1.8V7a1.8,1.8,0,0,1,1.8-1.8H19.336a1.8,1.8,0,0,1,1.8,1.8v3.949a3.782,3.782,0,0,0-.717,0h-.183a6.953,6.953,0,0,0-.808.2h-.152a6.1,6.1,0,0,0-.717.335l-.183.091a4.575,4.575,0,0,0-.808.61,5.032,5.032,0,0,0-1.677,3.553,4.056,4.056,0,0,0,0,.747h-.107a5.977,5.977,0,0,0-.808-.442l-.29-.122-.732-.229h-.32a4.971,4.971,0,0,0-1.067-.107A5.932,5.932,0,0,0,6.634,21.5a6.359,6.359,0,0,0,.107,1.083.9.9,0,0,1,0,.2,6.42,6.42,0,0,0,.3.961l.076.168a7.365,7.365,0,0,0,.457.839v.091a6.268,6.268,0,0,0,.64.762,1.433,1.433,0,0,0,.152.152,5.337,5.337,0,0,0,.7.595Zm7.472,0a20.362,20.362,0,1,0,.076-.107Zm8.6-5.017v3.278a1.8,1.8,0,0,1-1.8,1.8h-3.4a5.337,5.337,0,0,0,.7-.595,1.434,1.434,0,0,0,.152-.152,6.267,6.267,0,0,0,.64-.762v-.091a7.365,7.365,0,0,0,.457-.839v-.168a6.42,6.42,0,0,0,.3-.961s0-.137,0-.2a5.7,5.7,0,0,0,0-2.028h.152a4.986,4.986,0,0,0,.778.335,1.113,1.113,0,0,0,.29.107,5.962,5.962,0,0,0,1.159.213h.381Zm.488-1.189h0a4.7,4.7,0,0,1-.808,0,4.315,4.315,0,0,1-.793-.122h-.091a4,4,0,0,1-2.867-3.172h0a3.553,3.553,0,0,1,0-.808,4.331,4.331,0,0,1,.107-.793,1.525,1.525,0,0,1,0-.152,3.934,3.934,0,0,1,.213-.595l.107-.183a4.895,4.895,0,0,1,.29-.473,3.706,3.706,0,0,1,.518-.579,2.546,2.546,0,0,1,.244-.259c.122-.091.229-.2.351-.274l.29-.137a3.141,3.141,0,0,1,.4-.183,2.531,2.531,0,0,1,.32-.091,2.043,2.043,0,0,1,.412-.107,1.189,1.189,0,0,1,.335,0,3.05,3.05,0,0,1,.534,0h.442a3.949,3.949,0,0,1,3.355,4.117,4.01,4.01,0,0,1-3.37,3.782Z" transform="translate(0 0)" fill="#e8e6f1"/>
  </g>
</svg>
