<svg xmlns="http://www.w3.org/2000/svg" width="19.267" height="10" viewBox="0 0 19.267 21.142">
  <g id="beauty-salon-svgrepo-com" transform="translate(-22.698 0.001)">
    <g id="Group_8690" data-name="Group 8690" transform="translate(25.784 13.517)">
      <g id="Group_8689" data-name="Group 8689" transform="translate(0)">
        <path id="Path_10543" data-name="Path 10543" d="M99.642,334.258H98.153v-4.225a2.315,2.315,0,0,1,1.123-1.993.365.365,0,1,0-.379-.623,3.039,3.039,0,0,0-1.474,2.617v4.59a.365.365,0,0,0,.365.365h1.853a.365.365,0,1,0,0-.729Z" transform="translate(-97.424 -327.364)" fill="#e8e6f1"/>
      </g>
    </g>
    <g id="Group_8692" data-name="Group 8692" transform="translate(28.361 14.196)">
      <g id="Group_8691" data-name="Group 8691" transform="translate(0)">
        <path id="Path_10544" data-name="Path 10544" d="M166.839,350.013h-3.552v-3.024l2.614-2.567a.365.365,0,0,0-.511-.52l-2.468,2.423-2.468-2.423a.365.365,0,1,0-.511.52l2.614,2.567v3.024h-1.867a.365.365,0,1,0,0,.729h6.148a.365.365,0,0,0,0-.729Z" transform="translate(-159.835 -343.797)" fill="#e8e6f1"/>
      </g>
    </g>
    <g id="Group_8694" data-name="Group 8694" transform="translate(35.085 13.517)">
      <g id="Group_8693" data-name="Group 8693" transform="translate(0)">
        <path id="Path_10545" data-name="Path 10545" d="M324.194,328.328a3.094,3.094,0,0,0-.955-.912.365.365,0,1,0-.379.623,2.359,2.359,0,0,1,.729.7.365.365,0,0,0,.605-.407Z" transform="translate(-322.685 -327.363)" fill="#e8e6f1"/>
      </g>
    </g>
    <g id="Group_8696" data-name="Group 8696" transform="translate(24.875 -0.001)">
      <g id="Group_8695" data-name="Group 8695" transform="translate(0 0)">
        <path id="Path_10546" data-name="Path 10546" d="M87.433,2.057A6.479,6.479,0,0,0,81.963.02l-.018,0c-.115.014-2.578.334-3.026,1.812a3.154,3.154,0,0,0-.759-.1,2.171,2.171,0,0,0-2.038,1.256,5.567,5.567,0,0,0-.255,4.052,1.5,1.5,0,0,0,.608,2.5,4.061,4.061,0,0,0,1.663,3.448l2,1.45a3.149,3.149,0,0,0,3.711,0l2-1.45A4.033,4.033,0,0,0,86.3,12.6a9.1,9.1,0,0,0,2.259-3.036A6.984,6.984,0,0,0,87.433,2.057ZM76.542,8.785a.77.77,0,0,1,.136-1.406Zm9.2,3.346a3.3,3.3,0,0,1-.327.272l-2,1.45a2.422,2.422,0,0,1-2.854,0l-2-1.451a3.328,3.328,0,0,1-1.351-3l.235-2.43a5.692,5.692,0,0,0,2.233-2.1,4.06,4.06,0,0,0,3.034,1.57c.072,0,.146,0,.22-.007a2.683,2.683,0,0,1,2.457.934C86.306,8.558,86.214,10.65,85.74,12.131Zm2.168-2.889a8.237,8.237,0,0,1-1.184,1.881,8.029,8.029,0,0,0,.093-1.47,4.689,4.689,0,0,0-.844-2.726A3.368,3.368,0,0,0,82.89,5.709a3.588,3.588,0,0,1-2.923-1.674.365.365,0,0,0-.631.013c-.011.02-1.1,1.959-2.326,2.3a.364.364,0,0,0-.256.269,1.487,1.487,0,0,0-.248.048,4.9,4.9,0,0,1,.264-3.347,1.442,1.442,0,0,1,1.365-.86,2.478,2.478,0,0,1,.927.185.365.365,0,0,0,.516-.332c0-1.2,2.3-1.548,2.449-1.568A5.73,5.73,0,0,1,86.855,2.5,6.263,6.263,0,0,1,87.907,9.242Z" transform="translate(-75.416 0.001)" fill="#e8e6f1"/>
      </g>
    </g>
    <g id="Group_8698" data-name="Group 8698" transform="translate(28.919 8.192)">
      <g id="Group_8697" data-name="Group 8697" transform="translate(0)">
        <path id="Path_10547" data-name="Path 10547" d="M173.72,198.418a.365.365,0,0,0-.365.365v.583a.365.365,0,0,0,.729,0v-.583A.365.365,0,0,0,173.72,198.418Z" transform="translate(-173.355 -198.418)" fill="#e8e6f1"/>
      </g>
    </g>
    <g id="Group_8700" data-name="Group 8700" transform="translate(32.415 6.948)">
      <g id="Group_8699" data-name="Group 8699">
        <path id="Path_10548" data-name="Path 10548" d="M260.3,168.738a1.546,1.546,0,0,0-2.183,0,.365.365,0,0,0,.516.516.815.815,0,0,1,1.152,0,.365.365,0,1,0,.516-.516Z" transform="translate(-258.007 -168.286)" fill="#e8e6f1"/>
      </g>
    </g>
    <g id="Group_8702" data-name="Group 8702" transform="translate(28.085 6.948)">
      <g id="Group_8701" data-name="Group 8701" transform="translate(0)">
        <path id="Path_10549" data-name="Path 10549" d="M155.452,168.737a1.546,1.546,0,0,0-2.183,0,.365.365,0,0,0,.516.516.815.815,0,0,1,1.152,0,.365.365,0,0,0,.516-.516Z" transform="translate(-153.162 -168.285)" fill="#e8e6f1"/>
      </g>
    </g>
    <g id="Group_8704" data-name="Group 8704" transform="translate(33.248 8.192)">
      <g id="Group_8703" data-name="Group 8703">
        <path id="Path_10550" data-name="Path 10550" d="M278.565,198.418a.365.365,0,0,0-.365.365v.583a.365.365,0,0,0,.729,0v-.583A.365.365,0,0,0,278.565,198.418Z" transform="translate(-278.2 -198.418)" fill="#e8e6f1"/>
      </g>
    </g>
    <g id="Group_8706" data-name="Group 8706" transform="translate(30.12 11.148)">
      <g id="Group_8705" data-name="Group 8705">
        <path id="Path_10551" data-name="Path 10551" d="M205,270.088a.365.365,0,0,0-.516,0,1,1,0,0,1-1.411,0,.365.365,0,0,0-.516.516,1.729,1.729,0,0,0,2.442,0A.365.365,0,0,0,205,270.088Z" transform="translate(-202.446 -269.981)" fill="#e8e6f1"/>
      </g>
    </g>
    <g id="Group_8708" data-name="Group 8708" transform="translate(30.702 8.443)">
      <g id="Group_8707" data-name="Group 8707">
        <path id="Path_10552" data-name="Path 10552" d="M217.668,205.594h-.017v-.754a.365.365,0,1,0-.729,0v.754h-.017a.365.365,0,0,0,0,.729h.763a.365.365,0,0,0,0-.729Z" transform="translate(-216.541 -204.476)" fill="#e8e6f1"/>
      </g>
    </g>
    <g id="Group_8710" data-name="Group 8710" transform="translate(36.163 13.882)">
      <g id="Group_8709" data-name="Group 8709" transform="translate(0)">
        <path id="Path_10553" data-name="Path 10553" d="M352.056,341.132a.365.365,0,0,0-.365.365v1.233h-2.172v-2.9h2.172v.452a.365.365,0,0,0,.729,0v-.817a.365.365,0,0,0-.365-.365h-.388v-2.04a.862.862,0,0,0-.861-.861h-.4a.862.862,0,0,0-.861.861v2.04h-.388a.365.365,0,0,0-.365.365v3.63a.365.365,0,0,0,.365.365h2.9a.365.365,0,0,0,.365-.365v-1.6A.365.365,0,0,0,352.056,341.132Zm-1.784-4.072a.131.131,0,0,1,.131-.131h.4a.131.131,0,0,1,.131.131v2.04h-.667Z" transform="translate(-348.789 -336.199)" fill="#e8e6f1"/>
      </g>
    </g>
    <g id="Group_8712" data-name="Group 8712" transform="translate(22.698 9.187)">
      <g id="Group_8711" data-name="Group 8711" transform="translate(0)">
        <path id="Path_10554" data-name="Path 10554" d="M25.834,227.063h-.139v-1.4a.365.365,0,0,0-.323-.362v-1.4a.365.365,0,0,0-.116-.267l-1.118-1.044a.365.365,0,0,0-.614.267V225.3a.365.365,0,0,0-.323.362v1.4h-.139a.365.365,0,0,0-.365.365v4.085a.365.365,0,0,0,.365.365H25.1a.365.365,0,1,0,0-.729H23.427v-3.355h2.407a.365.365,0,0,0,0-.729Zm-1.58-3.367.389.363v1.24h-.389Zm.712,3.367H23.931v-1.034h1.034v1.034Z" transform="translate(-22.698 -222.492)" fill="#e8e6f1"/>
      </g>
    </g>
    <g id="Group_8714" data-name="Group 8714" transform="translate(40.592 1.239)">
      <g id="Group_8713" data-name="Group 8713">
        <path id="Path_10555" data-name="Path 10555" d="M457.314,30.129a.365.365,0,0,0-.516,0l-.644.644a.365.365,0,1,0,.516.516l.644-.644A.365.365,0,0,0,457.314,30.129Z" transform="translate(-456.048 -30.022)" fill="#e8e6f1"/>
      </g>
    </g>
    <g id="Group_8716" data-name="Group 8716" transform="translate(38.674 3.157)">
      <g id="Group_8715" data-name="Group 8715">
        <path id="Path_10556" data-name="Path 10556" d="M410.867,76.577a.365.365,0,0,0-.516,0l-.644.644a.365.365,0,1,0,.516.516l.644-.644A.365.365,0,0,0,410.867,76.577Z" transform="translate(-409.601 -76.471)" fill="#e8e6f1"/>
      </g>
    </g>
    <g id="Group_8718" data-name="Group 8718" transform="translate(40.592 3.157)">
      <g id="Group_8717" data-name="Group 8717">
        <path id="Path_10557" data-name="Path 10557" d="M457.316,77.221l-.644-.644a.365.365,0,0,0-.516.516l.644.644a.365.365,0,0,0,.516-.516Z" transform="translate(-456.05 -76.47)" fill="#e8e6f1"/>
      </g>
    </g>
    <g id="Group_8720" data-name="Group 8720" transform="translate(38.674 1.239)">
      <g id="Group_8719" data-name="Group 8719">
        <path id="Path_10558" data-name="Path 10558" d="M410.867,30.772l-.644-.644a.365.365,0,0,0-.516.516l.644.644a.365.365,0,0,0,.516-.516Z" transform="translate(-409.601 -30.022)" fill="#e8e6f1"/>
      </g>
    </g>
    <g id="Group_8722" data-name="Group 8722" transform="translate(32.357 17.511)">
      <g id="Group_8721" data-name="Group 8721">
        <circle id="Ellipse_518" data-name="Ellipse 518" cx="0.365" cy="0.365" r="0.365" fill="#e8e6f1"/>
      </g>
    </g>
  </g>
</svg>
