<svg xmlns="http://www.w3.org/2000/svg" width="26.784" height="30.61" viewBox="0 0 26.784 30.61">
  <path id="Icon_awesome-calendar-check" data-name="Icon awesome-calendar-check" d="M26.067,9.566H.717A.717.717,0,0,1,0,8.848V6.7a2.87,2.87,0,0,1,2.87-2.87h2.87V.717A.717.717,0,0,1,6.457,0H8.848a.717.717,0,0,1,.717.717V3.826h7.653V.717A.717.717,0,0,1,17.936,0h2.391a.717.717,0,0,1,.717.717V3.826h2.87a2.87,2.87,0,0,1,2.87,2.87V8.848A.717.717,0,0,1,26.067,9.566ZM.717,11.479H26.067a.717.717,0,0,1,.717.717V27.741a2.87,2.87,0,0,1-2.87,2.87H2.87A2.87,2.87,0,0,1,0,27.741V12.2A.717.717,0,0,1,.717,11.479Zm19.926,5.736-1.684-1.7a.717.717,0,0,0-1.015,0L11.606,21.8,8.857,19.031a.717.717,0,0,0-1.015,0l-1.7,1.684a.717.717,0,0,0,0,1.015L11.079,26.7a.717.717,0,0,0,1.015,0L20.64,18.23a.717.717,0,0,0,0-1.015Z" fill="#dfbd8d"/>
</svg>
