<svg xmlns="http://www.w3.org/2000/svg" width="23.421" height="23.383" viewBox="0 0 23.421 23.383">
  <g id="calendar-svgrepo-com_3_" data-name="calendar-svgrepo-com (3)" transform="translate(0 -0.4)">
    <g id="Group_8723" data-name="Group 8723" transform="translate(0 0.4)">
      <path id="Path_10563" data-name="Path 10563" d="M8.512,11.78a.386.386,0,0,1-.388.388H6.669a.386.386,0,0,1-.388-.388V10.325a.386.386,0,0,1,.388-.388H8.125a.386.386,0,0,1,.388.388Zm3.04-1.451a.386.386,0,0,0-.388-.388H9.709a.386.386,0,0,0-.388.388v1.455a.386.386,0,0,0,.388.388h1.455a.386.386,0,0,0,.388-.388Zm3.04,0a.386.386,0,0,0-.388-.388H12.749a.386.386,0,0,0-.388.388v1.455a.386.386,0,0,0,.388.388H14.2a.386.386,0,0,0,.388-.388Zm-6.08,2.959a.386.386,0,0,0-.388-.388H6.669a.386.386,0,0,0-.388.388v1.455a.386.386,0,0,0,.388.388H8.125a.386.386,0,0,0,.388-.388Zm3.04,0a.386.386,0,0,0-.388-.388H9.709a.386.386,0,0,0-.388.388v1.455a.386.386,0,0,0,.388.388h1.455a.386.386,0,0,0,.388-.388ZM14.2,12.9H12.749a.386.386,0,0,0-.388.388v1.455a.386.386,0,0,0,.388.388H14.2a.386.386,0,0,0,.388-.388V13.288A.386.386,0,0,0,14.2,12.9ZM5.08,15.859H3.629a.386.386,0,0,0-.388.388V17.7a.386.386,0,0,0,.388.388H5.084a.386.386,0,0,0,.388-.388V16.247A.39.39,0,0,0,5.08,15.859Zm.393-2.571a.386.386,0,0,0-.388-.388H3.629a.386.386,0,0,0-.388.388v1.455a.386.386,0,0,0,.388.388H5.084a.386.386,0,0,0,.388-.388Zm5.692,2.571H9.709a.386.386,0,0,0-.388.388V17.7a.386.386,0,0,0,.388.388h1.455a.386.386,0,0,0,.388-.388V16.247A.386.386,0,0,0,11.165,15.859Zm-3.04,0H6.669a.386.386,0,0,0-.388.388V17.7a.386.386,0,0,0,.388.388H8.125a.386.386,0,0,0,.388-.388V16.247A.386.386,0,0,0,8.125,15.859Zm9.12-3.686a.386.386,0,0,0,.388-.388V10.33a.386.386,0,0,0-.388-.388H15.79a.386.386,0,0,0-.388.388v1.455a.386.386,0,0,0,.388.388ZM2.284,21.25H13.329a5.953,5.953,0,0,1-.282-1.762H2.284a.518.518,0,0,1-.517-.517V8.568H19.083v4.84a5.948,5.948,0,0,1,1.762.273V4.924a2.286,2.286,0,0,0-2.284-2.284H16.005V1.233A.834.834,0,0,0,15.172.4h-1.3a.834.834,0,0,0-.833.833V2.645H7.8V1.233A.834.834,0,0,0,6.971.4h-1.3a.834.834,0,0,0-.833.833V2.645H2.284A2.286,2.286,0,0,0,0,4.929V18.971A2.285,2.285,0,0,0,2.284,21.25Zm21.137-1.829A4.362,4.362,0,1,1,19.06,15.06,4.362,4.362,0,0,1,23.421,19.421Zm-2.159-1.13a.506.506,0,0,0-.153-.369.523.523,0,0,0-.742,0l-1.9,1.9-.728-.728a.523.523,0,0,0-.742,0,.514.514,0,0,0-.153.369.506.506,0,0,0,.153.369l1.1,1.1a.523.523,0,0,0,.742,0L21.1,18.66A.493.493,0,0,0,21.262,18.291Z" transform="translate(0 -0.4)" fill="#dfbd8d"/>
    </g>
  </g>
</svg>
