<svg xmlns="http://www.w3.org/2000/svg" width="11.488" height="10" viewBox="0 0 11.488 10">
  <g id="Certificate" transform="translate(0 -4.145)">
    <path id="Path_10566" data-name="Path 10566" d="M10.474,4.145H1.014A1.015,1.015,0,0,0,0,5.159v6.556a1.015,1.015,0,0,0,1.014,1.014H4.265a.179.179,0,1,0,0-.359H1.014a.656.656,0,0,1-.655-.655V5.159A.656.656,0,0,1,1.014,4.5h9.46a.656.656,0,0,1,.655.655v6.556a.656.656,0,0,1-.655.655.179.179,0,1,0,0,.359,1.015,1.015,0,0,0,1.014-1.014V5.159A1.015,1.015,0,0,0,10.474,4.145Z" transform="translate(0 0)" fill="#fff"/>
    <path id="Path_10567" data-name="Path 10567" d="M11.333,32.145H9.179a.179.179,0,1,0,0,.359h2.154a.179.179,0,1,0,0-.359Z" transform="translate(-7.385 -22.974)" fill="#fff"/>
    <path id="Path_10568" data-name="Path 10568" d="M11.333,38.694H9.179a.179.179,0,0,0,0,.359h2.154a.179.179,0,0,0,0-.359Z" transform="translate(-7.385 -28.348)" fill="#fff"/>
    <path id="Path_10569" data-name="Path 10569" d="M32.233,24.068a.171.171,0,0,0-.016-.03,2.333,2.333,0,1,0-3.477-.014.171.171,0,0,0-.012.024l-.755,2.589a.179.179,0,0,0,.249.212l.793-.377.5.722a.18.18,0,0,0,.148.078l.031,0a.179.179,0,0,0,.143-.13l.624-2.329H30.5l.624,2.329a.179.179,0,0,0,.143.13l.031,0a.18.18,0,0,0,.147-.077l.5-.719.792.373a.18.18,0,0,0,.249-.213ZM30.485,20.5a1.974,1.974,0,1,1-1.974,1.974A1.977,1.977,0,0,1,30.485,20.5Zm-.9,6.168-.364-.528a.179.179,0,0,0-.225-.06l-.569.27.6-2.054a2.321,2.321,0,0,0,1.067.477Zm2.37-.584a.18.18,0,0,0-.224.06l-.365.526-.508-1.895a2.32,2.32,0,0,0,1.069-.47l.6,2.046Z" transform="translate(-22.946 -13.128)" fill="#fff"/>
    <path id="Path_10570" data-name="Path 10570" d="M11.513,13.5a.359.359,0,0,0-.359-.359H9.359A.359.359,0,0,0,9,13.5V15.3a.359.359,0,0,0,.359.359h1.795a.359.359,0,0,0,.359-.359ZM11.154,15.3H9.359V13.5h1.795Z" transform="translate(-7.385 -7.385)" fill="#fff"/>
    <path id="Path_10571" data-name="Path 10571" d="M37.077,29.3A1.077,1.077,0,1,0,36,28.222,1.077,1.077,0,0,0,37.077,29.3Zm0-1.795a.718.718,0,1,1-.718.718A.719.719,0,0,1,37.077,27.5Z" transform="translate(-29.538 -18.872)" fill="#fff"/>
  </g>
</svg>
