<svg id="dinner-svgrepo-com" xmlns="http://www.w3.org/2000/svg" width="15.899" height="15.899" viewBox="0 0 15.899 15.899">
  <g id="Group_8680" data-name="Group 8680">
    <g id="Group_8679" data-name="Group 8679">
      <rect id="Rectangle_1695" data-name="Rectangle 1695" width="15.899" height="0.489" transform="translate(0 15.411)" fill="#e8e6f1"/>
      <rect id="Rectangle_1696" data-name="Rectangle 1696" width="8.471" height="0.489" transform="translate(3.714 14.661)" fill="#e8e6f1"/>
      <rect id="Rectangle_1697" data-name="Rectangle 1697" width="1.759" height="0.489" transform="translate(8.438 13.912)" fill="#e8e6f1"/>
      <path id="Path_10535" data-name="Path 10535" d="M132.952,304.514v-.252h-.489v.161a3.992,3.992,0,0,0-.977,0v-.161H131v.252a3.979,3.979,0,0,0-3,3.85v.85h4.235v-.489h-3.747v-.361a3.486,3.486,0,0,1,6.972,0v.361h-1.01v.489h1.5v-.85A3.979,3.979,0,0,0,132.952,304.514Z" transform="translate(-124.025 -294.814)" fill="#e8e6f1"/>
      <path id="Path_10536" data-name="Path 10536" d="M225.116,261.336a.491.491,0,0,1,.5.5h.489a.99.99,0,1,0-1.98,0h.489A.491.491,0,0,1,225.116,261.336Z" transform="translate(-217.166 -252.747)" fill="#e8e6f1"/>
      <path id="Path_10537" data-name="Path 10537" d="M26.563,334.461v-1.984H24.086v1.984a1.24,1.24,0,0,0,.979,1.211v1.142h-.489v.489h1.5v-.489h-.521v-1.136A1.24,1.24,0,0,0,26.563,334.461Zm-1.238.75a.75.75,0,0,1-.75-.75v-.253h1.239v-.489H24.575v-.753h1.5v1.5A.75.75,0,0,1,25.324,335.21Z" transform="translate(-23.338 -322.152)" fill="#e8e6f1"/>
      <path id="Path_10538" data-name="Path 10538" d="M409.172,335.677v1.136h-.521v.489h1.5v-.489h-.489v-1.142a1.24,1.24,0,0,0,.979-1.211v-1.984h-2.477v1.984A1.24,1.24,0,0,0,409.172,335.677Zm-.52-1.47h1.237v-.489h-1.237v-.753h1.5v1.5a.75.75,0,1,1-1.5,0v-.253Z" transform="translate(-395.488 -322.152)" fill="#e8e6f1"/>
      <path id="Path_10539" data-name="Path 10539" d="M167.832,59.791l.173.173.173-.173,2.179-2.179A1.678,1.678,0,0,0,168,55.22a1.6,1.6,0,0,0-2.3.066,1.624,1.624,0,0,0-.5,1.164,1.7,1.7,0,0,0,.495,1.211Zm-1.786-4.152a1.235,1.235,0,0,1,.852-.384,1.178,1.178,0,0,1,.833.381l.274.274.325-.325a1.189,1.189,0,1,1,1.681,1.682l-2.006,2.006-1.956-1.956a1.209,1.209,0,0,1-.352-.861A1.138,1.138,0,0,1,166.046,55.639Z" transform="translate(-160.078 -53.048)" fill="#e8e6f1"/>
      <rect id="Rectangle_1698" data-name="Rectangle 1698" width="0.489" height="1.238" transform="translate(7.689)" fill="#e8e6f1"/>
      <rect id="Rectangle_1699" data-name="Rectangle 1699" width="0.489" height="1.054" transform="translate(9.516 0.209) rotate(45)" fill="#e8e6f1"/>
      <rect id="Rectangle_1700" data-name="Rectangle 1700" width="1.054" height="0.489" transform="translate(6.383 0.209) rotate(45)" fill="#e8e6f1"/>
      <path id="Path_10540" data-name="Path 10540" d="M120.106,285.457a.991.991,0,0,0,.99.99h.248v-.489H121.1a.5.5,0,1,1,0-1h1.988v-.489H121.1A.991.991,0,0,0,120.106,285.457Z" transform="translate(-116.376 -275.633)" fill="#e8e6f1"/>
      <path id="Path_10541" data-name="Path 10541" d="M161.1,190.429h4.721a.5.5,0,1,1,0,1h-1.491v.489h1.491a.99.99,0,1,0,0-1.98H161.1a.5.5,0,0,1,0-1h.5v-.489h-.5a.99.99,0,0,0,0,1.98Z" transform="translate(-155.141 -182.597)" fill="#e8e6f1"/>
      <rect id="Rectangle_1701" data-name="Rectangle 1701" width="0.994" height="0.489" transform="translate(0.359 6.112) rotate(45)" fill="#e8e6f1"/>
      <rect id="Rectangle_1702" data-name="Rectangle 1702" width="0.489" height="0.994" transform="translate(1.419 7.862) rotate(-45)" fill="#e8e6f1"/>
      <rect id="Rectangle_1703" data-name="Rectangle 1703" width="0.489" height="0.994" transform="translate(2.122 6.111) rotate(45)" fill="#e8e6f1"/>
      <rect id="Rectangle_1704" data-name="Rectangle 1704" width="0.489" height="0.994" transform="translate(0.716 7.517) rotate(45)" fill="#e8e6f1"/>
      <rect id="Rectangle_1705" data-name="Rectangle 1705" width="0.497" height="0.489" transform="translate(1.589 7.336) rotate(135)" fill="#e8e6f1"/>
      <rect id="Rectangle_1706" data-name="Rectangle 1706" width="0.994" height="0.489" transform="translate(2.347 0.894) rotate(45)" fill="#e8e6f1"/>
      <rect id="Rectangle_1707" data-name="Rectangle 1707" width="0.994" height="0.489" transform="translate(4.11 3.348) rotate(-135)" fill="#e8e6f1"/>
      <rect id="Rectangle_1708" data-name="Rectangle 1708" width="0.489" height="0.994" transform="translate(4.11 0.894) rotate(45)" fill="#e8e6f1"/>
      <rect id="Rectangle_1709" data-name="Rectangle 1709" width="0.489" height="0.994" transform="translate(2.704 2.299) rotate(45)" fill="#e8e6f1"/>
      <rect id="Rectangle_1710" data-name="Rectangle 1710" width="0.497" height="0.489" transform="translate(3.577 2.118) rotate(135)" fill="#e8e6f1"/>
      <rect id="Rectangle_1711" data-name="Rectangle 1711" width="0.994" height="0.489" transform="translate(13.529 3.875) rotate(45)" fill="#e8e6f1"/>
      <rect id="Rectangle_1712" data-name="Rectangle 1712" width="0.994" height="0.489" transform="translate(15.292 6.33) rotate(-135)" fill="#e8e6f1"/>
      <rect id="Rectangle_1713" data-name="Rectangle 1713" width="0.489" height="0.994" transform="translate(15.291 3.875) rotate(45)" fill="#e8e6f1"/>
      <rect id="Rectangle_1714" data-name="Rectangle 1714" width="0.489" height="0.994" transform="translate(13.885 5.281) rotate(45)" fill="#e8e6f1"/>
      <rect id="Rectangle_1715" data-name="Rectangle 1715" width="0.497" height="0.489" transform="translate(14.759 5.099) rotate(135)" fill="#e8e6f1"/>
      <path id="Path_10542" data-name="Path 10542" d="M273.978,350.723a2.242,2.242,0,0,0-2.24-2.243v.489a1.742,1.742,0,0,1,1.752,1.755h.489Z" transform="translate(-263.3 -337.658)" fill="#e8e6f1"/>
    </g>
  </g>
</svg>
