<svg xmlns="http://www.w3.org/2000/svg" width="39.038" height="28.059" viewBox="0 0 39.038 28.059">
  <g id="discover-svgrepo-com" transform="translate(0 -41.029)">
    <path id="Path_10513" data-name="Path 10513" d="M2.44,41.029H36.6a2.44,2.44,0,0,1,2.44,2.44V66.648a2.441,2.441,0,0,1-2.44,2.44H2.44A2.441,2.441,0,0,1,0,66.648V43.469A2.44,2.44,0,0,1,2.44,41.029Z" fill="#e4e7e7"/>
    <path id="Path_10514" data-name="Path 10514" d="M39.426,77.38H36.452v9.764H39.41a5.63,5.63,0,0,0,3.7-1.127,4.805,4.805,0,0,0,1.882-3.751C44.994,79.383,42.705,77.38,39.426,77.38Zm2.2,6.725a3.52,3.52,0,0,1-2.289.586h-.448v-4.86h.448a3.459,3.459,0,0,1,2.289.593,2.324,2.324,0,0,1,.923,1.83A2.361,2.361,0,0,1,41.63,84.106Zm4.587,3.038h2.423v-9.78H46.216Zm7.923-6c-1.238-.405-1.6-.675-1.6-1.177,0-.588.649-1.039,1.537-1.039a2.245,2.245,0,0,1,1.665.758l1.076-1.248A4.983,4.983,0,0,0,53.711,77.4c-1.867,0-3.294,1.15-3.294,2.679,0,1.293.665,1.952,2.6,2.569a8.54,8.54,0,0,1,1.425.534,1.1,1.1,0,0,1,.62.966,1.44,1.44,0,0,1-1.6,1.32,2.482,2.482,0,0,1-2.25-1.248L49.88,85.357a4.255,4.255,0,0,0,3.657,1.784c2.139,0,3.643-1.265,3.643-3.076C57.18,82.578,56.485,81.9,54.14,81.144Zm6.721,1.1a2.728,2.728,0,0,1,2.786-2.719,2.881,2.881,0,0,1,2.084.889V77.951a4.842,4.842,0,0,0-2.285-.57,4.955,4.955,0,0,0-5.068,4.877A4.881,4.881,0,0,0,63.4,87.124a5.2,5.2,0,0,0,2.326-.543V84.113a2.75,2.75,0,0,1-2.008.867A2.688,2.688,0,0,1,60.861,82.248Z" transform="translate(-31.575 -31.473)" fill="#324d5b"/>
    <path id="Path_10515" data-name="Path 10515" d="M147.165,171.758a2.441,2.441,0,0,0,2.44-2.44v-9.76l-21.959,12.2Z" transform="translate(-110.567 -102.671)" fill="#f4b459"/>
  </g>
</svg>
