<svg xmlns="http://www.w3.org/2000/svg" xmlns:xlink="http://www.w3.org/1999/xlink" width="44" height="44" viewBox="0 0 44 44">
  <defs>
    <filter id="Rectangle_1908" x="0" y="0" width="44" height="44" filterUnits="userSpaceOnUse">
      <feOffset dy="3" input="SourceAlpha"/>
      <feGaussianBlur stdDeviation="3" result="blur"/>
      <feFlood flood-opacity="0.161"/>
      <feComposite operator="in" in2="blur"/>
      <feComposite in="SourceGraphic"/>
    </filter>
  </defs>
  <g id="Group_9056" data-name="Group 9056" transform="translate(-64 -428)">
    <g transform="matrix(1, 0, 0, 1, 64, 428)" filter="url(#Rectangle_1908)">
      <rect id="Rectangle_1908-2" data-name="Rectangle 1908" width="26" height="26" rx="3" transform="translate(9 6)" fill="#fff"/>
    </g>
    <g id="spa-facial-treatment-with-mask-and-massages-svgrepo-com" transform="translate(77.788 425.809)">
      <g id="Group_8993" data-name="Group 8993" transform="translate(0 14.134)">
        <path id="Path_11350" data-name="Path 11350" d="M80.815,148.137a5.615,5.615,0,0,1,.76-.118,3.882,3.882,0,0,1,.858.118s-.729-.62-.988-.62a1.548,1.548,0,0,0-.63.241,1.285,1.285,0,0,0-.509-.241,4.568,4.568,0,0,0-1.11.62,4.739,4.739,0,0,1,1-.137A3.477,3.477,0,0,1,80.815,148.137Z" transform="translate(-72.723 -136.615)" fill="#ef8294"/>
        <path id="Path_11351" data-name="Path 11351" d="M80.816,155.945a2.17,2.17,0,0,0,1.618-.841,2.086,2.086,0,0,1-.888.246c-.219.012-.467-.03-.731-.03-.217,0-.438.058-.627.05a2.3,2.3,0,0,1-.991-.266A2.17,2.17,0,0,0,80.816,155.945Z" transform="translate(-72.724 -143.582)" fill="#ef8294"/>
        <path id="Path_11352" data-name="Path 11352" d="M28.547,19.815a5.255,5.255,0,0,1,.993-2.92,8.856,8.856,0,0,1,4.5-.085,5.242,5.242,0,0,0-2.494,1.321,5.332,5.332,0,0,0-1.447,2.29l0,.008c.129.072.282.154.45.232a3.766,3.766,0,0,1,3.282-1.941,3.713,3.713,0,0,1,1.908.529,1.8,1.8,0,0,0-.021.736l.048.233-.038.076A1.471,1.471,0,0,0,35.7,21.3a.617.617,0,0,1,.221-.14,1.22,1.22,0,0,1,.05-.769c.214-.523,1.426.059,1.426.059s-1.149-1-1.42-.517c-.156-.83.428-1.789,1.325-1.592-.709.653.342,1.857.342,1.857s-.391-1.313-.1-1.638c.43-.483,1.414.258,1.42.97-.34-.025-.663.418-.84.713l.008-.005a3.686,3.686,0,0,1,.946-.346c.1-.024.181-.045.257-.07a.877.877,0,0,0,.32-.252A5.838,5.838,0,0,0,28.027,19.3,1.489,1.489,0,0,0,28.547,19.815ZM39.1,19.81l0,.031-.021-.032Zm-3.026-1.274a1.8,1.8,0,0,0-.119.184,4.562,4.562,0,0,0-2.131-.49,4.628,4.628,0,0,0-2.02.43c.041-.04.077-.083.119-.123a4.619,4.619,0,0,1,3.458-1.281,7.186,7.186,0,0,1,1.444.836A1.281,1.281,0,0,0,36.079,18.537Zm-2.251-3.846a5.29,5.29,0,0,1,5.153,4.127,1.42,1.42,0,0,0-1.089-.671l-.113.013a8.994,8.994,0,0,0-7.613-1.985A5.262,5.262,0,0,1,33.828,14.691Z" transform="translate(-25.736 -14.134)" fill="#ef8294"/>
        <path id="Path_11353" data-name="Path 11353" d="M129.822,111.391h0a1.84,1.84,0,0,1-.509-.084,1.32,1.32,0,0,0,.315.148l.321.064a.747.747,0,0,0,.066.246.829.829,0,0,0,.453.4c.034-.073.068-.151.105-.237a.586.586,0,0,1-.318-.274.712.712,0,0,1-.039-.343A1.5,1.5,0,0,1,129.822,111.391Z" transform="translate(-118.743 -103.365)" fill="#ef8294"/>
        <path id="Path_11354" data-name="Path 11354" d="M68.762,158.006a.4.4,0,0,1-.238-.08,3.9,3.9,0,0,1-2.5,1.853A3.817,3.817,0,0,1,63.584,158l-.049,0a.631.631,0,0,1-.442-.232,4.158,4.158,0,0,1,.322.662,4.445,4.445,0,0,0,2.613,1.712c.725,0,2.065-.886,3.032-2.251A.51.51,0,0,1,68.762,158.006Z" transform="translate(-57.936 -146.034)" fill="#ef8294"/>
        <path id="Path_11355" data-name="Path 11355" d="M3.885,81.864c.2-.108.407.3.639.716.372.671.9,1.7,1.216,1.355s-.715-1.644-1.175-2.621a2.887,2.887,0,0,1-.4-1.34c.066-.367.828.078,1.187.085s.964-.214.954-.45c-.005-.128-.652-.249-1.259-.474a7.5,7.5,0,0,1-1.123-.565,5.251,5.251,0,0,0-1.166-.4,1.8,1.8,0,0,1-.741-.735L0,78.6a4.388,4.388,0,0,1,.535,1.311,8.182,8.182,0,0,0,.84,2.212c.184.57.971,2.438,1.4,2.5.482.069-.829-1.922-.484-2.053.121-.047.351.5.605,1.048.347.745.836,1.84,1.1,1.721.681-.308-1.445-2.933-.99-3,.162-.025.594.655.964,1.341.418.774,1.019,1.815,1.307,1.5.244-.264-.4-1.2-.837-1.93C4.052,82.6,3.724,81.953,3.885,81.864Z" transform="translate(0 -72.263)" fill="#ef8294"/>
        <path id="Path_11356" data-name="Path 11356" d="M128.1,77.437a1.81,1.81,0,0,1-.741.735,5.255,5.255,0,0,0-1.166.4,7.475,7.475,0,0,1-1.123.565c-.607.225-1.255.346-1.26.474-.008.235.6.458.955.45s1.12-.453,1.186-.085a2.886,2.886,0,0,1-.4,1.34c-.46.976-1.483,2.285-1.175,2.621s.844-.684,1.215-1.355c.233-.42.443-.825.64-.716.162.088-.166.74-.549,1.386-.433.728-1.081,1.666-.837,1.93.288.312.89-.729,1.307-1.5.37-.686.8-1.366.964-1.342.454.07-1.672,2.694-.991,3,.265.119.754-.975,1.1-1.721.255-.547.484-1.094.606-1.048.345.131-.966,2.122-.485,2.053.424-.06,1.212-1.929,1.4-2.5a8.178,8.178,0,0,0,.84-2.212,4.4,4.4,0,0,1,.535-1.312Z" transform="translate(-113.688 -72.263)" fill="#ef8294"/>
        <path id="Path_11357" data-name="Path 11357" d="M110.534,113.17a.752.752,0,0,0-.383.575c-.018.123.245.046.254-.033a.314.314,0,0,1,.12-.267l0,.079a.375.375,0,0,0,.65-.372,4.885,4.885,0,0,1,.576-.05A2.843,2.843,0,0,0,110.534,113.17Z" transform="translate(-101.147 -104.979)" fill="#ef8294"/>
        <path id="Path_11358" data-name="Path 11358" d="M114.711,119.5a2.754,2.754,0,0,1-.5.17,7.175,7.175,0,0,1-.728.067,6.546,6.546,0,0,0,.68.064C114.4,119.8,114.711,119.5,114.711,119.5Z" transform="translate(-104.212 -110.891)" fill="#ef8294"/>
        <path id="Path_11359" data-name="Path 11359" d="M68.928,113.662a.375.375,0,0,0,.512-.137l0-.079a.315.315,0,0,1,.121.267c.009.078.272.156.254.033a.751.751,0,0,0-.383-.575,2.84,2.84,0,0,0-1.221-.068,4.988,4.988,0,0,1,.575.05A.374.374,0,0,0,68.928,113.662Z" transform="translate(-62.64 -104.978)" fill="#ef8294"/>
        <path id="Path_11360" data-name="Path 11360" d="M70.765,119.74a7.179,7.179,0,0,1-.728-.067,2.749,2.749,0,0,1-.5-.17s.308.3.544.3A6.573,6.573,0,0,0,70.765,119.74Z" transform="translate(-63.858 -110.891)" fill="#ef8294"/>
      </g>
    </g>
  </g>
</svg>
