<svg id="Group_2890" data-name="Group 2890" xmlns="http://www.w3.org/2000/svg" xmlns:xlink="http://www.w3.org/1999/xlink" width="273.024" height="172.444" viewBox="0 0 273.024 172.444">
  <defs>
    <linearGradient id="linear-gradient" x1="0.212" y1="-0.279" x2="0.496" y2="0.489" gradientUnits="objectBoundingBox">
      <stop offset="0.451" stop-color="#307f00"/>
      <stop offset="1" stop-color="#c1d400"/>
    </linearGradient>
    <linearGradient id="linear-gradient-2" x1="0.018" y1="0.286" x2="1.063" y2="0.741" gradientUnits="objectBoundingBox">
      <stop offset="0" stop-color="#c1d400"/>
      <stop offset="0.008" stop-color="#bbd100"/>
      <stop offset="0.079" stop-color="#91b800"/>
      <stop offset="0.152" stop-color="#6ea300"/>
      <stop offset="0.225" stop-color="#529300"/>
      <stop offset="0.299" stop-color="#3f8800"/>
      <stop offset="0.374" stop-color="#338100"/>
      <stop offset="0.451" stop-color="#307f00"/>
      <stop offset="1" stop-color="#c1d400"/>
    </linearGradient>
    <linearGradient id="linear-gradient-3" x1="0.5" y1="-0.269" x2="0.5" y2="2.254" gradientUnits="objectBoundingBox">
      <stop offset="0" stop-color="#ffca3f"/>
      <stop offset="0.097" stop-color="#ca7c22"/>
      <stop offset="0.189" stop-color="#fddb7a"/>
      <stop offset="0.42" stop-color="#ffad45"/>
      <stop offset="0.554" stop-color="#a95f0d"/>
      <stop offset="0.656" stop-color="#ffad45"/>
      <stop offset="0.79" stop-color="#ffff9b"/>
      <stop offset="0.868" stop-color="#ffed7b"/>
      <stop offset="1" stop-color="#ffca3f"/>
    </linearGradient>
  </defs>
  <g id="Group_2852" data-name="Group 2852" transform="translate(0 0)">
    <g id="Group_2851" data-name="Group 2851">
      <g id="Group_2837" data-name="Group 2837">
        <path id="Path_5831" data-name="Path 5831" d="M713.3,219.851a11.773,11.773,0,0,1-11.731,11.741H452.017a11.775,11.775,0,0,1-11.739-11.741V70.883a11.768,11.768,0,0,1,11.739-11.735H701.572A11.767,11.767,0,0,1,713.3,70.883Z" transform="translate(-440.278 -59.148)" fill="url(#linear-gradient)"/>
        <path id="Path_5832" data-name="Path 5832" d="M452.313,235.211H701.167c6.441,0,11.7-5.515,11.7-12.249L713.1,76.908c-12.6-1.445-12.573-1.438-25.652-1.438-156.482,0-155.614,139.556-246.972,142.251l.133,5.241C440.61,229.7,445.875,235.211,452.313,235.211Z" transform="translate(-440.322 -62.787)" fill="url(#linear-gradient-2)"/>
      </g>
      <g id="Group_2838" data-name="Group 2838" transform="translate(24.525 25.337)">
        <path id="Path_5833" data-name="Path 5833" d="M517.094,121.15a6.464,6.464,0,0,1-6.466,6.466H478.3a6.461,6.461,0,0,1-6.462-6.466V98.215a6.46,6.46,0,0,1,6.462-6.461h32.326a6.463,6.463,0,0,1,6.466,6.461Z" transform="translate(-471.839 -91.754)" fill-rule="evenodd" fill="url(#linear-gradient-3)"/>
        <path id="Path_5834" data-name="Path 5834" d="M517.094,103.054v-.827H508.8V91.754h-.826v10.473h-6.718a7.414,7.414,0,0,0-6.381-5.164V91.754h-.826v5.252a7.416,7.416,0,0,0-6.942,5.221h-6.1V91.754h-.827v10.473h-8.344v.827h8.344v11.732h-8.344v.83h8.344v12h.827v-12h5.924a7.449,7.449,0,0,0,7.117,5.778v6.221h.826v-6.28a7.431,7.431,0,0,0,6.554-5.72h6.545v12h.826v-12h8.291v-.83h-4.943V103.054Zm-30.275,11.732H481.01V103.054h5.862a7.3,7.3,0,0,0,1.608,6.145,7.4,7.4,0,0,0-1.745,4.76A7.079,7.079,0,0,0,486.819,114.787Zm7.364,5.795a6.6,6.6,0,0,1-4.849-11.1l.258-.281-.258-.279a6.621,6.621,0,1,1,9.7,0l-.261.279.261.281a6.6,6.6,0,0,1-4.848,11.1Zm17.139-5.795h-9.775a6.638,6.638,0,0,0-1.661-5.587,7.4,7.4,0,0,0,1.746-4.757,7.5,7.5,0,0,0-.14-1.388h9.829Z" transform="translate(-471.839 -91.754)" fill="#ff9100" style="mix-blend-mode: multiply;isolation: isolate"/>
      </g>
      <g id="Group_2839" data-name="Group 2839" transform="translate(24.383 83.213)">
        <path id="Path_5835" data-name="Path 5835" d="M472.484,169.784l-.828-.863,2.478-2.689h2.057v12.3h-1.372V167.675a1.186,1.186,0,0,1,.054-.458l-.054-.053Z" transform="translate(-471.656 -166.232)" fill="#d6d6d6"/>
        <path id="Path_5836" data-name="Path 5836" d="M480.884,178.536v-1.864a1.253,1.253,0,0,1,.043-.412,1.273,1.273,0,0,1,.291-.307l5.834-5.326a.851.851,0,0,0,.282-.36,1.909,1.909,0,0,0,.054-.521v-1.561a1.414,1.414,0,0,0-.027-.345.575.575,0,0,0-.184-.2.961.961,0,0,0-.245-.148,1.816,1.816,0,0,0-.406-.026H483.4a1.763,1.763,0,0,0-.4.026.95.95,0,0,0-.246.148.571.571,0,0,0-.185.2,1.325,1.325,0,0,0-.026.345v.331H481.06v-.7a1.1,1.1,0,0,1,.424-.88l.42-.351a1.325,1.325,0,0,1,.845-.351h4.429a1.323,1.323,0,0,1,.842.351l.422.351a1.1,1.1,0,0,1,.423.88v2.479a1.893,1.893,0,0,1-.053.518.853.853,0,0,1-.282.36l-5.819,5.255a1.325,1.325,0,0,0-.3.351,1.356,1.356,0,0,0-.054.458v.071h6.5v1.23Z" transform="translate(-473.713 -166.232)" fill="#d6d6d6"/>
        <path id="Path_5837" data-name="Path 5837" d="M501.662,172.315l.687.562a1.084,1.084,0,0,1,.306.316,1.8,1.8,0,0,1,.045.526v3.236a1.375,1.375,0,0,1-.061.491,1.609,1.609,0,0,1-.271.371l-.318.315a1.173,1.173,0,0,1-.826.4h-4.991a1.314,1.314,0,0,1-.845-.351l-.421-.351a1.1,1.1,0,0,1-.421-.879v-.7h1.476v.333a1.4,1.4,0,0,0,.026.343.564.564,0,0,0,.186.2.843.843,0,0,0,.245.149,1.788,1.788,0,0,0,.4.028h3.48a1.792,1.792,0,0,0,.406-.028.865.865,0,0,0,.245-.149.552.552,0,0,0,.185-.2,1.275,1.275,0,0,0,.026-.343v-2.653a.867.867,0,0,0-.317-.67l-.263-.227a1.509,1.509,0,0,0-.368-.265,1.843,1.843,0,0,0-.441-.034h-2.812V171.61h2.567a1.7,1.7,0,0,0,.438-.035,1.386,1.386,0,0,0,.369-.263l.266-.211a1.24,1.24,0,0,0,.309-.309,1.3,1.3,0,0,0,.042-.43v-2.177a1.326,1.326,0,0,0-.026-.345.554.554,0,0,0-.186-.2.962.962,0,0,0-.245-.148,1.785,1.785,0,0,0-.4-.026h-2.9a1.9,1.9,0,0,0-.422.026.964.964,0,0,0-.246.148.567.567,0,0,0-.184.2,1.315,1.315,0,0,0-.026.345v.331H494.9v-.7a1.1,1.1,0,0,1,.423-.88l.423-.351a1.32,1.32,0,0,1,.842-.351H500.8a1.327,1.327,0,0,1,.845.351l.42.351a1.1,1.1,0,0,1,.423.88V170.7a1.067,1.067,0,0,1-.043.385,1.051,1.051,0,0,1-.275.264l-.51.421a.835.835,0,0,1-.492.229v.086A.824.824,0,0,1,501.662,172.315Z" transform="translate(-476.759 -166.232)" fill="#d6d6d6"/>
        <path id="Path_5838" data-name="Path 5838" d="M514.43,170.978H515.9V174.5h1.688v1.229H515.9v2.811H514.43v-2.811h-6.222v-1.442l6.01-8.051h1.651l-5.854,7.857a1.02,1.02,0,0,1-.3.333v.074h4.712Z" transform="translate(-479.804 -166.232)" fill="#d6d6d6"/>
        <path id="Path_5839" data-name="Path 5839" d="M543.4,170.449h3.972a1.325,1.325,0,0,1,.845.355l.42.35a1.093,1.093,0,0,1,.422.877v4.924a1.1,1.1,0,0,1-.422.879l-.42.351a1.319,1.319,0,0,1-.845.351H542.1a1.324,1.324,0,0,1-.846-.351l-.421-.351a1.1,1.1,0,0,1-.421-.879v-.7h1.477v.333a1.268,1.268,0,0,0,.027.343.52.52,0,0,0,.184.2.855.855,0,0,0,.246.149,1.778,1.778,0,0,0,.4.028h3.971a1.8,1.8,0,0,0,.4-.028.876.876,0,0,0,.246-.149.523.523,0,0,0,.183-.2,1.257,1.257,0,0,0,.028-.343V172.4a1.25,1.25,0,0,0-.028-.342.512.512,0,0,0-.183-.2.893.893,0,0,0-.246-.151,1.835,1.835,0,0,0-.4-.026h-3.391a1.338,1.338,0,0,0-.845.35.971.971,0,0,0-.422.7H540.59v-6.5h8.26v1.231h-6.784v3.85h.071c.01-.128.14-.287.386-.475A1.624,1.624,0,0,1,543.4,170.449Z" transform="translate(-486.984 -166.232)" fill="#d6d6d6"/>
        <path id="Path_5840" data-name="Path 5840" d="M564.281,168.517H562.8v-.331a1.269,1.269,0,0,0-.027-.345.557.557,0,0,0-.185-.2.949.949,0,0,0-.245-.148,1.771,1.771,0,0,0-.4-.026h-4.221a1.814,1.814,0,0,0-.4.026.977.977,0,0,0-.246.148.56.56,0,0,0-.184.2,1.417,1.417,0,0,0-.027.345v3.5h.072l.087-.088c.411-.409.732-.615.966-.615h4.783a1.329,1.329,0,0,1,.842.352l.423.351a1.1,1.1,0,0,1,.42.88v4.394a1.1,1.1,0,0,1-.42.879l-.423.351a1.312,1.312,0,0,1-.842.351h-5.7a1.313,1.313,0,0,1-.842-.351l-.422-.351a1.1,1.1,0,0,1-.422-.879v-9.141a1.107,1.107,0,0,1,.422-.88l.422-.351a1.322,1.322,0,0,1,.842-.351h5.52a1.322,1.322,0,0,1,.843.351l.421.351a1.1,1.1,0,0,1,.424.88Zm-1.3,8.068V172.93a1.3,1.3,0,0,0-.027-.343.513.513,0,0,0-.182-.2.852.852,0,0,0-.249-.151,1.824,1.824,0,0,0-.4-.026h-3.954a1.8,1.8,0,0,0-.449.033,2.618,2.618,0,0,0-.43.229c-.27.164-.41.31-.424.439v3.674a1.417,1.417,0,0,0,.027.343.541.541,0,0,0,.184.2.877.877,0,0,0,.246.149,1.829,1.829,0,0,0,.4.028h4.4a1.771,1.771,0,0,0,.4-.028.823.823,0,0,0,.249-.149.535.535,0,0,0,.182-.2A1.3,1.3,0,0,0,562.979,176.585Z" transform="translate(-490.322 -166.232)" fill="#d6d6d6"/>
        <path id="Path_5841" data-name="Path 5841" d="M571.077,178.536l5.78-10.722a.872.872,0,0,1,.3-.351h-7.608v-1.231h9.015v1.337l-5.87,10.968Z" transform="translate(-493.478 -166.232)" fill="#d6d6d6"/>
        <path id="Path_5842" data-name="Path 5842" d="M584.788,173.1l.826-.683a.832.832,0,0,1,.493-.228V172.1a.833.833,0,0,1-.493-.228l-.58-.458a.729.729,0,0,1-.28-.6v-3a1.1,1.1,0,0,1,.42-.88l.423-.351a1.329,1.329,0,0,1,.845-.351h5.377a1.326,1.326,0,0,1,.845.351l.42.351a1.1,1.1,0,0,1,.423.88v3a.734.734,0,0,1-.279.6l-.581.458a.837.837,0,0,1-.492.228v.089a.836.836,0,0,1,.492.228l.825.683a.832.832,0,0,1,.246.688v3.164a1.1,1.1,0,0,1-.423.879c-.093.068-.235.187-.422.351a1.316,1.316,0,0,1-.842.351h-5.8a1.314,1.314,0,0,1-.845-.351c-.188-.164-.329-.283-.421-.351a1.1,1.1,0,0,1-.422-.879v-3.164A.832.832,0,0,1,584.788,173.1Zm6.116-.192h-3.55a1.6,1.6,0,0,0-.351.026,1.127,1.127,0,0,0-.3.2l-.385.317a.9.9,0,0,0-.265.261,1.252,1.252,0,0,0-.033.37v2.5a1.314,1.314,0,0,0,.026.343.545.545,0,0,0,.185.2.864.864,0,0,0,.245.149,1.777,1.777,0,0,0,.406.028h4.5a1.789,1.789,0,0,0,.4-.028.866.866,0,0,0,.246-.149.529.529,0,0,0,.183-.2,1.375,1.375,0,0,0,.027-.343v-2.5a1.331,1.331,0,0,0-.034-.37.9.9,0,0,0-.263-.261l-.388-.317a1.092,1.092,0,0,0-.3-.2A1.6,1.6,0,0,0,590.9,172.911Zm.263-5.448h-4.077a1.785,1.785,0,0,0-.4.026.961.961,0,0,0-.246.148.555.555,0,0,0-.185.2,1.4,1.4,0,0,0-.026.345v2.282a1.283,1.283,0,0,0,.034.387.883.883,0,0,0,.245.263l.458.37a.863.863,0,0,0,.272.167,1.984,1.984,0,0,0,.414.026h2.953a1.936,1.936,0,0,0,.412-.026.832.832,0,0,0,.273-.167l.456-.37a.871.871,0,0,0,.249-.263,1.435,1.435,0,0,0,.034-.387v-2.282a1.3,1.3,0,0,0-.027-.345.56.56,0,0,0-.184-.2.95.95,0,0,0-.246-.148A1.757,1.757,0,0,0,591.167,167.463Z" transform="translate(-496.821 -166.232)" fill="#d6d6d6"/>
        <path id="Path_5843" data-name="Path 5843" d="M617.333,176.252h1.476v.333a1.431,1.431,0,0,0,.026.343.545.545,0,0,0,.185.2.854.854,0,0,0,.245.149,1.842,1.842,0,0,0,.408.028h4.217a1.779,1.779,0,0,0,.4-.028.865.865,0,0,0,.245-.149.545.545,0,0,0,.185-.2,1.279,1.279,0,0,0,.026-.343v-3.5h-.071l-.087.088c-.41.409-.731.615-.967.615h-4.781a1.326,1.326,0,0,1-.845-.351l-.42-.352a1.094,1.094,0,0,1-.424-.878v-4.4a1.1,1.1,0,0,1,.424-.88l.42-.351a1.325,1.325,0,0,1,.845-.351h5.694a1.319,1.319,0,0,1,.843.351l.421.351a1.1,1.1,0,0,1,.424.88v9.141a1.1,1.1,0,0,1-.424.879l-.421.351a1.311,1.311,0,0,1-.843.351H619.02a1.31,1.31,0,0,1-.842-.351l-.423-.351a1.1,1.1,0,0,1-.422-.879Zm1.3-8.067v3.653a1.263,1.263,0,0,0,.026.345.547.547,0,0,0,.184.2.933.933,0,0,0,.246.148,1.759,1.759,0,0,0,.4.027h3.954a1.814,1.814,0,0,0,.45-.035,2.534,2.534,0,0,0,.43-.228c.268-.165.409-.311.422-.439v-3.672a1.282,1.282,0,0,0-.026-.345.564.564,0,0,0-.185-.2.962.962,0,0,0-.245-.148,1.767,1.767,0,0,0-.4-.026h-4.4a1.775,1.775,0,0,0-.4.026.962.962,0,0,0-.246.148.56.56,0,0,0-.184.2A1.248,1.248,0,0,0,618.634,168.186Z" transform="translate(-504.091 -166.232)" fill="#d6d6d6"/>
        <path id="Path_5844" data-name="Path 5844" d="M634.608,166.232h6.962a1.323,1.323,0,0,1,.842.351l.423.351a1.108,1.108,0,0,1,.423.88v9.141a1.105,1.105,0,0,1-.423.879l-.423.351a1.315,1.315,0,0,1-.842.351h-6.962a1.312,1.312,0,0,1-.842-.351l-.422-.351a1.1,1.1,0,0,1-.424-.879v-9.141a1.1,1.1,0,0,1,.424-.88l.422-.351A1.32,1.32,0,0,1,634.608,166.232Zm7.172,10.353v-8.4a1.428,1.428,0,0,0-.026-.345.575.575,0,0,0-.184-.2.92.92,0,0,0-.249-.148,1.754,1.754,0,0,0-.4-.026h-5.659a1.8,1.8,0,0,0-.4.026.948.948,0,0,0-.246.148.572.572,0,0,0-.185.2,1.429,1.429,0,0,0-.026.345v8.4a1.428,1.428,0,0,0,.026.343.552.552,0,0,0,.185.2.854.854,0,0,0,.246.149,1.813,1.813,0,0,0,.4.028h5.659a1.766,1.766,0,0,0,.4-.028.833.833,0,0,0,.249-.149.555.555,0,0,0,.184-.2A1.427,1.427,0,0,0,641.78,176.585Z" transform="translate(-507.605 -166.232)" fill="#d6d6d6"/>
        <path id="Path_5845" data-name="Path 5845" d="M650.349,169.784l-.828-.863,2.48-2.689h2.055v12.3h-1.37V167.675a1.264,1.264,0,0,1,.052-.458l-.052-.053Z" transform="translate(-511.306 -166.232)" fill="#d6d6d6"/>
        <path id="Path_5846" data-name="Path 5846" d="M658.752,178.536v-1.864a1.21,1.21,0,0,1,.043-.412,1.246,1.246,0,0,1,.291-.307l5.836-5.326a.861.861,0,0,0,.281-.36,1.953,1.953,0,0,0,.052-.521v-1.561a1.3,1.3,0,0,0-.027-.345.56.56,0,0,0-.184-.2.964.964,0,0,0-.246-.148,1.772,1.772,0,0,0-.4-.026h-3.129a1.757,1.757,0,0,0-.4.026.95.95,0,0,0-.246.148.575.575,0,0,0-.184.2,1.313,1.313,0,0,0-.026.345v.331h-1.477v-.7a1.1,1.1,0,0,1,.422-.88l.423-.351a1.317,1.317,0,0,1,.842-.351h4.429a1.325,1.325,0,0,1,.845.351l.421.351a1.1,1.1,0,0,1,.421.88v2.479a1.9,1.9,0,0,1-.052.518.854.854,0,0,1-.281.36l-5.818,5.255a1.251,1.251,0,0,0-.3.351,1.279,1.279,0,0,0-.054.458v.071h6.5v1.23Z" transform="translate(-513.364 -166.232)" fill="#d6d6d6"/>
        <path id="Path_5847" data-name="Path 5847" d="M696.494,172.315l.686.562a1.084,1.084,0,0,1,.306.316,1.774,1.774,0,0,1,.045.526v3.236a1.4,1.4,0,0,1-.061.491,1.54,1.54,0,0,1-.275.371l-.313.315a1.184,1.184,0,0,1-.826.4h-4.993a1.319,1.319,0,0,1-.845-.351l-.423-.351a1.1,1.1,0,0,1-.42-.879v-.7h1.476v.333a1.353,1.353,0,0,0,.026.343.538.538,0,0,0,.185.2.868.868,0,0,0,.246.149,1.78,1.78,0,0,0,.4.028h3.481a1.8,1.8,0,0,0,.4-.028.864.864,0,0,0,.246-.149.548.548,0,0,0,.184-.2,1.407,1.407,0,0,0,.028-.343v-2.653a.868.868,0,0,0-.318-.67l-.264-.227a1.463,1.463,0,0,0-.37-.265,1.789,1.789,0,0,0-.438-.034h-2.813V171.61h2.568a1.7,1.7,0,0,0,.438-.035,1.435,1.435,0,0,0,.37-.263l.265-.211a1.209,1.209,0,0,0,.305-.309,1.3,1.3,0,0,0,.045-.43v-2.177a1.269,1.269,0,0,0-.027-.345.559.559,0,0,0-.184-.2.949.949,0,0,0-.245-.148,1.772,1.772,0,0,0-.4-.026h-2.9a1.9,1.9,0,0,0-.423.026.962.962,0,0,0-.245.148.568.568,0,0,0-.186.2,1.349,1.349,0,0,0-.026.345v.331h-1.477v-.7a1.1,1.1,0,0,1,.423-.88l.42-.351a1.329,1.329,0,0,1,.846-.351h4.217a1.318,1.318,0,0,1,.843.351l.423.351a1.1,1.1,0,0,1,.422.88V170.7a1.052,1.052,0,0,1-.045.385.981.981,0,0,1-.273.264l-.509.421A.835.835,0,0,1,696,172v.086A.824.824,0,0,1,696.494,172.315Z" transform="translate(-520.191 -166.232)" fill="#d6d6d6"/>
        <path id="Path_5848" data-name="Path 5848" d="M709.258,170.978h1.476V174.5h1.687v1.229h-1.687v2.811h-1.476v-2.811h-6.223v-1.442l6.014-8.051H710.7l-5.852,7.857a1.029,1.029,0,0,1-.3.333v.074h4.71Z" transform="translate(-523.236 -166.232)" fill="#d6d6d6"/>
        <path id="Path_5849" data-name="Path 5849" d="M721.268,170.449h3.974a1.325,1.325,0,0,1,.843.355l.422.35a1.1,1.1,0,0,1,.42.877v4.924a1.1,1.1,0,0,1-.42.879l-.422.351a1.318,1.318,0,0,1-.843.351h-5.273a1.319,1.319,0,0,1-.845-.351l-.42-.351a1.1,1.1,0,0,1-.423-.879v-.7h1.476v.333a1.3,1.3,0,0,0,.026.343.537.537,0,0,0,.185.2.855.855,0,0,0,.246.149,1.784,1.784,0,0,0,.4.028h3.972a1.774,1.774,0,0,0,.4-.028.859.859,0,0,0,.248-.149.526.526,0,0,0,.183-.2,1.3,1.3,0,0,0,.027-.343V172.4a1.294,1.294,0,0,0-.027-.342.515.515,0,0,0-.183-.2.874.874,0,0,0-.248-.151,1.812,1.812,0,0,0-.4-.026H721.2a1.337,1.337,0,0,0-.845.35.969.969,0,0,0-.42.7h-1.476v-6.5h8.261v1.231h-6.785v3.85H720c.014-.128.141-.287.388-.475A1.618,1.618,0,0,1,721.268,170.449Z" transform="translate(-526.634 -166.232)" fill="#d6d6d6"/>
        <path id="Path_5850" data-name="Path 5850" d="M742.148,168.517h-1.476v-.331a1.351,1.351,0,0,0-.026-.345.562.562,0,0,0-.186-.2.891.891,0,0,0-.246-.148,1.763,1.763,0,0,0-.4-.026h-4.216a1.78,1.78,0,0,0-.406.026.949.949,0,0,0-.244.148.581.581,0,0,0-.186.2,1.419,1.419,0,0,0-.025.345v3.5h.068l.089-.088c.41-.409.732-.615.968-.615h4.781a1.326,1.326,0,0,1,.842.352l.422.351a1.1,1.1,0,0,1,.423.88v4.394a1.1,1.1,0,0,1-.423.879l-.422.351a1.308,1.308,0,0,1-.842.351h-5.694a1.314,1.314,0,0,1-.845-.351l-.42-.351a1.1,1.1,0,0,1-.423-.879v-9.141a1.1,1.1,0,0,1,.423-.88l.42-.351a1.322,1.322,0,0,1,.845-.351h5.516a1.326,1.326,0,0,1,.845.351l.422.351a1.1,1.1,0,0,1,.421.88Zm-1.3,8.068V172.93a1.279,1.279,0,0,0-.026-.343.525.525,0,0,0-.184-.2.878.878,0,0,0-.246-.151,1.838,1.838,0,0,0-.4-.026h-3.955a1.758,1.758,0,0,0-.447.033,2.468,2.468,0,0,0-.431.229q-.408.246-.422.439v3.674a1.417,1.417,0,0,0,.025.343.561.561,0,0,0,.186.2.854.854,0,0,0,.244.149,1.792,1.792,0,0,0,.406.028h4.394a1.784,1.784,0,0,0,.4-.028.846.846,0,0,0,.246-.149.548.548,0,0,0,.184-.2A1.279,1.279,0,0,0,740.848,176.585Z" transform="translate(-529.972 -166.232)" fill="#d6d6d6"/>
      </g>
      <g id="Group_2840" data-name="Group 2840" transform="translate(24.904 106.409)">
        <path id="Path_5851" data-name="Path 5851" d="M477.108,199.711a5,5,0,0,1-.591,2.726,2.224,2.224,0,0,1-3.585-.03,4.922,4.922,0,0,1-.606-2.7,5.057,5.057,0,0,1,.589-2.747,2.232,2.232,0,0,1,3.586.044A4.947,4.947,0,0,1,477.108,199.711Zm-3.637,0a5.14,5.14,0,0,0,.3,2.058.984.984,0,0,0,.945.615,1,1,0,0,0,.954-.625,7.2,7.2,0,0,0,0-4.1,1,1,0,0,0-.954-.631.984.984,0,0,0-.945.621A5.167,5.167,0,0,0,473.471,199.711Z" transform="translate(-472.326 -196.083)" fill="#d6d6d6"/>
        <path id="Path_5852" data-name="Path 5852" d="M482.992,203.263h-1.131v-4.545c0-.542.014-.973.038-1.291-.074.075-.165.163-.272.256s-.468.389-1.08.884l-.569-.718,2.071-1.626h.943Z" transform="translate(-474.032 -196.114)" fill="#d6d6d6"/>
        <path id="Path_5853" data-name="Path 5853" d="M491.6,203.234h-4.772v-.855l1.814-1.826a15.294,15.294,0,0,0,1.067-1.169,2.772,2.772,0,0,0,.383-.647,1.766,1.766,0,0,0,.122-.65,1,1,0,0,0-.289-.751,1.085,1.085,0,0,0-.79-.276,2.11,2.11,0,0,0-.783.15,3.645,3.645,0,0,0-.873.539l-.613-.745a4.017,4.017,0,0,1,1.141-.7,3.359,3.359,0,0,1,1.18-.207,2.338,2.338,0,0,1,1.574.512,1.736,1.736,0,0,1,.594,1.381,2.433,2.433,0,0,1-.172.907,3.6,3.6,0,0,1-.526.881,11.892,11.892,0,0,1-1.177,1.232l-1.222,1.183v.05H491.6Z" transform="translate(-475.559 -196.085)" fill="#d6d6d6"/>
        <path id="Path_5854" data-name="Path 5854" d="M498.571,197.813a1.633,1.633,0,0,1-.39,1.114,1.979,1.979,0,0,1-1.1.6v.04a2.113,2.113,0,0,1,1.273.526,1.515,1.515,0,0,1,.423,1.118,1.862,1.862,0,0,1-.719,1.569,3.294,3.294,0,0,1-2.041.553,4.6,4.6,0,0,1-1.974-.381v-1.009a4.548,4.548,0,0,0,.948.343,4.169,4.169,0,0,0,.964.121,2.053,2.053,0,0,0,1.223-.3,1.1,1.1,0,0,0,.4-.942.894.894,0,0,0-.45-.828,2.87,2.87,0,0,0-1.4-.265h-.612v-.918h.621q1.687,0,1.688-1.166a.854.854,0,0,0-.3-.7,1.311,1.311,0,0,0-.866-.246,2.607,2.607,0,0,0-.771.113,3.661,3.661,0,0,0-.874.441l-.554-.79a3.683,3.683,0,0,1,2.247-.713,2.685,2.685,0,0,1,1.661.456A1.506,1.506,0,0,1,498.571,197.813Z" transform="translate(-477.168 -196.085)" fill="#d6d6d6"/>
      </g>
      <g id="Group_2842" data-name="Group 2842" transform="translate(23.451 5.254)">
        <g id="Group_2841" data-name="Group 2841">
          <path id="Path_5855" data-name="Path 5855" d="M471.749,77.719a2.19,2.19,0,0,1-.673-.512,2.434,2.434,0,0,1-.453-.757,2.558,2.558,0,0,1-.167-.924V72.081a2.557,2.557,0,0,1,.167-.923,2.438,2.438,0,0,1,.453-.758,2.215,2.215,0,0,1,.673-.512,1.885,1.885,0,0,1,.841-.19h1.967v1.776H472.59a.4.4,0,0,0-.3.161.671.671,0,0,0-.137.447v3.445a.652.652,0,0,0,.137.435.4.4,0,0,0,.3.161h1.967V77.91H472.59A1.875,1.875,0,0,1,471.749,77.719Z" transform="translate(-470.456 -66.754)" fill="#d6d6d6"/>
          <path id="Path_5856" data-name="Path 5856" d="M478.861,71.659a.673.673,0,0,0-.132.423v5.841h-1.692V72.081a2.611,2.611,0,0,1,.155-.894,2.377,2.377,0,0,1,.441-.757,2.275,2.275,0,0,1,.68-.531,1.853,1.853,0,0,1,.858-.2h1.966v1.787H479.17A.382.382,0,0,0,478.861,71.659Z" transform="translate(-471.923 -66.754)" fill="#d6d6d6"/>
          <path id="Path_5857" data-name="Path 5857" d="M484.949,75.539c0,.27.072.437.215.5a1.766,1.766,0,0,0,.68.1h1.549v1.788h-1.049l-1.12-.012a1.589,1.589,0,0,1-.811-.214,2.194,2.194,0,0,1-.632-.549,2.5,2.5,0,0,1-.4-.757,2.638,2.638,0,0,1-.144-.852V72.081a2.543,2.543,0,0,1,.16-.894,2.438,2.438,0,0,1,.448-.757,2.24,2.24,0,0,1,.685-.531,1.91,1.91,0,0,1,.875-.2h.442a1.89,1.89,0,0,1,.863.2,2.25,2.25,0,0,1,.685.531,2.45,2.45,0,0,1,.447.757,2.509,2.509,0,0,1,.161.894v2.527h-3.052Zm1.21-3.874a.392.392,0,0,0-.315-.18H485.4a.4.4,0,0,0-.322.173.682.682,0,0,0-.131.423v.751H486.3v-.751A.664.664,0,0,0,486.159,71.665Z" transform="translate(-473.304 -66.754)" fill="#d6d6d6"/>
          <path id="Path_5858" data-name="Path 5858" d="M493.072,77.077a1.861,1.861,0,0,1-.846-.2,2.29,2.29,0,0,1-.692-.53,2.47,2.47,0,0,1-.465-.775,2.61,2.61,0,0,1-.167-.93v-3.5a2.613,2.613,0,0,1,.167-.93,2.47,2.47,0,0,1,.465-.775,2.29,2.29,0,0,1,.692-.53,1.861,1.861,0,0,1,.846-.2h.441a1.406,1.406,0,0,1,.452.071V65.909h1.7v8.737a2.626,2.626,0,0,1-.166.93,2.55,2.55,0,0,1-.46.775,2.228,2.228,0,0,1-.685.53,1.863,1.863,0,0,1-.846.2Zm.744-6.377a.418.418,0,0,0-.3-.167h-.441a.408.408,0,0,0-.309.167.65.65,0,0,0-.144.441v3.5a.644.644,0,0,0,.144.447.412.412,0,0,0,.309.161h.441a.422.422,0,0,0,.3-.161.631.631,0,0,0,.149-.447v-3.5A.638.638,0,0,0,493.816,70.7Z" transform="translate(-475.014 -65.909)" fill="#d6d6d6"/>
          <path id="Path_5859" data-name="Path 5859" d="M500.228,68.721h-1.657V67.244h1.657Zm-.429,8.451a2.1,2.1,0,0,1-.656-.542,2.535,2.535,0,0,1-.423-.775,2.8,2.8,0,0,1-.149-.912v-5.8h1.657v5.8a.72.72,0,0,0,.125.441.361.361,0,0,0,.292.166h.453v1.824h-.453A1.764,1.764,0,0,1,499.8,77.172Z" transform="translate(-476.723 -66.207)" fill="#d6d6d6"/>
          <path id="Path_5860" data-name="Path 5860" d="M504.323,74.646a.72.72,0,0,0,.124.441.362.362,0,0,0,.293.166h.452v1.824h-.452a1.762,1.762,0,0,1-.846-.2,2.1,2.1,0,0,1-.656-.542,2.519,2.519,0,0,1-.423-.775,2.756,2.756,0,0,1-.15-.912V65.909h1.658v2.813h1.764v1.811h-1.764Z" transform="translate(-477.636 -65.909)" fill="#d6d6d6"/>
          <path id="Path_5861" data-name="Path 5861" d="M513.208,77.719a2.19,2.19,0,0,1-.673-.512,2.435,2.435,0,0,1-.453-.757,2.542,2.542,0,0,1-.167-.924V72.081a2.541,2.541,0,0,1,.167-.923,2.439,2.439,0,0,1,.453-.758,2.215,2.215,0,0,1,.673-.512,1.882,1.882,0,0,1,.84-.19h1.967v1.776h-1.967a.4.4,0,0,0-.3.161.666.666,0,0,0-.138.447v3.445a.648.648,0,0,0,.138.435.4.4,0,0,0,.3.161h1.967V77.91h-1.967A1.872,1.872,0,0,1,513.208,77.719Z" transform="translate(-479.698 -66.754)" fill="#d6d6d6"/>
          <path id="Path_5862" data-name="Path 5862" d="M520.357,77.922a1.933,1.933,0,0,1-1.006-.244,2.054,2.054,0,0,1-.667-.626,2.673,2.673,0,0,1-.376-.865,4.043,4.043,0,0,1-.12-.971,2.545,2.545,0,0,1,.162-.894,2.459,2.459,0,0,1,.453-.763,2.177,2.177,0,0,1,.691-.53,1.929,1.929,0,0,1,.864-.2h.894v-.751a.671.671,0,0,0-.136-.417.4.4,0,0,0-.316-.18h-2.015V69.7H520.8a1.893,1.893,0,0,1,.864.2,2.273,2.273,0,0,1,.686.531,2.446,2.446,0,0,1,.445.757,2.509,2.509,0,0,1,.162.894v3.457a2.509,2.509,0,0,1-.162.894,2.446,2.446,0,0,1-.445.757,2.258,2.258,0,0,1-.686.53,1.874,1.874,0,0,1-.864.2Zm0-3.313a.4.4,0,0,0-.316.179.688.688,0,0,0-.136.429v.322a.67.67,0,0,0,.136.417.4.4,0,0,0,.316.178h.441a.4.4,0,0,0,.316-.178.675.675,0,0,0,.136-.417v-.93Z" transform="translate(-481.096 -66.754)" fill="#d6d6d6"/>
          <path id="Path_5863" data-name="Path 5863" d="M527.681,71.659a.682.682,0,0,0-.131.423v5.841h-1.692V72.081a2.631,2.631,0,0,1,.155-.894,2.335,2.335,0,0,1,.441-.757,2.281,2.281,0,0,1,.679-.531,1.85,1.85,0,0,1,.857-.2h1.968v1.787H527.99A.382.382,0,0,0,527.681,71.659Z" transform="translate(-482.806 -66.754)" fill="#d6d6d6"/>
          <path id="Path_5864" data-name="Path 5864" d="M534.224,77.077a1.864,1.864,0,0,1-.847-.2,2.29,2.29,0,0,1-.692-.53,2.44,2.44,0,0,1-.464-.775,2.592,2.592,0,0,1-.167-.93v-3.5a2.6,2.6,0,0,1,.167-.93,2.44,2.44,0,0,1,.464-.775,2.29,2.29,0,0,1,.692-.53,1.864,1.864,0,0,1,.847-.2h.441a1.41,1.41,0,0,1,.452.071V65.909h1.7v8.737a2.627,2.627,0,0,1-.166.93,2.563,2.563,0,0,1-.459.775,2.221,2.221,0,0,1-.686.53,1.86,1.86,0,0,1-.845.2Zm.744-6.377a.419.419,0,0,0-.3-.167h-.441a.408.408,0,0,0-.31.167.65.65,0,0,0-.144.441v3.5a.643.643,0,0,0,.144.447.412.412,0,0,0,.31.161h.441a.423.423,0,0,0,.3-.161.631.631,0,0,0,.148-.447v-3.5A.637.637,0,0,0,534.968,70.7Z" transform="translate(-484.188 -65.909)" fill="#d6d6d6"/>
        </g>
      </g>
      <g id="Group_2843" data-name="Group 2843" transform="translate(204.006 16.675)">
        <path id="Path_5865" data-name="Path 5865" d="M702.808,92.606V84.394h2.61a1.961,1.961,0,0,1,.852.191,2.214,2.214,0,0,1,.691.513,2.382,2.382,0,0,1,.459.756,2.56,2.56,0,0,1,.167.924v.143a2.45,2.45,0,0,1-.131.8,2.592,2.592,0,0,1-.357.692,2.614,2.614,0,0,1,.357.685,2.391,2.391,0,0,1,.131.792v.334a2.553,2.553,0,0,1-.167.923,2.372,2.372,0,0,1-.459.758,2.2,2.2,0,0,1-.691.512,1.949,1.949,0,0,1-.852.19Zm2.927-6.269a.427.427,0,0,0-.316-.166h-.882v1.347h.882a.434.434,0,0,0,.316-.162.619.619,0,0,0,.149-.435v-.143A.641.641,0,0,0,705.734,86.337Zm0,3.123a.425.425,0,0,0-.316-.167h-.882v1.525h.882a.433.433,0,0,0,.316-.161.619.619,0,0,0,.149-.435V89.9A.639.639,0,0,0,705.734,89.461Z" transform="translate(-702.808 -81.45)" fill="#d6d6d6"/>
        <path id="Path_5866" data-name="Path 5866" d="M712.355,92.618a1.943,1.943,0,0,1-1.007-.243,2.053,2.053,0,0,1-.668-.626,2.7,2.7,0,0,1-.375-.865,4.01,4.01,0,0,1-.12-.971,2.508,2.508,0,0,1,.162-.894,2.436,2.436,0,0,1,.453-.763,2.2,2.2,0,0,1,.691-.53,1.926,1.926,0,0,1,.864-.2h.894v-.751a.665.665,0,0,0-.137-.417.4.4,0,0,0-.315-.179h-2.014V84.394H712.8a1.894,1.894,0,0,1,.864.2,2.246,2.246,0,0,1,.685.531,2.442,2.442,0,0,1,.448.756,2.537,2.537,0,0,1,.161.894v3.457a2.519,2.519,0,0,1-.161.893,2.45,2.45,0,0,1-.448.758,2.245,2.245,0,0,1-.685.53,1.883,1.883,0,0,1-.864.2Zm0-3.313a.394.394,0,0,0-.316.179.682.682,0,0,0-.138.429v.322a.665.665,0,0,0,.138.417.392.392,0,0,0,.316.179h.441a.393.393,0,0,0,.315-.179.669.669,0,0,0,.137-.417v-.93Z" transform="translate(-704.453 -81.45)" fill="#d6d6d6"/>
        <path id="Path_5867" data-name="Path 5867" d="M720.918,86.793a.668.668,0,0,0-.138-.417.4.4,0,0,0-.316-.179h-.441a.394.394,0,0,0-.316.179.658.658,0,0,0-.138.417v5.828h-1.717V86.793a2.513,2.513,0,0,1,.162-.894,2.446,2.446,0,0,1,.447-.756,2.24,2.24,0,0,1,.685-.532,1.911,1.911,0,0,1,.876-.2h.441a1.894,1.894,0,0,1,.865.2,2.246,2.246,0,0,1,.685.532,2.448,2.448,0,0,1,.448.756,2.529,2.529,0,0,1,.161.894v5.828h-1.7Z" transform="translate(-706.162 -81.454)" fill="#d6d6d6"/>
        <path id="Path_5868" data-name="Path 5868" d="M728.575,89.021a.706.706,0,0,0-.13-.435.375.375,0,0,0-.3-.173h-.917v3.36h-1.706V80.606h1.706v6h.917a.374.374,0,0,0,.3-.173.7.7,0,0,0,.13-.434V83.407h1.717v2.587a2.569,2.569,0,0,1-.125.793,2.449,2.449,0,0,1-.364.709,2.645,2.645,0,0,1,.489,1.526v2.752h-1.717Z" transform="translate(-707.872 -80.606)" fill="#d6d6d6"/>
        <path id="Path_5869" data-name="Path 5869" d="M740.2,90.223l-1.323-2.253v4.636h-1.741V84.394h1.633l1.431,2.837V84.394h1.7v8.212h-1.7Z" transform="translate(-710.46 -81.45)" fill="#d6d6d6"/>
        <path id="Path_5870" data-name="Path 5870" d="M746.666,92.618a1.946,1.946,0,0,1-1.008-.243,2.051,2.051,0,0,1-.667-.626,2.734,2.734,0,0,1-.377-.865,4.082,4.082,0,0,1-.119-.971,2.523,2.523,0,0,1,.161-.894,2.467,2.467,0,0,1,.454-.763,2.2,2.2,0,0,1,.691-.53,1.93,1.93,0,0,1,.865-.2h.893v-.751a.661.661,0,0,0-.137-.417.4.4,0,0,0-.316-.179h-2.013V84.394h2.013a1.894,1.894,0,0,1,.865.2,2.269,2.269,0,0,1,.685.531,2.473,2.473,0,0,1,.448.756,2.555,2.555,0,0,1,.161.894v3.457a2.537,2.537,0,0,1-.161.893,2.481,2.481,0,0,1-.448.758,2.267,2.267,0,0,1-.685.53,1.884,1.884,0,0,1-.865.2Zm0-3.313a.393.393,0,0,0-.315.179.677.677,0,0,0-.138.429v.322a.66.66,0,0,0,.138.417.391.391,0,0,0,.315.179h.44a.394.394,0,0,0,.316-.179.664.664,0,0,0,.137-.417v-.93Z" transform="translate(-712.101 -81.45)" fill="#d6d6d6"/>
        <path id="Path_5871" data-name="Path 5871" d="M758.579,86.793a.6.6,0,0,0-.155-.434.451.451,0,0,0-.322-.161h-.466a.45.45,0,0,0-.322.161.6.6,0,0,0-.155.434v5.828h-1.788V86.793a.6.6,0,0,0-.155-.434.452.452,0,0,0-.322-.161h-.465a.441.441,0,0,0-.322.167.616.616,0,0,0-.155.441l-.012,5.816h-1.777V86.793a2.369,2.369,0,0,1,.179-.912,2.535,2.535,0,0,1,.483-.762,2.276,2.276,0,0,1,.713-.519,2.1,2.1,0,0,1,.889-.19h.465a2.1,2.1,0,0,1,.734.131,2.176,2.176,0,0,1,.636.371,2.2,2.2,0,0,1,.639-.371,2.083,2.083,0,0,1,.733-.131h.466a2.086,2.086,0,0,1,.887.19,2.267,2.267,0,0,1,.716.519,2.515,2.515,0,0,1,.483.762,2.367,2.367,0,0,1,.179.912v5.828h-1.787Z" transform="translate(-713.811 -81.454)" fill="#d6d6d6"/>
        <path id="Path_5872" data-name="Path 5872" d="M765.969,90.235q0,.4.214.5a1.788,1.788,0,0,0,.679.095h1.549v1.787h-1.048l-1.12-.012a1.582,1.582,0,0,1-.811-.214,2.21,2.21,0,0,1-.631-.548,2.512,2.512,0,0,1-.4-.757,2.615,2.615,0,0,1-.144-.852V86.778a2.517,2.517,0,0,1,.162-.894,2.452,2.452,0,0,1,.447-.756,2.248,2.248,0,0,1,.685-.531,1.919,1.919,0,0,1,.877-.2h.441a1.892,1.892,0,0,1,.865.2,2.264,2.264,0,0,1,.685.531,2.424,2.424,0,0,1,.448.756,2.536,2.536,0,0,1,.161.894v2.527h-3.051Zm1.21-3.874a.4.4,0,0,0-.317-.179h-.441a.39.39,0,0,0-.322.173.681.681,0,0,0-.13.423v.751h1.347v-.751A.666.666,0,0,0,767.179,86.362Z" transform="translate(-716.505 -81.45)" fill="#d6d6d6"/>
      </g>
      <g id="Group_2844" data-name="Group 2844" transform="translate(25.12 142.584)">
        <path id="Path_5873" data-name="Path 5873" d="M476.593,250.224l-1.722-2.933v6.037H472.6V242.636h2.127l1.862,3.693v-3.693h2.219v10.693h-2.219Z" transform="translate(-472.604 -242.636)" fill="#d6d6d6"/>
        <path id="Path_5874" data-name="Path 5874" d="M485.014,253.344a2.512,2.512,0,0,1-1.31-.319,2.689,2.689,0,0,1-.87-.814,3.474,3.474,0,0,1-.488-1.125,5.221,5.221,0,0,1-.156-1.264,3.268,3.268,0,0,1,.211-1.164,3.2,3.2,0,0,1,.589-.993,2.864,2.864,0,0,1,.9-.691,2.509,2.509,0,0,1,1.124-.256h1.164v-.978A.874.874,0,0,0,486,245.2a.513.513,0,0,0-.412-.233h-2.623v-2.328h2.623a2.457,2.457,0,0,1,1.125.264,2.912,2.912,0,0,1,.891.691,3.177,3.177,0,0,1,.582.985,3.287,3.287,0,0,1,.211,1.164v4.5a3.281,3.281,0,0,1-.211,1.164,3.184,3.184,0,0,1-.582.986,2.9,2.9,0,0,1-.891.69,2.447,2.447,0,0,1-1.125.264Zm0-4.314a.511.511,0,0,0-.41.232.9.9,0,0,0-.18.559v.418a.87.87,0,0,0,.18.544.511.511,0,0,0,.41.232h.575a.516.516,0,0,0,.412-.232.878.878,0,0,0,.177-.544v-1.21Z" transform="translate(-474.741 -242.636)" fill="#d6d6d6"/>
        <path id="Path_5875" data-name="Path 5875" d="M500.524,245.76a.782.782,0,0,0-.2-.566.585.585,0,0,0-.419-.211H499.3a.582.582,0,0,0-.419.211.783.783,0,0,0-.2.566v7.589H496.35V245.76a.783.783,0,0,0-.2-.566.583.583,0,0,0-.42-.211h-.6a.579.579,0,0,0-.419.218.809.809,0,0,0-.2.574l-.016,7.573h-2.312V245.76a3.088,3.088,0,0,1,.233-1.187,3.247,3.247,0,0,1,.628-.993,2.954,2.954,0,0,1,.931-.675,2.717,2.717,0,0,1,1.157-.248h.6a2.7,2.7,0,0,1,.955.17,2.81,2.81,0,0,1,.829.482,2.848,2.848,0,0,1,.831-.482,2.7,2.7,0,0,1,.955-.17h.605a2.706,2.706,0,0,1,1.155.248,2.939,2.939,0,0,1,.932.675,3.281,3.281,0,0,1,.629.993,3.1,3.1,0,0,1,.232,1.187v7.589h-2.328Z" transform="translate(-476.967 -242.641)" fill="#d6d6d6"/>
        <path id="Path_5876" data-name="Path 5876" d="M510.147,250.24q0,.528.279.652a2.315,2.315,0,0,0,.885.124h2.016v2.328h-1.365l-1.459-.016a2.068,2.068,0,0,1-1.055-.279,2.888,2.888,0,0,1-.822-.714,3.275,3.275,0,0,1-.528-.985,3.464,3.464,0,0,1-.186-1.11v-4.5a3.287,3.287,0,0,1,.21-1.164,3.178,3.178,0,0,1,.582-.985,2.916,2.916,0,0,1,.892-.691,2.484,2.484,0,0,1,1.14-.264h.575a2.452,2.452,0,0,1,1.124.264,2.924,2.924,0,0,1,.892.691,3.177,3.177,0,0,1,.582.985,3.287,3.287,0,0,1,.209,1.164v3.29h-3.972Zm1.574-5.042a.511.511,0,0,0-.41-.233h-.575a.51.51,0,0,0-.419.225.881.881,0,0,0-.17.55v.978H511.9v-.978A.866.866,0,0,0,511.721,245.2Z" transform="translate(-480.475 -242.636)" fill="#d6d6d6"/>
        <path id="Path_5877" data-name="Path 5877" d="M522.745,253.344v-2.328h3.383a.517.517,0,0,0,.413-.232.874.874,0,0,0,.178-.544v-.434a.867.867,0,0,0-.178-.552.523.523,0,0,0-.413-.225h-.573a2.476,2.476,0,0,1-1.141-.263,2.947,2.947,0,0,1-.892-.691,3.171,3.171,0,0,1-.582-.985,3.286,3.286,0,0,1-.21-1.164v-.186a3.331,3.331,0,0,1,.792-2.156,2.775,2.775,0,0,1,.892-.691,2.552,2.552,0,0,1,1.141-.256h2.638v2.313h-2.638a.481.481,0,0,0-.435.264,1.41,1.41,0,0,0-.155.713.884.884,0,0,0,.172.551.507.507,0,0,0,.419.225h.573a2.509,2.509,0,0,1,1.125.256,2.761,2.761,0,0,1,.893.691,3.335,3.335,0,0,1,.792,2.157v.434a3.281,3.281,0,0,1-.21,1.164,3.184,3.184,0,0,1-.582.986,2.9,2.9,0,0,1-.893.69,2.446,2.446,0,0,1-1.125.264Z" transform="translate(-483.778 -242.636)" fill="#d6d6d6"/>
        <path id="Path_5878" data-name="Path 5878" d="M535.139,253.344a2.478,2.478,0,0,1-1.1-.249,3,3,0,0,1-1.505-1.652,3.325,3.325,0,0,1-.218-1.2v-7.6h2.235v7.6a.846.846,0,0,0,.187.574.528.528,0,0,0,.4.218h.575a.539.539,0,0,0,.395-.218.827.827,0,0,0,.194-.574v-7.6h2.219v7.6a3.307,3.307,0,0,1-.218,1.2,3.075,3.075,0,0,1-.6.985,2.884,2.884,0,0,1-.893.668,2.478,2.478,0,0,1-1.1.249Z" transform="translate(-485.915 -242.636)" fill="#d6d6d6"/>
        <path id="Path_5879" data-name="Path 5879" d="M544.674,245.189a.886.886,0,0,0-.17.55v7.6h-2.2v-7.6a3.426,3.426,0,0,1,.2-1.164,3.044,3.044,0,0,1,.574-.985,2.959,2.959,0,0,1,.884-.691,2.407,2.407,0,0,1,1.117-.264h2.56v2.328h-2.56A.5.5,0,0,0,544.674,245.189Z" transform="translate(-488.141 -242.636)" fill="#d6d6d6"/>
        <path id="Path_5880" data-name="Path 5880" d="M554.356,245.76a.861.861,0,0,0-.179-.542.513.513,0,0,0-.41-.234h-.575a.513.513,0,0,0-.41.234.86.86,0,0,0-.178.542v7.589h-2.236V245.76a3.287,3.287,0,0,1,.21-1.164,3.213,3.213,0,0,1,.582-.985,2.934,2.934,0,0,1,.892-.69,2.486,2.486,0,0,1,1.14-.263h.575a2.455,2.455,0,0,1,1.125.263,2.945,2.945,0,0,1,.892.69,3.2,3.2,0,0,1,.581.985,3.288,3.288,0,0,1,.209,1.164v7.589h-2.219Z" transform="translate(-489.939 -242.641)" fill="#d6d6d6"/>
        <path id="Path_5881" data-name="Path 5881" d="M562.778,253.344a2.519,2.519,0,0,1-1.311-.319,2.682,2.682,0,0,1-.87-.814,3.524,3.524,0,0,1-.489-1.125,5.216,5.216,0,0,1-.155-1.264,3.285,3.285,0,0,1,.21-1.164,3.188,3.188,0,0,1,.589-.993,2.869,2.869,0,0,1,.9-.691,2.506,2.506,0,0,1,1.124-.256h1.164v-.978a.865.865,0,0,0-.178-.542.513.513,0,0,0-.412-.233H560.73v-2.328h2.622a2.453,2.453,0,0,1,1.125.264,2.929,2.929,0,0,1,.893.691,3.177,3.177,0,0,1,.581.985,3.289,3.289,0,0,1,.211,1.164v4.5a3.283,3.283,0,0,1-.211,1.164,3.185,3.185,0,0,1-.581.986,2.915,2.915,0,0,1-.893.69,2.443,2.443,0,0,1-1.125.264Zm0-4.314a.513.513,0,0,0-.41.232.893.893,0,0,0-.179.559v.418a.865.865,0,0,0,.179.544.513.513,0,0,0,.41.232h.574a.516.516,0,0,0,.412-.232.869.869,0,0,0,.178-.544v-1.21Z" transform="translate(-492.076 -242.636)" fill="#d6d6d6"/>
        <path id="Path_5882" data-name="Path 5882" d="M578.288,245.76a.783.783,0,0,0-.2-.566.583.583,0,0,0-.419-.211h-.606a.583.583,0,0,0-.419.211.785.785,0,0,0-.2.566v7.589h-2.328V245.76a.783.783,0,0,0-.2-.566.583.583,0,0,0-.418-.211h-.607a.58.58,0,0,0-.418.218.809.809,0,0,0-.2.574l-.016,7.573h-2.313V245.76a3.09,3.09,0,0,1,.233-1.187,3.265,3.265,0,0,1,.629-.993,2.949,2.949,0,0,1,.932-.675,2.709,2.709,0,0,1,1.155-.248h.607a2.709,2.709,0,0,1,.954.17.956.956,0,0,0,1.66,0,2.7,2.7,0,0,1,.953-.17h.606a2.716,2.716,0,0,1,1.156.248,2.934,2.934,0,0,1,.93.675,3.252,3.252,0,0,1,.629.993,3.1,3.1,0,0,1,.233,1.187v7.589h-2.327Z" transform="translate(-494.302 -242.641)" fill="#d6d6d6"/>
        <path id="Path_5883" data-name="Path 5883" d="M587.91,250.24q0,.528.279.652a2.315,2.315,0,0,0,.885.124h2.016v2.328h-1.365l-1.459-.016a2.076,2.076,0,0,1-1.056-.279,2.886,2.886,0,0,1-.821-.714,3.255,3.255,0,0,1-.528-.985,3.446,3.446,0,0,1-.186-1.11v-4.5a3.3,3.3,0,0,1,.209-1.164,3.222,3.222,0,0,1,.582-.985,2.918,2.918,0,0,1,.893-.691,2.484,2.484,0,0,1,1.14-.264h.575a2.452,2.452,0,0,1,1.124.264,2.934,2.934,0,0,1,.892.691,3.178,3.178,0,0,1,.582.985,3.3,3.3,0,0,1,.209,1.164v3.29H587.91Zm1.574-5.042a.51.51,0,0,0-.41-.233H588.5a.51.51,0,0,0-.419.225.881.881,0,0,0-.17.55v.978h1.753v-.978A.866.866,0,0,0,589.484,245.2Z" transform="translate(-497.81 -242.636)" fill="#d6d6d6"/>
      </g>
      <g id="Group_2847" data-name="Group 2847" transform="translate(183.324 108.197)">
        <g id="Group_2845" data-name="Group 2845">
          <path id="Path_5884" data-name="Path 5884" d="M676.193,202.58v-4.19h.87v3.278h.456a.22.22,0,0,0,.161-.082.312.312,0,0,0,.076-.221v-2.981h.87v2.993a1.281,1.281,0,0,1-.085.468,1.192,1.192,0,0,1-.237.384,1.147,1.147,0,0,1-.353.258,1,1,0,0,1-.432.094Z" transform="translate(-676.193 -198.384)" fill="#d6d6d6"/>
          <path id="Path_5885" data-name="Path 5885" d="M681.669,200.884h-.687v1.69h-.877V199.6a1.307,1.307,0,0,1,.086-.472,1.21,1.21,0,0,1,.236-.386,1.181,1.181,0,0,1,.354-.261.964.964,0,0,1,.431-.1h.225a.973.973,0,0,1,.432.1,1.129,1.129,0,0,1,.349.261,1.19,1.19,0,0,1,.235.386,1.306,1.306,0,0,1,.085.472v2.973h-.87Zm-.076-1.508a.211.211,0,0,0-.155-.085h-.225a.21.21,0,0,0-.158.085.336.336,0,0,0-.073.225v.377h.687V199.6A.322.322,0,0,0,681.593,199.376Z" transform="translate(-677.065 -198.384)" fill="#d6d6d6"/>
          <path id="Path_5886" data-name="Path 5886" d="M684.668,202.481a1.158,1.158,0,0,1-.337-.262,1.207,1.207,0,0,1-.228-.383,1.353,1.353,0,0,1-.083-.468V198.4h.846v2.968a.319.319,0,0,0,.07.218.2.2,0,0,0,.143.078h.688v.912h-.688A.9.9,0,0,1,684.668,202.481Z" transform="translate(-677.938 -198.388)" fill="#d6d6d6"/>
          <path id="Path_5887" data-name="Path 5887" d="M686.735,198.384h.87v4.19h-.87Z" transform="translate(-678.543 -198.384)" fill="#d6d6d6"/>
          <path id="Path_5888" data-name="Path 5888" d="M688.128,202.574v-4.19h1.339a.967.967,0,0,1,.431.1,1.143,1.143,0,0,1,.354.265,1.234,1.234,0,0,1,.238.389,1.308,1.308,0,0,1,.085.465v1.757a1.316,1.316,0,0,1-.085.471,1.209,1.209,0,0,1-.238.387,1.2,1.2,0,0,1-.354.262.976.976,0,0,1-.431.1Zm1.494-3.2a.217.217,0,0,0-.155-.082H689v2.365h.469a.213.213,0,0,0,.155-.082.316.316,0,0,0,.075-.222V199.6A.313.313,0,0,0,689.621,199.379Z" transform="translate(-678.854 -198.384)" fill="#d6d6d6"/>
          <path id="Path_5889" data-name="Path 5889" d="M677.944,211.973h-.876v-3.284h-.786v-.906h2.445v.906h-.784Z" transform="translate(-676.213 -200.479)" fill="#d6d6d6"/>
          <path id="Path_5890" data-name="Path 5890" d="M681.468,210.28h-.7v1.685H679.9v-4.19h.871v1.594h.7v-1.594h.87v4.19h-.87Z" transform="translate(-677.019 -200.477)" fill="#d6d6d6"/>
          <path id="Path_5891" data-name="Path 5891" d="M685.389,210.6a.323.323,0,0,0-.076-.225.217.217,0,0,0-.161-.085h-.462v1.685h-.87v-4.19h1.333a1,1,0,0,1,.435.1,1.115,1.115,0,0,1,.352.261,1.213,1.213,0,0,1,.235.386,1.326,1.326,0,0,1,.085.472v.078a1.2,1.2,0,0,1-.068.4.433.433,0,0,0,0,.706,1.264,1.264,0,0,1,.068.411v1.374h-.87Zm-.076-1.825a.217.217,0,0,0-.161-.085h-.462v.687h.462a.221.221,0,0,0,.161-.078.3.3,0,0,0,.076-.219V209A.322.322,0,0,0,685.313,208.775Z" transform="translate(-677.893 -200.479)" fill="#d6d6d6"/>
          <path id="Path_5892" data-name="Path 5892" d="M688.847,211.973a.969.969,0,0,1-.431-.1,1.149,1.149,0,0,1-.354-.264,1.254,1.254,0,0,1-.237-.386,1.284,1.284,0,0,1-.085-.468v-2.975h.877v2.975a.325.325,0,0,0,.072.221.215.215,0,0,0,.158.082h.219a.212.212,0,0,0,.158-.082.318.318,0,0,0,.073-.221v-2.975h.876v2.975a1.286,1.286,0,0,1-.085.468,1.227,1.227,0,0,1-.237.386,1.146,1.146,0,0,1-.353.264.972.972,0,0,1-.432.1Z" transform="translate(-678.767 -200.479)" fill="#d6d6d6"/>
        </g>
        <g id="Group_2846" data-name="Group 2846" transform="translate(26.945 0.774)">
          <path id="Path_5893" data-name="Path 5893" d="M713.387,205.1a.388.388,0,0,0-.366.214,1.45,1.45,0,0,0-.159.506,3.442,3.442,0,0,0-.035.587c0,.2.006.354.006.465h3.572v2.062h-5.538v-3.212a2.722,2.722,0,0,1,.194-1.024,2.8,2.8,0,0,1,.534-.859,2.461,2.461,0,0,1,.8-.588,2.326,2.326,0,0,1,.989-.215h.512a.429.429,0,0,0,.388-.242,1.3,1.3,0,0,0,.138-.644.77.77,0,0,0-.159-.485.459.459,0,0,0-.367-.207h-.512a.447.447,0,0,0-.366.235,1.463,1.463,0,0,0-.159.789h-1.994v-.332a2.94,2.94,0,0,1,.187-1.038,2.85,2.85,0,0,1,.519-.879,2.6,2.6,0,0,1,.8-.616,2.212,2.212,0,0,1,1.017-.235h.512a2.188,2.188,0,0,1,1,.235,2.688,2.688,0,0,1,.8.616,2.75,2.75,0,0,1,.526.879,2.923,2.923,0,0,1,.187,1.038v.221a2.791,2.791,0,0,1-.194,1.032,2.963,2.963,0,0,1-.527.872,2.425,2.425,0,0,1-.8.6,2.3,2.3,0,0,1-1,.221Z" transform="translate(-710.868 -199.38)" fill="#d6d6d6"/>
          <path id="Path_5894" data-name="Path 5894" d="M722.046,205.1a.391.391,0,0,0-.367.214,1.435,1.435,0,0,0-.159.506,3.442,3.442,0,0,0-.035.587c0,.2.007.354.007.465h3.571v2.062h-5.537v-3.212a2.736,2.736,0,0,1,.193-1.024,2.833,2.833,0,0,1,.534-.859,2.474,2.474,0,0,1,.8-.588,2.329,2.329,0,0,1,.989-.215h.512a.428.428,0,0,0,.388-.242,1.3,1.3,0,0,0,.137-.644.775.775,0,0,0-.159-.485.46.46,0,0,0-.367-.207h-.512a.449.449,0,0,0-.367.235,1.464,1.464,0,0,0-.159.789h-1.994v-.332a2.939,2.939,0,0,1,.187-1.038,2.849,2.849,0,0,1,.519-.879,2.6,2.6,0,0,1,.8-.616,2.212,2.212,0,0,1,1.017-.235h.512a2.193,2.193,0,0,1,1,.235,2.7,2.7,0,0,1,.8.616,2.8,2.8,0,0,1,.527.879,2.956,2.956,0,0,1,.186,1.038v.221a2.807,2.807,0,0,1-.193,1.032,3,3,0,0,1-.527.872,2.447,2.447,0,0,1-.795.6,2.306,2.306,0,0,1-1,.221Z" transform="translate(-712.798 -199.38)" fill="#d6d6d6"/>
          <path id="Path_5895" data-name="Path 5895" d="M727.454,208.937l2.88-9.539h1.62l-2.88,9.539Z" transform="translate(-714.565 -199.384)" fill="#d6d6d6"/>
          <path id="Path_5896" data-name="Path 5896" d="M736.209,208.937a2.223,2.223,0,0,1-.983-.221,2.672,2.672,0,0,1-.8-.6,2.708,2.708,0,0,1-.541-.879,2.958,2.958,0,0,1-.193-1.073v-4a2.964,2.964,0,0,1,.193-1.073,2.7,2.7,0,0,1,.541-.879,2.672,2.672,0,0,1,.8-.6,2.223,2.223,0,0,1,.983-.221h.512a2.219,2.219,0,0,1,.982.221,2.591,2.591,0,0,1,.8.6,2.759,2.759,0,0,1,.532.879,2.964,2.964,0,0,1,.194,1.073v4a2.958,2.958,0,0,1-.194,1.073,2.768,2.768,0,0,1-.532.879,2.591,2.591,0,0,1-.8.6,2.219,2.219,0,0,1-.982.221Zm-.513-3.779,1.3-3.2q0-.318-.166-.409a1.04,1.04,0,0,0-.484-.09.6.6,0,0,0-.485.2.771.771,0,0,0-.166.506Zm.361,1.508c0,.047.032.082.1.1a1.426,1.426,0,0,0,.208.056,1.947,1.947,0,0,0,.221.027l.139.007a.459.459,0,0,0,.366-.2.763.763,0,0,0,.16-.491v-2.41Z" transform="translate(-715.955 -199.384)" fill="#d6d6d6"/>
          <path id="Path_5897" data-name="Path 5897" d="M742.6,199.4h1.978v9.539H742.6Z" transform="translate(-717.941 -199.384)" fill="#d6d6d6"/>
        </g>
        <path id="Path_5898" data-name="Path 5898" d="M703.865,205.483l-7.048-4.07v8.14l7.048-4.07-7.048-4.07v8.14Z" transform="translate(-680.79 -199.059)" fill="#d6d6d6"/>
      </g>
      <g id="Group_2850" data-name="Group 2850" transform="translate(225.812 139.327)">
        <path id="Rectangle_1679" data-name="Rectangle 1679" d="M2.721,0H32.962a2.721,2.721,0,0,1,2.721,2.721V17.895a2.722,2.722,0,0,1-2.722,2.722H2.722A2.722,2.722,0,0,1,0,17.895V2.721A2.721,2.721,0,0,1,2.721,0Z" fill="#fff"/>
        <g id="Group_2849" data-name="Group 2849" transform="translate(5.742 6.741)">
          <g id="Group_2848" data-name="Group 2848" transform="translate(0 0.023)">
            <path id="Path_5899" data-name="Path 5899" d="M750.34,247.429l-2.422,7.331h2.239l2.391-7.331" transform="translate(-740.412 -247.211)" fill="#335999"/>
            <path id="Path_5900" data-name="Path 5900" d="M738.258,247.148s1.448.369,1.482,1.318l.306,6.012H741.9l4.826-7.33h-1.824l-2.669,4.146v-4.146Z" transform="translate(-738.258 -247.148)" fill="#335999"/>
            <path id="Path_5901" data-name="Path 5901" d="M767.711,247.429h-2.1l-4.388,7.33h1.957l.525-1.047h2.307l.126,1.047h2Zm-3.4,5.236,1.478-2.765.2,2.765Z" transform="translate(-743.378 -247.211)" fill="#335999"/>
            <path id="Path_5902" data-name="Path 5902" d="M757.171,248.78a2.658,2.658,0,0,1,2.24.448l.715-1.161s-2.469-1.649-4.564,0a1.964,1.964,0,0,0,.006,3.279h0l1.305,1s.061.073.114.134a.669.669,0,0,1-.073.653c-.007.01-.03.026-.038.037-1.086.957-3.07-.346-3.07-.346l-.442,1.358c3.011,1.38,4.691.051,4.691.051,2.132-1.9.356-3.272.07-3.5h0L756.8,249.6a.208.208,0,0,1-.075-.176A.924.924,0,0,1,757.171,248.78Z" transform="translate(-741.626 -247.189)" fill="#335999"/>
          </g>
          <path id="Path_5903" data-name="Path 5903" d="M742.246,250.17a19.645,19.645,0,0,0-1.46-1.407,8.552,8.552,0,0,0-2.509-1.645h3.973Z" transform="translate(-738.262 -247.118)" fill="#fbb03b"/>
        </g>
      </g>
    </g>
  </g>
  <g id="Group_2886" data-name="Group 2886" transform="translate(182.506 37.397)">
    <path id="Path_6106" data-name="Path 6106" d="M677.531,119.5c-.194-.077-.1.3-.287.343s-.426.158-.271.206a.763.763,0,0,0,.54-.094C677.55,119.888,677.59,119.524,677.531,119.5Z" transform="translate(-675.537 -109.996)" fill="#d6d6d6"/>
    <path id="Path_6107" data-name="Path 6107" d="M675.647,120.146c-.232-.019-.463,0-.5.092s.214.161.368.161.463-.113.4-.135Z" transform="translate(-675.14 -110.141)" fill="#d6d6d6"/>
    <path id="Path_6108" data-name="Path 6108" d="M677.429,117.573c-.078.03.134.183.211.183s.214-.251.059-.251S677.622,117.5,677.429,117.573Z" transform="translate(-675.647 -109.554)" fill="#d6d6d6"/>
    <path id="Path_6109" data-name="Path 6109" d="M678.066,114.574l.117.116a.874.874,0,0,0,.481.182c.176.022.176-.115.04-.251a.375.375,0,0,0-.291-.137c-.116-.023-.135-.161-.444-.161s-.269-.182-.309-.274.271-.047.347-.024.387-.274.387-.274.5-.226.561-.182.348-.044.483-.092.213-.3.213-.3a.8.8,0,0,1,.27.186c.1.112.309,0,.368,0a1.809,1.809,0,0,1,.347.225s.386,0,.54-.022a2.524,2.524,0,0,1,.717.022,7.434,7.434,0,0,0,.928.093,1.9,1.9,0,0,0,.714.091.489.489,0,0,1,.427.068.34.34,0,0,1,.212.159c.1.138.191.023.328-.068s.115-.183.115-.183l.117-.022c.114-.024.194.046.521.067s.252-.067.483-.159.464.113.542.092.174-.2.232-.116.155.274.155.274.251-.228.329-.228a2.193,2.193,0,0,0,.444.069,1.466,1.466,0,0,1,.772.09c.117.114.406.092.56.205s.309-.091.232-.137a2.665,2.665,0,0,1-.27-.228s-.29-.41-.328-.481-.1-.067-.173.113-.367.185-.7.208-.115-.185-.482-.208-.232-.18-.115-.18.192-.275.231-.433.173-.137.444-.115a5.147,5.147,0,0,1,.619,0c.27.045.252-.137.521-.116s.135.069.291.183.251.092.463.205.136.116.233.138a3.64,3.64,0,0,0,.618-.069c.192-.023.347-.045.445.092s.078.295.212.412-.078-.412-.078-.593.273-.024.446-.024.368-.069.406.024-.25.226-.076.433.29.275.443.275.5.044.349.295-.559.229-.7.229-.365.092-.309.228.367.068.58.068a5.251,5.251,0,0,0,1.043,0c.174-.068.135-.342-.058-.41s-.038-.2.156-.159.385-.07.347,0,.02.227.02.41.058.3.192.25a1.485,1.485,0,0,1,.29-.092c.138-.022.06-.41-.019-.615a.921.921,0,0,1-.115-.437c.018-.113.232-.134.348-.021a3.017,3.017,0,0,1,.269.342,1,1,0,0,1,.309.343c.077.184.1.138.253.023s.193-.091.328.023.039.342.039.411.193,0,.233-.137.192-.136.289-.182.1-.319.1-.319a1.591,1.591,0,0,0-.5-.046.575.575,0,0,1-.523-.183c-.192-.159-.076-.274-.172-.434s.309-.252.561-.389.5-.044.444.3-.1.3.2.23-.021-.368.113-.389a2.711,2.711,0,0,1,.6-.068c.116.024.751-.069.909-.069a1.427,1.427,0,0,1,.578.274c.173.114.638.274.753.343a9.915,9.915,0,0,0,1.006.228c.077.022.077.3.155.525s.29.068.366.068a.905.905,0,0,1,.427.274c.077.116.655.207.655.207s-.134.2-.192.273a3.111,3.111,0,0,1-.308.207c-.116.091-.253-.023-.407-.137s-.425-.184-.483-.138-.019.138.019.205.289.161.445.3.115.274.135.456-.155-.069-.348-.115-.211.183-.211.183-.253-.022-.368-.022,0,0-.212-.184-.175.114-.291.023-.231-.227-.29-.183-.252-.206-.367-.182-.578-.07-.695-.024-.212.047-.311.092-.134-.319-.077-.433.194-.138.444-.07.271,0,.329-.114a.563.563,0,0,1,.388-.318c.27-.093-.02-.159-.1-.208s-.173-.137-.232,0a1.53,1.53,0,0,1-.193.3s-.155,0-.368-.023-.057-.116.04-.162.211-.319.115-.389a.283.283,0,0,0-.309-.067c-.173.044-.059-.161-.173-.228s-.08.045-.08.135-.171.068-.171.068a.975.975,0,0,0-.368,0c-.1.046-.272.137-.212.207s.25.068.308.273-.251.253-.308.275l-.291.113a1.83,1.83,0,0,0-.423-.067c-.2,0-.253.021-.215.112s.136.046.194.046.058.116.232.068.134-.114.288.07.31.159.562.318-.04.344-.174.344-.136-.138-.212-.274-.386.022-.386.022a1.09,1.09,0,0,1-.387.159c-.136,0-.232-.022-.059-.18s-.213-.184-.213-.411-.077.227-.077.34-.153.024-.483.071-.27.18-.694.5-.524.388-.484.686.136.2.308.249.117.389.251.364.234-.137.5.025a1.95,1.95,0,0,0,.735.274c.328.068.541.181.714.138s.291.022.291.183.114.181.095.387.214-.183.214-.183.1.343.018.387.019.253.117.23.232.068.348-.045-.057-.455-.057-.6-.117-.2-.176-.342.155-.159.233-.022.213.022.347-.093a.458.458,0,0,0,.136-.319,1.712,1.712,0,0,0-.406-.455c-.174-.094-.1-.116.076-.161s0-.115.039-.366.039-.41.137-.41a5.051,5.051,0,0,1,.734-.047c.289.024.426.276.619.3s.5.07.559.184-.214.136-.078.32a.516.516,0,0,0,.29.227c.136.07.291.023.465-.25s.251-.3.308-.252.427.547.522.664a1.627,1.627,0,0,1,.31.478c.019.114.291.114.367.114a.854.854,0,0,1,.406.389c.038.138.116.184.367.25s0,.321-.057.457-.1.185-.175.34,0,0,.1.069.134.161.29.117a.2.2,0,0,1,.29.137c.057.137.135.251.193.365s0,.295-.078.183-.329-.047-.329-.047-.116.135-.153.07a.2.2,0,0,0-.252-.114,2.666,2.666,0,0,1-.425.023c-.156.022-.214-.093-.117-.183s.117-.433.311-.57.136-.343,0-.343-.193.206-.27.251a1.191,1.191,0,0,0-.368.159c-.136.114-.462.07-.328.114s-.193.229-.31.229-.076-.3-.076-.411-.155.068-.155.068-.31-.2-.424-.068-.292.205-.427.343a5.259,5.259,0,0,1-.443.364,1.775,1.775,0,0,1,.346-.137,1.132,1.132,0,0,0,.406-.159c.193-.115.386-.159.521.046a.214.214,0,0,1-.056.319.646.646,0,0,0,.152.207c.078.045.1-.049.234-.138s.077.183.115.273.174.092.25-.023.136-.205.193-.137a1.5,1.5,0,0,1,.173.389c.058.159-.4.206-.483.227s-.444.115-.5.138-.252.228-.406.228-.135-.274-.155-.434-.213.023-.232.089-.193.049-.329.071-.367.183-.367.364.173.275.117.367a.7.7,0,0,1-.542.113c-.135-.044-.328.068-.269.16s.018.229-.117.2-.156.139-.1.253-.176.342-.232.25-.174-.138-.174,0a.75.75,0,0,0,.155.434c.117.183-.253.3-.386.434a5.018,5.018,0,0,1-.793.684.354.354,0,0,0-.1.5,4.191,4.191,0,0,1,.268.754c.06.159-.018.614-.192.593s-.076-.3-.252-.364-.272-.479-.309-.754-.078-.113-.193-.024-.231-.182-.291-.251-.387.047-.619.025-.308.113-.308.181-.04.275-.253.136a.616.616,0,0,0-.463-.136c-.211,0-.406-.023-.445.069a.916.916,0,0,1-.386.343c-.134.044-.385.275-.27.32s.117.364.039.546a1.883,1.883,0,0,0-.019.823,1.259,1.259,0,0,0,.483.73c.212.205.29.274.5.092s.289-.068.348-.046.212-.115.155-.319a.267.267,0,0,1,.252-.368c.176.024.425-.068.561-.045s.211.458,0,.64-.1.457-.136.661-.213.253,0,.253.155.046.29.067.27-.135.406-.159.482.341.424.525a2.45,2.45,0,0,0-.1.8.689.689,0,0,0,.134.41c.041.091.194.3.37.206a1.237,1.237,0,0,0,.4-.252c.058-.092.424.162.387.231s.134.136.252.066.172-.18.289-.364a.925.925,0,0,1,.407-.365c.095-.023.329-.3.483-.251s-.06.274-.079.413,0,.523.079.549.039-.277.134-.484a.546.546,0,0,1,.386-.319c.1,0,.174.48.31.343s.406-.113.464.023a.827.827,0,0,0,.114.206.321.321,0,0,0,.1-.206c0-.111.31-.229.5-.092s.114.184.212.207.193-.3.251-.319,0,.364-.135.57.116.138.116.138l.057.069c.059.068.252-.069.328.068s.214.183.33.432.288.184.521.136a.9.9,0,0,1,.755.435c.229.3.192.527.347.527s.193.249.193.343-.347.295-.539.341-.193.274.115.206.174-.206.366-.273.388.089.214.363-.524.3-.214.345.138-.047.31-.322.156-.182.27-.182a.892.892,0,0,1,.465.159c.1.094.347.23.5.345a.488.488,0,0,0,.464.02c.114-.044.444.137.56.319s.406.207.539.276a.859.859,0,0,1,.369.572,3.61,3.61,0,0,1-.232.822,2.847,2.847,0,0,1-.619.8.653.653,0,0,0-.1.726c.018.138-.194.641-.137.756s-.078.364-.193.525a5.211,5.211,0,0,0-.269.593c-.078.138-.33.092-.56.161a1.751,1.751,0,0,0-.35.137,6.5,6.5,0,0,0-.636.41c-.231.183.078.5-.04.755s-.23.228-.347.524-.174.046-.27.114a.645.645,0,0,0-.173.431c-.02.187-.214.368-.464.641s-.407.23-.677.138-.232-.868-.271-.755a1.541,1.541,0,0,0,.02.6,1.466,1.466,0,0,0,.251.389c.1.066.078.182,0,.3s-.29.526-.366.549a2.247,2.247,0,0,1-.793.043c-.116-.066-.173.161-.154.3s.116.3-.1.25-.5-.2-.5-.092.057.365.173.365.232-.092.176.069a1.041,1.041,0,0,1-.291.368,3.674,3.674,0,0,1-.368.455c-.193.16-.193.249-.155.322s.329.019.386.065-.057.364-.133.434-.408.388-.542.479-.137.366-.1.5a1.364,1.364,0,0,0,.522.549c.174.067.542.043.5.112s-.464.135-.52.159a2.087,2.087,0,0,1-.523.114c-.155,0-.444-.181-.5-.181s.038-.092.232-.274-.078-.389-.116-.136-.117.319-.214.319-.212-.158-.27-.23-.309-.134-.27-.41-.117-.25-.233-.363.155-.207.117-.322-.212-.045-.232-.205.155-.389.173-.455-.117-.207-.134-.319.077-.228.213-.411a1.252,1.252,0,0,0,.232-.479,3.977,3.977,0,0,1-.1-.5c0-.18.1-.249.136-.5s-.136-.159-.136-.365.193-.139.154-.343.1-.341.155-.479.117-.364.193-.525-.076-.523-.076-.593.25-.159.134-.3.039-.253.155-.368-.021-.431.037-.842.117-1.118.117-1.187a1.164,1.164,0,0,0-.075-.525.883.883,0,0,0-.35-.389c-.136-.07-.308-.272-.406-.3s-.562-.23-.562-.549-.329-.571-.366-.8-.329-.733-.347-.96-.426-.3-.483-.549.192-.431.231-.593-.136-.5-.154-.615.29-.434.406-.5.212-.364.288-.364.059-.253.138-.5a.844.844,0,0,0-.1-.638c-.056-.047-.115-.341-.214-.434s-.289-.046-.289-.046a.327.327,0,0,1-.135.319c-.172.113-.211-.023-.27-.092s-.271-.089-.367-.2a1.681,1.681,0,0,0-.367-.342c-.117-.071-.29-.138-.271-.415s-.25-.43-.329-.476-.231-.162-.327-.092-.272-.134-.406-.115-.406-.273-.5-.388-.172-.273-.348-.273-.193.068-.308.23-.292-.117-.349-.184-.212-.092-.426-.092-.366-.342-.443-.386-.619-.345-.755-.435-.268-.434-.211-.526-.1-.389-.1-.389-.273-.364-.368-.364-.406-.639-.579-.822a4.114,4.114,0,0,1-.659-.8c-.075-.206-.095-.526-.289-.367s-.038.32.154.5.155.367.426.618.155.5.27.614.522.39.347.573-.347-.229-.424-.252-.253-.068-.232-.205-.155-.252-.289-.456-.2-.092-.368-.092-.02-.251.077-.364-.1-.276-.214-.32-.27-.57-.425-.89-.27-.48-.444-.458-.251-.227-.368-.321-.289-.524-.483-.752a1.581,1.581,0,0,1-.347-.912c.019-.253.078-.891.078-1.051s-.1-.548-.1-.616a.293.293,0,0,0-.174-.207c-.077-.022-.289-.341-.463-.341a.3.3,0,0,1-.232-.389.43.43,0,0,0-.251-.433c-.1,0-.251-.3-.309-.457s-.213-.159-.175-.069-.019.253.078.3.173.408.1.455-.252-.139-.445-.253-.117-.57-.117-.685-.269-.228-.385-.228-.232.023-.251-.274a.566.566,0,0,0-.484-.455c-.115,0-.734-.3-.927-.3s-.522-.2-.638-.114-.329-.161-.443-.161-.117.094-.33.251-.29.069-.406.185-.406.228-.308-.047.1-.319-.058-.25a.386.386,0,0,0-.193.364c0,.114-.273.3-.273.3a1.609,1.609,0,0,0,.348,0c.1-.022.02.253-.075.322s-.233.251-.388.205-.174-.205-.269-.228-.31.161-.66.365-.288.047-.424.114a4.11,4.11,0,0,1-.791.3c-.176.023-.137-.249-.04-.249a2.161,2.161,0,0,0,.56-.275c.1-.068.521-.251.637-.32s.31-.18.233-.319-.329.068-.329.068-.194-.2-.251-.251-.176.183-.176.183a.235.235,0,0,1-.192-.3c.058-.252-.136-.252-.175-.138s-.366.3-.385.184-.31-.344-.387-.526.077-.206.252-.366a.818.818,0,0,1,.636-.182c.215.022.349-.274.273-.3a.317.317,0,0,0-.329.068c-.116.117-.406.093-.406.093a1.263,1.263,0,0,1-.6-.138,1.057,1.057,0,0,1-.271-.342,2.244,2.244,0,0,1,.62-.182Zm17.7,6.8c.194.025.194-.3.173-.389s-.019-.479.059-.548.173-.274.387-.3a.31.31,0,0,1,.329.366c-.021.205.037.41.115.41s.308-.16.232-.3.058-.591.058-.431a.25.25,0,0,0,.252.251c.1-.022-.1-.433-.232-.457a1.416,1.416,0,0,0-.462,0c-.059.024-.388-.113-.542-.091a.577.577,0,0,0-.464.274,2.589,2.589,0,0,0-.02.66C695.634,120.968,695.6,121.354,695.77,121.379Zm1.082,0c.044.1.253.022.368-.113s.368-.184.445-.3.135-.092.328-.183.348-.113.27-.228-.483,0-.539-.046-.465.5-.465.5-.349.157-.368.227S696.8,121.242,696.851,121.379Zm-2.01-1.759c0,.123.193.138.31.067a1.755,1.755,0,0,1,.368-.135c.076-.023.037.114.211.114s.388.068.445.046.234-.3.1-.32a1.03,1.03,0,0,1-.463-.319c-.118-.138-.388.182-.639.3S694.842,119.438,694.842,119.62Zm-7.924-.754c-.158-.063.057.274.154.342s.291.07.31.183.077.389.175.366.1-.274.019-.366a1.891,1.891,0,0,0-.427-.365C687.093,119.027,686.975,118.89,686.918,118.867Z" transform="translate(-675.607 -108.426)" fill="#d6d6d6"/>
    <path id="Path_6110" data-name="Path 6110" d="M701.981,116.652c-.054.066.231.166.284.075S702.109,116.484,701.981,116.652Z" transform="translate(-681.122 -109.347)" fill="#d6d6d6"/>
    <path id="Path_6111" data-name="Path 6111" d="M702.917,116.846c-.2.07-.012.242.117.183S703.1,116.785,702.917,116.846Z" transform="translate(-681.313 -109.404)" fill="#d6d6d6"/>
    <path id="Path_6112" data-name="Path 6112" d="M690.574,111.917c-.027.091.115.089.282.089a1.732,1.732,0,0,0,.516-.044c.078-.045.465-.152.451-.014s.154.349.245.318.27-.228.361-.15.1.256.194.3a.752.752,0,0,0,.45,0,1.46,1.46,0,0,1,.58-.016c.142.03.555.122.592.03s.155-.106.169-.2.075-.38.075-.38-.075-.168-.206-.09-.167.122-.284.09-.116-.274-.323-.228-.242.183-.308.242a.3.3,0,0,1-.256.079c-.052-.031-.348-.229-.348-.229s-.619-.032-.643-.122-.13-.243-.414-.214-.774.229-.851.229.091.182-.011.182S690.614,111.78,690.574,111.917Z" transform="translate(-678.58 -108.188)" fill="#d6d6d6"/>
    <path id="Path_6113" data-name="Path 6113" d="M693.365,111.192c-.15.059-.118.228-.014.228s.362-.106.438-.029.272.016.258-.062.077-.382-.077-.394S693.6,111.1,693.365,111.192Z" transform="translate(-679.18 -108.089)" fill="#d6d6d6"/>
    <path id="Path_6114" data-name="Path 6114" d="M695.631,110.957c-.02.111.1.2.257.2s.49-.089.515-.016-.014.138.169.168a2.439,2.439,0,0,0,.361.062c.1,0,.065-.2-.026-.336s-.065-.12-.3-.2a1.574,1.574,0,0,0-.618-.06C695.837,110.791,695.67,110.744,695.631,110.957Z" transform="translate(-679.708 -108.052)" fill="#d6d6d6"/>
    <path id="Path_6115" data-name="Path 6115" d="M695.948,111.894c-.1.1,0,.41-.038.441s.013.168.115.138.155-.319.233-.319.476-.1.542.063.064.089.244.1.323-.213.336-.289-.092-.229-.336-.2S696.052,111.787,695.948,111.894Z" transform="translate(-679.768 -108.288)" fill="#d6d6d6"/>
    <path id="Path_6116" data-name="Path 6116" d="M696.563,112.926a.19.19,0,0,0,.106.3c.14.016.385-.1.411-.013s.117.5.347.364.219-.26.284-.274-.014-.35-.117-.426a.773.773,0,0,0-.528.017C696.977,112.943,696.706,112.821,696.563,112.926Z" transform="translate(-679.906 -108.514)" fill="#d6d6d6"/>
    <path id="Path_6117" data-name="Path 6117" d="M698.45,113.024a.26.26,0,0,0,.283.092c.167-.03.413-.063.528-.076s.144-.244.014-.259-.232-.153-.347-.108S698.411,112.917,698.45,113.024Z" transform="translate(-680.336 -108.475)" fill="#d6d6d6"/>
    <path id="Path_6118" data-name="Path 6118" d="M698.4,112.273c-.057.159.517.243.451.062S698.463,112.092,698.4,112.273Z" transform="translate(-680.324 -108.363)" fill="#d6d6d6"/>
    <path id="Path_6119" data-name="Path 6119" d="M698.4,111.258c-.163-.044-.438-.1-.438-.151s-.075.214.065.29.373.214.54.29.49.091.594.242a1.151,1.151,0,0,0,.451.275l.413.046a1.776,1.776,0,0,1,.579-.046,7.557,7.557,0,0,0,.981.061c.242-.016.283-.107.307-.166s-.449-.184-.566-.17-.773.015-.967,0a4.175,4.175,0,0,0-.592,0c-.155.015-.271-.122-.386-.2a2.339,2.339,0,0,0-.528-.35A3.949,3.949,0,0,1,698.4,111.258Z" transform="translate(-680.223 -108.126)" fill="#d6d6d6"/>
    <path id="Path_6120" data-name="Path 6120" d="M719.311,115.37c-.053.1-.155.107-.053.321s.182.333.27.319.4-.031.439.092a.246.246,0,0,0,.361.152c.22-.076.4-.121.45-.213s.4-.106.4-.106.286-.259.182-.367a.981.981,0,0,0-.465-.2c-.117-.015-.231.107-.49.107s-.426.122-.527,0S719.35,115.3,719.311,115.37Z" transform="translate(-684.965 -109.07)" fill="#d6d6d6"/>
    <path id="Path_6121" data-name="Path 6121" d="M705.2,110.559c.142.122.225.044.4.09s.316.383.411.426a.234.234,0,0,0,.283-.09,2.258,2.258,0,0,0,.141-.41s0,.3.141.364.5-.045.589-.03a3.736,3.736,0,0,1,.8.2c.155.093.531.152.636.35s.12.884.177.96.26-.245.308-.319.295-.031.377.075.271.366.258.472-.046.274-.118.213-.188-.045-.14-.166.07-.38-.025-.38h-.176s-.176-.061-.294.167-.024.457.058.457.272,0,.272.06-.2.243-.19.35a2.559,2.559,0,0,0,.214.549c.045.076.292.152.362.167s-.163.03-.1.138.155.364.282.424a1.692,1.692,0,0,1,.543.459c.046.119.329-.093.389-.107s.047.319.212.334.225-.032.365-.169.106-.319.118-.455,0-.244.153-.2.235-.03.223-.182-.14-.335.106-.38.379-.245.531-.245.578.078.626,0,.245-.426.375-.442.473-.046.777-.106.637-.288.743-.275.367.016.284-.075-.2-.3-.378-.3-.011-.337.036-.337.282.048.272.2.07.35.305.291a.233.233,0,0,0,.154-.352,2.172,2.172,0,0,1-.131-.319c-.047-.108-.034-.244.212-.275s.591.122.575-.12a1.494,1.494,0,0,1,.072-.64c.071-.138.224-.228.142-.275s-.189.062-.272-.167a.456.456,0,0,1,.164-.486c.1-.092.591-.686.863-.778s.457-.441.269-.518-.564-.213-.811.031-.389.472-.672.4-.327-.481-.489-.686c-.229-.3-.088-.9-.338-.849l-.245.044a1.3,1.3,0,0,0-.467-.016c-.238.06-.39.228-.525.191a.891.891,0,0,0-.568.109,1.98,1.98,0,0,1-1.125-.069,2.985,2.985,0,0,0,.768,0c.281-.048.751-.162.983-.207s.044-.153-.037-.163c-.3-.042-.751-.186-1.107-.206-.281-.016-.462.085-.744.092a1.935,1.935,0,0,0-1.065.19,2.2,2.2,0,0,1-.59.232c-.142.183-.271.64-.4.516s-.154-.425-.319-.3-.012.427-.155.638a.576.576,0,0,1-.658.108c-.117-.078-.235-.137-.706-.108s-.99.214-.884.4-.211.291-.293.2-.459.1-.437.287-.059.4-.259.351a.284.284,0,0,0-.352.257c-.012.155-.462.262-.495.262S704.984,110.376,705.2,110.559Z" transform="translate(-681.83 -107.273)" fill="#d6d6d6"/>
    <path id="Path_6122" data-name="Path 6122" d="M701.809,130.477c-.019.228.173.158.406.158s.636-.044.715.07a4.992,4.992,0,0,0,.521.388c.1.09.406.115.427.022s-.214-.342-.349-.32a.984.984,0,0,1-.581-.317.805.805,0,0,0-.561-.162A3.852,3.852,0,0,0,701.809,130.477Z" transform="translate(-681.085 -112.409)" fill="#d6d6d6"/>
    <path id="Path_6123" data-name="Path 6123" d="M703.591,129.7c-.177.023-.136.274.078.228S703.767,129.674,703.591,129.7Z" transform="translate(-681.458 -112.271)" fill="#d6d6d6"/>
    <path id="Path_6124" data-name="Path 6124" d="M703.715,132.13c-.176.04-.134.448.079.373S703.891,132.1,703.715,132.13Z" transform="translate(-681.486 -112.813)" fill="#d6d6d6"/>
    <path id="Path_6125" data-name="Path 6125" d="M707,131.809c-.177.036-.136.445.077.369S707.173,131.773,707,131.809Z" transform="translate(-682.218 -112.742)" fill="#d6d6d6"/>
    <path id="Path_6126" data-name="Path 6126" d="M704.769,131.814a2.182,2.182,0,0,0,.347.044c.136,0,.212.092.329.164s.328-.093.406-.093.175.273.193-.023a.484.484,0,0,0-.386-.48.913.913,0,0,0-.444.025C705.1,131.471,704.769,131.814,704.769,131.814Z" transform="translate(-681.745 -112.653)" fill="#d6d6d6"/>
    <path id="Path_6127" data-name="Path 6127" d="M724.661,125.978c.075-.045.386-.159.56-.249a4.752,4.752,0,0,1,.812-.32,7.007,7.007,0,0,0,1.177-.047c.137-.068.485-.183.638.32s0,.32-.153.412.057.3.134.3.349.3.483.3a1.8,1.8,0,0,1,.466.159s.326.3.5.3.308.162.5-.069.444-.5.638-.454.406.226.657.226.715-.046.792.069-.521.5-.483.593.117.069.311-.2.483-.275.715-.345.349.367.388.5.211.389.347.685.271.706.424,1.029a9.36,9.36,0,0,0,.407,1,3.473,3.473,0,0,1,.386.822,1.227,1.227,0,0,0,.406.571,2,2,0,0,1,.427.683c.018.136-.116.434.191.458a1.309,1.309,0,0,0,.679-.2c.094-.048.848-.39.945-.254s-.134.731-.155.892-.579.936-.6,1.14a.981.981,0,0,1-.559.619c-.214.043-.657.682-.814.888s-.4.66-.521.706-.155.527-.1.619.02.64.193.822.234.318.156.48.039.522,0,.821a2.023,2.023,0,0,1-.329.776c-.078.092-.562.253-.716.479s-.289.434-.25.548a3.819,3.819,0,0,1,.172.822c-.019.137-.387.319-.54.413s-.078.27-.039.454-.27.481-.406.642a8.168,8.168,0,0,1-.752.91,1.215,1.215,0,0,1-.794.346,1.5,1.5,0,0,0-.83.112c-.1.115-.232.092-.425-.021s-.214-.275-.231-.528a1.65,1.65,0,0,0-.078-.409,1.278,1.278,0,0,0-.232-.571,2.928,2.928,0,0,1-.329-.526c-.1-.138-.039-.434-.057-.685a2.35,2.35,0,0,0-.234-.8c-.1-.159-.289-.594-.366-.752a2.011,2.011,0,0,1-.156-.937,1.162,1.162,0,0,1,.447-.845c.152-.138.019-.319-.117-.594s.019-.727-.1-.888a6.485,6.485,0,0,0-.715-1.143c-.214-.136-.234-.18-.117-.5s0-.64.193-.847.1-.342-.115-.48-.137-.2-.31-.043-.406.247-.539.089-.1-.411-.35-.593-.58.067-.676.113a2.268,2.268,0,0,1-.638.3,3.926,3.926,0,0,1-.734-.025c-.27,0-.5.025-.542.184s-.1.251-.269.091-.523-.525-.523-.525a2.937,2.937,0,0,1-.58-.731,1.2,1.2,0,0,0-.636-.661c-.368-.207-.155-.434-.194-.664s-.232-.319-.135-.341.075-.182.289-.5a1.006,1.006,0,0,0,.04-.847c-.04-.182-.233-.456-.04-.754s.385-.934.54-1.117a3.324,3.324,0,0,1,.756-.549c.211-.114.076-.41.192-.751s.291-.5.35-.5.272-.237.5-.387C724.177,125.888,724.584,126.024,724.661,125.978Zm8.444,9.384c-.05-.1-.385-.068-.442.048s-.117.636.057.684S733.2,135.547,733.105,135.362Z" transform="translate(-685.441 -111.292)" fill="#d6d6d6"/>
    <path id="Path_6128" data-name="Path 6128" d="M740.612,142.591c-.244-.08-.27.3-.464.551s-.4.458-.483.434-.5.158-.367.5a.894.894,0,0,1-.022.844c-.133.161.117.619.08.868s.058.412.329.412.368-.114.483-.412.134-.591.25-.842.211-.778.27-.916a2.363,2.363,0,0,0,.155-.822C740.826,142.958,740.747,142.639,740.612,142.591Z" transform="translate(-689.429 -115.144)" fill="#d6d6d6"/>
    <path id="Path_6129" data-name="Path 6129" d="M749.995,135.041c-.124.067-.232.845,0,.937s.37-.364.29-.48S750.17,134.951,749.995,135.041Z" transform="translate(-691.797 -113.46)" fill="#d6d6d6"/>
    <path id="Path_6130" data-name="Path 6130" d="M729.033,124.088c-.18,0-.27.342-.155.455s.233.093.33-.068A.292.292,0,0,0,729.033,124.088Z" transform="translate(-687.108 -111.021)" fill="#d6d6d6"/>
    <path id="Path_6131" data-name="Path 6131" d="M727.2,124.52c-.048.085.152.114.192.023S727.337,124.268,727.2,124.52Z" transform="translate(-686.745 -111.089)" fill="#d6d6d6"/>
    <path id="Path_6132" data-name="Path 6132" d="M730.158,125.048c-.072.051.114.2.212.251s.174.183.251.206.329,0,.252-.228a.3.3,0,0,0-.309-.229C730.505,125.048,730.253,124.979,730.158,125.048Z" transform="translate(-687.401 -111.228)" fill="#d6d6d6"/>
    <path id="Path_6133" data-name="Path 6133" d="M724.056,119.119c-.175.035-.192.252-.31.252s-.251.046-.213.205.116.274,0,.341.019.343.175.366.329-.113.463-.182a.51.51,0,0,0,.329-.411.8.8,0,0,0-.113-.479A.35.35,0,0,0,724.056,119.119Z" transform="translate(-685.918 -109.912)" fill="#d6d6d6"/>
    <path id="Path_6134" data-name="Path 6134" d="M724.464,118.177c-.157.059-.1.294-.021.41a1.245,1.245,0,0,0,.406.455c.194.092.6.183.446.274a1.274,1.274,0,0,0-.464.48c-.04.136.328.273.328.273s-.116.162-.018.2.154-.158.308-.158.462.115.618.115.406-.253.388-.412a.853.853,0,0,0-.388-.5c-.173-.092-.366-.5-.483-.594s.117-.322-.019-.478-.232-.139-.386-.253-.291.023-.388.159S724.581,118.128,724.464,118.177Z" transform="translate(-686.114 -109.653)" fill="#d6d6d6"/>
    <path id="Path_6135" data-name="Path 6135" d="M725.57,119.887c-.018-.205-.4-.389-.657-.435s-.214-.182.061-.2.249-.137.481-.183.464-.115.638-.137.173-.206.173-.341.483-.185.483-.185.271-.3.425-.434a.69.69,0,0,1,.637-.044c.216.066-.017-.162-.1-.275a.661.661,0,0,1,.039-.5c.057-.138.406-.207.5-.159s0,.251.019.432a.485.485,0,0,0,.174.3l.154-.023h.253c.252,0,.174.184.367.114a4.118,4.118,0,0,0,.5-.207.818.818,0,0,1,.581.07c.289.113.135-.207.194-.39s.174-.5.366-.48.349.162.5.048-.289-.275-.289-.342.365-.069.693-.094a4.352,4.352,0,0,0,.678-.044c.155-.044-.113-.364-.174-.364a4.758,4.758,0,0,1-.638.022c-.194-.022-.4.138-.578.183s-.214-.273-.309-.41a.345.345,0,0,1,.114-.526,2.886,2.886,0,0,0,.773-.57c.078-.138-.309-.114-.676-.092s.058.138-.289.549-.521.137-.793.411-.077.3.176.389.036.365-.022.432-.348.322-.31.5-.193.3-.193.3-.716.183-.849.205-.175-.115-.134-.251-.157-.457-.175-.662-.309.091-.329.23-.386.158-.6.068a.559.559,0,0,1-.289-.5c.037-.069-.118-.413-.118-.5a1.43,1.43,0,0,1,.792-.548c.369-.091.831-.618,1.083-.845a4.163,4.163,0,0,0,.443-.571,13.326,13.326,0,0,1,1.894-.571,5.933,5.933,0,0,1,1.72.16,6.314,6.314,0,0,1,.7.3,3.913,3.913,0,0,0,1.065.228,1.97,1.97,0,0,1,.618.228c.174.093,0,.162-.427.32a1.227,1.227,0,0,1-.947.023c-.232-.091-.368-.091-.192.045s.114.207.136.411.29.023.347-.023.059-.135.27.023.288.068.385.046.019-.273.077-.364.291-.092.35-.138a.9.9,0,0,1,.309-.137c.116-.023.1.2.213.274s.058-.3.018-.388-.076-.343-.018-.413a.676.676,0,0,1,.56-.021c.1.092-.155.364-.1.525s.194-.09.293-.229.307,0,.655-.068.27-.3.636-.161.272.137.389,0,.328.025.539-.067.214,0,.369.092.347-.184.424-.275.386-.09.541-.069a4.069,4.069,0,0,0,.505.138,1.164,1.164,0,0,1,.4.136s.328.138.406.046-.02-.2-.309-.364-.176-.435,0-.458.155-.134.289-.225.311-.435.465-.365.29.2.485.318.018.273-.019.39a1.268,1.268,0,0,0,.094.615c.058.07-.057.319-.211.436s-.368.364-.31.41.521-.2.521-.2a4.375,4.375,0,0,1,.425-.526c.136-.116.271-.116.31.022s.25.182.446.09,0-.158-.02-.364-.33-.092-.5-.045-.31.252-.368.252-.059-.138-.02-.343-.077-.319-.077-.435.057-.112.193-.341.138.16.155.366.155.113.272.091.056-.3.153-.434.309-.161.5.045.173.136.407.228.249.115.27.319.173.228.269.16.019-.341-.039-.435-.52-.249-.675-.41.076-.159.251-.159.5.022.5.022a1.7,1.7,0,0,0,.56-.251,1.876,1.876,0,0,1,.522-.251,1.234,1.234,0,0,1,.7-.046c.193.046.328-.089.521-.183s.407-.159.464-.114a1.949,1.949,0,0,0,.618.16,5.585,5.585,0,0,0,.561-.227c.31-.138.173-.114.29-.184s.309-.092.714.115,0,0,.117.136.174-.023.445-.067a1.773,1.773,0,0,1,.619.023,1.659,1.659,0,0,1,.732.159c.176.138-.113.434-.211.526s.153.159.232.138a5.707,5.707,0,0,1,1.007.045c.288.046.4.206.539.206a.673.673,0,0,0,.424-.16,2.18,2.18,0,0,1,.718-.161,1.762,1.762,0,0,1,.636.047.81.81,0,0,1,.115.455.411.411,0,0,0,.31.366c.135.024.386-.274.483-.322s.211.207.27.137.542.025.735-.089.308,0,.4-.047a.688.688,0,0,0,.252-.386c0-.091.078-.161,0-.3s-.347-.046-.638-.136-.017-.226.1-.32.31,0,.5.046.116-.067.211-.067.448.115.64.115.347.249.347.249a4.872,4.872,0,0,1-.657.183c-.116,0-.041.183.057.183a.679.679,0,0,1,.368.181c.134.115.733,0,.812,0a1.612,1.612,0,0,1,.541.276,2.419,2.419,0,0,0,.386.228,5.512,5.512,0,0,0,.657-.045,1.814,1.814,0,0,1,.831.023,2.583,2.583,0,0,1,.444.3c.157.16.271.091.483.07a6.1,6.1,0,0,1,.619-.07c.192,0,.831-.021.946.183s.253.161.253.161a2.675,2.675,0,0,1,.25-.435c.078-.068.33.047.482.138a8.423,8.423,0,0,0,1.1.045c.2.047.465.274.311.456s.117.5.058.687-.211.2-.368.25.158.275.293.434-.077.205-.214.135a1.879,1.879,0,0,0-.929.161c-.442.137-.618.412-1.081.433s-.272-.021-.85-.021-.562.183-.678.412.058.181,0,.364a2.171,2.171,0,0,0-.153.547c0,.161-.349.183-.466.32a3.435,3.435,0,0,1-.637.731,2.63,2.63,0,0,0-.561.64,2.31,2.31,0,0,1,.214-.663c.153-.272-.174-.663-.2-.958s.1-.389.293-.664.655-.364.849-.5.986-.778.986-.778a2.436,2.436,0,0,1-.348.206c-.193.089-.426.274-.577.274s-.1-.184-.118-.366-.387-.044-.523.138a4.849,4.849,0,0,1-.657.526c-.271.227-.193.2-.366.227a.992.992,0,0,1-.6-.227c-.134-.116-.269.089-.695.113s-.908-.047-1.1-.025-.677.687-.968.8-.657.32-.56.48.269-.137.347-.137-.058.321.117.321.269-.117.442-.14.31.162.347.41a2.063,2.063,0,0,1-.153.779,1.657,1.657,0,0,1-.5.912,10.225,10.225,0,0,0-.911.915c-.1.136-.442.025-.5-.07s-.23.206-.366.275a.455.455,0,0,0-.271.388c0,.183-.388.183-.388.3a2.454,2.454,0,0,0,.33.6.834.834,0,0,1-.194.774c-.173.115-.25.253-.481.092s-.04-.251.057-.5a.437.437,0,0,0-.137-.459c-.036-.066-.2.139-.27.163s-.078-.205-.019-.343a.536.536,0,0,0-.1-.456c-.058-.023-.424.342-.578.319s-.019-.433.037-.547-.115-.023-.232.089-.366.367-.463.343-.291.183-.134.32.212.252.308.276a1.589,1.589,0,0,0,.445-.068c.1-.025.29.159.1.364s-.6.228-.521.367a5.835,5.835,0,0,1,.426.661,2.7,2.7,0,0,1,.135.912c.039.253-.561.776-.735.936s-.347.546-.638.73a1.861,1.861,0,0,1-1.005.276c-.1-.07-.366.113-.348.366s.155.228.155.3a2.148,2.148,0,0,1-.27.458c-.078.115-.349,0-.308-.343s.231-.48.211-.641a.174.174,0,0,0-.309-.113c-.117.137-.483.528-.483.528a1.684,1.684,0,0,0,.309.57,4.6,4.6,0,0,1,.523.729c.23.343.057.64,0,.892s-.252.249-.407.3-.193.115-.252.251-.329.3-.367.186a2.006,2.006,0,0,0-.291-.392,1.862,1.862,0,0,0-.424-.615c-.251-.205-.349-.3-.349-.091s-.153.594-.153.729-.347-.41-.347-.638-.061-.618-.042-.981-.4-.023-.4-.023-.193.387-.291.387-.133-.318-.117-.594a1.12,1.12,0,0,0-.151-.615,2.7,2.7,0,0,1-.446-.709c-.057-.25-.174-.158-.29-.022s-.078.136-.541.136-.443.343-.678.549-.424.594-.694.731-.388.274-.388.432a4,4,0,0,1-.058.8,2.9,2.9,0,0,1-.232.777c-.135.23-.252.594-.367.594s-.154-.319-.154-.525a3.283,3.283,0,0,0-.406-.846c-.078-.157-.368-.866-.368-.866a5.038,5.038,0,0,1-.213-.96c.019-.206.019-.775.019-.775s-.31.364-.444.341-.27-.274-.251-.572-.231-.274-.367-.318-.312-.456-.406-.456a.209.209,0,0,0-.231.136c-.079.137-.486.115-.581.115a4,4,0,0,1-.851-.094c-.172-.066-.368-.476-.464-.521s-.386.248-.5.2-.348-.274-.6-.411-.328-.458-.425-.661-.424.113-.387.34.466.528.466.686.075.206.288.411.039.319.176.365.327-.183.521-.3.174-.273.27-.273.076.3.232.317a1.4,1.4,0,0,1,.658.481c.1.182-.1.3-.175.457a3.285,3.285,0,0,1-.5.8,1.658,1.658,0,0,1-.7.5c-.29.068-.327.25-.56.273a3.917,3.917,0,0,0-.967.457,1.451,1.451,0,0,1-.772.184c-.155-.071-.213-.526-.27-.868a2.776,2.776,0,0,0-.194-.664,3.305,3.305,0,0,0-.483-.57,2.527,2.527,0,0,1-.291-.845c-.019-.228-.232-.138-.27-.389a6.346,6.346,0,0,0-.291-.753c-.04-.159-.426.022-.58.046a.417.417,0,0,1-.4-.5c.037-.364.193-.364.386-.364s.117-.113.31-.343a1.893,1.893,0,0,0,.269-.982c.02-.3-.134-.159-.288-.115a1.357,1.357,0,0,1-.464.091c-.077-.02-.386-.135-.446-.067a.452.452,0,0,1-.461-.092c-.078-.115-.465-.25-.506-.345a5.974,5.974,0,0,0-.076-.776c-.077-.135-.251.025-.349.117s-.366.159-.289.226.328.207.31.391-.193.227-.291.318-.29.228-.347.113-.251-.615-.308-.707a2.044,2.044,0,0,1-.291-.525c-.058-.205-.272-.272-.4-.433s-.522-.411-.676-.594-.426-.319-.446-.09.27.273.386.5a1.114,1.114,0,0,0,.5.434,5.478,5.478,0,0,1,.505.368.594.594,0,0,1-.293.045c-.134-.023-.02.274-.039.434s-.153.159-.193-.023a1.017,1.017,0,0,0-.232-.455c-.077-.068-.578-.252-.657-.3s-.406-.3-.444-.5-.33-.227-.406-.181-.367.3-.5.3-.348-.114-.5-.137-.172.3-.232.481-.309.045-.444.2-.369.319-.311.458.156.136-.019.25-.27.343-.444.365-.406.113-.5.047-.172.226-.231.3-.155-.205-.253-.318-.346-.024-.424-.046-.155-.229-.253-.32a.294.294,0,0,1,0-.367.342.342,0,0,0,.1-.388c-.058-.206-.1-.662.1-.751a2.834,2.834,0,0,1,.888,0c.232,0,.629.093.695-.049A1.222,1.222,0,0,0,725.57,119.887Zm7.288-4.02c-.065.217.445.389.541.23S732.955,115.548,732.858,115.867Zm-.657,5.527c.038.092.232-.137.385-.137s.5.067.6-.092.4-.182.656-.135.465.25.639.272a3.029,3.029,0,0,0,.792-.068c.154-.046.115-.365-.135-.525a5.377,5.377,0,0,0-.7-.5c-.231-.094-.308-.183-.173-.229s.309-.228.115-.228-.367.069-.387.183a.515.515,0,0,1-.211.3c-.077.047-.271.229-.329.092s-.27-.547-.367-.571-.253,0-.368.228a1.825,1.825,0,0,1-.368.547c-.115.093-.269.366-.153.412S732.2,121.394,732.2,121.394Zm4.428-1.6c-.238.185-.311.434-.216.591s.369.664.5.71.619.138.427.343-.233.272-.407.251-.1.549.039.593.541.206.678.229.578-.046.558-.183a1.918,1.918,0,0,0-.25-.821c-.153-.139.214-.274.117-.39s-.232-.068-.309-.2a1.13,1.13,0,0,0-.232-.365c-.117-.091-.211.092-.192-.162s.288-.409.4-.274.463.072.542,0-.155-.273-.213-.411a.612.612,0,0,0-.5-.2c-.057.047-.212.183-.368.3S736.743,119.7,736.629,119.795Z" transform="translate(-685.945 -108.191)" fill="#d6d6d6"/>
    <path id="Path_6136" data-name="Path 6136" d="M742.852,113.374c-.141.169-.444.115-.656-.023a2.388,2.388,0,0,0-.58-.205c-.116-.048.019-.321.155-.388s.5-.274.772-.41.347-.41.543-.41,1.118-.232,1.235-.185.676.091.793-.09.521-.069.425.09-.445.525-.677.458a4.022,4.022,0,0,0-1.18,0,2.286,2.286,0,0,0-.813.412c-.25.158-.193.341-.094.362A.27.27,0,0,1,742.852,113.374Z" transform="translate(-689.949 -108.23)" fill="#d6d6d6"/>
    <path id="Path_6137" data-name="Path 6137" d="M768.291,119.739c-.114.037-.446-.046-.332.27a1.72,1.72,0,0,1,.116.8,3.48,3.48,0,0,0,.041.845c.037.068.192.228.289.183s-.04-.5-.04-.593a.372.372,0,0,1,.215-.251c.076-.023,0-.411-.1-.572s-.23-.249-.155-.274.177-.205.117-.249S768.425,119.693,768.291,119.739Z" transform="translate(-695.826 -110.05)" fill="#d6d6d6"/>
    <path id="Path_6138" data-name="Path 6138" d="M767.973,122.734c-.146.042-.194.274-.194.342s-.544.206-.37.388.348.047.619.023a2.316,2.316,0,0,0,.522-.114s.406.023.345-.205-.479-.254-.558-.23S768.127,122.688,767.973,122.734Z" transform="translate(-695.701 -110.718)" fill="#d6d6d6"/>
    <path id="Path_6139" data-name="Path 6139" d="M766.863,123.871c-.141.1-.059.5-.173.775s-.214.528-.291.528a1.5,1.5,0,0,0-.6.319c-.117.138-.675-.113-.754,0a2.451,2.451,0,0,1-.329.343c-.1.091-.367.022-.309.3s.192.528.309.528.27-.091.27-.343.27,0,.406-.022.211-.185.268-.368-.075.092.157.161a.22.22,0,0,0,.31-.183c0-.068.424-.183.5-.252s.387-.183.407-.273,0-.618.1-.663.232-.046.078-.365S767.057,123.734,766.863,123.871Z" transform="translate(-695.039 -110.965)" fill="#d6d6d6"/>
    <path id="Path_6140" data-name="Path 6140" d="M762,129.667c-.287.054-.463.779-.23.755S762.253,129.624,762,129.667Z" transform="translate(-694.428 -112.264)" fill="#d6d6d6"/>
    <path id="Path_6141" data-name="Path 6141" d="M777.426,150.465c-.078.045,0,.3.078.389a.933.933,0,0,1,.1.5c-.019.089-.347.2-.192.318s.444,0,.406.138-.194.32-.02.366.235-.162.309-.319a.888.888,0,0,1,.27-.391c.137-.089,0-.3-.078-.3s-.113.115-.289,0-.135-.069-.25-.3S777.62,150.35,777.426,150.465Z" transform="translate(-697.929 -116.896)" fill="#d6d6d6"/>
    <path id="Path_6142" data-name="Path 6142" d="M776.823,152.349c-.029.112-.192.137-.308.253s0,.157-.328.389-.736.479-.814.682.078.32.386.347.233.089.445-.186a4.869,4.869,0,0,1,.657-.663.836.836,0,0,0,.252-.569S776.843,152.283,776.823,152.349Z" transform="translate(-697.48 -117.319)" fill="#d6d6d6"/>
    <path id="Path_6143" data-name="Path 6143" d="M768.921,152.553c-.211.252.214.252.154.5s.289.159.388.113a1.236,1.236,0,0,0,.289-.709c-.037-.135-.426.228-.525.207A3.112,3.112,0,0,1,768.921,152.553Z" transform="translate(-696.033 -117.339)" fill="#d6d6d6"/>
    <path id="Path_6144" data-name="Path 6144" d="M765.456,148.442c0-.234-.117.251-.194.045s.077-.549-.115-.412-.29.25-.31.367-.366.159-.347.045.155-.389.019-.5a1.99,1.99,0,0,0-.541-.229c-.174-.069.02-.3-.444-.183a1.8,1.8,0,0,0-.638.253s-.425-.162-.56.022-.329.526-.329.526-.541.023-.657.044-.31.206-.483.276-.465.134-.581.021-.308-.318-.252-.455.483-.321.329-.549-.251-.273-.271-.408a.543.543,0,0,0-.173-.481c-.232-.275-.173-.594-.076-.64s-.059-.321-.137-.434a.642.642,0,0,1,.078-.642c.154-.112.618-.548.755-.548s.349.071.481-.044.542-.07.542-.159a1.318,1.318,0,0,1,.135-.572c.1-.116.5-.226.56-.318s.152-.481.27-.55.214-.227.388,0,.347.319.423.092.022-.16.2-.363-.02-.55.155-.346.289.364.289.364-.019-.455.1-.455.23.228.289.228.58-.138.678.019-.273.6-.137.755a3.275,3.275,0,0,0,.6.388c.193.138.427.458.523.184s.289-.684.155-.891a1.36,1.36,0,0,1,.1-.914c.057-.045.155.526.347.779a2.535,2.535,0,0,1,.483.708c.1.272.116.751.291.912s.523.159.5.364.389.6.6.982a4.26,4.26,0,0,1,.233,1.6,2.465,2.465,0,0,1-.408,1.12,5.994,5.994,0,0,0-.31.774c-.076.138-.036.115-.327.207s-.505.364-.58.273-.347-.25-.424-.137-.176.366-.311.091-.442-.227-.5-.274-.058-.184-.058-.41-.249-.253-.27-.319S765.456,148.512,765.456,148.442Z" transform="translate(-693.978 -115.009)" fill="#d6d6d6"/>
    <path id="Path_6145" data-name="Path 6145" d="M778.587,144.4c.252.114.7-.41.522-.482S778.587,144.4,778.587,144.4Z" transform="translate(-698.201 -115.44)" fill="#d6d6d6"/>
    <path id="Path_6146" data-name="Path 6146" d="M775.266,145.891c-.037.224-.269.117-.386-.088s-.347-.366,0-.276S775.284,145.779,775.266,145.891Z" transform="translate(-697.333 -115.795)" fill="#d6d6d6"/>
    <path id="Path_6147" data-name="Path 6147" d="M754.447,136.427c-.238.054.349.548.406.615s.577.6.577.848a2.326,2.326,0,0,0,.445.932c.1.1.58.437.658.621s.252.227.252-.023a1.417,1.417,0,0,1,.134-.687c.1-.135.059-.343-.1-.319s-.291-.3-.542-.5a3.65,3.65,0,0,1-.675-.637,6.2,6.2,0,0,0-.675-.64A.642.642,0,0,0,754.447,136.427Z" transform="translate(-692.807 -113.771)" fill="#d6d6d6"/>
    <path id="Path_6148" data-name="Path 6148" d="M755.4,134.87c-.154.023-.154.368-.077.48s.232.046.33.456a5.246,5.246,0,0,0,.364.984c.078.156.408.385.522.5s.291-.047.214-.183a1.635,1.635,0,0,1-.251-.5,2.186,2.186,0,0,0-.27-.684c-.157-.274-.29-.341-.387-.524A3.329,3.329,0,0,0,755.4,134.87Z" transform="translate(-693.002 -113.425)" fill="#d6d6d6"/>
    <path id="Path_6149" data-name="Path 6149" d="M757.507,140.4a.294.294,0,0,0,.1.41.817.817,0,0,0,.465.066c.191-.021.463-.09.251-.225s-.463,0-.54-.183S757.584,140.289,757.507,140.4Z" transform="translate(-693.49 -114.641)" fill="#d6d6d6"/>
    <path id="Path_6150" data-name="Path 6150" d="M758.894,140.658c-.135.07-.348.117-.193.274a.5.5,0,0,0,.483.2c.232-.02.579.141.6,0s-.214-.342-.31-.342A5.151,5.151,0,0,1,758.894,140.658Z" transform="translate(-693.756 -114.715)" fill="#d6d6d6"/>
    <path id="Path_6151" data-name="Path 6151" d="M761.4,141.593c-.042.205.29.3.312.068A.16.16,0,0,0,761.4,141.593Z" transform="translate(-694.368 -114.896)" fill="#d6d6d6"/>
    <path id="Path_6152" data-name="Path 6152" d="M762.719,141.664c.033.247.426-.139.426-.139s.309-.046.309-.207-.309-.364-.426-.181S762.7,141.5,762.719,141.664Z" transform="translate(-694.663 -114.806)" fill="#d6d6d6"/>
    <path id="Path_6153" data-name="Path 6153" d="M761.553,138.542c-.117.044-.1.161-.135.389s-.212.389-.059.5.444-.386.522-.227-.021.227.116.434a.438.438,0,0,0,.386.18s-.019-.546-.232-.684-.349-.3-.1-.25.386-.067.329-.2-.424-.069-.541-.047A.507.507,0,0,1,761.553,138.542Z" transform="translate(-694.346 -114.243)" fill="#d6d6d6"/>
    <path id="Path_6154" data-name="Path 6154" d="M761.755,137.93c-.134.159-.037.318.176.295s.658-.089.754-.089.232-.3.153-.3a6.067,6.067,0,0,0-.675.138A1.966,1.966,0,0,1,761.755,137.93Z" transform="translate(-694.435 -114.086)" fill="#d6d6d6"/>
    <path id="Path_6155" data-name="Path 6155" d="M764.21,137.54c-.176-.088-.5.755-.27.821S764.346,137.611,764.21,137.54Z" transform="translate(-694.918 -114.019)" fill="#d6d6d6"/>
    <path id="Path_6156" data-name="Path 6156" d="M760.358,135.969c-.009-.162-.309.047-.33.206s.213.3-.153.3-.386.342-.465.412a.806.806,0,0,1-.309.138c-.155.044-.194.227-.232.34s-.308-.2-.389-.113a1.493,1.493,0,0,0,.119.889.983.983,0,0,0,.58.594,1.456,1.456,0,0,1,.424.046c.136.044.582.089.56-.113a.927.927,0,0,1,.136-.731c.194-.207.386-.322.291-.618s-.291-.48-.157-.615.291-.182.291-.3S760.4,136.724,760.358,135.969Z" transform="translate(-693.711 -113.657)" fill="#d6d6d6"/>
    <path id="Path_6157" data-name="Path 6157" d="M761.98,131.846c-.136,0,.02.249-.173.41s-.406.226-.291.5.523.477.426.593-.386.344-.426.545.465-.317.6-.525.4-.09.464-.2l.058-.114a2.9,2.9,0,0,1-.388-.115c-.174-.068-.385.182-.289-.181s.388-.3.329-.572S762.039,131.846,761.98,131.846Z" transform="translate(-694.388 -112.751)" fill="#d6d6d6"/>
    <path id="Path_6158" data-name="Path 6158" d="M762.314,134.4c-.067.03-.234.434-.021.434s.58.066.5-.047S762.524,134.305,762.314,134.4Z" transform="translate(-694.545 -113.316)" fill="#d6d6d6"/>
    <path id="Path_6159" data-name="Path 6159" d="M763.12,133.961c-.075-.008-.327.48.018.456S763.393,133.983,763.12,133.961Z" transform="translate(-694.717 -113.222)" fill="#d6d6d6"/>
    <path id="Path_6160" data-name="Path 6160" d="M762.987,135.045c-.273.413-.252.322-.446.232s-.5.205-.445.317.483-.023.581.183.1.227.29.183a.519.519,0,0,0,.326-.524A1.428,1.428,0,0,0,762.987,135.045Z" transform="translate(-694.523 -113.464)" fill="#d6d6d6"/>
    <path id="Path_6161" data-name="Path 6161" d="M764.9,138.475c-.147.171-.214.183.115.249s.426.071.289.253-.23.41-.115.432.464-.089.5,0-.075.115.312.185a.718.718,0,0,1,.542.318c.075.092.309.389.155.389s-.33.229-.214.25.464-.066.483,0,.212.506.4.483.312-.434.407-.549.483-.184.521.023a.8.8,0,0,0,.387.549c.232.135.5.274.524.157s-.116-.546-.273-.615a1.092,1.092,0,0,1-.423-.617c0-.159-.233-.207-.35-.32s-.211-.434-.5-.5a2.176,2.176,0,0,1-.675-.365c-.309-.182-1.006-.182-1.024-.071s0,0-.233-.088-.406,0-.463-.161S765.073,138.268,764.9,138.475Z" transform="translate(-695.122 -114.198)" fill="#d6d6d6"/>
  </g>
</svg>
