<svg id="Group_2889" data-name="Group 2889" xmlns="http://www.w3.org/2000/svg" xmlns:xlink="http://www.w3.org/1999/xlink" width="273.024" height="172.444" viewBox="0 0 273.024 172.444">
  <defs>
    <linearGradient id="linear-gradient" x1="0.375" y1="0.013" x2="0.528" y2="0.61" gradientUnits="objectBoundingBox">
      <stop offset="0" stop-color="#7f003c"/>
      <stop offset="0.242" stop-color="#82003e"/>
      <stop offset="0.451" stop-color="#8c0046"/>
      <stop offset="0.648" stop-color="#9e0053"/>
      <stop offset="0.835" stop-color="#b70066"/>
      <stop offset="1" stop-color="#d4007c"/>
    </linearGradient>
    <linearGradient id="linear-gradient-2" x1="0.018" y1="0.286" x2="1.063" y2="0.741" gradientUnits="objectBoundingBox">
      <stop offset="0" stop-color="#d4007c"/>
      <stop offset="0.07" stop-color="#b90068"/>
      <stop offset="0.159" stop-color="#a00054"/>
      <stop offset="0.251" stop-color="#8d0047"/>
      <stop offset="0.346" stop-color="#82003e"/>
      <stop offset="0.451" stop-color="#7f003c"/>
      <stop offset="1" stop-color="#d4007c"/>
    </linearGradient>
    <linearGradient id="linear-gradient-3" x1="0.5" y1="-0.269" x2="0.5" y2="2.254" gradientUnits="objectBoundingBox">
      <stop offset="0" stop-color="#ffca3f"/>
      <stop offset="0.097" stop-color="#ca7c22"/>
      <stop offset="0.189" stop-color="#fddb7a"/>
      <stop offset="0.42" stop-color="#ffad45"/>
      <stop offset="0.554" stop-color="#a95f0d"/>
      <stop offset="0.656" stop-color="#ffad45"/>
      <stop offset="0.79" stop-color="#ffff9b"/>
      <stop offset="0.868" stop-color="#ffed7b"/>
      <stop offset="1" stop-color="#ffca3f"/>
    </linearGradient>
  </defs>
  <g id="Group_2868" data-name="Group 2868">
    <g id="Group_2867" data-name="Group 2867">
      <g id="Group_2853" data-name="Group 2853">
        <path id="Path_5904" data-name="Path 5904" d="M324.538,475.482a11.772,11.772,0,0,1-11.73,11.74H63.253a11.774,11.774,0,0,1-11.739-11.74V326.514a11.769,11.769,0,0,1,11.739-11.735H312.809a11.767,11.767,0,0,1,11.73,11.735Z" transform="translate(-51.514 -314.779)" fill="url(#linear-gradient)"/>
        <path id="Path_5905" data-name="Path 5905" d="M63.55,490.843H312.4c6.441,0,11.7-5.516,11.7-12.249l.235-146.053c-12.6-1.445-12.574-1.438-25.653-1.438C142.2,331.1,143.071,470.657,51.714,473.353l.132,5.241C51.846,485.327,57.112,490.843,63.55,490.843Z" transform="translate(-51.559 -318.418)" fill="url(#linear-gradient-2)"/>
      </g>
      <g id="Group_2854" data-name="Group 2854" transform="translate(24.525 25.338)">
        <path id="Path_5906" data-name="Path 5906" d="M128.33,376.782a6.464,6.464,0,0,1-6.466,6.465H89.537a6.461,6.461,0,0,1-6.462-6.465V353.847a6.46,6.46,0,0,1,6.462-6.461h32.326a6.463,6.463,0,0,1,6.466,6.461Z" transform="translate(-83.075 -347.386)" fill-rule="evenodd" fill="url(#linear-gradient-3)"/>
        <path id="Path_5907" data-name="Path 5907" d="M128.33,358.687v-.828h-8.29V347.386h-.828v10.473H112.5a7.413,7.413,0,0,0-6.381-5.164v-5.309h-.826v5.251a7.416,7.416,0,0,0-6.942,5.222h-6.1V347.386h-.828v10.473H83.075v.828h8.344v11.731H83.075v.831h8.344v12h.828v-12h5.924a7.451,7.451,0,0,0,7.117,5.778v6.221h.826v-6.279a7.433,7.433,0,0,0,6.554-5.72h6.545v12h.828v-12h8.29v-.831h-4.943V358.687ZM98.055,370.418H92.247V358.687h5.862a7.275,7.275,0,0,0,1.607,6.144,7.4,7.4,0,0,0-1.746,4.76A7.228,7.228,0,0,0,98.055,370.418Zm7.364,5.795a6.6,6.6,0,0,1-4.848-11.1l.257-.28-.257-.279a6.622,6.622,0,1,1,9.7,0l-.261.279.261.28a6.6,6.6,0,0,1-4.848,11.1Zm17.14-5.795h-9.776a6.649,6.649,0,0,0-1.661-5.586,7.4,7.4,0,0,0,1.746-4.758,7.554,7.554,0,0,0-.138-1.386h9.829Z" transform="translate(-83.075 -347.386)" fill="#ff9100" style="mix-blend-mode: multiply;isolation: isolate"/>
      </g>
      <g id="Group_2855" data-name="Group 2855" transform="translate(24.384 83.213)">
        <path id="Path_5908" data-name="Path 5908" d="M83.719,425.416l-.826-.863,2.477-2.689h2.056v12.3H86.056V423.307a1.184,1.184,0,0,1,.054-.458l-.054-.052Z" transform="translate(-82.893 -421.864)" fill="#d6d6d6"/>
        <path id="Path_5909" data-name="Path 5909" d="M92.12,434.169V432.3a1.221,1.221,0,0,1,.044-.412,1.236,1.236,0,0,1,.291-.306l5.835-5.326a.88.88,0,0,0,.282-.361,1.922,1.922,0,0,0,.053-.521v-1.56a1.417,1.417,0,0,0-.027-.345.561.561,0,0,0-.184-.2.919.919,0,0,0-.246-.148,1.787,1.787,0,0,0-.4-.027h-3.13a1.759,1.759,0,0,0-.4.027.931.931,0,0,0-.246.148.582.582,0,0,0-.185.2,1.315,1.315,0,0,0-.026.345v.33H92.3v-.7a1.092,1.092,0,0,1,.423-.878l.42-.353a1.333,1.333,0,0,1,.845-.35h4.429a1.329,1.329,0,0,1,.842.35l.423.353a1.1,1.1,0,0,1,.422.878v2.479a1.91,1.91,0,0,1-.053.519.856.856,0,0,1-.282.359l-5.818,5.255a.791.791,0,0,0-.35.81v.071h6.5v1.231Z" transform="translate(-84.95 -421.864)" fill="#d6d6d6"/>
        <path id="Path_5910" data-name="Path 5910" d="M112.9,427.945l.687.563a1.053,1.053,0,0,1,.306.316,1.784,1.784,0,0,1,.046.526v3.235a1.376,1.376,0,0,1-.062.492,1.564,1.564,0,0,1-.271.371l-.317.315a1.185,1.185,0,0,1-.827.4h-4.991a1.317,1.317,0,0,1-.845-.353l-.42-.35a1.1,1.1,0,0,1-.422-.88v-.7h1.476v.334a1.348,1.348,0,0,0,.026.341.559.559,0,0,0,.185.2.831.831,0,0,0,.246.148,1.673,1.673,0,0,0,.4.029H111.6a1.668,1.668,0,0,0,.4-.029.841.841,0,0,0,.246-.148.571.571,0,0,0,.186-.2,1.311,1.311,0,0,0,.026-.341v-2.654a.869.869,0,0,0-.317-.671l-.264-.226a1.52,1.52,0,0,0-.367-.266,1.839,1.839,0,0,0-.441-.034h-2.812v-1.126h2.566a1.752,1.752,0,0,0,.438-.034,1.36,1.36,0,0,0,.369-.264l.265-.208a1.231,1.231,0,0,0,.309-.311,1.313,1.313,0,0,0,.042-.43v-2.177a1.28,1.28,0,0,0-.026-.345.536.536,0,0,0-.185-.2.906.906,0,0,0-.245-.148,1.763,1.763,0,0,0-.4-.027h-2.9a1.889,1.889,0,0,0-.423.027.92.92,0,0,0-.246.148.569.569,0,0,0-.184.2,1.315,1.315,0,0,0-.026.345v.33h-1.476v-.7a1.1,1.1,0,0,1,.423-.878l.423-.353a1.327,1.327,0,0,1,.842-.35h4.218a1.331,1.331,0,0,1,.845.35l.42.353a1.1,1.1,0,0,1,.424.878v2.884a1.069,1.069,0,0,1-.043.386,1.053,1.053,0,0,1-.275.263l-.51.423a.836.836,0,0,1-.491.228v.087A.83.83,0,0,1,112.9,427.945Z" transform="translate(-87.995 -421.864)" fill="#d6d6d6"/>
        <path id="Path_5911" data-name="Path 5911" d="M125.666,426.61h1.476v3.517h1.688v1.229h-1.688v2.813h-1.476v-2.813h-6.222v-1.441l6.01-8.051h1.652l-5.854,7.857a1.029,1.029,0,0,1-.3.333v.074h4.712Z" transform="translate(-91.041 -421.864)" fill="#d6d6d6"/>
        <path id="Path_5912" data-name="Path 5912" d="M154.639,426.081h3.972a1.315,1.315,0,0,1,.845.355l.42.349a1.094,1.094,0,0,1,.422.878v4.923a1.1,1.1,0,0,1-.422.88l-.42.35a1.32,1.32,0,0,1-.845.353h-5.272a1.323,1.323,0,0,1-.845-.353l-.422-.35a1.1,1.1,0,0,1-.42-.88v-.7h1.476v.334a1.3,1.3,0,0,0,.026.341.531.531,0,0,0,.185.2.831.831,0,0,0,.246.148,1.672,1.672,0,0,0,.4.029h3.972a1.668,1.668,0,0,0,.4-.029.852.852,0,0,0,.246-.148.548.548,0,0,0,.184-.2,1.3,1.3,0,0,0,.026-.341v-4.185a1.312,1.312,0,0,0-.026-.343.535.535,0,0,0-.184-.2.9.9,0,0,0-.246-.151,1.882,1.882,0,0,0-.4-.026h-3.39a1.34,1.34,0,0,0-.845.35.972.972,0,0,0-.422.7h-1.476v-6.5h8.261v1.23H153.3v3.849h.071c.011-.127.14-.285.385-.474A1.623,1.623,0,0,1,154.639,426.081Z" transform="translate(-98.221 -421.864)" fill="#d6d6d6"/>
        <path id="Path_5913" data-name="Path 5913" d="M175.516,424.148h-1.476v-.33a1.315,1.315,0,0,0-.026-.345.573.573,0,0,0-.185-.2.919.919,0,0,0-.246-.148,1.759,1.759,0,0,0-.4-.027h-4.22a1.8,1.8,0,0,0-.4.027.943.943,0,0,0-.246.148.554.554,0,0,0-.184.2,1.416,1.416,0,0,0-.027.345v3.5h.072l.088-.089c.41-.409.73-.614.966-.614h4.782a1.324,1.324,0,0,1,.842.352l.423.35a1.1,1.1,0,0,1,.42.88v4.394a1.1,1.1,0,0,1-.42.88l-.423.35a1.313,1.313,0,0,1-.842.353h-5.7a1.317,1.317,0,0,1-.842-.353l-.423-.35a1.108,1.108,0,0,1-.422-.88v-9.141a1.105,1.105,0,0,1,.422-.878l.423-.353a1.33,1.33,0,0,1,.842-.35h5.52a1.327,1.327,0,0,1,.842.35l.422.353a1.1,1.1,0,0,1,.423.878Zm-1.3,8.07v-3.656a1.348,1.348,0,0,0-.026-.343.516.516,0,0,0-.183-.2.887.887,0,0,0-.248-.151,1.833,1.833,0,0,0-.4-.026H169.4a1.83,1.83,0,0,0-.449.034,2.644,2.644,0,0,0-.43.23c-.27.162-.41.309-.424.438v3.675a1.4,1.4,0,0,0,.027.341.548.548,0,0,0,.184.2.872.872,0,0,0,.246.148,1.717,1.717,0,0,0,.4.029h4.394a1.673,1.673,0,0,0,.4-.029.808.808,0,0,0,.248-.148.539.539,0,0,0,.183-.2A1.335,1.335,0,0,0,174.215,432.218Z" transform="translate(-101.558 -421.864)" fill="#d6d6d6"/>
        <path id="Path_5914" data-name="Path 5914" d="M182.313,434.169l5.781-10.724a.877.877,0,0,1,.3-.351h-7.608v-1.23H189.8V423.2l-5.871,10.969Z" transform="translate(-104.715 -421.864)" fill="#d6d6d6"/>
        <path id="Path_5915" data-name="Path 5915" d="M196.024,428.736l.827-.685a.841.841,0,0,1,.491-.228v-.089a.841.841,0,0,1-.491-.228l-.581-.46a.726.726,0,0,1-.28-.6v-3a1.1,1.1,0,0,1,.42-.878l.423-.353a1.334,1.334,0,0,1,.845-.35h5.377a1.336,1.336,0,0,1,.845.35l.42.353a1.1,1.1,0,0,1,.423.878v3a.735.735,0,0,1-.28.6l-.581.46a.841.841,0,0,1-.491.228v.089a.841.841,0,0,1,.491.228l.826.685a.83.83,0,0,1,.246.688v3.163a1.1,1.1,0,0,1-.423.88c-.092.068-.235.187-.422.35a1.316,1.316,0,0,1-.842.353h-5.8a1.315,1.315,0,0,1-.845-.353c-.188-.163-.329-.282-.421-.35a1.1,1.1,0,0,1-.422-.88v-3.163A.83.83,0,0,1,196.024,428.736Zm6.116-.193h-3.55a1.668,1.668,0,0,0-.351.026,1.153,1.153,0,0,0-.3.2l-.385.316a.9.9,0,0,0-.265.262,1.245,1.245,0,0,0-.033.37v2.5a1.348,1.348,0,0,0,.026.341.564.564,0,0,0,.186.2.831.831,0,0,0,.246.148,1.668,1.668,0,0,0,.4.029h4.5a1.677,1.677,0,0,0,.4-.029.841.841,0,0,0,.246-.148.548.548,0,0,0,.184-.2,1.4,1.4,0,0,0,.027-.341v-2.5a1.355,1.355,0,0,0-.034-.37.962.962,0,0,0-.264-.262l-.388-.316a1.128,1.128,0,0,0-.3-.2A1.648,1.648,0,0,0,202.14,428.543Zm.264-5.449h-4.077a1.75,1.75,0,0,0-.4.027.9.9,0,0,0-.246.148.548.548,0,0,0-.186.2,1.365,1.365,0,0,0-.026.345V426.1a1.3,1.3,0,0,0,.034.385.861.861,0,0,0,.246.264l.457.369a.834.834,0,0,0,.272.167,1.912,1.912,0,0,0,.414.027h2.953a1.861,1.861,0,0,0,.412-.027.782.782,0,0,0,.272-.167l.457-.369a.863.863,0,0,0,.249-.264,1.385,1.385,0,0,0,.034-.385v-2.282a1.27,1.27,0,0,0-.027-.345.554.554,0,0,0-.184-.2.919.919,0,0,0-.246-.148A1.75,1.75,0,0,0,202.4,423.094Z" transform="translate(-108.058 -421.864)" fill="#d6d6d6"/>
        <path id="Path_5916" data-name="Path 5916" d="M228.569,431.884h1.476v.334a1.429,1.429,0,0,0,.026.341.552.552,0,0,0,.185.2.85.85,0,0,0,.245.148,1.731,1.731,0,0,0,.408.029h4.217a1.673,1.673,0,0,0,.4-.029.851.851,0,0,0,.246-.148.555.555,0,0,0,.184-.2,1.264,1.264,0,0,0,.026-.341v-3.5h-.071l-.088.089c-.409.408-.73.616-.965.616h-4.781a1.325,1.325,0,0,1-.845-.353l-.42-.352a1.091,1.091,0,0,1-.423-.878v-4.4a1.1,1.1,0,0,1,.423-.878l.42-.353a1.334,1.334,0,0,1,.845-.35h5.694a1.324,1.324,0,0,1,.842.35l.421.353a1.094,1.094,0,0,1,.424.878v9.141a1.1,1.1,0,0,1-.424.88l-.421.35a1.311,1.311,0,0,1-.842.353h-5.52a1.314,1.314,0,0,1-.842-.353l-.423-.35a1.108,1.108,0,0,1-.422-.88Zm1.3-8.066v3.654a1.278,1.278,0,0,0,.026.343.543.543,0,0,0,.184.2.942.942,0,0,0,.246.148,1.737,1.737,0,0,0,.4.027h3.954a1.8,1.8,0,0,0,.45-.036,2.449,2.449,0,0,0,.43-.228c.269-.166.41-.312.422-.44v-3.672a1.28,1.28,0,0,0-.026-.345.562.562,0,0,0-.184-.2.919.919,0,0,0-.246-.148,1.75,1.75,0,0,0-.4-.027h-4.4a1.736,1.736,0,0,0-.4.027.92.92,0,0,0-.246.148.561.561,0,0,0-.184.2A1.28,1.28,0,0,0,229.87,423.818Z" transform="translate(-115.328 -421.864)" fill="#d6d6d6"/>
        <path id="Path_5917" data-name="Path 5917" d="M245.844,421.864h6.962a1.327,1.327,0,0,1,.842.35l.424.353a1.1,1.1,0,0,1,.422.878v9.141a1.106,1.106,0,0,1-.422.88l-.424.35a1.314,1.314,0,0,1-.842.353h-6.962a1.316,1.316,0,0,1-.842-.353l-.422-.35a1.1,1.1,0,0,1-.423-.88v-9.141a1.1,1.1,0,0,1,.423-.878l.422-.353A1.329,1.329,0,0,1,245.844,421.864Zm7.172,10.354v-8.4a1.432,1.432,0,0,0-.026-.345.561.561,0,0,0-.184-.2.9.9,0,0,0-.249-.148,1.75,1.75,0,0,0-.4-.027h-5.659a1.786,1.786,0,0,0-.4.027.907.907,0,0,0-.246.148.566.566,0,0,0-.185.2,1.432,1.432,0,0,0-.026.345v8.4a1.415,1.415,0,0,0,.026.341.559.559,0,0,0,.185.2.841.841,0,0,0,.246.148,1.708,1.708,0,0,0,.4.029h5.659a1.673,1.673,0,0,0,.4-.029.837.837,0,0,0,.249-.148.555.555,0,0,0,.184-.2A1.415,1.415,0,0,0,253.016,432.218Z" transform="translate(-118.842 -421.864)" fill="#d6d6d6"/>
        <path id="Path_5918" data-name="Path 5918" d="M261.585,425.416l-.827-.863,2.48-2.689h2.055v12.3h-1.371V423.307a1.263,1.263,0,0,1,.052-.458l-.052-.052Z" transform="translate(-122.543 -421.864)" fill="#d6d6d6"/>
        <path id="Path_5919" data-name="Path 5919" d="M269.988,434.169V432.3a.646.646,0,0,1,.333-.718l5.836-5.326a.877.877,0,0,0,.281-.361,1.961,1.961,0,0,0,.052-.521v-1.56a1.3,1.3,0,0,0-.027-.345.544.544,0,0,0-.185-.2.9.9,0,0,0-.245-.148,1.754,1.754,0,0,0-.4-.027H272.5a1.741,1.741,0,0,0-.4.027.885.885,0,0,0-.246.148.565.565,0,0,0-.185.2,1.314,1.314,0,0,0-.026.345v.33h-1.477v-.7a1.1,1.1,0,0,1,.423-.878l.424-.353a1.321,1.321,0,0,1,.842-.35h4.428a1.336,1.336,0,0,1,.846.35l.42.353a1.1,1.1,0,0,1,.422.878v2.479a1.91,1.91,0,0,1-.053.519.856.856,0,0,1-.281.359l-5.817,5.255a1.253,1.253,0,0,0-.3.353,1.3,1.3,0,0,0-.052.457v.071h6.5v1.231Z" transform="translate(-124.601 -421.864)" fill="#d6d6d6"/>
        <path id="Path_5920" data-name="Path 5920" d="M307.73,427.945l.686.563a1.074,1.074,0,0,1,.306.316,1.8,1.8,0,0,1,.045.526v3.235a1.4,1.4,0,0,1-.061.492,1.531,1.531,0,0,1-.274.371l-.314.315a1.193,1.193,0,0,1-.827.4H302.3a1.318,1.318,0,0,1-.844-.353l-.424-.35a1.1,1.1,0,0,1-.419-.88v-.7h1.475v.334a1.336,1.336,0,0,0,.026.341.545.545,0,0,0,.185.2.851.851,0,0,0,.246.148,1.681,1.681,0,0,0,.4.029h3.482a1.687,1.687,0,0,0,.4-.029.851.851,0,0,0,.246-.148.568.568,0,0,0,.185-.2,1.461,1.461,0,0,0,.026-.341v-2.654a.869.869,0,0,0-.317-.671l-.264-.226a1.473,1.473,0,0,0-.37-.266,1.8,1.8,0,0,0-.439-.034h-2.811v-1.126h2.567a1.752,1.752,0,0,0,.438-.034,1.437,1.437,0,0,0,.37-.264l.265-.208a1.2,1.2,0,0,0,.305-.311,1.283,1.283,0,0,0,.045-.43v-2.177a1.27,1.27,0,0,0-.027-.345.554.554,0,0,0-.184-.2.907.907,0,0,0-.246-.148,1.749,1.749,0,0,0-.4-.027h-2.9a1.884,1.884,0,0,0-.424.027.917.917,0,0,0-.245.148.563.563,0,0,0-.186.2,1.39,1.39,0,0,0-.026.345v.33h-1.476v-.7a1.1,1.1,0,0,1,.422-.878l.42-.353a1.333,1.333,0,0,1,.845-.35h4.217a1.322,1.322,0,0,1,.842.35l.423.353a1.1,1.1,0,0,1,.423.878v2.884a1.052,1.052,0,0,1-.045.386.981.981,0,0,1-.273.263l-.509.423a.836.836,0,0,1-.491.228v.087A.83.83,0,0,1,307.73,427.945Z" transform="translate(-131.428 -421.864)" fill="#d6d6d6"/>
        <path id="Path_5921" data-name="Path 5921" d="M320.494,426.61h1.476v3.517h1.688v1.229h-1.688v2.813h-1.476v-2.813h-6.223v-1.441l6.014-8.051h1.651l-5.853,7.857a1.029,1.029,0,0,1-.3.333v.074h4.71Z" transform="translate(-134.472 -421.864)" fill="#d6d6d6"/>
        <path id="Path_5922" data-name="Path 5922" d="M332.5,426.081h3.975a1.32,1.32,0,0,1,.843.355l.422.349a1.1,1.1,0,0,1,.42.878v4.923a1.1,1.1,0,0,1-.42.88l-.422.35a1.324,1.324,0,0,1-.843.353H331.2a1.323,1.323,0,0,1-.845-.353l-.42-.35a1.1,1.1,0,0,1-.423-.88v-.7h1.476v.334a1.338,1.338,0,0,0,.026.341.56.56,0,0,0,.185.2.841.841,0,0,0,.246.148,1.677,1.677,0,0,0,.4.029h3.972a1.67,1.67,0,0,0,.4-.029.846.846,0,0,0,.249-.148.535.535,0,0,0,.182-.2,1.285,1.285,0,0,0,.027-.341v-4.185a1.3,1.3,0,0,0-.027-.343.523.523,0,0,0-.182-.2.893.893,0,0,0-.249-.151,1.884,1.884,0,0,0-.4-.026h-3.391a1.339,1.339,0,0,0-.846.35.972.972,0,0,0-.42.7h-1.476v-6.5h8.26v1.23H331.17v3.849h.069c.014-.127.141-.285.388-.474A1.618,1.618,0,0,1,332.5,426.081Z" transform="translate(-137.871 -421.864)" fill="#d6d6d6"/>
        <path id="Path_5923" data-name="Path 5923" d="M353.384,424.148h-1.476v-.33a1.3,1.3,0,0,0-.027-.345.539.539,0,0,0-.184-.2.865.865,0,0,0-.246-.148,1.745,1.745,0,0,0-.4-.027h-4.216a1.749,1.749,0,0,0-.4.027.894.894,0,0,0-.245.148.563.563,0,0,0-.186.2,1.366,1.366,0,0,0-.026.345v3.5h.068l.089-.089q.614-.613.967-.614h4.781a1.322,1.322,0,0,1,.842.352l.422.35a1.1,1.1,0,0,1,.423.88v4.394a1.1,1.1,0,0,1-.423.88l-.422.35a1.311,1.311,0,0,1-.842.353H346.18a1.318,1.318,0,0,1-.845-.353l-.42-.35a1.1,1.1,0,0,1-.423-.88v-9.141a1.1,1.1,0,0,1,.423-.878l.42-.353a1.331,1.331,0,0,1,.845-.35H351.7a1.333,1.333,0,0,1,.845.35l.422.353a1.1,1.1,0,0,1,.421.878Zm-1.3,8.07v-3.656a1.312,1.312,0,0,0-.026-.343.537.537,0,0,0-.184-.2.918.918,0,0,0-.246-.151,1.829,1.829,0,0,0-.4-.026h-3.955a1.783,1.783,0,0,0-.447.034,2.516,2.516,0,0,0-.431.23c-.273.162-.413.309-.422.438v3.675a1.349,1.349,0,0,0,.026.341.556.556,0,0,0,.186.2.83.83,0,0,0,.245.148,1.672,1.672,0,0,0,.4.029h4.394a1.669,1.669,0,0,0,.4-.029.833.833,0,0,0,.246-.148.563.563,0,0,0,.184-.2A1.3,1.3,0,0,0,352.084,432.218Z" transform="translate(-141.209 -421.864)" fill="#d6d6d6"/>
      </g>
      <g id="Group_2856" data-name="Group 2856" transform="translate(24.904 106.409)">
        <path id="Path_5924" data-name="Path 5924" d="M88.345,455.344a5.006,5.006,0,0,1-.592,2.726,2.224,2.224,0,0,1-3.584-.031,4.91,4.91,0,0,1-.607-2.695,5.068,5.068,0,0,1,.589-2.749,2.232,2.232,0,0,1,3.586.044A4.944,4.944,0,0,1,88.345,455.344Zm-3.637,0A5.141,5.141,0,0,0,85,457.4a1.037,1.037,0,0,0,1.9-.01,5.1,5.1,0,0,0,.3-2.047,5.16,5.16,0,0,0-.3-2.051,1,1,0,0,0-.953-.63.987.987,0,0,0-.946.619A5.181,5.181,0,0,0,84.707,455.344Z" transform="translate(-83.562 -451.714)" fill="#d6d6d6"/>
        <path id="Path_5925" data-name="Path 5925" d="M94.229,458.895H93.1V454.35c0-.542.013-.973.037-1.292-.074.075-.164.163-.273.255s-.467.39-1.079.885l-.568-.718,2.07-1.627h.943Z" transform="translate(-85.268 -451.745)" fill="#d6d6d6"/>
        <path id="Path_5926" data-name="Path 5926" d="M102.835,458.866H98.063v-.856l1.814-1.826a15.539,15.539,0,0,0,1.067-1.169,2.827,2.827,0,0,0,.383-.647,1.785,1.785,0,0,0,.121-.65.993.993,0,0,0-.288-.751,1.084,1.084,0,0,0-.792-.275,2.093,2.093,0,0,0-.782.149,3.707,3.707,0,0,0-.874.538l-.612-.744a3.994,3.994,0,0,1,1.141-.7,3.359,3.359,0,0,1,1.18-.207,2.334,2.334,0,0,1,1.574.512,1.735,1.735,0,0,1,.594,1.38,2.446,2.446,0,0,1-.172.907,3.624,3.624,0,0,1-.525.881,12.051,12.051,0,0,1-1.177,1.232l-1.223,1.182v.052h3.343Z" transform="translate(-86.795 -451.716)" fill="#d6d6d6"/>
        <path id="Path_5927" data-name="Path 5927" d="M109.808,453.445a1.629,1.629,0,0,1-.39,1.113,1.973,1.973,0,0,1-1.1.6v.039a2.132,2.132,0,0,1,1.274.526,1.524,1.524,0,0,1,.422,1.119,1.865,1.865,0,0,1-.719,1.57,3.3,3.3,0,0,1-2.041.551,4.619,4.619,0,0,1-1.973-.379v-1.009a4.42,4.42,0,0,0,.947.342,4.142,4.142,0,0,0,.964.123,2.052,2.052,0,0,0,1.223-.3,1.1,1.1,0,0,0,.4-.943.894.894,0,0,0-.448-.827,2.866,2.866,0,0,0-1.4-.266h-.613v-.919h.621q1.688,0,1.688-1.166a.853.853,0,0,0-.3-.7,1.31,1.31,0,0,0-.866-.247,2.584,2.584,0,0,0-.772.114,3.669,3.669,0,0,0-.874.441l-.554-.789a3.683,3.683,0,0,1,2.247-.713,2.686,2.686,0,0,1,1.661.455A1.507,1.507,0,0,1,109.808,453.445Z" transform="translate(-88.404 -451.716)" fill="#d6d6d6"/>
      </g>
      <g id="Group_2858" data-name="Group 2858" transform="translate(23.451 5.255)">
        <g id="Group_2857" data-name="Group 2857">
          <path id="Path_5928" data-name="Path 5928" d="M82.986,333.351a2.187,2.187,0,0,1-.674-.513,2.442,2.442,0,0,1-.453-.755,2.571,2.571,0,0,1-.166-.925v-3.445a2.553,2.553,0,0,1,.166-.923,2.462,2.462,0,0,1,.453-.758,2.184,2.184,0,0,1,.674-.512,1.875,1.875,0,0,1,.841-.19h1.966v1.776H83.827a.4.4,0,0,0-.3.161.669.669,0,0,0-.137.447v3.445a.652.652,0,0,0,.137.435.4.4,0,0,0,.3.161h1.966v1.788H83.827A1.875,1.875,0,0,1,82.986,333.351Z" transform="translate(-81.693 -322.386)" fill="#d6d6d6"/>
          <path id="Path_5929" data-name="Path 5929" d="M90.1,327.291a.679.679,0,0,0-.131.423v5.84H88.273v-5.84a2.615,2.615,0,0,1,.155-.894,2.357,2.357,0,0,1,.441-.757,2.254,2.254,0,0,1,.679-.529,1.835,1.835,0,0,1,.858-.2h1.967v1.788H90.406A.379.379,0,0,0,90.1,327.291Z" transform="translate(-83.16 -322.386)" fill="#d6d6d6"/>
          <path id="Path_5930" data-name="Path 5930" d="M96.186,331.171c0,.27.071.437.214.5a1.781,1.781,0,0,0,.68.1h1.549v1.788H97.58l-1.12-.012a1.583,1.583,0,0,1-.81-.214,2.187,2.187,0,0,1-.632-.549,2.522,2.522,0,0,1-.406-.757,2.661,2.661,0,0,1-.143-.852v-3.457a2.531,2.531,0,0,1,.161-.894,2.46,2.46,0,0,1,.448-.757,2.233,2.233,0,0,1,.685-.529,1.894,1.894,0,0,1,.876-.2h.441a1.868,1.868,0,0,1,.863.2,2.233,2.233,0,0,1,.685.529,2.475,2.475,0,0,1,.448.757,2.53,2.53,0,0,1,.16.894v2.526H96.186ZM97.4,327.3a.394.394,0,0,0-.315-.178h-.441a.389.389,0,0,0-.322.173.679.679,0,0,0-.131.423v.751h1.347v-.751A.669.669,0,0,0,97.4,327.3Z" transform="translate(-84.541 -322.386)" fill="#d6d6d6"/>
          <path id="Path_5931" data-name="Path 5931" d="M104.308,332.709a1.864,1.864,0,0,1-.846-.2,2.277,2.277,0,0,1-.691-.529,2.457,2.457,0,0,1-.465-.776,2.6,2.6,0,0,1-.166-.929v-3.5a2.61,2.61,0,0,1,.166-.93,2.455,2.455,0,0,1,.465-.774,2.272,2.272,0,0,1,.691-.532,1.872,1.872,0,0,1,.846-.194h.441a1.436,1.436,0,0,1,.453.071v-2.872h1.7v8.736a2.615,2.615,0,0,1-.166.929,2.547,2.547,0,0,1-.459.776,2.237,2.237,0,0,1-.685.529,1.867,1.867,0,0,1-.846.2Zm.745-6.377a.421.421,0,0,0-.3-.168h-.441a.409.409,0,0,0-.309.168.65.65,0,0,0-.144.441v3.5a.645.645,0,0,0,.144.447.412.412,0,0,0,.309.161h.441a.423.423,0,0,0,.3-.161.636.636,0,0,0,.149-.447v-3.5A.641.641,0,0,0,105.053,326.333Z" transform="translate(-86.251 -321.542)" fill="#d6d6d6"/>
          <path id="Path_5932" data-name="Path 5932" d="M111.464,324.353h-1.656v-1.478h1.656Zm-.429,8.451a2.107,2.107,0,0,1-.655-.542,2.518,2.518,0,0,1-.424-.774,2.8,2.8,0,0,1-.148-.912v-5.8h1.656v5.8a.72.72,0,0,0,.125.441.362.362,0,0,0,.292.166h.454v1.824h-.454A1.773,1.773,0,0,1,111.035,332.8Z" transform="translate(-87.96 -321.839)" fill="#d6d6d6"/>
          <path id="Path_5933" data-name="Path 5933" d="M115.56,330.278a.715.715,0,0,0,.125.441.361.361,0,0,0,.292.166h.453v1.824h-.453a1.773,1.773,0,0,1-.846-.2,2.11,2.11,0,0,1-.656-.542,2.516,2.516,0,0,1-.423-.774,2.78,2.78,0,0,1-.149-.912v-8.736h1.657v2.812h1.764v1.811H115.56Z" transform="translate(-88.873 -321.542)" fill="#d6d6d6"/>
          <path id="Path_5934" data-name="Path 5934" d="M124.444,333.351a2.175,2.175,0,0,1-.673-.513,2.427,2.427,0,0,1-.453-.755,2.554,2.554,0,0,1-.167-.925v-3.445a2.537,2.537,0,0,1,.167-.923,2.447,2.447,0,0,1,.453-.758,2.171,2.171,0,0,1,.673-.512,1.874,1.874,0,0,1,.84-.19h1.968v1.776h-1.968a.394.394,0,0,0-.3.161.665.665,0,0,0-.138.447v3.445a.648.648,0,0,0,.138.435.4.4,0,0,0,.3.161h1.968v1.788h-1.968A1.875,1.875,0,0,1,124.444,333.351Z" transform="translate(-90.935 -322.386)" fill="#d6d6d6"/>
          <path id="Path_5935" data-name="Path 5935" d="M131.594,333.554a1.931,1.931,0,0,1-1.008-.245,2.061,2.061,0,0,1-.668-.626,2.675,2.675,0,0,1-.375-.864,4.047,4.047,0,0,1-.12-.971,2.542,2.542,0,0,1,.161-.894,2.465,2.465,0,0,1,.453-.763,2.218,2.218,0,0,1,.691-.531,1.94,1.94,0,0,1,.865-.2h.894v-.751a.669.669,0,0,0-.137-.417.4.4,0,0,0-.316-.178H130.02V325.33h2.014a1.869,1.869,0,0,1,.864.2,2.233,2.233,0,0,1,.685.529,2.443,2.443,0,0,1,.447.757,2.531,2.531,0,0,1,.161.894v3.457a2.522,2.522,0,0,1-.161.893,2.438,2.438,0,0,1-.447.758,2.248,2.248,0,0,1-.685.53,1.879,1.879,0,0,1-.864.2Zm0-3.314a.4.4,0,0,0-.316.18.685.685,0,0,0-.137.43v.322a.665.665,0,0,0,.137.416.4.4,0,0,0,.316.179h.441a.4.4,0,0,0,.316-.179.67.67,0,0,0,.137-.416v-.931Z" transform="translate(-92.333 -322.386)" fill="#d6d6d6"/>
          <path id="Path_5936" data-name="Path 5936" d="M138.918,327.291a.679.679,0,0,0-.132.423v5.84h-1.692v-5.84a2.615,2.615,0,0,1,.155-.894,2.357,2.357,0,0,1,.441-.757,2.254,2.254,0,0,1,.679-.529,1.835,1.835,0,0,1,.858-.2h1.967v1.788h-1.967A.379.379,0,0,0,138.918,327.291Z" transform="translate(-94.043 -322.386)" fill="#d6d6d6"/>
          <path id="Path_5937" data-name="Path 5937" d="M145.459,332.709a1.861,1.861,0,0,1-.845-.2,2.29,2.29,0,0,1-.692-.529,2.457,2.457,0,0,1-.465-.776,2.6,2.6,0,0,1-.166-.929v-3.5a2.609,2.609,0,0,1,.166-.93,2.455,2.455,0,0,1,.465-.774,2.285,2.285,0,0,1,.692-.532,1.868,1.868,0,0,1,.845-.194h.441a1.424,1.424,0,0,1,.452.071v-2.872h1.7v8.736a2.6,2.6,0,0,1-.167.929,2.53,2.53,0,0,1-.458.776,2.237,2.237,0,0,1-.685.529,1.864,1.864,0,0,1-.846.2Zm.745-6.377a.419.419,0,0,0-.3-.168h-.441a.41.41,0,0,0-.309.168.654.654,0,0,0-.144.441v3.5a.649.649,0,0,0,.144.447.413.413,0,0,0,.309.161h.441a.422.422,0,0,0,.3-.161.636.636,0,0,0,.148-.447v-3.5A.64.64,0,0,0,146.2,326.333Z" transform="translate(-95.424 -321.542)" fill="#d6d6d6"/>
        </g>
      </g>
      <g id="Group_2859" data-name="Group 2859" transform="translate(204.006 16.675)">
        <path id="Path_5938" data-name="Path 5938" d="M314.044,348.238v-8.212h2.61a1.949,1.949,0,0,1,.852.191,2.173,2.173,0,0,1,.691.513,2.37,2.37,0,0,1,.459.755,2.569,2.569,0,0,1,.167.925v.142a2.454,2.454,0,0,1-.131.8,2.587,2.587,0,0,1-.357.691,2.626,2.626,0,0,1,.357.685,2.4,2.4,0,0,1,.131.793v.334a2.558,2.558,0,0,1-.167.923,2.373,2.373,0,0,1-.459.758,2.194,2.194,0,0,1-.691.512,1.949,1.949,0,0,1-.852.19Zm2.926-6.269a.426.426,0,0,0-.316-.166h-.881v1.346h.881a.431.431,0,0,0,.316-.162.616.616,0,0,0,.149-.435v-.142A.642.642,0,0,0,316.97,341.969Zm0,3.123a.425.425,0,0,0-.316-.167h-.881v1.526h.881a.432.432,0,0,0,.316-.161.62.62,0,0,0,.149-.435v-.323A.642.642,0,0,0,316.97,345.092Z" transform="translate(-314.044 -337.082)" fill="#d6d6d6"/>
        <path id="Path_5939" data-name="Path 5939" d="M323.591,348.25a1.936,1.936,0,0,1-1.007-.244,2.036,2.036,0,0,1-.667-.626,2.687,2.687,0,0,1-.376-.864,4.048,4.048,0,0,1-.12-.971,2.52,2.52,0,0,1,.161-.894,2.435,2.435,0,0,1,.454-.763,2.178,2.178,0,0,1,.691-.53,1.93,1.93,0,0,1,.864-.2h.894v-.751a.661.661,0,0,0-.137-.417.393.393,0,0,0-.315-.18h-2.014v-1.788h2.014a1.893,1.893,0,0,1,.864.2,2.261,2.261,0,0,1,.685.532,2.464,2.464,0,0,1,.448.756,2.55,2.55,0,0,1,.16.894v3.457a2.538,2.538,0,0,1-.16.893,2.481,2.481,0,0,1-.448.758,2.245,2.245,0,0,1-.685.53,1.893,1.893,0,0,1-.864.2Zm0-3.313a.394.394,0,0,0-.316.179.68.68,0,0,0-.137.429v.322a.664.664,0,0,0,.137.417.394.394,0,0,0,.316.179h.441a.394.394,0,0,0,.315-.179.664.664,0,0,0,.137-.417v-.93Z" transform="translate(-315.689 -337.082)" fill="#d6d6d6"/>
        <path id="Path_5940" data-name="Path 5940" d="M332.154,342.425a.665.665,0,0,0-.138-.417.4.4,0,0,0-.316-.178h-.441a.393.393,0,0,0-.315.178.665.665,0,0,0-.137.417v5.828H329.09v-5.828a2.517,2.517,0,0,1,.162-.894,2.465,2.465,0,0,1,.447-.756,2.257,2.257,0,0,1,.685-.531,1.919,1.919,0,0,1,.877-.2h.441a1.886,1.886,0,0,1,.864.2,2.251,2.251,0,0,1,.685.531,2.45,2.45,0,0,1,.448.756,2.534,2.534,0,0,1,.161.894v5.828h-1.7Z" transform="translate(-317.398 -337.085)" fill="#d6d6d6"/>
        <path id="Path_5941" data-name="Path 5941" d="M339.812,344.652a.7.7,0,0,0-.131-.434.376.376,0,0,0-.3-.173h-.918v3.361h-1.7V336.237h1.7v6h.918a.373.373,0,0,0,.3-.172.7.7,0,0,0,.131-.434v-2.587h1.717v2.587a2.571,2.571,0,0,1-.125.793,2.5,2.5,0,0,1-.363.709,2.647,2.647,0,0,1,.488,1.525v2.753h-1.717Z" transform="translate(-319.108 -336.237)" fill="#d6d6d6"/>
        <path id="Path_5942" data-name="Path 5942" d="M351.434,345.855l-1.323-2.253v4.636h-1.741v-8.212H350l1.43,2.837v-2.837h1.7v8.212h-1.7Z" transform="translate(-321.696 -337.082)" fill="#d6d6d6"/>
        <path id="Path_5943" data-name="Path 5943" d="M357.9,348.25a1.939,1.939,0,0,1-1.008-.244,2.051,2.051,0,0,1-.667-.626,2.7,2.7,0,0,1-.376-.864,4.05,4.05,0,0,1-.119-.971,2.537,2.537,0,0,1,.16-.894,2.451,2.451,0,0,1,.454-.763,2.187,2.187,0,0,1,.691-.53,1.93,1.93,0,0,1,.865-.2h.893v-.751a.661.661,0,0,0-.137-.417.393.393,0,0,0-.315-.18h-2.014v-1.788h2.014a1.891,1.891,0,0,1,.864.2,2.275,2.275,0,0,1,.685.532,2.462,2.462,0,0,1,.448.756,2.534,2.534,0,0,1,.161.894v3.457a2.522,2.522,0,0,1-.161.893,2.479,2.479,0,0,1-.448.758,2.258,2.258,0,0,1-.685.53,1.891,1.891,0,0,1-.864.2Zm0-3.313a.394.394,0,0,0-.315.179.675.675,0,0,0-.138.429v.322a.66.66,0,0,0,.138.417.394.394,0,0,0,.315.179h.441a.394.394,0,0,0,.315-.179.664.664,0,0,0,.137-.417v-.93Z" transform="translate(-323.337 -337.082)" fill="#d6d6d6"/>
        <path id="Path_5944" data-name="Path 5944" d="M369.815,342.425a.6.6,0,0,0-.155-.434.451.451,0,0,0-.322-.161h-.465a.45.45,0,0,0-.322.161.6.6,0,0,0-.155.434v5.828h-1.788v-5.828a.6.6,0,0,0-.155-.434.451.451,0,0,0-.322-.161h-.465a.442.442,0,0,0-.322.167.616.616,0,0,0-.155.441l-.012,5.816H363.4v-5.828a2.362,2.362,0,0,1,.18-.912,2.537,2.537,0,0,1,.482-.762,2.293,2.293,0,0,1,.715-.519,2.1,2.1,0,0,1,.888-.19h.465a2.113,2.113,0,0,1,.734.131.734.734,0,0,0,1.275,0,2.1,2.1,0,0,1,.733-.131h.465a2.091,2.091,0,0,1,.887.19,2.267,2.267,0,0,1,.715.519,2.543,2.543,0,0,1,.483.762,2.388,2.388,0,0,1,.178.912v5.828h-1.787Z" transform="translate(-325.047 -337.085)" fill="#d6d6d6"/>
        <path id="Path_5945" data-name="Path 5945" d="M377.205,345.867q0,.4.214.5a1.763,1.763,0,0,0,.679.1h1.549v1.787H378.6l-1.121-.012a1.584,1.584,0,0,1-.811-.214,2.216,2.216,0,0,1-.632-.548,2.53,2.53,0,0,1-.4-.757,2.62,2.62,0,0,1-.144-.852V342.41a2.517,2.517,0,0,1,.162-.894,2.445,2.445,0,0,1,.447-.756,2.27,2.27,0,0,1,.685-.532,1.919,1.919,0,0,1,.877-.2h.441a1.89,1.89,0,0,1,.864.2,2.261,2.261,0,0,1,.685.532,2.432,2.432,0,0,1,.448.756,2.534,2.534,0,0,1,.161.894v2.527h-3.051Zm1.21-3.874a.4.4,0,0,0-.316-.18h-.441a.389.389,0,0,0-.322.173.673.673,0,0,0-.131.423v.751h1.347v-.751A.665.665,0,0,0,378.415,341.994Z" transform="translate(-327.741 -337.082)" fill="#d6d6d6"/>
      </g>
      <g id="Group_2860" data-name="Group 2860" transform="translate(25.121 142.585)">
        <path id="Path_5946" data-name="Path 5946" d="M87.83,505.857l-1.723-2.933v6.037H83.841V498.268h2.126l1.863,3.694v-3.694h2.219v10.693H87.83Z" transform="translate(-83.841 -498.268)" fill="#d6d6d6"/>
        <path id="Path_5947" data-name="Path 5947" d="M96.251,508.976a2.527,2.527,0,0,1-1.312-.318,2.7,2.7,0,0,1-.869-.816,3.479,3.479,0,0,1-.488-1.124,5.225,5.225,0,0,1-.156-1.264,3.284,3.284,0,0,1,.21-1.164,3.2,3.2,0,0,1,.59-.994,2.891,2.891,0,0,1,.9-.691,2.519,2.519,0,0,1,1.125-.255h1.164v-.978a.872.872,0,0,0-.178-.543.515.515,0,0,0-.412-.233H94.2v-2.327h2.623a2.464,2.464,0,0,1,1.125.263,2.952,2.952,0,0,1,.892.692,3.182,3.182,0,0,1,.582.985,3.281,3.281,0,0,1,.21,1.164v4.5a3.291,3.291,0,0,1-.21,1.164,3.178,3.178,0,0,1-.582.985,2.926,2.926,0,0,1-.892.691,2.455,2.455,0,0,1-1.125.264Zm0-4.314a.514.514,0,0,0-.411.232.9.9,0,0,0-.179.56v.419a.865.865,0,0,0,.179.542.516.516,0,0,0,.411.233h.574a.517.517,0,0,0,.412-.233.87.87,0,0,0,.178-.542v-1.211Z" transform="translate(-85.978 -498.268)" fill="#d6d6d6"/>
        <path id="Path_5948" data-name="Path 5948" d="M111.76,501.391a.781.781,0,0,0-.2-.565.582.582,0,0,0-.42-.211h-.6a.583.583,0,0,0-.42.211.781.781,0,0,0-.2.565v7.59h-2.327v-7.59a.778.778,0,0,0-.2-.565.579.579,0,0,0-.419-.211h-.6a.582.582,0,0,0-.42.218.814.814,0,0,0-.2.575l-.016,7.573h-2.312v-7.59a3.084,3.084,0,0,1,.232-1.186,3.291,3.291,0,0,1,.628-.994,2.987,2.987,0,0,1,.932-.676,2.735,2.735,0,0,1,1.156-.246h.6a2.7,2.7,0,0,1,.955.17,2.816,2.816,0,0,1,.83.482,2.81,2.81,0,0,1,.831-.482,2.7,2.7,0,0,1,.954-.17h.6a2.741,2.741,0,0,1,1.157.246,2.971,2.971,0,0,1,.93.676,3.28,3.28,0,0,1,.629.994,3.1,3.1,0,0,1,.232,1.186v7.59H111.76Z" transform="translate(-88.204 -498.273)" fill="#d6d6d6"/>
        <path id="Path_5949" data-name="Path 5949" d="M121.383,505.872c0,.352.093.568.279.652a2.321,2.321,0,0,0,.885.124h2.017v2.328H123.2l-1.459-.016a2.078,2.078,0,0,1-1.055-.279,2.893,2.893,0,0,1-.822-.715,3.255,3.255,0,0,1-.528-.985,3.439,3.439,0,0,1-.187-1.109v-4.5a3.3,3.3,0,0,1,.209-1.164,3.212,3.212,0,0,1,.582-.985,2.965,2.965,0,0,1,.893-.692,2.5,2.5,0,0,1,1.141-.263h.574a2.463,2.463,0,0,1,1.124.263,2.965,2.965,0,0,1,.893.692,3.212,3.212,0,0,1,.582.985,3.3,3.3,0,0,1,.209,1.164v3.29h-3.972Zm1.575-5.044a.515.515,0,0,0-.411-.233h-.574a.507.507,0,0,0-.419.226.881.881,0,0,0-.171.55v.978h1.754v-.978A.868.868,0,0,0,122.958,500.828Z" transform="translate(-91.712 -498.268)" fill="#d6d6d6"/>
        <path id="Path_5950" data-name="Path 5950" d="M133.981,508.976v-2.328h3.383a.515.515,0,0,0,.411-.233.866.866,0,0,0,.179-.542v-.434a.861.861,0,0,0-.179-.552.519.519,0,0,0-.411-.225h-.574a2.486,2.486,0,0,1-1.141-.263,2.957,2.957,0,0,1-.892-.69,3.194,3.194,0,0,1-.582-.986,3.28,3.28,0,0,1-.209-1.164v-.186a3.324,3.324,0,0,1,.791-2.156,2.765,2.765,0,0,1,.892-.691,2.553,2.553,0,0,1,1.141-.256h2.638v2.312H136.79a.484.484,0,0,0-.435.264,1.414,1.414,0,0,0-.155.714.883.883,0,0,0,.171.55.509.509,0,0,0,.419.226h.574a2.521,2.521,0,0,1,1.125.255,2.768,2.768,0,0,1,.892.692,3.334,3.334,0,0,1,.792,2.157v.434a3.29,3.29,0,0,1-.21,1.164,3.193,3.193,0,0,1-.582.985,2.925,2.925,0,0,1-.892.691,2.458,2.458,0,0,1-1.125.264Z" transform="translate(-95.015 -498.268)" fill="#d6d6d6"/>
        <path id="Path_5951" data-name="Path 5951" d="M146.376,508.976a2.5,2.5,0,0,1-1.1-.249,3,3,0,0,1-1.505-1.652,3.326,3.326,0,0,1-.217-1.2v-7.6h2.234v7.6a.85.85,0,0,0,.186.573.532.532,0,0,0,.4.218h.574a.543.543,0,0,0,.4-.218.827.827,0,0,0,.193-.573v-7.6h2.219v7.6a3.343,3.343,0,0,1-.218,1.2,3.1,3.1,0,0,1-.6.985,2.909,2.909,0,0,1-.892.667,2.505,2.505,0,0,1-1.1.249Z" transform="translate(-97.152 -498.268)" fill="#d6d6d6"/>
        <path id="Path_5952" data-name="Path 5952" d="M155.911,500.821a.881.881,0,0,0-.17.55v7.6h-2.2v-7.6a3.4,3.4,0,0,1,.2-1.164,3.06,3.06,0,0,1,.574-.985,2.987,2.987,0,0,1,.884-.692,2.418,2.418,0,0,1,1.117-.263h2.56V500.6h-2.56A.5.5,0,0,0,155.911,500.821Z" transform="translate(-99.378 -498.268)" fill="#d6d6d6"/>
        <path id="Path_5953" data-name="Path 5953" d="M165.593,501.391a.868.868,0,0,0-.179-.542.518.518,0,0,0-.411-.234h-.574a.518.518,0,0,0-.412.234.873.873,0,0,0-.178.542v7.59H161.6v-7.59a3.288,3.288,0,0,1,.21-1.164,3.221,3.221,0,0,1,.582-.985,2.9,2.9,0,0,1,.892-.689,2.458,2.458,0,0,1,1.141-.264H165a2.428,2.428,0,0,1,1.125.264,2.906,2.906,0,0,1,.892.689,3.205,3.205,0,0,1,.582.985,3.3,3.3,0,0,1,.209,1.164v7.59h-2.219Z" transform="translate(-101.176 -498.273)" fill="#d6d6d6"/>
        <path id="Path_5954" data-name="Path 5954" d="M174.015,508.976a2.527,2.527,0,0,1-1.312-.318,2.682,2.682,0,0,1-.869-.816,3.48,3.48,0,0,1-.489-1.124,5.264,5.264,0,0,1-.155-1.264,3.285,3.285,0,0,1,.21-1.164,3.168,3.168,0,0,1,.59-.994,2.891,2.891,0,0,1,.9-.691,2.519,2.519,0,0,1,1.125-.255h1.163v-.978a.867.867,0,0,0-.178-.543.515.515,0,0,0-.412-.233h-2.623v-2.327h2.623a2.469,2.469,0,0,1,1.126.263,2.972,2.972,0,0,1,.892.692,3.2,3.2,0,0,1,.582.985,3.3,3.3,0,0,1,.209,1.164v4.5a3.307,3.307,0,0,1-.209,1.164,3.192,3.192,0,0,1-.582.985,2.945,2.945,0,0,1-.892.691,2.461,2.461,0,0,1-1.126.264Zm0-4.314a.511.511,0,0,0-.411.232.9.9,0,0,0-.179.56v.419a.865.865,0,0,0,.179.542.513.513,0,0,0,.411.233h.573a.517.517,0,0,0,.412-.233.865.865,0,0,0,.178-.542v-1.211Z" transform="translate(-103.313 -498.268)" fill="#d6d6d6"/>
        <path id="Path_5955" data-name="Path 5955" d="M189.524,501.391a.781.781,0,0,0-.2-.565.582.582,0,0,0-.419-.211H188.3a.582.582,0,0,0-.419.211.781.781,0,0,0-.2.565v7.59h-2.327v-7.59a.781.781,0,0,0-.2-.565.58.58,0,0,0-.419-.211h-.605a.58.58,0,0,0-.419.218.811.811,0,0,0-.2.575l-.016,7.573h-2.312v-7.59a3.07,3.07,0,0,1,.233-1.186,3.276,3.276,0,0,1,.628-.994,2.983,2.983,0,0,1,.931-.676,2.737,2.737,0,0,1,1.156-.246h.605a2.706,2.706,0,0,1,.955.17,2.812,2.812,0,0,1,.829.482,2.819,2.819,0,0,1,.831-.482,2.7,2.7,0,0,1,.954-.17h.605a2.737,2.737,0,0,1,1.156.246,2.983,2.983,0,0,1,.931.676,3.293,3.293,0,0,1,.629.994,3.1,3.1,0,0,1,.233,1.186v7.59h-2.328Z" transform="translate(-105.539 -498.273)" fill="#d6d6d6"/>
        <path id="Path_5956" data-name="Path 5956" d="M199.146,505.872c0,.352.093.568.279.652a2.321,2.321,0,0,0,.885.124h2.017v2.328h-1.366l-1.459-.016a2.076,2.076,0,0,1-1.055-.279,2.893,2.893,0,0,1-.822-.715,3.255,3.255,0,0,1-.528-.985,3.438,3.438,0,0,1-.187-1.109v-4.5a3.281,3.281,0,0,1,.21-1.164,3.179,3.179,0,0,1,.581-.985,2.965,2.965,0,0,1,.893-.692,2.494,2.494,0,0,1,1.141-.263h.574a2.461,2.461,0,0,1,1.124.263,2.965,2.965,0,0,1,.893.692,3.2,3.2,0,0,1,.582.985,3.3,3.3,0,0,1,.209,1.164v3.29h-3.972Zm1.574-5.044a.512.512,0,0,0-.41-.233h-.574a.507.507,0,0,0-.42.226.886.886,0,0,0-.17.55v.978H200.9v-.978A.863.863,0,0,0,200.72,500.828Z" transform="translate(-109.047 -498.268)" fill="#d6d6d6"/>
      </g>
      <g id="Group_2863" data-name="Group 2863" transform="translate(183.325 108.198)">
        <g id="Group_2861" data-name="Group 2861" transform="translate(0)">
          <path id="Path_5957" data-name="Path 5957" d="M287.43,458.211v-4.19h.87V457.3h.456a.224.224,0,0,0,.161-.081.316.316,0,0,0,.075-.221v-2.981h.87v2.993a1.292,1.292,0,0,1-.085.469,1.2,1.2,0,0,1-.237.382,1.141,1.141,0,0,1-.353.259,1,1,0,0,1-.431.093Z" transform="translate(-287.43 -454.016)" fill="#d6d6d6"/>
          <path id="Path_5958" data-name="Path 5958" d="M292.906,456.515h-.686v1.692h-.877v-2.975a1.3,1.3,0,0,1,.085-.471,1.189,1.189,0,0,1,.237-.386,1.162,1.162,0,0,1,.353-.26.95.95,0,0,1,.432-.1h.225a.95.95,0,0,1,.431.1,1.131,1.131,0,0,1,.35.26,1.21,1.21,0,0,1,.234.386,1.3,1.3,0,0,1,.085.471v2.975h-.87Zm-.075-1.508a.216.216,0,0,0-.155-.085h-.225a.211.211,0,0,0-.159.085.329.329,0,0,0-.072.225v.378h.686v-.378A.32.32,0,0,0,292.83,455.008Z" transform="translate(-288.302 -454.016)" fill="#d6d6d6"/>
          <path id="Path_5959" data-name="Path 5959" d="M295.9,458.113a1.174,1.174,0,0,1-.337-.263,1.192,1.192,0,0,1-.228-.382,1.331,1.331,0,0,1-.082-.468v-2.968h.846V457a.313.313,0,0,0,.07.218.2.2,0,0,0,.142.08H297v.912h-.688A.9.9,0,0,1,295.9,458.113Z" transform="translate(-289.175 -454.02)" fill="#d6d6d6"/>
          <path id="Path_5960" data-name="Path 5960" d="M297.972,454.016h.87v4.191h-.87Z" transform="translate(-289.78 -454.016)" fill="#d6d6d6"/>
          <path id="Path_5961" data-name="Path 5961" d="M299.364,458.207v-4.191H300.7a.95.95,0,0,1,.432.1,1.148,1.148,0,0,1,.353.263,1.254,1.254,0,0,1,.238.39,1.306,1.306,0,0,1,.085.465v1.758a1.315,1.315,0,0,1-.085.471,1.176,1.176,0,0,1-.238.386,1.2,1.2,0,0,1-.353.263.981.981,0,0,1-.432.1Zm1.494-3.2a.221.221,0,0,0-.155-.083h-.468v2.367h.468a.213.213,0,0,0,.155-.083.308.308,0,0,0,.075-.221v-1.758A.309.309,0,0,0,300.858,455.011Z" transform="translate(-290.09 -454.016)" fill="#d6d6d6"/>
          <path id="Path_5962" data-name="Path 5962" d="M289.18,467.606H288.3v-3.285h-.786v-.907h2.445v.907h-.784Z" transform="translate(-287.45 -456.111)" fill="#d6d6d6"/>
          <path id="Path_5963" data-name="Path 5963" d="M292.7,465.912h-.7V467.6h-.87v-4.19h.87V465h.7v-1.593h.87v4.19h-.87Z" transform="translate(-288.256 -456.109)" fill="#d6d6d6"/>
          <path id="Path_5964" data-name="Path 5964" d="M296.625,466.23a.32.32,0,0,0-.076-.225.217.217,0,0,0-.161-.085h-.462v1.685h-.87v-4.192h1.332a1,1,0,0,1,.435.1,1.113,1.113,0,0,1,.352.26,1.236,1.236,0,0,1,.235.386,1.313,1.313,0,0,1,.086.471v.081a1.22,1.22,0,0,1-.068.4,1.363,1.363,0,0,1-.182.35,1.336,1.336,0,0,1,.182.356,1.271,1.271,0,0,1,.068.41v1.375h-.87Zm-.076-1.825a.218.218,0,0,0-.161-.085h-.462v.688h.462a.222.222,0,0,0,.161-.08.3.3,0,0,0,.076-.218v-.081A.321.321,0,0,0,296.549,464.406Z" transform="translate(-289.13 -456.111)" fill="#d6d6d6"/>
          <path id="Path_5965" data-name="Path 5965" d="M300.084,467.606a.98.98,0,0,1-.431-.1,1.141,1.141,0,0,1-.353-.266,1.233,1.233,0,0,1-.238-.386,1.3,1.3,0,0,1-.085-.468v-2.975h.876v2.975a.323.323,0,0,0,.073.222.21.21,0,0,0,.158.082h.22a.208.208,0,0,0,.157-.082.32.32,0,0,0,.073-.222v-2.975h.876v2.975a1.281,1.281,0,0,1-.085.468,1.216,1.216,0,0,1-.237.386,1.15,1.15,0,0,1-.353.266.98.98,0,0,1-.431.1Z" transform="translate(-290.004 -456.111)" fill="#d6d6d6"/>
        </g>
        <g id="Group_2862" data-name="Group 2862" transform="translate(26.944 0.774)">
          <path id="Path_5966" data-name="Path 5966" d="M324.624,460.729a.391.391,0,0,0-.368.215,1.458,1.458,0,0,0-.159.505,3.533,3.533,0,0,0-.035.589c0,.2.007.352.007.464h3.571v2.063H322.1v-3.213a2.725,2.725,0,0,1,.193-1.024,2.781,2.781,0,0,1,.534-.858,2.461,2.461,0,0,1,.8-.589,2.341,2.341,0,0,1,.99-.214h.512a.428.428,0,0,0,.388-.242,1.3,1.3,0,0,0,.138-.645.774.774,0,0,0-.16-.485.455.455,0,0,0-.366-.207h-.512a.45.45,0,0,0-.368.235,1.47,1.47,0,0,0-.159.788H322.1v-.332a2.961,2.961,0,0,1,.186-1.038,2.881,2.881,0,0,1,.519-.88,2.658,2.658,0,0,1,.8-.615,2.217,2.217,0,0,1,1.018-.235h.512a2.189,2.189,0,0,1,1,.235,2.731,2.731,0,0,1,.8.615,2.8,2.8,0,0,1,.527.88,2.943,2.943,0,0,1,.186,1.038V458a2.8,2.8,0,0,1-.194,1.034,2.979,2.979,0,0,1-.527.871,2.441,2.441,0,0,1-.795.6,2.3,2.3,0,0,1-1,.221Z" transform="translate(-322.104 -455.012)" fill="#d6d6d6"/>
          <path id="Path_5967" data-name="Path 5967" d="M333.282,460.729a.39.39,0,0,0-.367.215,1.458,1.458,0,0,0-.159.505,3.372,3.372,0,0,0-.035.589c0,.2.006.352.006.464H336.3v2.063h-5.537v-3.213a2.725,2.725,0,0,1,.194-1.024,2.794,2.794,0,0,1,.533-.858,2.456,2.456,0,0,1,.8-.589,2.337,2.337,0,0,1,.989-.214h.513a.429.429,0,0,0,.388-.242,1.3,1.3,0,0,0,.138-.645.778.778,0,0,0-.159-.485.456.456,0,0,0-.366-.207h-.513a.449.449,0,0,0-.367.235,1.463,1.463,0,0,0-.159.788h-1.994v-.332a2.943,2.943,0,0,1,.186-1.038,2.881,2.881,0,0,1,.519-.88,2.639,2.639,0,0,1,.8-.615,2.212,2.212,0,0,1,1.017-.235h.513a2.186,2.186,0,0,1,1,.235,2.724,2.724,0,0,1,.8.615,2.792,2.792,0,0,1,.526.88,2.925,2.925,0,0,1,.187,1.038V458a2.818,2.818,0,0,1-.193,1.034,3,3,0,0,1-.527.871,2.444,2.444,0,0,1-.8.6,2.3,2.3,0,0,1-1,.221Z" transform="translate(-324.034 -455.012)" fill="#d6d6d6"/>
          <path id="Path_5968" data-name="Path 5968" d="M338.69,464.569l2.88-9.54h1.62l-2.88,9.54Z" transform="translate(-325.801 -455.016)" fill="#d6d6d6"/>
          <path id="Path_5969" data-name="Path 5969" d="M347.445,464.569a2.247,2.247,0,0,1-.983-.221,2.685,2.685,0,0,1-1.344-1.476,2.972,2.972,0,0,1-.193-1.072v-4a2.973,2.973,0,0,1,.193-1.072,2.724,2.724,0,0,1,.541-.88,2.687,2.687,0,0,1,.8-.6,2.236,2.236,0,0,1,.983-.221h.512a2.236,2.236,0,0,1,.983.221,2.622,2.622,0,0,1,.8.6,2.774,2.774,0,0,1,.532.88,2.974,2.974,0,0,1,.194,1.072v4a2.973,2.973,0,0,1-.194,1.072,2.764,2.764,0,0,1-.532.88,2.624,2.624,0,0,1-.8.6,2.247,2.247,0,0,1-.983.221Zm-.512-3.78,1.3-3.2q0-.317-.166-.409a1.05,1.05,0,0,0-.484-.089.6.6,0,0,0-.485.2.771.771,0,0,0-.166.506Zm.36,1.508c0,.047.033.082.1.106a1.548,1.548,0,0,0,.208.054,1.78,1.78,0,0,0,.221.027l.139.007a.461.461,0,0,0,.367-.2.759.759,0,0,0,.159-.49v-2.409Z" transform="translate(-327.192 -455.016)" fill="#d6d6d6"/>
          <path id="Path_5970" data-name="Path 5970" d="M353.834,455.029h1.979v9.54h-1.979Z" transform="translate(-329.177 -455.016)" fill="#d6d6d6"/>
        </g>
        <path id="Path_5971" data-name="Path 5971" d="M315.1,461.115l-7.048-4.069v8.139l7.048-4.07-7.048-4.069v8.139Z" transform="translate(-292.027 -454.691)" fill="#d6d6d6"/>
      </g>
      <g id="Group_2866" data-name="Group 2866" transform="translate(225.812 139.328)">
        <path id="Rectangle_1680" data-name="Rectangle 1680" d="M2.72,0H32.961a2.721,2.721,0,0,1,2.721,2.721V17.894a2.722,2.722,0,0,1-2.722,2.722H2.721A2.721,2.721,0,0,1,0,17.895V2.72A2.72,2.72,0,0,1,2.72,0Z" fill="#fff"/>
        <g id="Group_2865" data-name="Group 2865" transform="translate(5.741 6.74)">
          <g id="Group_2864" data-name="Group 2864" transform="translate(0 0.023)">
            <path id="Path_5972" data-name="Path 5972" d="M361.577,503.06l-2.422,7.331h2.239l2.391-7.331" transform="translate(-351.648 -502.843)" fill="#335999"/>
            <path id="Path_5973" data-name="Path 5973" d="M349.494,502.78s1.448.37,1.482,1.318l.305,6.011h1.859l4.826-7.329h-1.823l-2.67,4.146V502.78Z" transform="translate(-349.494 -502.78)" fill="#335999"/>
            <path id="Path_5974" data-name="Path 5974" d="M378.948,503.06h-2.1l-4.389,7.331h1.958l.525-1.048h2.306l.126,1.048h2Zm-3.4,5.237,1.478-2.766.2,2.766Z" transform="translate(-354.613 -502.842)" fill="#335999"/>
            <path id="Path_5975" data-name="Path 5975" d="M368.407,504.411a2.664,2.664,0,0,1,2.241.449l.715-1.162s-2.47-1.649-4.564,0a1.964,1.964,0,0,0,.005,3.279h0l1.305,1.006s.061.074.115.133a.673.673,0,0,1-.075.654.4.4,0,0,1-.037.035c-1.086.959-3.07-.345-3.07-.345l-.441,1.358c3.011,1.38,4.691.051,4.691.051,2.132-1.9.356-3.272.069-3.5h0l-1.323-1.138a.205.205,0,0,1-.075-.176A.926.926,0,0,1,368.407,504.411Z" transform="translate(-352.862 -502.821)" fill="#335999"/>
          </g>
          <path id="Path_5976" data-name="Path 5976" d="M353.483,505.8a19.36,19.36,0,0,0-1.459-1.408,8.541,8.541,0,0,0-2.509-1.645h3.972Z" transform="translate(-349.498 -502.75)" fill="#fbb03b"/>
        </g>
      </g>
    </g>
  </g>
  <g id="Group_2888" data-name="Group 2888" transform="translate(184.518 36.451)">
    <path id="Path_6218" data-name="Path 6218" d="M291.356,373.915c-.194-.078-.1.3-.288.342s-.426.158-.271.207a.766.766,0,0,0,.54-.094C291.376,374.3,291.415,373.937,291.356,373.915Z" transform="translate(-289.363 -364.41)" fill="#d6d6d6"/>
    <path id="Path_6219" data-name="Path 6219" d="M289.472,374.559c-.232-.02-.463,0-.5.092s.213.161.368.161.463-.114.4-.135Z" transform="translate(-288.966 -364.555)" fill="#d6d6d6"/>
    <path id="Path_6220" data-name="Path 6220" d="M291.253,371.987c-.077.031.135.182.212.182s.214-.249.059-.249S291.447,371.919,291.253,371.987Z" transform="translate(-289.472 -363.968)" fill="#d6d6d6"/>
    <path id="Path_6221" data-name="Path 6221" d="M291.891,368.988l.117.115a.865.865,0,0,0,.481.182c.176.023.176-.114.04-.252a.378.378,0,0,0-.291-.136c-.115-.022-.135-.161-.444-.161s-.269-.181-.309-.273.271-.047.347-.023.386-.274.386-.274.5-.227.562-.182.349-.045.483-.092.211-.3.211-.3a.806.806,0,0,1,.272.187c.095.112.309,0,.368,0a1.81,1.81,0,0,1,.347.225s.387,0,.54-.022a2.474,2.474,0,0,1,.718.022,7.55,7.55,0,0,0,.927.092,1.885,1.885,0,0,0,.714.091.482.482,0,0,1,.426.068.334.334,0,0,1,.213.159c.1.139.191.024.328-.068s.115-.183.115-.183l.117-.023c.115-.024.194.046.521.068s.252-.068.483-.159.465.114.543.092.173-.2.232-.116.155.275.155.275.251-.228.329-.228a2.142,2.142,0,0,0,.444.068,1.466,1.466,0,0,1,.772.09c.116.115.4.092.56.207s.31-.092.232-.138a2.642,2.642,0,0,1-.27-.228s-.291-.41-.329-.481-.1-.067-.173.113-.367.186-.7.209-.115-.186-.482-.209-.232-.18-.116-.18.193-.276.232-.434.173-.137.444-.113a4.6,4.6,0,0,1,.62,0c.27.044.252-.138.521-.117s.135.068.29.183.253.091.464.2.136.117.233.138a3.82,3.82,0,0,0,.618-.07c.192-.023.347-.044.444.092s.078.3.212.413-.078-.413-.078-.593.273-.024.446-.024.368-.07.406.024-.252.226-.077.433.29.274.443.274.5.045.349.295-.56.23-.7.23-.365.092-.309.228.368.067.58.067a5.251,5.251,0,0,0,1.043,0c.174-.067.135-.343-.058-.41s-.04-.205.155-.159.385-.07.347,0,.02.227.02.41.057.3.193.251a1.4,1.4,0,0,1,.29-.092c.137-.023.058-.41-.019-.615a.919.919,0,0,1-.115-.437c.018-.113.232-.134.348-.021a3.136,3.136,0,0,1,.27.342.994.994,0,0,1,.309.343c.077.184.1.138.253.023s.193-.091.328.023.039.343.039.412.193,0,.232-.136.192-.137.289-.183.1-.32.1-.32a1.585,1.585,0,0,0-.5-.046.571.571,0,0,1-.522-.183c-.192-.159-.077-.274-.174-.433s.31-.251.562-.389.5-.044.443.3-.1.294.2.229-.02-.368.114-.389a2.625,2.625,0,0,1,.6-.068c.116.024.752-.07.908-.07a1.439,1.439,0,0,1,.579.273c.174.116.638.274.753.344a10.087,10.087,0,0,0,1.007.229c.076.022.076.3.153.525s.291.067.367.067a.9.9,0,0,1,.427.274c.076.114.655.205.655.205s-.134.206-.193.273a3,3,0,0,1-.308.207c-.115.092-.253-.022-.407-.137s-.424-.183-.483-.138-.019.138.019.205.289.161.446.3.114.273.134.457-.155-.07-.348-.115-.212.183-.212.183-.251-.022-.368-.022,0,0-.211-.183-.176.113-.292.023-.232-.227-.289-.183-.252-.206-.368-.183-.579-.069-.695-.023-.212.047-.311.092-.134-.319-.077-.432.194-.138.445-.07.27,0,.329-.115a.555.555,0,0,1,.388-.317c.27-.094-.021-.16-.1-.208s-.174-.138-.232,0a1.459,1.459,0,0,1-.193.3s-.155,0-.367-.022-.057-.115.039-.162.211-.318.116-.388a.284.284,0,0,0-.31-.068c-.173.046-.058-.159-.173-.227s-.079.045-.079.135-.172.069-.172.069a.974.974,0,0,0-.368,0c-.1.046-.271.138-.212.207s.25.067.308.272-.25.252-.308.274-.291.115-.291.115a1.812,1.812,0,0,0-.424-.068c-.2,0-.252.022-.214.113s.137.046.194.046.058.116.232.068.134-.113.288.07.31.159.562.319-.04.344-.174.344-.136-.138-.212-.274-.387.021-.387.021a1.084,1.084,0,0,1-.387.159c-.135,0-.232-.022-.057-.18s-.214-.183-.214-.411-.076.228-.076.34-.154.023-.483.071-.271.18-.695.5-.524.389-.484.686.135.2.309.25.116.389.251.364.234-.137.5.025a1.937,1.937,0,0,0,.735.274c.328.069.541.183.714.138s.291.022.291.182.114.183.095.389.213-.183.213-.183.1.344.019.388.019.253.116.229.234.069.349-.045-.058-.455-.058-.594-.117-.2-.176-.343.155-.159.233-.022.213.022.347-.092a.459.459,0,0,0,.136-.319,1.724,1.724,0,0,0-.406-.456c-.175-.093-.1-.117.076-.16s0-.117.039-.366.039-.41.137-.41a4.941,4.941,0,0,1,.734-.047c.289.023.425.275.619.3s.5.07.56.183-.215.137-.079.32a.525.525,0,0,0,.29.228c.136.07.291.023.465-.249s.251-.3.308-.253.427.547.523.663a1.651,1.651,0,0,1,.309.479c.019.114.291.114.368.114a.846.846,0,0,1,.4.389c.04.138.117.183.368.25s0,.32-.057.457-.1.184-.174.341,0,0,.1.068.134.161.291.117a.2.2,0,0,1,.29.138c.057.137.134.251.192.365s0,.295-.078.183-.329-.048-.329-.048-.116.137-.153.07a.2.2,0,0,0-.252-.113,2.872,2.872,0,0,1-.426.023c-.155.02-.213-.093-.117-.184s.117-.433.311-.57.136-.343,0-.343-.194.205-.27.251a1.267,1.267,0,0,0-.368.158c-.138.115-.463.071-.329.115s-.193.23-.309.23-.077-.3-.077-.411-.155.066-.155.066-.31-.2-.424-.066-.292.205-.427.343a5.362,5.362,0,0,1-.443.364,1.811,1.811,0,0,1,.346-.137,1.135,1.135,0,0,0,.407-.159c.193-.115.386-.159.521.045a.212.212,0,0,1-.057.318.645.645,0,0,0,.153.208c.078.045.1-.048.233-.138s.078.183.116.274.173.092.25-.023.136-.2.194-.138a1.583,1.583,0,0,1,.173.389c.058.159-.4.207-.483.227s-.444.116-.5.138-.252.228-.406.228-.135-.274-.155-.434-.212.024-.232.089-.193.048-.329.071-.368.183-.368.364.173.276.117.368a.72.72,0,0,1-.542.113c-.134-.046-.328.067-.269.159s.019.23-.117.2-.155.139-.1.254-.176.341-.232.25-.173-.137-.173,0a.746.746,0,0,0,.155.434c.117.184-.253.3-.386.434a4.989,4.989,0,0,1-.793.683.355.355,0,0,0-.095.5,4.314,4.314,0,0,1,.269.754c.059.16-.019.615-.193.594s-.076-.3-.252-.365-.271-.479-.309-.755-.078-.113-.193-.023-.232-.181-.291-.25-.386.046-.619.025-.308.113-.308.181-.04.275-.253.136a.618.618,0,0,0-.463-.136c-.211,0-.406-.024-.445.068a.918.918,0,0,1-.386.344c-.134.044-.385.274-.27.32s.116.364.039.546a1.879,1.879,0,0,0-.019.822,1.269,1.269,0,0,0,.482.73c.213.205.291.273.5.092s.288-.068.347-.047.213-.115.155-.318a.267.267,0,0,1,.252-.368c.175.024.425-.068.56-.046s.211.459,0,.64-.1.456-.135.661-.212.253,0,.253.155.046.29.067.27-.135.406-.159.482.341.424.525a2.425,2.425,0,0,0-.1.8.68.68,0,0,0,.135.409c.04.091.193.3.369.206a1.238,1.238,0,0,0,.4-.252c.059-.091.424.162.387.231s.134.136.252.066.173-.18.289-.364a.926.926,0,0,1,.407-.367c.095-.022.328-.3.483-.25s-.06.274-.078.412,0,.524.078.548.039-.276.134-.483a.547.547,0,0,1,.386-.319c.1,0,.174.48.311.342s.4-.112.463.023a.807.807,0,0,0,.115.207.321.321,0,0,0,.1-.207c0-.111.31-.228.5-.092s.115.186.213.208.192-.3.249-.319,0,.364-.135.568.117.138.117.138l.058.07c.057.068.251-.07.327.068s.214.182.33.432.288.183.521.136a.9.9,0,0,1,.754.436c.23.3.193.526.347.526s.193.249.193.341-.347.3-.54.343-.193.274.116.205.174-.205.366-.273.389.09.214.363-.523.3-.214.346.138-.047.311-.322.155-.181.27-.181a.891.891,0,0,1,.465.158c.1.093.347.23.5.346a.486.486,0,0,0,.463.019c.115-.044.445.138.561.319s.406.208.539.276a.859.859,0,0,1,.37.571,3.746,3.746,0,0,1-.232.822,2.851,2.851,0,0,1-.62.8.655.655,0,0,0-.095.727c.018.137-.194.641-.137.755s-.078.364-.194.525a5.086,5.086,0,0,0-.269.594c-.078.137-.33.092-.559.161a1.725,1.725,0,0,0-.351.136,6.317,6.317,0,0,0-.636.412c-.232.182.078.5-.041.754s-.23.228-.347.524-.173.046-.27.114a.643.643,0,0,0-.173.43c-.02.187-.214.369-.464.642s-.406.229-.678.137-.232-.867-.27-.754a1.524,1.524,0,0,0,.021.6,1.467,1.467,0,0,0,.249.388c.1.066.078.183,0,.3s-.289.526-.365.549a2.266,2.266,0,0,1-.793.044c-.116-.067-.173.162-.154.3s.116.3-.1.25-.5-.2-.5-.092.058.364.174.364.232-.092.175.069a1.073,1.073,0,0,1-.291.368,3.756,3.756,0,0,1-.368.455c-.194.159-.194.249-.155.321s.329.021.386.067-.057.364-.132.434-.409.388-.543.479-.136.366-.1.5a1.364,1.364,0,0,0,.523.549c.173.066.541.043.5.113s-.465.134-.521.158a2.064,2.064,0,0,1-.522.114c-.155,0-.444-.18-.5-.18s.038-.092.232-.274-.078-.39-.116-.137-.117.319-.214.319-.213-.159-.27-.23-.309-.134-.27-.41-.117-.251-.233-.363.155-.208.117-.323-.212-.047-.232-.206.155-.389.174-.455-.118-.207-.135-.32.077-.228.213-.41a1.268,1.268,0,0,0,.232-.479,3.975,3.975,0,0,1-.1-.5c0-.18.1-.25.135-.5s-.135-.157-.135-.365.193-.138.154-.342.1-.342.155-.48.117-.364.193-.526-.076-.521-.076-.591.25-.159.135-.3.038-.252.155-.368-.02-.43.037-.842.117-1.117.117-1.187a1.165,1.165,0,0,0-.075-.525.883.883,0,0,0-.35-.389c-.136-.07-.309-.272-.406-.3s-.561-.23-.561-.549-.329-.572-.366-.8-.328-.732-.347-.96-.426-.3-.483-.548.192-.431.231-.594-.136-.5-.154-.615.29-.434.406-.5.212-.363.288-.363.059-.254.138-.5a.844.844,0,0,0-.1-.638c-.057-.047-.115-.341-.213-.434s-.289-.046-.289-.046a.329.329,0,0,1-.136.32c-.172.113-.211-.023-.27-.092s-.272-.089-.368-.2a1.662,1.662,0,0,0-.367-.342c-.116-.071-.29-.138-.271-.416s-.251-.43-.329-.476-.232-.162-.328-.092-.272-.135-.406-.114-.406-.274-.5-.389-.174-.272-.349-.272-.193.068-.309.229-.291-.117-.348-.183-.212-.092-.426-.092-.366-.342-.442-.386-.62-.344-.755-.435-.27-.434-.212-.525-.1-.389-.1-.389-.272-.365-.368-.365-.406-.639-.579-.821a4.148,4.148,0,0,1-.659-.8c-.075-.205-.094-.525-.288-.365s-.04.319.153.5.155.368.425.618.155.5.271.615.522.389.347.571-.347-.228-.424-.251-.252-.068-.232-.205-.155-.252-.289-.455-.2-.093-.368-.093-.02-.251.076-.364-.1-.276-.212-.32-.271-.571-.426-.89-.27-.479-.444-.458-.251-.228-.368-.322-.289-.524-.483-.752a1.575,1.575,0,0,1-.348-.912c.019-.253.077-.891.077-1.051s-.1-.547-.1-.615a.294.294,0,0,0-.174-.207c-.076-.022-.289-.341-.462-.341a.3.3,0,0,1-.233-.389.43.43,0,0,0-.25-.434c-.1,0-.252-.3-.31-.457s-.212-.159-.174-.069-.019.254.078.3.174.409.1.455-.252-.139-.445-.252-.116-.57-.116-.685-.27-.229-.385-.229-.232.024-.252-.273a.566.566,0,0,0-.484-.455c-.114,0-.734-.3-.927-.3s-.522-.2-.638-.114-.329-.162-.443-.162-.116.094-.33.252-.289.069-.406.186-.406.226-.308-.048.1-.318-.058-.25a.385.385,0,0,0-.193.364c0,.113-.272.3-.272.3a1.608,1.608,0,0,0,.348,0c.1-.022.019.252-.076.322s-.233.25-.388.205-.174-.205-.269-.228-.31.162-.66.365-.288.046-.424.114a4.157,4.157,0,0,1-.791.3c-.176.023-.137-.25-.04-.25a2.137,2.137,0,0,0,.56-.275c.1-.068.521-.25.637-.319s.309-.181.233-.319-.329.068-.329.068-.193-.2-.251-.253-.175.184-.175.184a.236.236,0,0,1-.193-.3c.058-.252-.136-.252-.176-.138s-.365.3-.385.183-.31-.344-.388-.526.078-.205.253-.365a.822.822,0,0,1,.636-.183c.215.023.35-.274.273-.3a.311.311,0,0,0-.329.067c-.117.117-.406.092-.406.092a1.27,1.27,0,0,1-.6-.137,1.069,1.069,0,0,1-.27-.343,2.265,2.265,0,0,1,.619-.182Zm17.7,6.8c.194.025.194-.3.174-.388s-.019-.48.057-.548.175-.273.387-.3a.309.309,0,0,1,.329.365c-.02.206.038.411.116.411s.309-.161.232-.3.058-.592.058-.431a.251.251,0,0,0,.253.252c.1-.023-.1-.434-.233-.458a1.51,1.51,0,0,0-.462,0c-.06.025-.388-.113-.542-.089a.575.575,0,0,0-.464.274,2.551,2.551,0,0,0-.019.66C309.46,375.381,309.421,375.767,309.595,375.792Zm1.082,0c.044.1.252.023.368-.113s.368-.183.445-.3.135-.091.328-.183.348-.113.27-.227-.483,0-.54-.047-.464.5-.464.5-.349.157-.368.227S310.621,375.655,310.677,375.792Zm-2.01-1.759c0,.124.193.138.31.068a1.683,1.683,0,0,1,.368-.135c.076-.024.038.114.211.114s.388.067.446.046.233-.3.1-.321a1.021,1.021,0,0,1-.464-.319c-.117-.137-.388.182-.638.3S308.667,373.852,308.667,374.034Zm-7.924-.753c-.157-.063.058.273.154.341s.291.071.31.183.076.389.174.367.1-.275.02-.367a1.886,1.886,0,0,0-.427-.364C300.918,373.441,300.8,373.3,300.743,373.281Z" transform="translate(-289.433 -362.84)" fill="#d6d6d6"/>
    <path id="Path_6222" data-name="Path 6222" d="M315.806,371.066c-.054.065.231.165.284.075S315.935,370.9,315.806,371.066Z" transform="translate(-294.948 -363.761)" fill="#d6d6d6"/>
    <path id="Path_6223" data-name="Path 6223" d="M316.743,371.26c-.2.069-.012.242.115.183S316.925,371.2,316.743,371.26Z" transform="translate(-295.138 -363.818)" fill="#d6d6d6"/>
    <path id="Path_6224" data-name="Path 6224" d="M304.4,366.331c-.027.091.115.089.283.089a1.7,1.7,0,0,0,.515-.044c.078-.045.465-.153.451-.014s.154.349.245.319.27-.228.361-.152.1.257.194.3a.752.752,0,0,0,.45,0,1.446,1.446,0,0,1,.58-.017c.142.031.555.124.592.031s.155-.1.169-.2.075-.38.075-.38-.075-.167-.207-.09-.167.123-.283.09-.117-.273-.323-.228-.243.183-.309.242a.3.3,0,0,1-.257.08c-.05-.031-.347-.23-.347-.23s-.62-.031-.643-.121-.129-.244-.413-.214-.775.229-.851.229.09.182-.012.182S304.439,366.194,304.4,366.331Z" transform="translate(-292.405 -362.602)" fill="#d6d6d6"/>
    <path id="Path_6225" data-name="Path 6225" d="M307.19,365.606c-.15.06-.118.228-.014.228s.361-.106.438-.03.271.016.258-.061.076-.382-.078-.395S307.421,365.516,307.19,365.606Z" transform="translate(-293.005 -362.503)" fill="#d6d6d6"/>
    <path id="Path_6226" data-name="Path 6226" d="M309.455,365.37c-.019.112.1.2.259.2s.489-.09.514-.016-.013.138.168.168a2.594,2.594,0,0,0,.361.062c.1,0,.064-.2-.026-.337s-.065-.12-.3-.2a1.573,1.573,0,0,0-.618-.06C309.662,365.2,309.5,365.157,309.455,365.37Z" transform="translate(-293.533 -362.466)" fill="#d6d6d6"/>
    <path id="Path_6227" data-name="Path 6227" d="M309.774,366.308c-.1.1,0,.409-.039.44s.013.168.116.138.154-.319.232-.319.476-.1.541.061.064.089.245.1.323-.212.336-.288-.091-.23-.336-.2S309.877,366.2,309.774,366.308Z" transform="translate(-293.593 -362.702)" fill="#d6d6d6"/>
    <path id="Path_6228" data-name="Path 6228" d="M310.387,367.339a.191.191,0,0,0,.106.305c.14.016.385-.106.411-.014s.117.5.348.365.218-.26.283-.275-.013-.35-.116-.425a.773.773,0,0,0-.528.017C310.8,367.357,310.53,367.234,310.387,367.339Z" transform="translate(-293.731 -362.928)" fill="#d6d6d6"/>
    <path id="Path_6229" data-name="Path 6229" d="M312.275,367.438a.261.261,0,0,0,.284.092c.166-.03.412-.063.527-.077s.143-.242.014-.258-.232-.152-.347-.107S312.236,367.331,312.275,367.438Z" transform="translate(-294.161 -362.889)" fill="#d6d6d6"/>
    <path id="Path_6230" data-name="Path 6230" d="M312.225,366.687c-.057.159.516.244.451.063S312.289,366.506,312.225,366.687Z" transform="translate(-294.15 -362.777)" fill="#d6d6d6"/>
    <path id="Path_6231" data-name="Path 6231" d="M312.226,365.672c-.163-.044-.438-.1-.438-.152s-.075.214.065.291.374.213.541.29.49.09.594.242a1.161,1.161,0,0,0,.451.276l.414.044a1.747,1.747,0,0,1,.578-.044,7.849,7.849,0,0,0,.981.061c.243-.017.283-.109.308-.167s-.45-.183-.566-.17-.774.016-.967,0a4.417,4.417,0,0,0-.592,0c-.155.016-.27-.123-.386-.2a2.3,2.3,0,0,0-.528-.35A3.585,3.585,0,0,1,312.226,365.672Z" transform="translate(-294.049 -362.54)" fill="#d6d6d6"/>
    <path id="Path_6232" data-name="Path 6232" d="M333.136,369.783c-.052.1-.155.107-.052.321s.181.335.27.319.4-.03.439.092a.245.245,0,0,0,.361.152c.22-.076.4-.121.451-.213s.4-.1.4-.1.286-.26.181-.366a1,1,0,0,0-.463-.2c-.117-.014-.232.107-.49.107s-.426.123-.527,0S333.175,369.71,333.136,369.783Z" transform="translate(-298.791 -363.484)" fill="#d6d6d6"/>
    <path id="Path_6233" data-name="Path 6233" d="M319.021,364.972c.142.123.225.046.4.091s.316.383.411.426a.234.234,0,0,0,.283-.09,2.282,2.282,0,0,0,.141-.411s0,.3.141.364.495-.045.588-.03a3.8,3.8,0,0,1,.8.2c.155.092.531.152.635.35s.12.884.178.96.259-.246.307-.319.294-.032.377.074.271.367.258.472-.047.273-.117.212-.19-.044-.141-.166.07-.381-.025-.381h-.175s-.177-.06-.294.168-.025.456.057.456.272,0,.272.06-.2.244-.19.35a2.486,2.486,0,0,0,.214.549c.045.076.293.152.363.168s-.163.03-.106.137.155.364.282.425a1.7,1.7,0,0,1,.543.458c.046.12.329-.093.389-.106s.047.318.212.333.225-.03.365-.167.106-.319.118-.455,0-.245.153-.2.235-.03.223-.183-.14-.334.1-.379.38-.245.532-.245.577.078.626,0,.245-.425.375-.441.472-.046.776-.106.637-.288.744-.275.366.017.282-.075-.2-.3-.377-.3-.012-.338.036-.338.282.049.272.2.069.35.306.29a.233.233,0,0,0,.153-.352,2.29,2.29,0,0,1-.131-.319c-.046-.109-.034-.245.213-.276s.591.124.575-.12a1.486,1.486,0,0,1,.072-.64c.071-.138.224-.227.142-.274s-.189.061-.272-.167a.458.458,0,0,1,.164-.486c.1-.092.591-.685.864-.778s.457-.441.268-.517-.565-.213-.811.031-.389.472-.672.395-.327-.48-.489-.685c-.229-.3-.089-.9-.337-.849l-.246.044a1.3,1.3,0,0,0-.468-.015c-.237.059-.389.226-.524.19a.887.887,0,0,0-.568.109,1.97,1.97,0,0,1-1.125-.07,2.9,2.9,0,0,0,.768,0c.281-.047.751-.162.983-.207s.044-.153-.037-.163c-.3-.041-.751-.185-1.107-.205-.281-.016-.462.084-.744.092a1.943,1.943,0,0,0-1.065.19,2.268,2.268,0,0,1-.59.234c-.142.182-.271.639-.4.515s-.153-.426-.319-.3-.011.427-.154.638a.575.575,0,0,1-.659.107c-.117-.077-.235-.136-.706-.107s-.99.214-.884.4-.211.291-.293.2-.459.106-.437.287-.059.4-.258.351a.284.284,0,0,0-.353.256c-.012.155-.461.262-.495.262S318.809,364.79,319.021,364.972Z" transform="translate(-295.655 -361.687)" fill="#d6d6d6"/>
    <path id="Path_6234" data-name="Path 6234" d="M315.634,384.891c-.019.226.173.156.407.156s.636-.043.714.07a4.727,4.727,0,0,0,.521.388c.1.091.4.116.427.022s-.214-.342-.349-.319a.984.984,0,0,1-.58-.316.805.805,0,0,0-.562-.162A3.839,3.839,0,0,0,315.634,384.891Z" transform="translate(-294.91 -366.823)" fill="#d6d6d6"/>
    <path id="Path_6235" data-name="Path 6235" d="M317.416,384.111c-.176.024-.136.274.078.228S317.592,384.087,317.416,384.111Z" transform="translate(-295.283 -366.685)" fill="#d6d6d6"/>
    <path id="Path_6236" data-name="Path 6236" d="M317.54,386.543c-.176.04-.134.448.079.373S317.716,386.51,317.54,386.543Z" transform="translate(-295.311 -367.227)" fill="#d6d6d6"/>
    <path id="Path_6237" data-name="Path 6237" d="M320.825,386.223c-.177.036-.135.444.077.368S321,386.187,320.825,386.223Z" transform="translate(-296.043 -367.156)" fill="#d6d6d6"/>
    <path id="Path_6238" data-name="Path 6238" d="M318.594,386.227a2.145,2.145,0,0,0,.347.045c.137,0,.213.092.329.163s.329-.093.406-.093.175.274.194-.023a.482.482,0,0,0-.386-.479.908.908,0,0,0-.445.025C318.923,385.884,318.594,386.227,318.594,386.227Z" transform="translate(-295.571 -367.066)" fill="#d6d6d6"/>
    <path id="Path_6239" data-name="Path 6239" d="M338.487,380.392c.075-.047.387-.16.56-.249a4.859,4.859,0,0,1,.812-.32,7.009,7.009,0,0,0,1.177-.047c.137-.068.485-.182.638.32s0,.319-.153.411.057.3.134.3.349.3.483.3a1.8,1.8,0,0,1,.466.159s.326.3.5.3.308.162.5-.07.444-.5.638-.454.406.227.657.227.715-.046.791.068-.521.5-.483.594.117.069.311-.2.483-.274.715-.344.349.365.388.5.211.39.347.686.271.706.424,1.027a9.394,9.394,0,0,0,.407,1,3.476,3.476,0,0,1,.386.824,1.216,1.216,0,0,0,.406.57,2.015,2.015,0,0,1,.427.684c.019.137-.116.434.191.458a1.3,1.3,0,0,0,.679-.205c.094-.047.849-.39.945-.253s-.134.73-.155.892-.579.936-.6,1.14a.982.982,0,0,1-.558.619c-.214.043-.659.682-.815.887s-.4.661-.521.707-.155.527-.1.619.02.64.192.821.235.318.157.481.039.522,0,.821a2.011,2.011,0,0,1-.329.776c-.078.092-.561.253-.716.479s-.289.434-.249.548a3.905,3.905,0,0,1,.172.823c-.019.136-.386.319-.54.411s-.078.272-.039.455-.27.483-.406.642a8.034,8.034,0,0,1-.752.91,1.2,1.2,0,0,1-.794.346,1.494,1.494,0,0,0-.829.112c-.1.116-.233.092-.426-.02s-.214-.276-.232-.528a1.651,1.651,0,0,0-.078-.409,1.268,1.268,0,0,0-.232-.57,2.953,2.953,0,0,1-.329-.526c-.1-.139-.039-.434-.057-.686a2.362,2.362,0,0,0-.233-.8c-.1-.16-.29-.594-.367-.753a2,2,0,0,1-.155-.936,1.162,1.162,0,0,1,.445-.846c.153-.138.02-.318-.116-.6s.019-.727-.1-.888a6.555,6.555,0,0,0-.714-1.142c-.214-.136-.235-.181-.117-.5s0-.639.193-.847.1-.341-.116-.48-.136-.2-.309-.043-.407.248-.54.09-.1-.412-.35-.594-.579.068-.676.114a2.257,2.257,0,0,1-.638.3,4,4,0,0,1-.734-.026c-.27,0-.5.026-.542.184s-.1.252-.269.091-.523-.525-.523-.525a2.944,2.944,0,0,1-.58-.73,1.2,1.2,0,0,0-.636-.661c-.368-.207-.155-.434-.194-.664s-.232-.32-.135-.343.076-.181.289-.5a1.006,1.006,0,0,0,.04-.847c-.04-.182-.234-.456-.04-.753s.385-.935.54-1.117a3.35,3.35,0,0,1,.756-.552c.211-.113.076-.41.192-.75s.291-.5.35-.5.271-.238.5-.389C338,380.3,338.409,380.437,338.487,380.392Zm8.444,9.384c-.051-.1-.385-.068-.443.047s-.117.637.058.684S347.03,389.961,346.931,389.776Z" transform="translate(-299.267 -365.705)" fill="#d6d6d6"/>
    <path id="Path_6240" data-name="Path 6240" d="M354.437,397c-.243-.081-.27.3-.464.551s-.4.458-.483.434-.5.158-.366.5a.9.9,0,0,1-.023.844c-.133.16.117.619.08.868s.058.411.33.411.367-.113.483-.411.134-.592.249-.843.211-.778.271-.915a2.394,2.394,0,0,0,.155-.822C354.651,397.372,354.572,397.051,354.437,397Z" transform="translate(-303.254 -369.557)" fill="#d6d6d6"/>
    <path id="Path_6241" data-name="Path 6241" d="M363.821,389.455c-.125.067-.233.846,0,.936s.369-.364.289-.479S364,389.365,363.821,389.455Z" transform="translate(-305.622 -367.874)" fill="#d6d6d6"/>
    <path id="Path_6242" data-name="Path 6242" d="M342.858,378.5c-.18,0-.27.342-.155.455s.233.092.33-.068A.293.293,0,0,0,342.858,378.5Z" transform="translate(-300.934 -365.435)" fill="#d6d6d6"/>
    <path id="Path_6243" data-name="Path 6243" d="M341.028,378.934c-.049.085.153.114.192.023S341.162,378.682,341.028,378.934Z" transform="translate(-300.57 -365.503)" fill="#d6d6d6"/>
    <path id="Path_6244" data-name="Path 6244" d="M343.983,379.463c-.072.049.114.2.213.249s.173.183.25.207.328,0,.252-.228a.3.3,0,0,0-.308-.228C344.331,379.463,344.079,379.393,343.983,379.463Z" transform="translate(-301.227 -365.643)" fill="#d6d6d6"/>
    <path id="Path_6245" data-name="Path 6245" d="M337.881,373.532c-.175.035-.193.252-.31.252s-.251.047-.212.207.115.274,0,.34.019.344.175.366.329-.113.462-.182a.51.51,0,0,0,.329-.41.8.8,0,0,0-.113-.479A.35.35,0,0,0,337.881,373.532Z" transform="translate(-299.744 -364.325)" fill="#d6d6d6"/>
    <path id="Path_6246" data-name="Path 6246" d="M338.289,372.59c-.157.059-.1.294-.021.412a1.261,1.261,0,0,0,.406.454c.194.093.6.183.446.276a1.259,1.259,0,0,0-.464.479c-.04.136.328.274.328.274s-.116.162-.018.2.154-.158.307-.158.464.116.618.116.407-.253.388-.412a.841.841,0,0,0-.388-.5c-.172-.093-.364-.5-.483-.594s.118-.322-.018-.479-.232-.138-.386-.253-.291.023-.388.16S338.406,372.542,338.289,372.59Z" transform="translate(-299.939 -364.067)" fill="#d6d6d6"/>
    <path id="Path_6247" data-name="Path 6247" d="M339.394,374.3c-.016-.2-.4-.389-.657-.434s-.214-.183.061-.2.249-.136.482-.182.464-.116.637-.138.173-.206.173-.341.483-.184.483-.184.271-.3.425-.434a.692.692,0,0,1,.637-.044c.216.066-.017-.162-.1-.276a.656.656,0,0,1,.04-.5c.056-.139.4-.207.5-.159s0,.25.019.433a.478.478,0,0,0,.174.3l.154-.023h.253c.253,0,.174.183.367.114a4.416,4.416,0,0,0,.5-.206.794.794,0,0,1,.581.069c.289.113.135-.207.194-.39s.174-.5.366-.48.349.162.5.048-.289-.275-.289-.343.366-.068.695-.093a4.423,4.423,0,0,0,.677-.045c.155-.044-.114-.364-.174-.364a4.728,4.728,0,0,1-.637.023c-.194-.023-.4.138-.579.182s-.214-.272-.31-.41a.345.345,0,0,1,.115-.525,2.891,2.891,0,0,0,.774-.57c.077-.138-.309-.113-.677-.092s.059.138-.289.548-.521.137-.794.412-.076.295.177.389.036.365-.022.431-.348.322-.31.5-.192.3-.192.3-.716.183-.85.2-.175-.114-.134-.25-.158-.457-.175-.664-.309.092-.328.231-.387.159-.6.068a.56.56,0,0,1-.29-.5c.038-.07-.117-.413-.117-.5a1.428,1.428,0,0,1,.791-.548c.369-.091.831-.618,1.084-.846a4.17,4.17,0,0,0,.442-.57,13.372,13.372,0,0,1,1.895-.571,5.96,5.96,0,0,1,1.72.159,6.447,6.447,0,0,1,.7.3,3.944,3.944,0,0,0,1.065.228,1.962,1.962,0,0,1,.618.228c.174.092,0,.16-.427.32a1.227,1.227,0,0,1-.947.023c-.232-.092-.367-.092-.192.045s.114.207.136.413.29.023.347-.025.059-.135.27.025a.315.315,0,0,0,.385.044c.1-.022.019-.272.078-.364s.291-.092.349-.138a.863.863,0,0,1,.309-.136c.116-.023.1.2.213.274s.058-.3.018-.388-.075-.342-.018-.413a.676.676,0,0,1,.56-.02c.1.092-.155.364-.1.525s.194-.091.293-.229.306,0,.655-.067.269-.3.637-.162.271.138.389,0,.327.026.539-.066.214,0,.369.092.347-.184.423-.276.386-.09.542-.068a4.113,4.113,0,0,0,.5.138,1.168,1.168,0,0,1,.4.135s.328.138.407.046-.021-.2-.309-.364-.176-.436,0-.459.154-.134.288-.225.311-.434.465-.364.29.2.485.319.018.271-.019.389a1.265,1.265,0,0,0,.095.615c.057.069-.058.319-.211.435s-.37.364-.311.41.522-.2.522-.2a4.35,4.35,0,0,1,.424-.526c.136-.115.271-.115.31.021s.25.183.446.091,0-.158-.02-.364-.33-.092-.5-.045-.31.252-.368.252-.059-.138-.02-.343-.077-.32-.077-.436.057-.111.193-.34.137.16.154.366.155.113.272.09.056-.3.153-.434.31-.16.5.047.173.136.407.228.249.116.27.32.173.228.269.16.019-.341-.038-.436-.52-.249-.676-.41.076-.158.25-.158.5.022.5.022a1.706,1.706,0,0,0,.56-.252,1.885,1.885,0,0,1,.522-.25,1.234,1.234,0,0,1,.7-.046c.193.046.328-.089.521-.182s.407-.16.463-.115a1.98,1.98,0,0,0,.618.16,5.909,5.909,0,0,0,.562-.227c.31-.138.174-.114.29-.184s.309-.092.714.114,0,0,.117.137.174-.023.444-.067a1.775,1.775,0,0,1,.619.022,1.661,1.661,0,0,1,.732.16c.176.138-.113.432-.211.526s.153.158.232.137a5.631,5.631,0,0,1,1.007.045c.288.046.4.206.539.206a.671.671,0,0,0,.424-.16,2.194,2.194,0,0,1,.719-.161,1.765,1.765,0,0,1,.636.047.813.813,0,0,1,.115.456.411.411,0,0,0,.31.366c.134.023.386-.274.483-.322s.211.207.27.136.541.026.735-.089.308,0,.4-.047a.688.688,0,0,0,.252-.386c0-.091.078-.161,0-.3s-.347-.046-.638-.136-.017-.226.1-.319.309,0,.5.045.116-.067.211-.067.448.115.64.115.347.248.347.248a4.807,4.807,0,0,1-.657.185c-.116,0-.041.182.057.182a.682.682,0,0,1,.368.18c.134.116.734,0,.811,0a1.607,1.607,0,0,1,.542.277,2.363,2.363,0,0,0,.386.227,5.609,5.609,0,0,0,.657-.044,1.814,1.814,0,0,1,.831.023,2.6,2.6,0,0,1,.445.295c.156.16.27.092.483.07s.427-.07.62-.07.83-.021.946.183.253.161.253.161a2.677,2.677,0,0,1,.25-.436c.078-.068.33.047.482.138a8.423,8.423,0,0,0,1.1.045c.2.047.466.273.311.456s.116.5.058.686-.211.2-.369.252.159.274.292.432-.076.207-.213.137a1.866,1.866,0,0,0-.929.162c-.442.136-.618.41-1.08.432s-.273-.022-.852-.022-.561.183-.677.412.058.182,0,.364a2.176,2.176,0,0,0-.153.548c0,.159-.349.183-.466.319a3.471,3.471,0,0,1-.636.73,2.62,2.62,0,0,0-.562.641,2.3,2.3,0,0,1,.214-.663c.153-.273-.173-.663-.2-.959s.1-.389.293-.663.655-.365.849-.5.987-.778.987-.778a2.39,2.39,0,0,1-.349.206c-.193.09-.426.274-.577.274s-.1-.184-.12-.366-.386-.044-.522.138a4.789,4.789,0,0,1-.657.526c-.27.228-.193.2-.366.228a.988.988,0,0,1-.6-.228c-.134-.116-.269.089-.695.114s-.908-.048-1.1-.025-.678.686-.969.8-.657.321-.56.481.269-.138.347-.138-.058.322.117.322.269-.117.442-.139.31.162.347.41a2.057,2.057,0,0,1-.153.778,1.659,1.659,0,0,1-.5.912,10.216,10.216,0,0,0-.911.915c-.1.135-.442.024-.5-.069s-.229.2-.365.274a.456.456,0,0,0-.271.388c0,.183-.388.183-.388.3a2.44,2.44,0,0,0,.33.6.836.836,0,0,1-.194.774c-.173.116-.25.253-.481.094s-.04-.252.057-.5a.436.436,0,0,0-.136-.458c-.037-.067-.2.138-.27.162s-.078-.2-.019-.343a.54.54,0,0,0-.1-.457c-.058-.022-.424.343-.579.319s-.019-.432.037-.548-.116-.022-.232.091-.365.366-.462.343-.291.183-.134.321.212.25.308.274a1.6,1.6,0,0,0,.446-.068c.1-.024.289.16.1.364s-.6.227-.523.367a6.089,6.089,0,0,1,.427.661,2.715,2.715,0,0,1,.134.911c.039.254-.562.776-.735.938s-.347.546-.638.73a1.874,1.874,0,0,1-1.006.274c-.1-.07-.365.114-.347.366s.155.227.155.3a2.109,2.109,0,0,1-.27.458c-.078.116-.349,0-.309-.343s.232-.479.212-.641a.174.174,0,0,0-.308-.113c-.118.138-.483.526-.483.526a1.694,1.694,0,0,0,.309.57,4.556,4.556,0,0,1,.522.73c.231.343.057.64,0,.892s-.252.249-.406.294-.194.116-.252.252-.329.3-.367.185a2.049,2.049,0,0,0-.29-.391,1.891,1.891,0,0,0-.425-.615c-.251-.2-.349-.3-.349-.091s-.153.6-.153.73-.347-.41-.347-.64-.061-.617-.042-.981-.4-.024-.4-.024-.193.388-.291.388-.134-.318-.118-.594a1.109,1.109,0,0,0-.152-.615,2.7,2.7,0,0,1-.445-.709c-.057-.251-.173-.156-.289-.022s-.078.136-.542.136-.443.343-.678.549-.424.594-.694.733-.388.274-.388.431a4.011,4.011,0,0,1-.058.8,2.892,2.892,0,0,1-.231.777c-.137.23-.253.594-.368.594s-.155-.318-.155-.526a3.3,3.3,0,0,0-.406-.845c-.078-.157-.368-.866-.368-.866a4.98,4.98,0,0,1-.213-.96c.02-.207.02-.775.02-.775s-.311.364-.445.341-.269-.274-.251-.571-.231-.274-.367-.319-.312-.456-.407-.456a.208.208,0,0,0-.23.137c-.079.136-.486.114-.581.114a4,4,0,0,1-.851-.093c-.172-.067-.368-.476-.463-.523s-.386.249-.5.206-.35-.274-.6-.411-.329-.458-.426-.661-.424.113-.387.339.466.528.466.687.076.206.288.412.039.319.176.365.327-.183.52-.3.175-.273.271-.273.075.3.231.318a1.4,1.4,0,0,1,.658.481c.1.181-.1.3-.174.456a3.337,3.337,0,0,1-.5.8,1.669,1.669,0,0,1-.7.5c-.29.068-.328.249-.561.272a4,4,0,0,0-.966.458,1.463,1.463,0,0,1-.771.184c-.155-.072-.214-.526-.271-.868a2.729,2.729,0,0,0-.193-.664,3.285,3.285,0,0,0-.483-.57,2.531,2.531,0,0,1-.291-.844c-.019-.228-.232-.138-.269-.389a6.439,6.439,0,0,0-.291-.754c-.04-.159-.426.023-.58.047a.418.418,0,0,1-.4-.5c.037-.363.194-.363.386-.363s.117-.114.31-.343a1.9,1.9,0,0,0,.269-.982c.02-.3-.135-.16-.288-.116a1.369,1.369,0,0,1-.465.092c-.076-.021-.386-.136-.445-.068a.454.454,0,0,1-.462-.091c-.078-.115-.464-.251-.505-.344a5.822,5.822,0,0,0-.077-.776c-.076-.135-.249.025-.348.117s-.366.158-.288.226.327.207.309.391-.193.226-.291.318-.29.228-.347.114-.25-.615-.308-.709a2.082,2.082,0,0,1-.291-.524c-.057-.206-.272-.274-.4-.434s-.523-.412-.675-.594-.427-.319-.447-.09.27.273.387.5a1.105,1.105,0,0,0,.5.432,5.75,5.75,0,0,1,.505.368.588.588,0,0,1-.293.044c-.134-.023-.02.274-.039.434s-.153.159-.192-.023a1.028,1.028,0,0,0-.232-.455c-.077-.069-.578-.252-.657-.3s-.406-.3-.444-.5-.33-.228-.406-.183-.366.3-.5.3a5.028,5.028,0,0,1-.5-.138c-.155-.02-.173.3-.231.482s-.31.047-.444.2-.368.319-.312.458.157.137-.019.25-.27.344-.444.366-.4.114-.5.047-.173.226-.232.3-.155-.207-.252-.319-.347-.023-.426-.045-.155-.229-.252-.32a.294.294,0,0,1,0-.367.341.341,0,0,0,.1-.388c-.058-.207-.1-.664.1-.751a2.858,2.858,0,0,1,.888,0c.232,0,.63.093.7-.048A1.216,1.216,0,0,0,339.394,374.3Zm7.288-4.02c-.064.218.446.389.542.23S346.78,369.961,346.682,370.28Zm-.657,5.528c.038.092.232-.138.385-.138s.5.068.6-.092.4-.183.657-.136.465.249.639.274a3.132,3.132,0,0,0,.792-.068c.154-.045.115-.365-.135-.525a5.28,5.28,0,0,0-.7-.5c-.231-.094-.308-.184-.173-.23s.308-.228.115-.228-.367.07-.387.185a.524.524,0,0,1-.211.3c-.076.046-.27.228-.329.092s-.27-.548-.368-.573-.251,0-.367.228a1.845,1.845,0,0,1-.368.548c-.115.093-.27.365-.153.411S346.026,375.808,346.026,375.808Zm4.428-1.6c-.238.185-.311.434-.216.592s.369.664.5.71.619.138.427.343-.232.273-.408.252-.095.548.04.592.541.207.677.229.579-.045.56-.183a1.92,1.92,0,0,0-.251-.821c-.153-.138.214-.274.117-.39s-.232-.068-.309-.2a1.135,1.135,0,0,0-.232-.366c-.116-.091-.211.092-.192-.162s.288-.41.4-.274.464.072.543,0-.156-.274-.214-.411a.61.61,0,0,0-.5-.2c-.058.047-.213.184-.368.3S350.568,374.115,350.454,374.208Z" transform="translate(-299.771 -362.604)" fill="#d6d6d6"/>
    <path id="Path_6248" data-name="Path 6248" d="M356.677,367.788c-.141.168-.443.114-.656-.024a2.4,2.4,0,0,0-.58-.2c-.116-.049.019-.32.155-.388s.5-.274.772-.411.347-.41.543-.41,1.118-.232,1.236-.185.675.092.793-.09.521-.07.425.09-.445.524-.677.458a3.99,3.99,0,0,0-1.179,0,2.291,2.291,0,0,0-.814.412c-.25.158-.193.34-.094.362A.27.27,0,0,1,356.677,367.788Z" transform="translate(-303.775 -362.644)" fill="#d6d6d6"/>
    <path id="Path_6249" data-name="Path 6249" d="M382.116,374.152c-.114.036-.446-.045-.332.271a1.708,1.708,0,0,1,.116.8,3.472,3.472,0,0,0,.041.845c.036.069.192.228.289.183s-.04-.5-.04-.593a.37.37,0,0,1,.214-.25c.077-.023,0-.412-.1-.573s-.229-.248-.155-.274.177-.205.117-.25S382.25,374.107,382.116,374.152Z" transform="translate(-309.652 -364.464)" fill="#d6d6d6"/>
    <path id="Path_6250" data-name="Path 6250" d="M381.8,377.148c-.147.04-.194.274-.194.341s-.545.207-.371.388.348.047.619.023a2.337,2.337,0,0,0,.523-.113s.406.023.346-.205-.48-.254-.559-.23S381.952,377.1,381.8,377.148Z" transform="translate(-309.527 -365.132)" fill="#d6d6d6"/>
    <path id="Path_6251" data-name="Path 6251" d="M380.688,378.285c-.141.1-.059.5-.173.775s-.213.528-.291.528a1.5,1.5,0,0,0-.6.318c-.117.138-.675-.113-.754,0a2.7,2.7,0,0,1-.328.343c-.1.091-.368.023-.31.3s.192.528.31.528.27-.091.27-.343.269,0,.4-.023.211-.184.269-.367-.077.092.156.162a.22.22,0,0,0,.31-.184c0-.068.424-.183.5-.252s.386-.183.406-.274,0-.617.1-.662.231-.047.078-.364S380.882,378.148,380.688,378.285Z" transform="translate(-308.864 -365.379)" fill="#d6d6d6"/>
    <path id="Path_6252" data-name="Path 6252" d="M375.825,384.081c-.285.053-.462.779-.229.755S376.078,384.038,375.825,384.081Z" transform="translate(-308.254 -366.678)" fill="#d6d6d6"/>
    <path id="Path_6253" data-name="Path 6253" d="M391.252,404.879c-.078.044,0,.3.078.388a.931.931,0,0,1,.1.5c-.019.088-.347.2-.192.318s.444,0,.406.137-.194.321-.02.368.235-.162.309-.32a.891.891,0,0,1,.27-.392c.137-.088,0-.3-.078-.3s-.114.116-.289,0-.137-.068-.251-.3S391.445,404.763,391.252,404.879Z" transform="translate(-311.754 -371.309)" fill="#d6d6d6"/>
    <path id="Path_6254" data-name="Path 6254" d="M390.648,406.763c-.029.112-.192.137-.308.253s0,.156-.329.388-.735.478-.813.682.078.32.386.345.233.09.445-.184a4.78,4.78,0,0,1,.657-.663.838.838,0,0,0,.252-.568S390.669,406.7,390.648,406.763Z" transform="translate(-311.306 -371.733)" fill="#d6d6d6"/>
    <path id="Path_6255" data-name="Path 6255" d="M382.746,406.967c-.211.252.214.252.153.5s.289.159.389.115a1.25,1.25,0,0,0,.289-.708c-.037-.137-.425.227-.524.205A2.925,2.925,0,0,1,382.746,406.967Z" transform="translate(-309.858 -371.753)" fill="#d6d6d6"/>
    <path id="Path_6256" data-name="Path 6256" d="M379.281,402.856c0-.235-.117.25-.194.045s.077-.551-.116-.413-.289.25-.309.368-.366.159-.347.045.155-.389.019-.5a2.066,2.066,0,0,0-.541-.23c-.173-.068.02-.295-.444-.182a1.8,1.8,0,0,0-.638.254s-.425-.162-.56.019-.329.528-.329.528-.541.022-.657.043-.31.205-.483.275-.465.135-.58.021-.308-.317-.252-.455.483-.323.329-.548-.25-.274-.27-.41a.55.55,0,0,0-.174-.481c-.232-.274-.173-.594-.077-.64s-.057-.322-.135-.434a.641.641,0,0,1,.078-.641c.153-.113.618-.548.754-.548s.349.071.482-.044.541-.07.541-.159a1.319,1.319,0,0,1,.137-.571c.1-.117.5-.227.56-.319s.153-.48.27-.549.214-.227.388,0,.347.32.422.092.023-.16.2-.364-.02-.55.155-.346.289.365.289.365-.019-.455.1-.455.23.228.289.228.581-.138.678.02-.273.6-.137.755a3.234,3.234,0,0,0,.6.388c.193.138.427.458.522.185s.289-.685.155-.891a1.363,1.363,0,0,1,.1-.915c.057-.044.155.525.347.779a2.545,2.545,0,0,1,.483.708c.1.272.116.751.291.912s.523.159.5.364.388.6.6.982a4.271,4.271,0,0,1,.233,1.6,2.47,2.47,0,0,1-.408,1.119,5.869,5.869,0,0,0-.31.775c-.076.138-.035.113-.326.206s-.505.365-.581.273-.347-.249-.424-.138-.177.367-.312.092-.442-.227-.5-.274-.058-.183-.058-.41-.249-.253-.27-.32S379.281,402.926,379.281,402.856Z" transform="translate(-307.804 -369.423)" fill="#d6d6d6"/>
    <path id="Path_6257" data-name="Path 6257" d="M392.412,398.812c.252.114.7-.41.522-.482S392.412,398.812,392.412,398.812Z" transform="translate(-312.026 -369.854)" fill="#d6d6d6"/>
    <path id="Path_6258" data-name="Path 6258" d="M389.091,400.305c-.037.223-.269.117-.386-.089s-.347-.366,0-.276S389.109,400.192,389.091,400.305Z" transform="translate(-311.159 -370.209)" fill="#d6d6d6"/>
    <path id="Path_6259" data-name="Path 6259" d="M368.272,390.84c-.238.054.349.549.406.616s.577.593.577.846a2.311,2.311,0,0,0,.444.932c.1.1.58.437.658.622s.251.226.251-.023a1.423,1.423,0,0,1,.135-.687c.1-.134.059-.342-.095-.319s-.291-.3-.543-.5a3.667,3.667,0,0,1-.675-.636,6.308,6.308,0,0,0-.675-.641A.653.653,0,0,0,368.272,390.84Z" transform="translate(-306.632 -368.185)" fill="#d6d6d6"/>
    <path id="Path_6260" data-name="Path 6260" d="M369.22,389.284c-.152.023-.152.368-.076.479s.232.047.33.456a5.171,5.171,0,0,0,.365.985c.077.155.407.385.522.5s.29-.045.212-.183a1.672,1.672,0,0,1-.251-.5,2.155,2.155,0,0,0-.269-.685c-.158-.274-.291-.342-.388-.524A3.318,3.318,0,0,0,369.22,389.284Z" transform="translate(-306.828 -367.839)" fill="#d6d6d6"/>
    <path id="Path_6261" data-name="Path 6261" d="M371.333,394.817a.292.292,0,0,0,.095.409.812.812,0,0,0,.465.065c.191-.02.463-.088.251-.225s-.464,0-.54-.183S371.409,394.7,371.333,394.817Z" transform="translate(-307.315 -369.055)" fill="#d6d6d6"/>
    <path id="Path_6262" data-name="Path 6262" d="M372.719,395.071c-.135.07-.348.117-.194.274a.493.493,0,0,0,.483.2c.232-.02.579.141.6,0s-.214-.341-.309-.341A5.1,5.1,0,0,1,372.719,395.071Z" transform="translate(-307.581 -369.129)" fill="#d6d6d6"/>
    <path id="Path_6263" data-name="Path 6263" d="M375.225,396.007c-.043.2.289.3.312.068A.159.159,0,0,0,375.225,396.007Z" transform="translate(-308.194 -369.31)" fill="#d6d6d6"/>
    <path id="Path_6264" data-name="Path 6264" d="M376.544,396.078c.033.246.426-.14.426-.14s.309-.046.309-.206-.309-.364-.425-.182S376.525,395.917,376.544,396.078Z" transform="translate(-308.489 -369.22)" fill="#d6d6d6"/>
    <path id="Path_6265" data-name="Path 6265" d="M375.378,392.956c-.116.044-.1.161-.135.388s-.212.389-.059.5.444-.387.522-.228-.02.228.116.434a.439.439,0,0,0,.386.183s-.019-.547-.232-.685-.349-.3-.1-.251.386-.068.328-.2-.423-.068-.541-.047A.5.5,0,0,1,375.378,392.956Z" transform="translate(-308.172 -368.657)" fill="#d6d6d6"/>
    <path id="Path_6266" data-name="Path 6266" d="M375.58,392.343c-.134.159-.037.319.176.3s.658-.089.754-.089.232-.3.153-.3a5.735,5.735,0,0,0-.675.138A1.954,1.954,0,0,1,375.58,392.343Z" transform="translate(-308.26 -368.5)" fill="#d6d6d6"/>
    <path id="Path_6267" data-name="Path 6267" d="M378.035,391.953c-.176-.087-.5.756-.27.822S378.171,392.024,378.035,391.953Z" transform="translate(-308.743 -368.432)" fill="#d6d6d6"/>
    <path id="Path_6268" data-name="Path 6268" d="M374.183,390.383c-.009-.163-.31.047-.33.205s.213.3-.153.3-.386.342-.465.412a.813.813,0,0,1-.309.138c-.155.043-.194.226-.232.34s-.309-.2-.389-.113a1.481,1.481,0,0,0,.119.889.984.984,0,0,0,.58.594,1.459,1.459,0,0,1,.424.046c.136.044.582.09.56-.113a.925.925,0,0,1,.136-.73c.194-.207.386-.322.291-.618s-.291-.479-.156-.616.291-.183.291-.3S374.22,391.138,374.183,390.383Z" transform="translate(-307.536 -368.071)" fill="#d6d6d6"/>
    <path id="Path_6269" data-name="Path 6269" d="M375.806,386.26c-.137,0,.02.248-.174.41s-.406.227-.291.5.522.477.425.592-.386.344-.425.545.465-.317.6-.525.4-.089.464-.2l.058-.115a2.8,2.8,0,0,1-.389-.115c-.173-.069-.384.182-.289-.181s.389-.3.33-.573S375.864,386.26,375.806,386.26Z" transform="translate(-308.214 -367.165)" fill="#d6d6d6"/>
    <path id="Path_6270" data-name="Path 6270" d="M376.138,388.811c-.066.03-.233.434-.02.434s.58.066.5-.047S376.35,388.719,376.138,388.811Z" transform="translate(-308.371 -367.73)" fill="#d6d6d6"/>
    <path id="Path_6271" data-name="Path 6271" d="M376.945,388.375c-.075-.009-.327.479.019.456S377.217,388.4,376.945,388.375Z" transform="translate(-308.543 -367.636)" fill="#d6d6d6"/>
    <path id="Path_6272" data-name="Path 6272" d="M376.812,389.459c-.273.413-.252.322-.446.232s-.5.205-.446.316.483-.023.582.183.1.227.289.183a.518.518,0,0,0,.327-.524A1.414,1.414,0,0,0,376.812,389.459Z" transform="translate(-308.348 -367.878)" fill="#d6d6d6"/>
    <path id="Path_6273" data-name="Path 6273" d="M378.723,392.888c-.146.17-.213.183.116.248s.426.071.289.254-.229.41-.116.432.465-.09.5,0-.075.113.312.183a.718.718,0,0,1,.541.319c.077.092.31.388.155.388s-.33.229-.214.251.464-.066.483,0,.212.506.4.482.312-.434.406-.548.483-.185.523.022a.8.8,0,0,0,.386.55c.233.135.5.274.524.156s-.116-.546-.274-.615a1.092,1.092,0,0,1-.422-.616c0-.159-.234-.207-.351-.321s-.211-.433-.5-.5a2.144,2.144,0,0,1-.675-.365c-.31-.181-1.006-.181-1.024-.071s0,0-.233-.088-.4,0-.463-.16S378.9,392.682,378.723,392.888Z" transform="translate(-308.948 -368.612)" fill="#d6d6d6"/>
  </g>
</svg>
