<svg xmlns="http://www.w3.org/2000/svg" width="11.724" height="37.294" viewBox="0 0 11.724 37.294">
  <g id="Group_8983" data-name="Group 8983" transform="translate(-5354.288 -6400.8)">
    <g id="location-svgrepo-com_5_" data-name="location-svgrepo-com (5)" transform="translate(5299.645 6418.088)">
      <path id="Path_10734" data-name="Path 10734" d="M60.505,0a5.869,5.869,0,0,0-5.862,5.862,5.809,5.809,0,0,0,.567,2.519c.008.017.016.033.024.05l4.429,8.576a.947.947,0,0,0,1.683,0l4.428-8.574c.008-.015.015-.03.022-.045a5.808,5.808,0,0,0,.571-2.526A5.869,5.869,0,0,0,60.505,0Zm0,8.931a3.068,3.068,0,1,1,3.068-3.068A3.072,3.072,0,0,1,60.505,8.931Z" fill="#2d66f1"/>
      <path id="Path_10735" data-name="Path 10735" d="M99.793,249.018H95.276a.568.568,0,1,0,0,1.137h4.516a.568.568,0,1,0,0-1.137Z" transform="translate(-37.029 -230.149)" fill="#2d66f1"/>
    </g>
    <g id="Group_8981" data-name="Group 8981" transform="translate(-2 18)">
      <line id="Line_540" data-name="Line 540" y2="3.6" transform="translate(5362.5 6383.5)" fill="none" stroke="#bcc0c2" stroke-linecap="round" stroke-width="1.4"/>
      <line id="Line_541" data-name="Line 541" y2="3.6" transform="translate(5362.5 6392.5)" fill="none" stroke="#bcc0c2" stroke-linecap="round" stroke-width="1.4"/>
    </g>
  </g>
</svg>
