<svg xmlns="http://www.w3.org/2000/svg" width="226" height="226" viewBox="0 0 226 226">
  <g id="Group_8984" data-name="Group 8984" transform="translate(-94 -142)">
    <circle id="Ellipse_547" data-name="Ellipse 547" cx="113" cy="113" r="113" transform="translate(94 142)" fill="#262a34"/>
    <g id="Successful_purchase-pana" data-name="Successful purchase-pana" transform="translate(129.197 168.307)">
      <g id="freepik--background-complete--inject-67" transform="translate(23.786 0)">
        <path id="Path_11056" data-name="Path 11056" d="M102.955,274.833s-3.271.865-.519,7.925a88.054,88.054,0,0,0,4.791,10.626s.45,1.621-.886,1.729-4.182-.641-4.928.908.277,3.3,2.594,4.921,7.255,5.374,7.7,5.713.832,1.109-.068,1.329-7.467.245-7.269,3.361,7.392,6.585,8.17,6.981.937.756.828,1.192-2.32.241-4.189.324-4.02.508-3.753,2.295,4.323,5.9,14.949,8.029l4.993.666,3.152-3.962c6.225-8.879,6.325-14.65,5.284-16.127s-2.882-.3-4.3.926-2.882,2.882-3.242,2.658-.519-.616-.227-1.441,3.109-8.285,1.1-10.688-6.779,2.122-7.583,2.579-1.052-.36-.965-.915,1.081-6.675,1.635-9.449.148-4.722-1.52-5.353c-1.607-.605-3.148,1.9-4.193,2.745s-1.834-.641-1.834-.641a87.972,87.972,0,0,0-3.862-11c-2.878-7.01-5.911-5.324-5.911-5.324" transform="translate(-100.975 -187.834)" fill="#ebebeb"/>
        <path id="Path_11057" data-name="Path 11057" d="M133.03,343.554c-2.093-5.155-5.666-14.383-8.768-22.29s-5.918-15.057-7.986-20.223c-1.037-2.576-1.873-4.683-2.457-6.124l-.666-1.664-.169-.432a1.44,1.44,0,0,1-.054-.151s.025.047.068.144.1.245.184.429l.7,1.653c.6,1.441,1.441,3.519,2.5,6.1,2.093,5.155,4.928,12.3,8.033,20.208s6.653,17.139,8.724,22.3" transform="translate(-108.497 -199.352)" fill="#e0e0e0"/>
        <path id="Path_11058" data-name="Path 11058" d="M112.77,337.31a1.647,1.647,0,0,1,.339.133c.216.094.522.238.9.418.753.36,1.779.9,2.9,1.506l2.882,1.563.872.465a1.669,1.669,0,0,1,.313.187,2.21,2.21,0,0,1-.342-.13c-.213-.094-.519-.241-.893-.425-.749-.36-1.769-.919-2.882-1.524l-2.882-1.542-.872-.465A1.4,1.4,0,0,1,112.77,337.31Z" transform="translate(-108.395 -227.912)" fill="#e0e0e0"/>
        <path id="Path_11059" data-name="Path 11059" d="M136.548,331.313c-.04-.018.962-2.183,2.237-4.834s2.338-4.787,2.377-4.769-.962,2.187-2.237,4.838S136.588,331.335,136.548,331.313Z" transform="translate(-123.607 -217.931)" fill="#e0e0e0"/>
        <path id="Path_11060" data-name="Path 11060" d="M148.26,369.766a1.8,1.8,0,0,1,.234-.288l.677-.753c.569-.634,1.351-1.517,2.161-2.522s1.549-1.934,2.064-2.615c.245-.317.447-.587.612-.8a1.6,1.6,0,0,1,.238-.285,1.528,1.528,0,0,1-.187.321c-.133.2-.324.486-.573.836-.493.7-1.2,1.643-2.032,2.648s-1.628,1.88-2.219,2.5c-.3.306-.537.555-.72.72a1.668,1.668,0,0,1-.256.245Z" transform="translate(-131.101 -244.028)" fill="#e0e0e0"/>
        <path id="Path_11061" data-name="Path 11061" d="M124.55,377.4a1.413,1.413,0,0,1,.36.04l.919.166c.774.148,1.844.36,3.022.609s2.241.479,3.011.652l.908.216a1.44,1.44,0,0,1,.331.1,1.4,1.4,0,0,1-.36-.04l-.919-.169c-.778-.148-1.844-.36-3.022-.605s-2.244-.479-3.011-.656l-.911-.213A1.364,1.364,0,0,1,124.55,377.4Z" transform="translate(-115.931 -253.56)" fill="#e0e0e0"/>
        <path id="Path_11062" data-name="Path 11062" d="M131,409a2.4,2.4,0,0,1,.439.058l1.178.209c.994.184,2.367.447,3.876.746s2.882.584,3.872.8l1.167.256a2.32,2.32,0,0,1,.425.115,2.157,2.157,0,0,1-.436-.054l-1.178-.209c-.994-.184-2.367-.447-3.88-.749s-2.882-.584-3.869-.792l-1.171-.259A2.573,2.573,0,0,1,131,409Z" transform="translate(-120.058 -273.778)" fill="#e0e0e0"/>
        <path id="Path_11063" data-name="Path 11063" d="M160.78,397.985a2.545,2.545,0,0,1,.285-.36l.821-.983c.7-.832,1.646-1.985,2.662-3.289s1.906-2.5,2.543-3.375l.756-1.037a2.938,2.938,0,0,1,.292-.36,2.365,2.365,0,0,1-.241.4c-.166.256-.407.62-.72,1.081-.616.89-1.491,2.1-2.522,3.408s-1.985,2.446-2.7,3.264c-.36.4-.652.72-.861.951a2.766,2.766,0,0,1-.317.3Z" transform="translate(-139.111 -260.714)" fill="#e0e0e0"/>
        <rect id="Rectangle_1823" data-name="Rectangle 1823" width="34.984" height="53.799" rx="7.54" transform="translate(74.055 110.479) rotate(-31.14)" fill="#ebebeb"/>
        <path id="Path_11064" data-name="Path 11064" d="M425.839,398.529a3.71,3.71,0,1,1,1.685-2.288,3.714,3.714,0,0,1-1.685,2.288Z" transform="translate(-305.084 -262.669)" fill="#fff"/>
        <path id="Path_11065" data-name="Path 11065" d="M430.14,409.673a3.769,3.769,0,0,1-.937-.115,3.862,3.862,0,1,1,.937.115Zm0-7.428a3.53,3.53,0,1,0,1.8,6.567h0a3.534,3.534,0,0,0-.983-6.455,3.41,3.41,0,0,0-.843-.112Z" transform="translate(-308.972 -269.267)" fill="#fff"/>
        <path id="Path_11066" data-name="Path 11066" d="M338.176,332.085l-2.558,1.542-.158-.259,2.323-1.4-.36-.6.234-.14Z" transform="translate(-250.868 -224.016)" fill="#fff"/>
        <path id="Path_11067" data-name="Path 11067" d="M338.665,339.346l-.234.141-1.081-1.8.184-.115,1.682.436a.983.983,0,0,0,.839-.04c.3-.18.36-.5.119-.886a1.027,1.027,0,0,0-.72-.526l.047-.285a1.344,1.344,0,0,1,.911.684c.313.519.249,1.009-.177,1.264a1.232,1.232,0,0,1-1.055.065l-1.38-.36Z" transform="translate(-252.077 -227.247)" fill="#fff"/>
        <path id="Path_11068" data-name="Path 11068" d="M344.344,347.411l-.31-.512-.674.4-.159-.263.67-.4L343,345.2l.191-.115,2.521.331.177.292-2.439-.31.67,1.109.591-.36.155.256-.591.36.31.512Z" transform="translate(-255.692 -232.883)" fill="#fff"/>
        <path id="Path_11069" data-name="Path 11069" d="M350.92,358.281l-.31-.512-.67.407-.159-.263.67-.407-.872-1.441.191-.115,2.522.331.177.292-2.439-.31.67,1.109.594-.36.151.256-.591.36.317.5Z" transform="translate(-259.902 -239.837)" fill="#fff"/>
        <path id="Path_11070" data-name="Path 11070" d="M354.458,363.852c-.432.263-.958.162-1.333-.461a1.548,1.548,0,0,1-.227-1.113h.285a1.3,1.3,0,0,0,.18.965c.263.432.612.537.922.36s.411-.526,0-1.178l-.328-.544,1.362-.641.843,1.4-.234.14-.72-1.167-.865.4.2.328C355.038,363.1,354.912,363.578,354.458,363.852Z" transform="translate(-262.01 -243.222)" fill="#fff"/>
        <path id="Path_11071" data-name="Path 11071" d="M358.865,371.014a.929.929,0,0,1-1.311-.4c-.411-.681-.162-1.333.645-1.823a1.347,1.347,0,0,1,2.024.36,1.383,1.383,0,0,1,.231.692l-.277.022a1.1,1.1,0,0,0-1.772-.843,2.214,2.214,0,0,0-.2.137.947.947,0,0,1,.908.519.9.9,0,0,1-.245,1.333Zm-.166-.252a.652.652,0,1,0-.522.055A.655.655,0,0,0,358.7,370.762Z" transform="translate(-264.878 -247.867)" fill="#fff"/>
        <path id="Path_11072" data-name="Path 11072" d="M364.538,380.218c-.425.259-.94.148-1.315-.472a1.538,1.538,0,0,1-.227-1.117h.285a1.308,1.308,0,0,0,.184.973c.256.425.594.537.911.36s.378-.522.09-1l-.108-.18.191-.119,1.315.173-.789-1.308.234-.14.994,1.643-.187.112-1.347-.173A.844.844,0,0,1,364.538,380.218Z" transform="translate(-268.469 -253.554)" fill="#fff"/>
        <path id="Path_11073" data-name="Path 11073" d="M369.025,387.84a.929.929,0,0,1-1.311-.4c-.411-.677-.162-1.333.645-1.819a1.346,1.346,0,0,1,2.028.36,1.39,1.39,0,0,1,.227.688l-.274.022a1.081,1.081,0,0,0-.18-.569,1.044,1.044,0,0,0-1.6-.27c-.058.032-.13.083-.2.133a.965.965,0,0,1,.911.519.9.9,0,0,1-.249,1.336Zm-.162-.256a.656.656,0,1,0-.522.057A.655.655,0,0,0,368.863,387.584Z" transform="translate(-271.378 -258.63)" fill="#fff"/>
        <path id="Path_11074" data-name="Path 11074" d="M374.632,392.478l-.184.112-3.019.36-.169-.285,2.957-.36-.8-1.315-.475.288-.159-.259.72-.429Z" transform="translate(-273.772 -262)" fill="#fff"/>
        <path id="Path_11075" data-name="Path 11075" d="M380.762,402.648l-.184.112-3.019.36-.169-.285,2.957-.36-.8-1.315-.479.292-.155-.259.72-.432Z" transform="translate(-277.694 -268.506)" fill="#fff"/>
        <path id="Path_11076" data-name="Path 11076" d="M383.052,411.206c-.45.274-.965.058-1.333-.551s-.313-1.156.137-1.441a.749.749,0,0,1,.929.115.67.67,0,0,1,.317-.742c.418-.252.89-.054,1.218.486s.285,1.059-.13,1.311a.684.684,0,0,1-.811-.068A.756.756,0,0,1,383.052,411.206Zm-.159-.274c.313-.191.36-.58.076-1.03s-.634-.6-.947-.411-.36.576-.079,1.03S382.577,411.123,382.894,410.932Zm.281-1.156c.241.4.566.526.843.36s.31-.533.079-.919-.558-.522-.843-.36S382.937,409.387,383.175,409.776Z" transform="translate(-280.309 -273.445)" fill="#fff"/>
        <path id="Path_11077" data-name="Path 11077" d="M387.645,417.845a1.346,1.346,0,0,1-2.028-.36,1.411,1.411,0,0,1-.227-.692l.274-.022a1.081,1.081,0,0,0,.18.569,1.046,1.046,0,0,0,1.6.274c.058-.036.13-.083.2-.137a.962.962,0,0,1-.911-.519.9.9,0,0,1,.249-1.322.926.926,0,0,1,1.311.4C388.7,416.688,388.452,417.34,387.645,417.845Zm.288-.666a.7.7,0,0,0,.141-1.009.652.652,0,1,0-1.081.688.688.688,0,0,0,.94.3Z" transform="translate(-282.812 -277.94)" fill="#fff"/>
        <path id="Path_11078" data-name="Path 11078" d="M394.662,425.465l-2.554,1.545-.159-.263,2.32-1.4-.36-.6.234-.14Z" transform="translate(-287.009 -283.759)" fill="#fff"/>
        <path id="Path_11079" data-name="Path 11079" d="M395.115,432.779l-.234.144-1.081-1.8.187-.112,1.682.432a.987.987,0,0,0,.839-.04c.3-.176.36-.5.115-.886a1.012,1.012,0,0,0-.72-.526l.047-.281a1.336,1.336,0,0,1,.915.684c.313.519.249,1-.18,1.264a1.225,1.225,0,0,1-1.052.061l-1.38-.36Z" transform="translate(-288.193 -287.028)" fill="#fff"/>
        <path id="Path_11080" data-name="Path 11080" d="M399.9,438.738c-.429.259-.944.148-1.315-.472a1.538,1.538,0,0,1-.227-1.117h.285a1.308,1.308,0,0,0,.184.973c.256.421.594.537.911.36s.36-.522.09-1l-.112-.184.195-.115,1.315.173-.789-1.308.234-.141.991,1.643-.184.112-1.347-.173A.845.845,0,0,1,399.9,438.738Z" transform="translate(-291.092 -290.994)" fill="#fff"/>
        <rect id="Rectangle_1824" data-name="Rectangle 1824" width="1.303" height="24.041" transform="matrix(0.856, -0.517, 0.517, 0.856, 94.15, 130.545)" fill="#fff"/>
        <rect id="Rectangle_1825" data-name="Rectangle 1825" width="1.297" height="12.269" transform="translate(96.999 141.666) rotate(-31.14)" fill="#fff"/>
        <rect id="Rectangle_1826" data-name="Rectangle 1826" width="10.036" height="7.5" rx="3.75" transform="translate(94.988 101.278) rotate(58.86)" fill="#e0e0e0"/>
        <path id="Path_11081" data-name="Path 11081" d="M351.43,319.674l.411-.249,2.676,4.423a1.081,1.081,0,1,0,1.852-1.117l-2.673-4.423.411-.249,2.673,4.423a1.561,1.561,0,1,1-2.673,1.614Z" transform="translate(-261.085 -215.596)" fill="#ebebeb"/>
        <rect id="Rectangle_1827" data-name="Rectangle 1827" width="0.485" height="3.566" transform="matrix(0.856, -0.517, 0.517, 0.856, 95.751, 108.905)" fill="#ebebeb"/>
        <rect id="Rectangle_1828" data-name="Rectangle 1828" width="25.813" height="2.215" transform="translate(100.887 99.103) rotate(58.86)" fill="#fff"/>
        <path id="Path_11082" data-name="Path 11082" d="M139.771,33.61c-.274,3.89,0,11.138-1.416,14.769s-3.307,7.377-6.844,9.005c-4.366,2-9.5,1.153-14.153,2.327-7.3,1.837-12.579,8.534-14.83,15.716s-2,14.877-1.733,22.4l37.246,5.166s.195-15.129,3.444-19.268,18.684-7.853,23.774-19.167c4.589-10.183,5.972-26.332,5.972-26.332Z" transform="translate(-100.624 -33.61)" fill="#f5f5f5"/>
        <path id="Path_11083" data-name="Path 11083" d="M231.476,57.125l-.483-.89a1.329,1.329,0,0,1-.2,0l-.684-.083-.1.807-.267-.032.313-2.547L231,54.5c.648.079,1,.457.933,1a.8.8,0,0,1-.681.72l.512.947Zm.191-1.671c.05-.407-.191-.674-.7-.72l-.677-.083-.155,1.275.674.083c.512.036.825-.151.857-.551Z" transform="translate(-183.23 -46.898)" fill="#e0e0e0"/>
        <path id="Path_11084" data-name="Path 11084" d="M238.85,57.792l-.029.231-1.8-.22.313-2.543,1.743.213-.029.234-1.47-.18-.112.908,1.315.162-.029.227-1.315-.162-.119.944Z" transform="translate(-187.888 -47.461)" fill="#e0e0e0"/>
        <path id="Path_11085" data-name="Path 11085" d="M243.52,57.5a1.29,1.29,0,0,1,1.495-1.131,1.243,1.243,0,0,1,.883.486l-.191.151a1,1,0,0,0-.72-.4,1.063,1.063,0,1,0-.263,2.107,1,1,0,0,0,.792-.213l.148.195a1.253,1.253,0,0,1-.98.256A1.29,1.29,0,0,1,243.52,57.5Z" transform="translate(-192.039 -48.159)" fill="#e0e0e0"/>
        <path id="Path_11086" data-name="Path 11086" d="M252.823,59.483l-.029.234L251,59.483l.313-2.543,1.743.216-.029.231-1.477-.18-.112.9,1.315.162-.025.231-1.315-.162-.119.944Z" transform="translate(-196.832 -48.536)" fill="#e0e0e0"/>
        <path id="Path_11087" data-name="Path 11087" d="M258.047,57.81l.267.036L258,60.4l-.27-.036Z" transform="translate(-201.138 -49.093)" fill="#e0e0e0"/>
        <path id="Path_11088" data-name="Path 11088" d="M262.977,59.307c-.068.544-.5.821-1.145.742l-.684-.086-.1.8-.27-.032.313-2.543.951.119C262.693,58.388,263.046,58.763,262.977,59.307Zm-.27-.032c.05-.407-.187-.67-.7-.72l-.674-.083-.158,1.272.677.083C262.361,59.876,262.66,59.674,262.707,59.274Z" transform="translate(-203.089 -49.336)" fill="#e0e0e0"/>
        <path id="Path_11089" data-name="Path 11089" d="M268.263,59.252l-.893-.112.029-.231,2.057.252-.029.234-.893-.094-.285,2.313-.27-.036Z" transform="translate(-207.305 -49.796)" fill="#e0e0e0"/>
        <path id="Path_11090" data-name="Path 11090" d="M231.777,75.585c0,.054-3.4-.36-7.583-.937s-7.565-1.081-7.565-1.124,3.4.36,7.565.937S231.781,75.534,231.777,75.585Z" transform="translate(-174.843 -59.144)" fill="#e0e0e0"/>
        <path id="Path_11091" data-name="Path 11091" d="M230.669,84c0,.054-3.4-.36-7.565-.937s-7.565-1.081-7.565-1.124,3.4.36,7.565.937S230.676,83.954,230.669,84Z" transform="translate(-174.145 -64.531)" fill="#e0e0e0"/>
        <path id="Path_11092" data-name="Path 11092" d="M226.819,92.588c0,.05-3.4-.36-7.565-.937s-7.565-1.081-7.565-1.127,3.4.36,7.565.94S226.826,92.537,226.819,92.588Z" transform="translate(-171.682 -70.02)" fill="#e0e0e0"/>
        <path id="Path_11093" data-name="Path 11093" d="M219.777,101.255c0,.054-3.4-.36-7.583-.937s-7.565-1.081-7.565-1.124,3.4.36,7.583.937S219.784,101.2,219.777,101.255Z" transform="translate(-167.165 -75.568)" fill="#e0e0e0"/>
        <path id="Path_11094" data-name="Path 11094" d="M208.639,109.9c0,.05-3.4-.36-7.565-.94s-7.565-1.081-7.565-1.124,3.4.36,7.565.94S208.646,109.844,208.639,109.9Z" transform="translate(-160.051 -81.095)" fill="#e0e0e0"/>
        <path id="Path_11095" data-name="Path 11095" d="M270.946,80.992a18.9,18.9,0,0,1-3.7-.6,9.582,9.582,0,0,1,1.866.209A9.387,9.387,0,0,1,270.946,80.992Z" transform="translate(-207.228 -63.539)" fill="#e0e0e0"/>
        <path id="Path_11096" data-name="Path 11096" d="M270.605,88.508a9.582,9.582,0,0,1-1.855-.205,9.388,9.388,0,0,1-1.83-.393,8.952,8.952,0,0,1,1.862.209A9.55,9.55,0,0,1,270.605,88.508Z" transform="translate(-207.017 -68.35)" fill="#e0e0e0"/>
        <path id="Path_11097" data-name="Path 11097" d="M268.036,98.9a9.647,9.647,0,0,1-1.866-.216,11.437,11.437,0,0,1-1.83-.385,8,8,0,0,1,1.862.2A9.367,9.367,0,0,1,268.036,98.9Z" transform="translate(-205.367 -74.981)" fill="#e0e0e0"/>
        <path id="Path_11098" data-name="Path 11098" d="M264.356,107.646a9.648,9.648,0,0,1-1.866-.216,11.556,11.556,0,0,1-1.83-.385,8,8,0,0,1,1.862.2A9.289,9.289,0,0,1,264.356,107.646Z" transform="translate(-203.012 -80.579)" fill="#e0e0e0"/>
        <path id="Path_11099" data-name="Path 11099" d="M256.436,116a9.621,9.621,0,0,1-1.866-.216,10.981,10.981,0,0,1-1.83-.385,7.862,7.862,0,0,1,1.859.2A9.534,9.534,0,0,1,256.436,116Z" transform="translate(-197.945 -85.921)" fill="#e0e0e0"/>
        <path id="Path_11100" data-name="Path 11100" d="M185.63,118.412c0,.05-5.1-.627-11.376-1.517s-11.361-1.65-11.354-1.7,5.1.627,11.379,1.517S185.63,118.365,185.63,118.412Z" transform="translate(-140.467 -85.805)" fill="#e0e0e0"/>
        <path id="Path_11101" data-name="Path 11101" d="M175.148,126.1a2.187,2.187,0,0,1-.252-.022l-.72-.094-2.63-.385-8.667-1.333c-3.382-.533-6.441-1.03-8.645-1.4l-2.619-.45c-.31-.058-.548-.1-.72-.137a1.113,1.113,0,0,1-.245-.065,1.606,1.606,0,0,1,.252.029l.72.1,2.63.393,8.667,1.344,8.645,1.39,2.619.443.72.13a1.01,1.01,0,0,1,.245.058Z" transform="translate(-132.63 -90.295)" fill="#e0e0e0"/>
        <path id="Path_11102" data-name="Path 11102" d="M162.78,134.457a4.23,4.23,0,0,1-.937-.083c-.609-.079-1.491-.2-2.583-.36-2.179-.313-5.187-.771-8.5-1.29s-6.325-1.005-8.5-1.365l-2.572-.432-.7-.13a1.1,1.1,0,0,1-.241-.058,1.041,1.041,0,0,1,.245.022l.7.09,2.583.36,8.5,1.308,8.5,1.347Z" transform="translate(-125.016 -95.751)" fill="#e0e0e0"/>
        <path id="Path_11103" data-name="Path 11103" d="M243.226,127.9a9.646,9.646,0,0,1-1.866-.216,11.555,11.555,0,0,1-1.83-.385,8,8,0,0,1,1.862.2,9.212,9.212,0,0,1,1.834.4Z" transform="translate(-189.494 -93.534)" fill="#e0e0e0"/>
        <path id="Path_11104" data-name="Path 11104" d="M233.036,133.556a9.646,9.646,0,0,1-1.866-.216,11.559,11.559,0,0,1-1.83-.385,8,8,0,0,1,1.862.2,9.21,9.21,0,0,1,1.834.4Z" transform="translate(-182.974 -97.156)" fill="#e0e0e0"/>
        <path id="Path_11105" data-name="Path 11105" d="M219.316,143.106a9.648,9.648,0,0,1-1.866-.216,11.093,11.093,0,0,1-1.83-.385,7.9,7.9,0,0,1,1.862.2A9.365,9.365,0,0,1,219.316,143.106Z" transform="translate(-174.196 -103.266)" fill="#e0e0e0"/>
        <path id="Path_11106" data-name="Path 11106" d="M149.757,151.609c0,.054-6.307-.875-14.048-2.068s-14.048-2.2-14.048-2.255,6.3.875,14.048,2.071S149.764,151.559,149.757,151.609Z" transform="translate(-114.082 -106.337)" fill="#e0e0e0"/>
        <path id="Path_11107" data-name="Path 11107" d="M172.863,175.568c0,.05-2.075-.241-4.611-.652s-4.589-.785-4.582-.836,2.075.241,4.611.652S172.87,175.514,172.863,175.568Z" transform="translate(-140.96 -123.477)" fill="#e0e0e0"/>
      </g>
      <g id="freepik--Floor--inject-67" transform="translate(0 154.85)">
        <path id="Path_11108" data-name="Path 11108" d="M189.779,463.584c0,.054-34.743.094-77.591.094s-77.6-.04-77.6-.094,34.736-.094,77.6-.094S189.779,463.533,189.779,463.584Z" transform="translate(-34.59 -463.49)" fill="#263238"/>
      </g>
      <g id="freepik--Character--inject-67" transform="translate(0.898 26.2)">
        <path id="Path_11109" data-name="Path 11109" d="M132.507,124.52l.029,1.441s.587,11.167.551,12.845-5.637,11.257-5.637,11.257l3.44,5.609L139.1,140.9l-1.967-15.85-.05-.393" transform="translate(-94.899 -117.973)" fill="#ffbe9d"/>
        <path id="Path_11110" data-name="Path 11110" d="M143.428,112.507l-1.106-4.067L138,110.94a31.536,31.536,0,0,0,1.293,3.292l.749.778s3.757-.4,3.836-.436A17.4,17.4,0,0,0,143.428,112.507Z" transform="translate(-101.648 -107.685)" fill="#ffbe9d"/>
        <path id="Path_11111" data-name="Path 11111" d="M148.347,108.267a.315.315,0,0,1,.043.086c.166.439.648,2.424.429,2.572s-.962.184-1.081-.065-.53-2.522-.53-2.522-.043-.36.526-.6C148.088,107.6,148.347,108.267,148.347,108.267Z" transform="translate(-107.54 -107.223)" fill="#ffbe9d"/>
        <path id="Path_11112" data-name="Path 11112" d="M144.547,107.145a.327.327,0,0,1,.043.083c.166.443.648,2.424.429,2.572s-.962.184-1.081-.065-.53-2.522-.53-2.522-.04-.36.526-.6C144.288,106.475,144.547,107.145,144.547,107.145Z" transform="translate(-105.109 -106.505)" fill="#ffbe9d"/>
        <path id="Path_11113" data-name="Path 11113" d="M141.071,107.025a.209.209,0,0,1,.043.086c.166.439.645,2.424.425,2.572s-.958.184-1.081-.065-.53-2.522-.53-2.522-.043-.36.526-.6C140.811,106.344,141.071,107.025,141.071,107.025Z" transform="translate(-102.882 -106.429)" fill="#ffbe9d"/>
        <path id="Path_11114" data-name="Path 11114" d="M137.631,106.89a.209.209,0,0,1,.043.086c.166.439.645,2.424.425,2.572s-.962.184-1.081-.065-.53-2.522-.53-2.522-.043-.36.526-.6C137.371,106.22,137.631,106.89,137.631,106.89Z" transform="translate(-100.681 -106.344)" fill="#ffbe9d"/>
        <path id="Path_11115" data-name="Path 11115" d="M147.489,111.411a7.83,7.83,0,0,0-.429-1.931,7.828,7.828,0,0,0,.429,1.931Z" transform="translate(-107.445 -108.35)" fill="#eb996e"/>
        <path id="Path_11116" data-name="Path 11116" d="M143.932,110.783a7.517,7.517,0,0,0-.241-1.394,7.366,7.366,0,0,0-.36-1.369,8.376,8.376,0,0,0,.241,1.394A8.228,8.228,0,0,0,143.932,110.783Z" transform="translate(-105.059 -107.416)" fill="#eb996e"/>
        <g id="Group_8962" data-name="Group 8962" transform="translate(37.072 0.809)" opacity="0.78">
          <path id="Path_11117" data-name="Path 11117" d="M140.6,111.356a8.393,8.393,0,0,0-.241-1.4,8.232,8.232,0,0,0-.36-1.369,7.562,7.562,0,0,0,.241,1.4A7.473,7.473,0,0,0,140.6,111.356Z" transform="translate(-140 -108.59)" fill="#eb996e"/>
        </g>
        <path id="Path_11118" data-name="Path 11118" d="M139.964,115.819l-1.311-1.059a2.856,2.856,0,0,1-1.041-1.862l-.072-.558,3.962-.8s0,1.473-1.117,1.491l1.394.72Z" transform="translate(-101.354 -109.668)" fill="#ffbe9d"/>
        <path id="Path_11119" data-name="Path 11119" d="M141.634,113.806a4.1,4.1,0,0,0-.342-.382,1.837,1.837,0,0,0-1.2-.486h-.425l.4-.148.915-.339h0a1.081,1.081,0,0,0,.569-1.023.54.54,0,0,0-.018-.094l.112.061c-1.106.274-2.107.5-2.839.63-.36.065-.663.1-.872.13a1.142,1.142,0,0,1-.321,0,11.5,11.5,0,0,1,1.164-.274c.72-.155,1.715-.407,2.82-.681l.086-.022.025.083a.894.894,0,0,1,.029.126,1.113,1.113,0,0,1-.169.72,1.574,1.574,0,0,1-.493.472h0l-.926.317-.025-.151a1.841,1.841,0,0,1,1.268.58A.962.962,0,0,1,141.634,113.806Z" transform="translate(-101.399 -109.438)" fill="#eb996e"/>
        <path id="Path_11120" data-name="Path 11120" d="M148.1,110.347c.032,0,.1.18.3.36a.339.339,0,0,0,.393.058.515.515,0,0,0,.177-.49c-.047-.447-.072-.865-.112-1.153a1.944,1.944,0,0,1-.061-.483c.029-.011.112.159.191.457a8.872,8.872,0,0,1,.169,1.167.663.663,0,0,1-.274.648.479.479,0,0,1-.573-.1.865.865,0,0,1-.187-.324C148.1,110.4,148.091,110.354,148.1,110.347Z" transform="translate(-108.108 -107.812)" fill="#eb996e"/>
        <path id="Path_11121" data-name="Path 11121" d="M104.985,149.653a3.4,3.4,0,0,1,2.522,1.225c.674.7,1.171,1.527,1.859,2.2a6.229,6.229,0,0,1,1.441,1.578c.493,1.03.079,2.359.72,3.318.36.537.969.854,1.333,1.383a3.394,3.394,0,0,1,.317,2.338,2.727,2.727,0,0,1-.566,1.549,2.666,2.666,0,0,1-1.135.627,16.21,16.21,0,0,1-9.726.209" transform="translate(-78.456 -134.05)" fill="#263238"/>
        <path id="Path_11122" data-name="Path 11122" d="M92.332,157.61a4.953,4.953,0,0,1,4.449-5.547,5.043,5.043,0,0,1,5.382,4.323,51.87,51.87,0,0,1,.634,5.461,4.039,4.039,0,0,1-2.122,3.829,3.241,3.241,0,0,1-.67.166h0v.018l.566,2.918a3.288,3.288,0,0,1-2.72,3.894,3.36,3.36,0,0,1-3.7-3.1Z" transform="translate(-72.406 -135.584)" fill="#ffbe9d"/>
        <path id="Path_11123" data-name="Path 11123" d="M115.643,167.691c-.04.058-.36-.122-.807-.058s-.72.324-.767.277,0-.119.133-.241a1.12,1.12,0,0,1,.605-.288,1.081,1.081,0,0,1,.652.112C115.607,167.575,115.664,167.662,115.643,167.691Z" transform="translate(-86.326 -145.387)" fill="#263238"/>
        <path id="Path_11124" data-name="Path 11124" d="M105.014,169.993c-.043.058-.36-.122-.807-.058s-.72.324-.771.281,0-.122.133-.241a1.081,1.081,0,0,1,.609-.288,1.048,1.048,0,0,1,.652.108C104.974,169.878,105.035,169.965,105.014,169.993Z" transform="translate(-79.523 -146.862)" fill="#263238"/>
        <path id="Path_11125" data-name="Path 11125" d="M110.72,169.885a3.058,3.058,0,0,1,.681-.227c.108-.029.209-.065.216-.14a.58.58,0,0,0-.122-.317l-.447-.789A14.888,14.888,0,0,1,110,166.33a14.263,14.263,0,0,1,1.214,1.992c.151.277.3.544.436.8a.659.659,0,0,1,.119.425.288.288,0,0,1-.159.187.807.807,0,0,1-.18.05A2.647,2.647,0,0,1,110.72,169.885Z" transform="translate(-83.735 -144.722)" fill="#263238"/>
        <path id="Path_11126" data-name="Path 11126" d="M106.728,189.379a6.909,6.909,0,0,1-3.9-.569s.973,2.1,4.052,1.354Z" transform="translate(-79.147 -159.104)" fill="#eb996e"/>
        <path id="Path_11127" data-name="Path 11127" d="M109.7,178.782a.782.782,0,0,0-.72-.184.72.72,0,0,0-.45.331.461.461,0,0,0,.04.519.537.537,0,0,0,.587.061,1.707,1.707,0,0,0,.5-.411.508.508,0,0,0,.1-.144.14.14,0,0,0-.025-.158" transform="translate(-82.755 -152.556)" fill="#eb996e"/>
        <path id="Path_11128" data-name="Path 11128" d="M108.512,177.54c.068,0,.137.454.584.72s.94.148.951.212-.1.108-.306.144a1.167,1.167,0,0,1-.789-.155,1.009,1.009,0,0,1-.461-.612C108.443,177.666,108.479,177.544,108.512,177.54Z" transform="translate(-82.754 -151.894)" fill="#263238"/>
        <path id="Path_11129" data-name="Path 11129" d="M103.555,166.284c-.025.126-.465.13-.962.267s-.883.331-.965.234c-.036-.043,0-.166.166-.3a1.733,1.733,0,0,1,1.466-.382C103.468,166.147,103.573,166.226,103.555,166.284Z" transform="translate(-78.37 -144.553)" fill="#263238"/>
        <path id="Path_11130" data-name="Path 11130" d="M114.66,163.957c-.061.108-.36.05-.72.1s-.648.162-.72.068,0-.151.112-.263a1.055,1.055,0,0,1,.569-.245,1,1,0,0,1,.609.112C114.627,163.809,114.685,163.9,114.66,163.957Z" transform="translate(-85.775 -142.979)" fill="#263238"/>
        <path id="Path_11131" data-name="Path 11131" d="M105.359,153.157c-.526.8-2.194.306-3.2-.245a2.392,2.392,0,0,1-3.271-.674,1.316,1.316,0,0,1-2.161-.335,2.641,2.641,0,0,1,.4-2.691,3.75,3.75,0,0,1,2.291-1.246,5.313,5.313,0,0,1,5.4,2.223,3.55,3.55,0,0,1,.558,2.972" transform="translate(-75.106 -132.911)" fill="#263238"/>
        <path id="Path_11132" data-name="Path 11132" d="M87.426,151.35c-1.891-.36-3.714,1.524-3.9,2.882-.328,2.341,0,2.633-.439,3.753-.277.72-1.239,1.477-1.617,2.23a4.535,4.535,0,0,0-.122,3.033c.238.72,1.214,2.748,1.214,2.748a26.906,26.906,0,0,0,4.247-.457,2.4,2.4,0,0,0,1.016-.476c.274-.249-.292-1.106-.238-1.47.148-1.037.922-1.639.72-2.662-.3-1.358-1.365-1.441-1.344-2.821,0-.72,1.113-1.8,1.214-2.522s.526-3.278-.72-4.222" transform="translate(-65.271 -135.109)" fill="#263238"/>
        <path id="Path_11133" data-name="Path 11133" d="M86.54,170.751s-.137-.158-.36-.447a6.218,6.218,0,0,1-.836-1.329,4.4,4.4,0,0,1-.411-2.255,3.573,3.573,0,0,1,1.246-2.449c.389-.313.832-.551,1.21-.868a2.381,2.381,0,0,0,.789-1.174,7.782,7.782,0,0,0,.234-1.25,5.764,5.764,0,0,1,.213-1.063,1.855,1.855,0,0,1,.947-1.16,1.552,1.552,0,0,1,.558-.115.418.418,0,0,0-.151-.022,1.12,1.12,0,0,0-.432.079,1.862,1.862,0,0,0-1.045,1.178,5.421,5.421,0,0,0-.241,1.081,7.479,7.479,0,0,1-.245,1.221,2.183,2.183,0,0,1-.746,1.081c-.36.3-.807.537-1.214.868a3.689,3.689,0,0,0-1.29,2.561,4.47,4.47,0,0,0,.454,2.32,5.763,5.763,0,0,0,.893,1.322c.126.137.234.241.306.306A.586.586,0,0,0,86.54,170.751Z" transform="translate(-67.584 -139.788)" fill="#455a64"/>
        <path id="Path_11134" data-name="Path 11134" d="M122.342,169.694a.845.845,0,0,0,.072-.1,3.167,3.167,0,0,0,.159-.317,3.386,3.386,0,0,0,.245-1.275,3.444,3.444,0,0,0-.53-1.852,8.087,8.087,0,0,0-.72-.89,2.374,2.374,0,0,1-.562-1.016,15.47,15.47,0,0,1,.036-2.32,3.883,3.883,0,0,0-.519-1.855,3.206,3.206,0,0,0-.879-.955,3.09,3.09,0,0,0-.3-.184l-.112-.05a4.477,4.477,0,0,0,.36.285,3.31,3.31,0,0,1,.818.965,3.858,3.858,0,0,1,.465,1.8,7.115,7.115,0,0,1-.068,1.117,3.84,3.84,0,0,0,.025,1.232,2.522,2.522,0,0,0,.6,1.081,8.6,8.6,0,0,1,.72.868,3.357,3.357,0,0,1,.54,1.769,3.6,3.6,0,0,1-.187,1.254C122.411,169.539,122.328,169.687,122.342,169.694Z" transform="translate(-89.64 -139.955)" fill="#455a64"/>
        <path id="Path_11135" data-name="Path 11135" d="M105.66,148.787a8.793,8.793,0,0,1,1.218.068,4.434,4.434,0,0,1,2.522,1.362,5.515,5.515,0,0,1,1.214,2.626,7,7,0,0,1,.061,1.221,1.13,1.13,0,0,0,.068-.328,3.9,3.9,0,0,0,0-.908,5.267,5.267,0,0,0-1.207-2.723,4.359,4.359,0,0,0-2.63-1.365,3.737,3.737,0,0,0-.911,0A1.081,1.081,0,0,0,105.66,148.787Z" transform="translate(-80.958 -133.451)" fill="#455a64"/>
        <path id="Path_11136" data-name="Path 11136" d="M104.236,152.931a.919.919,0,0,0,.04-.285,2.882,2.882,0,0,0-.083-.785,3.242,3.242,0,0,0-4.052-2.385,2.907,2.907,0,0,0-.72.306c-.159.1-.238.166-.231.176a5.594,5.594,0,0,1,.983-.36,3.22,3.22,0,0,1,3.912,2.3A6.273,6.273,0,0,1,104.236,152.931Z" transform="translate(-76.818 -133.859)" fill="#455a64"/>
        <path id="Path_11137" data-name="Path 11137" d="M80.329,196.8s1.246,2.839,1.174,4.182a46.355,46.355,0,0,1-1.358,5.709l15.234,1.423.068-3.523L94.99,190.1l8.494-12.921-6.426-3.725-6.25,8.483-1.581-.612-6.844.865v1.189l-.195.022a14.012,14.012,0,0,0-4.258,1.668,7.132,7.132,0,0,0-3.264,7.23,10.957,10.957,0,0,0,1.855,5.043C78.517,199.663,80.329,196.8,80.329,196.8Z" transform="translate(-61.066 -149.277)" fill="#dfbd8d"/>
        <path id="Path_11138" data-name="Path 11138" d="M83.495,208.17s-.778-4.423-.562-4.744a13.122,13.122,0,0,1,3.516-1.614l.7,4.863Z" transform="translate(-66.393 -167.416)" fill="#fafafa"/>
        <path id="Path_11139" data-name="Path 11139" d="M119.954,220.16l-.364,8.483h3.2V220.16Z" transform="translate(-89.87 -179.161)" fill="#fafafa"/>
        <path id="Path_11140" data-name="Path 11140" d="M105.071,231.882a.794.794,0,0,1,.18,0h.551l2.107-.032h.061v.065c.022,2.035.032,5.079.032,8.483v.094H104.61V240.4c.119-2.446.227-4.571.3-6.124.043-.72.076-1.322.1-1.754a4.228,4.228,0,0,1,.032-.465.609.609,0,0,1,0-.151,1.334,1.334,0,0,1,0,.173v.483c0,.439-.029,1.037-.05,1.779-.054,1.524-.13,3.627-.216,6.052l-.09-.094h3.2l-.094.094c0-3.4,0-6.448.032-8.483l.061.061-2.06-.065h-.566Z" transform="translate(-80.286 -186.64)" fill="#fafafa"/>
        <path id="Path_11141" data-name="Path 11141" d="M134.179,194.1l-3.379-2.136,2.968-4.333,3.462,2.01Z" transform="translate(-97.042 -158.349)" fill="#fafafa"/>
        <g id="Group_8963" data-name="Group 8963" transform="translate(23.841 36.01)" opacity="0.4">
          <rect id="Rectangle_1829" data-name="Rectangle 1829" width="9.917" height="3.217" fill="#fff"/>
        </g>
        <path id="Path_11142" data-name="Path 11142" d="M129.159,217.457a.843.843,0,0,1,0-.3c.025-.191.058-.465.086-.8a14.923,14.923,0,0,0,0-2.644,14.684,14.684,0,0,0-.483-2.6c-.18-.652-.328-1.048-.3-1.059s.061.086.137.263a7.8,7.8,0,0,1,.292.756,12.125,12.125,0,0,1,.54,2.622,11.754,11.754,0,0,1-.054,2.676,7.584,7.584,0,0,1-.148.8A.93.93,0,0,1,129.159,217.457Z" transform="translate(-95.545 -172.698)" fill="#263238"/>
        <path id="Path_11143" data-name="Path 11143" d="M135.465,177.36a4.815,4.815,0,0,1-.58.746c-.36.443-.9,1.048-1.5,1.711l-.634.7-.054.061-.065-.043c-.544-.36-1.009-.7-1.333-.929a2.473,2.473,0,0,1-.5-.4,3.031,3.031,0,0,1,.562.31c.342.209.821.511,1.372.872h-.115l.627-.72c.594-.663,1.138-1.25,1.538-1.671A5,5,0,0,1,135.465,177.36Z" transform="translate(-97.042 -151.779)" fill="#fafafa"/>
        <path id="Path_11144" data-name="Path 11144" d="M141.73,179.549a6.157,6.157,0,0,1-1-.461c-.609-.306-1.441-.746-2.352-1.236s-1.733-.947-2.323-1.282a6.752,6.752,0,0,1-.937-.58,6.258,6.258,0,0,1,1,.461c.605.31,1.441.746,2.349,1.236s1.733.947,2.323,1.282a6.481,6.481,0,0,1,.937.58Z" transform="translate(-99.806 -150.902)" fill="#263238"/>
        <path id="Path_11145" data-name="Path 11145" d="M50,431.12,48.364,438.5l-2.975,5.468a.774.774,0,0,0,.36,1.081h0a.771.771,0,0,0,.72-.032c1.383-.8,6.459-3.768,6.549-4.323.1-.634,2.241-7.673,2.241-7.673Z" transform="translate(-42.336 -314.13)" fill="#dfbd8d"/>
        <g id="Group_8964" data-name="Group 8964" transform="translate(3.41 126.068)" opacity="0.6">
          <path id="Path_11146" data-name="Path 11146" d="M46.55,461.161l7.366-4.841-.076.31a1.185,1.185,0,0,1-.436.656c-.6.432-2.284,1.6-6.124,3.836a.774.774,0,0,1-.72.025Z" transform="translate(-46.55 -456.32)" fill="#fff"/>
        </g>
        <g id="Group_8965" data-name="Group 8965" transform="translate(9.575 123.308)" opacity="0.6">
          <path id="Path_11147" data-name="Path 11147" d="M63.956,448.68a.468.468,0,0,0-.27.566.447.447,0,0,0,.555.27.493.493,0,0,0,.285-.6.472.472,0,0,0-.612-.22" transform="translate(-63.666 -448.658)" fill="#fff"/>
        </g>
        <path id="Path_11148" data-name="Path 11148" d="M51.068,460.007a2.3,2.3,0,0,0-.5-.72,2.349,2.349,0,0,0-.807-.36c0-.022.1-.054.285-.036a1.214,1.214,0,0,1,.627.277,1.185,1.185,0,0,1,.385.573C51.1,459.892,51.089,460.007,51.068,460.007Z" transform="translate(-45.194 -331.894)" fill="#263238"/>
        <path id="Path_11149" data-name="Path 11149" d="M49.024,462.975c-.043.022-.22-.274-.573-.475a5.8,5.8,0,0,0-.692-.267.861.861,0,0,1,.778.122C48.927,462.589,49.068,462.964,49.024,462.975Z" transform="translate(-43.915 -334.007)" fill="#263238"/>
        <path id="Path_11150" data-name="Path 11150" d="M53.692,456.825a8.29,8.29,0,0,0-.836-.792,7.873,7.873,0,0,0-1.027-.522,2.125,2.125,0,0,1,1.862,1.315Z" transform="translate(-46.518 -329.734)" fill="#263238"/>
        <path id="Path_11151" data-name="Path 11151" d="M55.485,451.91c-.029.04-.393-.23-.915-.378s-.973-.126-.98-.173a1.5,1.5,0,0,1,1.027,0,1.48,1.48,0,0,1,.868.551Z" transform="translate(-47.644 -327.02)" fill="#263238"/>
        <path id="Path_11152" data-name="Path 11152" d="M56.821,445.957a2.492,2.492,0,0,0-1.981-.421c0-.018.1-.09.288-.148a1.678,1.678,0,0,1,.782-.022,1.719,1.719,0,0,1,.72.331C56.771,445.834,56.836,445.932,56.821,445.957Z" transform="translate(-48.444 -323.221)" fill="#263238"/>
        <path id="Path_11153" data-name="Path 11153" d="M56.3,442.254a.587.587,0,0,1,.058-.277,1.974,1.974,0,0,1,.4-.674.868.868,0,0,1,.468-.321.317.317,0,0,1,.324.151.522.522,0,0,1,.032.36,1.081,1.081,0,0,1-1.171.756,1.272,1.272,0,0,1-1.055-.944.454.454,0,0,1,.068-.36.3.3,0,0,1,.36-.079,1.1,1.1,0,0,1,.421.36,2.252,2.252,0,0,1,.36.7.641.641,0,0,1,.05.281,3.4,3.4,0,0,0-.5-.9.955.955,0,0,0-.36-.313.155.155,0,0,0-.191.043.288.288,0,0,0-.029.238,1.131,1.131,0,0,0,.922.807.947.947,0,0,0,1.005-.627.36.36,0,0,0,0-.252.166.166,0,0,0-.177-.086.781.781,0,0,0-.4.263A2.925,2.925,0,0,0,56.3,442.254Z" transform="translate(-48.769 -320.347)" fill="#263238"/>
        <g id="Group_8966" data-name="Group 8966" transform="translate(7.25 116.99)" opacity="0.3">
          <path id="Path_11154" data-name="Path 11154" d="M57.43,431.92l-.22,1.052,5.212,1.527.447-1.477-5.248-1.9Z" transform="translate(-57.21 -431.12)"/>
        </g>
        <path id="Path_11155" data-name="Path 11155" d="M113.927,438.278l-.443,5.9s5.846,2.428,5.872,3.527l-11.466-.443.31-9.218Z" transform="translate(-82.385 -318.557)" fill="#dfbd8d"/>
        <g id="Group_8967" data-name="Group 8967" transform="translate(27.226 124.983)" opacity="0.6">
          <path id="Path_11156" data-name="Path 11156" d="M113.013,453.31a.468.468,0,0,0-.342.522.45.45,0,0,0,.512.36.493.493,0,0,0,.36-.555.472.472,0,0,0-.576-.3" transform="translate(-112.665 -453.31)" fill="#fff"/>
        </g>
        <g id="Group_8968" data-name="Group 8968" transform="translate(25.505 127.771)" opacity="0.6">
          <path id="Path_11157" data-name="Path 11157" d="M107.89,461.979l.068-.929,10.969.774s.5.241.429.6Z" transform="translate(-107.89 -461.05)" fill="#fff"/>
        </g>
        <path id="Path_11158" data-name="Path 11158" d="M122.043,454.838c0,.054-.285.068-.566.238s-.439.4-.49.378.047-.36.393-.544S122.065,454.787,122.043,454.838Z" transform="translate(-90.756 -329.271)" fill="#263238"/>
        <path id="Path_11159" data-name="Path 11159" d="M125.822,456.393c0,.054-.234.14-.436.36s-.263.475-.321.472-.076-.324.176-.6S125.822,456.339,125.822,456.393Z" transform="translate(-93.35 -330.282)" fill="#263238"/>
        <path id="Path_11160" data-name="Path 11160" d="M128.894,458.83c-.05,0-.119-.274.036-.573s.425-.414.447-.36-.148.205-.27.454S128.941,458.827,128.894,458.83Z" transform="translate(-95.785 -331.253)" fill="#263238"/>
        <path id="Path_11161" data-name="Path 11161" d="M121.688,450.773c-.025.051-.281-.04-.6-.029s-.566.1-.594.05.216-.241.591-.245S121.717,450.73,121.688,450.773Z" transform="translate(-90.448 -326.561)" fill="#263238"/>
        <g id="Group_8969" data-name="Group 8969" transform="translate(25.743 120.455)" opacity="0.3">
          <path id="Path_11162" data-name="Path 11162" d="M114.259,441.172l-.076,1.052-5.634-.27.036-1.214Z" transform="translate(-108.55 -440.74)"/>
        </g>
        <path id="Path_11163" data-name="Path 11163" d="M120.958,446.119a1.081,1.081,0,0,1-.576-.025,2.63,2.63,0,0,1-.594-.209,2.739,2.739,0,0,1-.321-.187.649.649,0,0,1-.169-.141.241.241,0,0,1,0-.3.3.3,0,0,1,.252-.119.72.72,0,0,1,.213.036,2.053,2.053,0,0,1,.36.137,2,2,0,0,1,.515.36c.256.259.339.472.321.483s-.148-.166-.411-.378a2.425,2.425,0,0,0-.5-.31,2.163,2.163,0,0,0-.324-.112c-.119-.04-.223-.043-.256,0s0,.029,0,.065a.521.521,0,0,0,.122.1,2.7,2.7,0,0,0,.3.187,3.317,3.317,0,0,0,.548.234A3.849,3.849,0,0,1,120.958,446.119Z" transform="translate(-89.65 -323.099)" fill="#263238"/>
        <path id="Path_11164" data-name="Path 11164" d="M123.543,444.865a.919.919,0,0,1-.13-.558,1.913,1.913,0,0,1,.1-.627,1.8,1.8,0,0,1,.158-.342.483.483,0,0,1,.36-.277.27.27,0,0,1,.234.169.748.748,0,0,1,.05.213,1.39,1.39,0,0,1,0,.389,1.351,1.351,0,0,1-.27.584c-.234.288-.472.36-.475.328a2.884,2.884,0,0,0,.36-.411,1.408,1.408,0,0,0,.2-.533,1.135,1.135,0,0,0,0-.331c0-.122-.054-.223-.1-.213a.416.416,0,0,0-.205.18,1.744,1.744,0,0,0-.155.306,2.108,2.108,0,0,0-.133.569C123.525,444.645,123.576,444.858,123.543,444.865Z" transform="translate(-92.314 -321.769)" fill="#263238"/>
        <path id="Path_11165" data-name="Path 11165" d="M78.843,200.081l2.965.166a14.868,14.868,0,0,0,.839,2.431,49.355,49.355,0,0,0,4.7-11.93c-.068-.223-.148-.468-.245-.746a3.138,3.138,0,0,1,.036-1.254c.083-.5.22-1.167.263-1.477.126-.944.277-1.081.609-.983.447.144-.184,2.648.18,2.7.2.029.439-.829.508-1.531a11.255,11.255,0,0,1,.623-3.015c.36-.213.638.122.551.825s-.2,2.824.176,2.853.674-3.563.674-3.563-.058-.778.36-.76c.778.032.169,3.818.1,4.175-.047.249.36.3.393.025s.223-3.6,1.016-3.563c.605.022-.472,3.119-.13,3.836s.576-2.439,1.156-2.4c.216,0,.36.058-.022,1.844a40.042,40.042,0,0,1-1.387,4.189c-.919,4.953-4.949,20.8-11.268,17.9-3.537-1.625-5.187-9.661-5.187-9.661Z" transform="translate(-61.828 -155.898)" fill="#ffbe9d"/>
        <path id="Path_11166" data-name="Path 11166" d="M112.194,191.685a.454.454,0,0,1,.032-.108c.025-.079.061-.184.1-.31.1-.288.238-.688.414-1.2s.393-1.156.609-1.906a12.419,12.419,0,0,0,.281-1.214c.04-.216.083-.439.108-.67a2.16,2.16,0,0,0,0-.342c0-.119-.025-.213-.119-.216s-.162.054-.227.155a1.9,1.9,0,0,0-.151.335c-.083.238-.151.49-.216.749s-.126.526-.205.8a1.225,1.225,0,0,1-.18.418.144.144,0,0,1-.2.025.36.36,0,0,1-.083-.115.922.922,0,0,1-.065-.231,7.662,7.662,0,0,1,.18-1.8c.054-.3.108-.609.148-.919a4.1,4.1,0,0,0,.036-.468c0-.14,0-.335-.083-.36s-.216.058-.288.187a1.866,1.866,0,0,0-.2.429,6.868,6.868,0,0,0-.234.965c-.058.335-.1.674-.14,1.016a4.691,4.691,0,0,1-.05.519l-.022.263a.393.393,0,0,1-.119.3.3.3,0,0,1-.36,0,.259.259,0,0,1-.112-.169.288.288,0,0,1,0-.1v-.065c.025-.176.054-.36.079-.53q.076-.54.13-1.081t.065-1.081a3.652,3.652,0,0,0-.108-1.081.36.36,0,0,0-.151-.22.191.191,0,0,0-.205.065.994.994,0,0,0-.112.587h0c-.065.72-.144,1.408-.245,2.093a9.821,9.821,0,0,1-.195,1.019,2.259,2.259,0,0,1-.079.252.519.519,0,0,1-.169.259.187.187,0,0,1-.223-.047.418.418,0,0,1-.079-.137,1.26,1.26,0,0,1-.068-.259,9.606,9.606,0,0,1-.018-1.981,5.5,5.5,0,0,0,.047-.926.5.5,0,0,0-.166-.342.184.184,0,0,0-.155-.025.3.3,0,0,0-.086.036.123.123,0,0,0-.043.05,4.4,4.4,0,0,0-.238.843c-.058.288-.108.576-.155.861s-.086.562-.122.839-.058.551-.112.821a4.107,4.107,0,0,1-.213.782,1.054,1.054,0,0,1-.086.184c-.043.058-.065.133-.18.169a.155.155,0,0,1-.155-.065.465.465,0,0,1-.047-.112,1.4,1.4,0,0,1-.025-.2c0-.515.072-.987.1-1.441a3.311,3.311,0,0,0,0-.656.227.227,0,0,0-.346-.234.872.872,0,0,0-.223.493c-.043.187-.061.36-.1.551-.126.72-.259,1.329-.321,1.83a2.32,2.32,0,0,0,0,.666c.043.18.1.342.137.468l.086.3a.3.3,0,0,1,.025.1.36.36,0,0,1-.04-.1l-.1-.285c-.043-.13-.1-.277-.158-.475a2.367,2.367,0,0,1,0-.681c.054-.511.177-1.12.292-1.837.032-.177.05-.36.094-.558a1.758,1.758,0,0,1,.079-.292.519.519,0,0,1,.187-.277.389.389,0,0,1,.36,0c.144.083.148.22.173.324a3.6,3.6,0,0,1,0,.681c-.022.461-.094.944-.083,1.441a1.26,1.26,0,0,0,.022.173c0,.058.043.079.036.068s.058-.05.083-.1a1.777,1.777,0,0,0,.079-.166,4.474,4.474,0,0,0,.2-.756c.05-.259.065-.533.1-.81s.072-.562.119-.847.094-.576.151-.868a4.135,4.135,0,0,1,.256-.893.266.266,0,0,1,.1-.115.555.555,0,0,1,.126-.054.36.36,0,0,1,.288.047.666.666,0,0,1,.249.461,1.884,1.884,0,0,1,0,.494c0,.155-.029.313-.04.472a9.651,9.651,0,0,0,0,1.934,1.348,1.348,0,0,0,.058.223.306.306,0,0,0,.047.079h0v0a.591.591,0,0,0,.086-.166c.025-.076.05-.155.072-.234.079-.321.137-.659.187-1,.1-.681.177-1.376.241-2.082h0a1.171,1.171,0,0,1,.151-.72.36.36,0,0,1,.421-.122.515.515,0,0,1,.259.331,3.75,3.75,0,0,1,.119,1.138c0,.36-.032.742-.068,1.109s-.079.72-.13,1.081c-.025.18-.054.36-.079.533a.258.258,0,0,0,0,.151.133.133,0,0,0,.14,0c.04-.025.043-.079.05-.177l.025-.263c0-.173.036-.36.05-.519.04-.36.086-.692.144-1.027a7.145,7.145,0,0,1,.241-.994,2.133,2.133,0,0,1,.22-.468.721.721,0,0,1,.195-.2.288.288,0,0,1,.479.223,1.554,1.554,0,0,1,.018.256,4.281,4.281,0,0,1-.043.486c-.04.317-.1.623-.151.926a7.532,7.532,0,0,0-.187,1.751.573.573,0,0,0,.05.184.27.27,0,0,0,.036.061h0v-.018a1.206,1.206,0,0,0,.148-.36c.079-.263.14-.53.209-.789s.137-.515.227-.76a2.029,2.029,0,0,1,.166-.36.519.519,0,0,1,.137-.158.278.278,0,0,1,.108-.054.306.306,0,0,1,.115,0,.231.231,0,0,1,.191.141.587.587,0,0,1,.04.2,2,2,0,0,1-.022.36c-.025.238-.072.461-.115.681a11.58,11.58,0,0,1-.3,1.218c-.223.749-.45,1.383-.638,1.9s-.36.919-.447,1.185c-.05.126-.094.227-.122.306A.286.286,0,0,0,112.194,191.685Z" transform="translate(-81.797 -155.676)" fill="#eb996e"/>
        <path id="Path_11167" data-name="Path 11167" d="M75.7,225.193c.573,2.024,1.693,5.151,2.882,8.451a.573.573,0,0,0,1.055.05l2.954-6.25s-.72-5.133-.652-4.953-6.095.666-6.095.666Z" transform="translate(-61.79 -180.65)" fill="#dfbd8d"/>
        <path id="Path_11168" data-name="Path 11168" d="M93.869,224.388a.692.692,0,0,0-.227-.1.562.562,0,0,0-.573.151l-.076.086-.047-.112c-.159-.4-.36-.926-.562-1.5a17.883,17.883,0,0,1-.774-2.431,16.845,16.845,0,0,1,.951,2.37c.209.573.389,1.1.522,1.513l-.122-.022a.619.619,0,0,1,.393-.184.652.652,0,0,1,.317.05C93.833,224.27,93.876,224.381,93.869,224.388Z" transform="translate(-71.969 -179.366)" fill="#263238"/>
        <path id="Path_11169" data-name="Path 11169" d="M86.25,237.485a4.784,4.784,0,0,1,.429-.886c.285-.533.688-1.268,1.149-2.071s.883-1.527,1.2-2.046a5.213,5.213,0,0,1,.544-.821,5.146,5.146,0,0,1-.429.886c-.285.537-.692,1.268-1.149,2.075s-.883,1.527-1.2,2.046a5.355,5.355,0,0,1-.544.818Z" transform="translate(-68.54 -186.519)" fill="#263238"/>
        <path id="Path_11170" data-name="Path 11170" d="M77.29,232.68a3.343,3.343,0,0,1,.515-.36c.335-.216.821-.519,1.412-.879l-.032.1c-.328-.767-.72-1.664-1.124-2.63-.512-1.214-.969-2.331-1.3-3.163l.1.032c-.468.256-.85.457-1.113.594a2.142,2.142,0,0,1-.425.194,2.028,2.028,0,0,1,.385-.263c.256-.158.623-.378,1.081-.645l.065-.04.032.072c.36.821.836,1.927,1.347,3.145.4.969.774,1.87,1.081,2.64l.025.065-.058.032c-.6.36-1.081.63-1.441.821A3.068,3.068,0,0,1,77.29,232.68Z" transform="translate(-61.547 -182.655)" fill="#fafafa"/>
        <path id="Path_11171" data-name="Path 11171" d="M68.854,324.575a2.115,2.115,0,0,0,2.05-1.985c.616-9.971,3.39-55.326,2.835-56.749-.627-1.6-2.273-7.161-2.273-7.161L56.758,258s-3.66,5.763-4.186,7.99c-.475,1.985-13.8,43.972-15.457,52.887a1.826,1.826,0,0,0,1.272,2.082Z" transform="translate(-37.085 -203.371)" fill="#ffa1f2"/>
        <path id="Path_11172" data-name="Path 11172" d="M62.883,258.87s-.018.054-.065.159l-.209.454-.821,1.736c-.162.385-.339.814-.537,1.279s-.414.976-.609,1.535-.432,1.149-.652,1.783-.425,1.311-.656,2.021l-.652,2.248c-.213.785-.414,1.607-.638,2.457s-.4,1.736-.612,2.648-.4,1.852-.587,2.82c-.4,1.931-.785,3.962-1.2,6.073s-.85,4.287-1.365,6.506c-.249,1.109-.537,2.19-.8,3.271s-.58,2.125-.9,3.152c-.623,2.057-1.308,4.016-2.006,5.861-1.412,3.692-2.882,6.938-4.143,9.636s-2.367,4.852-3.123,6.34l-.875,1.718c-.1.187-.177.335-.234.439a1.342,1.342,0,0,1-.083.148,1.343,1.343,0,0,1,.068-.155c.05-.108.122-.259.216-.45.2-.4.483-.983.85-1.725.72-1.495,1.8-3.66,3.065-6.365s2.7-5.951,4.1-9.639c.692-1.844,1.372-3.8,2-5.854.313-1.023.594-2.078.89-3.145s.555-2.161.8-3.274c.515-2.215.947-4.4,1.369-6.5s.8-4.139,1.207-6.07c.191-.969.407-1.909.6-2.82s.421-1.8.62-2.651.432-1.671.648-2.457.454-1.531.666-2.248l.663-2.035c.223-.634.457-1.225.666-1.779s.421-1.081.627-1.531.385-.893.551-1.275c.36-.753.656-1.333.85-1.725l.227-.443Z" transform="translate(-40.306 -203.927)" fill="#455a64"/>
        <path id="Path_11173" data-name="Path 11173" d="M63.71,322.421a.582.582,0,0,1,.036-.162c.036-.108.076-.277.13-.479l.512-1.837c.443-1.607,1.081-3.912,1.873-6.758s1.7-6.257,2.694-10.043c.49-1.895,1-3.883,1.535-5.944s1.048-4.207,1.6-6.4,1.045-4.323,1.545-6.412.947-4.074,1.394-5.98c.868-3.815,1.632-7.258,2.255-10.151s1.117-5.23,1.466-6.844c.169-.8.3-1.441.4-1.866.047-.205.083-.36.108-.483a1.053,1.053,0,0,1,.043-.166,1.49,1.49,0,0,1-.025.169c-.022.115-.05.277-.09.486-.083.436-.205,1.081-.36,1.873l-.594,2.947c-.241,1.153-.512,2.464-.814,3.912-.605,2.882-1.354,6.34-2.219,10.162-.436,1.906-.89,3.912-1.383,5.983s-1.012,4.218-1.538,6.415-1.081,4.323-1.6,6.394-1.048,4.052-1.542,5.944c-1.005,3.786-1.934,7.2-2.734,10.036l-1.081,3.843c-.328,1.128-.612,2.1-.843,2.882s-.418,1.4-.544,1.83c-.061.2-.112.36-.144.472A.826.826,0,0,1,63.71,322.421Z" transform="translate(-54.119 -203.947)" fill="#455a64"/>
        <path id="Path_11174" data-name="Path 11174" d="M92.607,259a.854.854,0,0,0,.025.166l.061.5c.025.22.058.49.094.8s.047.692.072,1.106c0,.209.025.429.036.659s0,.475,0,.72v.792c0,.274-.025.562-.036.857s-.029.6-.047.915-.058.641-.09.976c-.047.67-.162,1.369-.252,2.111-.223,1.473-.519,3.076-.9,4.787s-.821,3.527-1.282,5.439-.94,3.923-1.336,6.023-.72,4.29-1.016,6.542-.508,4.445-.76,6.574-.468,4.182-.72,6.124l-.389,2.853c-.151.919-.285,1.8-.436,2.68s-.306,1.693-.475,2.489-.339,1.556-.508,2.28-.36,1.409-.54,2.057-.382,1.246-.555,1.8c-.09.281-.169.555-.263.814s-.187.508-.274.746c-.176.472-.339.908-.486,1.3-.317.771-.594,1.354-.767,1.758l-.209.454c-.047.1-.076.151-.076.151a.382.382,0,0,1,.058-.162c.058-.1.112-.263.191-.461.166-.4.429-.994.72-1.765l.465-1.3.27-.742c.09-.259.166-.537.252-.818.169-.566.36-1.167.54-1.8l.526-2.053.5-2.28c.162-.8.3-1.628.465-2.489s.277-1.758.421-2.676.252-1.873.382-2.849c.241-1.952.475-4,.72-6.124s.472-4.323.76-6.588.627-4.449,1.023-6.556.883-4.117,1.347-6.026.919-3.728,1.3-5.432.684-3.307.919-4.776c.094-.72.213-1.441.263-2.1.036-.331.065-.656.1-.969s.036-.62.054-.915.04-.576.043-.854,0-.537,0-.789v-.72c0-.227-.022-.447-.029-.656-.022-.414-.022-.785-.054-1.1s-.054-.587-.076-.807-.032-.378-.043-.5A1.2,1.2,0,0,1,92.607,259Z" transform="translate(-65.488 -204.01)" fill="#455a64"/>
        <path id="Path_11175" data-name="Path 11175" d="M106.532,325.573a1.465,1.465,0,0,1-.04-.166c-.022-.119-.054-.281-.094-.49s-.086-.486-.144-.8-.133-.677-.169-1.081-.1-.875-.162-1.38-.072-1.059-.115-1.65c0-.3-.036-.605-.047-.919s0-.645,0-.983v-1.037c0-.357.029-.72.04-1.081s.032-.756.047-1.145.065-.789.094-1.2c.054-.814.159-1.653.259-2.522s.245-1.769.36-2.694.3-1.873.49-2.842c.72-3.887,1.693-8.112,2.594-12.572a126.253,126.253,0,0,0,1.891-12.683c.389-3.926.537-7.474.587-10.446V265.86c0-1.182-.05-2.2-.086-3.04s-.068-1.48-.086-1.92v-.5c0,.112.022.288.04.5.029.436.083,1.081.119,1.916s.086,1.855.119,3.04.043,2.522.036,4.027c-.032,2.986-.169,6.542-.548,10.472a124.428,124.428,0,0,1-1.88,12.7c-.9,4.467-1.891,8.688-2.608,12.568-.187.965-.335,1.916-.5,2.835s-.285,1.819-.378,2.691-.213,1.707-.267,2.522c-.036.4-.068.8-.1,1.189s-.036.771-.054,1.142-.029.738-.047,1.081V319.1c0,.313.029.62.043.915.036.591.036,1.146.1,1.646s.1.965.144,1.383.1.778.151,1.081l.13.8c.032.209.054.36.076.493S106.532,325.573,106.532,325.573Z" transform="translate(-81.02 -204.797)" fill="#455a64"/>
        <path id="Path_11176" data-name="Path 11176" d="M123.807,259.79s.018.054.05.162l.14.476.22.782a10.9,10.9,0,0,1,.252,1.081c.079.407.191.857.27,1.358s.148,1.045.231,1.632.1,1.218.151,1.888.054,1.376.04,2.122a45.175,45.175,0,0,1-.313,4.852c-.191,1.74-.49,3.584-.836,5.515l-1.131,6.059c-.4,2.1-.742,4.283-1.055,6.527s-.569,4.438-.778,6.563-.36,4.182-.483,6.142-.2,3.822-.234,5.569-.058,3.372-.05,4.856.029,2.828.065,4.006.079,2.194.112,3.022.072,1.466.094,1.909a4.352,4.352,0,0,0,.022.5v.173a1,1,0,0,0-.022-.169l-.04-.5c-.029-.436-.079-1.081-.126-1.909s-.108-1.844-.144-3.022-.076-2.521-.094-4.009,0-3.112.029-4.859.112-3.6.216-5.576.259-4.02.472-6.149.457-4.323.778-6.574.659-4.431,1.059-6.531l1.142-6.055c.36-1.931.638-3.775.85-5.5a45.134,45.134,0,0,0,.335-4.838c0-.742-.022-1.441-.025-2.114s-.094-1.293-.137-1.88-.148-1.127-.213-1.628-.18-.947-.252-1.358a10.568,10.568,0,0,0-.238-1.081c-.09-.313-.148-.566-.2-.782s-.094-.36-.122-.483A1.317,1.317,0,0,1,123.807,259.79Z" transform="translate(-90.222 -204.516)" fill="#455a64"/>
      </g>
      <g id="freepik--Icons--inject-67" transform="translate(100.814 25.476)">
        <rect id="Rectangle_1830" data-name="Rectangle 1830" width="41.288" height="39.159" rx="6.79" transform="translate(0 5.775) rotate(-8.04)" fill="#dfbd8d"/>
        <path id="Path_11177" data-name="Path 11177" d="M362.44,159.717a1.605,1.605,0,0,1-.274.058l-.789.13-2.939.45-9.83,1.441h-.079l-.022-.079c-.148-.512-.306-1.048-.465-1.6-1.336-4.683-2.522-8.851-3.31-11.577l.065.04-2.622.36-.7.086a1.57,1.57,0,0,1-.245,0,1.377,1.377,0,0,1,.238-.05l.7-.115,2.615-.4h.05v.047l3.379,11.559.461,1.6-.1-.068,9.87-1.369,2.932-.393.8-.1A1.741,1.741,0,0,1,362.44,159.717Z" transform="translate(-331.588 -132.565)" fill="#ebebeb"/>
        <path id="Path_11178" data-name="Path 11178" d="M355.237,158.39h.068l.2-.04.789-.126,2.957-.454,10.2-1.5-.079.086c.058-1.761.119-3.667.18-5.637.032-1.012.065-2.01.1-2.961l.1.1-12.035,1.7-3.563.483-.962.122-.252.029h-.086a.292.292,0,0,1,.086-.022l.245-.043.958-.155,3.559-.54,12.024-1.758h.108v.112c-.029.951-.061,1.945-.094,2.961-.065,1.97-.13,3.876-.187,5.637v.054h-.076l-10.212,1.441-2.961.4-.792.1-.205.022Z" transform="translate(-339.028 -132.06)" fill="#ebebeb"/>
        <path id="Path_11179" data-name="Path 11179" d="M367.7,191.985c-.018,0-.036-.122-.126-.317a1.391,1.391,0,0,0-.609-.645,1.312,1.312,0,1,0-.915,2.428,1.336,1.336,0,0,0,1.214-.36,1.373,1.373,0,0,0,.4-.792c.032-.213,0-.339.032-.339a.721.721,0,0,1,.043.36,1.4,1.4,0,0,1-.385.879,1.475,1.475,0,1,1-.331-2.305,1.4,1.4,0,0,1,.616.72A.75.75,0,0,1,367.7,191.985Z" transform="translate(-346.681 -159.589)" fill="#ebebeb"/>
        <path id="Path_11180" data-name="Path 11180" d="M392.409,188.48a2.572,2.572,0,0,0-.126-.317,1.379,1.379,0,0,0-.612-.645,1.315,1.315,0,1,0,.3,2.093,1.373,1.373,0,0,0,.4-.792c.032-.213,0-.339.032-.339a.721.721,0,0,1,.04.36,1.376,1.376,0,0,1-.382.879,1.475,1.475,0,1,1-.331-2.305,1.4,1.4,0,0,1,.616.72.75.75,0,0,1,.058.346Z" transform="translate(-362.49 -157.363)" fill="#ebebeb"/>
        <circle id="Ellipse_545" data-name="Ellipse 545" cx="3.988" cy="3.988" r="3.988" transform="translate(24.237 15.523) rotate(-56.52)" fill="#fafafa"/>
        <path id="Path_11181" data-name="Path 11181" d="M395.761,139.36a3.863,3.863,0,0,1-.421.72c-.281.425-.677,1-1.124,1.635l-.479.674-.05.072-.072-.047A12.762,12.762,0,0,1,392,141.266a13.108,13.108,0,0,1,1.711,1l-.122.022.475-.677c.447-.634.861-1.2,1.167-1.607A3.653,3.653,0,0,1,395.761,139.36Z" transform="translate(-364.069 -126.743)" fill="#dfbd8d"/>
        <rect id="Rectangle_1831" data-name="Rectangle 1831" width="33.45" height="31.724" rx="6.79" transform="matrix(0.97, 0.244, -0.244, 0.97, 11.639, 45.346)" fill="#455a64"/>
        <g id="XMLID_468_" transform="translate(17.691 51.527) rotate(16)">
          <g id="Group_8971" data-name="Group 8971" transform="translate(0)">
            <g id="Group_8970" data-name="Group 8970" transform="translate(0 0)">
              <path id="Path_11274" data-name="Path 11274" d="M3,4.907,1.324.028c0-.01-.007-.019-.011-.028A7.252,7.252,0,0,1,0,1.446L1.384,5.465A.857.857,0,1,0,3,4.907Z" transform="translate(17.871 12.733)" fill="#dfbd8d"/>
              <path id="Path_11275" data-name="Path 11275" d="M10.465,10.679H7.912V7.713h.4a.741.741,0,0,0,.336-1.4,6.9,6.9,0,0,1-1.157.66A7.347,7.347,0,0,1,4.4,7.6a.3.3,0,0,1-.277-.2l-1.5-4.283L1.418.436a.742.742,0,1,0-1.352.612L2.887,7.283a.742.742,0,0,0,.676.436h0l1.1,0v2.962H2.109a.742.742,0,1,0,0,1.484h8.356a.742.742,0,0,0,0-1.484Z" transform="translate(8.766 8.218)" fill="#dfbd8d"/>
              <path id="Path_11276" data-name="Path 11276" d="M.061,1.143a.771.771,0,0,0,.007.616c0,.008.007.016.009.024l2.34,6.7a6.37,6.37,0,0,0,4.36-1.715,6.475,6.475,0,0,0,1.26-1.6c-.426-.72-2.49-4.079-4.42-5A1.712,1.712,0,0,0,2.872,0a2.03,2.03,0,0,0-.658.108L.509.72A.771.771,0,0,0,.061,1.143Z" transform="translate(10.964 6.742)" fill="#dfbd8d"/>
              <path id="Path_11277" data-name="Path 11277" d="M1.235,4.047a1.025,1.025,0,0,0,.473-.261A1.576,1.576,0,0,0,3.765,1.44C4.2.335,3.764.061,3.419,0a.142.142,0,0,0-.151.2c.1.266-.314.527-.666.694h-.04C2.511.807,2.216.4,1.471.75A1.544,1.544,0,0,0,.824,2.036,1.028,1.028,0,0,0,0,2.79,1.5,1.5,0,0,1,1.235,4.047Z" transform="translate(8.811 2.191)" fill="#dfbd8d"/>
              <circle id="Ellipse_548" data-name="Ellipse 548" cx="1.662" cy="1.662" r="1.662" transform="translate(3.19 0)" fill="#dfbd8d"/>
              <path id="Path_11278" data-name="Path 11278" d="M5.084,3.7l3.569-.4A.808.808,0,0,0,8.475,1.7l-3.258.363L3.484.8l1.572.58.681-.076A1.216,1.216,0,0,0,4.624.182L2.463,0A1.216,1.216,0,0,0,1.151,1.117L.767,7.345l.509,3.321L.035,15.2a.969.969,0,0,0,1.869.512L3.2,10.98a.969.969,0,0,0,.023-.4L2.753,7.509l.377.031,1.156,3.152-.966,4.56a.969.969,0,1,0,1.9.4L6.24,10.82a.969.969,0,0,0-.038-.534L5.231,7.64,5.5,4.35l-.645.072a.832.832,0,0,1-.744-.311l-1.578-2L4.52,3.551A.807.807,0,0,0,5.084,3.7Z" transform="translate(0 3.96)" fill="#dfbd8d"/>
            </g>
          </g>
        </g>
      </g>
      <g id="freepik--Device--inject-67" transform="translate(47.898 21.843)">
        <path id="Path_11189" data-name="Path 11189" d="M222.713,227.837l-45.326-.209a9.874,9.874,0,0,1-9.827-9.913l.479-113.634a9.877,9.877,0,0,1,9.92-9.83l45.326.209a9.87,9.87,0,0,1,9.827,9.913L232.633,218a9.877,9.877,0,0,1-9.92,9.834Z" transform="translate(-167.56 -94.25)" fill="#c5c5c5"/>
        <path id="Path_11190" data-name="Path 11190" d="M227.483,103.334l-8.789-.043a2.187,2.187,0,0,0-2.143,2.223v1.592a2.183,2.183,0,0,1-2.143,2.223l-17.128-.079a2.186,2.186,0,0,1-2.125-2.241v-1.6a2.187,2.187,0,0,0-2.125-2.241h-3.091l-7.691-.032a6.916,6.916,0,0,0-6.949,6.884l-.468,110.915a6.916,6.916,0,0,0,6.905,6.931l45.236.209a6.913,6.913,0,0,0,6.945-6.884l.465-110.9a6.913,6.913,0,0,0-6.9-6.959Z" transform="translate(-172.211 -99.937)" fill="#fafafa"/>
        <path id="Path_11191" data-name="Path 11191" d="M190.9,133.315a.187.187,0,0,1-.13-.058l-.688-.72a.166.166,0,0,1-.05-.126.176.176,0,0,1,.054-.126l.692-.659a.177.177,0,0,1,.252,0,.18.18,0,0,1,0,.256l-.562.533.566.591a.18.18,0,0,1,0,.256.187.187,0,0,1-.133.054Z" transform="translate(-181.936 -118.128)" fill="#263238"/>
        <rect id="Rectangle_1836" data-name="Rectangle 1836" width="49.011" height="12.654" rx="6.327" transform="translate(8.472 108.919)" fill="#dfbd8d"/>
        <path id="Path_11192" data-name="Path 11192" d="M242.93,410.107h1.138a1.4,1.4,0,1,1,0,2.8H242.93Zm1.124,2.543a1.145,1.145,0,1,0,0-2.287h-.829v2.287Z" transform="translate(-215.78 -296.328)" fill="#fafafa"/>
        <path id="Path_11193" data-name="Path 11193" d="M251.4,411.306a1.47,1.47,0,1,1,1.473,1.423,1.4,1.4,0,0,1-1.473-1.423Zm2.644,0a1.178,1.178,0,1,0-1.171,1.16,1.131,1.131,0,0,0,1.171-1.16Z" transform="translate(-221.198 -296.127)" fill="#fafafa"/>
        <path id="Path_11194" data-name="Path 11194" d="M263.721,410.11v2.8h-.241l-1.8-2.269v2.269h-.3v-2.8h.245l1.8,2.269V410.11Z" transform="translate(-227.584 -296.332)" fill="#fafafa"/>
        <path id="Path_11195" data-name="Path 11195" d="M272.388,412.653v.256H270.41v-2.8h1.916v.256h-1.621v.994h1.441v.252h-1.441v1.041Z" transform="translate(-233.362 -296.332)" fill="#fafafa"/>
        <path id="Path_11196" data-name="Path 11196" d="M204.077,289.541c0,.508-.36.818-.976.818h-.645v.756H202.2v-2.4h.9C203.709,288.716,204.077,289.023,204.077,289.541Zm-.252,0c0-.385-.252-.605-.72-.605h-.638v1.2h.638C203.569,290.132,203.825,289.9,203.825,289.541Z" transform="translate(-189.722 -218.668)" fill="#263238"/>
        <path id="Path_11197" data-name="Path 11197" d="M210.475,290.36v1.8h-.234v-.328a.72.72,0,0,1-.648.36.7.7,0,0,1-.76-.774v-1.045h.245v1.019c0,.385.2.58.54.58a.587.587,0,0,0,.612-.656v-.944Z" transform="translate(-193.962 -219.718)" fill="#263238"/>
        <path id="Path_11198" data-name="Path 11198" d="M216.2,290.315v.245h-.058a.584.584,0,0,0-.609.663v.919h-.241v-1.8h.231v.36A.684.684,0,0,1,216.2,290.315Z" transform="translate(-198.097 -219.687)" fill="#263238"/>
        <path id="Path_11199" data-name="Path 11199" d="M218.469,291.231a.89.89,0,0,1,.929-.915.785.785,0,0,1,.72.36l-.184.122a.612.612,0,0,0-.522-.267.72.72,0,0,0,0,1.4.609.609,0,0,0,.522-.263l.184.122a.8.8,0,0,1-.72.36.893.893,0,0,1-.929-.926Z" transform="translate(-200.13 -219.688)" fill="#263238"/>
        <path id="Path_11200" data-name="Path 11200" d="M225.911,289.8v1.045h-.245V289.83a.5.5,0,0,0-.54-.576.591.591,0,0,0-.63.652v.944h-.245v-2.54h.245v1.052a.76.76,0,0,1,.674-.328.692.692,0,0,1,.742.771Z" transform="translate(-203.829 -218.406)" fill="#263238"/>
        <path id="Path_11201" data-name="Path 11201" d="M231.783,291v1.117h-.234v-.281a.677.677,0,0,1-.62.3c-.407,0-.659-.213-.659-.526s.18-.508.7-.508h.573v-.112c0-.306-.173-.475-.512-.475a.922.922,0,0,0-.6.213l-.108-.18a1.131,1.131,0,0,1,.72-.245.641.641,0,0,1,.742.7Zm-.245.576v-.31h-.566c-.36,0-.461.137-.461.321s.166.342.454.342a.583.583,0,0,0,.573-.353Z" transform="translate(-207.681 -219.677)" fill="#263238"/>
        <path id="Path_11202" data-name="Path 11202" d="M235.61,291.93l.108-.191a1.1,1.1,0,0,0,.641.2c.342,0,.483-.119.483-.3,0-.468-1.167-.1-1.167-.81,0-.3.252-.515.72-.515a1.193,1.193,0,0,1,.634.169l-.1.195a.908.908,0,0,0-.53-.155c-.328,0-.472.126-.472.3,0,.486,1.167.119,1.167.81,0,.313-.274.515-.742.515A1.211,1.211,0,0,1,235.61,291.93Z" transform="translate(-211.097 -219.692)" fill="#263238"/>
        <path id="Path_11203" data-name="Path 11203" d="M242.214,291.31h-1.506a.67.67,0,0,0,.72.627.721.721,0,0,0,.551-.238l.137.158a.951.951,0,0,1-1.639-.623.868.868,0,0,1,.879-.915.857.857,0,0,1,.872.915A.177.177,0,0,0,242.214,291.31Zm-1.506-.184h1.279a.641.641,0,0,0-1.279,0Z" transform="translate(-214.211 -219.692)" fill="#263238"/>
        <path id="Path_11204" data-name="Path 11204" d="M251.28,290.36l-.681,1.8h-.227l-.566-1.477-.569,1.477h-.231l-.677-1.8h.241l.562,1.531.58-1.531h.209l.576,1.531.573-1.531Z" transform="translate(-219.235 -219.718)" fill="#263238"/>
        <path id="Path_11205" data-name="Path 11205" d="M258.479,291v1.117h-.231v-.281a.684.684,0,0,1-.62.3c-.407,0-.659-.212-.659-.526s.18-.508.7-.508h.573v-.112c0-.306-.173-.476-.512-.476a.922.922,0,0,0-.6.213l-.108-.18a1.131,1.131,0,0,1,.72-.245.641.641,0,0,1,.738.7Zm-.241.576v-.31h-.566c-.36,0-.461.137-.461.321s.166.342.454.342a.584.584,0,0,0,.573-.353Z" transform="translate(-224.763 -219.678)" fill="#263238"/>
        <path id="Path_11206" data-name="Path 11206" d="M262.31,291.93l.108-.191a1.1,1.1,0,0,0,.641.2c.342,0,.483-.119.483-.3,0-.468-1.167-.1-1.167-.81,0-.3.252-.515.72-.515a1.207,1.207,0,0,1,.638.169l-.1.194a.912.912,0,0,0-.533-.155c-.324,0-.468.126-.468.3,0,.486,1.167.119,1.167.811,0,.313-.274.515-.742.515A1.2,1.2,0,0,1,262.31,291.93Z" transform="translate(-228.179 -219.692)" fill="#263238"/>
        <path id="Path_11207" data-name="Path 11207" d="M269.45,291.93l.108-.191a1.1,1.1,0,0,0,.641.2c.36,0,.483-.119.483-.3,0-.468-1.167-.1-1.167-.81,0-.3.252-.515.72-.515a1.193,1.193,0,0,1,.634.169l-.1.195a.908.908,0,0,0-.53-.155c-.328,0-.472.126-.472.3,0,.486,1.171.119,1.171.81,0,.313-.277.515-.746.515A1.2,1.2,0,0,1,269.45,291.93Z" transform="translate(-232.747 -219.692)" fill="#263238"/>
        <path id="Path_11208" data-name="Path 11208" d="M276.375,290.36v1.8h-.234v-.328a.721.721,0,0,1-.648.36.7.7,0,0,1-.76-.774v-1.045h.245v1.019c0,.385.2.58.54.58a.587.587,0,0,0,.612-.656v-.944Z" transform="translate(-236.124 -219.718)" fill="#263238"/>
        <path id="Path_11209" data-name="Path 11209" d="M280.689,291.231a.886.886,0,0,1,.926-.915.785.785,0,0,1,.72.36l-.18.122a.623.623,0,0,0-.526-.267.72.72,0,0,0,0,1.4.619.619,0,0,0,.526-.263l.18.122a.8.8,0,0,1-.72.36.89.89,0,0,1-.926-.926Z" transform="translate(-239.937 -219.688)" fill="#263238"/>
        <path id="Path_11210" data-name="Path 11210" d="M286,291.231a.89.89,0,0,1,.929-.915.785.785,0,0,1,.72.36l-.184.122a.612.612,0,0,0-.522-.267.72.72,0,0,0,0,1.4.609.609,0,0,0,.522-.263l.184.122a.8.8,0,0,1-.72.36.893.893,0,0,1-.929-.926Z" transform="translate(-243.335 -219.688)" fill="#263238"/>
        <path id="Path_11211" data-name="Path 11211" d="M292.994,291.31h-1.506a.666.666,0,0,0,.72.627.72.72,0,0,0,.551-.238l.141.158a.955.955,0,0,1-1.643-.623.878.878,0,1,1,1.754,0A.139.139,0,0,0,292.994,291.31Zm-1.506-.184h1.275a.638.638,0,0,0-1.275,0Z" transform="translate(-246.699 -219.692)" fill="#263238"/>
        <path id="Path_11212" data-name="Path 11212" d="M296.77,291.93l.112-.191a1.08,1.08,0,0,0,.641.2c.342,0,.483-.119.483-.3,0-.468-1.171-.1-1.171-.81,0-.3.256-.515.72-.515a1.206,1.206,0,0,1,.638.169l-.1.194a.922.922,0,0,0-.533-.155c-.324,0-.468.126-.468.3,0,.486,1.167.119,1.167.811,0,.313-.274.515-.742.515A1.214,1.214,0,0,1,296.77,291.93Z" transform="translate(-250.226 -219.692)" fill="#263238"/>
        <path id="Path_11213" data-name="Path 11213" d="M301.42,291.93l.112-.191a1.081,1.081,0,0,0,.641.2c.342,0,.483-.119.483-.3,0-.468-1.171-.1-1.171-.81,0-.3.256-.515.72-.515a1.206,1.206,0,0,1,.638.169l-.1.194a.922.922,0,0,0-.533-.155c-.324,0-.468.126-.468.3,0,.486,1.167.119,1.167.811,0,.313-.274.515-.742.515A1.214,1.214,0,0,1,301.42,291.93Z" transform="translate(-253.201 -219.692)" fill="#263238"/>
        <path id="Path_11214" data-name="Path 11214" d="M306.555,288.8v.213h.555v.205h-.548v1.6h-.245v-1.6H306v-.205h.321v-.223a.494.494,0,0,1,.544-.533.572.572,0,0,1,.36.112l-.083.184a.393.393,0,0,0-.267-.09C306.663,288.46,306.555,288.576,306.555,288.8Z" transform="translate(-256.131 -218.369)" fill="#263238"/>
        <path id="Path_11215" data-name="Path 11215" d="M311.575,290.36v1.8h-.234v-.328a.72.72,0,0,1-.648.36.7.7,0,0,1-.76-.774v-1.045h.245v1.019c0,.385.2.58.54.58a.587.587,0,0,0,.612-.656v-.944Z" transform="translate(-258.644 -219.718)" fill="#263238"/>
        <path id="Path_11216" data-name="Path 11216" d="M316.39,288.31h.245v2.54h-.245Z" transform="translate(-262.779 -218.406)" fill="#263238"/>
        <path id="Path_11217" data-name="Path 11217" d="M208.784,262.53H207.26v-.72h3.9v.72h-1.524V266.4h-.85Z" transform="translate(-192.959 -201.452)" fill="#dfbd8d"/>
        <path id="Path_11218" data-name="Path 11218" d="M223.087,263.914v2.01h-.818v-1.9c0-.623-.31-.926-.832-.926a.935.935,0,0,0-.98,1.055v1.772h-.818V261.05h.818v1.783a1.567,1.567,0,0,1,1.167-.447A1.353,1.353,0,0,1,223.087,263.914Z" transform="translate(-200.88 -200.966)" fill="#dfbd8d"/>
        <path id="Path_11219" data-name="Path 11219" d="M234.591,266.234v2.053h-.771v-.429a1.243,1.243,0,0,1-1.1.472c-.8,0-1.308-.439-1.308-1.048s.4-1.041,1.459-1.041h.915v-.054c0-.479-.288-.76-.872-.76a1.729,1.729,0,0,0-1.081.36l-.321-.594a2.453,2.453,0,0,1,1.48-.436C234.007,264.743,234.591,265.222,234.591,266.234Zm-.807.955v-.4h-.846c-.558,0-.72.209-.72.465s.252.486.67.486A.89.89,0,0,0,233.784,267.189Z" transform="translate(-208.41 -203.337)" fill="#dfbd8d"/>
        <path id="Path_11220" data-name="Path 11220" d="M246.6,266.271v2.01h-.821v-1.9c0-.623-.306-.926-.832-.926a.932.932,0,0,0-.976,1.055v1.772h-.821v-3.5h.782v.454a1.527,1.527,0,0,1,1.207-.494A1.362,1.362,0,0,1,246.6,266.271Z" transform="translate(-215.921 -203.323)" fill="#dfbd8d"/>
        <path id="Path_11221" data-name="Path 11221" d="M257.05,264.414l-.609.58v.926h-.821v-4.87h.821v2.936l1.7-1.574h.983l-1.462,1.47,1.6,2.035h-.98Z" transform="translate(-223.899 -200.966)" fill="#dfbd8d"/>
        <path id="Path_11222" data-name="Path 11222" d="M274.346,264.83l-1.639,3.786a1.356,1.356,0,0,1-1.351,1.034,1.441,1.441,0,0,1-.937-.321l.328-.6a.875.875,0,0,0,.6.241c.288,0,.461-.137.616-.486l.061-.137L270.5,264.83h.85l1.1,2.59,1.109-2.59Z" transform="translate(-233.368 -203.384)" fill="#dfbd8d"/>
        <path id="Path_11223" data-name="Path 11223" d="M281.658,266.261a1.866,1.866,0,1,1,1.862,1.8,1.765,1.765,0,0,1-1.862-1.8Zm2.907,0a1.041,1.041,0,1,0-1.045,1.081,1.023,1.023,0,0,0,1.045-1.081Z" transform="translate(-240.557 -203.064)" fill="#dfbd8d"/>
        <path id="Path_11224" data-name="Path 11224" d="M297.548,264.83v3.5h-.782v-.447a1.441,1.441,0,0,1-1.127.49,1.383,1.383,0,0,1-1.509-1.545v-2h.821v1.891c0,.634.3.937.818.937a.951.951,0,0,0,.958-1.055V264.83Z" transform="translate(-248.537 -203.384)" fill="#dfbd8d"/>
        <path id="Path_11225" data-name="Path 11225" d="M306.18,265.935a.511.511,0,1,1,.156.368A.508.508,0,0,1,306.18,265.935Zm.047-4.125h.969l-.162,3.069h-.652Z" transform="translate(-256.247 -201.452)" fill="#dfbd8d"/>
        <circle id="Ellipse_546" data-name="Ellipse 546" cx="9.43" cy="9.43" r="9.43" transform="translate(23.875 34.628)" fill="#dfbd8d"/>
        <path id="Path_11226" data-name="Path 11226" d="M257.548,205.5a39.226,39.226,0,0,1-3.934,5.292l-1.39,1.686-.191.231-.2-.209a21.63,21.63,0,0,1-2.929-3.3,22.01,22.01,0,0,1,3.3,2.925l-.389.04,1.362-1.7A38.152,38.152,0,0,1,257.548,205.5Z" transform="translate(-219.599 -165.427)" fill="#fff"/>
        <path id="Path_11227" data-name="Path 11227" d="M294.427,204.409c-.281-.991-1.567-.893-1.567-.893l.032.688c.746-.13,1.207.742,1.207.742Z" transform="translate(-247.725 -164.154)" fill="#dfbd8d"/>
        <path id="Path_11228" data-name="Path 11228" d="M218.587,210.183c-.277-.991-1.567-.9-1.567-.9l.036.692c.746-.13,1.207.742,1.207.742Z" transform="translate(-199.204 -167.846)" fill="#e0e0e0"/>
        <path id="Path_11229" data-name="Path 11229" d="M262.391,170.557c1.495.454,2.424-1.268,2.424-1.268l-.908-.519c-.447,1.055-1.938.933-1.938.933Z" transform="translate(-227.962 -141.926)" fill="#e0e0e0"/>
        <path id="Path_11230" data-name="Path 11230" d="M238.748,178.88c-.7.076-.778.947-.778.947l.465.054c0-.512.638-.72.638-.72Z" transform="translate(-212.607 -148.395)" fill="#dfbd8d"/>
        <path id="Path_11231" data-name="Path 11231" d="M318.09,194.841c.1-.692-.72-.991-.72-.991l-.169.436c.5.126.544.8.544.8Z" transform="translate(-263.297 -157.972)" fill="#e0e0e0"/>
        <path id="Path_11232" data-name="Path 11232" d="M249.81,151.851c.1-.692-.72-.991-.72-.991l-.169.439c.5.126.544.792.544.792Z" transform="translate(-219.613 -130.468)" fill="#dfbd8d"/>
        <path id="Path_11233" data-name="Path 11233" d="M203.7,183.774c-.122,1.081,1.311,1.347,1.311,1.347l.259-.72c-.861-.079-.983-1.081-.983-1.081Z" transform="translate(-190.675 -151.235)" fill="#dfbd8d"/>
        <path id="Path_11234" data-name="Path 11234" d="M291.984,172.007c.7.04.922-.807.922-.807l-.45-.13c-.083.5-.746.609-.746.609Z" transform="translate(-246.989 -143.398)" fill="#dfbd8d"/>
        <path id="Path_11235" data-name="Path 11235" d="M301.013,181.468a1.617,1.617,0,0,1-.576.054,1.6,1.6,0,0,1-.576-.054A2.911,2.911,0,0,1,301.013,181.468Z" transform="translate(-252.203 -150.013)" fill="#e0e0e0"/>
        <path id="Path_11236" data-name="Path 11236" d="M304.658,177.22a3.175,3.175,0,0,1,0,1.167A2.986,2.986,0,0,1,304.658,177.22Z" transform="translate(-255.236 -147.333)" fill="#e0e0e0"/>
        <path id="Path_11237" data-name="Path 11237" d="M306.56,181.353a1.617,1.617,0,0,1,.576-.054,1.6,1.6,0,0,1,.576.054A2.911,2.911,0,0,1,306.56,181.353Z" transform="translate(-256.49 -149.938)" fill="#e0e0e0"/>
        <path id="Path_11238" data-name="Path 11238" d="M304.768,183.741a3,3,0,0,1,0-1.171A3.2,3.2,0,0,1,304.768,183.741Z" transform="translate(-255.306 -150.755)" fill="#e0e0e0"/>
        <path id="Path_11239" data-name="Path 11239" d="M306.714,183.126c-.022.018-.133-.076-.249-.209s-.184-.263-.162-.281.137.072.249.209S306.739,183.086,306.714,183.126Z" transform="translate(-256.323 -150.796)" fill="#e0e0e0"/>
        <path id="Path_11240" data-name="Path 11240" d="M306.539,179c.022.025-.054.137-.173.256s-.231.2-.252.176.054-.137.173-.256A.67.67,0,0,1,306.539,179Z" transform="translate(-256.202 -148.471)" fill="#e0e0e0"/>
        <path id="Path_11241" data-name="Path 11241" d="M302.912,179.667c-.022.025-.13-.032-.241-.126s-.184-.187-.166-.209.126.032.238.122S302.93,179.645,302.912,179.667Z" transform="translate(-253.894 -148.681)" fill="#e0e0e0"/>
        <path id="Path_11242" data-name="Path 11242" d="M302.8,182.444c.025.018-.043.13-.151.249s-.213.195-.234.173.043-.133.151-.249S302.776,182.422,302.8,182.444Z" transform="translate(-253.834 -150.672)" fill="#e0e0e0"/>
        <path id="Path_11243" data-name="Path 11243" d="M213.893,172.543a2.911,2.911,0,0,1-1.153,0,1.617,1.617,0,0,1,.576-.054A1.6,1.6,0,0,1,213.893,172.543Z" transform="translate(-196.465 -144.302)" fill="#dfbd8d"/>
        <path id="Path_11244" data-name="Path 11244" d="M217.538,168.3a3,3,0,0,1,0,1.171A3,3,0,0,1,217.538,168.3Z" transform="translate(-199.498 -141.626)" fill="#dfbd8d"/>
        <path id="Path_11245" data-name="Path 11245" d="M219.45,172.448a2.91,2.91,0,0,1,1.153,0A2.911,2.911,0,0,1,219.45,172.448Z" transform="translate(-200.758 -144.242)" fill="#dfbd8d"/>
        <path id="Path_11246" data-name="Path 11246" d="M217.648,174.827a2.982,2.982,0,0,1,0-1.167A2.983,2.983,0,0,1,217.648,174.827Z" transform="translate(-199.568 -145.055)" fill="#dfbd8d"/>
        <path id="Path_11247" data-name="Path 11247" d="M219.6,174.125c-.025.022-.137-.072-.249-.209s-.187-.259-.162-.281.133.076.249.209S219.624,174.125,219.6,174.125Z" transform="translate(-200.59 -145.037)" fill="#dfbd8d"/>
        <path id="Path_11248" data-name="Path 11248" d="M219.429,170.086c.022.022-.058.137-.173.256s-.231.195-.252.173.054-.133.173-.252S219.407,170.05,219.429,170.086Z" transform="translate(-200.47 -142.764)" fill="#dfbd8d"/>
        <path id="Path_11249" data-name="Path 11249" d="M215.8,170.748c-.018.022-.126-.032-.238-.126s-.187-.187-.166-.212.126.032.238.126S215.819,170.723,215.8,170.748Z" transform="translate(-198.161 -142.972)" fill="#dfbd8d"/>
        <path id="Path_11250" data-name="Path 11250" d="M215.68,173.524c.022.022-.047.133-.151.252s-.213.194-.238.173.047-.133.151-.249S215.655,173.5,215.68,173.524Z" transform="translate(-198.094 -144.966)" fill="#dfbd8d"/>
        <path id="Path_11251" data-name="Path 11251" d="M317.58,130.862a34.629,34.629,0,0,1-5.09,0,34.623,34.623,0,0,1,5.09,0Z" transform="translate(-260.284 -117.606)" fill="#263238"/>
        <path id="Path_11252" data-name="Path 11252" d="M317.58,133.814a34.623,34.623,0,0,1-5.09,0,34.623,34.623,0,0,1,5.09,0Z" transform="translate(-260.284 -119.495)" fill="#263238"/>
        <path id="Path_11253" data-name="Path 11253" d="M317.58,136.744a34.62,34.62,0,0,1-5.09,0,34.631,34.631,0,0,1,5.09,0Z" transform="translate(-260.284 -121.37)" fill="#263238"/>
        <rect id="Rectangle_1837" data-name="Rectangle 1837" width="11.862" height="14.974" transform="translate(39.388 102.552) rotate(-179.55)" fill="#ebebeb"/>
        <path id="Path_11254" data-name="Path 11254" d="M260.636,338.584l-.213,14.5-1.873-.014.4-14.5Z" transform="translate(-225.774 -250.562)" fill="#fafafa"/>
        <path id="Path_11255" data-name="Path 11255" d="M225.182,338.3l6.8.054,11.862.094-11.873,1.56-.1,12.845-6.8-.054Z" transform="translate(-204.354 -250.389)" fill="#e0e0e0"/>
        <path id="Path_11256" data-name="Path 11256" d="M231.6,338.354l-.27,14.5-2.021-.018.331-14.5Z" transform="translate(-207.066 -250.414)" fill="#fafafa"/>
        <path id="Path_11257" data-name="Path 11257" d="M240.588,317.787c0,.094-.2.187-.562.277a9.33,9.33,0,0,1-2.691.195,4.425,4.425,0,0,1-.63-.068,5.114,5.114,0,0,1-.692-.148,2.1,2.1,0,0,1-.429-.184,1.376,1.376,0,0,1-.45-.425,1.265,1.265,0,0,1-.194-.652,2.162,2.162,0,0,1,.058-.5,8.762,8.762,0,0,1,.454-1.5,4.042,4.042,0,0,1,.436-.764,3.244,3.244,0,0,1,.292-.36,2.232,2.232,0,0,1,.4-.321,1.6,1.6,0,0,1,.537-.216,1.419,1.419,0,0,1,.616.018,2,2,0,0,1,.811.447,6.657,6.657,0,0,1,1.56,1.913,4.682,4.682,0,0,1,.522,1.56c.047.389,0,.609-.086.627-.191.047-.468-.72-1.225-1.679a7.719,7.719,0,0,0-1.524-1.441.893.893,0,0,0-.36-.177.13.13,0,0,0-.065,0,.476.476,0,0,0-.1.054,1.185,1.185,0,0,0-.151.133c-.054.061-.115.137-.169.213a2.942,2.942,0,0,0-.285.519,10.088,10.088,0,0,0-.407,1.272.9.9,0,0,0-.036.187h-.036c-.043,0-.054.022-.025,0l.043-.032a.13.13,0,0,0,.032.032.9.9,0,0,0,.169.086,4.686,4.686,0,0,0,.53.158c.184.05.36.09.544.126.36.072.7.123,1.009.166.63.083,1.156.14,1.52.209S240.585,317.7,240.588,317.787Z" transform="translate(-210.668 -234.259)" fill="#e0e0e0"/>
        <path id="Path_11258" data-name="Path 11258" d="M249.784,316.831c-.032-.187.854-.465,2.237-.872a19.03,19.03,0,0,0,2.334-.836,2.369,2.369,0,0,0,.508-.281c.054-.047.079-.086.072-.083s0,.054-.018.029a1.444,1.444,0,0,0-.083-.209l-.173-.36a5.765,5.765,0,0,0-.36-.645,2.672,2.672,0,0,0-.421-.5,2.3,2.3,0,0,0-.238-.191,1.06,1.06,0,0,0-.216-.115.537.537,0,0,0-.36-.032,1.145,1.145,0,0,0-.418.241,9.1,9.1,0,0,0-1.621,1.761c-.8,1.131-1.005,2.014-1.2,1.985-.086,0-.151-.252-.119-.688a4.95,4.95,0,0,1,.512-1.765,7.77,7.77,0,0,1,1.625-2.212,2.338,2.338,0,0,1,.843-.53,1.8,1.8,0,0,1,1.174,0,2.425,2.425,0,0,1,.493.245,2.988,2.988,0,0,1,.4.3,3.779,3.779,0,0,1,.648.756,6.206,6.206,0,0,1,.443.8l.173.382a2.133,2.133,0,0,1,.177.544,1.225,1.225,0,0,1-.133.785,1.47,1.47,0,0,1-.439.486,3.311,3.311,0,0,1-.81.4,12.224,12.224,0,0,1-2.6.623C250.728,317.058,249.806,317,249.784,316.831Z" transform="translate(-220.109 -233.196)" fill="#ebebeb"/>
        <rect id="Rectangle_1838" data-name="Rectangle 1838" width="17.435" height="4.957" transform="translate(36.11 88.025) rotate(-179.55)" fill="#e0e0e0"/>
        <rect id="Rectangle_1839" data-name="Rectangle 1839" width="15.76" height="4.957" transform="translate(40.844 88.062) rotate(-179.55)" fill="#ebebeb"/>
        <path id="Path_11259" data-name="Path 11259" d="M264.159,324.844l-.112,4.978-1.837-.036.13-4.957Z" transform="translate(-228.115 -241.771)" fill="#fafafa"/>
        <path id="Path_11260" data-name="Path 11260" d="M227.461,324.583l-.18,4.935-2.021-.018.108-4.96Z" transform="translate(-204.475 -241.585)" fill="#fafafa"/>
        <rect id="Rectangle_1840" data-name="Rectangle 1840" width="6.722" height="8.483" transform="translate(47.099 102.239) rotate(-179.55)" fill="#ebebeb"/>
        <path id="Path_11261" data-name="Path 11261" d="M289.082,355.207l-.119,8.217-1.063-.007.227-8.217Z" transform="translate(-244.551 -261.201)" fill="#fafafa"/>
        <path id="Path_11262" data-name="Path 11262" d="M268.991,355.05l3.858.029,6.722.054-6.729.886-.058,7.276-3.854-.029Z" transform="translate(-232.415 -261.105)" fill="#e0e0e0"/>
        <path id="Path_11263" data-name="Path 11263" d="M272.627,355.081l-.151,8.213-1.146-.007.187-8.217Z" transform="translate(-233.95 -261.118)" fill="#fafafa"/>
        <path id="Path_11264" data-name="Path 11264" d="M277.559,343.314c0,.126-.439.277-1.21.36a4.4,4.4,0,0,1-1.408-.115.951.951,0,0,1-.544-.36.821.821,0,0,1-.126-.414,1.408,1.408,0,0,1,.032-.31,5.077,5.077,0,0,1,.263-.868,2.564,2.564,0,0,1,.256-.45,1.594,1.594,0,0,1,.432-.418.944.944,0,0,1,.72-.122,1.272,1.272,0,0,1,.494.274,3.721,3.721,0,0,1,.886,1.117c.36.72.31,1.257.191,1.275s-.313-.393-.749-.915a4.545,4.545,0,0,0-.861-.8.439.439,0,0,0-.162-.083h0l-.025.018a.783.783,0,0,0-.155.173,1.443,1.443,0,0,0-.151.277,5.4,5.4,0,0,0-.227.72l-.022.083h-.112a.256.256,0,0,0,.065-.058l.022-.022h0a.359.359,0,0,0,.079.043,6.281,6.281,0,0,0,1.156.27C277.087,343.1,277.559,343.181,277.559,343.314Z" transform="translate(-235.831 -251.855)" fill="#e0e0e0"/>
        <path id="Path_11265" data-name="Path 11265" d="M282.818,342.683c-.025-.144.475-.335,1.246-.591a12.682,12.682,0,0,0,1.3-.493,1.2,1.2,0,0,0,.256-.148c.022-.018.022-.032,0,0a.216.216,0,0,0-.025.1l-.133-.281a3.455,3.455,0,0,0-.2-.36,1.214,1.214,0,0,0-.216-.259.72.72,0,0,0-.213-.151.173.173,0,0,0-.112,0,.443.443,0,0,0-.195.108,5.481,5.481,0,0,0-.919.951c-.465.609-.616,1.1-.764,1.081s-.238-.6.137-1.441a4.323,4.323,0,0,1,.922-1.3,1.467,1.467,0,0,1,.519-.331,1.135,1.135,0,0,1,.749,0,1.367,1.367,0,0,1,.31.148,2.1,2.1,0,0,1,.245.187,2.282,2.282,0,0,1,.389.45,4.494,4.494,0,0,1,.259.472l.1.22a1.348,1.348,0,0,1,.112.36.821.821,0,0,1-.094.53,1,1,0,0,1-.285.317,1.957,1.957,0,0,1-.49.241,6.564,6.564,0,0,1-1.5.331C283.369,342.881,282.847,342.816,282.818,342.683Z" transform="translate(-241.234 -251.159)" fill="#e0e0e0"/>
        <rect id="Rectangle_1841" data-name="Rectangle 1841" width="9.881" height="2.81" transform="translate(45.238 94.011) rotate(-179.55)" fill="#e0e0e0"/>
        <rect id="Rectangle_1842" data-name="Rectangle 1842" width="8.93" height="2.81" transform="translate(47.925 94.03) rotate(-179.55)" fill="#ebebeb"/>
        <path id="Path_11266" data-name="Path 11266" d="M291.076,347.427l-.061,2.82-1.045-.022.076-2.806Z" transform="translate(-245.876 -256.224)" fill="#fafafa"/>
        <path id="Path_11267" data-name="Path 11267" d="M270.286,347.275l-.1,2.8-1.145-.007.061-2.813Z" transform="translate(-232.485 -256.115)" fill="#fafafa"/>
      </g>
      <g id="freepik--Plant--inject-67" transform="translate(130.98 131.185)">
        <path id="Path_11268" data-name="Path 11268" d="M417.292,397.8a4.47,4.47,0,0,1,2.316,2.622,7.859,7.859,0,0,1,.306,3.555,13.988,13.988,0,0,1-2.979,6.484c-1.942-1.693-2.388-4.65-2.522-6.163-.209-2.392.865-6.844,2.882-6.484" transform="translate(-408.559 -397.793)" fill="#dfbd8d"/>
        <path id="Path_11269" data-name="Path 11269" d="M427.587,434.951a3.811,3.811,0,0,1,1.232-3.624,5.043,5.043,0,0,1,3.732-1.167,2.165,2.165,0,0,1,1.639.72,1.628,1.628,0,0,1,.025,1.653,3.289,3.289,0,0,1-1.221,1.2c-1.682,1.055-3.5,1.769-5.4,1.2" transform="translate(-416.956 -418.486)" fill="#dfbd8d"/>
        <path id="Path_11270" data-name="Path 11270" d="M420.81,446.073a2.755,2.755,0,0,1,.068-.472c.061-.335.141-.764.234-1.282a13.4,13.4,0,0,1,1.322-4.088,8.2,8.2,0,0,1,2.936-3.119,5.592,5.592,0,0,1,1.2-.53,3.051,3.051,0,0,1,.36-.09c.094-.022.122-.022.122,0a7.59,7.59,0,0,0-4.452,3.833,14.362,14.362,0,0,0-1.351,4.034c-.119.537-.216.973-.288,1.268A2.722,2.722,0,0,1,420.81,446.073Z" transform="translate(-412.668 -422.541)" fill="#263238"/>
        <path id="Path_11271" data-name="Path 11271" d="M420.827,407.42a.882.882,0,0,1,.025.209c0,.151.022.36.036.594.025.515.058,1.261.086,2.187.058,1.848.1,4.4.094,7.2s-.079,5.374-.159,7.222c-.036.926-.072,1.671-.1,2.186-.018.245-.029.439-.04.594h0c.025-.205-.036.133-.036,0v-.6c0-.537.029-1.279.05-2.187.047-1.848.1-4.4.112-7.2s-.018-5.371-.047-7.2c0-.908-.025-1.653-.036-2.19v-.594A1.561,1.561,0,0,1,420.827,407.42Z" transform="translate(-412.616 -403.952)" fill="#263238"/>
        <path id="Path_11272" data-name="Path 11272" d="M405.48,435.223a8.926,8.926,0,0,0-4.87-6.531,1.88,1.88,0,0,0-2.028-.032,1.848,1.848,0,0,0-.155,2.024,7.622,7.622,0,0,0,7.006,4.73" transform="translate(-398.206 -417.357)" fill="#dfbd8d"/>
        <path id="Path_11273" data-name="Path 11273" d="M405.749,435.33a2.233,2.233,0,0,1,.414.18,4.113,4.113,0,0,1,.465.249,6.357,6.357,0,0,1,.591.36,7.453,7.453,0,0,1,.681.512,8.421,8.421,0,0,1,.72.656,9.886,9.886,0,0,1,1.372,1.762,9.724,9.724,0,0,1,.9,2.042,8.19,8.19,0,0,1,.231.947,7.171,7.171,0,0,1,.115.839c.036.259.022.494.032.7a3.961,3.961,0,0,1,0,.53,2.413,2.413,0,0,1-.05.447c-.04,0,.025-.641-.086-1.661a8.015,8.015,0,0,0-.133-.828c-.054-.3-.148-.605-.241-.929a9.9,9.9,0,0,0-.9-2,10.155,10.155,0,0,0-1.336-1.74,9.013,9.013,0,0,0-.7-.659c-.223-.2-.454-.36-.659-.519C406.318,435.629,405.731,435.362,405.749,435.33Z" transform="translate(-403.032 -421.808)" fill="#263238"/>
      </g>
    </g>
  </g>
</svg>
