<svg xmlns="http://www.w3.org/2000/svg" width="11.864" height="27.664" viewBox="0 0 11.864 27.664">
  <g id="Group_8982" data-name="Group 8982" transform="translate(-5352.468 -6369.136)">
    <path id="Path_10578" data-name="Path 10578" d="M9.908.1A.326.326,0,0,0,9.56.022L.21,3.618a.326.326,0,0,0-.02.6l3.826,1.77,1.77,3.826a.326.326,0,0,0,.3.189h.011a.326.326,0,0,0,.294-.209l3.6-9.35A.326.326,0,0,0,9.908.1ZM6.054,8.84l-1.5-3.235a.326.326,0,0,0-.065-.094L9.11.894Z" transform="matrix(-0.208, 0.978, -0.978, -0.208, 5364.332, 6371.215)" fill="#2d66f1"/>
    <g id="Group_8980" data-name="Group 8980" transform="translate(-2)">
      <line id="Line_540" data-name="Line 540" y2="3.6" transform="translate(5362.5 6383.5)" fill="none" stroke="#bcc0c2" stroke-linecap="round" stroke-width="1.4"/>
      <line id="Line_541" data-name="Line 541" y2="3.6" transform="translate(5362.5 6392.5)" fill="none" stroke="#bcc0c2" stroke-linecap="round" stroke-width="1.4"/>
    </g>
  </g>
</svg>
