<svg id="Group_8683" data-name="Group 8683" xmlns="http://www.w3.org/2000/svg" xmlns:xlink="http://www.w3.org/1999/xlink" width="66.19" height="41.806" viewBox="0 0 66.19 41.806">
  <defs>
    <linearGradient id="linear-gradient" x1="0.375" y1="0.013" x2="0.528" y2="0.61" gradientUnits="objectBoundingBox">
      <stop offset="0" stop-color="#7f003c"/>
      <stop offset="0.242" stop-color="#82003e"/>
      <stop offset="0.451" stop-color="#8c0046"/>
      <stop offset="0.648" stop-color="#9e0053"/>
      <stop offset="0.835" stop-color="#b70066"/>
      <stop offset="1" stop-color="#d4007c"/>
    </linearGradient>
    <linearGradient id="linear-gradient-2" x1="0.018" y1="0.286" x2="1.063" y2="0.741" gradientUnits="objectBoundingBox">
      <stop offset="0" stop-color="#d4007c"/>
      <stop offset="0.07" stop-color="#b90068"/>
      <stop offset="0.159" stop-color="#a00054"/>
      <stop offset="0.251" stop-color="#8d0047"/>
      <stop offset="0.346" stop-color="#82003e"/>
      <stop offset="0.451" stop-color="#7f003c"/>
      <stop offset="1" stop-color="#d4007c"/>
    </linearGradient>
    <linearGradient id="linear-gradient-3" x1="0.5" y1="-0.269" x2="0.5" y2="2.254" gradientUnits="objectBoundingBox">
      <stop offset="0" stop-color="#ffca3f"/>
      <stop offset="0.097" stop-color="#ca7c22"/>
      <stop offset="0.189" stop-color="#fddb7a"/>
      <stop offset="0.42" stop-color="#ffad45"/>
      <stop offset="0.554" stop-color="#a95f0d"/>
      <stop offset="0.656" stop-color="#ffad45"/>
      <stop offset="0.79" stop-color="#ffff9b"/>
      <stop offset="0.868" stop-color="#ffed7b"/>
      <stop offset="1" stop-color="#ffca3f"/>
    </linearGradient>
  </defs>
  <g id="Group_2868" data-name="Group 2868">
    <g id="Group_2867" data-name="Group 2867">
      <g id="Group_2853" data-name="Group 2853">
        <path id="Path_5904" data-name="Path 5904" d="M117.7,353.739a2.854,2.854,0,0,1-2.844,2.846H54.36a2.854,2.854,0,0,1-2.846-2.846V317.624a2.853,2.853,0,0,1,2.846-2.845h60.5a2.853,2.853,0,0,1,2.844,2.845Z" transform="translate(-51.514 -314.779)" fill="url(#linear-gradient)"/>
        <path id="Path_5905" data-name="Path 5905" d="M54.583,369.829h60.331a2.913,2.913,0,0,0,2.836-2.969l.057-35.408a36.364,36.364,0,0,0-6.219-.349c-37.937,0-37.726,33.833-59.874,34.486l.032,1.271A2.915,2.915,0,0,0,54.583,369.829Z" transform="translate(-51.676 -328.027)" fill="url(#linear-gradient-2)"/>
      </g>
      <g id="Group_2854" data-name="Group 2854" transform="translate(5.946 6.143)">
        <path id="Path_5906" data-name="Path 5906" d="M94.046,354.513a1.567,1.567,0,0,1-1.568,1.567H84.642a1.566,1.566,0,0,1-1.567-1.567v-5.56a1.566,1.566,0,0,1,1.567-1.567h7.837a1.567,1.567,0,0,1,1.568,1.567Z" transform="translate(-83.075 -347.386)" fill-rule="evenodd" fill="url(#linear-gradient-3)"/>
        <path id="Path_5907" data-name="Path 5907" d="M94.046,350.126v-.2h-2.01v-2.539h-.2v2.539H90.207a1.8,1.8,0,0,0-1.547-1.252v-1.287h-.2v1.273a1.8,1.8,0,0,0-1.683,1.266H85.3v-2.539h-.2v2.539H83.075v.2H85.1v2.844H83.075v.2H85.1v2.909h.2v-2.909h1.436a1.806,1.806,0,0,0,1.725,1.4v1.508h.2v-1.522a1.8,1.8,0,0,0,1.589-1.387h1.587v2.909h.2v-2.909h2.01v-.2h-1.2v-2.844Zm-7.34,2.844H85.3v-2.844H86.72a2.316,2.316,0,0,1-.034,2.644A1.754,1.754,0,0,0,86.707,352.97Zm1.785,1.4a1.6,1.6,0,0,1-1.175-2.691l.062-.068-.062-.068a1.605,1.605,0,1,1,2.351,0l-.063.068.063.068a1.6,1.6,0,0,1-1.175,2.691Zm4.155-1.4h-2.37a2.1,2.1,0,0,1,.021-2.508,1.831,1.831,0,0,0-.034-.336h2.383Z" transform="translate(-83.075 -347.386)" fill="#ff9100" style="mix-blend-mode: multiply;isolation: isolate"/>
      </g>
      <g id="Group_2855" data-name="Group 2855" transform="translate(5.911 20.174)">
        <path id="Path_5908" data-name="Path 5908" d="M83.093,422.725l-.2-.209.6-.652h.5v2.983H83.66v-2.633a.287.287,0,0,1,.013-.111l-.013-.013Z" transform="translate(-82.893 -421.864)" fill="#d6d6d6"/>
        <path id="Path_5909" data-name="Path 5909" d="M92.12,424.847V424.4a.158.158,0,0,1,.081-.174l1.415-1.291a.213.213,0,0,0,.068-.087.466.466,0,0,0,.013-.126v-.378a.345.345,0,0,0-.007-.084.137.137,0,0,0-.045-.049.227.227,0,0,0-.06-.036.434.434,0,0,0-.1-.007h-.759a.427.427,0,0,0-.1.007.229.229,0,0,0-.06.036.142.142,0,0,0-.045.049.318.318,0,0,0-.006.084v.08h-.358v-.17a.265.265,0,0,1,.1-.213l.1-.085a.323.323,0,0,1,.2-.085h1.074a.322.322,0,0,1,.2.085l.1.085a.266.266,0,0,1,.1.213v.6a.463.463,0,0,1-.013.126.207.207,0,0,1-.068.087l-1.41,1.274a.192.192,0,0,0-.085.2v.017h1.577v.3Z" transform="translate(-90.382 -421.864)" fill="#d6d6d6"/>
        <path id="Path_5910" data-name="Path 5910" d="M107.507,423.338l.167.137a.254.254,0,0,1,.074.077.432.432,0,0,1,.011.127v.784a.333.333,0,0,1-.015.119.378.378,0,0,1-.066.09l-.077.077a.287.287,0,0,1-.2.1h-1.21a.319.319,0,0,1-.2-.085l-.1-.085a.266.266,0,0,1-.1-.213v-.17h.358v.081a.327.327,0,0,0,.006.083.135.135,0,0,0,.045.049.2.2,0,0,0,.06.036.4.4,0,0,0,.1.007h.844a.4.4,0,0,0,.1-.007.2.2,0,0,0,.06-.036.138.138,0,0,0,.045-.049.319.319,0,0,0,.006-.083v-.643a.211.211,0,0,0-.077-.163l-.064-.055a.369.369,0,0,0-.089-.064.456.456,0,0,0-.107-.008h-.682v-.273H107a.417.417,0,0,0,.106-.008.33.33,0,0,0,.089-.064l.064-.051a.3.3,0,0,0,.075-.075.319.319,0,0,0,.01-.1v-.528a.311.311,0,0,0-.006-.084.131.131,0,0,0-.045-.049.223.223,0,0,0-.059-.036.428.428,0,0,0-.1-.007h-.7a.459.459,0,0,0-.1.007.226.226,0,0,0-.06.036.139.139,0,0,0-.045.049.32.32,0,0,0-.006.084v.08h-.358v-.17a.266.266,0,0,1,.1-.213l.1-.085a.321.321,0,0,1,.2-.085H107.3a.323.323,0,0,1,.2.085l.1.085a.266.266,0,0,1,.1.213v.7a.258.258,0,0,1-.01.094.254.254,0,0,1-.067.064l-.124.1a.2.2,0,0,1-.119.055v.021A.2.2,0,0,1,107.507,423.338Z" transform="translate(-101.47 -421.864)" fill="#d6d6d6"/>
        <path id="Path_5911" data-name="Path 5911" d="M120.952,423.015h.358v.853h.409v.3h-.409v.682h-.358v-.682h-1.508v-.349l1.457-1.952h.4l-1.419,1.9a.25.25,0,0,1-.072.081v.018h1.142Z" transform="translate(-112.558 -421.864)" fill="#d6d6d6"/>
        <path id="Path_5912" data-name="Path 5912" d="M152.375,422.886h.963a.319.319,0,0,1,.2.086l.1.085a.265.265,0,0,1,.1.213v1.193a.267.267,0,0,1-.1.213l-.1.085a.32.32,0,0,1-.2.085H152.06a.321.321,0,0,1-.205-.085l-.1-.085a.267.267,0,0,1-.1-.213v-.17h.358v.081a.312.312,0,0,0,.006.083.127.127,0,0,0,.045.049.2.2,0,0,0,.06.036.4.4,0,0,0,.1.007h.963a.4.4,0,0,0,.1-.007.206.206,0,0,0,.06-.036.132.132,0,0,0,.045-.049.315.315,0,0,0,.006-.083V423.36a.317.317,0,0,0-.006-.083.13.13,0,0,0-.045-.049.218.218,0,0,0-.06-.036.456.456,0,0,0-.1-.006h-.822a.325.325,0,0,0-.2.085.236.236,0,0,0-.1.171h-.358v-1.577h2v.3h-1.645v.933h.017c0-.031.034-.069.093-.115A.393.393,0,0,1,152.375,422.886Z" transform="translate(-138.698 -421.864)" fill="#d6d6d6"/>
        <path id="Path_5913" data-name="Path 5913" d="M168.778,422.418h-.358v-.08a.32.32,0,0,0-.006-.084.139.139,0,0,0-.045-.049.227.227,0,0,0-.06-.036.426.426,0,0,0-.1-.007h-1.023a.436.436,0,0,0-.1.007.232.232,0,0,0-.06.036.134.134,0,0,0-.045.049.344.344,0,0,0-.007.084v.847H167l.021-.021c.1-.1.177-.149.234-.149h1.159a.321.321,0,0,1,.2.085l.1.085a.267.267,0,0,1,.1.213v1.065a.268.268,0,0,1-.1.213l-.1.085a.318.318,0,0,1-.2.085h-1.381a.32.32,0,0,1-.2-.085l-.1-.085a.269.269,0,0,1-.1-.213v-2.216a.268.268,0,0,1,.1-.213l.1-.085a.322.322,0,0,1,.2-.085h1.338a.322.322,0,0,1,.2.085l.1.085a.265.265,0,0,1,.1.213Zm-.315,1.956v-.886a.323.323,0,0,0-.006-.083.124.124,0,0,0-.044-.049.214.214,0,0,0-.06-.037.441.441,0,0,0-.1-.006H167.3a.443.443,0,0,0-.109.008.642.642,0,0,0-.1.056c-.065.039-.1.075-.1.106v.891a.339.339,0,0,0,.007.083.132.132,0,0,0,.045.049.211.211,0,0,0,.06.036.414.414,0,0,0,.1.007h1.065a.4.4,0,0,0,.1-.007.2.2,0,0,0,.06-.036.129.129,0,0,0,.044-.049A.32.32,0,0,0,168.463,424.374Z" transform="translate(-150.848 -421.864)" fill="#d6d6d6"/>
        <path id="Path_5914" data-name="Path 5914" d="M181.155,424.847l1.4-2.6a.213.213,0,0,1,.072-.085h-1.844v-.3h2.186v.324l-1.423,2.659Z" transform="translate(-162.342 -421.864)" fill="#d6d6d6"/>
        <path id="Path_5915" data-name="Path 5915" d="M195.838,423.53l.2-.166a.2.2,0,0,1,.119-.055v-.021a.2.2,0,0,1-.119-.055l-.141-.112a.176.176,0,0,1-.068-.145v-.729a.267.267,0,0,1,.1-.213l.1-.085a.323.323,0,0,1,.2-.085h1.3a.324.324,0,0,1,.2.085l.1.085a.265.265,0,0,1,.1.213v.729a.178.178,0,0,1-.068.145l-.141.112a.2.2,0,0,1-.119.055v.021a.2.2,0,0,1,.119.055l.2.166a.2.2,0,0,1,.06.167v.767a.266.266,0,0,1-.1.213c-.022.017-.057.045-.1.085a.319.319,0,0,1-.2.085h-1.406a.319.319,0,0,1-.2-.085c-.046-.04-.08-.068-.1-.085a.266.266,0,0,1-.1-.213V423.7A.2.2,0,0,1,195.838,423.53Zm1.483-.047h-.861a.406.406,0,0,0-.085.006.28.28,0,0,0-.073.05l-.093.077a.218.218,0,0,0-.064.063.3.3,0,0,0-.008.09v.605a.331.331,0,0,0,.006.083.136.136,0,0,0,.045.049.2.2,0,0,0,.06.036.4.4,0,0,0,.1.007h1.091a.4.4,0,0,0,.1-.007.2.2,0,0,0,.06-.036.133.133,0,0,0,.045-.049.339.339,0,0,0,.007-.083v-.605a.33.33,0,0,0-.008-.09.232.232,0,0,0-.064-.063l-.094-.077a.275.275,0,0,0-.073-.05A.4.4,0,0,0,197.32,423.483Zm.064-1.321H196.4a.425.425,0,0,0-.1.007.221.221,0,0,0-.06.036.133.133,0,0,0-.045.049.331.331,0,0,0-.006.084v.553a.312.312,0,0,0,.008.093.208.208,0,0,0,.06.064l.111.089a.2.2,0,0,0,.066.04.462.462,0,0,0,.1.007h.716a.451.451,0,0,0,.1-.007.191.191,0,0,0,.066-.04l.111-.089a.21.21,0,0,0,.06-.064.338.338,0,0,0,.008-.093v-.553a.312.312,0,0,0-.007-.084.136.136,0,0,0-.045-.049.226.226,0,0,0-.06-.036A.424.424,0,0,0,197.384,422.162Z" transform="translate(-174.512 -421.864)" fill="#d6d6d6"/>
        <path id="Path_5916" data-name="Path 5916" d="M228.436,424.293h.358v.081a.346.346,0,0,0,.006.083.132.132,0,0,0,.045.049.206.206,0,0,0,.059.036.418.418,0,0,0,.1.007h1.022a.4.4,0,0,0,.1-.007.206.206,0,0,0,.06-.036.134.134,0,0,0,.045-.049.307.307,0,0,0,.006-.083v-.848h-.017l-.021.021c-.1.1-.177.149-.234.149H228.8a.321.321,0,0,1-.2-.085l-.1-.085a.265.265,0,0,1-.1-.213v-1.066a.266.266,0,0,1,.1-.213l.1-.085a.324.324,0,0,1,.2-.085h1.381a.321.321,0,0,1,.2.085l.1.085a.265.265,0,0,1,.1.213v2.216a.266.266,0,0,1-.1.213l-.1.085a.318.318,0,0,1-.2.085h-1.338a.319.319,0,0,1-.2-.085l-.1-.085a.269.269,0,0,1-.1-.213Zm.316-1.956v.886a.31.31,0,0,0,.006.083.134.134,0,0,0,.045.049.226.226,0,0,0,.06.036.422.422,0,0,0,.1.007h.959a.435.435,0,0,0,.109-.009.592.592,0,0,0,.1-.055c.065-.04.1-.076.1-.107v-.89a.311.311,0,0,0-.006-.084.137.137,0,0,0-.045-.049.226.226,0,0,0-.06-.036.425.425,0,0,0-.1-.007H228.96a.422.422,0,0,0-.1.007.227.227,0,0,0-.06.036.138.138,0,0,0-.045.049A.311.311,0,0,0,228.751,422.338Z" transform="translate(-200.982 -421.864)" fill="#d6d6d6"/>
        <path id="Path_5917" data-name="Path 5917" d="M244.566,421.864h1.688a.322.322,0,0,1,.2.085l.1.085a.268.268,0,0,1,.1.213v2.216a.268.268,0,0,1-.1.213l-.1.085a.319.319,0,0,1-.2.085h-1.688a.319.319,0,0,1-.2-.085l-.1-.085a.267.267,0,0,1-.1-.213v-2.216a.267.267,0,0,1,.1-.213l.1-.085A.322.322,0,0,1,244.566,421.864Zm1.739,2.51v-2.036a.347.347,0,0,0-.006-.084.137.137,0,0,0-.045-.049.222.222,0,0,0-.06-.036.425.425,0,0,0-.1-.007h-1.372a.434.434,0,0,0-.1.007.223.223,0,0,0-.06.036.138.138,0,0,0-.045.049.351.351,0,0,0-.006.084v2.036a.346.346,0,0,0,.006.083.135.135,0,0,0,.045.049.2.2,0,0,0,.06.036.412.412,0,0,0,.1.007H246.1a.4.4,0,0,0,.1-.007.2.2,0,0,0,.06-.036.134.134,0,0,0,.045-.049A.343.343,0,0,0,246.3,424.374Z" transform="translate(-213.776 -421.864)" fill="#d6d6d6"/>
        <path id="Path_5918" data-name="Path 5918" d="M260.958,422.725l-.2-.209.6-.652h.5v2.983h-.332v-2.633a.3.3,0,0,1,.013-.111l-.013-.013Z" transform="translate(-227.25 -421.864)" fill="#d6d6d6"/>
        <path id="Path_5919" data-name="Path 5919" d="M269.988,424.847V424.4a.157.157,0,0,1,.081-.174l1.415-1.291a.212.212,0,0,0,.068-.087.471.471,0,0,0,.013-.126v-.378a.317.317,0,0,0-.007-.084.133.133,0,0,0-.045-.049.221.221,0,0,0-.059-.036.425.425,0,0,0-.1-.007H270.6a.423.423,0,0,0-.1.007.219.219,0,0,0-.059.036.137.137,0,0,0-.045.049.313.313,0,0,0-.006.084v.08h-.358v-.17a.266.266,0,0,1,.1-.213l.1-.085a.32.32,0,0,1,.2-.085h1.073a.324.324,0,0,1,.205.085l.1.085a.267.267,0,0,1,.1.213v.6a.463.463,0,0,1-.013.126.207.207,0,0,1-.068.087l-1.41,1.274a.3.3,0,0,0-.072.086.313.313,0,0,0-.013.111v.017h1.576v.3Z" transform="translate(-234.741 -421.864)" fill="#d6d6d6"/>
        <path id="Path_5920" data-name="Path 5920" d="M302.339,423.338l.166.137a.258.258,0,0,1,.074.077.432.432,0,0,1,.011.127v.784a.339.339,0,0,1-.015.119.368.368,0,0,1-.066.09l-.076.077a.289.289,0,0,1-.2.1h-1.21a.32.32,0,0,1-.2-.085l-.1-.085a.268.268,0,0,1-.1-.213v-.17h.358v.081a.32.32,0,0,0,.006.083.131.131,0,0,0,.045.049.205.205,0,0,0,.06.036.4.4,0,0,0,.1.007h.844a.408.408,0,0,0,.1-.007.209.209,0,0,0,.06-.036.137.137,0,0,0,.045-.049.354.354,0,0,0,.006-.083v-.643a.21.21,0,0,0-.077-.163l-.064-.055a.359.359,0,0,0-.09-.064.445.445,0,0,0-.106-.008h-.682v-.273h.622a.417.417,0,0,0,.106-.008.348.348,0,0,0,.09-.064l.064-.051a.3.3,0,0,0,.074-.075.312.312,0,0,0,.011-.1v-.528a.311.311,0,0,0-.007-.084.136.136,0,0,0-.045-.049.221.221,0,0,0-.06-.036.422.422,0,0,0-.1-.007h-.7a.456.456,0,0,0-.1.007.227.227,0,0,0-.059.036.136.136,0,0,0-.045.049.336.336,0,0,0-.006.084v.08H300.7v-.17a.266.266,0,0,1,.1-.213l.1-.085a.323.323,0,0,1,.2-.085h1.022a.32.32,0,0,1,.2.085l.1.085a.266.266,0,0,1,.1.213v.7a.254.254,0,0,1-.011.094.236.236,0,0,1-.066.064l-.123.1a.2.2,0,0,1-.119.055v.021A.2.2,0,0,1,302.339,423.338Z" transform="translate(-259.598 -421.864)" fill="#d6d6d6"/>
        <path id="Path_5921" data-name="Path 5921" d="M315.78,423.015h.358v.853h.409v.3h-.409v.682h-.358v-.682h-1.509v-.349l1.458-1.952h.4l-1.419,1.9a.25.25,0,0,1-.073.081v.018h1.142Z" transform="translate(-270.682 -421.864)" fill="#d6d6d6"/>
        <path id="Path_5922" data-name="Path 5922" d="M330.241,422.886h.964a.32.32,0,0,1,.2.086l.1.085a.267.267,0,0,1,.1.213v1.193a.268.268,0,0,1-.1.213l-.1.085a.321.321,0,0,1-.2.085h-1.279a.321.321,0,0,1-.2-.085l-.1-.085a.267.267,0,0,1-.1-.213v-.17h.358v.081a.328.328,0,0,0,.006.083.136.136,0,0,0,.045.049.207.207,0,0,0,.06.036.405.405,0,0,0,.1.007h.963a.4.4,0,0,0,.1-.007.2.2,0,0,0,.06-.036.129.129,0,0,0,.044-.049.313.313,0,0,0,.007-.083V423.36a.314.314,0,0,0-.007-.083.128.128,0,0,0-.044-.049.215.215,0,0,0-.06-.036.456.456,0,0,0-.1-.006h-.822a.324.324,0,0,0-.2.085.236.236,0,0,0-.1.171h-.358v-1.577h2v.3h-1.645v.933h.017c0-.031.034-.069.094-.115A.392.392,0,0,1,330.241,422.886Z" transform="translate(-283.055 -421.864)" fill="#d6d6d6"/>
        <path id="Path_5923" data-name="Path 5923" d="M346.647,422.418h-.358v-.08a.317.317,0,0,0-.007-.084.131.131,0,0,0-.045-.049.211.211,0,0,0-.06-.036.422.422,0,0,0-.1-.007h-1.022a.423.423,0,0,0-.1.007.219.219,0,0,0-.059.036.135.135,0,0,0-.045.049.334.334,0,0,0-.006.084v.847h.016l.022-.021q.149-.149.234-.149h1.159a.32.32,0,0,1,.2.085l.1.085a.266.266,0,0,1,.1.213v1.065a.266.266,0,0,1-.1.213l-.1.085a.318.318,0,0,1-.2.085H344.9a.32.32,0,0,1-.205-.085l-.1-.085a.266.266,0,0,1-.1-.213v-2.216a.265.265,0,0,1,.1-.213l.1-.085a.323.323,0,0,1,.205-.085h1.337a.323.323,0,0,1,.2.085l.1.085a.266.266,0,0,1,.1.213Zm-.315,1.956v-.886a.318.318,0,0,0-.006-.083.13.13,0,0,0-.045-.049.225.225,0,0,0-.06-.037.442.442,0,0,0-.1-.006h-.959a.434.434,0,0,0-.109.008.608.608,0,0,0-.1.056c-.066.039-.1.075-.1.106v.891a.33.33,0,0,0,.006.083.132.132,0,0,0,.045.049.2.2,0,0,0,.059.036.4.4,0,0,0,.1.007h1.065a.4.4,0,0,0,.1-.007.206.206,0,0,0,.06-.036.135.135,0,0,0,.045-.049A.314.314,0,0,0,346.332,424.374Z" transform="translate(-295.209 -421.864)" fill="#d6d6d6"/>
      </g>
      <g id="Group_2856" data-name="Group 2856" transform="translate(6.038 25.797)">
        <path id="Path_5924" data-name="Path 5924" d="M84.722,452.594a1.213,1.213,0,0,1-.144.661.539.539,0,0,1-.869-.008,1.19,1.19,0,0,1-.147-.653,1.23,1.23,0,0,1,.143-.666.541.541,0,0,1,.869.011A1.2,1.2,0,0,1,84.722,452.594Zm-.882,0a1.247,1.247,0,0,0,.072.5.252.252,0,0,0,.46,0,1.237,1.237,0,0,0,.073-.5,1.251,1.251,0,0,0-.073-.5.242.242,0,0,0-.231-.153.239.239,0,0,0-.229.15A1.255,1.255,0,0,0,83.84,452.594Z" transform="translate(-83.562 -451.714)" fill="#d6d6d6"/>
        <path id="Path_5925" data-name="Path 5925" d="M91.946,453.56h-.274v-1.1c0-.131,0-.236.009-.313-.018.018-.04.04-.066.062s-.113.095-.262.215l-.138-.174.5-.394h.229Z" transform="translate(-89.773 -451.827)" fill="#d6d6d6"/>
        <path id="Path_5926" data-name="Path 5926" d="M99.22,453.456H98.063v-.208l.44-.443a3.765,3.765,0,0,0,.259-.283.687.687,0,0,0,.093-.157.433.433,0,0,0,.029-.158.24.24,0,0,0-.07-.182.263.263,0,0,0-.192-.067.507.507,0,0,0-.19.036.9.9,0,0,0-.212.13l-.148-.18a.971.971,0,0,1,.277-.171.815.815,0,0,1,.286-.05.566.566,0,0,1,.382.124.42.42,0,0,1,.144.335.593.593,0,0,1-.042.22.88.88,0,0,1-.127.214,2.919,2.919,0,0,1-.285.3l-.3.287v.013h.81Z" transform="translate(-95.331 -451.723)" fill="#d6d6d6"/>
        <path id="Path_5927" data-name="Path 5927" d="M106.379,452.142a.4.4,0,0,1-.095.27.477.477,0,0,1-.267.146v.01a.516.516,0,0,1,.309.127.37.37,0,0,1,.1.271.452.452,0,0,1-.174.381.8.8,0,0,1-.495.134,1.12,1.12,0,0,1-.478-.092v-.245a1.065,1.065,0,0,0,.23.083,1,1,0,0,0,.234.03.5.5,0,0,0,.3-.073.268.268,0,0,0,.1-.229.217.217,0,0,0-.109-.2.694.694,0,0,0-.341-.064h-.149v-.223h.151q.409,0,.409-.283a.207.207,0,0,0-.072-.169.318.318,0,0,0-.21-.06.625.625,0,0,0-.187.028.892.892,0,0,0-.212.107l-.134-.191a.893.893,0,0,1,.545-.173.651.651,0,0,1,.4.11A.365.365,0,0,1,106.379,452.142Z" transform="translate(-101.19 -451.723)" fill="#d6d6d6"/>
      </g>
      <g id="Group_2858" data-name="Group 2858" transform="translate(5.685 1.274)">
        <g id="Group_2857" data-name="Group 2857">
          <path id="Path_5928" data-name="Path 5928" d="M82.006,327.274a.529.529,0,0,1-.163-.124.59.59,0,0,1-.11-.183.622.622,0,0,1-.04-.224v-.835a.619.619,0,0,1,.04-.224.6.6,0,0,1,.11-.184.53.53,0,0,1,.163-.124.456.456,0,0,1,.2-.046h.477v.43H82.21a.1.1,0,0,0-.074.039.162.162,0,0,0-.033.108v.835a.158.158,0,0,0,.033.106.1.1,0,0,0,.074.039h.477v.434H82.21A.455.455,0,0,1,82.006,327.274Z" transform="translate(-81.693 -324.616)" fill="#d6d6d6"/>
          <path id="Path_5929" data-name="Path 5929" d="M88.715,325.805a.165.165,0,0,0-.032.1v1.416h-.41v-1.416a.635.635,0,0,1,.038-.217.571.571,0,0,1,.107-.183.547.547,0,0,1,.165-.128.446.446,0,0,1,.208-.049h.477v.433H88.79A.092.092,0,0,0,88.715,325.805Z" transform="translate(-87.033 -324.616)" fill="#d6d6d6"/>
          <path id="Path_5930" data-name="Path 5930" d="M94.885,326.746c0,.065.017.106.052.121a.431.431,0,0,0,.165.023h.375v.434h-.254l-.271,0a.385.385,0,0,1-.2-.052.53.53,0,0,1-.153-.133.612.612,0,0,1-.1-.183.645.645,0,0,1-.035-.207v-.838a.615.615,0,0,1,.039-.217.6.6,0,0,1,.109-.183.541.541,0,0,1,.166-.128.461.461,0,0,1,.212-.049H95.1a.455.455,0,0,1,.209.049.541.541,0,0,1,.166.128.6.6,0,0,1,.109.183.615.615,0,0,1,.039.217v.612h-.74Zm.293-.939a.1.1,0,0,0-.076-.043h-.107a.094.094,0,0,0-.078.042.165.165,0,0,0-.032.1v.182h.327v-.182A.163.163,0,0,0,95.178,325.807Z" transform="translate(-92.062 -324.616)" fill="#d6d6d6"/>
          <path id="Path_5931" data-name="Path 5931" d="M102.665,324.249a.452.452,0,0,1-.205-.048.553.553,0,0,1-.167-.128.6.6,0,0,1-.113-.188.631.631,0,0,1-.04-.225v-.85a.633.633,0,0,1,.04-.225.6.6,0,0,1,.113-.188.551.551,0,0,1,.167-.129.454.454,0,0,1,.205-.047h.107a.345.345,0,0,1,.11.017v-.7h.413v2.118a.634.634,0,0,1-.04.225.619.619,0,0,1-.111.188.544.544,0,0,1-.166.128.452.452,0,0,1-.205.048Zm.181-1.546a.1.1,0,0,0-.074-.041h-.107a.1.1,0,0,0-.075.041.157.157,0,0,0-.035.107v.85a.156.156,0,0,0,.035.108.1.1,0,0,0,.075.039h.107a.1.1,0,0,0,.074-.039.154.154,0,0,0,.036-.108v-.85A.155.155,0,0,0,102.845,322.7Z" transform="translate(-98.287 -321.542)" fill="#d6d6d6"/>
          <path id="Path_5932" data-name="Path 5932" d="M110.209,323.233h-.4v-.358h.4Zm-.1,2.049a.51.51,0,0,1-.159-.131.611.611,0,0,1-.1-.188.679.679,0,0,1-.036-.221v-1.407h.4v1.407a.174.174,0,0,0,.03.107.088.088,0,0,0,.071.04h.11v.442h-.11A.431.431,0,0,1,110.105,325.282Z" transform="translate(-104.511 -322.624)" fill="#d6d6d6"/>
          <path id="Path_5933" data-name="Path 5933" d="M114.3,323.66a.173.173,0,0,0,.03.107.088.088,0,0,0,.071.04h.11v.442h-.11a.431.431,0,0,1-.205-.049.513.513,0,0,1-.159-.132.608.608,0,0,1-.1-.188.674.674,0,0,1-.036-.221v-2.118h.4v.682h.428v.439H114.3Z" transform="translate(-107.835 -321.542)" fill="#d6d6d6"/>
          <path id="Path_5934" data-name="Path 5934" d="M123.464,327.274a.526.526,0,0,1-.163-.124.587.587,0,0,1-.11-.183.618.618,0,0,1-.04-.224v-.835a.616.616,0,0,1,.04-.224.593.593,0,0,1,.11-.184.528.528,0,0,1,.163-.124.456.456,0,0,1,.2-.046h.477v.43h-.477a.1.1,0,0,0-.073.039.161.161,0,0,0-.033.108v.835a.157.157,0,0,0,.033.106.1.1,0,0,0,.073.039h.477v.434h-.477A.455.455,0,0,1,123.464,327.274Z" transform="translate(-115.341 -324.616)" fill="#d6d6d6"/>
          <path id="Path_5935" data-name="Path 5935" d="M129.95,327.324a.47.47,0,0,1-.244-.059.5.5,0,0,1-.162-.152.651.651,0,0,1-.091-.209.985.985,0,0,1-.029-.235.616.616,0,0,1,.039-.217.6.6,0,0,1,.11-.185.535.535,0,0,1,.167-.129.47.47,0,0,1,.21-.048h.217v-.182a.162.162,0,0,0-.033-.1.1.1,0,0,0-.077-.043h-.488v-.433h.488a.455.455,0,0,1,.21.049.542.542,0,0,1,.166.128.592.592,0,0,1,.108.183.614.614,0,0,1,.039.217v.838a.612.612,0,0,1-.039.217.592.592,0,0,1-.108.184.544.544,0,0,1-.166.128.455.455,0,0,1-.21.049Zm0-.8a.1.1,0,0,0-.077.044.166.166,0,0,0-.033.1v.078a.161.161,0,0,0,.033.1.1.1,0,0,0,.077.043h.107a.1.1,0,0,0,.077-.043.162.162,0,0,0,.033-.1v-.226Z" transform="translate(-120.432 -324.616)" fill="#d6d6d6"/>
          <path id="Path_5936" data-name="Path 5936" d="M137.536,325.805a.165.165,0,0,0-.032.1v1.416h-.41v-1.416a.634.634,0,0,1,.037-.217.571.571,0,0,1,.107-.183.546.546,0,0,1,.165-.128.447.447,0,0,1,.208-.049h.477v.433h-.477A.092.092,0,0,0,137.536,325.805Z" transform="translate(-126.657 -324.616)" fill="#d6d6d6"/>
          <path id="Path_5937" data-name="Path 5937" d="M143.816,324.249a.451.451,0,0,1-.2-.048.555.555,0,0,1-.168-.128.6.6,0,0,1-.113-.188.631.631,0,0,1-.04-.225v-.85a.633.633,0,0,1,.04-.225.594.594,0,0,1,.113-.188.553.553,0,0,1,.168-.129.453.453,0,0,1,.2-.047h.107a.342.342,0,0,1,.11.017v-.7h.413v2.118a.631.631,0,0,1-.04.225.613.613,0,0,1-.111.188.545.545,0,0,1-.166.128.452.452,0,0,1-.205.048ZM144,322.7a.1.1,0,0,0-.074-.041h-.107a.1.1,0,0,0-.075.041.158.158,0,0,0-.035.107v.85a.157.157,0,0,0,.035.108.1.1,0,0,0,.075.039h.107a.1.1,0,0,0,.074-.039.154.154,0,0,0,.036-.108v-.85A.155.155,0,0,0,144,322.7Z" transform="translate(-131.686 -321.542)" fill="#d6d6d6"/>
        </g>
      </g>
      <g id="Group_2859" data-name="Group 2859" transform="translate(49.458 4.042)">
        <path id="Path_5938" data-name="Path 5938" d="M314.044,342.017v-1.991h.633a.473.473,0,0,1,.207.046.53.53,0,0,1,.167.124.574.574,0,0,1,.111.183.621.621,0,0,1,.041.224v.034a.593.593,0,0,1-.032.194.631.631,0,0,1-.087.167.646.646,0,0,1,.087.166.581.581,0,0,1,.032.192v.081a.619.619,0,0,1-.041.224.575.575,0,0,1-.111.184.535.535,0,0,1-.167.124.473.473,0,0,1-.207.046Zm.709-1.52a.1.1,0,0,0-.077-.04h-.214v.326h.214a.1.1,0,0,0,.077-.039.149.149,0,0,0,.036-.106V340.6A.155.155,0,0,0,314.754,340.5Zm0,.757a.1.1,0,0,0-.077-.041h-.214v.37h.214a.105.105,0,0,0,.077-.039.15.15,0,0,0,.036-.105v-.078A.155.155,0,0,0,314.754,341.254Z" transform="translate(-314.044 -339.312)" fill="#d6d6d6"/>
        <path id="Path_5939" data-name="Path 5939" d="M321.947,342.02a.469.469,0,0,1-.244-.059.5.5,0,0,1-.162-.152.656.656,0,0,1-.091-.209.984.984,0,0,1-.029-.236.611.611,0,0,1,.039-.217.59.59,0,0,1,.11-.185.529.529,0,0,1,.167-.129.471.471,0,0,1,.209-.048h.217V340.6a.16.16,0,0,0-.033-.1.1.1,0,0,0-.077-.043h-.488v-.434h.488a.459.459,0,0,1,.209.049.546.546,0,0,1,.166.129.6.6,0,0,1,.109.183.621.621,0,0,1,.039.217v.838a.617.617,0,0,1-.039.216.6.6,0,0,1-.109.184.544.544,0,0,1-.166.129.461.461,0,0,1-.209.049Zm0-.8a.1.1,0,0,0-.076.043.165.165,0,0,0-.033.1v.078a.161.161,0,0,0,.033.1.1.1,0,0,0,.076.043h.107a.1.1,0,0,0,.077-.043.161.161,0,0,0,.033-.1v-.226Z" transform="translate(-320.031 -339.312)" fill="#d6d6d6"/>
        <path id="Path_5940" data-name="Path 5940" d="M329.833,340.619a.162.162,0,0,0-.033-.1.1.1,0,0,0-.077-.043h-.107a.1.1,0,0,0-.076.043.162.162,0,0,0-.033.1v1.413h-.416v-1.413a.612.612,0,0,1,.039-.217.6.6,0,0,1,.108-.183.549.549,0,0,1,.166-.129.467.467,0,0,1,.212-.049h.107a.459.459,0,0,1,.21.049.547.547,0,0,1,.166.129.6.6,0,0,1,.109.183.615.615,0,0,1,.039.217v1.413h-.413Z" transform="translate(-326.256 -339.324)" fill="#d6d6d6"/>
        <path id="Path_5941" data-name="Path 5941" d="M337.5,338.277a.17.17,0,0,0-.032-.105.091.091,0,0,0-.072-.042h-.223v.815h-.413v-2.708h.413v1.453h.223a.09.09,0,0,0,.072-.042.17.17,0,0,0,.032-.105v-.627h.416v.627a.621.621,0,0,1-.03.192.61.61,0,0,1-.088.172.644.644,0,0,1,.088.176.633.633,0,0,1,.03.193v.667H337.5Z" transform="translate(-332.481 -336.237)" fill="#d6d6d6"/>
        <path id="Path_5942" data-name="Path 5942" d="M349.114,341.439l-.321-.546v1.124h-.422v-1.991h.4l.347.688v-.688h.413v1.991h-.413Z" transform="translate(-341.904 -339.312)" fill="#d6d6d6"/>
        <path id="Path_5943" data-name="Path 5943" d="M356.259,342.02a.469.469,0,0,1-.244-.059.5.5,0,0,1-.162-.152.656.656,0,0,1-.091-.209.984.984,0,0,1-.029-.236.616.616,0,0,1,.039-.217.6.6,0,0,1,.11-.185.532.532,0,0,1,.167-.129.471.471,0,0,1,.21-.048h.217V340.6a.16.16,0,0,0-.033-.1.1.1,0,0,0-.076-.043h-.488v-.434h.488a.458.458,0,0,1,.209.049.548.548,0,0,1,.166.129.6.6,0,0,1,.109.183.615.615,0,0,1,.039.217v.838a.612.612,0,0,1-.039.216.6.6,0,0,1-.109.184.546.546,0,0,1-.166.129.46.46,0,0,1-.209.049Zm0-.8a.1.1,0,0,0-.077.043.164.164,0,0,0-.033.1v.078a.16.16,0,0,0,.033.1.1.1,0,0,0,.077.043h.107a.1.1,0,0,0,.076-.043.161.161,0,0,0,.033-.1v-.226Z" transform="translate(-347.879 -339.312)" fill="#d6d6d6"/>
        <path id="Path_5944" data-name="Path 5944" d="M364.957,340.619a.146.146,0,0,0-.037-.105.11.11,0,0,0-.078-.039h-.113a.109.109,0,0,0-.078.039.145.145,0,0,0-.037.105v1.413h-.434v-1.413a.146.146,0,0,0-.037-.105.11.11,0,0,0-.078-.039h-.113a.107.107,0,0,0-.078.04.149.149,0,0,0-.037.107l0,1.41H363.4v-1.413a.573.573,0,0,1,.044-.221.614.614,0,0,1,.117-.185.555.555,0,0,1,.173-.126.508.508,0,0,1,.215-.046h.113a.513.513,0,0,1,.178.032.178.178,0,0,0,.309,0,.51.51,0,0,1,.178-.032h.113a.507.507,0,0,1,.215.046.549.549,0,0,1,.173.126.62.62,0,0,1,.117.185.579.579,0,0,1,.043.221v1.413h-.433Z" transform="translate(-354.103 -339.324)" fill="#d6d6d6"/>
        <path id="Path_5945" data-name="Path 5945" d="M375.9,341.442c0,.065.017.106.052.121a.425.425,0,0,0,.165.023h.375v.433h-.254l-.272,0a.384.384,0,0,1-.2-.052.539.539,0,0,1-.153-.133.614.614,0,0,1-.1-.184.636.636,0,0,1-.035-.206V340.6a.613.613,0,0,1,.039-.217.592.592,0,0,1,.108-.183.549.549,0,0,1,.166-.129.465.465,0,0,1,.212-.049h.107a.458.458,0,0,1,.209.049.546.546,0,0,1,.166.129.593.593,0,0,1,.109.183.615.615,0,0,1,.039.217v.613h-.74Zm.293-.939a.1.1,0,0,0-.077-.043h-.107a.094.094,0,0,0-.078.042.163.163,0,0,0-.032.1v.182h.326V340.6A.162.162,0,0,0,376.2,340.5Z" transform="translate(-363.913 -339.312)" fill="#d6d6d6"/>
      </g>
      <g id="Group_2860" data-name="Group 2860" transform="translate(6.09 34.568)">
        <path id="Path_5946" data-name="Path 5946" d="M84.808,500.108l-.418-.711v1.464h-.549v-2.592h.515l.452.9v-.9h.538v2.592h-.538Z" transform="translate(-83.841 -498.268)" fill="#d6d6d6"/>
        <path id="Path_5947" data-name="Path 5947" d="M94.111,500.864a.613.613,0,0,1-.318-.077.654.654,0,0,1-.211-.2.845.845,0,0,1-.118-.273,1.268,1.268,0,0,1-.038-.307.8.8,0,0,1,.051-.282.777.777,0,0,1,.143-.241.7.7,0,0,1,.218-.167.612.612,0,0,1,.273-.062h.282v-.237a.211.211,0,0,0-.043-.132.125.125,0,0,0-.1-.057h-.636v-.564h.636a.6.6,0,0,1,.273.064.714.714,0,0,1,.216.168.769.769,0,0,1,.141.239.8.8,0,0,1,.051.282v1.091a.8.8,0,0,1-.051.282.768.768,0,0,1-.141.239.706.706,0,0,1-.216.167.593.593,0,0,1-.273.064Zm0-1.046a.125.125,0,0,0-.1.056.218.218,0,0,0-.043.136v.1a.209.209,0,0,0,.043.131.125.125,0,0,0,.1.057h.139a.125.125,0,0,0,.1-.057.21.21,0,0,0,.043-.131v-.294Z" transform="translate(-91.62 -498.268)" fill="#d6d6d6"/>
        <path id="Path_5948" data-name="Path 5948" d="M105.436,499.041a.189.189,0,0,0-.049-.137.141.141,0,0,0-.1-.051h-.147a.141.141,0,0,0-.1.051.189.189,0,0,0-.049.137v1.84h-.564v-1.84a.189.189,0,0,0-.049-.137.14.14,0,0,0-.1-.051h-.147a.141.141,0,0,0-.1.053.2.2,0,0,0-.049.139l0,1.836h-.56v-1.84a.748.748,0,0,1,.056-.287.8.8,0,0,1,.152-.241.724.724,0,0,1,.226-.164.663.663,0,0,1,.28-.06h.147a.655.655,0,0,1,.232.041.232.232,0,0,0,.4,0,.653.653,0,0,1,.231-.041h.147a.664.664,0,0,1,.281.06.721.721,0,0,1,.225.164.8.8,0,0,1,.153.241.751.751,0,0,1,.056.287v1.84h-.564Z" transform="translate(-99.725 -498.285)" fill="#d6d6d6"/>
        <path id="Path_5949" data-name="Path 5949" d="M119.69,500.112c0,.085.023.138.068.158a.561.561,0,0,0,.215.03h.489v.564h-.331l-.354,0a.5.5,0,0,1-.256-.068.705.705,0,0,1-.2-.173.792.792,0,0,1-.128-.239.833.833,0,0,1-.045-.269V499.02a.8.8,0,0,1,.051-.282.776.776,0,0,1,.141-.239.716.716,0,0,1,.216-.168.6.6,0,0,1,.277-.064h.139a.6.6,0,0,1,.273.064.716.716,0,0,1,.216.168.776.776,0,0,1,.141.239.8.8,0,0,1,.051.282v.8h-.963Zm.382-1.223a.125.125,0,0,0-.1-.057h-.139a.123.123,0,0,0-.1.055.214.214,0,0,0-.041.133v.237h.425v-.237A.21.21,0,0,0,120.072,498.889Z" transform="translate(-112.497 -498.268)" fill="#d6d6d6"/>
        <path id="Path_5950" data-name="Path 5950" d="M133.97,500.864V500.3h.82a.125.125,0,0,0,.1-.057.209.209,0,0,0,.043-.131v-.105a.209.209,0,0,0-.043-.134.126.126,0,0,0-.1-.055h-.139a.6.6,0,0,1-.277-.064.721.721,0,0,1-.216-.167.776.776,0,0,1-.141-.239.8.8,0,0,1-.051-.282v-.045a.806.806,0,0,1,.192-.523.669.669,0,0,1,.216-.167.618.618,0,0,1,.277-.062h.64v.56h-.64a.117.117,0,0,0-.106.064.342.342,0,0,0-.037.173.214.214,0,0,0,.041.134.123.123,0,0,0,.1.055h.139a.613.613,0,0,1,.273.062.674.674,0,0,1,.216.168.809.809,0,0,1,.192.523v.105a.8.8,0,0,1-.051.282.772.772,0,0,1-.141.239.705.705,0,0,1-.216.167.594.594,0,0,1-.273.064Z" transform="translate(-124.523 -498.268)" fill="#d6d6d6"/>
        <path id="Path_5951" data-name="Path 5951" d="M144.237,500.864a.606.606,0,0,1-.267-.06.727.727,0,0,1-.365-.4.806.806,0,0,1-.053-.292v-1.844h.542v1.844a.206.206,0,0,0,.045.139.129.129,0,0,0,.1.053h.139a.131.131,0,0,0,.1-.053.2.2,0,0,0,.047-.139v-1.844h.538v1.844a.81.81,0,0,1-.053.292.75.75,0,0,1-.145.239.7.7,0,0,1-.216.162.606.606,0,0,1-.267.06Z" transform="translate(-132.303 -498.268)" fill="#d6d6d6"/>
        <path id="Path_5952" data-name="Path 5952" d="M154.113,498.887a.213.213,0,0,0-.041.133v1.844h-.534V499.02a.824.824,0,0,1,.049-.282.738.738,0,0,1,.139-.239.721.721,0,0,1,.214-.168.585.585,0,0,1,.271-.064h.621v.564h-.621A.12.12,0,0,0,154.113,498.887Z" transform="translate(-140.407 -498.268)" fill="#d6d6d6"/>
        <path id="Path_5953" data-name="Path 5953" d="M162.571,499.041a.211.211,0,0,0-.043-.131.126.126,0,0,0-.1-.057h-.139a.126.126,0,0,0-.1.057.211.211,0,0,0-.043.131v1.84H161.6v-1.84a.8.8,0,0,1,.051-.282.781.781,0,0,1,.141-.239.7.7,0,0,1,.216-.167.6.6,0,0,1,.277-.064h.139a.588.588,0,0,1,.273.064.7.7,0,0,1,.216.167.776.776,0,0,1,.141.239.8.8,0,0,1,.051.282v1.84h-.538Z" transform="translate(-146.954 -498.285)" fill="#d6d6d6"/>
        <path id="Path_5954" data-name="Path 5954" d="M171.875,500.864a.613.613,0,0,1-.318-.077.65.65,0,0,1-.211-.2.847.847,0,0,1-.119-.273,1.278,1.278,0,0,1-.038-.307.8.8,0,0,1,.051-.282.769.769,0,0,1,.143-.241.706.706,0,0,1,.218-.167.612.612,0,0,1,.273-.062h.282v-.237a.21.21,0,0,0-.043-.132.125.125,0,0,0-.1-.057h-.636v-.564h.636a.6.6,0,0,1,.273.064.718.718,0,0,1,.216.168.773.773,0,0,1,.141.239.8.8,0,0,1,.051.282v1.091a.8.8,0,0,1-.051.282.772.772,0,0,1-.141.239.71.71,0,0,1-.216.167.6.6,0,0,1-.273.064Zm0-1.046a.124.124,0,0,0-.1.056.218.218,0,0,0-.043.136v.1a.209.209,0,0,0,.043.131.124.124,0,0,0,.1.057h.139a.125.125,0,0,0,.1-.057.209.209,0,0,0,.043-.131v-.294Z" transform="translate(-154.734 -498.268)" fill="#d6d6d6"/>
        <path id="Path_5955" data-name="Path 5955" d="M183.2,499.041a.189.189,0,0,0-.049-.137.141.141,0,0,0-.1-.051H182.9a.141.141,0,0,0-.1.051.189.189,0,0,0-.049.137v1.84h-.564v-1.84a.189.189,0,0,0-.049-.137.141.141,0,0,0-.1-.051h-.147a.141.141,0,0,0-.1.053.2.2,0,0,0-.049.139l0,1.836h-.56v-1.84a.745.745,0,0,1,.057-.287.8.8,0,0,1,.152-.241.723.723,0,0,1,.226-.164.663.663,0,0,1,.28-.06h.147a.656.656,0,0,1,.232.041.232.232,0,0,0,.4,0,.654.654,0,0,1,.231-.041h.147a.663.663,0,0,1,.28.06.723.723,0,0,1,.226.164.8.8,0,0,1,.152.241.752.752,0,0,1,.057.287v1.84H183.2Z" transform="translate(-162.838 -498.285)" fill="#d6d6d6"/>
        <path id="Path_5956" data-name="Path 5956" d="M197.453,500.112c0,.085.023.138.068.158a.561.561,0,0,0,.215.03h.489v.564h-.331l-.354,0a.5.5,0,0,1-.256-.068.706.706,0,0,1-.2-.173.788.788,0,0,1-.128-.239.833.833,0,0,1-.045-.269V499.02a.8.8,0,0,1,.051-.282.769.769,0,0,1,.141-.239.717.717,0,0,1,.216-.168.6.6,0,0,1,.276-.064h.139a.6.6,0,0,1,.273.064.717.717,0,0,1,.216.168.774.774,0,0,1,.141.239.8.8,0,0,1,.051.282v.8h-.963Zm.382-1.223a.124.124,0,0,0-.1-.057H197.6a.123.123,0,0,0-.1.055.215.215,0,0,0-.041.133v.237h.425v-.237A.209.209,0,0,0,197.834,498.889Z" transform="translate(-175.61 -498.268)" fill="#d6d6d6"/>
      </g>
      <g id="Group_2863" data-name="Group 2863" transform="translate(44.444 26.231)">
        <g id="Group_2861" data-name="Group 2861" transform="translate(0)">
          <path id="Path_5957" data-name="Path 5957" d="M287.43,455.033v-1.016h.211v.795h.111a.055.055,0,0,0,.039-.02.078.078,0,0,0,.018-.054v-.723h.211v.726a.313.313,0,0,1-.021.114.293.293,0,0,1-.057.093.275.275,0,0,1-.086.063.241.241,0,0,1-.1.023Z" transform="translate(-287.43 -454.016)" fill="#d6d6d6"/>
          <path id="Path_5958" data-name="Path 5958" d="M291.722,454.622h-.166v.41h-.213v-.721a.314.314,0,0,1,.021-.114.288.288,0,0,1,.057-.094.282.282,0,0,1,.086-.063.23.23,0,0,1,.1-.024h.055a.23.23,0,0,1,.1.024.273.273,0,0,1,.085.063.291.291,0,0,1,.057.094.314.314,0,0,1,.021.114v.721h-.211Zm-.018-.365a.053.053,0,0,0-.037-.021h-.055a.051.051,0,0,0-.038.021.08.08,0,0,0-.017.054v.092h.166v-.092A.078.078,0,0,0,291.7,454.256Z" transform="translate(-290.606 -454.016)" fill="#d6d6d6"/>
          <path id="Path_5959" data-name="Path 5959" d="M295.413,455.021a.283.283,0,0,1-.082-.064.288.288,0,0,1-.055-.093.322.322,0,0,1-.02-.113v-.72h.205v.72a.076.076,0,0,0,.017.053.048.048,0,0,0,.035.019h.167v.221h-.167A.219.219,0,0,1,295.413,455.021Z" transform="translate(-293.782 -454.029)" fill="#d6d6d6"/>
          <path id="Path_5960" data-name="Path 5960" d="M297.972,454.016h.211v1.016h-.211Z" transform="translate(-295.986 -454.016)" fill="#d6d6d6"/>
          <path id="Path_5961" data-name="Path 5961" d="M299.364,455.032v-1.016h.324a.231.231,0,0,1,.1.024.279.279,0,0,1,.086.064.307.307,0,0,1,.058.095.32.32,0,0,1,.021.113v.426a.323.323,0,0,1-.021.114.288.288,0,0,1-.143.157.238.238,0,0,1-.1.024Zm.362-.775a.053.053,0,0,0-.038-.02h-.113v.574h.113a.052.052,0,0,0,.038-.02.075.075,0,0,0,.018-.054v-.426A.074.074,0,0,0,299.726,454.257Z" transform="translate(-297.116 -454.016)" fill="#d6d6d6"/>
          <path id="Path_5962" data-name="Path 5962" d="M287.922,464.43h-.212v-.8h-.19v-.22h.593v.22h-.19Z" transform="translate(-287.502 -461.643)" fill="#d6d6d6"/>
          <path id="Path_5963" data-name="Path 5963" d="M291.516,464.014h-.169v.408h-.211v-1.016h.211v.386h.169v-.386h.211v1.016h-.211Z" transform="translate(-290.437 -461.638)" fill="#d6d6d6"/>
          <path id="Path_5964" data-name="Path 5964" d="M295.436,464.1a.077.077,0,0,0-.019-.054.052.052,0,0,0-.039-.021h-.112v.408h-.211v-1.016h.323a.241.241,0,0,1,.105.024.267.267,0,0,1,.085.063.3.3,0,0,1,.057.094.318.318,0,0,1,.021.114v.02a.3.3,0,0,1-.016.1.105.105,0,0,0,0,.171.308.308,0,0,1,.016.1v.333h-.211Zm-.019-.442a.052.052,0,0,0-.039-.021h-.112v.167h.112a.054.054,0,0,0,.039-.02.071.071,0,0,0,.019-.053v-.02A.077.077,0,0,0,295.418,463.654Z" transform="translate(-293.619 -461.643)" fill="#d6d6d6"/>
          <path id="Path_5965" data-name="Path 5965" d="M299.245,464.43a.237.237,0,0,1-.1-.024.279.279,0,0,1-.086-.064.3.3,0,0,1-.058-.094.313.313,0,0,1-.021-.114v-.721h.212v.721a.08.08,0,0,0,.018.054.051.051,0,0,0,.038.02h.053a.051.051,0,0,0,.038-.02.078.078,0,0,0,.018-.054v-.721h.212v.721a.311.311,0,0,1-.021.114.3.3,0,0,1-.057.094.28.28,0,0,1-.086.064.237.237,0,0,1-.1.024Z" transform="translate(-296.802 -461.643)" fill="#d6d6d6"/>
        </g>
        <g id="Group_2862" data-name="Group 2862" transform="translate(6.532 0.188)">
          <path id="Path_5966" data-name="Path 5966" d="M322.715,456.4a.1.1,0,0,0-.089.052.356.356,0,0,0-.038.122.867.867,0,0,0-.008.143c0,.048,0,.085,0,.112h.866v.5H322.1v-.779a.66.66,0,0,1,.047-.248.671.671,0,0,1,.129-.208.6.6,0,0,1,.195-.143.567.567,0,0,1,.24-.052h.124a.1.1,0,0,0,.094-.059.316.316,0,0,0,.034-.156.188.188,0,0,0-.039-.118.11.11,0,0,0-.089-.05h-.124a.109.109,0,0,0-.089.057.356.356,0,0,0-.038.191H322.1v-.08a.715.715,0,0,1,.045-.252.7.7,0,0,1,.126-.213.645.645,0,0,1,.193-.149.538.538,0,0,1,.247-.057h.124a.533.533,0,0,1,.244.057.665.665,0,0,1,.194.149.676.676,0,0,1,.128.213.713.713,0,0,1,.045.252v.054a.678.678,0,0,1-.047.251.719.719,0,0,1-.128.211.592.592,0,0,1-.193.146.561.561,0,0,1-.244.053Z" transform="translate(-322.104 -455.012)" fill="#d6d6d6"/>
          <path id="Path_5967" data-name="Path 5967" d="M331.374,456.4a.1.1,0,0,0-.089.052.358.358,0,0,0-.038.122.828.828,0,0,0-.009.143c0,.048,0,.085,0,.112h.866v.5h-1.343v-.779a.66.66,0,0,1,.047-.248.673.673,0,0,1,.129-.208.6.6,0,0,1,.195-.143.565.565,0,0,1,.24-.052h.124a.1.1,0,0,0,.094-.059.315.315,0,0,0,.033-.156.188.188,0,0,0-.039-.118.11.11,0,0,0-.089-.05h-.124a.109.109,0,0,0-.089.057.355.355,0,0,0-.038.191h-.483v-.08a.713.713,0,0,1,.045-.252.7.7,0,0,1,.126-.213.644.644,0,0,1,.193-.149.537.537,0,0,1,.247-.057h.124a.531.531,0,0,1,.243.057.665.665,0,0,1,.195.149.678.678,0,0,1,.128.213.713.713,0,0,1,.045.252v.054a.683.683,0,0,1-.047.251.724.724,0,0,1-.128.211.594.594,0,0,1-.193.146.559.559,0,0,1-.243.053Z" transform="translate(-329.132 -455.012)" fill="#d6d6d6"/>
          <path id="Path_5968" data-name="Path 5968" d="M338.69,457.342l.7-2.313h.393l-.7,2.313Z" transform="translate(-335.565 -455.026)" fill="#d6d6d6"/>
          <path id="Path_5969" data-name="Path 5969" d="M345.537,457.342a.543.543,0,0,1-.238-.054.651.651,0,0,1-.195-.145.658.658,0,0,1-.131-.213.721.721,0,0,1-.047-.26v-.97a.721.721,0,0,1,.047-.26.662.662,0,0,1,.131-.213.652.652,0,0,1,.195-.144.541.541,0,0,1,.238-.054h.124a.542.542,0,0,1,.238.054.636.636,0,0,1,.193.144.672.672,0,0,1,.129.213.721.721,0,0,1,.047.26v.97a.721.721,0,0,1-.047.26.668.668,0,0,1-.129.213.635.635,0,0,1-.193.145.544.544,0,0,1-.238.054Zm-.124-.917.315-.775q0-.077-.04-.1a.255.255,0,0,0-.117-.022.145.145,0,0,0-.118.048.187.187,0,0,0-.04.123Zm.087.366c0,.011.008.02.024.026a.373.373,0,0,0,.05.013.423.423,0,0,0,.053.007l.034,0a.112.112,0,0,0,.089-.049.184.184,0,0,0,.039-.119v-.584Z" transform="translate(-340.627 -455.026)" fill="#d6d6d6"/>
          <path id="Path_5970" data-name="Path 5970" d="M353.834,455.029h.48v2.313h-.48Z" transform="translate(-347.856 -455.026)" fill="#d6d6d6"/>
        </g>
        <path id="Path_5971" data-name="Path 5971" d="M309.761,458.032l-1.709-.987v1.973l1.709-.987-1.709-.987v1.973Z" transform="translate(-304.168 -456.475)" fill="#d6d6d6"/>
      </g>
      <g id="Group_2866" data-name="Group 2866" transform="translate(54.745 33.778)">
        <path id="Rectangle_1680" data-name="Rectangle 1680" d="M2.5,0H6.152a2.5,2.5,0,0,1,2.5,2.5v0A2.5,2.5,0,0,1,6.151,5H2.5A2.5,2.5,0,0,1,0,2.5v0A2.5,2.5,0,0,1,2.5,0Z" fill="#fff"/>
        <g id="Group_2865" data-name="Group 2865" transform="translate(1.392 1.634)">
          <g id="Group_2864" data-name="Group 2864" transform="translate(0 0.006)">
            <path id="Path_5972" data-name="Path 5972" d="M359.742,503.061l-.587,1.777h.543l.58-1.777" transform="translate(-357.335 -503.008)" fill="#335999"/>
            <path id="Path_5973" data-name="Path 5973" d="M349.494,502.78s.351.09.359.319l.074,1.457h.451l1.17-1.777h-.442l-.647,1.005V502.78Z" transform="translate(-349.494 -502.78)" fill="#335999"/>
            <path id="Path_5974" data-name="Path 5974" d="M374.032,503.06h-.509l-1.064,1.777h.475l.127-.254h.559l.031.254h.485Zm-.823,1.27.358-.671.049.671Z" transform="translate(-368.133 -503.007)" fill="#335999"/>
            <path id="Path_5975" data-name="Path 5975" d="M365.525,503.316a.646.646,0,0,1,.543.109l.173-.282a.993.993,0,0,0-1.106,0,.476.476,0,0,0,0,.8h0l.317.244.028.032a.163.163,0,0,1-.018.158.1.1,0,0,1-.009.009c-.263.232-.744-.084-.744-.084l-.107.329a1.107,1.107,0,0,0,1.137.012c.517-.46.086-.793.017-.849h0l-.321-.276a.05.05,0,0,1-.018-.043A.224.224,0,0,1,365.525,503.316Z" transform="translate(-361.756 -502.93)" fill="#335999"/>
          </g>
          <path id="Path_5976" data-name="Path 5976" d="M350.476,503.49a4.676,4.676,0,0,0-.354-.341,2.071,2.071,0,0,0-.608-.4h.963Z" transform="translate(-349.51 -502.75)" fill="#fbb03b"/>
        </g>
      </g>
    </g>
  </g>
  <g id="Group_2888" data-name="Group 2888" transform="translate(44.734 8.837)">
    <path id="Path_6218" data-name="Path 6218" d="M290.895,373.907c-.047-.019-.023.072-.07.083s-.1.038-.066.05a.185.185,0,0,0,.131-.023C290.9,374,290.909,373.912,290.895,373.907Z" transform="translate(-290.411 -371.603)" fill="#d6d6d6"/>
    <path id="Path_6219" data-name="Path 6219" d="M289.089,374.554c-.056,0-.112,0-.122.022s.052.039.089.039.112-.028.1-.033Z" transform="translate(-288.966 -372.128)" fill="#d6d6d6"/>
    <path id="Path_6220" data-name="Path 6220" d="M291.241,371.935c-.019.008.033.044.051.044s.052-.061.014-.061S291.288,371.919,291.241,371.935Z" transform="translate(-290.809 -369.991)" fill="#d6d6d6"/>
    <path id="Path_6221" data-name="Path 6221" d="M291.262,367.377l.028.028a.208.208,0,0,0,.117.044c.043.005.043-.028.01-.061a.091.091,0,0,0-.07-.033c-.028-.005-.033-.039-.108-.039s-.065-.044-.075-.066.066-.012.084-.006.094-.066.094-.066.122-.055.136-.044.084-.011.117-.022.051-.072.051-.072a.2.2,0,0,1,.066.045c.023.027.075,0,.089,0a.439.439,0,0,1,.084.055s.094,0,.131-.005a.6.6,0,0,1,.174.005,1.824,1.824,0,0,0,.225.022.456.456,0,0,0,.173.022.117.117,0,0,1,.1.017.081.081,0,0,1,.052.038c.023.034.046.006.079-.016s.028-.044.028-.044l.028-.005c.028-.006.047.011.126.016s.061-.016.117-.039.113.028.132.022.042-.05.056-.028.037.067.037.067.061-.055.08-.055a.52.52,0,0,0,.108.017.355.355,0,0,1,.187.022c.028.028.1.022.136.05s.075-.022.056-.033a.619.619,0,0,1-.065-.055s-.07-.1-.08-.117-.023-.016-.042.027-.089.045-.169.051-.028-.045-.117-.051-.056-.044-.028-.044.047-.067.056-.105.042-.033.108-.027a1.1,1.1,0,0,1,.15,0c.065.01.061-.033.126-.028s.033.017.07.044.061.022.113.05.033.028.057.033a.908.908,0,0,0,.15-.017c.047-.005.084-.011.108.022s.019.072.051.1-.019-.1-.019-.144.066-.006.108-.006.089-.017.1.006-.061.055-.019.1.07.067.107.067.122.011.085.071-.136.056-.169.056-.089.022-.075.055.089.016.141.016a1.267,1.267,0,0,0,.253,0c.042-.016.033-.083-.014-.1s-.01-.05.038-.039.094-.017.084,0,0,.055,0,.1.014.072.047.061a.337.337,0,0,1,.07-.022c.033-.005.014-.1,0-.149a.224.224,0,0,1-.028-.106c0-.027.056-.033.084-.005a.771.771,0,0,1,.065.083.241.241,0,0,1,.075.083c.019.045.024.034.061.005s.047-.022.079.005.009.083.009.1.047,0,.056-.033.047-.033.07-.044.024-.078.024-.078a.384.384,0,0,0-.122-.011.138.138,0,0,1-.127-.045c-.047-.038-.019-.066-.042-.1s.075-.061.136-.094.122-.011.107.072-.023.071.047.056-.005-.089.028-.094a.646.646,0,0,1,.146-.016c.028.006.182-.017.22-.017a.349.349,0,0,1,.14.066c.042.028.155.067.182.083a2.393,2.393,0,0,0,.244.055c.018.005.018.072.037.127s.07.016.089.016a.219.219,0,0,1,.1.067c.019.028.159.05.159.05s-.033.05-.047.066a.728.728,0,0,1-.075.05c-.028.022-.061-.005-.1-.033s-.1-.044-.117-.033,0,.033,0,.05.07.039.108.072.028.066.033.111-.038-.017-.084-.028-.051.044-.051.044-.061-.005-.089-.005,0,0-.051-.044-.043.028-.071.006-.056-.055-.07-.044-.061-.05-.089-.044-.14-.017-.168-.006-.051.011-.075.022-.032-.077-.019-.1.047-.033.108-.017.066,0,.08-.028a.135.135,0,0,1,.094-.077c.065-.023-.005-.039-.024-.05s-.042-.033-.056,0a.356.356,0,0,1-.047.072s-.037,0-.089-.005-.014-.028.01-.039.051-.077.028-.094a.069.069,0,0,0-.075-.017c-.042.011-.014-.039-.042-.055s-.019.011-.019.033-.042.017-.042.017a.238.238,0,0,0-.089,0c-.023.011-.066.033-.051.05s.061.016.075.066-.061.061-.075.067l-.071.028a.437.437,0,0,0-.1-.016c-.047,0-.061.005-.052.027s.033.011.047.011.014.028.056.016.032-.027.07.017.075.038.136.077-.01.083-.042.083-.033-.034-.051-.066-.094.005-.094.005a.262.262,0,0,1-.094.039c-.033,0-.056-.005-.014-.044s-.052-.044-.052-.1-.018.055-.018.083-.037.006-.117.017-.066.044-.168.121-.127.094-.117.166.033.05.075.061.028.094.061.088.057-.033.122.006a.472.472,0,0,0,.178.066c.079.017.131.044.173.033s.071.005.071.044.028.044.023.094.052-.044.052-.044.024.083,0,.094,0,.061.028.056.057.017.085-.011-.014-.11-.014-.144-.028-.05-.043-.083.038-.039.057-.005.052.005.084-.022a.111.111,0,0,0,.033-.077.417.417,0,0,0-.1-.111c-.042-.023-.024-.028.018-.039s0-.028.01-.089.009-.1.033-.1a1.191,1.191,0,0,1,.178-.012c.07.006.1.067.15.072s.121.017.136.044-.052.033-.019.078a.127.127,0,0,0,.07.055c.033.017.071.005.113-.061s.061-.072.075-.061.1.133.127.161a.4.4,0,0,1,.075.116c0,.028.071.028.089.028a.205.205,0,0,1,.1.094c.01.034.028.045.089.061s0,.078-.014.111-.024.045-.042.083,0,0,.023.016.033.039.071.028a.049.049,0,0,1,.07.033c.014.033.033.061.047.089s0,.072-.019.044-.08-.012-.08-.012-.028.033-.037.017a.049.049,0,0,0-.061-.027.684.684,0,0,1-.1.005c-.037.005-.052-.023-.028-.045s.028-.1.075-.138.033-.083,0-.083-.047.05-.066.061a.3.3,0,0,0-.089.038c-.033.028-.112.017-.08.028s-.047.056-.075.056-.019-.072-.019-.1-.037.016-.037.016-.075-.049-.1-.016-.071.05-.1.083a1.3,1.3,0,0,1-.107.088.428.428,0,0,1,.084-.033.278.278,0,0,0,.1-.038c.047-.028.094-.039.126.011a.051.051,0,0,1-.014.077.158.158,0,0,0,.037.05c.019.011.024-.012.057-.034s.019.045.028.067.042.022.061-.006.033-.05.047-.033a.384.384,0,0,1,.042.094c.014.039-.1.05-.117.055s-.108.028-.122.034-.061.055-.1.055-.033-.067-.038-.105-.051.006-.056.022-.047.012-.08.017-.089.045-.089.088.042.067.028.089a.174.174,0,0,1-.131.027c-.033-.011-.08.016-.065.039s0,.056-.028.049-.038.034-.024.062-.043.083-.056.061-.042-.033-.042,0a.181.181,0,0,0,.037.105c.028.045-.061.072-.094.105a1.207,1.207,0,0,1-.193.166.086.086,0,0,0-.023.122,1.048,1.048,0,0,1,.065.183c.014.039,0,.149-.047.144s-.019-.072-.061-.089-.066-.116-.075-.183-.019-.027-.047-.006-.056-.044-.07-.061-.094.011-.15.006-.075.027-.075.044-.01.067-.061.033a.15.15,0,0,0-.112-.033c-.051,0-.1-.006-.108.016a.223.223,0,0,1-.094.083c-.033.011-.093.066-.066.078s.028.088.009.132a.458.458,0,0,0,0,.2.309.309,0,0,0,.117.177c.052.05.071.066.122.022s.07-.017.084-.011.052-.028.038-.077a.065.065,0,0,1,.061-.089c.042.006.1-.016.136-.011s.051.111,0,.155-.023.111-.033.16-.052.062,0,.062.038.011.07.016.066-.033.1-.038.117.083.1.127a.587.587,0,0,0-.023.194.164.164,0,0,0,.033.1c.01.022.047.072.089.05a.3.3,0,0,0,.1-.061c.014-.022.1.039.094.056s.033.033.061.016.042-.044.07-.088a.224.224,0,0,1,.1-.089c.023-.005.079-.072.117-.061s-.015.067-.019.1,0,.127.019.133.01-.067.032-.117a.133.133,0,0,1,.094-.077c.024,0,.042.116.075.083s.1-.027.112.005a.191.191,0,0,0,.028.05.078.078,0,0,0,.024-.05c0-.027.075-.055.122-.022s.028.045.052.05.047-.073.06-.077,0,.088-.033.138.028.034.028.034l.014.017c.014.017.061-.017.079.017s.052.044.08.1.07.045.127.033a.217.217,0,0,1,.183.106c.056.072.047.128.084.128s.047.06.047.083-.084.072-.131.083-.047.066.028.05.042-.05.089-.066.094.022.052.088-.127.072-.052.084.034-.011.075-.078.038-.044.065-.044a.216.216,0,0,1,.113.038c.024.023.084.056.122.084a.118.118,0,0,0,.112,0c.028-.011.108.033.136.077s.1.05.131.067a.208.208,0,0,1,.09.138.906.906,0,0,1-.056.2.692.692,0,0,1-.15.194.159.159,0,0,0-.023.176c0,.033-.047.155-.033.183s-.019.088-.047.127a1.245,1.245,0,0,0-.065.144c-.019.033-.08.022-.136.039a.418.418,0,0,0-.085.033,1.544,1.544,0,0,0-.154.1c-.056.044.019.121-.01.183s-.056.055-.084.127-.042.011-.065.028a.156.156,0,0,0-.042.1c-.005.045-.052.089-.113.156s-.1.056-.164.033-.056-.21-.066-.183a.371.371,0,0,0,.005.145.357.357,0,0,0,.061.094c.023.016.019.044,0,.072s-.07.128-.089.133a.547.547,0,0,1-.192.011c-.028-.016-.042.039-.037.073s.028.072-.023.061-.122-.05-.122-.022.014.088.042.088.056-.022.042.017a.261.261,0,0,1-.07.089.913.913,0,0,1-.089.11c-.047.039-.047.06-.038.078s.08.005.094.016-.014.088-.032.105-.1.094-.132.116-.033.089-.023.122a.33.33,0,0,0,.127.133c.042.016.131.01.122.027s-.113.033-.126.038a.5.5,0,0,1-.127.028c-.037,0-.108-.044-.122-.044s.009-.022.056-.066-.019-.095-.028-.033-.028.077-.052.077-.052-.038-.066-.056-.075-.033-.065-.1-.028-.061-.057-.088.038-.05.028-.078-.051-.011-.056-.05.037-.094.042-.11-.029-.05-.033-.078.019-.055.052-.1a.31.31,0,0,0,.056-.116.959.959,0,0,1-.023-.122c0-.044.023-.061.033-.122s-.033-.038-.033-.089.047-.034.037-.083.024-.083.038-.116.028-.088.047-.127-.018-.126-.018-.143.061-.038.033-.072.009-.061.037-.089,0-.1.009-.2.028-.271.028-.288a.283.283,0,0,0-.018-.127.215.215,0,0,0-.085-.094c-.033-.017-.075-.066-.1-.072s-.136-.056-.136-.133-.08-.139-.089-.194-.079-.177-.084-.233-.1-.072-.117-.133.047-.1.056-.144-.033-.122-.037-.149.07-.105.1-.122.052-.088.07-.088.014-.062.033-.122a.2.2,0,0,0-.024-.155c-.014-.011-.028-.083-.052-.105s-.07-.011-.07-.011a.08.08,0,0,1-.033.078c-.042.027-.051-.006-.065-.022s-.066-.021-.089-.049a.4.4,0,0,0-.089-.083c-.028-.017-.07-.033-.066-.1s-.061-.1-.08-.115-.056-.039-.079-.022-.066-.033-.1-.028-.1-.066-.122-.094-.042-.066-.085-.066-.047.016-.075.056-.071-.028-.084-.045-.052-.022-.1-.022-.089-.083-.107-.094-.15-.083-.183-.106-.065-.105-.052-.127-.023-.094-.023-.094-.066-.089-.089-.089-.1-.155-.14-.2a1.01,1.01,0,0,1-.16-.194c-.018-.05-.023-.127-.07-.089s-.01.077.037.121.037.089.1.15.037.122.066.149.127.094.084.139-.084-.055-.1-.061-.061-.016-.056-.05-.037-.061-.07-.11S294.04,370,294,370s0-.061.018-.088-.023-.067-.051-.078-.066-.138-.1-.216-.066-.116-.108-.111-.061-.055-.089-.078-.07-.127-.117-.182a.382.382,0,0,1-.084-.221c0-.061.019-.216.019-.255s-.023-.133-.023-.149a.071.071,0,0,0-.042-.05c-.019-.005-.07-.083-.112-.083a.072.072,0,0,1-.057-.094.1.1,0,0,0-.061-.1c-.024,0-.061-.072-.075-.111s-.052-.039-.042-.017,0,.062.019.073.042.1.023.11-.061-.034-.108-.061-.028-.138-.028-.166-.065-.055-.093-.055-.056.006-.061-.066a.138.138,0,0,0-.117-.11c-.028,0-.178-.072-.225-.072s-.127-.05-.155-.028-.08-.039-.107-.039-.028.023-.08.061-.07.017-.1.045-.1.055-.074-.012.023-.077-.014-.061a.093.093,0,0,0-.047.088c0,.027-.066.072-.066.072a.39.39,0,0,0,.084,0c.024-.005,0,.061-.018.078s-.057.061-.094.05-.042-.05-.065-.055-.075.039-.16.088-.07.011-.1.028a1.026,1.026,0,0,1-.192.072c-.043.005-.033-.061-.01-.061a.517.517,0,0,0,.136-.067c.024-.016.126-.061.155-.077s.075-.044.057-.077-.08.016-.08.016-.047-.05-.061-.061-.042.045-.042.045a.057.057,0,0,1-.047-.072c.014-.061-.033-.061-.042-.033s-.089.072-.093.044-.075-.083-.094-.127.019-.05.061-.089a.2.2,0,0,1,.154-.044c.052.005.085-.066.066-.072a.076.076,0,0,0-.08.016c-.028.028-.1.022-.1.022a.307.307,0,0,1-.145-.033.259.259,0,0,1-.066-.083.551.551,0,0,1,.15-.044Zm4.292,1.65c.047.006.047-.072.042-.094s0-.116.014-.133.042-.066.094-.072a.075.075,0,0,1,.08.089c0,.05.009.1.028.1s.075-.039.056-.073.014-.144.014-.1a.061.061,0,0,0,.061.061c.024-.005-.024-.105-.057-.111a.376.376,0,0,0-.112,0c-.015.006-.094-.027-.131-.022a.139.139,0,0,0-.113.067.623.623,0,0,0,0,.16C295.521,368.927,295.511,369.021,295.553,369.027Zm.262,0c.011.025.061.005.089-.027s.089-.044.108-.072.033-.022.08-.044.084-.027.065-.055-.117,0-.131-.011-.113.122-.113.122-.085.038-.089.055S295.8,368.994,295.816,369.027Zm-.487-.426c0,.03.047.033.075.016a.41.41,0,0,1,.089-.033c.019-.006.009.028.051.028s.094.016.108.011.057-.072.023-.078a.249.249,0,0,1-.112-.078c-.028-.033-.094.044-.155.072S295.329,368.556,295.329,368.6Zm-1.921-.182c-.038-.015.014.066.037.083s.07.017.075.045.018.094.042.089.024-.067.005-.089a.457.457,0,0,0-.1-.088C293.45,368.457,293.421,368.423,293.408,368.418Z" transform="translate(-290.665 -365.887)" fill="#d6d6d6"/>
    <path id="Path_6222" data-name="Path 6222" d="M315.8,371.009c-.013.016.056.04.069.018S315.832,370.968,315.8,371.009Z" transform="translate(-310.744 -369.238)" fill="#d6d6d6"/>
    <path id="Path_6223" data-name="Path 6223" d="M316.675,371.25c-.05.017,0,.059.028.044S316.72,371.236,316.675,371.25Z" transform="translate(-311.438 -369.446)" fill="#d6d6d6"/>
    <path id="Path_6224" data-name="Path 6224" d="M304.4,365.923c-.007.022.028.022.068.022a.412.412,0,0,0,.125-.011c.019-.011.113-.037.109,0s.037.085.059.077.065-.055.087-.037.025.062.047.074a.184.184,0,0,0,.109,0,.347.347,0,0,1,.141,0c.035.007.135.03.144.007s.037-.026.041-.048.018-.092.018-.092-.018-.04-.05-.022-.04.03-.068.022-.028-.066-.078-.055-.059.044-.075.059a.073.073,0,0,1-.062.019l-.084-.056s-.15-.008-.156-.029-.031-.059-.1-.052-.188.056-.206.056.022.044,0,.044S304.406,365.89,304.4,365.923Z" transform="translate(-301.489 -365.02)" fill="#d6d6d6"/>
    <path id="Path_6225" data-name="Path 6225" d="M307.112,365.41c-.036.015-.029.055,0,.055s.088-.026.106-.007.066,0,.063-.015.019-.093-.019-.1S307.168,365.388,307.112,365.41Z" transform="translate(-303.673 -364.657)" fill="#d6d6d6"/>
    <path id="Path_6226" data-name="Path 6226" d="M309.454,365.227c0,.027.025.048.063.048s.119-.022.125,0,0,.034.041.041a.619.619,0,0,0,.088.015c.025,0,.016-.048-.006-.082s-.016-.029-.072-.048a.381.381,0,0,0-.15-.014C309.5,365.187,309.464,365.175,309.454,365.227Z" transform="translate(-305.594 -364.523)" fill="#d6d6d6"/>
    <path id="Path_6227" data-name="Path 6227" d="M309.735,366.258c-.024.025,0,.1-.009.107s0,.041.028.033.037-.077.056-.077.115-.025.131.015.016.022.059.025.078-.051.081-.07-.022-.056-.081-.048S309.76,366.232,309.735,366.258Z" transform="translate(-305.813 -365.384)" fill="#d6d6d6"/>
    <path id="Path_6228" data-name="Path 6228" d="M310.354,367.275a.046.046,0,0,0,.026.074c.034,0,.093-.026.1,0s.028.122.084.088.053-.063.069-.067,0-.085-.028-.1a.188.188,0,0,0-.128,0C310.455,367.279,310.389,367.25,310.354,367.275Z" transform="translate(-306.316 -366.206)" fill="#d6d6d6"/>
    <path id="Path_6229" data-name="Path 6229" d="M312.273,367.166a.063.063,0,0,0,.069.022c.04-.007.1-.015.128-.019s.035-.059,0-.062-.056-.037-.084-.026S312.264,367.14,312.273,367.166Z" transform="translate(-307.882 -366.063)" fill="#d6d6d6"/>
    <path id="Path_6230" data-name="Path 6230" d="M312.222,366.6c-.014.039.125.059.109.015S312.237,366.56,312.222,366.6Z" transform="translate(-307.84 -365.656)" fill="#d6d6d6"/>
    <path id="Path_6231" data-name="Path 6231" d="M311.879,365.553c-.04-.011-.106-.025-.106-.037s-.018.052.016.071.091.052.131.07.119.022.144.059a.281.281,0,0,0,.109.067l.1.011a.422.422,0,0,1,.14-.011,1.9,1.9,0,0,0,.238.015c.059,0,.069-.026.075-.04s-.109-.045-.137-.041-.188,0-.234,0a1.081,1.081,0,0,0-.144,0c-.038,0-.066-.03-.094-.048a.553.553,0,0,0-.128-.085A.871.871,0,0,1,311.879,365.553Z" transform="translate(-307.472 -364.794)" fill="#d6d6d6"/>
    <path id="Path_6232" data-name="Path 6232" d="M333.063,369.759c-.013.025-.038.026-.013.078s.044.081.065.077.1-.007.106.022a.059.059,0,0,0,.087.037c.053-.018.1-.029.109-.052s.1-.025.1-.025.069-.063.044-.089a.241.241,0,0,0-.112-.048c-.028,0-.056.026-.119.026s-.1.03-.128,0S333.073,369.741,333.063,369.759Z" transform="translate(-324.737 -368.232)" fill="#d6d6d6"/>
    <path id="Path_6233" data-name="Path 6233" d="M318.986,362.483c.035.03.054.011.1.022s.077.093.1.1a.057.057,0,0,0,.069-.022.562.562,0,0,0,.034-.1s0,.074.034.088.12-.011.143-.007a.926.926,0,0,1,.194.048c.037.022.129.037.154.085s.029.214.043.233.063-.06.074-.077.071-.008.091.018.066.089.063.115-.011.066-.028.052-.046-.011-.034-.04.017-.092-.006-.092h-.042s-.043-.014-.071.041-.006.111.014.111.066,0,.066.014-.049.059-.046.085a.61.61,0,0,0,.052.133c.011.018.071.037.088.041s-.039.007-.026.033.037.088.068.1a.413.413,0,0,1,.132.111c.011.029.08-.023.094-.026s.011.077.051.081.054-.007.089-.041.026-.078.029-.11,0-.059.037-.048.057-.007.054-.044-.034-.081.026-.092.092-.059.129-.059.14.019.152,0,.059-.1.091-.107.114-.011.188-.026.155-.07.18-.067.089,0,.068-.018-.048-.074-.091-.074,0-.082.009-.082.068.012.066.049.017.085.074.07a.056.056,0,0,0,.037-.085.55.55,0,0,1-.032-.077c-.011-.026-.008-.059.052-.067s.143.03.139-.029a.358.358,0,0,1,.018-.155c.017-.034.054-.055.034-.067s-.046.015-.066-.041a.111.111,0,0,1,.04-.118c.023-.022.143-.166.209-.189s.111-.107.065-.125-.137-.052-.2.007-.094.114-.163.1-.079-.116-.118-.166c-.056-.073-.022-.218-.082-.206l-.06.011a.314.314,0,0,0-.113,0c-.057.014-.094.055-.127.046a.216.216,0,0,0-.138.026.476.476,0,0,1-.273-.017.71.71,0,0,0,.186,0c.068-.012.182-.039.238-.05s.011-.037-.009-.04c-.072-.01-.182-.045-.268-.05-.068,0-.112.02-.18.022a.47.47,0,0,0-.258.046.557.557,0,0,1-.143.057c-.035.044-.066.155-.1.125s-.037-.1-.077-.073,0,.1-.037.155a.139.139,0,0,1-.16.026c-.028-.019-.057-.033-.171-.026s-.24.052-.214.1-.051.071-.071.048-.111.026-.106.069-.014.1-.063.085a.069.069,0,0,0-.085.062c0,.038-.112.063-.12.063S318.934,362.439,318.986,362.483Z" transform="translate(-313.321 -361.687)" fill="#d6d6d6"/>
    <path id="Path_6234" data-name="Path 6234" d="M315.633,384.768c0,.055.042.038.1.038s.154-.01.173.017a1.151,1.151,0,0,0,.126.094c.023.022.1.028.1.005s-.052-.083-.085-.078-.1-.039-.141-.077a.2.2,0,0,0-.136-.039A.929.929,0,0,0,315.633,384.768Z" transform="translate(-310.609 -380.388)" fill="#d6d6d6"/>
    <path id="Path_6235" data-name="Path 6235" d="M317.332,384.11c-.043.006-.033.066.019.055S317.375,384.1,317.332,384.11Z" transform="translate(-311.967 -379.885)" fill="#d6d6d6"/>
    <path id="Path_6236" data-name="Path 6236" d="M317.457,386.542c-.043.01-.033.109.019.09S317.5,386.533,317.457,386.542Z" transform="translate(-312.068 -381.859)" fill="#d6d6d6"/>
    <path id="Path_6237" data-name="Path 6237" d="M320.741,386.221c-.043.009-.033.108.019.089S320.783,386.212,320.741,386.221Z" transform="translate(-314.733 -381.599)" fill="#d6d6d6"/>
    <path id="Path_6238" data-name="Path 6238" d="M318.594,385.918a.518.518,0,0,0,.084.011c.033,0,.052.022.08.039s.08-.023.1-.023.042.066.047-.006a.117.117,0,0,0-.094-.116.22.22,0,0,0-.108.006C318.674,385.835,318.594,385.918,318.594,385.918Z" transform="translate(-313.012 -381.273)" fill="#d6d6d6"/>
    <path id="Path_6239" data-name="Path 6239" d="M335.977,379.878c.018-.011.094-.039.136-.061a1.174,1.174,0,0,1,.2-.078,1.709,1.709,0,0,0,.285-.011c.033-.017.118-.044.155.078s0,.077-.037.1.014.072.032.072.085.072.117.072a.435.435,0,0,1,.113.038s.079.072.122.072.075.039.122-.017.108-.121.155-.11.1.055.159.055.173-.011.192.017-.126.122-.117.144.028.017.075-.049.117-.066.173-.083.085.089.094.122.051.094.084.166.066.171.1.249a2.269,2.269,0,0,0,.1.243.844.844,0,0,1,.094.2.294.294,0,0,0,.1.138.492.492,0,0,1,.1.166c0,.033-.028.105.046.111a.316.316,0,0,0,.165-.05c.023-.012.206-.095.229-.062s-.033.177-.037.216-.14.227-.145.276a.238.238,0,0,1-.135.15c-.052.01-.16.165-.2.215s-.1.16-.126.172-.037.128-.023.15,0,.155.047.2.057.077.038.117.009.127,0,.2a.49.49,0,0,1-.08.188c-.019.022-.136.061-.174.116s-.07.105-.061.133a.945.945,0,0,1,.042.2c0,.033-.094.077-.131.1s-.019.066-.01.11-.066.117-.1.156a1.94,1.94,0,0,1-.182.221.292.292,0,0,1-.193.084.362.362,0,0,0-.2.027c-.024.028-.057.022-.1,0s-.052-.067-.056-.128a.4.4,0,0,0-.019-.1.307.307,0,0,0-.056-.138.721.721,0,0,1-.08-.128c-.023-.034-.009-.105-.014-.166a.573.573,0,0,0-.057-.194c-.024-.039-.07-.144-.089-.182a.485.485,0,0,1-.038-.227.282.282,0,0,1,.108-.205c.037-.033,0-.077-.028-.144s0-.176-.024-.215a1.6,1.6,0,0,0-.173-.277c-.052-.033-.057-.044-.028-.121s0-.155.047-.205.023-.083-.028-.116-.033-.049-.075-.01-.1.06-.131.022-.024-.1-.085-.144-.14.016-.164.028a.545.545,0,0,1-.155.072.965.965,0,0,1-.178-.006c-.066,0-.122.006-.131.045s-.023.061-.065.022-.127-.127-.127-.127a.711.711,0,0,1-.141-.177.289.289,0,0,0-.154-.16c-.089-.05-.037-.105-.047-.161s-.056-.078-.033-.083.018-.044.07-.121a.244.244,0,0,0,.01-.205c-.01-.044-.057-.111-.01-.182s.093-.227.131-.271a.813.813,0,0,1,.183-.134c.051-.028.019-.1.047-.182s.071-.122.085-.122.066-.058.121-.094S335.958,379.889,335.977,379.878Zm2.047,2.275c-.012-.023-.093-.016-.107.012s-.028.154.014.166S338.048,382.2,338.024,382.153Z" transform="translate(-326.468 -376.318)" fill="#d6d6d6"/>
    <path id="Path_6240" data-name="Path 6240" d="M353.4,397c-.059-.02-.065.073-.112.134s-.1.111-.117.105-.122.038-.089.122a.217.217,0,0,1-.005.2c-.032.039.028.15.02.21s.014.1.08.1.089-.027.117-.1.033-.144.06-.2.051-.189.066-.222a.582.582,0,0,0,.038-.2C353.448,397.086,353.429,397.008,353.4,397Z" transform="translate(-340.987 -390.342)" fill="#d6d6d6"/>
    <path id="Path_6241" data-name="Path 6241" d="M363.717,389.446c-.03.016-.057.205,0,.227s.089-.088.07-.116S363.759,389.424,363.717,389.446Z" transform="translate(-349.607 -384.214)" fill="#d6d6d6"/>
    <path id="Path_6242" data-name="Path 6242" d="M342.7,378.5c-.044,0-.065.083-.038.11s.057.022.08-.017A.071.071,0,0,0,342.7,378.5Z" transform="translate(-332.538 -375.333)" fill="#d6d6d6"/>
    <path id="Path_6243" data-name="Path 6243" d="M341.022,378.838c-.012.021.037.028.047.005S341.055,378.776,341.022,378.838Z" transform="translate(-331.214 -375.582)" fill="#d6d6d6"/>
    <path id="Path_6244" data-name="Path 6244" d="M343.971,379.44c-.017.012.028.049.052.06s.042.045.061.05.079,0,.061-.055a.072.072,0,0,0-.075-.055C344.056,379.44,343.995,379.422,343.971,379.44Z" transform="translate(-333.606 -376.089)" fill="#d6d6d6"/>
    <path id="Path_6245" data-name="Path 6245" d="M337.453,373.526c-.042.009-.047.061-.075.061s-.061.011-.052.05.028.066,0,.082,0,.083.042.089.08-.027.112-.044a.124.124,0,0,0,.08-.1.2.2,0,0,0-.027-.116A.085.085,0,0,0,337.453,373.526Z" transform="translate(-328.207 -371.294)" fill="#d6d6d6"/>
    <path id="Path_6246" data-name="Path 6246" d="M338.214,372.418c-.038.014-.024.071-.005.1a.3.3,0,0,0,.1.11c.047.023.145.044.108.067a.3.3,0,0,0-.112.116c-.01.033.079.066.079.066s-.028.039,0,.049.037-.038.074-.038.113.028.15.028.1-.061.094-.1a.2.2,0,0,0-.094-.122c-.042-.023-.088-.122-.117-.144s.029-.078,0-.116-.056-.034-.094-.061-.07.006-.094.039S338.242,372.406,338.214,372.418Z" transform="translate(-328.917 -370.352)" fill="#d6d6d6"/>
    <path id="Path_6247" data-name="Path 6247" d="M337.911,367.863c0-.05-.1-.094-.159-.105s-.052-.044.015-.05.06-.033.117-.044.112-.028.155-.033.042-.05.042-.083.117-.045.117-.045.066-.072.1-.105a.168.168,0,0,1,.155-.011c.052.016,0-.039-.023-.067a.159.159,0,0,1,.01-.122c.014-.034.1-.05.122-.039s0,.061,0,.105a.115.115,0,0,0,.042.072l.037-.005h.061c.061,0,.042.045.089.028a1.024,1.024,0,0,0,.121-.05.193.193,0,0,1,.141.017c.07.027.033-.05.047-.095s.042-.121.089-.116.085.039.122.012-.07-.067-.07-.083.089-.017.168-.023a1.061,1.061,0,0,0,.164-.011c.038-.011-.028-.088-.042-.088a1.13,1.13,0,0,1-.155.005c-.047-.005-.1.033-.14.044s-.052-.066-.075-.1a.083.083,0,0,1,.028-.127.7.7,0,0,0,.188-.138c.019-.033-.075-.028-.164-.022s.014.033-.07.133-.126.033-.193.1-.019.071.043.094.009.089-.005.1-.084.078-.075.122-.046.072-.046.072-.174.044-.206.049-.042-.028-.033-.061-.038-.111-.042-.161-.075.022-.079.056-.094.038-.145.016a.136.136,0,0,1-.07-.122c.009-.017-.028-.1-.028-.122a.347.347,0,0,1,.192-.133c.089-.022.2-.15.263-.205a.991.991,0,0,0,.107-.138,3.245,3.245,0,0,1,.459-.138,1.444,1.444,0,0,1,.417.039,1.588,1.588,0,0,1,.169.072.96.96,0,0,0,.258.055.477.477,0,0,1,.15.055c.042.022,0,.039-.1.078a.3.3,0,0,1-.23.005c-.056-.022-.089-.022-.047.011s.028.05.033.1.07.005.084-.006.014-.033.065.006a.076.076,0,0,0,.094.011c.024-.005,0-.066.019-.088s.071-.022.085-.033a.21.21,0,0,1,.075-.033c.028-.006.023.05.052.066s.014-.072,0-.094-.018-.083,0-.1a.164.164,0,0,1,.136,0c.023.022-.038.088-.024.127s.047-.022.071-.056.074,0,.159-.016.065-.072.155-.039.066.033.094,0,.079.006.131-.016.052,0,.089.022.084-.045.1-.067.094-.022.131-.017a1,1,0,0,0,.122.033.284.284,0,0,1,.1.033s.08.034.1.011-.005-.05-.075-.088-.043-.106,0-.111.037-.033.07-.055.075-.105.113-.088.07.049.118.077,0,.066,0,.094a.307.307,0,0,0,.023.149c.014.017-.014.077-.051.105s-.09.088-.075.1.126-.049.126-.049a1.047,1.047,0,0,1,.1-.128c.033-.028.066-.028.075.005s.061.044.108.022,0-.038,0-.088-.08-.022-.122-.011-.075.061-.089.061-.014-.034,0-.083-.019-.078-.019-.106.014-.027.047-.083.033.039.037.089.038.027.066.022.013-.072.037-.105.075-.039.122.011.042.033.1.055.06.028.065.078.042.055.065.039,0-.083-.009-.106-.126-.06-.164-.1.019-.038.061-.038.122.005.122.005a.415.415,0,0,0,.136-.061.458.458,0,0,1,.126-.061.3.3,0,0,1,.169-.011c.047.011.079-.021.126-.044s.1-.039.112-.028a.482.482,0,0,0,.15.039,1.451,1.451,0,0,0,.136-.055c.075-.034.042-.028.07-.045s.075-.022.173.028,0,0,.028.033.042-.006.108-.016a.432.432,0,0,1,.15.005.4.4,0,0,1,.177.039c.043.033-.027.1-.051.127s.037.038.056.033a1.361,1.361,0,0,1,.244.011c.07.011.1.05.131.05a.164.164,0,0,0,.1-.039.533.533,0,0,1,.174-.039.431.431,0,0,1,.154.011.2.2,0,0,1,.028.111.1.1,0,0,0,.075.089c.033.006.094-.067.117-.078s.051.05.066.033.131.006.178-.021.075,0,.1-.011a.168.168,0,0,0,.061-.094c0-.022.019-.039,0-.072s-.084-.011-.155-.033,0-.055.023-.077.075,0,.122.011.028-.016.051-.016.109.028.155.028.084.06.084.06a1.169,1.169,0,0,1-.159.045c-.028,0-.01.044.014.044a.165.165,0,0,1,.089.044c.032.028.178,0,.2,0a.389.389,0,0,1,.131.067.568.568,0,0,0,.094.055,1.36,1.36,0,0,0,.159-.011.438.438,0,0,1,.2.006.631.631,0,0,1,.108.071c.038.039.065.022.117.017s.1-.017.15-.017.2-.005.229.044.062.039.062.039a.652.652,0,0,1,.061-.106c.019-.016.08.011.117.034a2.034,2.034,0,0,0,.267.011c.047.011.113.066.075.111s.028.122.014.166-.051.05-.089.061.038.067.071.1-.018.05-.052.033a.452.452,0,0,0-.225.039c-.107.033-.15.1-.262.1s-.066-.005-.206-.005-.136.045-.164.1.014.044,0,.088a.523.523,0,0,0-.037.133c0,.039-.085.044-.113.077a.842.842,0,0,1-.154.177.633.633,0,0,0-.136.155.555.555,0,0,1,.052-.161c.037-.066-.042-.161-.048-.232s.024-.094.071-.161.159-.089.206-.122.239-.189.239-.189a.58.58,0,0,1-.085.05c-.047.022-.1.067-.14.067s-.024-.045-.029-.089-.094-.011-.127.033a1.15,1.15,0,0,1-.159.128c-.065.055-.047.049-.089.055a.239.239,0,0,1-.146-.055c-.033-.028-.065.022-.168.028s-.22-.012-.267-.006-.164.166-.235.194-.159.078-.136.116.065-.033.084-.033-.014.078.028.078.065-.028.107-.034.075.039.084.1a.5.5,0,0,1-.037.189.4.4,0,0,1-.122.221,2.475,2.475,0,0,0-.221.222c-.024.033-.107.006-.122-.017s-.056.05-.089.066a.11.11,0,0,0-.066.094c0,.044-.094.044-.094.072a.589.589,0,0,0,.08.144.2.2,0,0,1-.047.188c-.042.028-.061.062-.117.023s-.01-.061.014-.122a.105.105,0,0,0-.033-.111c-.009-.016-.047.033-.066.039s-.019-.05,0-.083a.131.131,0,0,0-.024-.111c-.014-.005-.1.083-.14.077s0-.1.009-.133-.028-.005-.056.022-.089.089-.112.083-.071.044-.033.078.052.061.075.066a.388.388,0,0,0,.108-.016c.023-.006.07.039.023.088s-.145.055-.127.089a1.483,1.483,0,0,1,.1.16.658.658,0,0,1,.033.221c.009.062-.136.188-.178.227s-.084.132-.155.177a.454.454,0,0,1-.244.067c-.023-.017-.089.028-.084.089s.037.055.037.072a.508.508,0,0,1-.066.111c-.019.028-.085,0-.075-.083s.056-.116.051-.155a.042.042,0,0,0-.075-.027c-.029.033-.117.127-.117.127a.411.411,0,0,0,.075.138,1.107,1.107,0,0,1,.127.177c.056.083.014.155,0,.216s-.061.06-.1.072-.047.028-.061.061-.08.072-.089.045a.494.494,0,0,0-.07-.095.459.459,0,0,0-.1-.149c-.061-.049-.085-.072-.085-.022s-.037.144-.037.177-.084-.1-.084-.155-.015-.149-.01-.238-.1-.006-.1-.006-.047.094-.07.094-.032-.077-.029-.144a.268.268,0,0,0-.037-.149.664.664,0,0,1-.108-.172c-.014-.061-.042-.038-.07-.005s-.019.033-.131.033-.107.083-.164.133-.1.144-.168.178-.094.066-.094.1a.97.97,0,0,1-.014.194.7.7,0,0,1-.056.188c-.033.056-.061.144-.089.144s-.037-.077-.037-.128a.8.8,0,0,0-.1-.2c-.019-.038-.089-.21-.089-.21a1.2,1.2,0,0,1-.052-.233c0-.05,0-.188,0-.188s-.075.088-.108.083-.065-.066-.061-.138-.056-.066-.089-.077-.076-.111-.1-.111a.05.05,0,0,0-.056.033c-.019.033-.118.028-.141.028a.976.976,0,0,1-.206-.023c-.042-.016-.089-.116-.112-.127s-.094.06-.121.05-.085-.066-.146-.1-.08-.111-.1-.16-.1.027-.094.082.113.128.113.167.018.05.07.1.009.077.043.089.079-.044.126-.072.042-.066.066-.066.018.072.056.077a.341.341,0,0,1,.16.117c.024.044-.024.072-.042.111a.813.813,0,0,1-.122.194.4.4,0,0,1-.169.122c-.07.016-.079.061-.136.066a.972.972,0,0,0-.234.111.354.354,0,0,1-.187.045c-.038-.017-.052-.128-.066-.21a.66.66,0,0,0-.047-.161.792.792,0,0,0-.117-.138.614.614,0,0,1-.071-.2c0-.055-.056-.033-.065-.094a1.547,1.547,0,0,0-.07-.183c-.01-.038-.1.005-.141.011a.1.1,0,0,1-.1-.122c.009-.088.047-.088.094-.088s.028-.028.075-.083a.46.46,0,0,0,.065-.238c0-.072-.033-.039-.07-.028a.326.326,0,0,1-.113.022c-.018-.005-.094-.033-.108-.016a.11.11,0,0,1-.112-.022c-.019-.028-.112-.061-.122-.083a1.409,1.409,0,0,0-.019-.188c-.018-.033-.06.006-.084.028s-.089.038-.07.055.079.05.075.095-.047.055-.071.077-.07.055-.084.028-.061-.149-.075-.172a.511.511,0,0,1-.071-.127c-.014-.05-.066-.066-.1-.105s-.127-.1-.164-.144-.1-.077-.108-.022.066.066.094.121a.269.269,0,0,0,.122.1,1.4,1.4,0,0,1,.122.089.141.141,0,0,1-.071.011c-.032-.005,0,.067-.01.105s-.037.039-.046-.006a.25.25,0,0,0-.056-.11c-.019-.017-.14-.061-.159-.072s-.1-.073-.108-.122-.08-.055-.1-.044-.089.072-.122.072a1.253,1.253,0,0,1-.122-.033c-.037-.005-.042.072-.056.117s-.075.011-.108.05-.089.077-.075.111.038.033,0,.061-.065.083-.107.089-.1.028-.122.011-.042.055-.056.072-.037-.05-.061-.077-.084-.006-.1-.011-.037-.056-.061-.078a.071.071,0,0,1,0-.089.083.083,0,0,0,.024-.094c-.014-.05-.024-.161.024-.182a.7.7,0,0,1,.215,0c.056,0,.153.023.169-.012A.3.3,0,0,0,337.911,367.863Zm1.767-.974c-.016.053.108.094.131.056S339.7,366.811,339.678,366.889Zm-.159,1.34c.009.022.056-.033.093-.033s.122.016.145-.022.1-.044.159-.033.113.061.155.066a.761.761,0,0,0,.192-.017c.037-.011.028-.089-.033-.127a1.3,1.3,0,0,0-.169-.122c-.056-.023-.075-.045-.042-.056s.074-.055.028-.055-.089.017-.094.045a.127.127,0,0,1-.051.072c-.018.011-.066.055-.08.022s-.066-.133-.089-.139-.061,0-.089.055a.448.448,0,0,1-.089.133c-.028.023-.065.089-.037.1S339.519,368.229,339.519,368.229Zm1.073-.388c-.058.045-.075.105-.052.144s.09.161.122.172.15.033.1.083-.056.066-.1.061-.023.133.01.143.131.05.164.056.14-.011.136-.044a.465.465,0,0,0-.061-.2c-.037-.034.052-.066.028-.094s-.056-.016-.075-.049a.275.275,0,0,0-.056-.089c-.028-.022-.051.022-.047-.039s.07-.1.1-.066.112.017.132,0-.038-.066-.052-.1a.148.148,0,0,0-.122-.05c-.014.011-.052.045-.089.072S340.62,367.818,340.592,367.841Z" transform="translate(-328.305 -365.028)" fill="#d6d6d6"/>
    <path id="Path_6248" data-name="Path 6248" d="M355.708,366.419c-.034.041-.107.028-.159-.006a.58.58,0,0,0-.141-.05c-.028-.012,0-.078.037-.094s.122-.066.187-.1.084-.1.132-.1.271-.056.3-.045.164.022.192-.022.126-.017.1.022-.108.127-.164.111a.969.969,0,0,0-.286,0,.553.553,0,0,0-.2.1c-.061.038-.047.083-.023.088A.065.065,0,0,1,355.708,366.419Z" transform="translate(-342.882 -365.172)" fill="#d6d6d6"/>
    <path id="Path_6249" data-name="Path 6249" d="M381.847,374.146c-.028.009-.108-.011-.08.066a.414.414,0,0,1,.028.194.84.84,0,0,0,.01.2c.009.017.047.055.07.044s-.01-.121-.01-.144a.09.09,0,0,1,.052-.061c.019-.005,0-.1-.024-.139s-.056-.06-.037-.066.043-.05.028-.061S381.879,374.135,381.847,374.146Z" transform="translate(-364.279 -371.797)" fill="#d6d6d6"/>
    <path id="Path_6250" data-name="Path 6250" d="M381.345,377.145c-.036.01-.047.066-.047.083s-.132.05-.09.094.084.011.15.006a.566.566,0,0,0,.127-.027s.1.006.084-.05-.116-.062-.135-.056S381.382,377.133,381.345,377.145Z" transform="translate(-363.824 -374.231)" fill="#d6d6d6"/>
    <path id="Path_6251" data-name="Path 6251" d="M378.823,378.259c-.034.024-.014.122-.042.188s-.052.128-.07.128a.364.364,0,0,0-.145.077c-.029.034-.164-.028-.183,0a.66.66,0,0,1-.079.083c-.024.022-.089.005-.075.072s.047.128.075.128.066-.022.066-.083.065,0,.1-.005.051-.045.065-.089-.019.022.038.039a.053.053,0,0,0,.075-.045c0-.017.1-.044.122-.061s.094-.045.1-.066,0-.149.023-.16.056-.011.019-.088S378.87,378.226,378.823,378.259Z" transform="translate(-361.411 -375.13)" fill="#d6d6d6"/>
    <path id="Path_6252" data-name="Path 6252" d="M375.57,384.079c-.069.013-.112.189-.056.183S375.631,384.069,375.57,384.079Z" transform="translate(-359.189 -379.86)" fill="#d6d6d6"/>
    <path id="Path_6253" data-name="Path 6253" d="M391.206,404.859c-.019.011,0,.072.019.094a.224.224,0,0,1,.023.122c0,.021-.084.049-.047.077s.108,0,.1.033-.047.078,0,.089.057-.039.075-.078a.215.215,0,0,1,.066-.095c.033-.021,0-.072-.019-.072s-.028.028-.07,0-.033-.016-.061-.072S391.253,404.831,391.206,404.859Z" transform="translate(-371.933 -396.721)" fill="#d6d6d6"/>
    <path id="Path_6254" data-name="Path 6254" d="M389.536,406.756c-.007.027-.047.033-.075.061s0,.038-.08.094-.178.116-.2.165.019.078.094.084.057.022.108-.045a1.154,1.154,0,0,1,.159-.161.2.2,0,0,0,.061-.138S389.541,406.74,389.536,406.756Z" transform="translate(-370.3 -398.264)" fill="#d6d6d6"/>
    <path id="Path_6255" data-name="Path 6255" d="M382.7,406.874c-.051.061.052.061.037.122s.07.038.094.028a.3.3,0,0,0,.07-.172c-.009-.033-.1.055-.127.05A.708.708,0,0,1,382.7,406.874Z" transform="translate(-365.031 -398.337)" fill="#d6d6d6"/>
    <path id="Path_6256" data-name="Path 6256" d="M374.879,397.957c0-.057-.028.061-.047.011s.019-.134-.028-.1-.07.061-.075.089-.089.038-.084.011.038-.094,0-.122a.5.5,0,0,0-.131-.056c-.042-.016.005-.071-.108-.044a.438.438,0,0,0-.155.062s-.1-.039-.136,0-.08.128-.08.128-.131.005-.159.01-.075.05-.117.067-.113.033-.141.005-.075-.077-.061-.11.117-.078.08-.133-.061-.066-.065-.1a.134.134,0,0,0-.042-.117c-.056-.066-.042-.144-.019-.155s-.014-.078-.033-.105a.156.156,0,0,1,.019-.155c.037-.027.15-.133.183-.133s.085.017.117-.011.131-.017.131-.038a.319.319,0,0,1,.033-.138c.023-.028.122-.055.136-.077s.037-.116.065-.133.052-.055.094,0,.084.078.1.022.005-.039.048-.088-.005-.133.038-.084.07.089.07.089,0-.11.024-.11.056.055.07.055.141-.034.164,0-.066.145-.033.183a.79.79,0,0,0,.145.094c.047.034.1.111.127.045s.07-.166.038-.216a.33.33,0,0,1,.024-.222c.014-.011.037.127.084.189a.619.619,0,0,1,.117.172c.024.066.028.182.07.221s.127.039.122.088.094.145.145.238a1.034,1.034,0,0,1,.057.388.6.6,0,0,1-.1.271,1.42,1.42,0,0,0-.075.188c-.018.033-.008.027-.079.05s-.122.088-.141.066-.084-.061-.1-.033-.043.089-.076.022-.107-.055-.122-.066-.014-.044-.014-.1-.061-.061-.066-.078S374.879,397.974,374.879,397.957Z" transform="translate(-357.55 -389.851)" fill="#d6d6d6"/>
    <path id="Path_6257" data-name="Path 6257" d="M392.412,398.443c.061.028.169-.1.127-.117S392.412,398.443,392.412,398.443Z" transform="translate(-372.924 -391.423)" fill="#d6d6d6"/>
    <path id="Path_6258" data-name="Path 6258" d="M388.659,400.01c-.009.054-.065.028-.094-.021s-.084-.089,0-.067S388.664,399.982,388.659,400.01Z" transform="translate(-369.766 -392.713)" fill="#d6d6d6"/>
    <path id="Path_6259" data-name="Path 6259" d="M368.229,390.837c-.058.013.085.133.1.149s.14.144.14.205a.561.561,0,0,0,.108.226c.024.023.141.106.16.151s.061.055.061-.006a.344.344,0,0,1,.033-.167c.023-.033.014-.083-.023-.077s-.071-.072-.132-.122a.893.893,0,0,1-.164-.154,1.529,1.529,0,0,0-.164-.156A.159.159,0,0,0,368.229,390.837Z" transform="translate(-353.286 -385.345)" fill="#d6d6d6"/>
    <path id="Path_6260" data-name="Path 6260" d="M369.124,389.284c-.037.006-.037.089-.018.116s.056.011.08.111a1.25,1.25,0,0,0,.089.239c.019.038.1.094.126.121s.07-.011.052-.044a.4.4,0,0,1-.061-.122.523.523,0,0,0-.065-.166c-.038-.067-.07-.083-.094-.127A.8.8,0,0,0,369.124,389.284Z" transform="translate(-353.998 -384.085)" fill="#d6d6d6"/>
    <path id="Path_6261" data-name="Path 6261" d="M371.292,394.757a.071.071,0,0,0,.023.1.2.2,0,0,0,.113.016c.046,0,.112-.021.061-.054s-.113,0-.131-.044S371.311,394.729,371.292,394.757Z" transform="translate(-355.772 -388.511)" fill="#d6d6d6"/>
    <path id="Path_6262" data-name="Path 6262" d="M372.531,395.071c-.033.017-.084.028-.047.067a.119.119,0,0,0,.117.049c.056,0,.14.034.145,0s-.052-.083-.075-.083A1.239,1.239,0,0,1,372.531,395.071Z" transform="translate(-356.74 -388.782)" fill="#d6d6d6"/>
    <path id="Path_6263" data-name="Path 6263" d="M375.222,395.914c-.01.05.07.072.075.016A.039.039,0,0,0,375.222,395.914Z" transform="translate(-358.972 -389.442)" fill="#d6d6d6"/>
    <path id="Path_6264" data-name="Path 6264" d="M376.543,395.624c.008.06.1-.034.1-.034s.075-.011.075-.05-.075-.088-.1-.044S376.538,395.585,376.543,395.624Z" transform="translate(-360.044 -389.113)" fill="#d6d6d6"/>
    <path id="Path_6265" data-name="Path 6265" d="M375.184,392.956c-.028.011-.024.039-.033.094s-.051.094-.014.122.108-.094.127-.055,0,.055.028.105a.106.106,0,0,0,.094.044s0-.133-.056-.166-.085-.072-.023-.061.094-.016.079-.05-.1-.016-.131-.011A.122.122,0,0,1,375.184,392.956Z" transform="translate(-358.891 -387.065)" fill="#d6d6d6"/>
    <path id="Path_6266" data-name="Path 6266" d="M375.534,392.273c-.033.039-.009.077.043.072s.16-.021.183-.021.056-.072.037-.072a1.367,1.367,0,0,0-.164.034A.474.474,0,0,1,375.534,392.273Z" transform="translate(-359.213 -386.493)" fill="#d6d6d6"/>
    <path id="Path_6267" data-name="Path 6267" d="M377.77,391.949c-.043-.021-.122.183-.066.2S377.8,391.966,377.77,391.949Z" transform="translate(-360.971 -386.246)" fill="#d6d6d6"/>
    <path id="Path_6268" data-name="Path 6268" d="M372.735,390.338c0-.04-.075.011-.08.05s.052.072-.037.072-.094.083-.113.1a.2.2,0,0,1-.075.033c-.038.01-.047.055-.056.082s-.075-.049-.094-.028a.359.359,0,0,0,.029.215.239.239,0,0,0,.141.144.354.354,0,0,1,.1.011c.033.011.141.022.136-.028a.224.224,0,0,1,.033-.177c.047-.05.094-.078.071-.15s-.071-.116-.038-.149.071-.044.071-.072S372.744,390.521,372.735,390.338Z" transform="translate(-356.577 -384.929)" fill="#d6d6d6"/>
    <path id="Path_6269" data-name="Path 6269" d="M375.429,386.26c-.033,0,.005.06-.042.1s-.1.055-.071.122.127.116.1.144-.094.083-.1.132.113-.077.145-.127.1-.022.112-.049l.014-.028a.655.655,0,0,1-.094-.028c-.042-.017-.093.044-.07-.044s.094-.072.08-.139S375.443,386.26,375.429,386.26Z" transform="translate(-359.042 -381.631)" fill="#d6d6d6"/>
    <path id="Path_6270" data-name="Path 6270" d="M376.044,388.8c-.016.007-.057.105,0,.105s.141.016.122-.011S376.095,388.777,376.044,388.8Z" transform="translate(-359.614 -383.689)" fill="#d6d6d6"/>
    <path id="Path_6271" data-name="Path 6271" d="M376.825,388.375c-.018,0-.079.116,0,.111S376.891,388.38,376.825,388.375Z" transform="translate(-360.242 -383.347)" fill="#d6d6d6"/>
    <path id="Path_6272" data-name="Path 6272" d="M376.131,389.459c-.066.1-.061.078-.108.056s-.122.05-.108.077.117-.005.141.044.023.055.07.044a.126.126,0,0,0,.079-.127A.343.343,0,0,0,376.131,389.459Z" transform="translate(-359.533 -384.227)" fill="#d6d6d6"/>
    <path id="Path_6273" data-name="Path 6273" d="M378.632,392.784c-.035.041-.052.044.028.06s.1.017.07.062-.056.1-.028.1.113-.022.122,0-.018.027.076.044a.174.174,0,0,1,.131.078c.019.022.075.094.038.094s-.08.056-.052.061.112-.016.117,0,.051.123.1.117.076-.105.1-.133.117-.045.127.005a.194.194,0,0,0,.094.133c.057.033.122.066.127.038s-.028-.132-.066-.149a.265.265,0,0,1-.1-.149c0-.039-.057-.05-.085-.078s-.051-.1-.122-.122a.524.524,0,0,1-.164-.089c-.075-.044-.244-.044-.248-.017s0,0-.057-.021-.1,0-.112-.039S378.675,392.734,378.632,392.784Z" transform="translate(-361.716 -386.898)" fill="#d6d6d6"/>
  </g>
</svg>
