<svg xmlns="http://www.w3.org/2000/svg" xmlns:xlink="http://www.w3.org/1999/xlink" width="44" height="44" viewBox="0 0 44 44">
  <defs>
    <filter id="Rectangle_1908" x="0" y="0" width="44" height="44" filterUnits="userSpaceOnUse">
      <feOffset dy="3" input="SourceAlpha"/>
      <feGaussianBlur stdDeviation="3" result="blur"/>
      <feFlood flood-opacity="0.161"/>
      <feComposite operator="in" in2="blur"/>
      <feComposite in="SourceGraphic"/>
    </filter>
  </defs>
  <g id="Group_9053" data-name="Group 9053" transform="translate(-64 -227)">
    <g transform="matrix(1, 0, 0, 1, 64, 227)" filter="url(#Rectangle_1908)">
      <rect id="Rectangle_1908-2" data-name="Rectangle 1908" width="26" height="26" rx="3" transform="translate(9 6)" fill="#fff"/>
    </g>
    <g id="hairdresser-washing-the-hair-of-a-client-with-bubbles-shampoo-svgrepo-com" transform="translate(78.271 237.576)">
      <g id="Group_8981" data-name="Group 8981" transform="translate(0 1.367)">
        <ellipse id="Ellipse_554" data-name="Ellipse 554" cx="1.53" cy="1.577" rx="1.53" ry="1.577" transform="translate(12.399)" fill="#ef8294"/>
        <path id="Path_11333" data-name="Path 11333" d="M14.936,8.762c-.554-.45-1.515-.2-1.992-.065a16.3,16.3,0,0,1-2.078.436.591.591,0,0,0-.1-.208A.617.617,0,0,0,10.2,8.69a.627.627,0,0,0-.745-.146.629.629,0,0,0-.787-.033.607.607,0,0,0-.19.728,1.44,1.44,0,0,0-.356,2.369H8.012l-.043.118a.627.627,0,0,0-.033.319L7.417,11.7l-.052.039L7.338,11.7s-2.351,1.392-3.174.756c-.472-.308-.782.179.145.85a1.15,1.15,0,0,0,.819.143l-1.139.932c-.768,0-1.554.008-1.727.032C1.9,14.461,0,17.667,0,17.667H1.611l1.363-1.961H5.617v-.015l2.794-2.65a1.27,1.27,0,0,0,.2-.229c.022.011.044.023.065.033v.605l-2.66,2.618H2.8v.947h1.56l-.2,1.113H2.759l-.481.722H7.691l-.481-.722h-1.5l-.2-1.113h1.53v-.629l1.632-1.607V19.03h2.616v-7.4l-.179,0-1.058-.009a1.452,1.452,0,0,0,.234-.266,1.426,1.426,0,0,0,.183-.384.607.607,0,0,0,.27.063.615.615,0,0,0,.49-.988c-.013-.017-.029-.033-.044-.05A.443.443,0,0,0,11.2,9.93a5,5,0,0,1,1.729-.109,33.286,33.286,0,0,0-.029,3.71l-.261,2.426.231,2.386h-.675v.7h2.3V13.835A.56.56,0,0,0,15,13.344C15.107,12.415,15.553,9.264,14.936,8.762Zm-3.958,1.363a.346.346,0,0,1,.063.063.375.375,0,0,1-.07.524.37.37,0,0,1-.445,0A1.443,1.443,0,0,0,8.7,9.156a.366.366,0,0,1-.031-.205A.371.371,0,0,1,8.812,8.7a.381.381,0,0,1,.524.07l.073.1L9.5,8.8a.381.381,0,0,1,.524.071l.1-.066-.087.089.049.074.085-.024a.376.376,0,0,1,.4.132.381.381,0,0,1,.052.1l-.242.037.071.835s.2-.033.489-.077c0,.008,0,.015-.005.023l-.03.081Z" transform="translate(0 -4.931)" fill="#ef8294"/>
        <circle id="Ellipse_555" data-name="Ellipse 555" cx="0.301" cy="0.301" r="0.301" transform="translate(9.093 2.223)" fill="#ef8294"/>
        <circle id="Ellipse_556" data-name="Ellipse 556" cx="0.301" cy="0.301" r="0.301" transform="translate(10.236 2.854)" fill="#ef8294"/>
        <circle id="Ellipse_557" data-name="Ellipse 557" cx="0.228" cy="0.228" r="0.228" transform="translate(10.008 1.952)" fill="#ef8294"/>
        <circle id="Ellipse_558" data-name="Ellipse 558" cx="0.132" cy="0.132" r="0.132" transform="translate(9.563 1.445)" fill="#ef8294"/>
        <circle id="Ellipse_559" data-name="Ellipse 559" cx="0.132" cy="0.132" r="0.132" transform="translate(10.537 1.044)" fill="#ef8294"/>
      </g>
    </g>
  </g>
</svg>
