<svg xmlns="http://www.w3.org/2000/svg" xmlns:xlink="http://www.w3.org/1999/xlink" width="44" height="44" viewBox="0 0 44 44">
  <defs>
    <filter id="Rectangle_1908" x="0" y="0" width="44" height="44" filterUnits="userSpaceOnUse">
      <feOffset dy="3" input="SourceAlpha"/>
      <feGaussianBlur stdDeviation="3" result="blur"/>
      <feFlood flood-opacity="0.161"/>
      <feComposite operator="in" in2="blur"/>
      <feComposite in="SourceGraphic"/>
    </filter>
  </defs>
  <g id="Group_9057" data-name="Group 9057" transform="translate(-64 -495)">
    <g transform="matrix(1, 0, 0, 1, 64, 495)" filter="url(#Rectangle_1908)">
      <rect id="Rectangle_1908-2" data-name="Rectangle 1908" width="26" height="26" rx="3" transform="translate(9 6)" fill="#fff"/>
    </g>
    <g id="_1299334" data-name="1299334" transform="translate(76.134 1567.929)">
      <path id="Path_11361" data-name="Path 11361" d="M398.929-1061.692l-.146.022a3.331,3.331,0,0,0-.906.291,1.447,1.447,0,0,0-.841.843,2.206,2.206,0,0,0,0,.631,5.329,5.329,0,0,0,.906,2.093,3.747,3.747,0,0,0,1.564,1.02c.559.186.868.054,1.036-.441a3.163,3.163,0,0,0,.13-.743c-.013-.007-.369-.054-.373-.048s-.016.081-.029.173c-.064.451-.141.672-.246.727a1.254,1.254,0,0,1-.768-.2,2.922,2.922,0,0,1-1.02-.754,4.266,4.266,0,0,1-.828-2.281.559.559,0,0,1,.187-.356,2.442,2.442,0,0,1,1.646-.575,2.2,2.2,0,0,1,1.184,1.033c.217.357.233.479.143,1.079a3.089,3.089,0,0,0-.022.815,1.063,1.063,0,0,0,.711.806c.086.038.334.13.55.2a2.823,2.823,0,0,1,1.182.579c.3.3.42.768.477,1.916a11.272,11.272,0,0,0,.146,1.69,2.483,2.483,0,0,0,.337.864,3.551,3.551,0,0,0,1.171,1.162c.18.119.558.348.563.342l.1-.165c.073-.121.092-.165.079-.177s-.1-.067-.208-.13a3.354,3.354,0,0,1-1.465-1.415,4.238,4.238,0,0,1-.313-1.892,9.6,9.6,0,0,0-.14-1.5,1.649,1.649,0,0,0-.745-1.193,4.053,4.053,0,0,0-1.04-.446c-.209-.072-.442-.157-.515-.189-.313-.135-.448-.275-.5-.521a2.138,2.138,0,0,1,.007-.553c.013-.094.034-.249.047-.344a3.386,3.386,0,0,0,.022-.347,1.223,1.223,0,0,0-.233-.76,2.667,2.667,0,0,0-1.387-1.231A2.067,2.067,0,0,0,398.929-1061.692Z" transform="translate(-390.706 0)" fill="#ef8294"/>
      <path id="Path_11362" data-name="Path 11362" d="M360.358-737.938a1.017,1.017,0,0,0-.593.32,1.56,1.56,0,0,0-.41.717,5.447,5.447,0,0,0-.146.787,5.105,5.105,0,0,1-.4,1.6,8.846,8.846,0,0,1-2.144,2.4c-.233.2-.8.688-.906.777l-.057.047.108.126.126.149c.023.029,0,.047.547-.421a17.916,17.916,0,0,0,2.008-1.923,3.836,3.836,0,0,0,.894-1.575,9.323,9.323,0,0,0,.237-1.257,3.681,3.681,0,0,1,.149-.71,1.1,1.1,0,0,1,.448-.578,1.183,1.183,0,0,1,.236-.075,1.466,1.466,0,0,0,.149-.034s-.035-.271-.048-.335C360.544-737.967,360.515-737.97,360.358-737.938Z" transform="translate(-349.998 -318.999)" fill="#ef8294"/>
      <path id="Path_11363" data-name="Path 11363" d="M382.253-696.527a2.645,2.645,0,0,0-.8.96,5.611,5.611,0,0,0-.421,1.453,4.7,4.7,0,0,1-.369,1.21,4.191,4.191,0,0,1-.877.963,1.314,1.314,0,0,0-.189.174,1.022,1.022,0,0,0,.181.24,4.81,4.81,0,0,0,.609-.531,3.126,3.126,0,0,0,.986-2.093,4.881,4.881,0,0,1,.375-1.281,2.36,2.36,0,0,1,.742-.868l.085-.066-.094-.121a.846.846,0,0,0-.105-.124A.468.468,0,0,0,382.253-696.527Z" transform="translate(-373.547 -359.743)" fill="#ef8294"/>
      <path id="Path_11364" data-name="Path 11364" d="M501.312-563.071a2.785,2.785,0,0,1-.439,1.37,7.557,7.557,0,0,1-2.142,1.794l-.43.288.091.136.091.135.474-.319c2.011-1.354,2.473-1.907,2.655-3.183.02-.143.037-.272.037-.287s-.016-.028-.105-.037c-.059-.006-.13-.015-.16-.019l-.054-.007Z" transform="translate(-490.511 -491.201)" fill="#ef8294"/>
      <path id="Path_11365" data-name="Path 11365" d="M617.709-384.047c-.1.067-.146.108-.141.12s.042.064.079.12a3.905,3.905,0,0,1,.405.723.98.98,0,0,1-.031.672l-.037.107.032.012a.961.961,0,0,0,.316.1.732.732,0,0,0,.051-.136c.179-.568.1-.88-.4-1.638-.057-.086-.108-.161-.114-.165A.659.659,0,0,0,617.709-384.047Z" transform="translate(-608.033 -667.643)" fill="#ef8294"/>
      <path id="Path_11366" data-name="Path 11366" d="M7.163-295.806a2.5,2.5,0,0,0-.7.209,2.282,2.282,0,0,0-.483.345l-.132.126-.135-.1-.135-.1-.041.035c-.054.045-.142.057-.347.045a3.88,3.88,0,0,1-.969-.22,5.394,5.394,0,0,0-1.518-.3,1.371,1.371,0,0,0-.508.083,2.794,2.794,0,0,0-1.052.676,1.913,1.913,0,0,0-.625,1.019,2.222,2.222,0,0,0,.012.675,1.28,1.28,0,0,0,.547.833,2.677,2.677,0,0,0,.945.369,2.125,2.125,0,0,0,.531.039,2.275,2.275,0,0,0,.549-.041,7.346,7.346,0,0,0,1.741-.539c.454-.227.635-.443.637-.758a1.22,1.22,0,0,0-.239-.635,5.873,5.873,0,0,0-.458-.575,1.445,1.445,0,0,0-.291.231.463.463,0,0,0,.1.142c.392.465.54.751.481.929-.051.154-.424.357-1.011.552a5.291,5.291,0,0,1-1.518.307,1.952,1.952,0,0,1-1.474-.569,1.065,1.065,0,0,1-.177-.653.959.959,0,0,1,.1-.487,2.693,2.693,0,0,1,.839-.894,2.593,2.593,0,0,1,.522-.259.9.9,0,0,1,.388-.042,1.857,1.857,0,0,1,.522.056c.143.031.515.127.827.217a3.5,3.5,0,0,0,1.175.239,1.05,1.05,0,0,0,.329-.025.422.422,0,0,1,.075-.021.916.916,0,0,1-.054.1.772.772,0,0,0-.126.375,1.174,1.174,0,0,0,.249.721,2.444,2.444,0,0,0,.713.651,8.8,8.8,0,0,0,2.056.574c.154.028.291.054.309.059s.034-.007.07-.184a1.811,1.811,0,0,0,.035-.195s-.214-.045-.47-.1a9.994,9.994,0,0,1-1.695-.448,1.524,1.524,0,0,1-.468-.326,1.15,1.15,0,0,1-.408-.72,1,1,0,0,1,.354-.55,1.639,1.639,0,0,1,1.2-.474,5.486,5.486,0,0,1,2.232.743,13.009,13.009,0,0,0,2.2.852,2.827,2.827,0,0,0,1.891-.133,10.81,10.81,0,0,0,.97-.479,2.625,2.625,0,0,1,1.646-.517,2.811,2.811,0,0,1,.68.148,6.825,6.825,0,0,1,1.768.983.947.947,0,0,0,.176.108c.007,0,.059-.076.117-.16l.105-.154-.274-.189a6.607,6.607,0,0,0-1.878-1,3.27,3.27,0,0,0-1.008-.138,3.836,3.836,0,0,0-1.589.609,2.968,2.968,0,0,1-2.624.509,14.691,14.691,0,0,1-2.169-.863,5.151,5.151,0,0,0-2.261-.711C7.306-295.814,7.187-295.809,7.163-295.806Z" transform="translate(0 -754.674)" fill="#ef8294"/>
      <path id="Path_11367" data-name="Path 11367" d="M41.739-244.827a2.189,2.189,0,0,0-.739.644,7.478,7.478,0,0,0-.512.7.864.864,0,0,0,.11.088l.1.075.063-.085a4.819,4.819,0,0,1,.913-1.065.4.4,0,0,1,.319-.105l.119,0,.026-.13a.45.45,0,0,0,.016-.139,1.066,1.066,0,0,0-.171-.013A.559.559,0,0,0,41.739-244.827Z" transform="translate(-39.398 -804.888)" fill="#ef8294"/>
      <path id="Path_11368" data-name="Path 11368" d="M377.636-191.829a.719.719,0,0,0-.064.181c.007.006.111.053.231.105a10.126,10.126,0,0,1,2.687,1.417c.056.07.054.07-.092.116a25.061,25.061,0,0,1-4.292.4c-.329.013-.622.026-.65.031a.218.218,0,0,0-.155.157c-.012.057.013.142.041.142a1.148,1.148,0,0,0,.152-.1.771.771,0,0,1,.136-.094,1.253,1.253,0,0,1-.066.135.95.95,0,0,0-.066.139,8.04,8.04,0,0,0,1.127-.034,16.867,16.867,0,0,0,4.032-.454.388.388,0,0,0,.241-.515c-.121-.325-.708-.7-2.093-1.326-.511-.231-1.058-.471-1.079-.471A.833.833,0,0,0,377.636-191.829Z" transform="translate(-369.308 -856.969)" fill="#ef8294"/>
      <path id="Path_11369" data-name="Path 11369" d="M50.121-136.32a1.453,1.453,0,0,0-.121.214.734.734,0,0,0,.157.108c.2.121.312.225.347.337l.025.082.126-.034a1.021,1.021,0,0,0,.133-.042.479.479,0,0,0-.075-.218c-.07-.135-.174-.22-.524-.432C50.146-136.33,50.132-136.333,50.121-136.32Z" transform="translate(-48.772 -911.827)" fill="#ef8294"/>
    </g>
  </g>
</svg>
