<svg xmlns="http://www.w3.org/2000/svg" width="79" height="45.34" viewBox="0 0 79 45.34">
  <g id="Group_9059" data-name="Group 9059" transform="translate(-168 -157.83)">
    <text id="Upload_Photos" data-name="Upload Photos" transform="translate(168 200.17)" fill="#e8e6f1" font-size="12" font-family="Roboto-Regular, Roboto" opacity="0.75"><tspan x="0" y="0">Upload Photos</tspan></text>
    <path id="Icon_material-add-a-photo" data-name="Icon material-add-a-photo" d="M3.74,5.24V1.5H6.234V5.24h3.74V7.734H6.234v3.74H3.74V7.734H0V5.24Zm3.74,7.48V8.98h3.74V5.24h8.727l2.281,2.493h3.952a2.5,2.5,0,0,1,2.493,2.493v14.96a2.5,2.5,0,0,1-2.493,2.493H6.234A2.5,2.5,0,0,1,3.74,25.187V12.72Zm8.727,11.22a6.234,6.234,0,1,0-6.234-6.234A6.236,6.236,0,0,0,16.207,23.941Zm-3.989-6.234a3.989,3.989,0,1,0,3.989-3.989A3.985,3.985,0,0,0,12.218,17.707Z" transform="translate(192.163 156.33)" fill="#ddd0d0"/>
  </g>
</svg>
