<svg xmlns="http://www.w3.org/2000/svg" width="19.71" height="30.42" viewBox="0 0 19.71 30.42">
  <path id="hairdresser-svgrepo-com" d="M82.437,11.2a4.811,4.811,0,0,0,1.086.125,5.039,5.039,0,0,0,4.572-3.1.71.71,0,0,0-1.3-.575,3.52,3.52,0,0,1-4.041,2.173,3.964,3.964,0,0,1-2.906-3.568,10.485,10.485,0,0,0,4.685-1.39,17.228,17.228,0,0,0,4.845,1.008.71.71,0,0,0,.754-.719v-.01a.7.7,0,0,0-.709-.691h-.011c-.035,0-.544-.041-.765-.066A5.061,5.061,0,0,0,83.548,0H83.5a5.032,5.032,0,0,0-5.134,4.81,7.112,7.112,0,0,0,1.11,4.346A4.974,4.974,0,0,0,82.437,11.2Zm1.086-9.781A3.685,3.685,0,0,1,87.17,4.134,14.076,14.076,0,0,1,83.047,2.6a.71.71,0,0,0-.715,1.226q.262.153.536.295a10.089,10.089,0,0,1-3.085.707A3.612,3.612,0,0,1,83.523,1.417ZM94.709,26.512a2.487,2.487,0,0,0-2.819-.933l-1.226-1.752,1.811-2.586a.71.71,0,1,0-1.163-.814L89.8,22.59l-1.515-2.163a.71.71,0,0,0-1.163.814l1.811,2.586L87.7,25.579a2.485,2.485,0,1,0,1.162.815l.931-1.329.931,1.329a2.484,2.484,0,1,0,3.981.118Zm-6.917,2.035a1.064,1.064,0,1,1-1.056-1.658,1.085,1.085,0,0,1,.187-.016,1.056,1.056,0,0,1,.608.193h0A1.065,1.065,0,0,1,87.792,28.547Zm5.931-.426a1.064,1.064,0,1,1-1.658-1.056h0a1.064,1.064,0,0,1,1.657,1.057ZM88.308,17.64a.71.71,0,0,0,.827.569A.7.7,0,0,0,89.7,17.4c-.587-3.17-3.58-4.574-6.285-4.574h0c-2.705,0-5.7,1.4-6.285,4.574l-1.673,9.023a.679.679,0,0,0,.152.569.7.7,0,0,0,.546.242h5.759a.71.71,0,1,0,0-1.42H77.012l1.517-8.181a3.829,3.829,0,0,1,1.878-2.635L82.845,20.1a.709.709,0,0,0,1.281,0l2.407-5.043A3.821,3.821,0,0,1,88.308,17.64Zm-4.822.513-1.77-3.709a6.371,6.371,0,0,1,3.524.034Z" transform="translate(-75.449 0.001)" fill="#e8e6f1"/>
</svg>
