<svg xmlns="http://www.w3.org/2000/svg" width="26.39" height="23.383" viewBox="0 0 26.39 23.383">
  <g id="home-svgrepo-com_3_" data-name="home-svgrepo-com (3)" transform="translate(0 -1.504)">
    <g id="c14_house">
      <path id="Path_10560" data-name="Path 10560" d="M3.588,24.3a.548.548,0,0,0,.553.59l6.652-.008.01-5.451s-.094-.9.777-.9h2.761a.856.856,0,0,1,.968.9L15.3,24.862h6.512a.682.682,0,0,0,.7-.734V14.076L13.33,5.913,3.588,14.077S3.588,24.3,3.588,24.3Z" fill="#e8e6f1"/>
      <path id="Path_10561" data-name="Path 10561" d="M0,13.317s.826,1.524,2.631,0L13.412,4.2,23.519,13.26c2.088,1.506,2.871,0,2.871,0L13.412,1.5Z" fill="#e8e6f1"/>
      <path id="Path_10562" data-name="Path 10562" d="M23.273,4.175h-2.6l.011,3.153,2.588,2.2Z" fill="#e8e6f1"/>
    </g>
  </g>
</svg>
