<svg xmlns="http://www.w3.org/2000/svg" width="18.106" height="20.693" viewBox="0 0 18.106 20.693">
  <path id="Icon_awesome-calendar-alt" data-name="Icon awesome-calendar-alt" d="M0,18.753a1.94,1.94,0,0,0,1.94,1.94H16.166a1.94,1.94,0,0,0,1.94-1.94V7.76H0Zm12.933-7.921a.486.486,0,0,1,.485-.485h1.617a.486.486,0,0,1,.485.485v1.617a.486.486,0,0,1-.485.485H13.418a.486.486,0,0,1-.485-.485Zm0,5.173a.486.486,0,0,1,.485-.485h1.617A.486.486,0,0,1,15.52,16v1.617a.486.486,0,0,1-.485.485H13.418a.486.486,0,0,1-.485-.485ZM7.76,10.831a.486.486,0,0,1,.485-.485H9.861a.486.486,0,0,1,.485.485v1.617a.486.486,0,0,1-.485.485H8.245a.486.486,0,0,1-.485-.485ZM7.76,16a.486.486,0,0,1,.485-.485H9.861a.486.486,0,0,1,.485.485v1.617a.486.486,0,0,1-.485.485H8.245a.486.486,0,0,1-.485-.485ZM2.587,10.831a.486.486,0,0,1,.485-.485H4.688a.486.486,0,0,1,.485.485v1.617a.486.486,0,0,1-.485.485H3.072a.486.486,0,0,1-.485-.485Zm0,5.173a.486.486,0,0,1,.485-.485H4.688A.486.486,0,0,1,5.173,16v1.617a.486.486,0,0,1-.485.485H3.072a.486.486,0,0,1-.485-.485ZM16.166,2.587h-1.94V.647A.649.649,0,0,0,13.58,0H12.286a.649.649,0,0,0-.647.647v1.94H6.467V.647A.649.649,0,0,0,5.82,0H4.527A.649.649,0,0,0,3.88.647v1.94H1.94A1.94,1.94,0,0,0,0,4.527v1.94H18.106V4.527A1.94,1.94,0,0,0,16.166,2.587Z" fill="#e8e6f1"/>
</svg>
