<svg xmlns="http://www.w3.org/2000/svg" width="16.387" height="14.043" viewBox="0 0 16.387 14.043">
  <path id="Icon_ionic-md-eye-off" data-name="Icon ionic-md-eye-off" d="M10.445,7.455a3.715,3.715,0,0,1,3.726,3.7,3.556,3.556,0,0,1-.267,1.353l2.176,2.158a8.742,8.742,0,0,0,2.556-3.511A8.825,8.825,0,0,0,7.472,6.124l1.609,1.6A3.685,3.685,0,0,1,10.445,7.455ZM3,5.44,4.7,7.126l.344.34a8.7,8.7,0,0,0-2.79,3.686,8.838,8.838,0,0,0,11.457,4.922l.315.311,2.183,2.158.947-.94L3.94,4.5ZM7.114,9.525l1.156,1.145a2.1,2.1,0,0,0-.059.479,2.223,2.223,0,0,0,2.234,2.216,2.1,2.1,0,0,0,.483-.059l1.156,1.145a3.707,3.707,0,0,1-5.365-3.306A3.653,3.653,0,0,1,7.114,9.525Zm3.211-.574,2.348,2.33.015-.117a2.223,2.223,0,0,0-2.234-2.216Z" transform="translate(-2.25 -4.5)" fill="#f2f3f3"/>
</svg>
