<svg xmlns="http://www.w3.org/2000/svg" width="16.982" height="16.982" viewBox="0 0 16.982 16.982">
  <path id="Icon_ionic-ios-close-circle" data-name="Icon ionic-ios-close-circle" d="M11.866,3.375a8.491,8.491,0,1,0,8.491,8.491A8.49,8.49,0,0,0,11.866,3.375ZM14.018,14.94l-2.151-2.151L9.715,14.94a.652.652,0,1,1-.923-.923l2.151-2.151L8.792,9.715a.652.652,0,0,1,.923-.923l2.151,2.151,2.151-2.151a.652.652,0,1,1,.923.923l-2.151,2.151,2.151,2.151a.655.655,0,0,1,0,.923A.648.648,0,0,1,14.018,14.94Z" transform="translate(-3.375 -3.375)" fill="#f2f3f3" opacity="0.85"/>
</svg>
