<svg xmlns="http://www.w3.org/2000/svg" width="15.259" height="24.414" viewBox="0 0 15.259 24.414">
  <path id="Icon_metro-location" data-name="Icon metro-location" d="M15.984,1.928A7.629,7.629,0,0,0,8.355,9.557c0,7.629,7.629,16.785,7.629,16.785s7.629-9.155,7.629-16.785a7.629,7.629,0,0,0-7.629-7.629Zm0,12.3a4.673,4.673,0,1,1,4.673-4.673A4.673,4.673,0,0,1,15.984,14.23ZM13.028,9.557a2.956,2.956,0,1,1,2.956,2.956A2.956,2.956,0,0,1,13.028,9.557Z" transform="translate(-8.355 -1.928)" fill="#fff"/>
</svg>
