<svg xmlns="http://www.w3.org/2000/svg" width="13.847" height="15.825" viewBox="0 0 13.847 15.825">
  <path id="Icon_awesome-calendar-day" data-name="Icon awesome-calendar-day" d="M0,14.341a1.484,1.484,0,0,0,1.484,1.484h10.88a1.484,1.484,0,0,0,1.484-1.484V5.934H0ZM1.978,8.407a.5.5,0,0,1,.495-.495H5.44a.5.5,0,0,1,.495.495v2.967a.5.5,0,0,1-.495.495H2.473a.5.5,0,0,1-.495-.495ZM12.363,1.978H10.88V.495A.5.5,0,0,0,10.385,0H9.4A.5.5,0,0,0,8.9.495V1.978H4.945V.495A.5.5,0,0,0,4.451,0H3.462a.5.5,0,0,0-.495.495V1.978H1.484A1.484,1.484,0,0,0,0,3.462V4.945H13.847V3.462A1.484,1.484,0,0,0,12.363,1.978Z" fill="#e8e6f1"/>
</svg>
