<svg xmlns="http://www.w3.org/2000/svg" width="16.357" height="18.402" viewBox="0 0 16.357 18.402">
  <path id="Icon_metro-thumbs-up" data-name="Icon metro-thumbs-up" d="M17.563,9.589c-.136-.363,3.618-3.715,1.429-6.431-.512-.635-2.25,3.041-4.718,4.706-1.362.918-4.53,2.873-4.53,3.953v6.995c0,1.3,5.024,2.675,8.841,2.675,1.4,0,3.427-8.767,3.427-10.16S17.7,9.952,17.563,9.589Zm-8.841.1a3.03,3.03,0,0,0-3.067,3.193v4.956a2.929,2.929,0,0,0,3.067,3.088c.672,0-1.022-.585-1.022-2.31V12.1c0-1.807,1.694-2.412,1.022-2.412Z" transform="translate(-5.656 -3.084)" fill="#f7b74e"/>
</svg>
