<svg xmlns="http://www.w3.org/2000/svg" width="16.62" height="22.555" viewBox="0 0 16.62 22.555">
  <path id="Icon_material-keyboard-voice" data-name="Icon material-keyboard-voice" d="M15.81,18.745a3.546,3.546,0,0,0,3.549-3.561l.012-7.123a3.561,3.561,0,1,0-7.123,0v7.123A3.557,3.557,0,0,0,15.81,18.745ZM22.1,15.184a6.16,6.16,0,0,1-6.292,6.054,6.16,6.16,0,0,1-6.292-6.054H7.5a8.281,8.281,0,0,0,7.123,7.977v3.894H17V23.161a8.271,8.271,0,0,0,7.123-7.977Z" transform="translate(-7.5 -4.5)" fill="#fff"/>
</svg>
