<svg xmlns="http://www.w3.org/2000/svg" width="23.23" height="23.23" viewBox="0 0 23.23 23.23">
  <path id="Icon_awesome-user-circle" data-name="Icon awesome-user-circle" d="M11.615.563A11.615,11.615,0,1,0,23.23,12.178,11.613,11.613,0,0,0,11.615.563Zm0,4.5A4.122,4.122,0,1,1,7.494,9.18,4.122,4.122,0,0,1,11.615,5.059Zm0,16.111a8.975,8.975,0,0,1-6.861-3.194,5.222,5.222,0,0,1,4.613-2.8,1.146,1.146,0,0,1,.333.052,6.2,6.2,0,0,0,1.916.323,6.178,6.178,0,0,0,1.916-.323,1.146,1.146,0,0,1,.333-.052,5.222,5.222,0,0,1,4.613,2.8A8.975,8.975,0,0,1,11.615,21.17Z" transform="translate(0 -0.563)" fill="#dfbd8d"/>
</svg>
