<svg xmlns="http://www.w3.org/2000/svg" width="16.684" height="16.684" viewBox="0 0 16.684 16.684">
  <path id="Icon_awesome-user-circle" data-name="Icon awesome-user-circle" d="M8.342.563A8.342,8.342,0,1,0,16.684,8.9,8.341,8.341,0,0,0,8.342.563Zm0,3.229a2.96,2.96,0,1,1-2.96,2.96A2.96,2.96,0,0,1,8.342,3.792Zm0,11.571a6.446,6.446,0,0,1-4.928-2.294,3.75,3.75,0,0,1,3.313-2.012.823.823,0,0,1,.239.037,4.454,4.454,0,0,0,1.376.232,4.437,4.437,0,0,0,1.376-.232.823.823,0,0,1,.239-.037,3.75,3.75,0,0,1,3.313,2.012A6.446,6.446,0,0,1,8.342,15.363Z" transform="translate(0 -0.563)" fill="#f2f3f3"/>
</svg>
