<svg xmlns="http://www.w3.org/2000/svg" width="21.349" height="21.349" viewBox="0 0 21.349 21.349">
  <path id="Icon_material-my-location" data-name="Icon material-my-location" d="M12.175,8.293a3.882,3.882,0,1,0,3.882,3.882A3.881,3.881,0,0,0,12.175,8.293ZM20.85,11.2A8.728,8.728,0,0,0,13.145,3.5v-2H11.2v2A8.728,8.728,0,0,0,3.5,11.2h-2v1.941h2A8.728,8.728,0,0,0,11.2,20.85v2h1.941v-2a8.728,8.728,0,0,0,7.705-7.705h2V11.2Zm-8.676,7.763a6.793,6.793,0,1,1,6.793-6.793A6.788,6.788,0,0,1,12.175,18.968Z" transform="translate(-1.5 -1.5)" fill="#e8e6f1"/>
</svg>
