<svg xmlns="http://www.w3.org/2000/svg" width="20.632" height="20.632" viewBox="0 0 20.632 20.632">
  <path id="Icon_awesome-history" data-name="Icon awesome-history" d="M21.194,10.859A10.316,10.316,0,0,1,4.4,18.91a1,1,0,0,1-.076-1.481L4.8,16.96a1,1,0,0,1,1.327-.083A7.654,7.654,0,1,0,5.634,5.3L7.746,7.413a.666.666,0,0,1-.471,1.136H1.228a.666.666,0,0,1-.666-.666V1.836A.666.666,0,0,1,1.7,1.366L3.752,3.42a10.316,10.316,0,0,1,17.442,7.439Zm-7.525,3.277.409-.525a1,1,0,0,0-.175-1.4l-1.693-1.317V6.552a1,1,0,0,0-1-1h-.666a1,1,0,0,0-1,1v5.643l2.721,2.116a1,1,0,0,0,1.4-.175Z" transform="translate(-0.563 -0.563)" fill="#dfbd8d"/>
</svg>
