<svg xmlns="http://www.w3.org/2000/svg" width="13.689" height="12.499" viewBox="0 0 13.689 12.499">
  <path id="Icon_material-add-a-photo" data-name="Icon material-add-a-photo" d="M1.786,3.286V1.5h1.19V3.286H4.762v1.19H2.976V6.262H1.786V4.476H0V3.286ZM3.571,6.857V5.071H5.357V3.286H9.523l1.089,1.19H12.5a1.194,1.194,0,0,1,1.19,1.19v7.142A1.194,1.194,0,0,1,12.5,14H2.976a1.194,1.194,0,0,1-1.19-1.19V6.857Zm4.166,5.357A2.976,2.976,0,1,0,4.762,9.238,2.977,2.977,0,0,0,7.738,12.213Zm-1.9-2.976a1.9,1.9,0,1,0,1.9-1.9A1.9,1.9,0,0,0,5.833,9.238Z" transform="translate(0 -1.5)" fill="#f7b74e"/>
</svg>
