<svg xmlns="http://www.w3.org/2000/svg" width="21.151" height="21.151" viewBox="0 0 21.151 21.151">
  <path id="Icon_material-rate-review" data-name="Icon material-rate-review" d="M22.036,3H5.115a2.112,2.112,0,0,0-2.1,2.115L3,24.151l4.23-4.23H22.036a2.121,2.121,0,0,0,2.115-2.115V5.115A2.121,2.121,0,0,0,22.036,3ZM7.23,15.691V13.079L14.506,5.8a.524.524,0,0,1,.751,0l1.872,1.872a.524.524,0,0,1,0,.751L9.842,15.691Zm12.691,0H11.989L14.1,13.576h5.817Z" transform="translate(-3 -3)" fill="#fff"/>
</svg>
