<svg xmlns="http://www.w3.org/2000/svg" width="20.908" height="18.295" viewBox="0 0 20.908 18.295">
  <path id="Icon_awesome-camera" data-name="Icon awesome-camera" d="M20.908,6.824V18.585a1.961,1.961,0,0,1-1.96,1.96H1.96A1.961,1.961,0,0,1,0,18.585V6.824a1.961,1.961,0,0,1,1.96-1.96H5.554l.5-1.344A1.957,1.957,0,0,1,7.89,2.25h5.125a1.957,1.957,0,0,1,1.834,1.27l.506,1.344h3.594A1.961,1.961,0,0,1,20.908,6.824ZM15.355,12.7a4.9,4.9,0,1,0-4.9,4.9A4.9,4.9,0,0,0,15.355,12.7Zm-1.307,0a3.594,3.594,0,1,1-3.594-3.594A3.6,3.6,0,0,1,14.048,12.7Z" transform="translate(0 -2.25)" fill="#e8e6f1"/>
</svg>
