<svg xmlns="http://www.w3.org/2000/svg" width="23" height="23" viewBox="0 0 23 23">
  <path id="Icon_material-my-location" data-name="Icon material-my-location" d="M13,8.818A4.182,4.182,0,1,0,17.182,13,4.181,4.181,0,0,0,13,8.818Zm9.346,3.136a9.4,9.4,0,0,0-8.3-8.3V1.5H11.955V3.654a9.4,9.4,0,0,0-8.3,8.3H1.5v2.091H3.654a9.4,9.4,0,0,0,8.3,8.3V24.5h2.091V22.346a9.4,9.4,0,0,0,8.3-8.3H24.5V11.955ZM13,20.318A7.318,7.318,0,1,1,20.318,13,7.313,7.313,0,0,1,13,20.318Z" transform="translate(-1.5 -1.5)" fill="#dfbd8d"/>
</svg>
