<svg xmlns="http://www.w3.org/2000/svg" xmlns:xlink="http://www.w3.org/1999/xlink" width="37.1" height="32.978" viewBox="0 0 37.1 32.978">
  <defs>
    <clipPath id="clip-path">
      <rect width="37.1" height="32.978" fill="none"/>
    </clipPath>
  </defs>
  <g id="Repeat_Grid_1" data-name="Repeat Grid 1" clip-path="url(#clip-path)">
    <g transform="translate(-100 -481)">
      <path id="Icon_awesome-map-marked" data-name="Icon awesome-map-marked" d="M18.55,0a8.116,8.116,0,0,0-8.116,8.116c0,3.624,5.3,10.228,7.336,12.626a1.016,1.016,0,0,0,1.559,0c2.032-2.4,7.336-9,7.336-12.626A8.116,8.116,0,0,0,18.55,0ZM1.3,13.909A2.062,2.062,0,0,0,0,15.823V31.946a1.031,1.031,0,0,0,1.413.957l8.892-4.048V13.843a19.506,19.506,0,0,1-1.369-2.99ZM18.55,23.166A3.078,3.078,0,0,1,16.2,22.074c-1.266-1.494-2.613-3.2-3.832-4.942V28.855l12.367,4.122V17.133c-1.219,1.745-2.565,3.447-3.832,4.942A3.079,3.079,0,0,1,18.55,23.166ZM35.687,10.38l-8.892,4.048v18.55l9.01-3.6a2.061,2.061,0,0,0,1.3-1.914V11.338A1.031,1.031,0,0,0,35.687,10.38Z" transform="translate(100 481)" fill="#fff"/>
    </g>
  </g>
</svg>
