<svg xmlns="http://www.w3.org/2000/svg" width="34.842" height="27.107" viewBox="0 0 34.842 27.107">
  <g id="mastercard-2-logo-svgrepo-com" transform="translate(0 0.001)">
    <path id="Path_10501" data-name="Path 10501" d="M135.907,1320.894v.07h.065a.07.07,0,0,0,.035-.009.031.031,0,0,0,.013-.027.03.03,0,0,0-.013-.026.06.06,0,0,0-.035-.009h-.065Zm.066-.049a.119.119,0,0,1,.078.023.075.075,0,0,1,.027.062.07.07,0,0,1-.022.054.107.107,0,0,1-.062.026l.087.1h-.067l-.08-.1h-.026v.1h-.056v-.263h.122Zm-.017.354a.21.21,0,0,0,.086-.017.226.226,0,0,0,.07-.047.221.221,0,0,0,.047-.07.221.221,0,0,0-.117-.289.221.221,0,0,0-.086-.016.229.229,0,0,0-.087.016.222.222,0,0,0-.071.047.225.225,0,0,0-.047.244.21.21,0,0,0,.047.07.226.226,0,0,0,.071.047.22.22,0,0,0,.087.017m0-.505a.291.291,0,0,1,.2.084.281.281,0,0,1,.062.311.294.294,0,0,1-.062.09.313.313,0,0,1-.092.061.283.283,0,0,1-.113.023.289.289,0,0,1-.114-.023.273.273,0,0,1-.153-.154.281.281,0,0,1,.062-.311.271.271,0,0,1,.092-.061.289.289,0,0,1,.114-.023m-26.673-1.015a.866.866,0,1,1,.867.915.858.858,0,0,1-.867-.915m2.315,0v-1.43h-.622v.348a1.084,1.084,0,0,0-.9-.419,1.5,1.5,0,0,0,0,3,1.084,1.084,0,0,0,.9-.419v.347h.621v-1.43Zm21.006,0a.866.866,0,1,1,.867.915.858.858,0,0,1-.867-.915m2.315,0V1317.1H134.3v1.5a1.084,1.084,0,0,0-.9-.419,1.5,1.5,0,0,0,0,3,1.084,1.084,0,0,0,.9-.419v.347h.622Zm-15.605-.945a.71.71,0,0,1,.724.693h-1.483a.736.736,0,0,1,.76-.693m.012-.557a1.5,1.5,0,0,0,.042,3,1.736,1.736,0,0,0,1.172-.4l-.3-.461a1.363,1.363,0,0,1-.832.3.794.794,0,0,1-.855-.7h2.123c.006-.077.012-.155.012-.239a1.371,1.371,0,0,0-1.358-1.5m7.506,1.5a.866.866,0,1,1,.867.915.858.858,0,0,1-.867-.915m2.315,0v-1.429h-.621v.348a1.085,1.085,0,0,0-.9-.419,1.5,1.5,0,0,0,0,3,1.085,1.085,0,0,0,.9-.419v.347h.622v-1.43Zm-5.825,0a1.444,1.444,0,0,0,1.525,1.5,1.494,1.494,0,0,0,1.028-.341l-.3-.5a1.257,1.257,0,0,1-.749.257.917.917,0,0,1,0-1.831,1.261,1.261,0,0,1,.749.257l.3-.5a1.5,1.5,0,0,0-1.028-.341,1.444,1.444,0,0,0-1.525,1.5m8.014-1.5a.844.844,0,0,0-.754.419v-.347h-.616v2.859h.622v-1.6c0-.473.2-.736.61-.736a1.009,1.009,0,0,1,.389.072l.192-.586a1.324,1.324,0,0,0-.443-.078m-16.664.3a2.138,2.138,0,0,0-1.166-.3c-.724,0-1.191.347-1.191.915,0,.466.347.754.986.844l.294.042c.341.048.5.138.5.3,0,.221-.226.347-.652.347a1.523,1.523,0,0,1-.951-.3l-.292.485a2.062,2.062,0,0,0,1.238.371c.826,0,1.3-.389,1.3-.933,0-.5-.377-.765-1-.855l-.293-.042c-.269-.035-.485-.089-.485-.281,0-.209.2-.335.544-.335a1.843,1.843,0,0,1,.891.245l.269-.5Zm8.022-.3a.842.842,0,0,0-.753.419v-.348h-.616v2.859h.622v-1.6c0-.473.2-.736.61-.736a1.009,1.009,0,0,1,.389.072l.192-.586a1.324,1.324,0,0,0-.443-.078m-5.3.072h-1.017v-.867h-.628v.867h-.58v.568h.58v1.3c0,.663.257,1.058.993,1.058a1.459,1.459,0,0,0,.778-.221l-.18-.532a1.15,1.15,0,0,1-.55.162c-.311,0-.412-.191-.412-.479v-1.292h1.017Zm-9.295,2.859v-1.794a1.064,1.064,0,0,0-1.125-1.136,1.107,1.107,0,0,0-1,.509,1.049,1.049,0,0,0-.945-.509.946.946,0,0,0-.837.425v-.353h-.622v2.859h.627v-1.585a.669.669,0,0,1,.7-.76c.413,0,.622.269.622.754v1.591h.628v-1.585a.674.674,0,0,1,.7-.76c.424,0,.627.269.627.754v1.591Z" transform="translate(-101.756 -1294.158)" fill="#231f20"/>
    <path id="Path_10502" data-name="Path 10502" d="M1929.757,977.638v-.418h-.109l-.126.287-.125-.287h-.109v.418h.077v-.315l.118.272h.08l.118-.272v.316h.077Zm-.69,0v-.346h.139v-.071h-.356v.071h.139v.346h.077Z" transform="translate(-1895.252 -960.199)" fill="#f79410"/>
    <path id="Path_10503" data-name="Path 10503" d="M739.131,149.081H729.71V132.15h9.421Z" transform="translate(-716.999 -129.849)" fill="#ff5f00"/>
    <path id="Path_10504" data-name="Path 10504" d="M13.308,10.767A10.75,10.75,0,0,1,17.42,2.3a10.768,10.768,0,1,0,0,16.931,10.75,10.75,0,0,1-4.112-8.466" transform="translate(0 0)" fill="#eb001b"/>
    <path id="Path_10505" data-name="Path 10505" d="M1017.531,10.767a10.767,10.767,0,0,1-17.421,8.466,10.769,10.769,0,0,0,0-16.931,10.767,10.767,0,0,1,17.421,8.466" transform="translate(-982.689 0)" fill="#f79e1b"/>
  </g>
</svg>
