<svg xmlns="http://www.w3.org/2000/svg" xmlns:xlink="http://www.w3.org/1999/xlink" width="181.802" height="184.595" viewBox="0 0 181.802 184.595">
  <defs>
    <clipPath id="clip-path">
      <path id="Path_5478" data-name="Path 5478" d="M266.631,209.752a.6.6,0,0,0,0-.088,10.161,10.161,0,0,0-.492-3.144,36.707,36.707,0,0,0-.9-3.759,8.846,8.846,0,0,0-4.01-5.324,3.311,3.311,0,0,0-.4-.246.361.361,0,0,0-.088-.053l-.092-.048c-2.506-1.381-5.324-.734-7.474.246a6.973,6.973,0,0,0-2.7,2.163,10.794,10.794,0,0,0-1.952,3.456,10.3,10.3,0,0,0-1.495,11.084,14.839,14.839,0,0,0,.127,1.592c0,.07.106.057.106,0v-1.112a8.326,8.326,0,0,0,.44.712v.545c0,.255.378.532,1.02.809a10.306,10.306,0,0,0,15.472-.237,10.381,10.381,0,0,0,1.8-1.073c.277-.207.365-1.319.286-2.875a8.489,8.489,0,0,0,.246-1.112c.123,1.156.22,2.317.312,3.478,0,.084.132.075.132,0A49.751,49.751,0,0,0,266.631,209.752Zm-3.416-10.275c-.092-.136-.194-.268-.29-.4a10.741,10.741,0,0,1,2.317,4.63c.114.44.22.906.317,1.359a10.286,10.286,0,0,0-.563-.98h0A15.7,15.7,0,0,0,263.215,199.477Z" transform="translate(-246.05 -196.297)" fill="none"/>
    </clipPath>
    <clipPath id="clip-path-2">
      <path id="Path_5500" data-name="Path 5500" d="M276.6,133.426a10.306,10.306,0,1,1-15.551-8.868c.479-1.539,1.719-3,4.485-3.7,5.412-1.35,6.6,2.554,6.727,2.977h0a15.015,15.015,0,0,1,.479,1.53A10.253,10.253,0,0,1,276.6,133.426Z" transform="translate(-255.987 -120.578)" fill="none"/>
    </clipPath>
  </defs>
  <g id="Online_Review-cuate" data-name="Online Review-cuate" transform="translate(-42.723 -41.3)">
    <g id="freepik--background-complete--inject-5" transform="translate(58.852 61.102)">
      <circle id="Ellipse_482" data-name="Ellipse 482" cx="15.652" cy="15.652" r="15.652" transform="translate(0 36.428) rotate(-80.52)" fill="#c7c7c7"/>
      <circle id="Ellipse_483" data-name="Ellipse 483" cx="14.936" cy="14.936" r="14.936" transform="translate(3.796 8.974)" fill="#a6a6a6"/>
      <circle id="Ellipse_484" data-name="Ellipse 484" cx="13.995" cy="13.995" r="13.995" transform="translate(4.737 9.915)" fill="#fff"/>
      <rect id="Rectangle_1622" data-name="Rectangle 1622" width="0.268" height="2.119" transform="translate(18.595 10.935)" fill="#dbdbdb"/>
      <rect id="Rectangle_1623" data-name="Rectangle 1623" width="0.273" height="2.119" transform="translate(12.128 12.738) rotate(-30)" fill="#dbdbdb"/>
      <rect id="Rectangle_1624" data-name="Rectangle 1624" width="0.268" height="2.119" transform="translate(7.421 17.538) rotate(-60)" fill="#dbdbdb"/>
      <rect id="Rectangle_1625" data-name="Rectangle 1625" width="2.119" height="0.273" transform="translate(5.752 23.774)" fill="#dbdbdb"/>
      <rect id="Rectangle_1626" data-name="Rectangle 1626" width="2.119" height="0.268" transform="translate(7.429 30.278) rotate(-30.01)" fill="#dbdbdb"/>
      <rect id="Rectangle_1627" data-name="Rectangle 1627" width="2.119" height="0.273" transform="translate(12.127 35.086) rotate(-60.03)" fill="#dbdbdb"/>
      <rect id="Rectangle_1628" data-name="Rectangle 1628" width="0.268" height="2.119" transform="translate(18.595 34.765)" fill="#dbdbdb"/>
      <rect id="Rectangle_1629" data-name="Rectangle 1629" width="0.273" height="2.119" transform="translate(24.039 33.377) rotate(-30)" fill="#dbdbdb"/>
      <rect id="Rectangle_1630" data-name="Rectangle 1630" width="0.268" height="2.119" transform="translate(28.061 29.449) rotate(-60)" fill="#dbdbdb"/>
      <rect id="Rectangle_1631" data-name="Rectangle 1631" width="2.119" height="0.273" transform="translate(29.587 23.774)" fill="#dbdbdb"/>
      <rect id="Rectangle_1632" data-name="Rectangle 1632" width="2.119" height="0.268" transform="translate(28.063 18.37) rotate(-30)" fill="#dbdbdb"/>
      <rect id="Rectangle_1633" data-name="Rectangle 1633" width="2.119" height="0.273" transform="translate(24.042 14.444) rotate(-60.03)" fill="#dbdbdb"/>
      <rect id="Rectangle_1634" data-name="Rectangle 1634" width="13.542" height="0.268" transform="translate(14.706 31.52) rotate(-63.03)" fill="#dbdbdb"/>
      <rect id="Rectangle_1635" data-name="Rectangle 1635" width="0.361" height="13.335" transform="translate(17.606 19.188) rotate(-11.32)" fill="#263238"/>
      <g id="freepik--xsrjP0--inject-5" transform="translate(52.142 0)">
        <path id="Path_5364" data-name="Path 5364" d="M211.17,100.2c-.343-.215-.638-.528-1.1-.484-.176,0-.136-.128-.136-.224V94.315a.281.281,0,0,1,.145-.3c1.319-.664,1.886-1.97,2.7-3.078a5.149,5.149,0,0,0,.954-3.913c-.053-.391.127-.563.479-.642a.879.879,0,0,1,.98.308,6.928,6.928,0,0,1,.756,2.26,8.076,8.076,0,0,1-.242,1.939c-.062.475-.171.945-.259,1.425.114.084.251.04.374.04h4.37c.616,0,.915.176,1,.58a1.174,1.174,0,0,1-.638,1.266c-.106.053-.3,0-.317.176s.189.154.29.224c.528.365.44,1.108-.18,1.539-.15.106-.44.057-.44.273s.264.171.383.29a.974.974,0,0,1-.44,1.526,2.537,2.537,0,0,0-.255.1c-.075.048-.145.106,0,.2a.865.865,0,0,1,0,1.539l-.189.136a1.249,1.249,0,0,1-.769.167h-6.854A.8.8,0,0,1,211.17,100.2Z" transform="translate(-204.684 -86.338)" fill="#dbdbdb" fill-rule="evenodd"/>
        <path id="Path_5365" data-name="Path 5365" d="M198,106.328V103.04c0-.22,0-.33.295-.33h4.01c.264,0,.3.088.3.321v6.6c0,.277-.075.361-.356.352h-3.887c-.325,0-.369-.11-.365-.391Z" transform="translate(-197.999 -95.512)" fill="#dbdbdb" fill-rule="evenodd"/>
      </g>
      <g id="freepik--xsrjp0--inject-5-2" data-name="freepik--xsrjp0--inject-5" transform="translate(143.036 59.839)">
        <path id="Path_5366" data-name="Path 5366" d="M414.765,223.642c.343.215.642.528,1.1.484.176,0,.136.128.141.224v5.175c0,.123,0,.229-.141.3-1.319.664-1.891,1.97-2.7,3.078a5.166,5.166,0,0,0-.954,3.913c.057.391-.127.563-.475.642a.879.879,0,0,1-.985-.308,6.923,6.923,0,0,1-.752-2.26,8.072,8.072,0,0,1,.237-1.939c.062-.475.172-.941.264-1.425-.119-.083-.251-.04-.374-.04h-4.375c-.616,0-.915-.176-1-.58a1.17,1.17,0,0,1,.633-1.266c.11-.053.308,0,.321-.176s-.193-.154-.29-.224c-.528-.365-.44-1.108.18-1.539.145-.106.44-.057.44-.273s-.259-.171-.383-.29a.976.976,0,0,1,.44-1.526,1.918,1.918,0,0,0,.255-.1c.075-.048.145-.105,0-.2a.868.868,0,0,1,0-1.539l.189-.136a1.248,1.248,0,0,1,.769-.167h6.854a.8.8,0,0,1,.6.171Z" transform="translate(-404.734 -223.013)" fill="#dbdbdb" fill-rule="evenodd"/>
        <path id="Path_5367" data-name="Path 5367" d="M436.458,226.111V229.4c0,.22,0,.33-.295.33q-2-.026-4.01,0c-.264,0-.3-.088-.3-.321v-6.617c0-.277.075-.356.356-.352H436.1c.321,0,.365.11.365.391C436.449,223.917,436.458,225.012,436.458,226.111Z" transform="translate(-419.928 -222.44)" fill="#dbdbdb" fill-rule="evenodd"/>
      </g>
      <path id="Path_5368" data-name="Path 5368" d="M291.81,284.69v60.371H328.3V284.69Zm33.173,38.08H295.121V307.06h29.862Zm0-19.451H295.121V287.609h29.862Z" transform="translate(-198.423 -197.481)" fill="#ebebeb"/>
      <rect id="Rectangle_1636" data-name="Rectangle 1636" width="14.588" height="60.349" transform="translate(129.871 87.209)" fill="#dbdbdb"/>
      <rect id="Rectangle_1637" data-name="Rectangle 1637" width="7.096" height="15.709" transform="translate(96.702 90.124)" fill="#dbdbdb"/>
      <path id="Path_5369" data-name="Path 5369" d="M329.383,394.195H299.27V378.78h30.113Zm-29.673-.44h29.234V379.22H299.71Z" transform="translate(-202.603 -250.202)" fill="#dbdbdb"/>
      <rect id="Rectangle_1638" data-name="Rectangle 1638" width="5.892" height="2.981" transform="translate(107.531 133.009)" fill="#dbdbdb"/>
      <path id="Path_5370" data-name="Path 5370" d="M333.776,391.842H327.44V388.87h6.336Zm-5.9-.44h5.456V389.31H327.88Z" transform="translate(-218.387 -255.856)" fill="#dbdbdb"/>
      <rect id="Rectangle_1639" data-name="Rectangle 1639" width="7.096" height="15.709" transform="translate(96.702 109.579)" fill="#dbdbdb"/>
    </g>
    <g id="freepik--Floor--inject-5" transform="translate(59.337 208.374)">
      <path id="Path_5371" data-name="Path 5371" d="M80.51,421.515l19.539-.106,19.535-.04,39.078-.07,39.073.07,19.539.04,19.539.106-19.539.11-19.539.04-39.073.07-39.078-.07-19.535-.04Z" transform="translate(-80.51 -421.3)" fill="#263238"/>
    </g>
    <g id="freepik--Shadows--inject-5" transform="translate(45.821 211.729)">
      <ellipse id="Ellipse_485" data-name="Ellipse 485" cx="62.402" cy="7.083" rx="62.402" ry="7.083" transform="translate(0)" fill="#ebebeb"/>
      <ellipse id="Ellipse_486" data-name="Ellipse 486" cx="31.173" cy="4.071" rx="31.173" ry="4.071" transform="translate(116.358 3.012)" fill="#ebebeb"/>
    </g>
    <g id="freepik--Puff--inject-5" transform="translate(42.723 127.246)">
      <path id="Path_5372" data-name="Path 5372" d="M61.047,328.033l72.106.312c17.525-13.766,19.345-34.158,6.832-46.517-7.567-7.474-17.178-5.966-26.327-7.158h-.026a26.933,26.933,0,0,1-9.281-2.722c-9.422-4.973-14.733-16.707-22.661-26.56-.989-1.236-2.022-2.44-3.1-3.6-6.52-6.96-19.495-7.189-26.279,2.6C35.072,269.249,42.972,306.256,61.047,328.033Z" transform="translate(-42.723 -236.779)" fill="#dbdbdb"/>
      <path id="Path_5373" data-name="Path 5373" d="M80.619,279.873c1.891,29.585,36.053,40.63,57.4,31.766,18.554-7.707,12.482-25.294-3.179-28.24H134.8a26.933,26.933,0,0,1-9.281-2.722c-9.422-4.973-14.733-16.707-22.661-26.56C91.061,247.979,79.234,258.21,80.619,279.873Z" transform="translate(-63.895 -245.508)" fill="#c7c7c7"/>
    </g>
    <g id="freepik--Character--inject-5" transform="translate(66.343 109.429)">
      <path id="Path_5374" data-name="Path 5374" d="M186.5,385.718c-1-.365-23.549-18.391-23.975-19.622-.167-.466,2.269-3.9,5.329-7.976.659-.879,1.345-1.759,2.049-2.7,4.559-5.94,9.532-12.135,9.532-12.135l15.12,12.016-9.945,11.8-2.2,2.594s5.549,10.763,5.87,12.161S187.5,386.083,186.5,385.718Z" transform="translate(-133.469 -278.643)" fill="#ad6359"/>
      <path id="Path_5375" data-name="Path 5375" d="M186.505,401.183c-1-.365-23.549-18.391-23.975-19.622-.2-.567,3.434-5.527,7.378-10.671l14.707,11.682-2.2,2.594s5.549,10.763,5.87,12.161S187.5,401.548,186.505,401.183Z" transform="translate(-133.47 -294.109)" fill="#fff"/>
      <path id="Path_5376" data-name="Path 5376" d="M186.5,404.618c-1-.365-23.549-18.391-23.975-19.622-.167-.466,2.269-3.9,5.329-7.976L182.429,388.6s5.549,10.763,5.87,12.161S187.5,404.983,186.5,404.618Z" transform="translate(-133.469 -297.543)" fill="#ffc727"/>
      <path id="Path_5377" data-name="Path 5377" d="M188.823,414.042c-3.706-3.113-18.95-15.327-22.863-18.123-.035-.022-.048,0,0,.026,3.605,3.166,18.95,15.252,22.819,18.158C188.845,414.165,188.889,414.108,188.823,414.042Z" transform="translate(-135.378 -308.128)" fill="#263238"/>
      <path id="Path_5378" data-name="Path 5378" d="M212.376,425.378a3.882,3.882,0,0,0-3-.879,3.741,3.741,0,0,0-2.458,1.345c0,.022.022.057.044.035a4.493,4.493,0,0,1,5.373-.44.037.037,0,0,0,.04-.062Z" transform="translate(-158.347 -324.129)" fill="#263238"/>
      <path id="Path_5379" data-name="Path 5379" d="M203.253,404.65a6.759,6.759,0,0,0-5.61-1.614c-.075.022-.044.127,0,.141a26.84,26.84,0,0,1,5.47,1.68.125.125,0,0,0,.141-.207Z" transform="translate(-153.123 -312.045)" fill="#263238"/>
      <path id="Path_5380" data-name="Path 5380" d="M205.078,407.77a6.746,6.746,0,0,0-5.606-1.614c-.075.022-.044.128,0,.141a26.925,26.925,0,0,1,5.483,1.7.128.128,0,1,0,.123-.224Z" transform="translate(-154.149 -313.793)" fill="#263238"/>
      <path id="Path_5381" data-name="Path 5381" d="M206.906,410.97a6.746,6.746,0,0,0-5.606-1.614c-.075,0-.048.127,0,.136a27.1,27.1,0,0,1,5.465,1.684.125.125,0,0,0,.141-.207Z" transform="translate(-155.172 -315.586)" fill="#263238"/>
      <path id="Path_5382" data-name="Path 5382" d="M208.736,414.13a6.746,6.746,0,0,0-5.606-1.614c-.075,0-.048.123,0,.136a26.821,26.821,0,0,1,5.465,1.684.125.125,0,1,0,.141-.207Z" transform="translate(-156.198 -317.357)" fill="#263238"/>
      <path id="Path_5383" data-name="Path 5383" d="M171.239,389.034a1.687,1.687,0,0,0-2.1,2.638A1.687,1.687,0,0,0,171.239,389.034Z" transform="translate(-136.823 -304.066)" fill="#263238"/>
      <path id="Path_5384" data-name="Path 5384" d="M212.321,399.093c-.255-1.249-1.719-1.4-2.717-1.117a10.173,10.173,0,0,0-4.467,2.77.053.053,0,0,0,0,.084.233.233,0,0,0,.176.339,17.133,17.133,0,0,0,5.1.044C211.4,401,212.567,400.271,212.321,399.093Zm-4.423,1.732c-.827-.035-1.644-.114-2.467-.123.879-.536,1.715-1.108,2.638-1.561a11.251,11.251,0,0,1,1.367-.576c.73-.237,3.227-.317,2.062,1.451C210.861,401,208.878,400.869,207.9,400.825Z" transform="translate(-157.333 -309.218)" fill="#263238"/>
      <path id="Path_5385" data-name="Path 5385" d="M194.517,394.752a16.892,16.892,0,0,0,4.269,2.8.233.233,0,0,0,.334-.185c.031,0,.062,0,.057-.057A10.143,10.143,0,0,0,197,392.518c-.673-.791-1.97-1.477-2.88-.585S193.84,394.018,194.517,394.752Zm-.224-1.592c0-2.119,2.044-.664,2.519-.066a10.615,10.615,0,0,1,.813,1.244,26.558,26.558,0,0,1,1.319,2.766c-.69-.44-1.411-.844-2.119-1.271C196.012,395.323,194.284,394.325,194.293,393.16Z" transform="translate(-150.921 -305.664)" fill="#263238"/>
      <path id="Path_5386" data-name="Path 5386" d="M184.82,300.513c-.026,2.26-2.286,6.384-5.382,10.992a273.323,273.323,0,0,1-17.253,22.142l-.51.589-16.013-12.311.185-.237,14.1-18.466-42.068-.246,15.973-12.421a6.584,6.584,0,0,0,3.988.352c9.286-1.359,30.218-4.366,35.152-4.168C179.359,287.011,184.916,293.241,184.82,300.513Z" transform="translate(-108.455 -246.95)" fill="#455a64"/>
      <path id="Path_5387" data-name="Path 5387" d="M215.081,332.539a273.315,273.315,0,0,1-17.253,22.142L181.49,342.726l14.1-18.466Z" transform="translate(-144.098 -267.98)" fill="#263238"/>
      <path id="Path_5388" data-name="Path 5388" d="M217.754,308.631a18.754,18.754,0,0,0-1.455,1.864l-1.5,1.952v.022c.088-.193.176-.387.268-.576.312-.651.563-1.319.936-1.943.022-.04-.035-.075-.057-.035-.383.616-.827,1.2-1.152,1.855-.154.3-.3.615-.44.928-.075.171-.154.347-.22.519-.031.084-.066.167-.092.255-.22.3-.44.607-.655.919-.475.686-.879,1.411-1.376,2.1-.026.035.035.07.062.035.484-.642,1.029-1.24,1.526-1.877s.98-1.319,1.451-1.987.91-1.319,1.372-1.97a20.128,20.128,0,0,0,1.385-2.027.031.031,0,0,0-.053-.031Z" transform="translate(-161.197 -259.214)" fill="#263238"/>
      <path id="Path_5389" data-name="Path 5389" d="M130,248.908c2.981,3.671,13.806,14.166,20.563,15.705,3.724.849,21.72,3.368,24.182,1.121,2.893-2.638,1.552-12.535-.747-12.627-7.008-.277-19.979,1.095-23.219.383-1.469-.325-9.233-5.338-17.534-9.343C130.135,242.629,127.994,246.411,130,248.908Z" transform="translate(-114.81 -222.895)" fill="#ad6359"/>
      <path id="Path_5390" data-name="Path 5390" d="M170.27,251.732s-.04.383-.106,1.033a1.312,1.312,0,0,1-.031.339c-.04.374-.084.813-.132,1.3v.171q-.057.607-.132,1.293c0,.11-.026.224-.035.339-.044.418-.092.853-.136,1.3v.171c-.048.44-.092.879-.141,1.319,0,.11-.026.224-.035.334-.048.44-.1.879-.145,1.3a.461.461,0,0,1-.022.171c-.048.44-.1.879-.145,1.3l-.04.334c-.035.277-.066.55-.1.813-.022.163-.044.325-.062.484v.171q-.048.369-.092.712c-.026.2-.053.4-.075.585a2.042,2.042,0,0,1-.053.334c-.088.6-.163,1.055-.229,1.319a.631.631,0,0,1-.057.172s-.022.026-.031.026l-.224-.026-.624-.066-.339-.035-.721-.07-.572-.057h-.176l-1.293-.132-.339-.035-1.293-.132h-.176l-1.293-.136-.339-.035-1.293-.141h-.176l-1.293-.141-.339-.04-1.293-.149h-.176l-1.293-.154-.339-.04-.277-.035-1.016-.127-.176-.022-1.293-.171h-.084l-.255-.035-1.293-.185-.176-.026q-.7-.106-1.293-.211l-.339-.062c-.51-.092-.95-.18-1.293-.268l-.176-.044-.092-.026a5.448,5.448,0,0,1-1.038-.44l-.163-.084-.158-.088-.18-.1c-.4-.237-.831-.514-1.293-.835-.057-.035-.114-.079-.176-.123l-.334-.237-.462-.334-.5-.374-.339-.259-.835-.664-.215-.171-.242-.2-.176-.145-.233-.189c-.3-.251-.607-.5-.91-.765a1.929,1.929,0,0,1-.15-.128l-.246-.207-.092-.079c-.44-.369-.879-.743-1.293-1.126l-.106-.092-.07-.062-.123-.11-1.17-1.051-.273-.246-.066-.062-.308-.277c-.334-.3-.664-.611-.989-.915l-.246-.268-.237-.22-.185-.171-.879-.822-.339-.321-.163-.154-.356-.339-.778-.747-.171-.167-.387-.378-.18-.176-.721-.73-.334-.334-.242-.237-.281-.286-.048-.053a7.218,7.218,0,0,1-.725-.857c-.062-.079-.119-.163-.171-.246s-.084-.128-.123-.189a1.438,1.438,0,0,1-.106-.176,6,6,0,0,1-.585-1.293,3.286,3.286,0,0,1-.1-.339,4.331,4.331,0,0,1-.141-1.293v-.176a2.546,2.546,0,0,1,.479-1.293,2.149,2.149,0,0,1,.325-.339,1.869,1.869,0,0,1,.233-.171,1.6,1.6,0,0,1,.171-.1,2.986,2.986,0,0,1,1.3-.312h.352a6.2,6.2,0,0,1,1.09.15h0l.207.053a1.225,1.225,0,0,1,.171.044,10.076,10.076,0,0,1,1.016.334l.281.114.339.145.167.079c.224.1.44.215.695.343l.44.224.171.092,1.183.633.114.062.211.114a1.19,1.19,0,0,1,.127.07c.44.233.879.47,1.293.708l.176.1.747.44.545.308.057.031.281.158,1.293.734.176.1.523.3.308.176.44.264.339.2,1.293.739.158.092h0l.572.33.721.4.339.193,1.257.695h.035l.176.092.123.066c.44.224.813.44,1.17.6l.339.158a8.626,8.626,0,0,0,1.293.514h.066l.11.026a1.609,1.609,0,0,0,.185.031,10.5,10.5,0,0,0,1.108.022h.339c.378,0,.813,0,1.293-.04h.176l.523-.022.769-.035h.339l1.293-.07h.176l1.293-.075h.339l1.293-.079h.176l1.293-.079.339-.022,1.293-.084h.176l1.293-.088.339-.022,1.293-.088h.176l1.293-.088.339-.026,1.293-.092h.176Z" transform="translate(-113.841 -222.386)" fill="#ffc727"/>
      <path id="Path_5391" data-name="Path 5391" d="M128.789,243.2v5.615c-.062-.079-.119-.163-.171-.246v-5.276A1.594,1.594,0,0,1,128.789,243.2Zm2.928-.106v8.763l.171.167v-8.886a1.228,1.228,0,0,0-.167-.044Zm-1.631-.207v7.36l.334.334V242.89Zm3.1.7v9.673l.339.321v-9.849Zm1.631.791v10.429l.171.158V244.473Zm3.1,1.68v11.559l.07.062.105.092V246.157Zm-1.42-.778-.211-.114v11.044h.066l.273.246V245.352a1.189,1.189,0,0,0-.128-.07Zm2.946,1.631-.057-.031V258.9l.092.079.246.207V247.071Zm1.574.879v12.46l.176.145V247.907Zm3.258,1.869-.158-.092v13.067c.062.044.119.088.176.123V249.674Zm-1.789-1.007v12.8l.339.259V248.843Zm3.1,1.759V263.7h.18l.158.088V250.6Zm1.631.906v13.023l.176.044v-12.97Zm3.166,1.451h-.066v12.152l.176.026V252.774Zm-1.7-.69v12.575l.339.062V252.242Zm3.078.769v12.311h.339V252.844Zm1.631-.048v12.561l.176.022V252.8Zm3.078-.154v13.089h.176V252.642Zm-1.631.088v12.808l.339.04v-12.86Zm3.078-.171V265.9l.339.04V252.549Zm1.631-.1V266.1h.176v-13.63Zm3.1-.2v14.149h.176V252.259Zm-1.631.106v13.867l.339.035v-13.92Zm3.1-.207v14.395l.339.035V252.171Zm1.631-.11v14.672h.176v-14.68Zm3.1-.22v12.75q.044-.343.092-.712V263.7a3.731,3.731,0,0,1,.062-.484V251.828Zm-1.631.119v14.918l.339.035V251.934ZM166.5,266.8l.721.07.339.035.624.066h.255a.629.629,0,0,0,.057-.172Zm-14.509-1.631h.084l1.293.172.176.022,1.016.128h14.232a1.881,1.881,0,0,1,.053-.334Zm-6.274-1.469.158.088.163.084h22.973V263.7Zm-4.331-3.1.215.172h27.7a.461.461,0,0,1,.022-.172Zm1.886,1.469.462.334h25.4l.04-.334ZM139.425,259l.246.207a1.913,1.913,0,0,0,.149.128h29.713a2.869,2.869,0,0,1,.035-.334Zm-1.684-1.469.123.11.07.062h31.727v-.172Zm-3.4-3.1.185.171h35.455v-.171Zm1.583,1.464.308.277v.062h33.582a2.85,2.85,0,0,1,.035-.339Zm18.136-3.1-.523.022h-.176c-.479,0-.915.035-1.293.04h-.339a10.51,10.51,0,0,1-1.108-.022,1.6,1.6,0,0,1-.185-.031v-.026H132.667l.356.339h37.161c0-.119.022-.233.031-.339Zm-6.723-1.359-.176-.092H131.15l.18.176h16.184Zm-5.623-3.218H128.389a1.435,1.435,0,0,0,.106.176h13.529Zm2.576,1.477H129.523l.048.053.281.286h15.019Zm-4.907-2.8-.545-.308H127.7a3.287,3.287,0,0,0,.1.339h11.638Zm-3.1-1.715-.114-.062H127.58v.176h8.934Zm-2.761-1.433-.339-.145-.281-.114h-4.52a2.149,2.149,0,0,0-.325.339h5.632Z" transform="translate(-113.891 -222.386)" fill="#fff" opacity="0.2"/>
      <path id="Path_5392" data-name="Path 5392" d="M140.753,260.092c-4.19-3.465-8.991-8.1-11.22-10.35-3.078-3.1-2.757-7.743,1.948-6.687h0C132.76,245.174,138.339,255.577,140.753,260.092Z" transform="translate(-113.86 -222.393)" fill="#263238"/>
      <path id="Path_5393" data-name="Path 5393" d="M216.581,266.036c0-.04-.057-.053-.066,0-.2,1.02-.286,2.066-.4,3.1s-.224,2.132-.321,3.205c-.189,2.128-.413,4.274-.484,6.415a.07.07,0,0,0,.136,0c.321-2.1.492-4.238.69-6.353.1-1.046.193-2.1.268-3.148S216.594,267.1,216.581,266.036Z" transform="translate(-163.048 -235.336)" fill="#263238"/>
      <path id="Path_5394" data-name="Path 5394" d="M124.467,274.382a2.146,2.146,0,0,1-.7.224l-.176.035-.44.092-.835.149-.136.022-.2.031-1.293.207-.176.022c-.409.066-.84.128-1.293.193l-.339.048-1.293.18-.176.022-1.293.176-.339.044-1.293.167-.176.022-.523.066-.769.1h-.149a.47.47,0,0,0-.189.026l-1.293.158-.176.022-1.095.132-.2.022-.339.044-1.293.158-.176.022-1.293.15-.339.04-1.293.149-.176.022-1.293.149a2.155,2.155,0,0,0-.339.04l-1.293.141-.176.022h-.22l-1.073.114-.339.04-1.293.132-.176.022h-.062c-.479.048-.879.088-1.231.114l-.339.031-.369.026a1.356,1.356,0,0,1-.3,0,.312.312,0,0,1-.026-.172,12.352,12.352,0,0,1,.062-1.293,1.524,1.524,0,0,1,.026-.339c.035-.383.079-.813.132-1.3v-.172c.044-.4.092-.835.145-1.3l.04-.334c.048-.413.1-.849.158-1.319v-.172q.048-.343.092-.7l.079-.6a3.031,3.031,0,0,1,.044-.334c.057-.44.119-.853.18-1.3l.026-.172a.487.487,0,0,1,0-.075c.057-.4.114-.809.176-1.222a2.269,2.269,0,0,1,.048-.334c.066-.44.132-.857.2-1.3l.026-.172c.066-.44.132-.879.2-1.319a2.31,2.31,0,0,1,.057-.334c.066-.44.141-.879.211-1.3a.39.39,0,0,1,.026-.172c.075-.44.149-.879.229-1.3a1.772,1.772,0,0,1,.057-.334c.022-.11.04-.237.062-.352l.171-.945v-.031l.026-.141c.079-.44.163-.879.246-1.3a1.5,1.5,0,0,1,.066-.334c.079-.44.167-.879.251-1.319l.04-.171c.088-.44.176-.879.268-1.3.026-.114.048-.224.07-.339.1-.44.193-.879.295-1.293a.235.235,0,0,1,.031-.141c.031-.048,0-.022,0-.031.1-.44.207-.879.308-1.3l.026-.1a.946.946,0,0,1,.062-.237c.11-.44.22-.879.334-1.293a.657.657,0,0,1,.048-.176c.119-.44.242-.879.365-1.293l.106-.339c.123-.409.251-.8.378-1.169a.347.347,0,0,1,.044-.123c.018-.04.04-.119.062-.176s.044-.132.07-.193c.075-.215.154-.44.233-.62s.128-.325.193-.479.1-.229.149-.339a8.355,8.355,0,0,1,.708-1.293h0s.079-.114.119-.163a3.387,3.387,0,0,1,.22-.259l.123-.123.233-.211c.3-.264.576-.5.835-.7a.794.794,0,0,1,.1-.079l.176-.136.167-.123c.4-.3.774-.541,1.126-.761l.409-.119.07-.044a2.9,2.9,0,0,1,.6-.273,5.57,5.57,0,0,1,.624-.167h.048l.128-.026a12.346,12.346,0,0,1,1.293-.163h.339c.44,0,.879-.031,1.293,0h.176a12.065,12.065,0,0,1,1.293.079l.339.04a3.986,3.986,0,0,1,.6.11l.075.026a.966.966,0,0,1,.237.149,3.522,3.522,0,0,1,.378.365l.176.2a8.432,8.432,0,0,1,.558.73c.079.11.158.22.237.339.163.242.33.506.5.783.1.163.207.334.3.51l.035.057.066.119c.233.413.44.849.668,1.293.057.11.11.224.163.339q.211.462.4.936c.048.119.092.237.136.356l.04.106.026.07a12.986,12.986,0,0,1,.378,1.249.132.132,0,0,1,0,.044c.026.1.053.211.088.339.084.339.193.774.33,1.293a.7.7,0,0,0,.048.176c.1.391.211.822.339,1.293a1.294,1.294,0,0,0,.075.3.126.126,0,0,1,0,.04q.158.585.33,1.24v.057a.82.82,0,0,0,.044.171l.343,1.293c.026.11.057.224.088.339.11.44.224.853.339,1.3a.628.628,0,0,0,.048.171c.11.44.224.879.339,1.319l.079.3a.288.288,0,0,1,0,.031c.057.207.11.418.167.629l.171.668a.628.628,0,0,0,.048.171c.11.44.224.879.334,1.3.031.11.062.22.088.334.114.44.229.879.339,1.3a.82.82,0,0,0,.044.171c.088.343.18.686.268,1.029l.066.268c.031.11.057.224.088.334l.185.717c.048.2.1.391.149.58a.616.616,0,0,0,.044.171l.325,1.3c.031.114.057.224.088.334.11.44.22.879.321,1.3a.821.821,0,0,0,.044.172l.317,1.3h0l.079.325c.031.145.066.286.1.44.075.3.145.6.207.879l.04.171c.114.5.207.932.281,1.319.026.119.048.233.066.334A2.638,2.638,0,0,1,124.467,274.382Z" transform="translate(-96.467 -221.013)" fill="#ffc727"/>
      <path id="Path_5395" data-name="Path 5395" d="M98.948,259.332v18.431l-.176.022V260.308l.171-.945A.247.247,0,0,0,98.948,259.332Zm-1.477,9.158-.026.172c-.062.44-.123.879-.18,1.3a2.776,2.776,0,0,1-.044.334l-.092.6v7.035l.339-.031v-9.479A.486.486,0,0,0,97.471,268.49Zm3.078-16.8c-.1.44-.207.857-.308,1.3h0v24.621l.339-.04v-25.98Zm1.416-4.9a.766.766,0,0,1-.062.176c-.018.062-.031.084-.044.123v30.368l.176-.022V246.595A.929.929,0,0,1,101.965,246.8Zm2.994-4.471v34.787l.176-.022V242.18Zm-1.512,1.372c-.04.048-.079.106-.119.163V277.3a3.094,3.094,0,0,0,.339-.04V243.429q-.11.125-.207.259Zm2.981-2.392V276.94l.339-.04v-35.82Zm1.68-.708h-.048v36.154l.176-.022V240.562Zm3.051-.229v36l.176-.022V240.36Zm-1.631.04v36.154l.339-.044V240.382Zm3.078.04v35.745a.469.469,0,0,0,.189-.026h.149V240.479Zm1.631.69v34.844l.176-.022V241.327Zm3.271,5.659c-.044-.119-.088-.237-.136-.356v29.132l.176-.022V246.8Zm-1.464-3.078c-.1-.176-.2-.347-.3-.51v32.606l.339-.044V243.745Zm2.805,8.006a.127.127,0,0,0,0-.04v23.689l.339-.048V252.952l-.339-1.257Zm1.631,6.2a.281.281,0,0,0,0-.031v17.257l.176-.022V258.554c-.066-.242-.119-.453-.176-.66Zm3.17,12.4L123.57,270v4.63l.176-.035V270.75c-.031-.172-.066-.312-.1-.457Zm-1.556-6.2c-.031-.11-.057-.224-.088-.334l-.066-.268v11.37l.2-.031.136-.022V264.823ZM96.447,277.789a.312.312,0,0,0,.026.171h.655v-.026l.339-.031c.339-.026.752-.066,1.231-.114Zm.088-1.631a1.411,1.411,0,0,1-.026.339h13.568l1.095-.132.176-.022,1.293-.158a.47.47,0,0,0,.189-.026Zm.149-1.468v.171h25.474l.136-.022.835-.149Zm27.259-3.1H97.049v.172h26.943Zm.321,1.469h-27.4l-.04.334h27.51c-.018-.1-.04-.215-.066-.334Zm-.7-3.078h-26.3a2.774,2.774,0,0,1-.044.334h26.429ZM123.2,268.5H97.471l-.026.172h25.8c-.013-.07-.031-.128-.044-.185Zm-.778-3.078H97.928l-.026.172h24.569c-.018-.092-.031-.149-.044-.207Zm.369,1.469H97.7a2.109,2.109,0,0,1-.048.334h25.228c-.031-.145-.057-.255-.088-.369Zm-.791-3.1H98.188a2.123,2.123,0,0,1-.057.334h23.962c-.031-.145-.057-.259-.088-.369Zm-.378-1.469H98.447a.39.39,0,0,1-.026.172h23.272a1.5,1.5,0,0,1-.066-.207Zm-.809-3.1H98.975l-.026.141v.031H120.87a.588.588,0,0,0-.053-.207Zm.383,1.469H98.711a2.213,2.213,0,0,1-.057.334H121.31c-.048-.163-.079-.259-.11-.369Zm-.73-2.8-.079-.3h-21.1c-.026.11-.048.224-.066.334H120.47a.281.281,0,0,0,0-.066ZM120,256.14H99.577l-.04.171h20.515a.666.666,0,0,0-.062-.22Zm-.813-3.1h-18.95v.031a.235.235,0,0,1-.031.141h19.024a.99.99,0,0,0-.035-.22Zm.387,1.464H99.916a1.546,1.546,0,0,1-.07.339h19.82c-.031-.163-.062-.277-.088-.387Zm-.739-2.8c-.026-.1-.053-.2-.075-.3h-18.11a1.181,1.181,0,0,1-.062.237l-.026.1h18.29a.127.127,0,0,0-.009-.088Zm-.44-1.759H101.024a.874.874,0,0,1-.048.176h17.45c-.018-.119-.035-.176-.048-.246Zm-.831-2.994V246.8h-15.6a.766.766,0,0,1-.062.176h15.67Zm.413,1.363H101.494l-.106.339h16.659c-.035-.185-.062-.3-.088-.4Zm-1.148-3.078h-14.2c-.048.11-.1.22-.149.339h14.509a3.418,3.418,0,0,0-.171-.418Zm-.734-1.411-.035-.057h-12.6c-.04.048-.079.106-.119.163h12.812Zm-2.423-3.13-.075-.026h-5.522a5.576,5.576,0,0,0-.624.167h6.446a.968.968,0,0,0-.237-.22Zm1.35,1.442h-9.673l-.167.123L105,242.4a.793.793,0,0,0-.1.079h10.341a2.119,2.119,0,0,0-.237-.418Z" transform="translate(-96.444 -220.969)" fill="#fff" opacity="0.2"/>
      <path id="Path_5396" data-name="Path 5396" d="M120.385,279.524c-4.146.532-8.705,1.068-12.1,1.438l.629-31.5a7.486,7.486,0,0,1,1.521-2.669l.233-.211Z" transform="translate(-103.082 -224.454)" fill="#263238"/>
      <path id="Path_5397" data-name="Path 5397" d="M140.361,276.968q-.317-1.464-.638-2.928-.646-2.928-1.319-5.852-1.359-5.9-2.88-11.752c-.563-2.2-1.165-4.37-1.719-6.564a.035.035,0,0,0-.066,0c1.016,3.887,1.9,7.809,2.81,11.722s1.8,7.791,2.673,11.7l.725,3.284c.242,1.108.44,2.251.756,3.333.035.123.251.1.233-.035C140.823,278.933,140.568,277.935,140.361,276.968Z" transform="translate(-117.342 -226.285)" fill="#263238"/>
      <path id="Path_5398" data-name="Path 5398" d="M127.426,237.932c-1.627.224-4.133-2.471-5.025-4.546a32.721,32.721,0,0,1,.62-3.275c.2-1.051.4-2.225.5-3.306,0-.224.739.255.739.255l1.367.475,4.533,1.565a17.312,17.312,0,0,0-1.051,4.1,2.2,2.2,0,0,0,0,.44v.075C129.172,234.582,129,237.712,127.426,237.932Z" transform="translate(-110.984 -213.339)" fill="#ad6359"/>
      <path id="Path_5399" data-name="Path 5399" d="M130.939,234.353v.075a4.292,4.292,0,0,1-.7-.031c-4.568-.536-4.59-6.4-4.59-6.4l1.8.251,4.533,1.565a17.315,17.315,0,0,0-1.051,4.1A2.2,2.2,0,0,0,130.939,234.353Z" transform="translate(-112.809 -214.043)" fill="#263238"/>
      <path id="Path_5400" data-name="Path 5400" d="M125.582,203.7c-1.218,2.2-1.4,9.325-.035,11.2,1.983,2.726,5.936,3.772,8.433,1.231,2.418-2.467,2.489-11.735.879-13.515C132.533,200,127.385,200.423,125.582,203.7Z" transform="translate(-112.218 -198.865)" fill="#ad6359"/>
      <path id="Path_5401" data-name="Path 5401" d="M139.538,220.66s-.04.022-.04.04c0,.479-.079,1.029-.519,1.174v.026C139.516,221.843,139.613,221.113,139.538,220.66Z" transform="translate(-120.278 -209.93)" fill="#263238"/>
      <path id="Path_5402" data-name="Path 5402" d="M138.49,219.486c-.769-.079-.879,1.46-.163,1.539S139.132,219.557,138.49,219.486Z" transform="translate(-119.643 -209.271)" fill="#263238"/>
      <path id="Path_5403" data-name="Path 5403" d="M146.445,221.27s.04.026.035.048c-.048.475,0,1.029.4,1.218v.026C146.348,222.47,146.326,221.714,146.445,221.27Z" transform="translate(-124.428 -210.272)" fill="#263238"/>
      <path id="Path_5404" data-name="Path 5404" d="M146.914,220.21c.774,0,.725,1.539,0,1.543S146.268,220.214,146.914,220.21Z" transform="translate(-124.435 -209.678)" fill="#263238"/>
      <path id="Path_5405" data-name="Path 5405" d="M137.48,216.453a6,6,0,0,0,.611-.167,1.015,1.015,0,0,0,.589-.29.33.33,0,0,0-.022-.4.813.813,0,0,0-.809-.141,1.187,1.187,0,0,0-.721.466.347.347,0,0,0,.352.532Z" transform="translate(-119.209 -206.985)" fill="#263238"/>
      <path id="Path_5406" data-name="Path 5406" d="M147.493,217.155c-.211-.053-.4-.132-.6-.2a1.029,1.029,0,0,1-.572-.325.325.325,0,0,1,.044-.4.822.822,0,0,1,.818-.1,1.2,1.2,0,0,1,.695.506.352.352,0,0,1-.383.514Z" transform="translate(-124.364 -207.357)" fill="#263238"/>
      <path id="Path_5407" data-name="Path 5407" d="M138.916,230.267c.106.119.211.281.383.308a1.258,1.258,0,0,0,.523-.084v.026a.651.651,0,0,1-.624.215.51.51,0,0,1-.347-.44C138.854,230.254,138.916,230.25,138.916,230.267Z" transform="translate(-120.205 -215.308)" fill="#263238"/>
      <path id="Path_5408" data-name="Path 5408" d="M139.9,221.073a1.631,1.631,0,0,0,1.033.8,2.009,2.009,0,0,0,.585.066.487.487,0,0,0,.114,0h.106a.119.119,0,0,0,.1-.1h0a.181.181,0,0,0,0-.048h0v-.057c.035-.369.035-.928.035-.928.132.075.8.44.8.237a24.491,24.491,0,0,0-.286-4.968.044.044,0,1,0-.088,0c-.079,1.534.119,3.078.066,4.617a2.868,2.868,0,0,0-.752-.29,9.83,9.83,0,0,0,0,1.253h0a2.264,2.264,0,0,1-1.644-.642C139.912,221,139.873,221.033,139.9,221.073Z" transform="translate(-120.789 -207.336)" fill="#263238"/>
      <path id="Path_5409" data-name="Path 5409" d="M134.332,202.417c-2.449,1.394-5.412-1.271-5.412-1.271a2.528,2.528,0,0,1-2.686,1.381s-.783,3.878-1.816,3.786c-1.574-.141-1.614-5.527-1.029-6.533a2.826,2.826,0,0,1,1.943-1.165,2.594,2.594,0,0,1,1.2-1.469c1.143-.734,4.757.686,4.757.686a3.474,3.474,0,0,1,1.06-1.2.976.976,0,0,1,1.389.246,2.309,2.309,0,0,0-.44.937c-.281,1.13.655,1.2.734.167a1.653,1.653,0,0,0-.277-1.1c.519-.642,1.293-.8,1.719-.4C136.235,197.207,136.367,201.261,134.332,202.417Z" transform="translate(-111.348 -196.255)" fill="#263238"/>
      <path id="Path_5410" data-name="Path 5410" d="M123.876,217.854s-1.134-2.515-2.247-2.15-.55,3.8.55,4.467a1.227,1.227,0,0,0,1.737-.343Z" transform="translate(-110.217 -207.133)" fill="#ad6359"/>
      <path id="Path_5411" data-name="Path 5411" d="M122.805,218s-.026.022,0,.031a3.1,3.1,0,0,1,1.218,2.2.677.677,0,0,0-.963-.369c-.022,0,0,.048,0,.048a.756.756,0,0,1,.769.413,3.8,3.8,0,0,1,.264.73c.026.084.167.07.154-.022h0C124.467,219.948,123.922,218.312,122.805,218Z" transform="translate(-111.208 -208.44)" fill="#263238"/>
      <path id="Path_5412" data-name="Path 5412" d="M127.56,241.062l-1.477,3.684-5.1-4.907L119.62,241.5s5.083,7.888,5.1,7.527l1.543-3.491,2.445,2.326-.365-6.006Z" transform="translate(-109.43 -220.677)" fill="#ffc727"/>
      <path id="Path_5413" data-name="Path 5413" d="M128.569,246.981c-.092-.989-.158-1.992-.3-2.977a.035.035,0,0,0-.066,0,54.657,54.657,0,0,0,.229,5.654h0c-.106-.1-2.264-2.044-2.286-2.014-.339.558-1.473,3.078-1.552,3.328-.8-1.253-4.208-6.186-5.149-7.364a.035.035,0,0,0-.057.035c.717,1.319,5.113,7.839,5.175,7.822a38.2,38.2,0,0,0,1.614-3.689,23.09,23.09,0,0,0,2.563,2.475A31.033,31.033,0,0,0,128.569,246.981Z" transform="translate(-109.3 -222.784)" fill="#263238"/>
      <path id="Path_5414" data-name="Path 5414" d="M183.41,271.038h17.855l3.372-25.268H186.787Z" transform="translate(-145.174 -224)" fill="#a6a6a6"/>
      <path id="Path_5415" data-name="Path 5415" d="M185.41,271.038h17.851l3.377-25.268H188.782Z" transform="translate(-146.294 -224)" fill="#dbdbdb"/>
      <path id="Path_5416" data-name="Path 5416" d="M209.061,269.418a1.935,1.935,0,0,1-1.891,1.737,1.565,1.565,0,0,1-1.583-1.737,1.93,1.93,0,0,1,1.886-1.759,1.57,1.57,0,0,1,1.587,1.759Z" transform="translate(-157.595 -236.265)" fill="#fff"/>
      <path id="Path_5417" data-name="Path 5417" d="M110.106,251.854c-.84,11.761,1.231,19.86,3.3,20.726,5.584,2.339,22.559,3.64,26.451,3.227,1.521-.158.519-12.772-1.117-12.75-4.054.11-18.906.233-19.1.145-1.262-.594-1.319-4.515-4.238-12.9C113.052,243.544,110.449,247.044,110.106,251.854Z" transform="translate(-103.992 -224.434)" fill="#ad6359"/>
      <path id="Path_5418" data-name="Path 5418" d="M185.2,277.048a1.825,1.825,0,0,1,0,2.08,2.691,2.691,0,0,1,1.389,1.2c.5,1-.844,2.2-.844,2.2a3.346,3.346,0,0,1,1.262,1.5c.383,1-.8,2.423-.8,2.423a2.937,2.937,0,0,1,.281,2.018c-.3,1.17-3.218,2.66-4.955,3.214s-7.175.506-8.217.6l-3.654-11.106s7.07-4.7,9.2-5.065C180.682,275.821,184.358,275.914,185.2,277.048Z" transform="translate(-137.469 -240.923)" fill="#ad6359"/>
      <path id="Path_5419" data-name="Path 5419" d="M197.252,282.769a23.468,23.468,0,0,0-5.848.681c-.044,0-.031.075,0,.066,1.926-.374,3.9-.361,5.843-.655a.048.048,0,0,0,0-.092Z" transform="translate(-149.637 -244.718)" fill="#263238"/>
      <path id="Path_5420" data-name="Path 5420" d="M199.041,290.607a5.15,5.15,0,0,0-1.319.215c-.47.11-.936.229-1.4.352-.928.251-1.855.523-2.77.822a.035.035,0,1,0,0,.066c.928-.246,1.86-.484,2.8-.69.47-.106.941-.2,1.411-.3a6.157,6.157,0,0,0,1.319-.339.066.066,0,1,0-.035-.127Z" transform="translate(-150.829 -249.122)" fill="#263238"/>
      <path id="Path_5421" data-name="Path 5421" d="M200.832,299.86a3.561,3.561,0,0,0-1.2.259l-1.266.361c-.849.237-1.693.47-2.546.677-.044,0-.031.079,0,.066.879-.2,1.759-.4,2.6-.611.44-.1.853-.211,1.279-.321a3.329,3.329,0,0,0,1.126-.391S200.854,299.86,200.832,299.86Z" transform="translate(-152.114 -254.308)" fill="#263238"/>
      <path id="Path_5422" data-name="Path 5422" d="M136.677,262.141V276.3l-1.126-.057h-.717l-.915-.048h-.176l-1.293-.084h-.339l-1.293-.088h-.176l-1.293-.1-.339-.026-1.293-.11h-.176l-1.293-.119-.339-.035-1.293-.136h-.176c-.44-.044-.879-.1-1.293-.145l-.339-.04-1.293-.167-.171-.136-.629-.088-.664-.1-.339-.053-.123-.022c-.4-.062-.787-.128-1.17-.2l-.176-.031c-.44-.079-.879-.163-1.293-.251l-.339-.075c-.44-.1-.879-.2-1.293-.312l-.176-.048q-.673-.185-1.227-.383l-.066-.022-.339-.132c-.141-.062-.277-.119-.4-.18a3.817,3.817,0,0,1-.879-.55l-.044-.04-.132-.136a3.6,3.6,0,0,1-.44-.572c-.035-.053-.066-.11-.1-.172a8.549,8.549,0,0,1-.6-1.3l-.119-.334-.04-.123c-.119-.352-.233-.73-.339-1.13v-.044l-.04-.171c-.11-.413-.207-.849-.3-1.319a2.337,2.337,0,0,0-.062-.334c-.088-.418-.163-.853-.233-1.3a1.171,1.171,0,0,0-.031-.172c-.066-.44-.128-.857-.185-1.3a2.9,2.9,0,0,0-.044-.334c-.053-.44-.106-.879-.149-1.3v-.171c-.044-.44-.084-.879-.119-1.3l-.026-.334c-.026-.334-.048-.668-.07-1v-.466c-.026-.44-.044-.879-.062-1.3v-.339c0-.44-.026-.879-.035-1.293V254.49c0-.44,0-.879.026-1.293v-.176c0-.44.031-.879.057-1.293v-.339c0-.211.031-.409.048-.6s.048-.475.075-.69v-.176c.04-.3.088-.576.136-.813.035-.167.07-.325.114-.479s.066-.229.1-.339a5.123,5.123,0,0,1,.6-1.293l.132-.176.11-.132a2.1,2.1,0,0,1,.339-.321,1.666,1.666,0,0,1,1.293-.378l.176.035a2.774,2.774,0,0,1,1.284.8h0c.053.053.106.105.158.167s.123.136.18.211a7.325,7.325,0,0,1,.721,1.082l.185.339c.132.259.259.536.387.835.057.141.119.286.176.44h0l.066.176c.128.347.255.717.374,1.108a.744.744,0,0,0,.057.185c.018.062.066.224.106.339l.391,1.293.053.176c.079.268.158.532.237.787.053.171.106.339.154.506s.07.229.1.339.057.176.084.264l.317,1.033a.655.655,0,0,0,.057.171c.136.44.273.879.4,1.293.04.114.075.229.106.339.145.44.281.879.413,1.271v.026a.958.958,0,0,0,.057.172l.11.325c.119.356.233.677.339.972l.127.334a7.959,7.959,0,0,0,.585,1.3,1.054,1.054,0,0,0,.136.171.185.185,0,0,0,.106.048h.339l1.293-.026h1.807l1.293-.031h.176l1.293-.031h.339l1.293-.031h.176l1.293-.031h.339l1.293-.035h.176l1.293-.035h.339l1.293-.031h.176l1.293-.035h.339Z" transform="translate(-103.519 -224.116)" fill="#ffc727"/>
      <path id="Path_5423" data-name="Path 5423" d="M108.988,250.836v8.415c-.026-.44-.044-.879-.062-1.3v-.339c0-.44-.026-.879-.035-1.293v-1.807c0-.44,0-.879.026-1.293v-.176c0-.44.031-.879.057-1.293v-.339A2.777,2.777,0,0,1,108.988,250.836ZM111.912,246v26.38l.132.136.044.04v-26.5Zm-1.631.7v22.049c.106.4.22.778.339,1.13V246.4a2.1,2.1,0,0,0-.339.321Zm3.258.308c-.053-.062-.106-.114-.158-.167v26.442l.339.132V247.235c-.057-.075-.119-.145-.18-.211Zm1.473,2.467v24.344l.176.048v-23.94c-.057-.15-.128-.295-.176-.435Zm3.166,9.932c-.022-.057-.04-.114-.057-.171s0,0,0-.026v15.3l.176.031V259.748Zm-1.442-4.568c-.031-.11-.066-.224-.1-.339s-.1-.334-.154-.506v20.185l.339.075v-19.4Zm2.845,7.716v12.2l.339.053v-12.24Zm1.631-.048v12.513l.176.026V262.523Zm3.078-.057V275.37h.176V262.461Zm-1.631.04v12.7l.339.04v-12.75Zm3.078-.075v13.111l.339.035V262.422Zm1.631-.04v13.3h.176V262.386Zm3.078-.079v13.63h.176V262.307Zm-1.464.04h-.167v13.471l.339.026V262.347Zm2.933-.079v13.779h.339V262.268Zm1.631-.04v13.924h.176V262.228Zm1.469-.04v14.043h.339V262.149ZM119.457,274.75l.123.022.339.053.664.1h15.96v-.171Zm15.243,1.469h.717l1.126.057v-.092Zm-21.72-3.1c.123.062.259.119.4.18l.339.132.066.022h22.757v-.334Zm-1.6-1.468c.035.062.066.119.1.171h25.061v-.171Zm-1.148-3.078.04.171h26.275v-.171Zm.44,1.469.119.334h25.765v-.334Zm-.8-3.1a1.721,1.721,0,0,0,.062.334h26.618v-.334Zm-.264-1.469a.339.339,0,0,0,.031.171h26.912v-.171Zm-.4-3.1v.172h10.244a1.056,1.056,0,0,1-.136-.172Zm19.675,0h0l-1.293.031h-.176l-1.293.031h-.339l-1.293.031h-.2L123,262.5h13.524v-.171Zm-19.508,1.469a2.174,2.174,0,0,0,.044.334h27.128v-.334Zm9.255-3.078h-9.576l.026.334h9.673Zm-.5-1.512h-9.18v.171h9.207A.39.39,0,0,1,118.138,259.252Zm-.985-3.1h-8.31v.172H117.2c-.022-.057-.04-.114-.062-.172Zm.44,1.464h-8.714v.339h8.793A1.216,1.216,0,0,0,117.593,257.616Zm-.958-3.1h-7.8v.339h7.914c-.04-.11-.075-.224-.11-.339Zm-.44-1.468h-7.334v.176h7.386Zm-.994-3.078h-6.111v.176h6.2Zm.5,1.468H108.94v.339h6.881a2.776,2.776,0,0,1-.128-.361Zm-1.253-3.078h-5.008c-.035.11-.07.224-.1.339h5.276Zm-1.064-1.482h-3.21l-.132.176h3.517A.651.651,0,0,0,113.381,246.879Z" transform="translate(-103.384 -224.129)" fill="#fff" opacity="0.2"/>
      <path id="Path_5424" data-name="Path 5424" d="M146.029,271.309a.145.145,0,0,0-.132-.211c-2.225-.026-4.463.092-6.687.149s-4.458.1-6.687.176c-1.253.044-3.662.154-3.684.119s-.695-2.128-.84-2.563c-.281-.849-.576-1.693-.879-2.541-.084-.246-.171-.492-.259-.734-.026-.167-.057-.334-.075-.5s-.053-.44-.079-.686a12.7,12.7,0,0,0-.224-1.35.035.035,0,0,0-.066.022,7.559,7.559,0,0,1,.141,1.407l.026.339c-.44-1.17-.545-1.376-.919-2.559a.035.035,0,1,0-.066,0c.44,1.71.677,2.445,1.214,4.133.273.853.541,1.706.827,2.559.141.413.783,2.348.989,2.735.026.048,2.286-.079,3.4-.1s2.229-.035,3.346-.062l6.687-.167c1.235-.031,2.48-.031,3.715-.1,0,.145.11.879.1.928a.034.034,0,1,0,.066,0C145.936,272.25,146.033,271.322,146.029,271.309Z" transform="translate(-112.778 -233.28)" fill="#263238"/>
      <path id="Path_5425" data-name="Path 5425" d="M165.465,285.27a.035.035,0,0,0-.07,0c-.141.98-.163,1.983-.22,2.972s-.1,2.049-.136,3.078c-.066,2.044-.167,4.1-.11,6.155a.066.066,0,1,0,.132,0c.2-2.018.251-4.063.325-6.089q.057-1.5.088-3.016C165.487,287.332,165.54,286.285,165.465,285.27Z" transform="translate(-134.809 -246.115)" fill="#263238"/>
      <path id="Path_5426" data-name="Path 5426" d="M147.225,300.7v-.655a.158.158,0,0,0,0-.1h0v-.123h-.035v.123h0v.031c-.04,1.06-.154,2.119-.2,3.179s-.066,2.132-.057,3.205c-1.209-.1-2.436-.088-3.649-.149s-2.515-.154-3.772-.255c-2.519-.2-5.034-.44-7.54-.8l-2.088-.295c-.708-.1-1.446-.154-2.141-.321-.044,0-.062.062,0,.07.638.079,1.271.255,1.9.369s1.24.22,1.864.317q1.864.3,3.742.528,3.746.466,7.518.655l2.159.092c.708.022,1.425.066,2.132.031a.127.127,0,0,0,.119-.114c0-1.112.057-2.225.07-3.337v-1.636C147.239,301.25,147.234,300.978,147.225,300.7Z" transform="translate(-113.957 -254.291)" fill="#263238"/>
      <path id="Path_5427" data-name="Path 5427" d="M222.854,262.31c1.121,1.442,3.715,3.016,4.164,4.3a1.561,1.561,0,0,1-.492,1.794s1.46.365,1.675,1.592c.11.633-.8,1.367-.8,1.367a1.855,1.855,0,0,1,1.279,1.446,1.8,1.8,0,0,1-.831,1.482s.954.844.765,1.759c-.378,1.882-7.8,3.517-9.55,1.038-.818-1.156,1.016-1.455,1.016-1.455s-2.739-.207-3.117-1.728,2.031-1.759,2.031-1.759-2.66-.22-2.889-1.838,2.2-1.521,2.2-1.521-1.895-.752-1.789-2.031c.176-2.11,4.318-.312,5.865-1.06Z" transform="translate(-163.483 -233.268)" fill="#ad6359"/>
      <path id="Path_5428" data-name="Path 5428" d="M232.571,289.81v.04a13.19,13.19,0,0,1-7.747,1.231c-.084,0-.1-.158,0-.158A26.944,26.944,0,0,0,232.571,289.81Z" transform="translate(-168.341 -248.677)" fill="#263238"/>
      <path id="Path_5429" data-name="Path 5429" d="M230.89,282.9c.026,0,.044.04,0,.053a12.346,12.346,0,0,1-8.534.818c-.1-.026-.158-.154-.04-.128A22.228,22.228,0,0,0,230.89,282.9Z" transform="translate(-166.938 -244.805)" fill="#263238"/>
      <path id="Path_5430" data-name="Path 5430" d="M220.635,276.491a17.172,17.172,0,0,0,8.314-.211c.035,0,.044.04,0,.057a11.077,11.077,0,0,1-4.511,1.007,7.567,7.567,0,0,1-3.843-.756C220.56,276.566,220.574,276.478,220.635,276.491Z" transform="translate(-165.999 -241.096)" fill="#263238"/>
      <path id="Path_5431" data-name="Path 5431" d="M295.956,382.936c-.369.994-18.466,23.492-19.7,23.914-.466.163-3.9-2.282-7.958-5.355-.879-.664-1.759-1.354-2.691-2.058-5.922-4.577-12.1-9.572-12.1-9.572l12.06-15.085,11.77,9.989,2.585,2.2s10.781-5.514,12.183-5.83S296.325,381.938,295.956,382.936Z" transform="translate(-184.453 -296.288)" fill="#ad6359"/>
      <path id="Path_5432" data-name="Path 5432" d="M311.376,390.969c-.369.994-18.466,23.492-19.7,23.914-.572.193-5.513-3.456-10.649-7.413L292.76,392.8l2.585,2.2s10.781-5.513,12.183-5.83S311.745,389.97,311.376,390.969Z" transform="translate(-199.873 -304.321)" fill="#fff"/>
      <path id="Path_5433" data-name="Path 5433" d="M314.805,390.958c-.369.994-18.466,23.491-19.7,23.914-.466.163-3.9-2.282-7.958-5.355l11.625-14.535s10.781-5.513,12.183-5.83S315.174,389.96,314.805,390.958Z" transform="translate(-203.302 -304.31)" fill="#ffc727"/>
      <path id="Path_5434" data-name="Path 5434" d="M324.228,392.36c-3.13,3.7-15.388,18.906-18.2,22.792,0,.031,0,.048.022,0,3.179-3.592,15.318-18.906,18.238-22.757C324.351,392.329,324.294,392.285,324.228,392.36Z" transform="translate(-213.882 -306.117)" fill="#263238"/>
      <path id="Path_5435" data-name="Path 5435" d="M335.649,391a3.878,3.878,0,0,0-.879,2.994,3.768,3.768,0,0,0,1.319,2.462c.022,0,.057-.022.035-.044a4.5,4.5,0,0,1-.44-5.377.031.031,0,0,0-.035-.035Z" transform="translate(-229.967 -305.376)" fill="#263238"/>
      <path id="Path_5436" data-name="Path 5436" d="M314.871,399.77a6.744,6.744,0,0,0-1.631,5.6c0,.075.128.048.141,0a26.736,26.736,0,0,1,1.7-5.461.125.125,0,1,0-.207-.141Z" transform="translate(-217.847 -310.26)" fill="#263238"/>
      <path id="Path_5437" data-name="Path 5437" d="M318.041,397.93a6.744,6.744,0,0,0-1.631,5.6c0,.075.123.048.136,0a26.742,26.742,0,0,1,1.7-5.461.125.125,0,1,0-.207-.141Z" transform="translate(-219.623 -309.229)" fill="#263238"/>
      <path id="Path_5438" data-name="Path 5438" d="M321.2,396.13a6.744,6.744,0,0,0-1.631,5.6c.022.075.128.048.141,0a26.738,26.738,0,0,1,1.7-5.461.125.125,0,1,0-.207-.141Z" transform="translate(-221.394 -308.221)" fill="#263238"/>
      <path id="Path_5439" data-name="Path 5439" d="M324.371,394.31a6.748,6.748,0,0,0-1.631,5.6c0,.075.123.048.136,0a26.82,26.82,0,0,1,1.7-5.461.125.125,0,0,0-.207-.141Z" transform="translate(-223.17 -307.201)" fill="#263238"/>
      <path id="Path_5440" data-name="Path 5440" d="M299.158,434.712a1.69,1.69,0,0,0,2.638,2.11A1.69,1.69,0,0,0,299.158,434.712Z" transform="translate(-209.819 -329.519)" fill="#263238"/>
      <path id="Path_5441" data-name="Path 5441" d="M309.416,388.719c-1.249.255-1.4,1.715-1.126,2.713a10.134,10.134,0,0,0,2.757,4.476.048.048,0,0,0,.079,0,.237.237,0,0,0,.343-.176,17.583,17.583,0,0,0,.062-5.1C311.276,389.651,310.573,388.477,309.416,388.719Zm1.715,4.432c-.04.822-.119,1.64-.128,2.467q-.841-1.28-1.552-2.638a10.939,10.939,0,0,1-.572-1.367c-.237-.73-.308-3.227,1.455-2.058.95.633.84,2.616.774,3.6Z" transform="translate(-215.083 -304.081)" fill="#263238"/>
      <path id="Path_5442" data-name="Path 5442" d="M304.942,408.741a17.025,17.025,0,0,0,2.814-4.26.233.233,0,0,0-.185-.334.053.053,0,0,0-.062-.057,10.113,10.113,0,0,0-4.8,2.159c-.791.668-1.482,1.965-.594,2.875S304.207,409.413,304.942,408.741Zm-1.592.22c-2.119-.022-.659-2.049-.053-2.519a10.626,10.626,0,0,1,1.244-.813c.879-.514,1.838-.879,2.77-1.319-.44.686-.849,1.407-1.279,2.11C305.522,407.259,304.515,408.969,303.35,408.961Z" transform="translate(-211.457 -312.711)" fill="#263238"/>
      <path id="Path_5443" data-name="Path 5443" d="M189.684,340.1l-12.553,16.936-42.358-29.388-4.085-2.836s-1.156.778-2.9,1.759a30.109,30.109,0,0,1-9.1,3.491c-5.276.778-14.039.695-18.466-5.232-3.733-4.99-1.183-14.03-1.183-14.03l6.155-.681s12.75-10.653,21.623-10.992c3.759-.149,9.233,2.7,14.3,5.676S189.684,340.1,189.684,340.1Z" transform="translate(-97.426 -253.892)" fill="#455a64"/>
      <path id="Path_5444" data-name="Path 5444" d="M155.929,346.255s-1.156.778-2.9,1.759c-3.078-3.684-9.594-10.376-9.791-10.614Z" transform="translate(-122.665 -275.343)" fill="#263238"/>
      <path id="Path_5445" data-name="Path 5445" d="M111.988,317.076c-.818.563-1.6,1.17-2.414,1.759s-1.609,1.112-2.361,1.737-1.495,1.319-2.2,2c-.347.33-.695.664-1.029,1a9.815,9.815,0,0,0-.985,1.068c-.026.035.026.079.062.057a12.38,12.38,0,0,0,1.095-.879c.383-.321.756-.651,1.139-.972.734-.624,1.482-1.231,2.2-1.86s1.4-1.319,2.124-1.93,1.583-1.319,2.387-1.943C112.019,317.089,112.005,317.062,111.988,317.076Z" transform="translate(-100.114 -263.953)" fill="#263238"/>
      <path id="Path_5446" data-name="Path 5446" d="M284.942,390.928c-.818.879-1.57,1.825-2.33,2.752s-1.521,1.869-2.273,2.809c-1.5,1.877-3.025,3.75-4.5,5.65-.813,1.046-1.614,2.1-2.37,3.183a.05.05,0,1,0,.079.062c1.622-1.781,3.078-3.68,4.6-5.557s3.007-3.772,4.48-5.676c.809-1.042,1.644-2.08,2.387-3.17a.048.048,0,0,0-.075-.053Z" transform="translate(-195.629 -305.332)" fill="#263238"/>
      <path id="Path_5447" data-name="Path 5447" d="M207.772,320.226c-1.49-1.728-7.883-6.261-11.968-8.288a.035.035,0,0,0-.031.062c4.071,2.616,10.781,7.576,11.937,8.314C207.763,320.345,207.811,320.27,207.772,320.226Z" transform="translate(-152.094 -261.076)" fill="#263238"/>
    </g>
    <g id="freepik--Stars--inject-5" transform="translate(100.705 97.903)">
      <path id="Path_5448" data-name="Path 5448" d="M178.249,224.94l1.13,2.286,2.519.365-1.825,1.781.431,2.51-2.256-1.187L176,231.882l.426-2.51-1.825-1.781,2.524-.365Z" transform="translate(-174.6 -200.802)" fill="#ffc727"/>
      <path id="Path_5449" data-name="Path 5449" d="M198.584,208.28l.813,1.715,1.816.273L199.9,211.6l.312,1.882-1.627-.888-1.631.888.312-1.882-1.315-1.332,1.82-.273Z" transform="translate(-186.563 -191.467)" fill="#ffc727"/>
      <path id="Path_5450" data-name="Path 5450" d="M185.022,183.96l.514,1.042,1.148.167-.831.809.2,1.148-1.029-.541-1.029.541.2-1.148-.831-.809,1.148-.167Z" transform="translate(-179.509 -177.84)" fill="#ffc727"/>
      <path id="Path_5451" data-name="Path 5451" d="M200.326,170.04l.387.791.875.123-.633.616.149.871-.778-.413-.783.413.149-.871-.633-.616.875-.123Z" transform="translate(-188.306 -170.04)" fill="#ffc727"/>
    </g>
    <g id="freepik--Reviews--inject-5" transform="translate(129.702 41.3)">
      <rect id="Rectangle_1640" data-name="Rectangle 1640" width="66.197" height="26.464" transform="translate(0 67.617)" fill="#ebebeb"/>
      <path id="Path_5452" data-name="Path 5452" d="M240.58,255.29v5.258l4.766-5.258Z" transform="translate(-240.567 -161.205)" fill="#ebebeb"/>
      <circle id="Ellipse_487" data-name="Ellipse 487" cx="10.301" cy="10.301" r="10.301" transform="translate(2.396 71.209)" fill="#fff"/>
      <path id="Path_5453" data-name="Path 5453" d="M306.611,206.37l.752,1.526,1.68.242-1.213,1.187.286,1.675-1.5-.791-1.5.791.286-1.675-1.213-1.187,1.68-.242Z" transform="translate(-276.204 -133.794)" fill="#ffc727"/>
      <path id="Path_5454" data-name="Path 5454" d="M321.666,206.37l.752,1.526,1.68.242-1.218,1.187.29,1.675-1.5-.791-1.5.791.286-1.675-1.218-1.187,1.684-.242Z" transform="translate(-284.637 -133.794)" fill="#c7c7c7"/>
      <path id="Path_5455" data-name="Path 5455" d="M336.721,206.37l.752,1.526,1.684.242-1.218,1.187.286,1.675-1.5-.791-1.5.791.29-1.675-1.218-1.187,1.68-.242Z" transform="translate(-293.075 -133.794)" fill="#c7c7c7"/>
      <path id="Path_5456" data-name="Path 5456" d="M351.781,206.37l.752,1.526,1.684.242L353,209.325l.286,1.675-1.5-.791-1.5.791.29-1.675-1.218-1.187,1.68-.242Z" transform="translate(-301.514 -133.794)" fill="#c7c7c7"/>
      <path id="Path_5457" data-name="Path 5457" d="M366.841,206.37l.752,1.526,1.68.242-1.214,1.187.286,1.675-1.5-.791-1.5.791.286-1.675-1.214-1.187,1.68-.242Z" transform="translate(-309.953 -133.794)" fill="#c7c7c7"/>
      <rect id="Rectangle_1641" data-name="Rectangle 1641" width="31.41" height="0.66" transform="translate(27.976 80.851)" fill="#263238"/>
      <rect id="Rectangle_1642" data-name="Rectangle 1642" width="27.976" height="0.66" transform="translate(27.976 82.86)" fill="#fff"/>
      <rect id="Rectangle_1643" data-name="Rectangle 1643" width="23.127" height="0.66" transform="translate(27.976 84.869)" fill="#fff"/>
      <rect id="Rectangle_1644" data-name="Rectangle 1644" width="25.281" height="0.66" transform="translate(27.976 86.879)" fill="#fff"/>
      <g id="Group_2786" data-name="Group 2786" transform="translate(2.418 68.148)" clip-path="url(#clip-path)">
        <path id="Path_5458" data-name="Path 5458" d="M255.172,197.35c-4.77,2.146-5.8,8.868-5.487,18.435.048,1.455,12.35,3.983,18.3-.5.958-.725-.4-12.429-2.766-15.8C262.294,195.3,258.122,196.022,255.172,197.35Z" transform="translate(-248.058 -196.307)" fill="#263238"/>
        <path id="Path_5459" data-name="Path 5459" d="M254.219,198.878a10.119,10.119,0,0,0-4.836,6.441,40.541,40.541,0,0,0-.989,5.984,23.53,23.53,0,0,0-.088,5.777.053.053,0,1,0,.105,0,49.714,49.714,0,0,1,1.121-10.781,10.777,10.777,0,0,1,4.766-7.228C254.417,199,254.329,198.825,254.219,198.878Z" transform="translate(-247.237 -197.738)" fill="#263238"/>
        <path id="Path_5460" data-name="Path 5460" d="M282.078,203.094a8.846,8.846,0,0,0-5.988-6.2v.035a9.512,9.512,0,0,1,6,7.109,67.542,67.542,0,0,1,1.578,11.058.066.066,0,1,0,.132,0A45.312,45.312,0,0,0,282.078,203.094Z" transform="translate(-262.882 -196.629)" fill="#263238"/>
        <path id="Path_5461" data-name="Path 5461" d="M254.18,245.136l.04.031c2.159,1.473,6.424,4.058,8.7,3.236a5.127,5.127,0,0,0,2.9-3.012A23.572,23.572,0,0,0,263,243.435C259.641,241.2,256.607,242.538,254.18,245.136Z" transform="translate(-250.606 -222.074)" fill="#a6a6a6"/>
        <path id="Path_5462" data-name="Path 5462" d="M261.459,234.721c.154.5,2.787,3.618,5.091,3.355.752-.084.462-4.2.462-4.2l.048-.308.668-4.326-5.2-2.88-.752-.378s-.106,1.2-.22,2.686v.211a.968.968,0,0,1-.022.246c0,.22-.04.44-.053.673s-.026.343-.031.523a3.72,3.72,0,0,1-.031.541A28.176,28.176,0,0,0,261.459,234.721Z" transform="translate(-254.635 -212.929)" fill="#f7a9a0"/>
        <path id="Path_5463" data-name="Path 5463" d="M261.74,228.666a8.794,8.794,0,0,0,5.527,4.9l.668-4.326-5.2-2.88-.752-.378S261.854,227.176,261.74,228.666Z" transform="translate(-254.842 -212.929)" fill="#263238"/>
        <path id="Path_5464" data-name="Path 5464" d="M270.477,206.268c1.2,7.589-3.205,9.167-4.836,9.427-1.482.233-6.278.594-8.261-6.828s.879-10.112,4.238-10.847S269.267,198.688,270.477,206.268Z" transform="translate(-252.033 -197.166)" fill="#f7a9a0"/>
        <path id="Path_5465" data-name="Path 5465" d="M283.444,215.23a5.13,5.13,0,0,1-.506.154.827.827,0,0,1-.55.062.273.273,0,0,1-.163-.29.682.682,0,0,1,.51-.462.985.985,0,0,1,.717,0,.295.295,0,0,1-.009.536Z" transform="translate(-266.319 -206.568)" fill="#263238"/>
        <path id="Path_5466" data-name="Path 5466" d="M272,215.646a5.237,5.237,0,0,0,.528.053.84.84,0,0,0,.55-.044.281.281,0,0,0,.1-.321.668.668,0,0,0-.589-.352,1.011,1.011,0,0,0-.7.141.295.295,0,0,0,.114.523Z" transform="translate(-260.463 -206.759)" fill="#263238"/>
        <path id="Path_5467" data-name="Path 5467" d="M274.553,220.51s-.04.031-.035.048c.075.519.075,1.126-.378,1.35v.031C274.712,221.794,274.707,220.989,274.553,220.51Z" transform="translate(-261.79 -209.864)" fill="#263238"/>
        <path id="Path_5468" data-name="Path 5468" d="M273.149,219.39c-.844.031-.721,1.715.057,1.688S273.852,219.368,273.149,219.39Z" transform="translate(-260.908 -209.237)" fill="#263238"/>
        <path id="Path_5469" data-name="Path 5469" d="M271.895,219.634c-.141.105-.273.286-.44.312s-.369-.127-.519-.29c0,0-.026,0-.026.022a.6.6,0,0,0,.514.668c.347.022.528-.277.585-.611C272.009,219.674,271.952,219.59,271.895,219.634Z" transform="translate(-259.98 -209.367)" fill="#263238"/>
        <path id="Path_5470" data-name="Path 5470" d="M282.451,219.43a.043.043,0,0,1,.044.044c0,.523.127,1.121.611,1.262v.031C282.521,220.723,282.385,219.931,282.451,219.43Z" transform="translate(-266.438 -209.259)" fill="#263238"/>
        <path id="Path_5471" data-name="Path 5471" d="M282.89,218.113c.835-.114,1.007,1.565.233,1.671S282.186,218.214,282.89,218.113Z" transform="translate(-266.442 -208.518)" fill="#263238"/>
        <path id="Path_5472" data-name="Path 5472" d="M284.172,218.071c.141.075.29.224.44.22s.3-.2.4-.391h.031c.04.321-.031.664-.334.756s-.51-.167-.62-.479C284.079,218.137,284.115,218.041,284.172,218.071Z" transform="translate(-267.363 -208.402)" fill="#263238"/>
        <path id="Path_5473" data-name="Path 5473" d="M276.225,229.56c.128.119.259.286.44.295a1.319,1.319,0,0,0,.558-.145l.022.026a.7.7,0,0,1-.655.3.55.55,0,0,1-.44-.44C276.168,229.556,276.207,229.543,276.225,229.56Z" transform="translate(-262.916 -214.931)" fill="#263238"/>
        <path id="Path_5474" data-name="Path 5474" d="M278.188,218.414s.171.769.2,1.134a5.685,5.685,0,0,0-2.278.321c-.04,0-.119-.048-.022-.119a3.223,3.223,0,0,1,2-.466c0-.1-.325-1.209-.268-1.218a3.389,3.389,0,0,1,.849.119c-.312-1.609-.879-3.161-1.17-4.77a.049.049,0,0,1,.092-.035,26.82,26.82,0,0,1,1.482,5.091C279.1,218.677,278.338,218.471,278.188,218.414Z" transform="translate(-262.857 -205.851)" fill="#263238"/>
        <path id="Path_5475" data-name="Path 5475" d="M255.294,208.283c.818-.114,2.783-2.559,2.524-6.547a27.215,27.215,0,0,1-.242,4.146c-.242.55,1.095-1.376.932-4.595a13.143,13.143,0,0,0,3.434,1.442,5.08,5.08,0,0,0,2.581.092c.1-.119-2.2-.642-2.853-1.288,0,0,4.19,1.548,6.059,1.539.215,0-.044-4-3.078-5.645s-7.259.308-8.389,1.592c0,0-1.42.321-2.809,2.576S254.406,208.411,255.294,208.283Z" transform="translate(-249.956 -196.578)" fill="#263238"/>
        <path id="Path_5476" data-name="Path 5476" d="M258.146,222.177s-1.842-2.269-2.884-1.6.44,4.049,1.759,4.432a1.319,1.319,0,0,0,1.688-.818Z" transform="translate(-251.015 -209.834)" fill="#f7a9a0"/>
        <path id="Path_5477" data-name="Path 5477" d="M256.74,222.91v.035a3.289,3.289,0,0,1,1.838,1.93.712.712,0,0,0-1.082-.119.026.026,0,0,0,.026.044.809.809,0,0,1,.879.215,4,4,0,0,1,.47.681c.048.075.189.022.154-.066h0C258.969,224.471,257.971,222.95,256.74,222.91Z" transform="translate(-252.04 -211.209)" fill="#263238"/>
      </g>
      <rect id="Rectangle_1645" data-name="Rectangle 1645" width="66.197" height="26.464" transform="translate(4.397 33.811)" fill="#ebebeb"/>
      <path id="Path_5479" data-name="Path 5479" d="M250.58,178.39v5.258l4.766-5.258Z" transform="translate(-246.17 -118.116)" fill="#ebebeb"/>
      <circle id="Ellipse_488" data-name="Ellipse 488" cx="10.301" cy="10.301" r="10.301" transform="translate(6.793 37.403)" fill="#fff"/>
      <path id="Path_5480" data-name="Path 5480" d="M316.616,130.16l.752,1.526,1.684.246-1.218,1.187.286,1.68-1.5-.8-1.508.8.29-1.68-1.218-1.187,1.684-.246Z" transform="translate(-281.807 -91.091)" fill="#ffc727"/>
      <path id="Path_5481" data-name="Path 5481" d="M331.7,130.16l.752,1.526,1.684.246-1.218,1.187.286,1.68-1.5-.8-1.508.8.286-1.68-1.218-1.187,1.684-.246Z" transform="translate(-290.257 -91.091)" fill="#ffc727"/>
      <path id="Path_5482" data-name="Path 5482" d="M346.786,130.16l.756,1.526,1.684.246-1.218,1.187.286,1.68-1.508-.8-1.5.8.286-1.68-1.218-1.187,1.684-.246Z" transform="translate(-298.712 -91.091)" fill="#ffc727"/>
      <path id="Path_5483" data-name="Path 5483" d="M361.876,130.16l.752,1.526,1.684.246-1.218,1.187.29,1.68-1.508-.8-1.508.8.29-1.68-1.218-1.187,1.684-.246Z" transform="translate(-307.168 -91.091)" fill="#c7c7c7"/>
      <path id="Path_5484" data-name="Path 5484" d="M376.96,130.16l.752,1.526,1.684.246-1.218,1.187.286,1.68-1.5-.8-1.508.8.29-1.68-1.222-1.187,1.684-.246Z" transform="translate(-315.618 -91.091)" fill="#c7c7c7"/>
      <rect id="Rectangle_1646" data-name="Rectangle 1646" width="31.41" height="0.66" transform="translate(32.373 47.04)" fill="#263238"/>
      <rect id="Rectangle_1647" data-name="Rectangle 1647" width="18.365" height="0.66" transform="translate(32.373 49.049)" fill="#fff"/>
      <rect id="Rectangle_1648" data-name="Rectangle 1648" width="27.114" height="0.66" transform="translate(32.373 51.063)" fill="#fff"/>
      <rect id="Rectangle_1649" data-name="Rectangle 1649" width="24.775" height="0.66" transform="translate(32.373 53.072)" fill="#fff"/>
      <g id="Group_2787" data-name="Group 2787" transform="translate(6.787 34.856)" clip-path="url(#clip-path-2)">
        <path id="Path_5485" data-name="Path 5485" d="M275.068,165.145l-.915,4.128L267.928,165l-1.548,2.282s4.076,5.513,8.415,5.513c2.282,0,2.726-5.228,2.726-5.228Z" transform="translate(-261.811 -145.469)" fill="#ffc727"/>
        <path id="Path_5486" data-name="Path 5486" d="M275.975,161.842c-1.671.519-4.775-1.882-6.076-3.909-.088-.141.026-1.68.079-3.557.026-1.139.031-2.409-.048-3.566,0-.237.822.141.822.141l1.526.259,5.039.879a18.468,18.468,0,0,0-.391,4.493,2.28,2.28,0,0,0,.083.475.76.76,0,0,0,0,.079C277.233,158.016,277.6,161.34,275.975,161.842Z" transform="translate(-263.764 -137.474)" fill="#eb9481"/>
        <path id="Path_5487" data-name="Path 5487" d="M277.593,157.72a.76.76,0,0,0,0,.079,4.576,4.576,0,0,1-.743.092c-4.9.229-5.94-5.949-5.94-5.949l1.939-.053,5.039.879a18.5,18.5,0,0,0-.391,4.5A2.236,2.236,0,0,0,277.593,157.72Z" transform="translate(-264.349 -138.123)" fill="#263238"/>
        <path id="Path_5488" data-name="Path 5488" d="M268.172,124.944c-.879,2.546.15,10.06,1.913,11.8,2.559,2.524,6.9,2.937,9.088-.171,2.115-3.016.58-12.781-1.407-14.377C274.842,119.84,269.5,121.185,268.172,124.944Z" transform="translate(-262.635 -120.828)" fill="#eb9481"/>
        <path id="Path_5489" data-name="Path 5489" d="M284.524,141.773c0-.022-.035.026-.031.048.084.506.092,1.095-.343,1.319v.031C284.717,143.022,284.7,142.235,284.524,141.773Z" transform="translate(-271.768 -132.451)" fill="#263238"/>
        <path id="Path_5490" data-name="Path 5490" d="M283.128,140.709c-.822.048-.668,1.688.1,1.644S283.819,140.67,283.128,140.709Z" transform="translate(-270.887 -131.858)" fill="#263238"/>
        <path id="Path_5491" data-name="Path 5491" d="M291.72,141.33a.043.043,0,0,1,.044.044c.031.51.154,1.086.633,1.213v.026C291.839,142.587,291.672,141.818,291.72,141.33Z" transform="translate(-276.005 -132.206)" fill="#263238"/>
        <path id="Path_5492" data-name="Path 5492" d="M292.124,139.989c.813-.141,1.033,1.495.281,1.622S291.443,140.117,292.124,139.989Z" transform="translate(-276.005 -131.45)" fill="#263238"/>
        <path id="Path_5493" data-name="Path 5493" d="M281.57,137.582c.215-.079.4-.189.611-.286a1.064,1.064,0,0,0,.572-.409.352.352,0,0,0-.092-.418.88.88,0,0,0-.879,0,1.271,1.271,0,0,0-.677.616.374.374,0,0,0,.466.5Z" transform="translate(-270.045 -129.417)" fill="#263238"/>
        <path id="Path_5494" data-name="Path 5494" d="M292.124,136.657a4.312,4.312,0,0,1-.668-.106,1.086,1.086,0,0,1-.664-.242.352.352,0,0,1,0-.44.879.879,0,0,1,.84-.242,1.267,1.267,0,0,1,.818.409.369.369,0,0,1-.325.62Z" transform="translate(-275.446 -128.997)" fill="#263238"/>
        <path id="Path_5495" data-name="Path 5495" d="M284.924,152.6c.132.11.268.259.44.259a1.319,1.319,0,0,0,.536-.18l.026.026a.686.686,0,0,1-.62.334.541.541,0,0,1-.44-.409C284.853,152.6,284.888,152.59,284.924,152.6Z" transform="translate(-272.167 -138.52)" fill="#263238"/>
        <path id="Path_5496" data-name="Path 5496" d="M285.57,141.955a3.983,3.983,0,0,0,2.26.361l-.141-1.218c.15.062.91.321.879.114a26.305,26.305,0,0,0-1.169-5.175.048.048,0,0,0-.092,0c.189,1.627.659,3.214.879,4.836a3.134,3.134,0,0,0-.84-.171c-.057.022.2,1.139.2,1.319a5.275,5.275,0,0,1-1.864-.251C285.478,141.717,285.434,141.84,285.57,141.955Z" transform="translate(-272.519 -129.221)" fill="#263238"/>
        <path id="Path_5497" data-name="Path 5497" d="M268.57,130.761c.642-.163,1.244-2.269,1.266-4.309,0-1.319.541-2.968,2-3.46.972-.33,2.664.47,3.636.233s1.148-.787,1.719-.774,1.209,1.425,1.209,1.425-1.02-4.445-6.74-3.016c-6.023,1.508-4.81,6.665-4.23,8.319A2.584,2.584,0,0,0,268.57,130.761Z" transform="translate(-262.118 -120.577)" fill="#263238"/>
        <path id="Path_5498" data-name="Path 5498" d="M267.569,141.411s-1.631-2.449-2.739-1.873.079,4.1,1.354,4.608a1.319,1.319,0,0,0,1.759-.664Z" transform="translate(-260.696 -131.153)" fill="#eb9481"/>
        <path id="Path_5499" data-name="Path 5499" d="M266.22,142v.035a3.349,3.349,0,0,1,1.662,2.106.725.725,0,0,0-1.077-.224.031.031,0,0,0,.026.048.8.8,0,0,1,.879.3,3.461,3.461,0,0,1,.409.725c.04.079.189.04.158-.053v-.022C268.322,143.759,267.442,142.141,266.22,142Z" transform="translate(-261.721 -132.581)" fill="#263238"/>
      </g>
      <rect id="Rectangle_1650" data-name="Rectangle 1650" width="66.197" height="26.464" transform="translate(8.793)" fill="#ebebeb"/>
      <path id="Path_5501" data-name="Path 5501" d="M260.58,101.49v5.263l4.766-5.263Z" transform="translate(-251.773 -75.026)" fill="#ebebeb"/>
      <circle id="Ellipse_489" data-name="Ellipse 489" cx="10.301" cy="10.301" r="10.301" transform="translate(11.19 3.592)" fill="#fff"/>
      <path id="Path_5502" data-name="Path 5502" d="M326.616,54.06l.752,1.526,1.684.246-1.218,1.187.286,1.68-1.5-.791-1.508.791.29-1.68-1.218-1.187,1.684-.246Z" transform="translate(-287.41 -48.45)" fill="#ffc727"/>
      <path id="Path_5503" data-name="Path 5503" d="M341.7,54.06l.752,1.526,1.684.246-1.218,1.187.286,1.68-1.5-.791-1.508.791.286-1.68-1.218-1.187,1.684-.246Z" transform="translate(-295.86 -48.45)" fill="#ffc727"/>
      <path id="Path_5504" data-name="Path 5504" d="M356.786,54.06l.756,1.526,1.684.246-1.218,1.187.286,1.68-1.508-.791-1.5.791.286-1.68-1.218-1.187,1.684-.246Z" transform="translate(-304.316 -48.45)" fill="#ffc727"/>
      <path id="Path_5505" data-name="Path 5505" d="M371.876,54.06l.752,1.526,1.684.246-1.218,1.187.29,1.68-1.508-.791-1.508.791.29-1.68-1.218-1.187,1.684-.246Z" transform="translate(-312.771 -48.45)" fill="#ffc727"/>
      <path id="Path_5506" data-name="Path 5506" d="M386.96,54.06l.752,1.526,1.684.246-1.218,1.187.286,1.68-1.5-.791-1.508.791.29-1.68-1.222-1.187,1.684-.246Z" transform="translate(-321.221 -48.45)" fill="#ffc727"/>
      <rect id="Rectangle_1651" data-name="Rectangle 1651" width="31.41" height="0.66" transform="translate(36.77 13.234)" fill="#263238"/>
      <rect id="Rectangle_1652" data-name="Rectangle 1652" width="23.368" height="0.66" transform="translate(36.77 15.243)" fill="#fff"/>
      <rect id="Rectangle_1653" data-name="Rectangle 1653" width="27.976" height="0.66" transform="translate(36.77 17.253)" fill="#fff"/>
      <rect id="Rectangle_1654" data-name="Rectangle 1654" width="12.003" height="0.66" transform="translate(36.77 19.262)" fill="#fff"/>
      <path id="Path_5507" data-name="Path 5507" d="M287.866,64.607h-.879c-.088-1.121-.8-2.836-.62-1.97a8.49,8.49,0,0,1,.114,1.97H271.6a16.173,16.173,0,0,1,.58-4.463,11.412,11.412,0,0,0-1.319,4.463h-1.4a10.443,10.443,0,0,1,.211-2.73,8.976,8.976,0,0,0-.708,2.73h-1.6a10.486,10.486,0,0,1,1.86-5.918c1.082-1.614-.255-2.554-.229-5.716a7.362,7.362,0,0,1,3.372-6.226c6.494-6.015,12.386-.44,13.014,3.539.611,3.887-.506,4.4,1.319,7.914A15.382,15.382,0,0,1,287.866,64.607Z" transform="translate(-255.572 -42.87)" fill="#263238"/>
      <path id="Path_5508" data-name="Path 5508" d="M274.18,92.093l.04.026c2.159,1.473,6.424,4.058,8.7,3.236a5.122,5.122,0,0,0,2.9-3.007A23.169,23.169,0,0,0,283,90.387C279.641,88.154,276.607,89.49,274.18,92.093Z" transform="translate(-259.394 -68.171)" fill="#455a64"/>
      <path id="Path_5509" data-name="Path 5509" d="M281.459,81.676c.154.5,2.788,3.618,5.091,3.355.752-.084.462-4.2.462-4.2l.048-.308.668-4.326-5.2-2.88-.752-.374s-.106,1.192-.22,2.682v.215a.92.92,0,0,1-.022.242c0,.22-.04.44-.053.673s-.026.343-.031.523a3.72,3.72,0,0,1-.031.541,28.181,28.181,0,0,0,.04,3.86Z" transform="translate(-263.423 -59.029)" fill="#dd6a57"/>
      <path id="Path_5510" data-name="Path 5510" d="M281.74,75.6a8.793,8.793,0,0,0,5.527,4.9l.668-4.326-5.2-2.862-.752-.374S281.854,74.132,281.74,75.6Z" transform="translate(-263.63 -59.029)" fill="#263238"/>
      <path id="Path_5511" data-name="Path 5511" d="M290.158,53.253c1.2,7.589-3.205,9.167-4.836,9.427-1.482.233-6.6.844-8.556-6.6s1.165-10.381,4.533-11.1S288.949,45.651,290.158,53.253Z" transform="translate(-260.502 -43.272)" fill="#dd6a57"/>
      <path id="Path_5512" data-name="Path 5512" d="M275.816,56.091c1.9-.229,1.965-6.155,1.965-6.854a14.128,14.128,0,0,0,.352,2.955,1.934,1.934,0,0,0,.589-.163h0a5.677,5.677,0,0,1,0-.879,3.857,3.857,0,0,1,.193.8l.343-.128a6.919,6.919,0,0,1,.031-1.847,13.728,13.728,0,0,1,.475,1.662,23.214,23.214,0,0,1,4.915-1.284c.475-.057.879-.084,1.249-.1a12.987,12.987,0,0,1-.136-1.319,6.9,6.9,0,0,1,.409,1.319h.545c-.035-1.007-.646-2.572-.466-2.343a7.105,7.105,0,0,1,1.178,2.4c.7.079.879.2.9,0a8.41,8.41,0,0,0-2.981-4.99c-2.572-2.044-7.369-2.2-9.761,1.464a6.2,6.2,0,0,0-2.242,3.957C273.222,53.075,274.717,56.219,275.816,56.091Z" transform="translate(-258.937 -42.747)" fill="#263238"/>
      <path id="Path_5513" data-name="Path 5513" d="M276.348,69.132s-1.842-2.273-2.889-1.6.44,4.049,1.759,4.432a1.293,1.293,0,0,0,1.684-.818Z" transform="translate(-258.793 -55.928)" fill="#dd6a57"/>
      <path id="Path_5514" data-name="Path 5514" d="M274.979,69.87c-.022,0-.022.026,0,.031a3.29,3.29,0,0,1,1.838,1.93.712.712,0,0,0-1.082-.119.026.026,0,0,0,.026.044.809.809,0,0,1,.879.215,4,4,0,0,1,.47.681c.048.079.189.026.149-.066h0C277.177,71.426,276.188,69.9,274.979,69.87Z" transform="translate(-259.832 -57.309)" fill="#263238"/>
      <path id="Path_5515" data-name="Path 5515" d="M298.5,73.6a2.1,2.1,0,0,1-.708.818.967.967,0,0,1-.567.154c-.44-.026-.523-.4-.514-.747a2.288,2.288,0,0,1,.088-.536A2.792,2.792,0,0,0,298.5,73.6Z" transform="translate(-272.017 -59.225)" fill="#fff"/>
      <path id="Path_5516" data-name="Path 5516" d="M302.956,60.83a4.313,4.313,0,0,1-.528-.062.844.844,0,0,1-.523-.167.273.273,0,0,1-.031-.334.686.686,0,0,1,.651-.215,1.007,1.007,0,0,1,.655.295.29.29,0,0,1-.224.484Z" transform="translate(-274.888 -51.799)" fill="#263238"/>
      <path id="Path_5517" data-name="Path 5517" d="M291.933,62.134a4.18,4.18,0,0,0,.506-.154.853.853,0,0,0,.488-.255.277.277,0,0,0-.031-.334.668.668,0,0,0-.677-.1.994.994,0,0,0-.594.4.29.29,0,0,0,.308.435Z" transform="translate(-269.145 -52.475)" fill="#263238"/>
      <path id="Path_5518" data-name="Path 5518" d="M294.553,67.46s-.04.031-.035.048c.075.519.075,1.126-.378,1.35v.031C294.712,68.744,294.707,67.939,294.553,67.46Z" transform="translate(-270.578 -55.958)" fill="#263238"/>
      <path id="Path_5519" data-name="Path 5519" d="M293.149,66.34c-.844.031-.721,1.715.057,1.688S293.852,66.318,293.149,66.34Z" transform="translate(-269.697 -55.33)" fill="#263238"/>
      <path id="Path_5520" data-name="Path 5520" d="M291.895,66.585c-.141.106-.273.286-.44.317s-.369-.132-.519-.29h-.026a.608.608,0,0,0,.514.673c.347.026.528-.281.585-.611C292.009,66.629,291.952,66.541,291.895,66.585Z" transform="translate(-268.768 -55.461)" fill="#263238"/>
      <path id="Path_5521" data-name="Path 5521" d="M302.451,66.38s.044.022.044.044c0,.523.128,1.121.611,1.262v.031C302.521,67.673,302.385,66.881,302.451,66.38Z" transform="translate(-275.226 -55.353)" fill="#263238"/>
      <path id="Path_5522" data-name="Path 5522" d="M302.89,65.072c.835-.119,1.007,1.561.233,1.671S302.186,65.169,302.89,65.072Z" transform="translate(-275.23 -54.617)" fill="#263238"/>
      <path id="Path_5523" data-name="Path 5523" d="M304.172,65.021c.141.079.29.224.44.22s.3-.2.4-.391h.031c.04.321-.031.664-.334.761s-.51-.171-.62-.484C304.079,65.087,304.115,65,304.172,65.021Z" transform="translate(-276.152 -54.496)" fill="#263238"/>
      <path id="Path_5524" data-name="Path 5524" d="M296.225,76.51c.127.119.259.286.44.295a1.319,1.319,0,0,0,.558-.145l.022.026a.7.7,0,0,1-.655.3.55.55,0,0,1-.44-.44C296.168,76.506,296.207,76.493,296.225,76.51Z" transform="translate(-271.704 -61.025)" fill="#263238"/>
      <path id="Path_5525" data-name="Path 5525" d="M298.66,65.367s.171.769.2,1.134c0,.035-.084.062-.207.079h0a1.759,1.759,0,0,1-1.759-.51c-.026-.031,0-.075.053-.053a2.638,2.638,0,0,0,1.631.321c0-.106-.339-1.319-.281-1.319a3.219,3.219,0,0,1,.849.123c-.312-1.614-.879-3.166-1.169-4.775a.049.049,0,1,1,.092-.031,26.7,26.7,0,0,1,1.473,5.109C299.574,65.631,298.809,65.416,298.66,65.367Z" transform="translate(-272.117 -51.949)" fill="#263238"/>
    </g>
    <g id="freepik--Plant--inject-5" transform="translate(164.097 130.913)">
      <path id="Path_5526" data-name="Path 5526" d="M396.3,333.25s10.112-2.286,15.626-7.382,8.622-14.228,8.622-14.228a86.466,86.466,0,0,0-11.317,2.972,18.778,18.778,0,0,0-3.425,4.836,23,23,0,0,1-.026-3.46,15.391,15.391,0,0,0-3.6,2.2C397.6,322.188,396.3,333.25,396.3,333.25Z" transform="translate(-362.217 -282.393)" fill="#ffc727"/>
      <path id="Path_5527" data-name="Path 5527" d="M406.672,317.945c1.376-.95,2.774-1.869,4.146-2.831a.079.079,0,0,0-.083-.132c-2.6,1.552-5.166,3.214-7.646,4.951-.879.607-1.715,1.235-2.554,1.882l.176-.3c.3-.51.624-1.007.941-1.5a21.545,21.545,0,0,1,2.146-2.858c.026-.035-.022-.083-.053-.048-.783.906-1.57,1.8-2.286,2.766a16.9,16.9,0,0,0-.958,1.411c-.158.255-.308.506-.44.765l-.154.259c-1.319,1.024-2.572,2.093-3.785,3.223q-1.126,1.046-2.168,2.168c.387-1.222.73-2.458,1.183-3.658a.035.035,0,1,0-.066,0c-.44,1.262-.923,2.528-1.262,3.825-.774.835-1.512,1.7-2.2,2.6a.722.722,0,0,1,.035-.163c.114-.475.233-.95.361-1.424.246-.91.514-1.82.822-2.713a15.828,15.828,0,0,1,2.713-5.122c.026-.031-.022-.079-.053-.044a19.694,19.694,0,0,0-3.865,8.068c-.105.44-.211.879-.308,1.293-.053.233-.11.466-.149.7-.308.413-.607.831-.879,1.257a43.9,43.9,0,0,0-4.269,8.354,97.181,97.181,0,0,0-3.236,10.086c0,.066.084.088.105,0,1.974-5.9,3.988-11.871,7.369-17.173a39.381,39.381,0,0,1,2.3-3.223,19.09,19.09,0,0,0,4.907-.976,21.809,21.809,0,0,0,4.92-2.379,29.3,29.3,0,0,0,2.519-1.9.035.035,0,1,0-.044-.053,20.063,20.063,0,0,1-4.625,2.8,25.023,25.023,0,0,1-5.091,1.706c-.743.163-1.5.286-2.256.387a41.461,41.461,0,0,1,2.977-3.3c.339-.339.69-.664,1.042-.994a23.607,23.607,0,0,1,3.733-2.137c1.653-.8,3.28-1.649,4.916-2.48.923-.47,1.842-.95,2.774-1.4.04-.022,0-.079-.04-.062-1.658.8-3.342,1.552-5.017,2.317-1.574.721-3.17,1.447-4.682,2.3l-.189.114c1.367-1.187,2.783-2.321,4.23-3.416C403.932,319.889,405.3,318.9,406.672,317.945Z" transform="translate(-354.641 -284.262)" fill="#263238"/>
      <path id="Path_5528" data-name="Path 5528" d="M429.564,333.566c-.822.356-1.658.677-2.467,1.055s-1.631.849-2.423,1.319a.031.031,0,0,0,.031.053c.8-.387,1.622-.747,2.418-1.148s1.622-.849,2.462-1.213C429.647,333.615,429.6,333.549,429.564,333.566Z" transform="translate(-378.109 -294.677)" fill="#263238"/>
      <path id="Path_5529" data-name="Path 5529" d="M321.74,245.12a14.434,14.434,0,0,1,3.016,8.38c.031.906-.11,2.168-.215,3.649a24.058,24.058,0,0,1,6.6,5.628,11.926,11.926,0,0,0-6.657-1.592,19.953,19.953,0,0,0,.387,3.016,11.327,11.327,0,0,1,4.278.844,9.589,9.589,0,0,0-3.856.769c1.8,5.716,7.145,11.6,21.909,14.1a30.991,30.991,0,0,0-2.612-20.779C340.149,250.431,321.74,245.12,321.74,245.12Z" transform="translate(-320.438 -245.12)" fill="#ffc727"/>
      <path id="Path_5530" data-name="Path 5530" d="M357.337,309.405c-.255-2.445-.58-4.885-.958-7.312a144.526,144.526,0,0,0-2.977-14.456,57.251,57.251,0,0,0-2.132-6.6,9.635,9.635,0,0,0,.057-1.183v-1.416c0-.95-.053-1.891-.132-2.836a34.2,34.2,0,0,0-.91-5.535c-.268-1.051-.585-2.088-.879-3.13a.035.035,0,0,0-.066.022,40.534,40.534,0,0,1,1.082,5.509,50.833,50.833,0,0,1,.5,5.54c0,.51.026,1.016.031,1.526v.651a47.789,47.789,0,0,0-2.515-5.14,62.739,62.739,0,0,0-5.056-7.562,3.294,3.294,0,0,0-.119-.827c-.07-.33-.141-.66-.215-.989-.154-.673-.321-1.345-.506-2.009-.365-1.319-.849-2.638-1.271-3.957a.035.035,0,0,0-.066,0c.391,1.319.651,2.664.95,4,.15.655.295,1.319.44,1.974l.211.989v.075q-.879-1.126-1.829-2.225c-2.823-3.306-5.914-6.358-9.022-9.387-.382-.374-.778-.734-1.165-1.1-.031-.031-.079,0-.048.053,2.977,3.078,5.9,6.239,8.675,9.523.66.783,1.319,1.57,1.948,2.37l-1.007-.668c-.879-.563-1.732-1.108-2.638-1.609s-1.8-.994-2.717-1.451-1.961-.849-2.871-1.381c-.04-.022-.075.044-.035.062a20.949,20.949,0,0,1,2.7,1.491c.879.532,1.794,1.068,2.678,1.631s1.759,1.09,2.6,1.653c.717.466,1.424.976,2.172,1.407a70.186,70.186,0,0,1,4.731,6.885,51.306,51.306,0,0,1,2.445,4.639l-.532-.233-1.328-.576c-.879-.387-1.759-.761-2.612-1.143-1.658-.717-3.341-1.381-4.964-2.172a22.571,22.571,0,0,1-2.638-1.468c-.035-.026-.07.035-.035.057a59.209,59.209,0,0,0,9.774,5.043l1.455.642c.4.176.8.374,1.209.528a51.679,51.679,0,0,1,2.5,6.841,139.375,139.375,0,0,1,3.227,14.285c.844,4.836,1.416,9.673,1.86,14.558.057.607.11,1.213.18,1.82a.193.193,0,0,0,.383,0C357.847,314.325,357.6,311.845,357.337,309.405Z" transform="translate(-325.474 -250.103)" fill="#263238"/>
      <path id="Path_5531" data-name="Path 5531" d="M369.362,281.522c-.273-1.5-.673-2.968-1.077-4.436,0-.044-.075-.026-.066,0,.374,1.442.642,2.915.914,4.4s.519,2.99.73,4.493c0,.026.044.026.04,0A39.861,39.861,0,0,0,369.362,281.522Z" transform="translate(-346.482 -263.016)" fill="#263238"/>
      <path id="Path_5532" data-name="Path 5532" d="M347.946,292.143a26.707,26.707,0,0,0-3.21-1.807c-.536-.277-1.082-.541-1.627-.8s-1.147-.5-1.706-.783a.035.035,0,0,0-.031.062c.536.273,1.051.6,1.583.879l1.636.879c1.082.58,2.141,1.222,3.276,1.693a.084.084,0,0,0,.079-.119Z" transform="translate(-331.432 -269.566)" fill="#263238"/>
      <path id="Path_5533" data-name="Path 5533" d="M396.72,288.411s9.339-2.229,13.63-8.494c4.1-5.984,5.421-16.18,5.527-17.077-.172.822-2.1,9.734-8.455,13.885C402.559,279.921,397.846,282.537,396.72,288.411Z" transform="translate(-362.452 -255.049)" fill="#263238" opacity="0.1"/>
      <path id="Path_5534" data-name="Path 5534" d="M411.937,284.318a11.946,11.946,0,0,0-3.447,5.672s.026.031.031,0a13.968,13.968,0,0,1,3.46-5.628C412.012,284.34,411.968,284.287,411.937,284.318Z" transform="translate(-369.047 -267.079)" fill="#263238"/>
      <path id="Path_5535" data-name="Path 5535" d="M396.493,288.327s9.339-2.229,13.63-8.494c4.1-5.984,5.421-16.18,5.527-17.077a.384.384,0,0,0,0-.066s-4.476,6.366-9.185,7.993S395.143,277.933,396.493,288.327Z" transform="translate(-362.225 -254.965)" fill="#ffc727"/>
      <path id="Path_5536" data-name="Path 5536" d="M409.152,270.688a38.221,38.221,0,0,1-2.875,4.938,19.718,19.718,0,0,1-3.843,3.957c-1.266,1.007-2.607,1.921-3.891,2.906l.026-.044c.242-.361.5-.708.765-1.046.536-.681,1.121-1.319,1.71-1.965,1.161-1.257,2.343-2.493,3.385-3.856a14.514,14.514,0,0,0,1.495-2.414c.022-.04-.044-.062-.066-.022-1.512,3.157-4.537,5.175-6.7,7.839-.308.383-.6.774-.879,1.183a5.141,5.141,0,0,0-.536.963,19.507,19.507,0,0,0-3.183,3.218,12.614,12.614,0,0,1,.374-1.811,9.234,9.234,0,0,1,.989-2.365c.022-.04-.035-.075-.057-.04a11.31,11.31,0,0,0-1.09,2.352,8.111,8.111,0,0,0-.339,2.014h0a18.365,18.365,0,0,0-1.262,1.961c.04-.2.075-.4.114-.6.185-.932.391-1.86.633-2.774a16.579,16.579,0,0,1,2.247-5.276c.026-.035-.031-.075-.057-.04a19.973,19.973,0,0,0-2.488,5.148c-.3.914-.536,1.847-.747,2.787-.1.462-.193.923-.281,1.385-.048.237-.1.484-.136.73a33.491,33.491,0,0,0-2.154,6.331,92.414,92.414,0,0,0-1.992,11.805,97.942,97.942,0,0,0-.646,12.544c0,.523.04,1.051.066,1.574a.108.108,0,1,0,.215,0c.092-2.075.145-4.146.268-6.217s.3-4.142.528-6.2a110.629,110.629,0,0,1,1.943-12.073,31.628,31.628,0,0,1,3.605-9.844,18.4,18.4,0,0,1,3.372-4.005c1.319-1.178,2.739-2.2,4.12-3.293a22.95,22.95,0,0,0,3.781-3.636,29.8,29.8,0,0,0,2.972-4.836c.22-.44.44-.84.668-1.262C409.227,270.688,409.17,270.649,409.152,270.688Z" transform="translate(-357.377 -259.437)" fill="#263238"/>
      <path id="Path_5537" data-name="Path 5537" d="M430.22,273.793a31.355,31.355,0,0,1-2.08,3.641c0,.026.022.053.044.026a25.2,25.2,0,0,0,2.1-3.645C430.3,273.776,430.237,273.754,430.22,273.793Z" transform="translate(-380.058 -261.175)" fill="#263238"/>
      <path id="Path_5538" data-name="Path 5538" d="M318.78,311.64s-.15,13.269,7.787,17.1,12.188.638,17.587,1.921h0c-.207-.317-4.054-5.852-10.174-7.373C327.67,321.717,320.688,317.171,318.78,311.64Z" transform="translate(-318.78 -282.393)" fill="#ffc727"/>
      <path id="Path_5539" data-name="Path 5539" d="M318.78,311.64s-.15,13.269,7.787,17.1,12.188.638,17.587,1.921h0A29.936,29.936,0,0,0,335.135,328C330.114,327.393,320.552,324.135,318.78,311.64Z" transform="translate(-318.78 -282.393)" fill="#263238" opacity="0.1"/>
      <path id="Path_5540" data-name="Path 5540" d="M349.12,341.221a13.328,13.328,0,0,0-3.152-2.137c-.172-.084-.347-.149-.519-.224-.084-.105-.176-.207-.268-.3-.237-.246-.484-.484-.747-.708a10.82,10.82,0,0,0-1.6-1.152c-1.319-.774-2.752-1.319-4.1-2.031-.04-.022-.075.04-.035.057.664.347,1.319.725,1.957,1.1s1.271.717,1.882,1.112a13.673,13.673,0,0,1,1.57,1.178c.141.123.277.255.409.391a20.265,20.265,0,0,0-2.682-.712c-1.451-.295-2.919-.5-4.37-.813a20.366,20.366,0,0,1-2.106-.567c-.659-.532-1.319-1.055-1.939-1.631a16.231,16.231,0,0,1-2.053-2.273c-.026-.04-.084,0-.057.035a24.428,24.428,0,0,0,3.254,3.588q-.514-.193-1.016-.44a16.374,16.374,0,0,1-6.762-5.623c-.022-.035-.083,0-.057.035a18.546,18.546,0,0,0,5.469,5.276,16.79,16.79,0,0,0,3.456,1.636,32.613,32.613,0,0,0,4.3,1.016,30.018,30.018,0,0,1,4.208,1,12.833,12.833,0,0,1,3.517,1.855,16.492,16.492,0,0,1,4.753,5.9,30.042,30.042,0,0,1,2.638,9.7c0,.141.237.141.224,0C354.915,350.9,353.424,345.095,349.12,341.221Z" transform="translate(-323.232 -292.713)" fill="#263238"/>
      <path id="Path_5541" data-name="Path 5541" d="M352.083,341.658a4.555,4.555,0,0,0-1.631-1.482,5.949,5.949,0,0,1-1.939-1.6c-.026-.035-.088,0-.062.035a6.565,6.565,0,0,0,1.715,1.534,6,6,0,0,1,1.869,1.543C352.057,341.715,352.105,341.689,352.083,341.658Z" transform="translate(-335.402 -297.476)" fill="#263238"/>
      <path id="Path_5542" data-name="Path 5542" d="M366.3,377.73l.361,7.294,1.1,22.3h16.65l1.1-22.3.361-7.294Z" transform="translate(-345.407 -319.425)" fill="#37474f"/>
      <path id="Path_5543" data-name="Path 5543" d="M366.3,377.73l.361,7.294h18.857l.361-7.294Z" transform="translate(-345.407 -319.425)" fill="#263238"/>
      <rect id="Rectangle_1655" data-name="Rectangle 1655" width="21.918" height="6.96" transform="translate(41.641 62.218) rotate(180)" fill="#37474f"/>
    </g>
  </g>
</svg>
