<svg xmlns="http://www.w3.org/2000/svg" width="195.122" height="145.175" viewBox="0 0 195.122 145.175">
  <g id="Online_calendar-rafiki" data-name="Online calendar-rafiki" transform="translate(0 -55)">
    <g id="freepik--background-complete--inject-5" transform="translate(0 55)">
      <rect id="Rectangle_1657" data-name="Rectangle 1657" width="12.925" height="0.098" transform="translate(162.646 134.045)" fill="#ebebeb"/>
      <rect id="Rectangle_1658" data-name="Rectangle 1658" width="3.391" height="0.098" transform="translate(125.865 135.106)" fill="#ebebeb"/>
      <rect id="Rectangle_1659" data-name="Rectangle 1659" width="7.489" height="0.098" transform="translate(154.767 130.423)" fill="#ebebeb"/>
      <rect id="Rectangle_1660" data-name="Rectangle 1660" width="16.855" height="0.098" transform="translate(20.472 131.079)" fill="#ebebeb"/>
      <rect id="Rectangle_1661" data-name="Rectangle 1661" width="2.47" height="0.098" transform="translate(40.804 131.079)" fill="#ebebeb"/>
      <rect id="Rectangle_1662" data-name="Rectangle 1662" width="36.558" height="0.098" transform="translate(51.305 132.726)" fill="#ebebeb"/>
      <path id="Path_5550" data-name="Path 5550" d="M115.787,165.361H40.434a2.228,2.228,0,0,1-2.224-2.228V57.209A2.228,2.228,0,0,1,40.434,55h75.352a2.228,2.228,0,0,1,2.228,2.228v105.9A2.228,2.228,0,0,1,115.787,165.361ZM40.434,55.078a2.131,2.131,0,0,0-2.127,2.131V163.133a2.131,2.131,0,0,0,2.127,2.131h75.352a2.135,2.135,0,0,0,2.131-2.131V57.209a2.135,2.135,0,0,0-2.131-2.131Z" transform="translate(-23.299 -55)" fill="#ebebeb"/>
      <path id="Path_5551" data-name="Path 5551" d="M332.084,165.361H256.728a2.232,2.232,0,0,1-2.228-2.228V57.209A2.232,2.232,0,0,1,256.728,55h75.356a2.228,2.228,0,0,1,2.221,2.209V163.133A2.228,2.228,0,0,1,332.084,165.361ZM256.728,55.078a2.135,2.135,0,0,0-2.131,2.131V163.133a2.135,2.135,0,0,0,2.131,2.131h75.356a2.135,2.135,0,0,0,2.131-2.131V57.209a2.135,2.135,0,0,0-2.131-2.131Z" transform="translate(-155.183 -55)" fill="#ebebeb"/>
      <rect id="Rectangle_1663" data-name="Rectangle 1663" width="195.122" height="0.098" transform="translate(0 127.766)" fill="#ebebeb"/>
      <path id="Path_5552" data-name="Path 5552" d="M104.654,305.178a2.121,2.121,0,0,1,.656,1.659,1.358,1.358,0,0,1-1.561.987,2.014,2.014,0,0,1-1.46-1.292c-.152-.39-.211-.819-.363-1.214A5.458,5.458,0,0,0,99.3,302.86a4.6,4.6,0,0,0,1.4,3.177,30.521,30.521,0,0,1,2.427,2.6,3.547,3.547,0,0,1,.609,3.352.546.546,0,0,1-.164.238.527.527,0,0,1-.39.059c-1.241-.168-2.088-1.335-2.634-2.462a7.773,7.773,0,0,0-2-3.122c.445,1.495,1.639,2.642,2.275,4.062a5.889,5.889,0,0,1-.578,5.7.609.609,0,0,1-.39.3c-.242.023-.418-.222-.519-.441-1.015-2.217-.269-5.206-2.025-6.892L96.5,311.2a2.782,2.782,0,0,1-.64.991.956.956,0,0,1-1.1.164c-.523-.336-.39-1.124-.16-1.705a26.22,26.22,0,0,1,2.142-4.293c-.589-.277-1.171.328-1.616.82s-1.253.921-1.651.39a.933.933,0,0,1-.156-.6,3.869,3.869,0,0,1,1.452-2.626,10.12,10.12,0,0,0,2.1-2.244,3.243,3.243,0,0,1-1.725.047,1.134,1.134,0,0,1-.78-1.358,15.569,15.569,0,0,1,2.193-2.053c.894-.285,1.768.542,2.447,1.034a29.139,29.139,0,0,1,5.643,5.4Z" transform="translate(-56.904 -203.586)" fill="#ebebeb"/>
      <path id="Path_5553" data-name="Path 5553" d="M106.6,317.5v-.882c-.1-8.406-1.584-11.543-1.951-11.633l-.043-.39a.433.433,0,0,1,.355.129c.78.667,1.951,4.386,2.049,11.887v.882Z" transform="translate(-63.787 -207.191)" fill="#e0e0e0"/>
      <path id="Path_5554" data-name="Path 5554" d="M109.71,319.721v-5.7c0-8.047,1.225-12.043,2.045-12.765a.457.457,0,0,1,.359-.137l-.051.39c-.39.1-1.951,3.469-1.951,12.515v5.694Z" transform="translate(-66.896 -205.071)" fill="#e0e0e0"/>
      <path id="Path_5555" data-name="Path 5555" d="M105.755,362.289H95.214L94.18,349.61h12.6Z" transform="translate(-57.427 -234.64)" fill="#f0f0f0"/>
      <path id="Path_5556" data-name="Path 5556" d="M105.763,348.656H91.418l-.258-1.686h14.86Z" transform="translate(-55.585 -233.03)" fill="#fafafa"/>
      <path id="Path_5557" data-name="Path 5557" d="M62.288,297.3a2.6,2.6,0,0,0-2.041.558,1.616,1.616,0,0,0,.168,2.174,2.392,2.392,0,0,0,2.267.464c.484-.137.929-.39,1.413-.523a6.569,6.569,0,0,1,4.2.734,5.422,5.422,0,0,1-4.008.937,35.619,35.619,0,0,0-4.2-.441,4.172,4.172,0,0,0-3.614,1.83.656.656,0,0,0-.109.324.64.64,0,0,0,.226.414c1.046,1.058,2.755,1.03,4.215.741s2.974-.757,4.4-.34c-1.729.644-3.672.328-5.463.741a7,7,0,0,0-5,4.613.71.71,0,0,0,0,.578c.148.25.507.242.78.18,2.821-.617,5.128-3.458,7.98-3l-1.1,2.037a3.258,3.258,0,0,0-.484,1.315,1.128,1.128,0,0,0,.628,1.171c.691.258,1.339-.441,1.729-1.065a31.188,31.188,0,0,0,2.556-5.1c.687.359.539,1.358.39,2.115s0,1.842.78,1.854a1.116,1.116,0,0,0,.679-.277,4.628,4.628,0,0,0,1.456-3.251,11.925,11.925,0,0,1,.628-3.594,3.813,3.813,0,0,0,1.19,1.67,1.325,1.325,0,0,0,1.838-.238,18.682,18.682,0,0,0,.39-3.543c-.367-1.05-1.776-1.292-2.732-1.58A34.172,34.172,0,0,0,62.288,297.3Z" transform="translate(-33.343 -202.744)" fill="#f5f5f5"/>
      <path id="Path_5558" data-name="Path 5558" d="M116.314,311.287a2.6,2.6,0,0,0,1.448,1.538,1.612,1.612,0,0,0,1.842-1.171,2.38,2.38,0,0,0-.656-2.217c-.343-.363-.78-.64-1.124-1-1-1.046-1.171-2.611-1.319-4.055a5.408,5.408,0,0,1,2.708,3.122,32.487,32.487,0,0,0,1.58,3.9,4.247,4.247,0,0,0,3.3,2.341.617.617,0,0,0,.336-.059.64.64,0,0,0,.261-.39c.445-1.42-.39-2.919-1.323-4.074S121.3,306.951,121,305.5c1.381,1.225,2.014,3.091,3.223,4.484a6.985,6.985,0,0,0,6.416,2.248.718.718,0,0,0,.515-.265c.148-.246-.027-.558-.215-.78-1.869-2.2-5.463-2.907-6.388-5.643h2.314a3.336,3.336,0,0,0,1.389-.187,1.136,1.136,0,0,0,.722-1.1c-.094-.73-1.015-.976-1.748-1.026a31.357,31.357,0,0,0-5.709.133c0-.78.948-1.108,1.69-1.323s1.623-.882,1.268-1.561a1.108,1.108,0,0,0-.562-.468,4.622,4.622,0,0,0-3.555.242,12.018,12.018,0,0,1-3.465,1.128,3.9,3.9,0,0,0,.917-1.834,1.336,1.336,0,0,0-1.073-1.51,18.533,18.533,0,0,0-3.309,1.323c-.753.82-.308,2.174-.117,3.149A34.2,34.2,0,0,0,116.314,311.287Z" transform="translate(-68.907 -203.189)" fill="#f0f0f0"/>
      <path id="Path_5559" data-name="Path 5559" d="M246.955,76.51V87H233.078l-.738-.7.738-9.8a6.939,6.939,0,1,1,13.877,0Z" transform="translate(-141.671 -63.878)" opacity="0.2"/>
      <path id="Path_5560" data-name="Path 5560" d="M246.217,74.739v10.49H232.34V74.739a6.939,6.939,0,1,1,13.877,0Z" transform="translate(-141.671 -62.805)" fill="#f0f0f0"/>
      <circle id="Ellipse_495" data-name="Ellipse 495" cx="4.862" cy="4.862" r="4.862" transform="translate(92.272 16.117) rotate(-80.78)" fill="#e0e0e0"/>
      <circle id="Ellipse_496" data-name="Ellipse 496" cx="4.862" cy="4.862" r="4.862" transform="translate(92.422 7.141)" fill="#fff"/>
      <path id="Path_5561" data-name="Path 5561" d="M248.9,85.98a.39.39,0,1,1-.39-.39A.39.39,0,0,1,248.9,85.98Z" transform="translate(-151.293 -73.652)" fill="#e0e0e0"/>
      <path id="Path_5562" data-name="Path 5562" d="M246.368,82.7l-1.678-1.58.164-.176,1.522,1.432L249.1,79.97l.156.176Z" transform="translate(-149.201 -70.226)" fill="#e0e0e0"/>
      <path id="Path_5563" data-name="Path 5563" d="M95.7,146.51a63.8,63.8,0,0,1-10.236.636,64.738,64.738,0,0,1-10.236-.636,1.787,1.787,0,0,1-.39.566,1.7,1.7,0,0,1-2.408-2.4c.144-.144.39-.16.48-.332.7-1.42-.55-4.137-.55-7.071s1.253-5.643.546-7.067c-.281-.57-.972-.855-.972-1.534s.691-.96.972-1.53c.7-1.424-.546-4.14-.546-7.071s1.253-5.647.55-7.071c-.086-.168-.336-.187-.48-.328a1.7,1.7,0,1,1,2.408-2.4c.164.168.18.457.39.566,1.819,1,5.854-.64,10.236-.64s8.418,1.639,10.236.64c.2-.109.207-.39.39-.566a1.7,1.7,0,0,1,2.4,2.4c-.14.14-.39.16-.476.328-.7,1.424.55,4.14.55,7.071s-1.253,5.647-.55,7.071c.285.57.976.851.976,1.53s-.691.964-.976,1.534c-.7,1.424.55,4.14.55,7.067s-1.253,5.651-.55,7.071c.086.172.336.187.476.332a1.7,1.7,0,0,1-2.4,2.4A1.666,1.666,0,0,1,95.7,146.51Z" transform="translate(-43.86 -88.446)" fill="#e0e0e0"/>
      <path id="Path_5564" data-name="Path 5564" d="M97.68,144.5a63.7,63.7,0,0,1-10.236.64,64.729,64.729,0,0,1-10.24-.64,1.666,1.666,0,0,1-.39.566,1.7,1.7,0,0,1-2.4-2.4c.14-.14.39-.16.476-.328.7-1.424-.55-4.141-.55-7.071s1.253-5.647.55-7.071c-.281-.57-.976-.855-.976-1.53s.695-.964.976-1.534c.718-1.424-.55-4.141-.55-7.087s1.253-5.647.55-7.071c-.082-.168-.336-.183-.476-.328a1.7,1.7,0,0,1,2.4-2.4c.168.168.18.46.39.566,1.822,1,5.854-.64,10.24-.64s8.414,1.639,10.236.64c.2-.105.207-.39.39-.566a1.7,1.7,0,1,1,2.4,2.4c-.14.144-.39.16-.476.328-.7,1.424.55,4.14.55,7.071s-1.253,5.647-.55,7.071c.281.57.976.855.976,1.534s-.695.96-.976,1.53c-.7,1.424.55,4.14.55,7.071s-1.253,5.647-.55,7.071c.086.168.336.187.476.328a1.7,1.7,0,1,1-2.4,2.4A1.666,1.666,0,0,1,97.68,144.5Z" transform="translate(-45.067 -87.208)" fill="#fafafa"/>
      <rect id="Rectangle_1664" data-name="Rectangle 1664" width="20.488" height="30.537" transform="translate(52.617 54.716) rotate(180)" fill="#ebebeb"/>
      <path id="Path_5565" data-name="Path 5565" d="M311.67,101S321.91,91,335.8,91s22.829,10,22.829,10v79.61H311.67Z" transform="translate(-190.043 -76.951)" fill="#f5f5f5"/>
      <path id="Path_5566" data-name="Path 5566" d="M359.561,103.532a31.922,31.922,0,0,0-44.441,0v78.2h44.441Zm-1.389,76.808H316.5V104.125a30.541,30.541,0,0,1,41.662,0Z" transform="translate(-192.146 -79.103)" fill="#e0e0e0"/>
      <path id="Path_5567" data-name="Path 5567" d="M358.17,180.359h-49.3V98.72l.355-.359a34.365,34.365,0,0,1,48.589,0l.355.359Zm-46.868-2.42H355.75v-78.2a31.922,31.922,0,0,0-44.441,0Z" transform="translate(-188.335 -75.305)" fill="#ebebeb"/>
      <path id="Path_5568" data-name="Path 5568" d="M344.727,97.66v6.353H331.532V97.66c-.82.176-1.631.39-2.427.617v5.737H318.311c-.644.523-1.276,1.069-1.881,1.651v.78h12.675v23.914H316.43v2.427h12.675v24.035H316.43v2.431h12.675v23.863h2.427V159.252h13.194v23.863h2.431V159.252h12.671v-2.431H347.158V132.786h12.671v-2.427H347.158V106.444h12.671v-.78c-.6-.581-1.233-1.128-1.877-1.651H347.158V98.277C346.358,98.039,345.53,97.836,344.727,97.66Zm0,59.161H331.532V132.786h13.194Zm0-26.462H331.532V106.444h13.194Z" transform="translate(-192.945 -81.012)" fill="#e6e6e6"/>
      <rect id="Rectangle_1665" data-name="Rectangle 1665" width="57.682" height="4.972" transform="translate(116.109 105.257)" fill="#f0f0f0"/>
    </g>
    <g id="freepik--Shadow--inject-5" transform="translate(21.897 191.34)">
      <ellipse id="freepik--path--inject-5" cx="75.664" cy="4.418" rx="75.664" ry="4.418" fill="#f5f5f5"/>
    </g>
    <g id="freepik--Plant--inject-5" transform="translate(135.805 167.449)">
      <path id="Path_5569" data-name="Path 5569" d="M348,366.56a3.555,3.555,0,0,1,2.287,2.3,4.993,4.993,0,0,0,4.359,3.079,3.273,3.273,0,0,1,1.744.609l.55.316c-.023-.191-.043-.39-.055-.6a5.122,5.122,0,0,1-.453-.39,1.206,1.206,0,0,0-.1-.1c-1.717-1.651-1.764-3.387-3.766-4.948S348,366.56,348,366.56Z" transform="translate(-348 -357.12)" fill="#f7b74e"/>
      <path id="Path_5570" data-name="Path 5570" d="M378.163,362.567a3.563,3.563,0,0,0-1.951,2.6,4.98,4.98,0,0,1-3.9,3.66,3.221,3.221,0,0,0-1.639.851c-.16.121-.324.254-.5.39a3.983,3.983,0,0,0-.031-.6c.137-.141.265-.285.39-.441.027-.039.059-.074.086-.109,1.467-1.877,1.272-3.6,3.032-5.432S378.163,362.567,378.163,362.567Z" transform="translate(-361.5 -354.852)" fill="#f7b74e"/>
      <path id="Path_5571" data-name="Path 5571" d="M363.8,357.979a11.1,11.1,0,0,1-.336,3.227c-.964,3.746-1.061,2.361-1.061,2.361a27.652,27.652,0,0,0,.9-5.194,3.983,3.983,0,0,0-.031-.6,8.855,8.855,0,0,0-.449-2.189c-1.019-2.942-3.052-3.852-3.856-7.024s1.982-5.409,1.982-5.409a4.422,4.422,0,0,0,1.5,3.8,6.253,6.253,0,0,1,1.339,6.587c-.468.937-.172,2.111-.035,3.672C363.77,357.464,363.786,357.718,363.8,357.979Z" transform="translate(-354.596 -343.15)" fill="#f7b74e"/>
      <path id="Path_5572" data-name="Path 5572" d="M361.585,401.047h-6.244a1.331,1.331,0,0,1-1.319-1.151L352.36,387.56h12.2L362.889,399.9A1.331,1.331,0,0,1,361.585,401.047Z" transform="translate(-350.659 -370.229)" fill="#f7b74e"/>
      <path id="Path_5573" data-name="Path 5573" d="M363.677,387.45v2.267h-1.315L361,399.825a1.323,1.323,0,0,1-1.315,1.151h-6.236a1.331,1.331,0,0,1-1.315-1.151l-1.366-10.107H349.25V387.45Z" transform="translate(-348.762 -370.162)" fill="#f7b74e"/>
      <path id="Path_5574" data-name="Path 5574" d="M363.677,387.45v2.267h-1.315L361,399.825a1.323,1.323,0,0,1-1.315,1.151h-6.236a1.331,1.331,0,0,1-1.315-1.151l-1.366-10.107H349.25V387.45Z" transform="translate(-348.762 -370.162)" opacity="0.5"/>
    </g>
    <g id="freepik--Icon--inject-5" transform="translate(71.751 152.366)">
      <path id="Path_5575" data-name="Path 5575" d="M192.121,319.731a1.534,1.534,0,0,1-1.5,1.381,1.245,1.245,0,0,1-1.26-1.381,1.561,1.561,0,0,1,1.5-1.381,1.245,1.245,0,0,1,1.26,1.381Z" transform="translate(-187.209 -312.945)" fill="#f7b74e"/>
      <path id="Path_5576" data-name="Path 5576" d="M191.32,315.76a.277.277,0,0,1-.261-.32c.07-.78-.738-1.417-1.838-1.417a2.269,2.269,0,0,0-2.084,1.417.343.343,0,0,1-.32.32.277.277,0,0,1-.261-.32,2.828,2.828,0,0,1,2.732-2.06c1.378,0,2.462.905,2.361,2.06a.343.343,0,0,1-.328.32Z" transform="translate(-185.502 -309.915)" fill="#f7b74e"/>
      <path id="Path_5577" data-name="Path 5577" d="M191.271,311.12a.277.277,0,0,1-.261-.32c.066-.78-1.046-1.417-2.482-1.417-1.506,0-2.693.991-2.732,1.417a.343.343,0,0,1-.32.32.277.277,0,0,1-.261-.32c.082-.929,1.651-2.06,3.368-2.06,1.815,0,3.122.886,3,2.06a.343.343,0,0,1-.316.32Z" transform="translate(-184.685 -307.085)" fill="#f7b74e"/>
      <path id="Path_5578" data-name="Path 5578" d="M191.2,306.881a.277.277,0,0,1-.261-.324c.059-.683-1.171-1.413-3.122-1.413s-3.34,1.05-3.372,1.413a.34.34,0,0,1-.316.324.281.281,0,0,1-.265-.324c.082-.925,1.951-2.057,4.012-2.057,2.217,0,3.754.866,3.649,2.057a.343.343,0,0,1-.324.324Z" transform="translate(-183.861 -304.5)" fill="#f7b74e"/>
    </g>
    <g id="freepik--Device--inject-5" transform="translate(37.861 69.048)">
      <g id="freepik--monitor-screen--inject-5">
        <g id="freepik--group--inject-5">
          <path id="Path_5579" data-name="Path 5579" d="M212.734,169.344H109.14l5.744-65.674H218.479Z" transform="translate(-104.409 -98.725)" fill="#f7b74e"/>
          <path id="Path_5580" data-name="Path 5580" d="M203.938,166.757H101.83a4.73,4.73,0,0,1-4.784-5.245l5.709-65.261A5.854,5.854,0,0,1,108.461,91H210.544a4.73,4.73,0,0,1,4.784,5.245l-5.709,65.268a5.854,5.854,0,0,1-5.682,5.245Z" transform="translate(-97.018 -90.998)" fill="#263238"/>
          <path id="Path_5581" data-name="Path 5581" d="M218.094,169.344H120.24l5.748-65.674h97.85Z" transform="translate(-111.178 -98.725)" fill="#f7b74e"/>
          <path id="Path_5582" data-name="Path 5582" d="M218.062,169.41H120.22l5.744-65.67h97.842Z" transform="translate(-111.165 -98.768)" fill="#fff"/>
          <path id="Path_5583" data-name="Path 5583" d="M230.916,112.064H133.07l.73-8.324h97.842Z" transform="translate(-119.001 -98.768)" fill="#f7b74e"/>
          <ellipse id="Ellipse_497" data-name="Ellipse 497" cx="3.106" cy="2.845" rx="3.106" ry="2.845" transform="translate(52.337 33.399) rotate(-43.75)" fill="#f7b74e"/>
          <ellipse id="Ellipse_498" data-name="Ellipse 498" cx="3.098" cy="2.837" rx="3.098" ry="2.837" transform="matrix(0.722, -0.692, 0.692, 0.722, 13.547, 45.726)" fill="#263238"/>
          <path id="Path_5584" data-name="Path 5584" d="M214.572,219.2a3.313,3.313,0,0,1-3.235,2.974,2.681,2.681,0,0,1-2.712-2.974,3.313,3.313,0,0,1,3.235-2.974,2.681,2.681,0,0,1,2.712,2.974Z" transform="translate(-165.061 -167.358)" fill="#f7b74e"/>
          <path id="Path_5585" data-name="Path 5585" d="M142.75,160.152l.277-.519a1.471,1.471,0,0,0,.78.246c.293,0,.414-.082.425-.2.035-.39-1.409-.109-1.327-1.034.039-.445.433-.812,1.171-.812a1.783,1.783,0,0,1,.886.219l-.261.527a1.386,1.386,0,0,0-.675-.2c-.3,0-.414.1-.425.226-.031.39,1.409.094,1.331,1.015-.039.437-.437.808-1.171.808A1.83,1.83,0,0,1,142.75,160.152Z" transform="translate(-124.903 -131.749)" fill="#263238"/>
          <path id="Path_5586" data-name="Path 5586" d="M169.716,160.482l.105-1.323-.734,1.077h-.316l-.546-1.042-.113,1.288h-.652l.211-2.482h.581l.749,1.444L170.012,158h.581l-.211,2.5Z" transform="translate(-139.97 -131.853)" fill="#263238"/>
          <path id="Path_5587" data-name="Path 5587" d="M193.16,158.522h-.78l.051-.562h2.236l-.047.562h-.78l-.172,1.951h-.706Z" transform="translate(-155.165 -131.829)" fill="#263238"/>
          <path id="Path_5588" data-name="Path 5588" d="M220.653,157.976l-1.026,2.5h-.757l-.343-1.518-.636,1.5h-.757l-.593-2.5h.73l.363,1.6.667-1.6h.648l.363,1.608.667-1.608Z" transform="translate(-169.897 -131.829)" fill="#263238"/>
          <path id="Path_5589" data-name="Path 5589" d="M240.97,158.522h-.78l.051-.562h2.236l-.02.562h-.78l-.172,1.951H240.8Z" transform="translate(-184.318 -131.829)" fill="#263238"/>
          <path id="Path_5590" data-name="Path 5590" d="M265.174,158.506l-.047.55h1.1l-.051.546h-1.1l-.074.855H264.3l.219-2.5h1.951l-.051.546Z" transform="translate(-199.019 -131.829)" fill="#263238"/>
          <path id="Path_5591" data-name="Path 5591" d="M287.8,160.152l.281-.519a1.471,1.471,0,0,0,.8.246c.293,0,.414-.082.425-.2.035-.39-1.409-.109-1.331-1.034.039-.445.437-.812,1.171-.812a1.783,1.783,0,0,1,.886.219l-.261.527a1.4,1.4,0,0,0-.675-.2c-.3,0-.414.1-.425.226-.031.39,1.409.094,1.327,1.015-.035.437-.433.808-1.171.808A1.858,1.858,0,0,1,287.8,160.152Z" transform="translate(-213.348 -131.749)" fill="#263238"/>
          <path id="Path_5592" data-name="Path 5592" d="M192.278,173.72l-.219,2.5h-.706l.172-1.951h-.464l.047-.546Z" transform="translate(-154.361 -141.438)" fill="#263238"/>
          <path id="Path_5593" data-name="Path 5593" d="M216.722,175.592l-.051.562H214.72l.039-.445,1.011-.874c.219-.183.258-.3.265-.39a.275.275,0,0,0-.3-.258.562.562,0,0,0-.464.242l-.5-.293a1.26,1.26,0,0,1,1.081-.519c.574,0,.944.3.9.761a1.1,1.1,0,0,1-.492.78l-.511.433Z" transform="translate(-168.787 -141.375)" fill="#263238"/>
          <path id="Path_5594" data-name="Path 5594" d="M240.479,175.433c-.039.425-.39.831-1.171.831a1.8,1.8,0,0,1-.948-.246l.3-.531a1.171,1.171,0,0,0,.675.207c.238,0,.39-.094.418-.261s-.09-.242-.359-.242h-.3l.039-.445.488-.48h-.98l.051-.546h1.8l-.039.441-.566.558a.648.648,0,0,1,.581.714Z" transform="translate(-183.202 -141.438)" fill="#263238"/>
          <path id="Path_5595" data-name="Path 5595" d="M264.98,175.731h-.39l-.043.48h-.687l.039-.48H262.58l.043-.46,1.257-1.561h.73l-1.143,1.46h.507l.035-.425h.687l-.039.425h.39Z" transform="translate(-197.97 -141.432)" fill="#263238"/>
          <path id="Path_5596" data-name="Path 5596" d="M288.4,175.414c-.039.445-.41.851-1.171.851a1.779,1.779,0,0,1-.944-.246l.3-.531a1.171,1.171,0,0,0,.675.207c.238,0,.39-.1.421-.261s-.082-.254-.464-.254h-.652l.25-1.46H288.4l-.047.546h-1.015l-.062.363h.168C288.177,174.629,288.434,174.973,288.4,175.414Z" transform="translate(-212.421 -141.438)" fill="#263238"/>
          <path id="Path_5597" data-name="Path 5597" d="M142.405,191.092a.983.983,0,0,1-1.058.851c-.7,0-1.12-.421-1.05-1.229a1.389,1.389,0,0,1,1.448-1.366,1.323,1.323,0,0,1,.718.18l-.3.507a.738.738,0,0,0-.449-.129.652.652,0,0,0-.683.581.894.894,0,0,1,.581-.183.722.722,0,0,1,.792.788Zm-.687.031a.281.281,0,0,0-.316-.312.347.347,0,0,0-.371.316c-.02.183.105.312.32.312a.343.343,0,0,0,.386-.316Z" transform="translate(-123.404 -150.967)" fill="#263238"/>
          <path id="Path_5598" data-name="Path 5598" d="M166.758,189.462l-.039.441-1.058,2.053h-.78L165.892,190h-.656l-.035.39h-.6l.082-.944Z" transform="translate(-138.226 -151.03)" fill="#263238"/>
          <path id="Path_5599" data-name="Path 5599" d="M191.76,191.171c-.039.48-.507.78-1.171.78s-1.058-.3-1.015-.78a.71.71,0,0,1,.39-.581.542.542,0,0,1-.222-.5c.039-.441.468-.726,1.058-.726s.972.285.933.726a.671.671,0,0,1-.312.5A.581.581,0,0,1,191.76,191.171Zm-.706-.02c0-.2-.125-.312-.347-.312a.355.355,0,0,0-.39.312c0,.191.121.308.347.308a.359.359,0,0,0,.39-.312Zm-.581-1.034a.242.242,0,0,0,.273.261.293.293,0,0,0,.324-.261.247.247,0,0,0-.277-.261.293.293,0,0,0-.32.258Z" transform="translate(-153.453 -150.975)" fill="#263238"/>
          <path id="Path_5600" data-name="Path 5600" d="M215.616,190.587a1.389,1.389,0,0,1-1.452,1.366,1.319,1.319,0,0,1-.714-.18l.3-.507a.738.738,0,0,0,.449.129.656.656,0,0,0,.679-.578.905.905,0,0,1-.578.18.722.722,0,0,1-.781-.781.983.983,0,0,1,1.05-.851C215.269,189.358,215.69,189.779,215.616,190.587Zm-.73-.414a.289.289,0,0,0-.32-.312.343.343,0,0,0-.367.316.281.281,0,0,0,.316.312.347.347,0,0,0,.375-.316Z" transform="translate(-168.013 -150.976)" fill="#263238"/>
          <path id="Path_5601" data-name="Path 5601" d="M238.708,189.48l-.219,2.494h-.706l.172-1.951h-.464l.047-.542Z" transform="translate(-182.671 -151.048)" fill="#263238"/>
          <path id="Path_5602" data-name="Path 5602" d="M241.278,190.646a1.254,1.254,0,0,1,1.218-1.3c.64,0,1.054.472.983,1.3a1.257,1.257,0,0,1-1.214,1.3C241.629,191.945,241.208,191.473,241.278,190.646Zm1.491,0c.047-.523-.1-.718-.324-.718s-.41.2-.457.718.1.722.328.722S242.726,191.165,242.769,190.646Z" transform="translate(-184.977 -150.969)" fill="#263238"/>
          <path id="Path_5603" data-name="Path 5603" d="M262.608,189.48l-.219,2.494h-.706l.172-1.951h-.464l.051-.542Z" transform="translate(-197.245 -151.048)" fill="#263238"/>
          <path id="Path_5604" data-name="Path 5604" d="M266.318,189.48l-.219,2.494h-.706l.172-1.951H265.1l.047-.542Z" transform="translate(-199.507 -151.048)" fill="#263238"/>
          <path id="Path_5605" data-name="Path 5605" d="M286.518,189.48l-.219,2.494h-.706l.172-1.951H285.3l.047-.542Z" transform="translate(-211.824 -151.048)" fill="#263238"/>
          <path id="Path_5606" data-name="Path 5606" d="M290.762,191.352l-.051.558H288.76l.039-.441,1.011-.874c.219-.183.258-.3.265-.39,0-.16-.086-.258-.3-.258a.562.562,0,0,0-.464.242l-.5-.293a1.26,1.26,0,0,1,1.081-.519c.574,0,.944.3.9.757a1.1,1.1,0,0,1-.492.78l-.511.437Z" transform="translate(-213.934 -150.985)" fill="#263238"/>
          <path id="Path_5607" data-name="Path 5607" d="M140.1,205.23l-.219,2.5h-.706l.172-1.951h-.464l.047-.546Z" transform="translate(-122.543 -160.652)" fill="#fff"/>
          <path id="Path_5608" data-name="Path 5608" d="M144.169,206.947c-.035.421-.39.831-1.171.831a1.76,1.76,0,0,1-.948-.25l.3-.531a1.171,1.171,0,0,0,.671.207c.242,0,.39-.09.421-.258s-.09-.246-.363-.246h-.273l.039-.445.488-.48h-1l.047-.546H144.2l-.039.441-.566.558a.644.644,0,0,1,.578.718Z" transform="translate(-124.476 -160.652)" fill="#fff"/>
          <path id="Path_5609" data-name="Path 5609" d="M164.4,205.23l-.219,2.5h-.706l.168-1.951h-.46l.047-.546Z" transform="translate(-137.361 -160.652)" fill="#263238"/>
          <path id="Path_5610" data-name="Path 5610" d="M169.108,207.241h-.39l-.043.48H168l.039-.48H166.72l.039-.46,1.257-1.561h.734l-1.14,1.475h.5l.039-.425h.667l-.039.425h.39Z" transform="translate(-139.519 -160.646)" fill="#263238"/>
          <path id="Path_5611" data-name="Path 5611" d="M189.518,205.23l-.219,2.5h-.706l.172-1.951H188.3l.047-.546Z" transform="translate(-152.678 -160.652)" fill="#263238"/>
          <path id="Path_5612" data-name="Path 5612" d="M193.7,206.942c-.039.445-.41.855-1.171.855a1.736,1.736,0,0,1-.944-.25l.3-.531a1.171,1.171,0,0,0,.671.207c.242,0,.39-.094.425-.261s-.062-.242-.453-.242h-.679l.254-1.46h1.6l-.051.546h-1l-.066.363h.168C193.488,206.158,193.746,206.5,193.7,206.942Z" transform="translate(-154.678 -160.67)" fill="#263238"/>
          <path id="Path_5613" data-name="Path 5613" d="M213.418,205.23l-.219,2.5h-.687l.168-1.951h-.48l.051-.546Z" transform="translate(-167.251 -160.652)" fill="#263238"/>
          <path id="Path_5614" data-name="Path 5614" d="M218.082,206.842a.987.987,0,0,1-1.054.855c-.7,0-1.12-.421-1.05-1.233a1.389,1.389,0,0,1,1.448-1.366,1.323,1.323,0,0,1,.718.183l-.3.507a.718.718,0,0,0-.449-.129.652.652,0,0,0-.683.581.9.9,0,0,1,.581-.187.726.726,0,0,1,.788.788Zm-.687.031a.281.281,0,0,0-.316-.312.355.355,0,0,0-.39.316.285.285,0,0,0,.324.316.343.343,0,0,0,.382-.32Z" transform="translate(-169.55 -160.57)" fill="#263238"/>
          <path id="Path_5615" data-name="Path 5615" d="M237.328,205.23l-.219,2.5H236.4l.172-1.951h-.464l.047-.546Z" transform="translate(-181.83 -160.652)" fill="#263238"/>
          <path id="Path_5616" data-name="Path 5616" d="M242.018,205.218l-.039.441-1.058,2.057h-.78l1.011-1.951H240.5l-.035.39h-.6l.082-.944Z" transform="translate(-184.117 -160.639)" fill="#263238"/>
          <path id="Path_5617" data-name="Path 5617" d="M261.221,205.23l-.215,2.5H260.3l.168-1.951H260l.051-.546Z" transform="translate(-196.397 -160.652)" fill="#263238"/>
          <path id="Path_5618" data-name="Path 5618" d="M265.8,206.911c-.039.48-.507.78-1.171.78s-1.058-.308-1.015-.78a.722.722,0,0,1,.39-.581.538.538,0,0,1-.222-.5c.039-.445.468-.73,1.058-.73s.972.285.933.73a.671.671,0,0,1-.312.5.585.585,0,0,1,.34.581Zm-.706-.02c0-.191-.125-.308-.347-.308a.355.355,0,0,0-.39.308c0,.191.121.312.347.312a.363.363,0,0,0,.39-.312Zm-.581-1.03a.242.242,0,0,0,.273.261.293.293,0,0,0,.324-.261.248.248,0,0,0-.277-.265.293.293,0,0,0-.32.265Z" transform="translate(-198.599 -160.572)" fill="#263238"/>
          <path id="Path_5619" data-name="Path 5619" d="M285.1,205.23l-.219,2.5h-.706l.172-1.951h-.464l.047-.546Z" transform="translate(-210.958 -160.652)" fill="#263238"/>
          <path id="Path_5620" data-name="Path 5620" d="M289.666,206.337a1.389,1.389,0,0,1-1.452,1.37,1.319,1.319,0,0,1-.714-.183l.3-.507a.71.71,0,0,0,.449.129.652.652,0,0,0,.679-.578.905.905,0,0,1-.578.183.726.726,0,0,1-.78-.78.983.983,0,0,1,1.05-.855C289.315,205.108,289.736,205.529,289.666,206.337Zm-.73-.41c.02-.187-.105-.316-.32-.316a.343.343,0,0,0-.367.316.281.281,0,0,0,.316.316.347.347,0,0,0,.371-.316Z" transform="translate(-213.165 -160.58)" fill="#263238"/>
          <path id="Path_5621" data-name="Path 5621" d="M139.248,222.876l-.047.558H137.25l.039-.441,1.034-.9c.219-.187.258-.3.265-.39a.277.277,0,0,0-.3-.258.562.562,0,0,0-.464.242l-.5-.293a1.264,1.264,0,0,1,1.081-.519c.574,0,.944.3.9.757a1.1,1.1,0,0,1-.492.78l-.531.461Z" transform="translate(-121.55 -170.192)" fill="#263238"/>
          <path id="Path_5622" data-name="Path 5622" d="M143.038,222.156a1.254,1.254,0,0,1,1.218-1.3c.64,0,1.054.472.983,1.3a1.257,1.257,0,0,1-1.214,1.3C143.389,223.455,142.968,222.979,143.038,222.156Zm1.491,0c.047-.523-.1-.718-.324-.718s-.39.2-.457.718.1.722.328.722.406-.2.453-.722Z" transform="translate(-125.074 -170.182)" fill="#263238"/>
          <path id="Path_5623" data-name="Path 5623" d="M163.562,222.913l-.051.558H161.56l.039-.441,1.011-.874c.215-.187.254-.3.261-.39a.273.273,0,0,0-.3-.258.562.562,0,0,0-.468.242l-.5-.293a1.268,1.268,0,0,1,1.081-.519c.574,0,.944.3.905.757a1.112,1.112,0,0,1-.5.78l-.507.437Z" transform="translate(-136.373 -170.229)" fill="#263238"/>
          <path id="Path_5624" data-name="Path 5624" d="M168.479,221l-.219,2.5h-.718l.168-1.951h-.46L167.3,221Z" transform="translate(-139.842 -170.268)" fill="#263238"/>
          <path id="Path_5625" data-name="Path 5625" d="M188.682,222.912l-.051.558H186.68l.039-.441,1.011-.874c.219-.187.258-.3.265-.39a.278.278,0,0,0-.3-.258.562.562,0,0,0-.464.242l-.5-.293a1.264,1.264,0,0,1,1.081-.519c.574,0,.944.3.9.757a1.1,1.1,0,0,1-.492.78l-.5.437Z" transform="translate(-151.69 -170.229)" fill="#263238"/>
          <path id="Path_5626" data-name="Path 5626" d="M194.162,222.912l-.051.558H192.16l.039-.441,1.011-.874c.215-.187.254-.3.265-.39a.275.275,0,0,0-.3-.258.574.574,0,0,0-.468.242l-.5-.293a1.257,1.257,0,0,1,1.077-.519c.578,0,.944.3.905.757a1.1,1.1,0,0,1-.5.78l-.507.437Z" transform="translate(-155.031 -170.229)" fill="#263238"/>
          <path id="Path_5627" data-name="Path 5627" d="M212.588,222.876l-.047.558H210.59l.039-.441,1.019-.9c.215-.187.254-.3.261-.39a.273.273,0,0,0-.3-.258.562.562,0,0,0-.468.242l-.5-.293a1.268,1.268,0,0,1,1.081-.519c.574,0,.944.3.905.757a1.112,1.112,0,0,1-.5.78l-.507.437Z" transform="translate(-166.269 -170.192)" fill="#263238"/>
          <path id="Path_5628" data-name="Path 5628" d="M217.909,222.7c-.035.425-.39.831-1.171.831a1.8,1.8,0,0,1-.948-.246l.3-.531a1.171,1.171,0,0,0,.671.207c.242,0,.39-.094.421-.261s-.09-.242-.363-.242h-.3l.039-.445.488-.484h-.983l.047-.546h1.807l-.039.445-.566.554a.648.648,0,0,1,.589.718Z" transform="translate(-169.44 -170.255)" fill="#263238"/>
          <path id="Path_5629" data-name="Path 5629" d="M236.492,222.876l-.051.558H234.49l.039-.441,1.019-.9c.219-.187.258-.3.265-.39a.278.278,0,0,0-.3-.258.562.562,0,0,0-.464.242l-.5-.293a1.26,1.26,0,0,1,1.081-.519c.574,0,.944.3.9.757a1.1,1.1,0,0,1-.492.78l-.511.461Z" transform="translate(-180.842 -170.192)" fill="#263238"/>
          <path id="Path_5630" data-name="Path 5630" d="M242.388,223H242l-.043.476h-.667l.043-.476H240l.039-.46,1.257-1.561h.73l-1.143,1.46h.507l.035-.421h.667l-.035.421h.371Z" transform="translate(-184.202 -170.255)" fill="#263238"/>
          <path id="Path_5631" data-name="Path 5631" d="M260.4,222.913l-.047.558H258.4l.039-.441,1.011-.874c.215-.187.254-.3.261-.39a.273.273,0,0,0-.3-.258.562.562,0,0,0-.468.242l-.5-.293a1.268,1.268,0,0,1,1.081-.519c.574,0,.944.3.905.757a1.112,1.112,0,0,1-.5.78l-.507.437Z" transform="translate(-195.421 -170.229)" fill="#263238"/>
          <path id="Path_5632" data-name="Path 5632" d="M265.835,222.69c-.039.445-.41.851-1.171.851a1.772,1.772,0,0,1-.944-.246l.3-.531a1.171,1.171,0,0,0,.671.207c.242,0,.39-.1.425-.265s-.082-.254-.464-.254h-.679L264.22,221h1.592l-.051.546h-1l-.066.367h.168C265.617,221.905,265.874,222.245,265.835,222.69Z" transform="translate(-198.665 -170.268)" fill="#263238"/>
          <path id="Path_5633" data-name="Path 5633" d="M284.3,222.876l-.051.558H282.3l.039-.441,1.015-.9c.219-.187.254-.3.265-.39a.275.275,0,0,0-.3-.258.562.562,0,0,0-.464.242l-.5-.293a1.261,1.261,0,0,1,1.081-.519c.574,0,.944.3.9.757a1.1,1.1,0,0,1-.492.78l-.492.461Z" transform="translate(-209.995 -170.192)" fill="#263238"/>
          <path id="Path_5634" data-name="Path 5634" d="M290.182,222.6a.983.983,0,0,1-1.054.851c-.7,0-1.12-.421-1.05-1.229a1.389,1.389,0,0,1,1.448-1.366,1.323,1.323,0,0,1,.718.18l-.3.507a.738.738,0,0,0-.449-.129.652.652,0,0,0-.683.581.9.9,0,0,1,.581-.183.722.722,0,0,1,.788.788Zm-.687.031a.281.281,0,0,0-.316-.316.347.347,0,0,0-.39.32.289.289,0,0,0,.32.312.343.343,0,0,0,.386-.316Z" transform="translate(-213.513 -170.18)" fill="#263238"/>
          <path id="Path_5635" data-name="Path 5635" d="M137.878,238.625l-.047.562H135.88l.047-.445,1.011-.87c.215-.187.254-.3.261-.39a.274.274,0,0,0-.3-.254.554.554,0,0,0-.468.242l-.507-.289a1.26,1.26,0,0,1,1.081-.523c.574,0,.944.3.9.761a1.093,1.093,0,0,1-.492.78l-.511.433Z" transform="translate(-120.714 -179.814)" fill="#263238"/>
          <path id="Path_5636" data-name="Path 5636" d="M143.772,236.728l-.039.441-1.061,2.057h-.78l1.011-1.951h-.656l-.035.39h-.6l.082-.944Z" transform="translate(-124.208 -179.853)" fill="#263238"/>
          <path id="Path_5637" data-name="Path 5637" d="M162.182,238.618l-.051.562H160.18l.039-.445,1.011-.87c.215-.187.254-.3.265-.39a.272.272,0,0,0-.3-.254.562.562,0,0,0-.468.242l-.5-.293a1.249,1.249,0,0,1,1.077-.523c.578,0,.944.3.905.761a1.112,1.112,0,0,1-.5.78l-.507.433Z" transform="translate(-135.531 -179.808)" fill="#263238"/>
          <path id="Path_5638" data-name="Path 5638" d="M167.975,238.425c-.043.476-.507.78-1.171.78s-1.058-.308-1.019-.78a.718.718,0,0,1,.39-.581.539.539,0,0,1-.222-.5c.035-.445.468-.73,1.058-.73s.968.285.933.73a.675.675,0,0,1-.312.5A.585.585,0,0,1,167.975,238.425Zm-.706-.023c0-.191-.125-.308-.347-.308a.355.355,0,0,0-.39.308c0,.191.121.312.347.312A.363.363,0,0,0,167.269,238.4Zm-.581-1.03a.242.242,0,0,0,.273.261.293.293,0,0,0,.324-.261.249.249,0,0,0-.277-.265.293.293,0,0,0-.32.265Z" transform="translate(-138.948 -179.786)" fill="#263238"/>
          <path id="Path_5639" data-name="Path 5639" d="M187.308,238.619l-.047.562H185.31l.035-.445,1.015-.87c.215-.187.254-.3.261-.39a.274.274,0,0,0-.3-.254.554.554,0,0,0-.468.242l-.5-.293a1.26,1.26,0,0,1,1.081-.523c.574,0,.944.3.9.761a1.093,1.093,0,0,1-.492.78l-.488.429Z" transform="translate(-150.854 -179.808)" fill="#263238"/>
          <path id="Path_5640" data-name="Path 5640" d="M193.066,237.851a1.389,1.389,0,0,1-1.452,1.366,1.319,1.319,0,0,1-.714-.183l.3-.507a.71.71,0,0,0,.449.129.652.652,0,0,0,.679-.578.921.921,0,0,1-.578.183.722.722,0,0,1-.78-.78.983.983,0,0,1,1.05-.855C192.715,236.618,193.136,237.039,193.066,237.851Zm-.73-.414a.285.285,0,0,0-.32-.316.343.343,0,0,0-.367.316.277.277,0,0,0,.312.316A.351.351,0,0,0,192.336,237.437Z" transform="translate(-154.263 -179.794)" fill="#263238"/>
          <path id="Path_5641" data-name="Path 5641" d="M211.059,238.457c-.039.421-.41.831-1.171.831a1.814,1.814,0,0,1-.948-.246l.3-.535a1.171,1.171,0,0,0,.675.207c.238,0,.39-.09.418-.258s-.09-.242-.359-.242h-.3l.039-.449.488-.48h-.983l.047-.546h1.8l-.039.441-.566.558a.648.648,0,0,1,.589.718Z" transform="translate(-165.263 -179.865)" fill="#263238"/>
          <path id="Path_5642" data-name="Path 5642" d="M215.048,237.91a1.26,1.26,0,0,1,1.218-1.3c.64,0,1.054.476.983,1.3a1.257,1.257,0,0,1-1.214,1.3C215.4,239.209,214.978,238.733,215.048,237.91Zm1.491,0c.047-.523-.1-.722-.324-.722s-.41.2-.457.722.1.722.328.722S216.492,238.432,216.539,237.91Z" transform="translate(-168.983 -179.786)" fill="#263238"/>
          <path id="Path_5643" data-name="Path 5643" d="M146.139,134.48l-1.319,1.342,1.069,1.483Z" transform="translate(-126.165 -117.511)" fill="#263238"/>
          <path id="Path_5644" data-name="Path 5644" d="M296.22,134.48l1.081,1.342-1.331,1.483Z" transform="translate(-218.33 -117.511)" fill="#263238"/>
          <path id="Path_5645" data-name="Path 5645" d="M215.246,137.305H191.57l.246-2.825h23.676Z" transform="translate(-154.671 -117.511)" fill="#263238"/>
          <path id="Path_5646" data-name="Path 5646" d="M328.958,182.416H302.09l5.019-57.346h26.868Z" transform="translate(-222.062 -111.774)" fill="#f7b74e"/>
          <g id="Group_2790" data-name="Group 2790" transform="translate(80.028 13.296)" opacity="0.3">
            <path id="Path_5647" data-name="Path 5647" d="M328.958,182.416H302.09l5.019-57.346h26.868Z" transform="translate(-302.09 -125.07)"/>
          </g>
          <g id="Group_2791" data-name="Group 2791" transform="translate(86.045 24.43)" opacity="0.8">
            <path id="Path_5648" data-name="Path 5648" d="M321.212,165.463H318.6a1.069,1.069,0,0,1-1.085-1.171l.835-9.522a1.315,1.315,0,0,1,1.288-1.171h2.619a1.073,1.073,0,0,1,1.085,1.171l-.831,9.522A1.319,1.319,0,0,1,321.212,165.463Z" transform="translate(-317.508 -153.6)" fill="#fff"/>
          </g>
          <path id="Path_5649" data-name="Path 5649" d="M323.689,168.447c-.039.425-.39.831-1.171.831a1.8,1.8,0,0,1-.948-.246l.3-.531a1.171,1.171,0,0,0,.675.207c.238,0,.39-.094.418-.261s-.09-.242-.359-.242h-.3l.039-.445.488-.484h-.987l.051-.546h1.8l-.039.445-.566.554a.648.648,0,0,1,.589.718Z" transform="translate(-233.94 -137.176)" fill="#263238"/>
          <path id="Path_5650" data-name="Path 5650" d="M346.866,165.463H334.077a1.069,1.069,0,0,1-1.085-1.171l.831-9.522a1.323,1.323,0,0,1,1.292-1.171h12.792a1.069,1.069,0,0,1,1.081,1.171l-.831,9.522A1.323,1.323,0,0,1,346.866,165.463Z" transform="translate(-240.902 -129.17)" fill="#f7b74e"/>
          <path id="Path_5651" data-name="Path 5651" d="M343.616,202.553H330.828a1.073,1.073,0,0,1-1.085-1.171l.835-9.522a1.323,1.323,0,0,1,1.292-1.171h12.8a1.073,1.073,0,0,1,1.085,1.171l-.835,9.522a1.323,1.323,0,0,1-1.3,1.171Z" transform="translate(-238.921 -151.786)" fill="#263238"/>
          <path id="Path_5652" data-name="Path 5652" d="M340.376,239.653H327.583a1.069,1.069,0,0,1-1.081-1.171l.831-9.522a1.323,1.323,0,0,1,1.292-1.171h12.788a1.069,1.069,0,0,1,1.085,1.171l-.835,9.522A1.315,1.315,0,0,1,340.376,239.653Z" transform="translate(-236.944 -174.407)" fill="#f7b74e"/>
          <g id="Group_2792" data-name="Group 2792" transform="translate(84.784 38.904)" opacity="0.8">
            <path id="Path_5653" data-name="Path 5653" d="M317.982,202.553h-2.619a1.069,1.069,0,0,1-1.081-1.171l.831-9.522a1.323,1.323,0,0,1,1.292-1.171h2.619a1.069,1.069,0,0,1,1.081,1.171l-.831,9.522a1.323,1.323,0,0,1-1.292,1.171Z" transform="translate(-314.278 -190.69)" fill="#fff"/>
          </g>
          <path id="Path_5654" data-name="Path 5654" d="M318.464,201.81l-.219,2.5h-.7l.172-1.951h-.464l.047-.546Z" transform="translate(-231.306 -158.566)" fill="#263238"/>
          <path id="Path_5655" data-name="Path 5655" d="M322.549,203.527c-.035.425-.39.831-1.171.831a1.8,1.8,0,0,1-.948-.246l.3-.531a1.217,1.217,0,0,0,.675.207c.238,0,.39-.094.418-.261s-.086-.242-.359-.242h-.3l.039-.445.488-.484h-.983l.047-.546h1.807l-.039.445-.566.554a.644.644,0,0,1,.589.718Z" transform="translate(-233.245 -158.566)" fill="#263238"/>
          <g id="Group_2793" data-name="Group 2793" transform="translate(83.516 53.382)" opacity="0.8">
            <path id="Path_5656" data-name="Path 5656" d="M314.732,239.653h-2.615a1.069,1.069,0,0,1-1.085-1.171l.831-9.522a1.323,1.323,0,0,1,1.292-1.171h2.619a1.073,1.073,0,0,1,1.085,1.171l-.835,9.522A1.323,1.323,0,0,1,314.732,239.653Z" transform="translate(-311.028 -227.79)" fill="#fff"/>
          </g>
          <path id="Path_5657" data-name="Path 5657" d="M344.218,137.5H328.07l.265-3.024H344.48Z" transform="translate(-237.903 -117.511)" fill="#fff"/>
          <path id="Path_5658" data-name="Path 5658" d="M225.984,112.337a1.725,1.725,0,0,1,1.787-1.561,1.46,1.46,0,0,1,1.245.566l-.585.492a.8.8,0,0,0-.675-.351.894.894,0,0,0-.913.859.73.73,0,0,0,.761.859.98.98,0,0,0,.741-.355l.5.492a1.748,1.748,0,0,1-1.342.566,1.4,1.4,0,0,1-1.514-1.565Z" transform="translate(-175.649 -103.056)" fill="#fff"/>
          <path id="Path_5659" data-name="Path 5659" d="M235.533,113.35h-1.268l-.289.585h-.866l1.588-3h.839l1.065,3h-.882Zm-.191-.628-.3-.96-.468.96Z" transform="translate(-180.001 -103.152)" fill="#fff"/>
          <path id="Path_5660" data-name="Path 5660" d="M242.941,110.93h.851l-.2,2.341h1.432l-.059.675H242.68Z" transform="translate(-185.836 -103.152)" fill="#fff"/>
          <path id="Path_5661" data-name="Path 5661" d="M251.86,113.275l-.059.66H249.39l.261-3h2.341l-.059.656H250.42l-.043.507h1.335l-.055.632h-1.335l-.051.55Z" transform="translate(-189.928 -103.152)" fill="#fff"/>
          <path id="Path_5662" data-name="Path 5662" d="M259.926,110.93l-.261,3h-.7l-1.171-1.6-.141,1.6h-.831l.261-3h.7l1.171,1.6.14-1.6Z" transform="translate(-194.458 -103.152)" fill="#fff"/>
          <path id="Path_5663" data-name="Path 5663" d="M265.954,110.93h1.436c1,0,1.627.578,1.561,1.5a1.657,1.657,0,0,1-1.811,1.5h-1.42Zm1.171,2.341a.866.866,0,0,0,.929-.823.714.714,0,0,0-.781-.827h-.535l-.144,1.651Z" transform="translate(-199.885 -103.152)" fill="#fff"/>
          <path id="Path_5664" data-name="Path 5664" d="M276.123,113.35h-1.268l-.289.585H273.7l1.588-3h.839l1.065,3h-.882Zm-.191-.628-.3-.96-.468.96Z" transform="translate(-204.751 -103.152)" fill="#fff"/>
          <path id="Path_5665" data-name="Path 5665" d="M284.651,113.1h-.461l-.07.78h-.851l.261-3h1.374c.82,0,1.3.421,1.237,1.112a1.108,1.108,0,0,1-.671.948l.566.944h-.921Zm.144-1.538h-.46l-.078.882h.468c.355,0,.542-.164.566-.437S285.147,111.567,284.8,111.567Z" transform="translate(-210.586 -103.121)" fill="#fff"/>
          <path id="Path_5666" data-name="Path 5666" d="M145.5,114.741h-.39a.562.562,0,0,1-.57-.62l.035-.39a.691.691,0,0,1,.675-.62h.39a.562.562,0,0,1,.57.62l-.035.39A.691.691,0,0,1,145.5,114.741Z" transform="translate(-125.99 -104.481)" fill="#fff"/>
          <path id="Path_5667" data-name="Path 5667" d="M151.8,114.741h-.39a.558.558,0,0,1-.566-.62l.035-.39a.691.691,0,0,1,.675-.62h.39a.558.558,0,0,1,.566.62l-.031.39a.7.7,0,0,1-.679.62Z" transform="translate(-129.837 -104.481)" fill="#fff"/>
          <path id="Path_5668" data-name="Path 5668" d="M158.071,114.741h-.39a.558.558,0,0,1-.566-.62l.035-.39a.687.687,0,0,1,.671-.62h.39a.558.558,0,0,1,.566.62l-.035.39a.687.687,0,0,1-.671.62Z" transform="translate(-133.66 -104.481)" fill="#fff"/>
          <path id="Path_5669" data-name="Path 5669" d="M314.792,242.656l-.051.558H312.79l.039-.441,1.011-.874c.215-.187.254-.3.265-.39,0-.164-.086-.258-.3-.258a.57.57,0,0,0-.468.242l-.5-.293a1.249,1.249,0,0,1,1.077-.523c.574,0,.944.3.905.761a1.112,1.112,0,0,1-.5.78l-.507.437Z" transform="translate(-228.586 -182.265)" fill="#263238"/>
          <path id="Path_5670" data-name="Path 5670" d="M320.119,242.5c-.039.425-.41.831-1.171.831a1.8,1.8,0,0,1-.948-.246l.3-.531a1.2,1.2,0,0,0,.675.207c.238,0,.39-.094.418-.261s-.09-.242-.359-.242h-.3l.039-.449.488-.48h-.987l.051-.546h1.8l-.039.445-.566.554a.648.648,0,0,1,.589.718Z" transform="translate(-231.763 -182.329)" fill="#263238"/>
          <path id="Path_5671" data-name="Path 5671" d="M350.494,165.36H339.95l.035-.39H350.53Z" transform="translate(-245.147 -136.103)" fill="#fff"/>
          <path id="Path_5672" data-name="Path 5672" d="M344.828,169.87H339.56l.031-.39h5.272Z" transform="translate(-244.909 -138.853)" fill="#fff"/>
          <path id="Path_5673" data-name="Path 5673" d="M344,239.51H333.46l.035-.39h10.544Z" transform="translate(-241.19 -181.316)" fill="#fff"/>
          <path id="Path_5674" data-name="Path 5674" d="M338.342,244.03H333.07l.031-.39h5.272Z" transform="translate(-240.952 -184.072)" fill="#fff"/>
          <path id="Path_5675" data-name="Path 5675" d="M347.274,202.19H336.73l.031-.39h10.544Z" transform="translate(-243.184 -158.56)" fill="#fff"/>
          <path id="Path_5676" data-name="Path 5676" d="M341.6,206.7H336.33l.035-.39h5.272Z" transform="translate(-242.94 -161.31)" fill="#fff"/>
          <path id="Path_5677" data-name="Path 5677" d="M367.191,157.226c.23-.554.082-.956.628-.956s.269.39.464.956c.1.277-.265.226-.566.226S367.07,157.511,367.191,157.226Z" transform="translate(-261.743 -130.798)" fill="#fff"/>
          <path id="Path_5678" data-name="Path 5678" d="M368.543,156.169a.164.164,0,0,1-.164-.18.2.2,0,0,1,.2-.18.16.16,0,0,1,.164.18A.2.2,0,0,1,368.543,156.169Zm.023-.265a.1.1,0,0,0-.094.086.078.078,0,0,0,.078.086.1.1,0,0,0,.094-.086.078.078,0,0,0-.078-.086Z" transform="translate(-262.481 -130.517)" fill="#fff"/>
          <path id="Path_5679" data-name="Path 5679" d="M363.956,194.512c.23-.554.082-.952.628-.952s.269.39.464.952c.1.277-.265.23-.566.23S363.823,194.789,363.956,194.512Z" transform="translate(-259.767 -153.536)" fill="#fff"/>
          <path id="Path_5680" data-name="Path 5680" d="M365.283,193.439a.164.164,0,0,1-.164-.18.2.2,0,0,1,.2-.18.16.16,0,0,1,.164.18A.2.2,0,0,1,365.283,193.439Zm.023-.265a.1.1,0,0,0-.094.086.078.078,0,0,0,.078.086.1.1,0,0,0,.094-.086.078.078,0,0,0-.078-.09Z" transform="translate(-260.493 -153.243)" fill="#fff"/>
          <path id="Path_5681" data-name="Path 5681" d="M360.671,231.736c.23-.554.082-.956.628-.956s.269.39.464.956c.1.273-.265.226-.566.226S360.55,232.037,360.671,231.736Z" transform="translate(-257.767 -176.231)" fill="#fff"/>
          <path id="Path_5682" data-name="Path 5682" d="M362.023,230.679a.164.164,0,0,1-.164-.18.2.2,0,0,1,.2-.18.16.16,0,0,1,.164.18A.2.2,0,0,1,362.023,230.679Zm.023-.265a.1.1,0,0,0-.094.086.078.078,0,0,0,.078.086.094.094,0,0,0,.094-.086.078.078,0,0,0-.078-.086Z" transform="translate(-258.506 -175.95)" fill="#fff"/>
          <path id="Path_5683" data-name="Path 5683" d="M125.224,91.11,104.99,166.79h6.81l20.012-75.68Z" transform="translate(-101.879 -91.066)" fill="#fff" opacity="0.2"/>
          <path id="Path_5684" data-name="Path 5684" d="M152.144,91.11,131.91,166.79h13.5l20.012-75.68Z" transform="translate(-118.293 -91.066)" fill="#fff" opacity="0.2"/>
        </g>
      </g>
      <circle id="Ellipse_499" data-name="Ellipse 499" cx="2.892" cy="2.892" r="2.892" transform="translate(4.145 38.583) rotate(-76.72)" fill="#fff" opacity="0.4"/>
      <path id="Path_5685" data-name="Path 5685" d="M384.906,182.108a1.444,1.444,0,1,1-.422-1.024,1.448,1.448,0,0,1,.422,1.024Z" transform="translate(-270.793 -145.67)" fill="#fff" opacity="0.4"/>
      <path id="Path_5686" data-name="Path 5686" d="M336.1,117.907a.57.57,0,0,1-.554.511.46.46,0,0,1-.464-.511.566.566,0,0,1,.554-.507.457.457,0,0,1,.464.507Z" transform="translate(-242.179 -107.097)" fill="#fff"/>
      <path id="Path_5687" data-name="Path 5687" d="M335.792,114.457l-.246.418a2.146,2.146,0,0,0-.894-.176,1.869,1.869,0,0,0-.8.18l-.2-.418a2.544,2.544,0,0,1,2.142,0Z" transform="translate(-241.306 -105.16)" fill="#fff"/>
      <path id="Path_5688" data-name="Path 5688" d="M335.63,111.236l-.25.421a3.3,3.3,0,0,0-1.495-.312,3.266,3.266,0,0,0-1.44.336l-.2-.414a3.735,3.735,0,0,1,1.678-.39A3.676,3.676,0,0,1,335.63,111.236Z" transform="translate(-240.452 -103.118)" fill="#fff"/>
      <path id="Path_5689" data-name="Path 5689" d="M335.452,108l-.25.433a4.339,4.339,0,0,0-2.1-.437,4.632,4.632,0,0,0-2.088.476l-.191-.39a5.2,5.2,0,0,1,2.322-.542A4.851,4.851,0,0,1,335.452,108Z" transform="translate(-239.58 -101.082)" fill="#fff"/>
      <path id="Path_5690" data-name="Path 5690" d="M356.76,112.379a2.267,2.267,0,0,1-2.291-2.509,2.8,2.8,0,0,1,2.732-2.509v.109a2.669,2.669,0,0,0-2.607,2.4,2.166,2.166,0,0,0,2.189,2.4Z" transform="translate(-253.993 -100.975)" fill="#fff"/>
      <path id="Path_5691" data-name="Path 5691" d="M356.694,112.324h-.1a2.341,2.341,0,0,1-2.38-2.607,2.911,2.911,0,0,1,2.837-2.607h.1l-.027.3h-.1a2.564,2.564,0,0,0-2.5,2.3,2.076,2.076,0,0,0,2.1,2.3h.1Z" transform="translate(-253.837 -100.822)" fill="#fff"/>
      <path id="Path_5692" data-name="Path 5692" d="M360.36,112.378v-.109a2.669,2.669,0,0,0,2.607-2.4,2.166,2.166,0,0,0-2.189-2.4v-.109a2.26,2.26,0,0,1,2.287,2.509A2.794,2.794,0,0,1,360.36,112.378Z" transform="translate(-257.592 -100.974)" fill="#fff"/>
      <path id="Path_5693" data-name="Path 5693" d="M360.188,112.323h-.1l.027-.3h.1a2.564,2.564,0,0,0,2.5-2.3,2.076,2.076,0,0,0-2.1-2.3h-.1l.027-.3h.1a2.341,2.341,0,0,1,2.377,2.607A2.9,2.9,0,0,1,360.188,112.323Z" transform="translate(-257.428 -100.822)" fill="#fff"/>
      <path id="Path_5694" data-name="Path 5694" d="M362.49,109.881h-.109a2.761,2.761,0,0,0-.991-2.408l.066-.094A2.867,2.867,0,0,1,362.49,109.881Z" transform="translate(-258.22 -100.987)" fill="#fff"/>
      <path id="Path_5695" data-name="Path 5695" d="M362.355,109.707h-.3v-.1a2.721,2.721,0,0,0-.956-2.341l-.074-.051.187-.258.074.051a2.906,2.906,0,0,1,1.073,2.583Z" transform="translate(-257.995 -100.731)" fill="#fff"/>
      <path id="Path_5696" data-name="Path 5696" d="M360.375,116.091,360.32,116a3.34,3.34,0,0,0,1.413-2.408h.113A3.485,3.485,0,0,1,360.375,116.091Z" transform="translate(-257.568 -104.774)" fill="#fff"/>
      <path id="Path_5697" data-name="Path 5697" d="M360.13,116.057l-.14-.258.086-.051a3.224,3.224,0,0,0,1.358-2.341v-.1h.3v.1a3.594,3.594,0,0,1-1.526,2.583Z" transform="translate(-257.367 -104.603)" fill="#fff"/>
      <path id="Path_5698" data-name="Path 5698" d="M357.749,109.881h-.109a3.473,3.473,0,0,1,1.471-2.5l.051.094A3.356,3.356,0,0,0,357.749,109.881Z" transform="translate(-255.934 -100.987)" fill="#fff"/>
      <path id="Path_5699" data-name="Path 5699" d="M357.674,109.732h-.3v-.1a3.59,3.59,0,0,1,1.522-2.583l.086-.051.144.258-.086.051a3.231,3.231,0,0,0-1.362,2.341Z" transform="translate(-255.769 -100.755)" fill="#fff"/>
      <path id="Path_5700" data-name="Path 5700" d="M358.67,116.091a2.867,2.867,0,0,1-1.034-2.5h.113A2.76,2.76,0,0,0,358.74,116Z" transform="translate(-255.925 -104.774)" fill="#fff"/>
      <path id="Path_5701" data-name="Path 5701" d="M358.536,116.082l-.078-.051a2.965,2.965,0,0,1-1.073-2.583v-.1h.3v.1a2.708,2.708,0,0,0,.952,2.341l.078.051Z" transform="translate(-255.772 -104.627)" fill="#fff"/>
      <path id="Path_5702" data-name="Path 5702" d="M360.339,112.409h-.109l.429-4.909h.113Z" transform="translate(-257.513 -101.06)" fill="#fff"/>
      <path id="Path_5703" data-name="Path 5703" d="M360.264,112.354h-.3l.449-5.1h.3Z" transform="translate(-257.348 -100.908)" fill="#fff"/>
      <path id="Path_5704" data-name="Path 5704" d="M360.036,110.409H355.88l.012-.109h4.152Z" transform="translate(-254.86 -102.768)" fill="#fff"/>
      <path id="Path_5705" data-name="Path 5705" d="M359.961,110.354H355.61l.027-.3h4.347Z" transform="translate(-254.696 -102.615)" fill="#fff"/>
      <path id="Path_5706" data-name="Path 5706" d="M359.525,113.869H354.62l.008-.109h4.905Z" transform="translate(-254.092 -104.877)" fill="#fff"/>
      <path id="Path_5707" data-name="Path 5707" d="M359.444,113.814h-5.1l.027-.3h5.1Z" transform="translate(-253.921 -104.725)" fill="#fff"/>
      <path id="Path_5708" data-name="Path 5708" d="M359.463,117.319H355.42l.008-.109h4.047Z" transform="translate(-254.58 -106.981)" fill="#fff"/>
      <path id="Path_5709" data-name="Path 5709" d="M359.382,117.264H355.14l.027-.3h4.242Z" transform="translate(-254.409 -106.829)" fill="#fff"/>
    </g>
    <g id="freepik--Character--inject-5" transform="translate(42.278 138.272)">
      <g id="freepik--group--inject-5-2" data-name="freepik--group--inject-5" transform="translate(0 0)">
        <path id="Path_5710" data-name="Path 5710" d="M236.266,396.8l2.775-2.3-7-6.646L229.05,390.4Z" transform="translate(-181.943 -341.229)" fill="#cb7a63"/>
        <path id="Path_5711" data-name="Path 5711" d="M256.906,402.5a1.44,1.44,0,0,0-.964.047c-.187.055-.39.117-.554.183s-.261.1-.363.14l-.312.137a.09.09,0,0,0-.059.082.058.058,0,0,0,0,.039.109.109,0,0,0,.059.043,6.6,6.6,0,0,0,1.206.2,1.447,1.447,0,0,0,.593-.043h.027a1.627,1.627,0,0,0,.316-.141.5.5,0,0,0,.183-.433.3.3,0,0,0-.133-.258Zm-.039.254a.3.3,0,0,1-.121.293.7.7,0,0,1-.316.129,1.821,1.821,0,0,1-.476.023,5.225,5.225,0,0,1-.738-.09l-.183-.039a4.919,4.919,0,0,1,1.034-.359,4.153,4.153,0,0,1,.578-.1.316.316,0,0,1,.168.043A.117.117,0,0,1,256.867,402.758Z" transform="translate(-197.553 -350.127)" fill="#f7b74e"/>
        <path id="Path_5712" data-name="Path 5712" d="M256.129,398.834a.652.652,0,0,0-.441.285.778.778,0,0,0-.078.148,2.685,2.685,0,0,0-.086,1.4s0,.02,0,.02a.086.086,0,0,0,.059.07.067.067,0,0,0,.055,0,.055.055,0,0,0,.035-.02,2.226,2.226,0,0,0,.211-.215,3.422,3.422,0,0,0,.332-.468c.242-.39.414-.835.308-1.065C256.484,398.893,256.382,398.791,256.129,398.834Zm.234.23c.066.152-.066.5-.261.843a3.322,3.322,0,0,1-.421.585,2.622,2.622,0,0,1,.055-1.058.757.757,0,0,1,.1-.211.488.488,0,0,1,.269-.2h.055C256.324,398.986,256.355,399.049,256.363,399.064Z" transform="translate(-198.051 -347.921)" fill="#f7b74e"/>
        <path id="Path_5713" data-name="Path 5713" d="M248,404.07l-3.489,1.776a.308.308,0,0,0-.164.367l1.03,3.266a.609.609,0,0,0,.78.39l.062-.023a35.057,35.057,0,0,0,8.433-3.93c1.78-.972.78-2.232.113-2.076-2.981.714-3.98.531-5.272.2A3.184,3.184,0,0,0,248,404.07Z" transform="translate(-191.264 -350.971)" fill="#263238"/>
        <path id="Path_5714" data-name="Path 5714" d="M232.039,387.86,235.587,391l-2.989,2.552-3.547-3.141Z" transform="translate(-181.943 -341.235)" opacity="0.2"/>
        <path id="Path_5715" data-name="Path 5715" d="M231.262,393.268l4.457-4.113-.98-1.725-5.159,4.429Z" transform="translate(-182.266 -340.973)" fill="#f7b74e"/>
        <path id="Path_5716" data-name="Path 5716" d="M172.53,364.433l-.6.515-.89.78-.535.457-1.561,1.335-.3.258a76.276,76.276,0,0,1-9.889-6.634c-2.423-2.1-2.642-2.872-2.9-2.677-3.415,2.6-13.522,11.582-19.255,16.258-.183.023-.371.039-.558.055a17.091,17.091,0,0,1-7.337-.823c-.02-2.486,2.1-8.289,2.279-8.851a98.749,98.749,0,0,1,22.154-15.516c.133-.066.273-.125.414-.183s.355-.152.535-.215a6.9,6.9,0,0,1,2.1-.476,4.632,4.632,0,0,1,1.783.281,6.8,6.8,0,0,1,.948.418,8.583,8.583,0,0,1,.78.46c.421.269.831.57,1.221.866.874.675,7.493,9.2,11.052,13.132h0A6.253,6.253,0,0,1,172.53,364.433Z" transform="translate(-120.759 -317.364)" fill="#f7b74e"/>
        <g id="Group_2794" data-name="Group 2794" transform="translate(7.95 31.347)" opacity="0.6">
          <path id="Path_5717" data-name="Path 5717" d="M172.53,364.433l-.6.515-.89.78-.535.457-1.561,1.335-.3.258a76.276,76.276,0,0,1-9.889-6.634c-2.423-2.1-2.642-2.872-2.9-2.677-3.415,2.6-13.522,11.582-19.255,16.258-.183.023-.371.039-.558.055a17.091,17.091,0,0,1-7.337-.823c-.02-2.486,2.1-8.289,2.279-8.851a98.749,98.749,0,0,1,22.154-15.516c.133-.066.273-.125.414-.183s.355-.152.535-.215a6.9,6.9,0,0,1,2.1-.476,4.632,4.632,0,0,1,1.783.281,6.8,6.8,0,0,1,.948.418,8.583,8.583,0,0,1,.78.46c.421.269.831.57,1.221.866.874.675,7.493,9.2,11.052,13.132h0A6.253,6.253,0,0,1,172.53,364.433Z" transform="translate(-128.71 -348.711)"/>
        </g>
        <path id="Path_5718" data-name="Path 5718" d="M241.561,399.248l3.009-2.935L238.747,389l-3.637,2.146Z" transform="translate(-185.638 -341.931)" fill="#cb7a63"/>
        <path id="Path_5719" data-name="Path 5719" d="M263.715,405.4c-.336-.117-1.019.258-1.561.589l-.347.23h0l-.055.039-.234.168a.09.09,0,0,0-.043.1.094.094,0,0,0,.086.07,7.642,7.642,0,0,0,1.077-.035l.234-.027a1.5,1.5,0,0,0,.726-.25,1.77,1.77,0,0,0,.215-.168.527.527,0,0,0,.1-.5A.34.34,0,0,0,263.715,405.4Zm0,.277a.34.34,0,0,1-.062.336,1.065,1.065,0,0,1-.593.3,4.293,4.293,0,0,1-.8.109h-.39l.129-.1.094-.066a5.073,5.073,0,0,1,1.366-.679.328.328,0,0,1,.183,0,.113.113,0,0,1,.1.105Z" transform="translate(-201.712 -351.915)" fill="#f7b74e"/>
        <path id="Path_5720" data-name="Path 5720" d="M262.2,402.179a.7.7,0,0,0-.39.39,2.612,2.612,0,0,0,.18,1.666h0a.1.1,0,0,0,.078.059.1.1,0,0,0,.059,0,.039.039,0,0,0,.031-.023h0a1.642,1.642,0,0,0,.164-.265c.289-.542.558-1.448.324-1.76C262.581,402.16,262.452,402.082,262.2,402.179Zm-.1,1.838a2.252,2.252,0,0,1-.121-1.366.5.5,0,0,1,.238-.269l.051-.027c.168-.066.211,0,.226,0,.168.242-.09,1.163-.394,1.678Z" transform="translate(-201.865 -349.939)" fill="#f7b74e"/>
        <path id="Path_5721" data-name="Path 5721" d="M237.79,387.85l2.74,3.508-3.707,2.064-2.782-3.415Z" transform="translate(-184.985 -341.229)" opacity="0.2"/>
        <path id="Path_5722" data-name="Path 5722" d="M163.441,365.856l-.761.429h0l-1.307.738-1.171.656h0l-1.206.679h0l-.449.281-.289-.211-.246-.18c-.289-.215-.687-.515-1.171-.882h0c-2.423-1.916-6.736-5.678-8.02-9.1-.831.991-1.8,2.256-2.962,3.6-9.046,10.5-18.708,17.9-31.977,14.716-5.764-1.385-5.545-9.366-5.545-9.366,0-3.017,2.236-6.119,2.236-6.119l17.651,1.37a51.731,51.731,0,0,1,12.343-10.537c.117-.074.238-.144.359-.207s.3-.172.449-.254a20.124,20.124,0,0,1,4.8-1.951c.343-.082.683-.156,1.015-.2a9.63,9.63,0,0,1,1.038-.1h0a6.032,6.032,0,0,1,5.83,3.141l9.12,13.143Z" transform="translate(-108.337 -317.667)" fill="#f7b74e"/>
        <path id="Path_5723" data-name="Path 5723" d="M163.441,365.856l-.761.429h0l-1.307.738-1.171.656h0l-1.206.679h0l-.449.281-.289-.211-.246-.18c-.289-.215-.687-.515-1.171-.882h0c-2.423-1.916-6.736-5.678-8.02-9.1-.831.991-1.8,2.256-2.962,3.6-9.046,10.5-18.708,17.9-31.977,14.716-5.764-1.385-5.545-9.366-5.545-9.366,0-3.017,2.236-6.119,2.236-6.119l17.651,1.37a51.731,51.731,0,0,1,12.343-10.537c.117-.074.238-.144.359-.207s.3-.172.449-.254a20.124,20.124,0,0,1,4.8-1.951c.343-.082.683-.156,1.015-.2a9.63,9.63,0,0,1,1.038-.1h0a6.032,6.032,0,0,1,5.83,3.141l9.12,13.143Z" transform="translate(-108.337 -317.667)" opacity="0.5"/>
        <path id="Path_5724" data-name="Path 5724" d="M233.025,393.307l5.83-2.915-.5-2.072-6.646,3.032Z" transform="translate(-183.564 -341.516)" fill="#f7b74e"/>
        <path id="Path_5725" data-name="Path 5725" d="M252.088,406.9l-4.02,1.218a.336.336,0,0,0-.242.359l.488,3.645a.663.663,0,0,0,.749.542h.07c6.712-1.12,8.929-2.341,9.651-2.6,2.064-.7,1.237-2.217.507-2.174-3.29.2-4.312-.176-5.616-.78A3.3,3.3,0,0,0,252.088,406.9Z" transform="translate(-193.391 -352.83)" fill="#263238"/>
        <path id="Path_5726" data-name="Path 5726" d="M186.628,343.624H174.14a.578.578,0,0,1-.585-.64l.695-7.984a.71.71,0,0,1,.695-.64h12.488a.578.578,0,0,1,.585.64l-.7,7.988a.714.714,0,0,1-.691.636Z" transform="translate(-148.102 -308.613)" fill="#263238"/>
        <path id="Path_5727" data-name="Path 5727" d="M188.357,343.929H176.38l.706-8.039h11.973Z" transform="translate(-149.827 -309.546)" fill="#fff" opacity="0.9"/>
        <path id="Path_5728" data-name="Path 5728" d="M175.72,344.765a.355.355,0,1,1-.351-.355.351.351,0,0,1,.351.355Z" transform="translate(-148.991 -314.742)" opacity="0.4"/>
        <path id="Path_5729" data-name="Path 5729" d="M208.851,344.586a.176.176,0,1,1-.176-.176A.176.176,0,0,1,208.851,344.586Z" transform="translate(-169.412 -314.742)" opacity="0.4"/>
        <path id="Path_5730" data-name="Path 5730" d="M128.534,299c.445,2.443-.2,5.717-1.924,7.321a58.486,58.486,0,0,0,7.6,10.459c3.871-6.213.55-10.252.55-10.252-2.712-.683-2.63-1.783-2.135-3.664Z" transform="translate(-119.479 -287.053)" fill="#cb7a63"/>
        <path id="Path_5731" data-name="Path 5731" d="M126.94,312.619a3.075,3.075,0,0,1,1.381-1.46c.593-.347,6.244.3,7.629.968A3.707,3.707,0,0,1,137.789,314Z" transform="translate(-119.68 -294.408)" fill="#f7b74e"/>
        <path id="Path_5732" data-name="Path 5732" d="M167.583,293.8l2.513,1.171a5.175,5.175,0,0,1,.211,2.033c-.144.859-.531,1.143-1.951.55h0A4.887,4.887,0,0,1,167.583,293.8Z" transform="translate(-144.405 -283.882)" fill="#cb7a63"/>
        <path id="Path_5733" data-name="Path 5733" d="M169.4,289.542l.281.6.5.285a.722.722,0,0,1,.324.78l-.261,1.077-2.509-1.171.476-.948c.437-.667.78-.859,1.147-.683Z" transform="translate(-144.552 -281.212)" fill="#cb7a63"/>
        <path id="Path_5734" data-name="Path 5734" d="M137.855,313.182a52.83,52.83,0,0,0,3.614-10.478l-2.084-.234c-2.088,5.584-4.484,7.953-4.484,7.953s-11.754-1.979-13.214-1.288c-2.365,1.116-1.1,3.555.39,4.172s9.908,2,13.8,1.522A2.626,2.626,0,0,0,137.855,313.182Z" transform="translate(-115.677 -289.168)" fill="#cb7a63"/>
        <g id="Group_2795" data-name="Group 2795" transform="translate(31.221 10.878)" opacity="0.2">
          <path id="Path_5735" data-name="Path 5735" d="M188.352,296.26l-.008.008,0,0Z" transform="translate(-188.34 -296.26)"/>
        </g>
        <path id="Path_5736" data-name="Path 5736" d="M134.211,319.98c2.365,7.645-5.506,8.745-3.512,21.042l-16.589-1.7c.917-6.338,3-4.683,1.538-17.011a11.614,11.614,0,0,1,1.237-6.505,4.859,4.859,0,0,1,2.455-2.158c1.3-.5,6.634.691,9.054,1.171C131.086,314.778,133.841,319.016,134.211,319.98Z" transform="translate(-111.857 -295.912)" fill="#f7b74e"/>
        <path id="Path_5737" data-name="Path 5737" d="M156.552,291.854c-.156.281-.125.57.051.667s.441-.039.593-.312.125-.57-.051-.667S156.7,291.585,156.552,291.854Z" transform="translate(-137.675 -282.486)" fill="#263238"/>
        <path id="Path_5738" data-name="Path 5738" d="M158,291.52l.753.172S158.14,292.016,158,291.52Z" transform="translate(-138.619 -282.492)" fill="#263238"/>
        <path id="Path_5739" data-name="Path 5739" d="M156.22,293.86a8.141,8.141,0,0,0,.734,2.135,1.335,1.335,0,0,1-1.124,0Z" transform="translate(-137.296 -283.918)" fill="#a02724"/>
        <path id="Path_5740" data-name="Path 5740" d="M157.087,286.78a.187.187,0,0,0,.117-.137.183.183,0,0,0-.144-.215,1.807,1.807,0,0,0-1.6.441.183.183,0,1,0,.238.277l.023-.023a1.452,1.452,0,0,1,1.268-.336A.164.164,0,0,0,157.087,286.78Z" transform="translate(-137.023 -279.363)" fill="#263238"/>
        <path id="Path_5741" data-name="Path 5741" d="M130.571,278.149c-.449,3.781-.722,5.374.82,7.637,2.318,3.4,7.071,3.122,8.636-.441,1.413-3.22,1.912-8.862-1.479-11.017a5.194,5.194,0,0,0-7.977,3.82Z" transform="translate(-121.68 -271.505)" fill="#cb7a63"/>
        <path id="Path_5742" data-name="Path 5742" d="M154.655,301.633a2.131,2.131,0,0,1-.6-.952.079.079,0,0,1,.152-.039,2.021,2.021,0,0,0,.507.831Z" transform="translate(-136.215 -288.02)" fill="#263238"/>
        <path id="Path_5743" data-name="Path 5743" d="M155.4,278.02a1.561,1.561,0,0,1-1.4,1.584c-.507,1.374-1.912,3.469-3.145,2.677a1.855,1.855,0,0,0,.921-2.923c-.812-.929-1.912-3.368,0-3.965A3.18,3.18,0,0,1,155.4,278.02Z" transform="translate(-134.182 -272.609)" fill="#263238"/>
        <path id="Path_5744" data-name="Path 5744" d="M129.186,272.254c-.535-2.213-3.723-3.938-6-3.867a9.607,9.607,0,0,0-6.033,2.864,6.381,6.381,0,0,0-1.982,2.884,2.883,2.883,0,0,0,1,3.161c-3.629,3.579-.929,5.03-.39,4.784.078.9-.535,1.428-1.358,2.018a3.179,3.179,0,0,0-1.171,2.006,2.006,2.006,0,0,0,.78,2.341,1.034,1.034,0,0,1,.656-1.389,2.431,2.431,0,0,0,3.227,3.18c-.359-.09-.862-.441-.921-.808a10.853,10.853,0,0,0,3.239.827,3.62,3.62,0,0,0,3-1.2A1.658,1.658,0,0,1,124.8,287.8a1.3,1.3,0,0,1,1.214,1.253c.71-.156,1-.94,1.042-1.662a1.686,1.686,0,0,0-.332-1.073,1.506,1.506,0,0,0-1.05-.527,1.378,1.378,0,0,1-.816-.648,1.069,1.069,0,0,1,.176-1.061c2.821-4.027,1.491-6.533,1.678-7.024s1.093.14,1.093.14A7.863,7.863,0,0,0,129.186,272.254Z" transform="translate(-111.276 -268.385)" fill="#263238"/>
        <path id="Path_5745" data-name="Path 5745" d="M143.484,290.156a3.321,3.321,0,0,0,.78,2.416c.761.886,1.787.359,2.111-.695.3-.948.254-2.552-.78-3.052A1.478,1.478,0,0,0,143.484,290.156Z" transform="translate(-129.761 -280.753)" fill="#cb7a63"/>
        <path id="Path_5746" data-name="Path 5746" d="M113.183,376.214l-.574,1.452c-.07.109.059.238.246.258l17.085,1.756c.148,0,.281-.047.3-.141l-.226-1.627c.023-.1-.1-.2-.265-.215l-16.277-1.561A.308.308,0,0,0,113.183,376.214Z" transform="translate(-110.93 -334.081)" fill="#f7b74e"/>
        <path id="Path_5747" data-name="Path 5747" d="M151.5,381.754h-.453c-.09,0-.16-.047-.152-.1l.238-1.951c0-.055.086-.1.176-.1h.453c.09,0,.16.047.152.105l-.238,1.951C151.672,381.707,151.594,381.754,151.5,381.754Z" transform="translate(-134.289 -336.199)" fill="#263238"/>
        <path id="Path_5748" data-name="Path 5748" d="M135.86,379.974h-.453c-.086,0-.156-.051-.148-.105l.238-1.951c0-.055.086-.1.176-.1h.453c.086,0,.16.047.148.109l-.234,1.932C136.032,379.935,135.938,379.974,135.86,379.974Z" transform="translate(-124.753 -335.113)" fill="#f7b74e"/>
        <path id="Path_5749" data-name="Path 5749" d="M135.86,379.974h-.453c-.086,0-.156-.051-.148-.105l.238-1.951c0-.055.086-.1.176-.1h.453c.086,0,.16.047.148.109l-.234,1.932C136.032,379.935,135.938,379.974,135.86,379.974Z" transform="translate(-124.753 -335.113)" fill="#263238"/>
        <path id="Path_5750" data-name="Path 5750" d="M146.738,328.65s-1.128,1.705.843,6.841l.831,2.1h0c.273.695,2.8-.324,3.66-1.448h0S147.9,332.853,146.738,328.65Z" transform="translate(-131.556 -305.132)" opacity="0.2"/>
        <path id="Path_5751" data-name="Path 5751" d="M196.648,352.116l3.075-1.846-.023,2.814s-2.341,1.924-3.38.39C196.32,353.482,195.973,352.4,196.648,352.116Z" transform="translate(-161.931 -318.315)" fill="#cb7a63"/>
        <path id="Path_5752" data-name="Path 5752" d="M207.3,351.171l-.129,1.022a.726.726,0,0,1-.593.628l-1.487.261.023-2.814,1.495.094a.718.718,0,0,1,.695.745A.359.359,0,0,1,207.3,351.171Z" transform="translate(-167.333 -318.315)" fill="#cb7a63"/>
        <path id="Path_5753" data-name="Path 5753" d="M154.891,338.213a8.671,8.671,0,0,0,4.64,4.172c2.38.78,7.86-2.314,10.349-4.269,0-.96-.207-1.218-1.132-1.471a20.7,20.7,0,0,1-7.356,1.951c-1.522.156-2.314-1.479-3.325-3.84-.5-1.171-2.455-8.242-3.122-9.342-1.054-1.768-4.78-1.069-3.848,2.978A76.242,76.242,0,0,0,154.891,338.213Z" transform="translate(-134.32 -302.601)" fill="#cb7a63"/>
        <path id="Path_5754" data-name="Path 5754" d="M152.755,321.508c2.248,2.654,2.958,6.939,2.958,6.939l-6.392,2.864s-3.567-6.634-2.521-8.663a3.861,3.861,0,0,1,3.586-2.408,3.422,3.422,0,0,1,2.369,1.268Z" transform="translate(-131.673 -299.999)" fill="#f7b74e"/>
        <path id="Path_5755" data-name="Path 5755" d="M118.621,378.386l-.453-.047c-.086-.02-.152-.059-.14-.117l.39-1.908c0-.059.094-.094.183-.086l.453.047c.086,0,.152.062.14.117l-.39,1.912a.148.148,0,0,1-.183.082Z" transform="translate(-114.245 -334.142)" fill="#263238"/>
        <rect id="Rectangle_1666" data-name="Rectangle 1666" width="0.39" height="16.355" transform="translate(2.524 42.235) rotate(-84.46)" fill="#263238"/>
      </g>
    </g>
  </g>
</svg>
