<svg xmlns="http://www.w3.org/2000/svg" width="34.003" height="23.783" viewBox="0 0 34.003 23.783">
  <g id="paypal-svgrepo-com_2_" data-name="paypal-svgrepo-com (2)" transform="translate(0 -76.942)">
    <path id="Path_10506" data-name="Path 10506" d="M41.013,105.789a1.947,1.947,0,0,1-1.946,1.947H10.03a1.947,1.947,0,0,1-1.946-1.947V86.973a1.946,1.946,0,0,1,1.946-1.947H39.067a1.946,1.946,0,0,1,1.946,1.947v18.816Z" transform="translate(-7.547 -7.547)" fill="#92dbef"/>
    <path id="Path_10507" data-name="Path 10507" d="M31.52,100.725H2.483A2.486,2.486,0,0,1,0,98.242V79.425a2.486,2.486,0,0,1,2.483-2.483H31.52A2.486,2.486,0,0,1,34,79.425v2.089a.537.537,0,1,1-1.074,0V79.425a1.411,1.411,0,0,0-1.41-1.41H2.483a1.411,1.411,0,0,0-1.41,1.41V98.242a1.411,1.411,0,0,0,1.41,1.41H31.52a1.411,1.411,0,0,0,1.41-1.41V83.257a.537.537,0,0,1,1.074,0V98.242A2.486,2.486,0,0,1,31.52,100.725Z" fill="#202121"/>
    <g id="Group_8587" data-name="Group 8587" transform="translate(0.537 77.479)" opacity="0.15">
      <path id="Path_10508" data-name="Path 10508" d="M9.468,105.789V86.973a1.947,1.947,0,0,1,1.947-1.947H10.03a1.946,1.946,0,0,0-1.946,1.946v18.816a1.947,1.947,0,0,0,1.946,1.947h1.384A1.947,1.947,0,0,1,9.468,105.789Z" transform="translate(-8.084 -85.026)" fill="#202121"/>
    </g>
    <path id="Path_10509" data-name="Path 10509" d="M163.677,133.065c-.722-.825-2.062-1.237-3.917-1.237h-5.154a.885.885,0,0,0-.722.618l-2.062,13.5a.471.471,0,0,0,.412.515h3.2l.825-5.051v.206a.884.884,0,0,1,.722-.618h1.546c2.989,0,5.257-1.237,5.978-4.639v-.309h0a3.6,3.6,0,0,0-.824-2.989" transform="translate(-141.739 -51.241)" fill="#263b80"/>
    <path id="Path_10510" data-name="Path 10510" d="M226.808,187.058v-.309c0-.01,0-.02,0-.03a2.916,2.916,0,0,0-.486-.274,4.567,4.567,0,0,0-1.561-.315h-4.656a.745.745,0,0,0-.723.64l-.822,5.339v.206a.884.884,0,0,1,.722-.618h1.546C223.818,191.7,226.086,190.46,226.808,187.058Z" transform="translate(-204.046 -101.936)" fill="#232c65"/>
    <path id="Path_10511" data-name="Path 10511" d="M212.892,196.32a2.7,2.7,0,0,0-1.011-1.308c0,.01,0,.02,0,.03v.309c-.722,3.4-2.989,4.639-5.978,4.639h-1.546a.884.884,0,0,0-.722.618v-.079c-.012.026-.023.053-.031.079l-.582,3.553-.211,1.292h0l-.237,1.443a.377.377,0,0,0,.412.412h2.57a.726.726,0,0,0,.729-.619l.022-.135h0l.493-3.06a.78.78,0,0,1,.768-.722h.263c2.577,0,4.639-1.031,5.154-4.123A4.86,4.86,0,0,0,212.892,196.32Z" transform="translate(-189.118 -110.229)" fill="#139ad6"/>
    <path id="Path_10512" data-name="Path 10512" d="M158.437,129.61a3.164,3.164,0,0,0-.966-1.384,4.991,4.991,0,0,0-.172-1.664,3.769,3.769,0,0,0-.734-1.318,4.18,4.18,0,0,0-2.373-1.306,9.447,9.447,0,0,0-2.017-.194h-5.154a1.212,1.212,0,0,0-.806.341,1.375,1.375,0,0,0-.446.733l-2.062,13.5a1.063,1.063,0,0,0,.254.8.915.915,0,0,0,.689.33h2.563l-.134.82a.933.933,0,0,0,.234.746.955.955,0,0,0,.708.29h2.57a1.276,1.276,0,0,0,1.259-1.07l.515-3.2c.023-.143.066-.27.238-.27h.263a6.051,6.051,0,0,0,3.939-1.216,5.522,5.522,0,0,0,1.763-3.466,5.238,5.238,0,0,0-.13-2.483Zm-9.078,3.309.661-4.294c.042-.186.133-.2.2-.2h4.609a3.775,3.775,0,0,1,1.538.347l0,.006a5.712,5.712,0,0,1-1.186,2.531,4.614,4.614,0,0,1-2.549,1.44,8.178,8.178,0,0,1-1.7.17h-1.579Zm-2.538-7.883a.442.442,0,0,1,.205-.218h5.149a7.025,7.025,0,0,1,2.416.351,3.006,3.006,0,0,1,.807.431,2.622,2.622,0,0,1,.643.755,2.812,2.812,0,0,1,.355,1.261,5.2,5.2,0,0,0-1.475-.263l-.052,0h-4.655a1.288,1.288,0,0,0-1.253,1.1l-.821,5.337-.751,4.6h-2.6Zm10.668,6.991c-.412,2.472-1.925,3.674-4.625,3.674H152.6a1.3,1.3,0,0,0-1.3,1.189l-.509,3.159c-.047.188-.13.188-.2.188h-2.417l.2-1.2c0-.009,0-.019.005-.028l.765-4.672c.062-.113.109-.3.257-.341h1.541a8.073,8.073,0,0,0,3.191-.594,5.272,5.272,0,0,0,2.39-2.075,7.03,7.03,0,0,0,.746-1.7,3.689,3.689,0,0,1,.224,2.4C157.078,134.5,157.627,131.2,157.49,132.027Z" transform="translate(-134.155 -43.694)" fill="#202121"/>
  </g>
</svg>
