<svg xmlns="http://www.w3.org/2000/svg" width="14.824" height="13.546" viewBox="0 0 14.824 13.546">
  <g id="pizza-svgrepo-com" transform="translate(0 -2.5)">
    <path id="Path_10521" data-name="Path 10521" d="M22.887,14.709a1.169,1.169,0,0,0,.345.832.256.256,0,0,0,.361-.361.665.665,0,0,1,0-.942,1.178,1.178,0,0,0,0-1.664.256.256,0,0,0-.361.361.667.667,0,0,1,0,.942A1.169,1.169,0,0,0,22.887,14.709Z" transform="translate(-17.038 -7.443)" fill="#262a34"/>
    <path id="Path_10522" data-name="Path 10522" d="M12,14.709a1.169,1.169,0,0,0,.345.832.256.256,0,1,0,.361-.361.665.665,0,0,1,0-.942,1.178,1.178,0,0,0,0-1.664.256.256,0,1,0-.361.361.667.667,0,0,1,0,.942A1.169,1.169,0,0,0,12,14.709Z" transform="translate(-8.933 -7.443)" fill="#262a34"/>
    <path id="Path_10523" data-name="Path 10523" d="M17.887,11.709a1.169,1.169,0,0,0,.345.832.256.256,0,1,0,.361-.361.665.665,0,0,1,0-.942,1.178,1.178,0,0,0,0-1.664.256.256,0,0,0-.361.361.667.667,0,0,1,0,.942A1.169,1.169,0,0,0,17.887,11.709Z" transform="translate(-13.315 -5.21)" fill="#262a34"/>
    <path id="Path_10524" data-name="Path 10524" d="M11.022,38.5c-.573,0-1.022.337-1.022.767s.449.767,1.022.767,1.022-.337,1.022-.767S11.6,38.5,11.022,38.5Zm0,1.022c-.312,0-.511-.151-.511-.256s.2-.256.511-.256.511.151.511.256S11.334,39.522,11.022,39.522Z" transform="translate(-7.444 -26.799)" fill="#262a34"/>
    <path id="Path_10525" data-name="Path 10525" d="M14.022,30.5c-.573,0-1.022.337-1.022.767s.449.767,1.022.767,1.022-.337,1.022-.767S14.6,30.5,14.022,30.5Zm0,1.022c-.312,0-.511-.151-.511-.256s.2-.256.511-.256.511.151.511.256S14.334,31.522,14.022,31.522Z" transform="translate(-9.677 -20.844)" fill="#262a34"/>
    <path id="Path_10526" data-name="Path 10526" d="M24.022,30.033c.573,0,1.022-.337,1.022-.767S24.6,28.5,24.022,28.5,23,28.837,23,29.267,23.449,30.033,24.022,30.033Zm0-1.022c.312,0,.511.151.511.256s-.2.256-.511.256-.511-.151-.511-.256S23.71,29.011,24.022,29.011Z" transform="translate(-17.122 -19.355)" fill="#262a34"/>
    <path id="Path_10527" data-name="Path 10527" d="M34.022,31.033c.573,0,1.022-.337,1.022-.767S34.6,29.5,34.022,29.5,33,29.837,33,30.267,33.449,31.033,34.022,31.033Zm0-1.022c.312,0,.511.151.511.256s-.2.256-.511.256-.511-.151-.511-.256S33.71,30.011,34.022,30.011Z" transform="translate(-24.566 -20.099)" fill="#262a34"/>
    <path id="Path_10528" data-name="Path 10528" d="M44.045,34.267c0-.43-.449-.767-1.022-.767S42,33.837,42,34.267s.449.767,1.022.767S44.045,34.7,44.045,34.267Zm-1.022.256c-.312,0-.511-.151-.511-.256s.2-.256.511-.256.511.151.511.256S43.334,34.522,43.022,34.522Z" transform="translate(-31.266 -23.077)" fill="#262a34"/>
    <path id="Path_10529" data-name="Path 10529" d="M37.022,39.5c-.573,0-1.022.337-1.022.767s.449.767,1.022.767,1.022-.337,1.022-.767S37.6,39.5,37.022,39.5Zm0,1.022c-.312,0-.511-.151-.511-.256s.2-.256.511-.256.511.151.511.256S37.334,40.522,37.022,40.522Z" transform="translate(-26.799 -27.544)" fill="#262a34"/>
    <path id="Path_10530" data-name="Path 10530" d="M26.022,41.5c-.573,0-1.022.337-1.022.767s.449.767,1.022.767,1.022-.337,1.022-.767S26.6,41.5,26.022,41.5Zm0,1.022c-.312,0-.511-.151-.511-.256s.2-.256.511-.256.511.151.511.256S26.334,42.522,26.022,42.522Z" transform="translate(-18.611 -29.032)" fill="#262a34"/>
    <path id="Path_10531" data-name="Path 10531" d="M21.306,38.751a.254.254,0,0,0-.262.1.4.4,0,0,0-.352.224.4.4,0,0,0-.376.318.256.256,0,0,0,.2.3.248.248,0,0,0,.053.005.255.255,0,0,0,.209-.109.4.4,0,0,0,.352-.224.4.4,0,0,0,.376-.318A.256.256,0,0,0,21.306,38.751Z" transform="translate(-15.119 -26.982)" fill="#262a34"/>
    <path id="Path_10532" data-name="Path 10532" d="M30.937,37.895a.421.421,0,0,0-.366-.2.4.4,0,0,0-.154-.147.394.394,0,0,0-.305-.03.256.256,0,0,0,.046.5.4.4,0,0,0,.158.154.426.426,0,0,0,.207.048.4.4,0,0,0,.46.177.256.256,0,0,0-.046-.5Z" transform="translate(-22.28 -26.054)" fill="#262a34"/>
    <path id="Path_10533" data-name="Path 10533" d="M24.177,34.9a.414.414,0,0,0-.366-.2.4.4,0,0,0-.46-.177.256.256,0,0,0,.046.5.4.4,0,0,0,.158.154.427.427,0,0,0,.207.048.4.4,0,0,0,.46.177.256.256,0,0,0-.046-.5Z" transform="translate(-17.248 -23.821)" fill="#262a34"/>
    <path id="Path_10534" data-name="Path 10534" d="M14.784,13.9a.388.388,0,0,0-.007-.122L12.8,8.67l1.254-5.087c0-.009,0-.017,0-.026a.257.257,0,0,0,.007-.035V2.756A.255.255,0,0,0,13.8,2.5H1.022a.256.256,0,0,0-.256.256v.767a.256.256,0,0,0,.256.256H1.06L2.133,8.5a.387.387,0,0,0-.1.162L.057,13.741l-.01.034a.389.389,0,0,0,0,.143A.311.311,0,0,0,0,14.066V15.64a.407.407,0,0,0,.406.406H14.417a.407.407,0,0,0,.406-.406V14.034A.279.279,0,0,0,14.784,13.9ZM8.8,13.745H8.791a.4.4,0,0,0-.383.312.781.781,0,0,1-.032.1c-.007.018-.011.037-.019.055s-.027.047-.04.071-.023.045-.038.065-.024.028-.035.042a.941.941,0,0,1-.067.079l-.02.017a1.071,1.071,0,0,1-.568.272,1.161,1.161,0,0,1-.354,0,1.068,1.068,0,0,1-.574-.277l-.014-.012a.959.959,0,0,1-.071-.084c-.01-.013-.022-.024-.031-.038a.833.833,0,0,1-.042-.073c-.012-.021-.026-.041-.036-.063s-.016-.045-.024-.068a.737.737,0,0,1-.028-.083.394.394,0,0,0-.383-.312H2.753A2.726,2.726,0,0,1,1.533,11.7c0-1.524,2.692-2.811,5.878-2.811S13.29,10.177,13.29,11.7a2.726,2.726,0,0,1-1.22,2.045ZM2.491,8.889H3.964A6.246,6.246,0,0,0,2.136,9.8Zm10.2.914a6.246,6.246,0,0,0-1.828-.914h1.472Zm1,2.573.532,1.369H12.865A3.429,3.429,0,0,0,13.688,12.377ZM1.278,3.011H13.546v.256H8.416a.255.255,0,0,0-.246.325.211.211,0,0,1,.008.058c0,.181-.262.383-.639.383S6.9,3.832,6.9,3.65a.211.211,0,0,1,.008-.058.255.255,0,0,0-.246-.325H1.278ZM6.4,3.778a1.082,1.082,0,0,0,1.139.767,1.082,1.082,0,0,0,1.139-.767h4.8l-1.134,4.6H2.63l-1.046-4.6Zm-5.265,8.6a3.426,3.426,0,0,0,.823,1.369H.6Zm13.177,3.158H.511V14.257H5.94a1.5,1.5,0,0,0,1.472,1.022,1.5,1.5,0,0,0,1.472-1.022h5.428Z" fill="#262a34"/>
  </g>
</svg>
