<svg xmlns="http://www.w3.org/2000/svg" width="10.971" height="12.538" viewBox="0 0 10.971 12.538">
  <path id="Icon_awesome-calendar-alt" data-name="Icon awesome-calendar-alt" d="M0,11.362a1.176,1.176,0,0,0,1.175,1.175H9.8a1.176,1.176,0,0,0,1.175-1.175V4.7H0Zm7.836-4.8a.3.3,0,0,1,.294-.294h.98a.3.3,0,0,1,.294.294v.98a.3.3,0,0,1-.294.294H8.13a.3.3,0,0,1-.294-.294Zm0,3.134A.3.3,0,0,1,8.13,9.4h.98A.3.3,0,0,1,9.4,9.7v.98a.3.3,0,0,1-.294.294H8.13a.3.3,0,0,1-.294-.294ZM4.7,6.563A.3.3,0,0,1,5,6.269h.98a.3.3,0,0,1,.294.294v.98a.3.3,0,0,1-.294.294H5A.3.3,0,0,1,4.7,7.542ZM4.7,9.7A.3.3,0,0,1,5,9.4h.98a.3.3,0,0,1,.294.294v.98a.3.3,0,0,1-.294.294H5a.3.3,0,0,1-.294-.294ZM1.567,6.563a.3.3,0,0,1,.294-.294h.98a.3.3,0,0,1,.294.294v.98a.3.3,0,0,1-.294.294h-.98a.3.3,0,0,1-.294-.294Zm0,3.134A.3.3,0,0,1,1.861,9.4h.98a.3.3,0,0,1,.294.294v.98a.3.3,0,0,1-.294.294h-.98a.3.3,0,0,1-.294-.294ZM9.8,1.567H8.62V.392A.393.393,0,0,0,8.228,0H7.444a.393.393,0,0,0-.392.392V1.567H3.918V.392A.393.393,0,0,0,3.526,0H2.743a.393.393,0,0,0-.392.392V1.567H1.175A1.176,1.176,0,0,0,0,2.743V3.918H10.971V2.743A1.176,1.176,0,0,0,9.8,1.567Z" fill="#e8e6f1"/>
</svg>
