<svg xmlns="http://www.w3.org/2000/svg" width="14.298" height="16.221" viewBox="0 0 14.298 16.221">
  <g id="tea-svgrepo-com" transform="translate(-17.176 0)">
    <path id="Path_10516" data-name="Path 10516" d="M29.344,271.768a1.014,1.014,0,0,1-1.014,1.013H18.19a1.014,1.014,0,0,1-1.014-1.013Z" transform="translate(0 -256.56)" fill="#ccd0d2"/>
    <path id="Path_10517" data-name="Path 10517" d="M39.292,120.555c0-1.55-1.543-1.793-2.557-1.807v-1.011H25.457v3.042c0,2.914,1.747,5.306,4.626,5.555.165.015.844.022,1.012.022s.856-.008,1.025-.023a4.808,4.808,0,0,0,4.03-2.834C38.152,122.912,39.292,122.224,39.292,120.555Zm-2.812,2.061a6.693,6.693,0,0,0,.254-1.837v-1.042c.757-.015,1.662.031,1.662.795Q38.4,121.849,36.48,122.616Z" transform="translate(-7.818 -111.148)" fill="#ccd0d2"/>
    <g id="Group_8675" data-name="Group 8675" transform="translate(20.218 6.588)">
      <g id="Group_8674" data-name="Group 8674" transform="translate(0)">
        <path id="Path_10518" data-name="Path 10518" d="M73.528,120.265H73.06v-2.536h-.507v2.536h-.531l-.483,1.014v2.028h2.535v-2.028Z" transform="translate(-71.539 -117.729)" fill="#868686"/>
      </g>
    </g>
    <g id="Group_8677" data-name="Group 8677" transform="translate(19.711 0)">
      <g id="Group_8676" data-name="Group 8676" transform="translate(0 0)">
        <path id="Path_10519" data-name="Path 10519" d="M68.689,2.14c-.7-.926-.161-1.407.017-1.565A.3.3,0,0,0,68.7.1a.446.446,0,0,0-.56.008,1.614,1.614,0,0,0-.112,2.406.994.994,0,0,1-.174,1.471.3.3,0,0,0,0,.479.427.427,0,0,0,.282.1.433.433,0,0,0,.279-.1A1.6,1.6,0,0,0,68.689,2.14ZM63.636.575A.305.305,0,0,0,63.627.1.447.447,0,0,0,63.066.1a1.614,1.614,0,0,0-.112,2.406A.994.994,0,0,1,62.78,3.98a.306.306,0,0,0,0,.48.427.427,0,0,0,.281.1.433.433,0,0,0,.279-.1,1.6,1.6,0,0,0,.281-2.323C62.914,1.214,63.457.732,63.636.575Zm2.535,0A.305.305,0,0,0,66.162.1.446.446,0,0,0,65.6.1a1.614,1.614,0,0,0-.112,2.406.994.994,0,0,1-.174,1.471.3.3,0,0,0,0,.479.428.428,0,0,0,.282.1.433.433,0,0,0,.279-.1,1.6,1.6,0,0,0,.281-2.323C65.449,1.214,65.992.732,66.171.575Z" transform="translate(-62.474 0)" fill="#ccd0d2"/>
      </g>
    </g>
    <g id="Group_8678" data-name="Group 8678" transform="translate(17.639 6.588)">
      <path id="Path_10520" data-name="Path 10520" d="M32.628,126.072c-.168.015-.852.023-1.025.023s-.847-.007-1.012-.022c-2.88-.249-4.626-2.642-4.626-5.555v-2.789h-.507v3.042c0,2.914,1.747,5.306,4.626,5.555.165.015.844.022,1.012.022s.856-.008,1.025-.023a4.918,4.918,0,0,0,2.058-.648A5.023,5.023,0,0,1,32.628,126.072Z" transform="translate(-25.457 -117.729)" fill="#c2c5c7"/>
    </g>
  </g>
</svg>
