<svg xmlns="http://www.w3.org/2000/svg" width="336" height="43" viewBox="0 0 336 43">
  <g id="Group_8981" data-name="Group 8981" transform="translate(-43 -108.645)">
    <text id="Select_Service" data-name="Select Service" transform="translate(81 146.645)" fill="#e8e6f1" font-size="12" font-family="Roboto-Regular, Roboto"><tspan x="-37.462" y="0">Select Service</tspan></text>
    <text id="Date_Time" data-name="Date &amp; Time" transform="translate(180 147.645)" fill="#e8e6f1" font-size="13" font-family="Roboto-Regular, Roboto"><tspan x="-35.093" y="0">Date &amp; Time</tspan></text>
    <text id="Review" transform="translate(270 147.645)" fill="#e8e6f1" font-size="13" font-family="Roboto-Regular, Roboto"><tspan x="-20.458" y="0">Review</tspan></text>
    <text id="Pay" transform="translate(367 147.645)" fill="#e8e6f1" font-size="13" font-family="Roboto-Regular, Roboto"><tspan x="-10.677" y="0">Pay</tspan></text>
    <ellipse id="Ellipse_507" data-name="Ellipse 507" cx="11.5" cy="11" rx="11.5" ry="11" transform="translate(72 108.645)" fill="#dfbd8d"/>
    <g id="Ellipse_508" data-name="Ellipse 508" transform="translate(167 108.645)" fill="none" stroke="#dfbd8d" stroke-width="1">
      <circle cx="11" cy="11" r="11" stroke="none"/>
      <circle cx="11" cy="11" r="10.5" fill="none"/>
    </g>
    <g id="Ellipse_509" data-name="Ellipse 509" transform="translate(262 108.645)" fill="none" stroke="#e8e6f1" stroke-width="1">
      <ellipse cx="11.5" cy="11" rx="11.5" ry="11" stroke="none"/>
      <ellipse cx="11.5" cy="11" rx="11" ry="10.5" fill="none"/>
    </g>
    <g id="Ellipse_510" data-name="Ellipse 510" transform="translate(356 108.645)" fill="none" stroke="#e8e6f1" stroke-width="1">
      <ellipse cx="11.5" cy="11" rx="11.5" ry="11" stroke="none"/>
      <ellipse cx="11.5" cy="11" rx="11" ry="10.5" fill="none"/>
    </g>
    <line id="Line_7" data-name="Line 7" x2="65.749" transform="translate(98.776 119.386)" fill="none" stroke="#e8e6f1" stroke-linecap="round" stroke-width="1"/>
    <line id="Line_8" data-name="Line 8" x2="65.749" transform="translate(193.939 119.386)" fill="none" stroke="gray" stroke-linecap="round" stroke-width="1"/>
    <line id="Line_9" data-name="Line 9" x2="65.749" transform="translate(287.372 119.386)" fill="none" stroke="gray" stroke-linecap="round" stroke-width="1"/>
  </g>
</svg>
