<svg xmlns="http://www.w3.org/2000/svg" width="36.547" height="25.204" viewBox="0 0 36.547 25.204">
  <g id="visa-svgrepo-com" transform="translate(0 -79.451)">
    <path id="Path_10492" data-name="Path 10492" d="M36.547,102.495a2.16,2.16,0,0,1-2.16,2.16H2.16A2.16,2.16,0,0,1,0,102.495V81.611a2.16,2.16,0,0,1,2.16-2.16H34.386a2.16,2.16,0,0,1,2.16,2.16v20.883Z" transform="translate(0 0)" fill="#fff"/>
    <path id="Path_10493" data-name="Path 10493" d="M36.436,194.607l-.858-4.117a1.024,1.024,0,0,0-1.107-.759H30.537l-.035.188A8.092,8.092,0,0,1,36.436,194.607Z" transform="translate(-28.325 -102.409)" fill="#f79f1a"/>
    <g id="Group_8582" data-name="Group 8582" transform="translate(0 79.451)">
      <path id="Path_10494" data-name="Path 10494" d="M187.629,190.892h-2.542l-1.588,9.317h2.538Z" transform="translate(-170.401 -182.937)" fill="#059bbf"/>
      <path id="Path_10495" data-name="Path 10495" d="M70.8,200.282l4-9.3h-2.69l-2.487,6.355-.265-.96a9.941,9.941,0,0,0-3.517-3.862l2.273,7.771Z" transform="translate(-61.137 -183.02)" fill="#059bbf"/>
      <path id="Path_10496" data-name="Path 10496" d="M248.606,195.09c.009-1.058-.67-1.865-2.133-2.531-.889-.43-1.432-.717-1.425-1.154,0-.386.459-.8,1.454-.8a4.688,4.688,0,0,1,1.9.357l.23.105.344-2.018a6.584,6.584,0,0,0-2.277-.389c-2.51,0-4.276,1.263-4.292,3.074-.016,1.339,1.263,2.085,2.226,2.532.988.455,1.32.746,1.314,1.154-.006.624-.788.909-1.518.909a5.328,5.328,0,0,1-2.392-.488l-.325-.149-.357,2.088a8.012,8.012,0,0,0,2.828.495C246.853,198.273,248.587,197.026,248.606,195.09Z" transform="translate(-224.128 -180.864)" fill="#059bbf"/>
      <path id="Path_10497" data-name="Path 10497" d="M343.586,198.938l3.253,0c.077.324.309,1.4.309,1.4H349.5l-2.057-9.311h-1.961a1.264,1.264,0,0,0-1.33.772l-3.772,8.539h2.669S343.487,199.19,343.586,198.938Zm1.741-4.512c-.013.025.211-.539.338-.89l.172.8s.485,2.226.587,2.691h-2.108C344.527,196.5,345.327,194.426,345.327,194.426Z" transform="translate(-316.088 -183.063)" fill="#059bbf"/>
      <path id="Path_10498" data-name="Path 10498" d="M34.386,79.451H2.16A2.16,2.16,0,0,0,0,81.611v2.242H36.547V81.611A2.16,2.16,0,0,0,34.386,79.451Z" transform="translate(0 -79.451)" fill="#059bbf"/>
    </g>
    <path id="Path_10499" data-name="Path 10499" d="M34.386,375.274H2.16A2.16,2.16,0,0,1,0,373.113v-2.242H36.547v2.242A2.16,2.16,0,0,1,34.386,375.274Z" transform="translate(0 -270.618)" fill="#f79f1a"/>
    <path id="Path_10500" data-name="Path 10500" d="M1.536,102.495V81.611a2.16,2.16,0,0,1,2.16-2.16H2.16A2.16,2.16,0,0,0,0,81.611v20.883a2.16,2.16,0,0,0,2.16,2.16H3.7A2.161,2.161,0,0,1,1.536,102.495Z" transform="translate(0 0)" fill="#202121" opacity="0.15"/>
  </g>
</svg>
